<svg xmlns="http://www.w3.org/2000/svg" version="1.1" width="692" height="1024">
<rect x="0" y="0" width="692" height="1024" fill="#d2723e" />
<g transform="scale(4.000000) translate(0.5 0.5)">
<ellipse fill="#ccd8ce" fill-opacity="0.501961" cx="84" cy="183" rx="36" ry="56" />
<ellipse fill="#b93702" fill-opacity="0.501961" cx="83" cy="214" rx="15" ry="33" />
<ellipse fill="#5c6961" fill-opacity="0.501961" cx="84" cy="101" rx="30" ry="30" />
<g transform="translate(85.150317 149.813348) rotate(231.408883) scale(17.930031 32.026549)"><ellipse fill="#dfe1cd" fill-opacity="0.501961" cx="0" cy="0" rx="1" ry="1" /></g>
<g transform="translate(147.341913 159.259277) rotate(3.996481) scale(31.707140 96.199870)"><ellipse fill="#d2531a" fill-opacity="0.501961" cx="0" cy="0" rx="1" ry="1" /></g>
<g transform="translate(24.647644 184.955821) rotate(285.510632) scale(69.475277 25.518017)"><ellipse fill="#e35113" fill-opacity="0.501961" cx="0" cy="0" rx="1" ry="1" /></g>
<rect fill="#edf7f1" fill-opacity="0.501961" x="50" y="183" width="17" height="45" />
<ellipse fill="#e7651c" fill-opacity="0.501961" cx="78" cy="0" rx="81" ry="81" />
<rect fill="#e2e8dd" fill-opacity="0.501961" x="99" y="185" width="18" height="44" />
<polygon fill="#f2fffa" fill-opacity="0.501961" points="90,92 77,75 89,116" />
<polygon fill="#7a6754" fill-opacity="0.501961" points="109.608413,170.550043,118.480957,220.478650,147.200822,209.738277,114.717984,157.226791" />
<g transform="translate(121.504930 88.308794) rotate(122.249370) scale(14.622913 9.803789)"><ellipse fill="#a5bcaf" fill-opacity="0.501961" cx="0" cy="0" rx="1" ry="1" /></g>
<g transform="translate(45 91) rotate(237) scale(26 14)"><rect fill="#b4cbc6" fill-opacity="0.501961" x="-0.5" y="-0.5" width="1" height="1" /></g>
<polygon fill="#261826" fill-opacity="0.501961" points="86.840573,101.579829,79.411923,107.396611,60.058497,97.937376,63.158932,83.865818" />
<g transform="translate(88.601654 246.875262) rotate(267.640065) scale(18.658911 87.003843)"><ellipse fill="#e77727" fill-opacity="0.501961" cx="0" cy="0" rx="1" ry="1" /></g>
<g transform="translate(0.000000 99.592250) rotate(260.185037) scale(78.279095 32.519281)"><ellipse fill="#e5631d" fill-opacity="0.501961" cx="0" cy="0" rx="1" ry="1" /></g>
<g transform="translate(172.000000 90.750558) rotate(94.130436) scale(160.955381 36.253391)"><ellipse fill="#e16224" fill-opacity="0.501961" cx="0" cy="0" rx="1" ry="1" /></g>
<rect fill="#dacbb2" fill-opacity="0.501961" x="59" y="131" width="51" height="42" />
<polygon fill="#2f1919" fill-opacity="0.501961" points="99,102 105,88 85,86" />
<g transform="translate(76.106647 215.470815) rotate(221.795982) scale(10.264372 5.198087)"><ellipse fill="#861307" fill-opacity="0.501961" cx="0" cy="0" rx="1" ry="1" /></g>
<rect fill="#9e7a4f" fill-opacity="0.501961" x="25" y="72" width="114" height="15" />
<polygon fill="#a77145" fill-opacity="0.501961" points="83,138 136,92 59,125" />
<rect fill="#c19167" fill-opacity="0.501961" x="76" y="177" width="24" height="35" />
<polygon fill="#dacbb5" fill-opacity="0.501961" points="82.862415,126.566033,85.193345,56.785786,77.053970,95.910373,94.185230,95.940073" />
<ellipse fill="#34131f" fill-opacity="0.501961" cx="121" cy="206" rx="4" ry="10" />
<polygon fill="#bfc3ac" fill-opacity="0.501961" points="140,209 124,211 132,198" />
<polygon fill="#dbc8bf" fill-opacity="0.501961" points="129,73 111,94 121,97" />
<ellipse fill="#040121" fill-opacity="0.501961" cx="77" cy="107" rx="4" ry="9" />
<ellipse fill="#e2d1b5" fill-opacity="0.501961" cx="80" cy="118" rx="10" ry="3" />
<g transform="translate(91.156689 216.808775) rotate(85.199397) scale(2.493763 5.084898)"><ellipse fill="#540002" fill-opacity="0.501961" cx="0" cy="0" rx="1" ry="1" /></g>
<g transform="translate(167.683926 210.661632) rotate(46.597727) scale(26.060394 35.950353)"><ellipse fill="#cf4f26" fill-opacity="0.501961" cx="0" cy="0" rx="1" ry="1" /></g>
<polygon fill="#98401b" fill-opacity="0.501961" points="56,75 74,125 58,121" />
<polygon fill="#ddcdbb" fill-opacity="0.501961" points="45,228 70,172 64,229" />
<rect fill="#755c3f" fill-opacity="0.501961" x="122" y="66" width="18" height="9" />
<rect fill="#db6629" fill-opacity="0.501961" x="1" y="108" width="56" height="73" />
<polygon fill="#e0ccb5" fill-opacity="0.501961" points="112,221 91,227 121,181" />
<polygon fill="#dd6528" fill-opacity="0.501961" points="99.878564,248.204857,129.909022,246.912450,75.842531,215.180182,66.210631,240.389036" />
<g transform="translate(126.950809 119.487493) rotate(28.966149) scale(13.189655 26.828271)"><ellipse fill="#e26b27" fill-opacity="0.501961" cx="0" cy="0" rx="1" ry="1" /></g>
<rect fill="#e0e1d5" fill-opacity="0.501961" x="84" y="99" width="8" height="13" />
<polygon fill="#d6c7af" fill-opacity="0.501961" points="55,146 109,121 114,169" />
<rect fill="#d55826" fill-opacity="0.501961" x="0" y="199" width="47" height="41" />
<polygon fill="#e2d1be" fill-opacity="0.501961" points="62.878129,158.589600,51.544203,218.180922,70.873671,228.580986,69.950254,220.877385" />
<polygon fill="#966237" fill-opacity="0.501961" points="112.832030,180.477347,106.111486,185.106859,118.131956,156.873614,138.058185,206.588078" />
<rect fill="#ccb7ac" fill-opacity="0.501961" x="41" y="88" width="15" height="15" />
<g transform="translate(94.208892 255.000000) rotate(91.631058) scale(5.874282 111.209977)"><ellipse fill="#e78e39" fill-opacity="0.501961" cx="0" cy="0" rx="1" ry="1" /></g>
<polygon fill="#aa5431" fill-opacity="0.501961" points="69.662262,191.477667,70.555092,207.069255,96.771949,186.906144,97.843102,201.231258" />
<polygon fill="#8f5631" fill-opacity="0.501961" points="25.923061,84.721102,45.189929,71.640997,22.007248,70.730530,48.928686,112.218874" />
<polygon fill="#b07c48" fill-opacity="0.501961" points="81,65 63,105 79,89" />
<polygon fill="#de6828" fill-opacity="0.501961" points="53.898995,80.537208,-16.000000,-16.000000,111.430052,78.649777,83.635311,71.901689" />
<polygon fill="#8d5c36" fill-opacity="0.501961" points="112,112 82,131 105,80" />
<g transform="translate(72.687938 114.313342) rotate(264.419081) scale(1.745390 14.889803)"><ellipse fill="#603d3b" fill-opacity="0.501961" cx="0" cy="0" rx="1" ry="1" /></g>
<ellipse fill="#4c070d" fill-opacity="0.501961" cx="75" cy="213" rx="4" ry="4" />
<g transform="translate(74 101) rotate(177) scale(6 9)"><rect fill="#000016" fill-opacity="0.501961" x="-0.5" y="-0.5" width="1" height="1" /></g>
<g transform="translate(69.709813 135.466389) rotate(127.683022) scale(6.352276 11.577583)"><ellipse fill="#d2b894" fill-opacity="0.501961" cx="0" cy="0" rx="1" ry="1" /></g>
<rect fill="#952c21" fill-opacity="0.501961" x="116" y="215" width="23" height="4" />
<polygon fill="#a06e47" fill-opacity="0.501961" points="56.939591,93.357347,76.954579,81.332015,29.461209,72.371256,63.780893,102.357725" />
<rect fill="#de501d" fill-opacity="0.501961" x="72" y="218" width="23" height="12" />
<g transform="translate(170.765304 61.068549) rotate(278.562905) scale(94.559627 30.086551)"><ellipse fill="#dd6c2b" fill-opacity="0.501961" cx="0" cy="0" rx="1" ry="1" /></g>
<ellipse fill="#000324" fill-opacity="0.501961" cx="94" cy="90" rx="4" ry="4" />
<polygon fill="#835b41" fill-opacity="0.501961" points="135,196 124,209 118,177" />
<g transform="translate(22.816904 119.937674) rotate(286.264151) scale(20.958890 40.109450)"><ellipse fill="#e16d2a" fill-opacity="0.501961" cx="0" cy="0" rx="1" ry="1" /></g>
<rect fill="#b0907b" fill-opacity="0.501961" x="99" y="221" width="12" height="9" />
<rect fill="#e8e8e1" fill-opacity="0.501961" x="80" y="76" width="3" height="20" />
<polygon fill="#9a6034" fill-opacity="0.501961" points="133.204688,89.917987,115.129680,113.134203,138.352271,71.940006,140.220562,85.350196" />
<polygon fill="#d2b086" fill-opacity="0.501961" points="53.093876,184.677826,123.222955,183.415320,76.588004,191.327725,54.379195,180.161659" />
<polygon fill="#e2cbb6" fill-opacity="0.501961" points="89.604389,205.050005,109.064469,207.165572,118.283126,183.809896,80.962505,213.594219" />
<polygon fill="#e1d6c9" fill-opacity="0.501961" points="119,226 105,183 102,214" />
<g transform="translate(101.571938 151.921321) rotate(362.564832) scale(14.181437 16.710869)"><ellipse fill="#d5c6ae" fill-opacity="0.501961" cx="0" cy="0" rx="1" ry="1" /></g>
<polygon fill="#b39d87" fill-opacity="0.501961" points="68.278165,111.062277,70.133300,98.455801,71.886584,109.209470,107.466147,106.862655" />
<polygon fill="#c3a880" fill-opacity="0.501961" points="109.236968,135.743297,84.539590,139.305896,91.430937,123.697022,111.132242,124.029161" />
<rect fill="#be9c6f" fill-opacity="0.501961" x="122" y="71" width="11" height="13" />
<g transform="translate(50 195) rotate(270) scale(24 3)"><rect fill="#d3986e" fill-opacity="0.501961" x="-0.5" y="-0.5" width="1" height="1" /></g>
<rect fill="#e2cdb8" fill-opacity="0.501961" x="58" y="140" width="26" height="26" />
<g transform="translate(130.100678 154.992812) rotate(228.156593) scale(22.911491 9.492324)"><ellipse fill="#d85224" fill-opacity="0.501961" cx="0" cy="0" rx="1" ry="1" /></g>
<ellipse fill="#c1ad9a" fill-opacity="0.501961" cx="70" cy="108" rx="4" ry="4" />
<polygon fill="#ce4721" fill-opacity="0.501961" points="51,206 33,206 49,219" />
<polygon fill="#000011" fill-opacity="0.501961" points="79,96 80,101 83,96" />
<g transform="translate(14.098114 0.000000) rotate(45.446033) scale(23.154765 115.169489)"><ellipse fill="#d75c27" fill-opacity="0.501961" cx="0" cy="0" rx="1" ry="1" /></g>
<rect fill="#000011" fill-opacity="0.501961" x="63" y="89" width="4" height="7" />
<polygon fill="#b48451" fill-opacity="0.501961" points="52.665722,108.276395,60.621164,74.980055,53.771779,117.154758,27.876433,82.768885" />
<rect fill="#bda08a" fill-opacity="0.501961" x="57" y="222" width="10" height="9" />
<g transform="translate(74 95) rotate(245) scale(1 6)"><rect fill="#d6ddcd" fill-opacity="0.501961" x="-0.5" y="-0.5" width="1" height="1" /></g>
<rect fill="#672021" fill-opacity="0.501961" x="78" y="214" width="20" height="4" />
<polygon fill="#964d2c" fill-opacity="0.501961" points="76.243651,132.066295,63.094028,93.074322,58.835569,120.075219,93.729223,124.786149" />
<polygon fill="#967148" fill-opacity="0.501961" points="105,96 93,80 126,70" />
<rect fill="#d16732" fill-opacity="0.501961" x="66" y="229" width="101" height="11" />
<polygon fill="#ce8f73" fill-opacity="0.501961" points="98.715743,206.870279,81.988159,219.635365,84.860995,212.552088,77.403748,205.980381" />
<rect fill="#c58e5a" fill-opacity="0.501961" x="80" y="177" width="15" height="18" />
<polygon fill="#df6e2c" fill-opacity="0.501961" points="188,-8 -8,52 61,79" />
<polygon fill="#95734f" fill-opacity="0.501961" points="92.606840,103.040504,92.261651,104.909041,108.410616,109.915807,84.333400,85.149448" />
<polygon fill="#cd824a" fill-opacity="0.501961" points="82,127 89,120 73,119" />
<polygon fill="#d6bca7" fill-opacity="0.501961" points="34.259160,78.436893,50.565641,92.762445,50.254529,101.571726,38.117532,87.824886" />
<polygon fill="#dd6d2d" fill-opacity="0.501961" points="137.294810,62.604613,188.000000,-14.190037,7.622336,22.104237,102.141564,79.150631" />
<polygon fill="#b55a34" fill-opacity="0.501961" points="69.185021,207.266888,87.349899,199.938587,92.538156,199.710308,70.308661,189.481130" />
<rect fill="#987246" fill-opacity="0.501961" x="51" y="165" width="5" height="16" />
<polygon fill="#d75525" fill-opacity="0.501961" points="35,168 57,135 41,227" />
<rect fill="#dac1a1" fill-opacity="0.501961" x="56" y="161" width="45" height="13" />
<polygon fill="#ac6f41" fill-opacity="0.501961" points="108.052940,182.870950,115.278037,150.131157,136.856673,193.124618,122.603807,187.394148" />
<ellipse fill="#de6a28" fill-opacity="0.501961" cx="114" cy="125" rx="6" ry="16" />
<polygon fill="#463a3e" fill-opacity="0.501961" points="91.208834,116.332943,76.154375,113.565900,75.482041,110.885004,101.572717,115.902728" />
<polygon fill="#dc702e" fill-opacity="0.501961" points="51.702532,229.804848,98.572619,246.333446,-16.000000,253.671540,29.204880,220.139079" />
<polygon fill="#e5d3c4" fill-opacity="0.501961" points="65,179 63,204 47,203" />
<g transform="translate(85 107) rotate(143) scale(8 4)"><rect fill="#cdc3b6" fill-opacity="0.501961" x="-0.5" y="-0.5" width="1" height="1" /></g>
<g transform="translate(66 107) rotate(71) scale(21 1)"><rect fill="#5f362b" fill-opacity="0.501961" x="-0.5" y="-0.5" width="1" height="1" /></g>
<rect fill="#c4ab94" fill-opacity="0.501961" x="70" y="115" width="14" height="5" />
<g transform="translate(109 103) rotate(71) scale(9 12)"><rect fill="#b08a51" fill-opacity="0.501961" x="-0.5" y="-0.5" width="1" height="1" /></g>
<ellipse fill="#c0995a" fill-opacity="0.501961" cx="74" cy="82" rx="5" ry="5" />
<polygon fill="#844f32" fill-opacity="0.501961" points="27,79 33,95 31,70" />
<g transform="translate(76 107) rotate(221) scale(19 1)"><rect fill="#372833" fill-opacity="0.501961" x="-0.5" y="-0.5" width="1" height="1" /></g>
<ellipse fill="#d0c0a3" fill-opacity="0.501961" cx="133" cy="206" rx="4" ry="4" />
<polygon fill="#dc692b" fill-opacity="0.501961" points="177,23 126,102 185,185" />
<g transform="translate(91.917605 84.938132) rotate(226.384093) scale(3.368886 3.090328)"><ellipse fill="#6b3d2a" fill-opacity="0.501961" cx="0" cy="0" rx="1" ry="1" /></g>
<polygon fill="#22101f" fill-opacity="0.501961" points="123,207 117,209 124,212" />
<g transform="translate(4.107813 60.170723) rotate(139.021065) scale(29.871975 26.650744)"><ellipse fill="#de6a2a" fill-opacity="0.501961" cx="0" cy="0" rx="1" ry="1" /></g>
<polygon fill="#d9d0bf" fill-opacity="0.501961" points="87.932236,114.320672,83.167921,95.634480,80.942497,73.879278,92.551164,112.214412" />
<rect fill="#ddcab6" fill-opacity="0.501961" x="61" y="135" width="6" height="63" />
<polygon fill="#b78d56" fill-opacity="0.501961" points="42.196727,103.861948,62.939145,102.187495,47.676255,109.956081,30.684718,78.489962" />
<polygon fill="#e1cfbc" fill-opacity="0.501961" points="96,227 102,180 112,193" />
<g transform="translate(130 212) rotate(-32) scale(11 7)"><rect fill="#b6816b" fill-opacity="0.501961" x="-0.5" y="-0.5" width="1" height="1" /></g>
<polygon fill="#a15a34" fill-opacity="0.501961" points="41.275762,116.739565,52.457967,108.241845,63.759759,123.038914,73.152813,92.311857" />
<rect fill="#c23116" fill-opacity="0.501961" x="73" y="216" width="14" height="3" />
<polygon fill="#c2aa75" fill-opacity="0.501961" points="86.246043,74.039209,83.736890,88.811940,91.885871,75.099418,81.674359,81.699571" />
<ellipse fill="#de7334" fill-opacity="0.501961" cx="144" cy="10" rx="80" ry="8" />
<polygon fill="#dd6c2b" fill-opacity="0.501961" points="26.718085,95.527370,9.590357,155.897151,64.278827,123.043995,56.137718,112.786619" />
<ellipse fill="#ccb7a5" fill-opacity="0.501961" cx="120" cy="90" rx="7" ry="7" />
<polygon fill="#8c755d" fill-opacity="0.501961" points="124.288481,215.835270,127.405207,212.916537,129.693778,196.673004,123.276328,196.866974" />
<ellipse fill="#1c1422" fill-opacity="0.501961" cx="77" cy="101" rx="6" ry="6" />
<rect fill="#d3bba2" fill-opacity="0.501961" x="48" y="222" width="24" height="7" />
<rect fill="#d35b28" fill-opacity="0.501961" x="118" y="218" width="55" height="17" />
<polygon fill="#cf4a22" fill-opacity="0.501961" points="161.513527,198.730731,149.994095,212.129804,188.000000,236.105678,188.000000,189.119676" />
<polygon fill="#dacab2" fill-opacity="0.501961" points="98.380910,170.321450,115.878445,161.105596,89.905391,149.680901,109.514425,116.842687" />
<polygon fill="#875636" fill-opacity="0.501961" points="139,73 134,90 133,63" />
<polygon fill="#dc622a" fill-opacity="0.501961" points="-16.000000,200.164170,50.900827,201.277760,39.516361,133.223859,-16.000000,156.103230" />
<ellipse fill="#dc6829" fill-opacity="0.501961" cx="148" cy="50" rx="28" ry="18" />
<rect fill="#7b4930" fill-opacity="0.501961" x="127" y="197" width="11" height="5" />
<g transform="translate(130.739779 246.438345) rotate(275.122488) scale(6.102707 82.133346)"><ellipse fill="#df732d" fill-opacity="0.501961" cx="0" cy="0" rx="1" ry="1" /></g>
<rect fill="#914a2f" fill-opacity="0.501961" x="95" y="190" width="3" height="7" />
<polygon fill="#835136" fill-opacity="0.501961" points="122,181 112,177 115,168" />
<polygon fill="#713e30" fill-opacity="0.501961" points="97,119 92,122 93,106" />
<g transform="translate(66.376732 93.217103) rotate(56.720225) scale(3.138528 5.008801)"><ellipse fill="#342531" fill-opacity="0.501961" cx="0" cy="0" rx="1" ry="1" /></g>
<polygon fill="#8a4f2c" fill-opacity="0.501961" points="22.413231,78.569077,35.791206,74.484236,59.718859,81.624642,33.621808,70.647115" />
<g transform="translate(119.373367 200.281509) rotate(23.535027) scale(1.599375 9.147064)"><ellipse fill="#9d5638" fill-opacity="0.501961" cx="0" cy="0" rx="1" ry="1" /></g>
<g transform="translate(81 108) rotate(223) scale(1 6)"><rect fill="#b89383" fill-opacity="0.501961" x="-0.5" y="-0.5" width="1" height="1" /></g>
<rect fill="#d54e22" fill-opacity="0.501961" x="124" y="158" width="15" height="18" />
<polygon fill="#994433" fill-opacity="0.501961" points="144,210 118,217 137,217" />
<polygon fill="#631f1a" fill-opacity="0.501961" points="73.090799,209.615368,69.092233,211.006552,79.121345,216.665350,87.373865,216.392186" />
<polygon fill="#9c6a3d" fill-opacity="0.501961" points="121.536544,69.235761,85.288631,87.653646,104.205510,85.110078,120.201318,71.789843" />
<ellipse fill="#e48f41" fill-opacity="0.501961" cx="73" cy="255" rx="58" ry="3" />
<polygon fill="#e4d5c5" fill-opacity="0.501961" points="57,213 70,204 57,182" />
<g transform="translate(72.096483 206.689496) rotate(91.225216) scale(20.507898 1.000000)"><ellipse fill="#a44025" fill-opacity="0.501961" cx="0" cy="0" rx="1" ry="1" /></g>
<g transform="translate(72 132) rotate(302) scale(7 8)"><rect fill="#bc9467" fill-opacity="0.501961" x="-0.5" y="-0.5" width="1" height="1" /></g>
<ellipse fill="#76472f" fill-opacity="0.501961" cx="133" cy="68" rx="5" ry="3" />
<polygon fill="#ba8e64" fill-opacity="0.501961" points="128.933688,91.921155,111.016143,106.333618,106.628064,86.988860,113.754543,98.500213" />
<rect fill="#241929" fill-opacity="0.501961" x="73" y="110" width="6" height="4" />
<g transform="translate(71 213) rotate(186) scale(3 12)"><rect fill="#782018" fill-opacity="0.501961" x="-0.5" y="-0.5" width="1" height="1" /></g>
<polygon fill="#be996f" fill-opacity="0.501961" points="116.042522,163.611726,104.880111,121.416763,115.531013,144.235553,112.362523,168.116685" />
<polygon fill="#da5c28" fill-opacity="0.501961" points="178.239163,187.648386,140.758347,214.188131,133.901828,185.607084,128.612376,125.410042" />
<rect fill="#d1b38d" fill-opacity="0.501961" x="55" y="171" width="56" height="4" />
<polygon fill="#935c39" fill-opacity="0.501961" points="110,101 109,116 76,132" />
<g transform="translate(51.535508 86.787198) rotate(298.509409) scale(3.342284 6.906051)"><ellipse fill="#aa886c" fill-opacity="0.501961" cx="0" cy="0" rx="1" ry="1" /></g>
</g>
</svg>