<svg xmlns="http://www.w3.org/2000/svg" version="1.1" width="680" height="1024">
<rect x="0" y="0" width="680" height="1024" fill="#d3be4f" />
<g transform="scale(4.000000) translate(0.5 0.5)">
<g transform="translate(81.286242 109.589180) rotate(252.668283) scale(35.663748 32.065598)"><ellipse fill="#5d1925" fill-opacity="0.501961" cx="0" cy="0" rx="1" ry="1" /></g>
<g transform="translate(127.536419 194.084690) rotate(-12.148629) scale(14.499673 40.084389)"><ellipse fill="#6a261b" fill-opacity="0.501961" cx="0" cy="0" rx="1" ry="1" /></g>
<g transform="translate(37.857570 89.487743) rotate(36.829916) scale(26.985427 15.129147)"><ellipse fill="#963e35" fill-opacity="0.501961" cx="0" cy="0" rx="1" ry="1" /></g>
<ellipse fill="#fbf550" fill-opacity="0.501961" cx="65" cy="12" rx="68" ry="68" />
<g transform="translate(116.948928 85.669818) rotate(133.094682) scale(26.630708 13.988421)"><ellipse fill="#76332c" fill-opacity="0.501961" cx="0" cy="0" rx="1" ry="1" /></g>
<g transform="translate(81.029027 199.610523) rotate(177.952408) scale(37.134139 51.893260)"><ellipse fill="#cab192" fill-opacity="0.501961" cx="0" cy="0" rx="1" ry="1" /></g>
<g transform="translate(15.419033 153.660427) rotate(171.846838) scale(20.604145 89.890871)"><ellipse fill="#f9f34c" fill-opacity="0.501961" cx="0" cy="0" rx="1" ry="1" /></g>
<rect fill="#8f5c0a" fill-opacity="0.501961" x="63" y="196" width="32" height="32" />
<g transform="translate(157.351103 37.193664) rotate(271.151798) scale(166.061612 23.189316)"><ellipse fill="#f4ec47" fill-opacity="0.501961" cx="0" cy="0" rx="1" ry="1" /></g>
<rect fill="#f2f0d4" fill-opacity="0.501961" x="44" y="188" width="18" height="43" />
<polygon fill="#efe7bd" fill-opacity="0.501961" points="84,97 86,75 105,123" />
<polygon fill="#000018" fill-opacity="0.501961" points="90,129 83,111 100,109" />
<g transform="translate(51.946849 255.000000) rotate(94.396436) scale(15.233794 117.600951)"><ellipse fill="#f5f055" fill-opacity="0.501961" cx="0" cy="0" rx="1" ry="1" /></g>
<polygon fill="#86522a" fill-opacity="0.501961" points="114.283770,242.790009,119.217351,148.662346,103.461006,193.362590,146.225949,188.256391" />
<polygon fill="#dfd2a1" fill-opacity="0.501961" points="111,175 56,180 54,125" />
<ellipse fill="#ecebcd" fill-opacity="0.501961" cx="104" cy="214" rx="10" ry="20" />
<polygon fill="#f1e544" fill-opacity="0.501961" points="137,180 106,124 141,83" />
<g transform="translate(69.761951 102.633263) rotate(53.083398) scale(6.206897 8.401218)"><ellipse fill="#1f010d" fill-opacity="0.501961" cx="0" cy="0" rx="1" ry="1" /></g>
<g transform="translate(84.899146 142.604531) rotate(266.595027) scale(12.430469 19.396387)"><ellipse fill="#a88f54" fill-opacity="0.501961" cx="0" cy="0" rx="1" ry="1" /></g>
<g transform="translate(14.930685 146.256971) rotate(155.145311) scale(45.200284 30.460305)"><ellipse fill="#efe451" fill-opacity="0.501961" cx="0" cy="0" rx="1" ry="1" /></g>
<g transform="translate(77 238) rotate(367) scale(27 22)"><rect fill="#dfc826" fill-opacity="0.501961" x="-0.5" y="-0.5" width="1" height="1" /></g>
<polygon fill="#160005" fill-opacity="0.501961" points="67,223 81,222 63,213" />
<polygon fill="#865a34" fill-opacity="0.501961" points="115.973947,210.776656,114.488598,235.474193,135.924480,233.984080,144.914920,192.078494" />
<polygon fill="#daae87" fill-opacity="0.501961" points="54.403272,99.761265,47.712406,112.393593,31.369643,98.274487,28.426411,84.428020" />
<polygon fill="#ab6731" fill-opacity="0.501961" points="82.991809,73.985920,108.228066,80.621837,49.767393,95.429291,29.634534,84.751906" />
<polygon fill="#613419" fill-opacity="0.501961" points="90.656655,89.142007,89.667467,93.431820,108.547959,119.732035,122.219777,105.168650" />
<g transform="translate(116.585642 92.669424) rotate(294.330151) scale(11.968707 5.524607)"><ellipse fill="#d9af8a" fill-opacity="0.501961" cx="0" cy="0" rx="1" ry="1" /></g>
<polygon fill="#904716" fill-opacity="0.501961" points="17.865163,89.639261,33.086812,70.751679,13.578936,78.586711,49.037110,125.905840" />
<g transform="translate(159.891980 231.566114) rotate(195.370905) scale(25.235699 29.441458)"><ellipse fill="#d6c22e" fill-opacity="0.501961" cx="0" cy="0" rx="1" ry="1" /></g>
<polygon fill="#c6b996" fill-opacity="0.501961" points="117.336863,172.077015,101.866676,170.441767,101.997416,104.131832,95.653913,112.213789" />
<polygon fill="#9c521f" fill-opacity="0.501961" points="88.377893,96.966128,53.018038,108.529031,30.167120,106.762867,74.864957,136.129594" />
<rect fill="#d9ce89" fill-opacity="0.501961" x="121" y="213" width="8" height="13" />
<g transform="translate(116.641527 38.497023) rotate(305.231038) scale(45.943487 22.159474)"><ellipse fill="#eadd4f" fill-opacity="0.501961" cx="0" cy="0" rx="1" ry="1" /></g>
<ellipse fill="#c8a145" fill-opacity="0.501961" cx="79" cy="200" rx="19" ry="17" />
<rect fill="#f0e754" fill-opacity="0.501961" x="0" y="35" width="17" height="79" />
<polygon fill="#b3a063" fill-opacity="0.501961" points="98.217421,105.625490,95.307557,131.604898,76.139341,131.681570,117.679587,158.179598" />
<ellipse fill="#e3d347" fill-opacity="0.501961" cx="17" cy="195" rx="29" ry="54" />
<polygon fill="#af6d1b" fill-opacity="0.501961" points="42,184 53,187 49,164" />
<polygon fill="#9c632a" fill-opacity="0.501961" points="109.732283,174.272956,101.705117,192.696800,138.630593,200.179719,117.557812,144.075292" />
<polygon fill="#853e1b" fill-opacity="0.501961" points="20,80 64,84 24,69" />
<polygon fill="#372620" fill-opacity="0.501961" points="101.305753,93.761423,91.887539,96.649666,101.569182,112.883649,106.992289,97.367652" />
<polygon fill="#8e6631" fill-opacity="0.501961" points="113.090572,103.861372,99.819943,147.604901,76.336373,151.104596,100.005714,132.182178" />
<rect fill="#12101a" fill-opacity="0.501961" x="73" y="127" width="25" height="3" />
<g transform="translate(88.756516 93.662937) rotate(79.546894) scale(17.593837 2.184076)"><ellipse fill="#e1d4a7" fill-opacity="0.501961" cx="0" cy="0" rx="1" ry="1" /></g>
<g transform="translate(108 200) rotate(94) scale(13 21)"><rect fill="#e2d899" fill-opacity="0.501961" x="-0.5" y="-0.5" width="1" height="1" /></g>
<polygon fill="#592916" fill-opacity="0.501961" points="132,221 142,207 128,200" />
<ellipse fill="#f5f075" fill-opacity="0.501961" cx="37" cy="254" rx="63" ry="5" />
<ellipse fill="#000411" fill-opacity="0.501961" cx="90" cy="116" rx="7" ry="7" />
<ellipse fill="#dccb97" fill-opacity="0.501961" cx="81" cy="122" rx="4" ry="4" />
<polygon fill="#57321e" fill-opacity="0.501961" points="95.070102,228.037982,86.849435,227.926506,64.205149,217.398451,63.933233,212.147769" />
<polygon fill="#dac268" fill-opacity="0.501961" points="71.832040,213.675551,83.494763,221.131284,98.642190,222.829251,94.038898,211.172403" />
<polygon fill="#96532a" fill-opacity="0.501961" points="91,84 135,64 133,83" />
<ellipse fill="#8a4b14" fill-opacity="0.501961" cx="95" cy="242" rx="6" ry="2" />
<g transform="translate(138.144584 149.597600) rotate(52.948199) scale(44.587991 17.134860)"><ellipse fill="#dfce42" fill-opacity="0.501961" cx="0" cy="0" rx="1" ry="1" /></g>
<polygon fill="#e7da51" fill-opacity="0.501961" points="-11,13 185,-13 142,69" />
<polygon fill="#dbcaa1" fill-opacity="0.501961" points="40,235 63,235 63,197" />
<rect fill="#ded099" fill-opacity="0.501961" x="52" y="148" width="28" height="29" />
<ellipse fill="#d7cd9f" fill-opacity="0.501961" cx="98" cy="117" rx="2" ry="14" />
<polygon fill="#d1c28e" fill-opacity="0.501961" points="87.800325,156.059615,94.268719,188.076001,111.715630,167.117610,108.083549,136.772272" />
<polygon fill="#ebdf54" fill-opacity="0.501961" points="3,218 -12,58 51,130" />
<polygon fill="#13161f" fill-opacity="0.501961" points="63.251514,97.226514,72.519294,96.957354,76.967736,104.198311,66.297007,104.748027" />
<polygon fill="#ba7b29" fill-opacity="0.501961" points="59,89 46,108 62,138" />
<g transform="translate(123 99) rotate(210) scale(3 29)"><rect fill="#a75b2d" fill-opacity="0.501961" x="-0.5" y="-0.5" width="1" height="1" /></g>
<polygon fill="#b87435" fill-opacity="0.501961" points="63.267293,79.815243,66.317480,84.342244,87.305159,104.207222,83.098360,73.164096" />
<polygon fill="#a76223" fill-opacity="0.501961" points="41.586651,118.528351,22.366566,84.970601,15.757446,82.603514,21.165776,94.612666" />
<polygon fill="#ddd2aa" fill-opacity="0.501961" points="92,230 113,239 109,197" />
<ellipse fill="#decd3e" fill-opacity="0.501961" cx="162" cy="189" rx="19" ry="27" />
<polygon fill="#d8d3ad" fill-opacity="0.501961" points="86,106 90,98 101,113" />
<polygon fill="#743b1d" fill-opacity="0.501961" points="71.539830,123.038821,78.034290,101.492940,79.486086,129.153971,71.031155,135.079419" />
<ellipse fill="#e7d94d" fill-opacity="0.501961" cx="42" cy="40" rx="162" ry="30" />
<polygon fill="#7e5329" fill-opacity="0.501961" points="136.058090,187.465063,114.349213,238.259650,123.027354,169.318233,119.393649,199.388873" />
<g transform="translate(121.704806 88.081122) rotate(107.513727) scale(15.371708 3.996440)"><ellipse fill="#cc9f65" fill-opacity="0.501961" cx="0" cy="0" rx="1" ry="1" /></g>
<g transform="translate(128.476455 72.166362) rotate(218.692719) scale(7.478751 7.326443)"><ellipse fill="#8f5325" fill-opacity="0.501961" cx="0" cy="0" rx="1" ry="1" /></g>
<polygon fill="#cbb23b" fill-opacity="0.501961" points="122.836615,222.126349,185.000000,254.406443,185.000000,213.094172,147.351534,222.859091" />
<g transform="translate(134.199107 191.997464) rotate(3.722011) scale(8.680694 15.960449)"><ellipse fill="#945928" fill-opacity="0.501961" cx="0" cy="0" rx="1" ry="1" /></g>
<rect fill="#dcca43" fill-opacity="0.501961" x="0" y="210" width="42" height="35" />
<polygon fill="#c08e5e" fill-opacity="0.501961" points="65,237 53,227 44,239" />
<polygon fill="#d7c440" fill-opacity="0.501961" points="105.383510,249.392843,185.000000,258.141210,185.000000,241.037932,116.997237,233.287747" />
<polygon fill="#e5ddb0" fill-opacity="0.501961" points="59.745300,188.929041,59.090425,221.596350,38.142223,235.699224,57.593404,182.425926" />
<g transform="translate(127.632765 126.777287) rotate(82.208825) scale(11.606717 21.350088)"><ellipse fill="#e7db51" fill-opacity="0.501961" cx="0" cy="0" rx="1" ry="1" /></g>
<ellipse fill="#8f5a3a" fill-opacity="0.501961" cx="98" cy="238" rx="2" ry="6" />
<polygon fill="#9c6d36" fill-opacity="0.501961" points="114.579726,148.645597,128.756366,163.065793,120.818876,170.973859,104.631799,134.250955" />
<g transform="translate(19 81) rotate(164) scale(4 14)"><rect fill="#7e3416" fill-opacity="0.501961" x="-0.5" y="-0.5" width="1" height="1" /></g>
<ellipse fill="#522611" fill-opacity="0.501961" cx="90" cy="226" rx="3" ry="3" />
<polygon fill="#decb3d" fill-opacity="0.501961" points="34.259916,228.634503,49.565739,161.573873,49.664173,150.927586,23.975407,158.694811" />
<polygon fill="#dcc840" fill-opacity="0.501961" points="119.782067,129.428977,129.491598,174.041133,185.000000,207.155144,147.082756,158.065864" />
<g transform="translate(86 133) rotate(277) scale(3 16)"><rect fill="#d8c983" fill-opacity="0.501961" x="-0.5" y="-0.5" width="1" height="1" /></g>
<rect fill="#6e2c14" fill-opacity="0.501961" x="18" y="71" width="12" height="5" />
<ellipse fill="#98662a" fill-opacity="0.501961" cx="92" cy="203" rx="4" ry="7" />
<polygon fill="#9d5426" fill-opacity="0.501961" points="54,103 76,90 41,78" />
<polygon fill="#d2a985" fill-opacity="0.501961" points="37.205661,87.270315,47.883657,105.688820,39.646728,107.833909,33.775049,100.741751" />
<rect fill="#8c4a22" fill-opacity="0.501961" x="114" y="229" width="22" height="5" />
<polygon fill="#8b4b20" fill-opacity="0.501961" points="106,94 89,88 115,72" />
<polygon fill="#caab5c" fill-opacity="0.501961" points="93,158 65,133 61,142" />
<polygon fill="#d9c343" fill-opacity="0.501961" points="77.937274,225.328377,98.414165,247.807857,67.848981,251.709387,65.229510,220.916123" />
<g transform="translate(100 195) rotate(279) scale(9 12)"><rect fill="#ded198" fill-opacity="0.501961" x="-0.5" y="-0.5" width="1" height="1" /></g>
<polygon fill="#84602d" fill-opacity="0.501961" points="75,139 91,150 92,137" />
<polygon fill="#eae157" fill-opacity="0.501961" points="36,245 185,253 113,271" />
<rect fill="#c9b375" fill-opacity="0.501961" x="123" y="213" width="8" height="10" />
<g transform="translate(132.254494 76.550504) rotate(269.238085) scale(8.936620 2.707952)"><ellipse fill="#88441f" fill-opacity="0.501961" cx="0" cy="0" rx="1" ry="1" /></g>
<polygon fill="#7d4722" fill-opacity="0.501961" points="125,191 108,187 114,176" />
<polygon fill="#040b13" fill-opacity="0.501961" points="98,102 105,99 102,93" />
<ellipse fill="#8b4e26" fill-opacity="0.501961" cx="74" cy="78" rx="8" ry="3" />
<ellipse fill="#eadf5c" fill-opacity="0.501961" cx="149" cy="1" rx="110" ry="12" />
<ellipse fill="#180e17" fill-opacity="0.501961" cx="89" cy="128" rx="3" ry="3" />
<polygon fill="#d4c881" fill-opacity="0.501961" points="113.633751,196.369999,114.831807,194.927196,118.944717,209.354153,110.097347,223.019582" />
<ellipse fill="#ece155" fill-opacity="0.501961" cx="56" cy="71" rx="10" ry="10" />
<polygon fill="#caac79" fill-opacity="0.501961" points="102.819677,229.204972,86.010637,246.412108,89.184459,229.521362,112.581949,246.057416" />
<polygon fill="#e6d84f" fill-opacity="0.501961" points="172.943421,110.647419,103.746317,135.205153,134.370047,84.843332,135.699369,64.322686" />
<g transform="translate(20.751755 133.909628) rotate(81.104214) scale(20.793409 35.319625)"><ellipse fill="#e9dd51" fill-opacity="0.501961" cx="0" cy="0" rx="1" ry="1" /></g>
<polygon fill="#b57735" fill-opacity="0.501961" points="108.407303,104.088598,119.051501,100.447406,123.915296,107.631981,113.225609,113.251003" />
<g transform="translate(93 168) rotate(139) scale(42 11)"><rect fill="#dccc93" fill-opacity="0.501961" x="-0.5" y="-0.5" width="1" height="1" /></g>
<polygon fill="#caa950" fill-opacity="0.501961" points="83.945490,197.757174,52.111524,178.730722,70.639042,178.853927,86.754790,192.131814" />
<polygon fill="#eadc52" fill-opacity="0.501961" points="50,78 1,56 61,-16" />
<rect fill="#77431a" fill-opacity="0.501961" x="103" y="107" width="4" height="18" />
<polygon fill="#c08440" fill-opacity="0.501961" points="70,84 84,78 86,99" />
<ellipse fill="#d5be9d" fill-opacity="0.501961" cx="115" cy="91" rx="4" ry="4" />
<polygon fill="#944823" fill-opacity="0.501961" points="17,77 33,98 22,92" />
<ellipse fill="#b38154" fill-opacity="0.501961" cx="127" cy="225" rx="9" ry="5" />
<polygon fill="#e5d74c" fill-opacity="0.501961" points="107,75 31,25 164,36" />
<polygon fill="#c1823f" fill-opacity="0.501961" points="93.983038,91.001553,98.897531,84.185752,88.061049,80.671046,89.901754,94.841449" />
<polygon fill="#77481d" fill-opacity="0.501961" points="130.599596,221.561923,136.077167,222.511905,145.585556,198.707044,142.336951,194.410670" />
<ellipse fill="#6d2612" fill-opacity="0.501961" cx="72" cy="93" rx="3" ry="3" />
<polygon fill="#b98449" fill-opacity="0.501961" points="119.519801,108.898062,123.258174,76.151833,106.255607,86.206700,131.067715,74.157159" />
<polygon fill="#c1ad5e" fill-opacity="0.501961" points="99.350998,129.180896,80.336108,136.551965,80.264384,122.097229,84.263881,141.480513" />
<polygon fill="#b78255" fill-opacity="0.501961" points="25,83 24,75 44,91" />
<polygon fill="#854924" fill-opacity="0.501961" points="81.050553,147.450448,67.269544,114.587071,44.206436,88.509261,71.538481,111.277681" />
<polygon fill="#9d582d" fill-opacity="0.501961" points="88,105 64,119 82,89" />
<polygon fill="#e0d59f" fill-opacity="0.501961" points="46.207430,210.578177,65.568634,208.335484,55.500067,239.654494,49.036380,216.875199" />
<polygon fill="#c48144" fill-opacity="0.501961" points="55,107 31,100 44,116" />
<polygon fill="#e9de53" fill-opacity="0.501961" points="-15.667255,66.366944,31.206390,42.045128,14.247197,81.610961,-1.709572,255.495612" />
<rect fill="#dbc84a" fill-opacity="0.501961" x="0" y="239" width="80" height="7" />
<rect fill="#cdb231" fill-opacity="0.501961" x="36" y="211" width="7" height="14" />
<polygon fill="#d6c27d" fill-opacity="0.501961" points="47,186 65,186 77,198" />
<g transform="translate(71 220) rotate(177) scale(15 3)"><rect fill="#442617" fill-opacity="0.501961" x="-0.5" y="-0.5" width="1" height="1" /></g>
<polygon fill="#be9843" fill-opacity="0.501961" points="59.456128,134.732220,100.106662,155.376441,57.736037,128.267347,44.440612,110.652276" />
<polygon fill="#c3ba8d" fill-opacity="0.501961" points="91.806694,126.633088,103.057079,127.989463,95.093034,108.325103,100.889713,115.600481" />
<polygon fill="#b38432" fill-opacity="0.501961" points="67.726224,207.463342,98.857686,200.272185,82.151237,210.109442,63.593308,189.762799" />
<polygon fill="#7d4c1d" fill-opacity="0.501961" points="67,221 84,226 81,220" />
<polygon fill="#cbb137" fill-opacity="0.501961" points="120.346629,241.598367,112.576217,231.351600,126.509032,236.754658,185.000000,234.422983" />
<polygon fill="#9c632d" fill-opacity="0.501961" points="89.017089,91.097525,105.576088,115.222687,130.276413,91.760452,107.574656,120.811611" />
<polygon fill="#1a1517" fill-opacity="0.501961" points="97,117 89,120 93,109" />
<rect fill="#e1d6a4" fill-opacity="0.501961" x="53" y="157" width="12" height="18" />
<g transform="translate(80 115) rotate(264) scale(7 3)"><rect fill="#cd9651" fill-opacity="0.501961" x="-0.5" y="-0.5" width="1" height="1" /></g>
<ellipse fill="#2e2221" fill-opacity="0.501961" cx="89" cy="128" rx="6" ry="3" />
<g transform="translate(117 219) rotate(3) scale(3 11)"><rect fill="#513e2c" fill-opacity="0.501961" x="-0.5" y="-0.5" width="1" height="1" /></g>
<polygon fill="#522c1d" fill-opacity="0.501961" points="139,202 130,214 134,218" />
<polygon fill="#c2ad6f" fill-opacity="0.501961" points="108.672235,125.715185,105.235881,158.032408,74.108457,149.411842,87.721156,162.639047" />
<polygon fill="#dcd9b3" fill-opacity="0.501961" points="97,104 89,99 98,112" />
<polygon fill="#e4d64c" fill-opacity="0.501961" points="152,88 94,19 185,24" />
<polygon fill="#aa6a2b" fill-opacity="0.501961" points="50,112 71,111 62,135" />
<rect fill="#783a1e" fill-opacity="0.501961" x="119" y="68" width="13" height="4" />
<g transform="translate(47.573163 178.517656) rotate(270.233473) scale(5.960055 3.024594)"><ellipse fill="#ac732c" fill-opacity="0.501961" cx="0" cy="0" rx="1" ry="1" /></g>
<polygon fill="#e6ddb7" fill-opacity="0.501961" points="110.998679,206.216745,99.950705,197.395156,98.745187,208.421069,97.939179,217.120030" />
<rect fill="#141318" fill-opacity="0.501961" x="83" y="114" width="8" height="5" />
<rect fill="#0b111b" fill-opacity="0.501961" x="67" y="96" width="5" height="10" />
<polygon fill="#c5b890" fill-opacity="0.501961" points="84,126 88,123 81,120" />
<g transform="translate(82.553120 217.667544) rotate(125.271185) scale(2.627143 9.989878)"><ellipse fill="#d1b75b" fill-opacity="0.501961" cx="0" cy="0" rx="1" ry="1" /></g>
<g transform="translate(111 193) rotate(193) scale(17 5)"><rect fill="#c1913c" fill-opacity="0.501961" x="-0.5" y="-0.5" width="1" height="1" /></g>
<polygon fill="#e9db50" fill-opacity="0.501961" points="127.600740,58.836864,-15.129606,72.272507,-5.942621,29.406610,102.696850,80.526298" />
<polygon fill="#ededd4" fill-opacity="0.501961" points="87,96 88,89 91,98" />
<polygon fill="#c39e44" fill-opacity="0.501961" points="73.229189,186.272633,77.860057,199.344049,93.220995,185.062066,76.076162,187.381546" />
<g transform="translate(112.233014 84.689936) rotate(124.243139) scale(5.522622 4.457235)"><ellipse fill="#9e6f47" fill-opacity="0.501961" cx="0" cy="0" rx="1" ry="1" /></g>
<polygon fill="#a46b45" fill-opacity="0.501961" points="46.289210,78.345594,26.259165,80.167839,49.415958,97.867086,55.036705,100.796723" />
<g transform="translate(75 117) rotate(36) scale(1 25)"><rect fill="#6d371e" fill-opacity="0.501961" x="-0.5" y="-0.5" width="1" height="1" /></g>
<rect fill="#884721" fill-opacity="0.501961" x="22" y="73" width="15" height="4" />
<ellipse fill="#d0bc6a" fill-opacity="0.501961" cx="83" cy="134" rx="4" ry="4" />
<polygon fill="#e6ddb5" fill-opacity="0.501961" points="58.710294,192.083089,57.995284,184.272055,45.108197,224.454740,57.524709,227.164190" />
<g transform="translate(89 109) rotate(384) scale(7 1)"><rect fill="#bdbc9b" fill-opacity="0.501961" x="-0.5" y="-0.5" width="1" height="1" /></g>
<rect fill="#7f4723" fill-opacity="0.501961" x="95" y="80" width="10" height="15" />
<polygon fill="#ddcb40" fill-opacity="0.501961" points="173.310706,199.252839,151.232075,218.400072,143.039963,198.105568,185.000000,151.058513" />
<polygon fill="#dac576" fill-opacity="0.501961" points="68,174 50,179 91,183" />
<g transform="translate(76.959158 234.334538) rotate(252.853561) scale(8.231756 10.745697)"><ellipse fill="#dec83d" fill-opacity="0.501961" cx="0" cy="0" rx="1" ry="1" /></g>
<g transform="translate(95 132) rotate(125) scale(8 1)"><rect fill="#ccc180" fill-opacity="0.501961" x="-0.5" y="-0.5" width="1" height="1" /></g>
<rect fill="#b38659" fill-opacity="0.501961" x="87" y="239" width="22" height="4" />
<polygon fill="#dbcf9e" fill-opacity="0.501961" points="114.665963,224.680121,110.219150,237.150940,100.983672,212.192891,89.733705,237.511484" />
<polygon fill="#e2d54f" fill-opacity="0.501961" points="-11.815822,235.544488,6.758599,221.463428,83.579284,255.458182,124.237553,251.000703" />
<g transform="translate(62.449530 197.300813) rotate(-0.927528) scale(3.155665 7.205017)"><ellipse fill="#c8b06a" fill-opacity="0.501961" cx="0" cy="0" rx="1" ry="1" /></g>
<polygon fill="#c29849" fill-opacity="0.501961" points="49.323877,160.839202,46.306196,164.434400,54.090256,152.269207,48.458463,177.439431" />
<g transform="translate(41 98) rotate(293) scale(6 9)"><rect fill="#d6b394" fill-opacity="0.501961" x="-0.5" y="-0.5" width="1" height="1" /></g>
</g>
</svg>