<svg xmlns="http://www.w3.org/2000/svg" version="1.1" width="680" height="1024">
<rect x="0" y="0" width="680" height="1024" fill="#d67134" />
<g transform="scale(4.000000) translate(0.5 0.5)">
<polygon fill="#daf9f9" fill-opacity="0.501961" points="131,240 116,162 79,135" />
<g transform="translate(64 40) rotate(279) scale(158 72)"><rect fill="#f3b046" fill-opacity="0.501961" x="-0.5" y="-0.5" width="1" height="1" /></g>
<polygon fill="#42212b" fill-opacity="0.501961" points="91,174 27,123 80,128" />
<g transform="translate(113.488324 123.635502) rotate(239.983727) scale(12.530378 36.927556)"><ellipse fill="#7d4d3a" fill-opacity="0.501961" cx="0" cy="0" rx="1" ry="1" /></g>
<g transform="translate(72.464907 237.078471) rotate(96.751412) scale(19.203627 83.201445)"><ellipse fill="#c14226" fill-opacity="0.501961" cx="0" cy="0" rx="1" ry="1" /></g>
<g transform="translate(169.000000 141.386566) rotate(172.263164) scale(35.372652 169.000000)"><ellipse fill="#e24c1b" fill-opacity="0.501961" cx="0" cy="0" rx="1" ry="1" /></g>
<g transform="translate(74.734015 222.549705) rotate(73.814555) scale(19.879207 8.379623)"><ellipse fill="#c2c6a6" fill-opacity="0.501961" cx="0" cy="0" rx="1" ry="1" /></g>
<rect fill="#d6c8ae" fill-opacity="0.501961" x="92" y="143" width="24" height="54" />
<polygon fill="#572221" fill-opacity="0.501961" points="34,224 62,195 67,227" />
<g transform="translate(89 167) rotate(305) scale(14 15)"><rect fill="#2b142b" fill-opacity="0.501961" x="-0.5" y="-0.5" width="1" height="1" /></g>
<g transform="translate(1.895631 115.517456) rotate(360.992899) scale(37.361020 139.549824)"><ellipse fill="#e76b24" fill-opacity="0.501961" cx="0" cy="0" rx="1" ry="1" /></g>
<polygon fill="#9f3e27" fill-opacity="0.501961" points="92.679549,239.510508,110.937921,193.646910,119.905844,209.944657,63.813908,190.692465" />
<g transform="translate(66.311606 22.158994) rotate(-18.153853) scale(19.238507 49.464965)"><ellipse fill="#e8b258" fill-opacity="0.501961" cx="0" cy="0" rx="1" ry="1" /></g>
<polygon fill="#c69260" fill-opacity="0.501961" points="75,210 95,184 67,141" />
<polygon fill="#cdab65" fill-opacity="0.501961" points="73,117 97,116 121,148" />
<rect fill="#d5d6b7" fill-opacity="0.501961" x="84" y="117" width="3" height="36" />
<g transform="translate(40.740518 75.841132) rotate(24.723040) scale(80.453705 27.476925)"><ellipse fill="#e48131" fill-opacity="0.501961" cx="0" cy="0" rx="1" ry="1" /></g>
<polygon fill="#843d2b" fill-opacity="0.501961" points="134.398025,93.149720,103.705795,119.493192,102.976845,127.478016,123.704946,145.267876" />
<ellipse fill="#0e1328" fill-opacity="0.501961" cx="97" cy="139" rx="4" ry="7" />
<polygon fill="#ebd1b2" fill-opacity="0.501961" points="129.675109,236.467042,134.946005,229.370662,85.456430,136.634930,121.049043,178.609531" />
<ellipse fill="#000223" fill-opacity="0.501961" cx="83" cy="158" rx="6" ry="5" />
<g transform="translate(115.685809 35.233231) rotate(187.303311) scale(22.091230 76.458046)"><ellipse fill="#e87327" fill-opacity="0.501961" cx="0" cy="0" rx="1" ry="1" /></g>
<polygon fill="#ca9b62" fill-opacity="0.501961" points="96.120997,162.418811,101.972617,136.954164,118.897242,137.799260,100.693403,169.649578" />
<g transform="translate(146.109048 209.382893) rotate(63.132735) scale(65.243368 13.118888)"><ellipse fill="#e57329" fill-opacity="0.501961" cx="0" cy="0" rx="1" ry="1" /></g>
<ellipse fill="#d5471c" fill-opacity="0.501961" cx="118" cy="242" rx="46" ry="10" />
<g transform="translate(62 198) rotate(30) scale(14 38)"><rect fill="#ac5a31" fill-opacity="0.501961" x="-0.5" y="-0.5" width="1" height="1" /></g>
<polygon fill="#e36525" fill-opacity="0.501961" points="162,251 27,271 -11,231" />
<polygon fill="#000008" fill-opacity="0.501961" points="46,221 64,223 59,217" />
<g transform="translate(106.343249 176.038034) rotate(106.772955) scale(25.613688 4.920240)"><ellipse fill="#e9d3b6" fill-opacity="0.501961" cx="0" cy="0" rx="1" ry="1" /></g>
<polygon fill="#e4e2d5" fill-opacity="0.501961" points="86,142 104,155 80,152" />
<polygon fill="#d1ba97" fill-opacity="0.501961" points="82.962606,219.216316,65.295110,231.229385,87.715823,238.165329,72.367111,202.604308" />
<ellipse fill="#e36625" fill-opacity="0.501961" cx="24" cy="166" rx="50" ry="24" />
<g transform="translate(20.123890 204.561278) rotate(103.837986) scale(15.342344 28.316843)"><ellipse fill="#e58734" fill-opacity="0.501961" cx="0" cy="0" rx="1" ry="1" /></g>
<polygon fill="#e4923b" fill-opacity="0.501961" points="60.534186,127.718961,-16.000000,95.761212,-13.523667,74.475166,99.254439,114.920070" />
<polygon fill="#d0a574" fill-opacity="0.501961" points="72.071759,168.630375,79.435397,171.468100,98.824668,177.322003,73.136746,192.625284" />
<ellipse fill="#000720" fill-opacity="0.501961" cx="74" cy="142" rx="3" ry="6" />
<polygon fill="#bb6d3e" fill-opacity="0.501961" points="79.417920,195.885573,132.228599,241.578372,114.510142,202.729841,123.292453,194.893582" />
<g transform="translate(154.720966 156.395463) rotate(113.029686) scale(25.846626 25.014472)"><ellipse fill="#d94923" fill-opacity="0.501961" cx="0" cy="0" rx="1" ry="1" /></g>
<g transform="translate(0 15) rotate(295) scale(85 39)"><rect fill="#d35124" fill-opacity="0.501961" x="-0.5" y="-0.5" width="1" height="1" /></g>
<rect fill="#f4ebe8" fill-opacity="0.501961" x="108" y="167" width="9" height="23" />
<polygon fill="#4a1115" fill-opacity="0.501961" points="100,225 83,224 96,220" />
<polygon fill="#98542d" fill-opacity="0.501961" points="51,129 82,123 86,144" />
<g transform="translate(48.467221 135.153795) rotate(139.154600) scale(7.853401 14.804804)"><ellipse fill="#803729" fill-opacity="0.501961" cx="0" cy="0" rx="1" ry="1" /></g>
<polygon fill="#edddd1" fill-opacity="0.501961" points="89,140 91,164 100,156" />
<rect fill="#d53f1b" fill-opacity="0.501961" x="0" y="225" width="67" height="13" />
<polygon fill="#672727" fill-opacity="0.501961" points="98.802525,171.186289,103.028110,160.285741,82.235923,171.588199,88.909050,174.248705" />
<g transform="translate(130 145) rotate(207) scale(20 37)"><rect fill="#e46a27" fill-opacity="0.501961" x="-0.5" y="-0.5" width="1" height="1" /></g>
<polygon fill="#dc5926" fill-opacity="0.501961" points="185.000000,57.646370,122.911408,59.181573,134.162336,127.210006,136.821076,167.427801" />
<polygon fill="#af3524" fill-opacity="0.501961" points="70,240 136,232 100,226" />
<rect fill="#dc6028" fill-opacity="0.501961" x="0" y="112" width="37" height="83" />
<ellipse fill="#e48231" fill-opacity="0.501961" cx="141" cy="191" rx="23" ry="11" />
<g transform="translate(84.202702 158.575280) rotate(226.019970) scale(4.113306 6.220513)"><ellipse fill="#26232c" fill-opacity="0.501961" cx="0" cy="0" rx="1" ry="1" /></g>
<ellipse fill="#9b2819" fill-opacity="0.501961" cx="107" cy="204" rx="5" ry="5" />
<rect fill="#e2d099" fill-opacity="0.501961" x="105" y="141" width="8" height="10" />
<polygon fill="#982e1d" fill-opacity="0.501961" points="84,228 82,206 93,218" />
<rect fill="#b09c89" fill-opacity="0.501961" x="67" y="231" width="18" height="8" />
<g transform="translate(46.005259 27.354992) rotate(311.970436) scale(11.391734 21.505745)"><ellipse fill="#e6a44d" fill-opacity="0.501961" cx="0" cy="0" rx="1" ry="1" /></g>
<polygon fill="#a88b6e" fill-opacity="0.501961" points="48,211 35,216 36,223" />
<polygon fill="#a66531" fill-opacity="0.501961" points="105,142 94,141 99,150" />
<polygon fill="#9f7f60" fill-opacity="0.501961" points="116.812794,234.499900,136.723993,231.280292,124.486415,228.058214,117.313658,215.601064" />
<polygon fill="#df6d2b" fill-opacity="0.501961" points="185,65 100,21 140,-16" />
<polygon fill="#e7ad53" fill-opacity="0.501961" points="84.064647,84.577805,51.341774,25.812175,81.246389,52.782542,88.695169,73.420984" />
<polygon fill="#e17a30" fill-opacity="0.501961" points="82,83 -11,85 16,14" />
<g transform="translate(52.781152 165.710437) rotate(164.726339) scale(19.787876 12.637637)"><ellipse fill="#e57c2d" fill-opacity="0.501961" cx="0" cy="0" rx="1" ry="1" /></g>
<polygon fill="#a0502e" fill-opacity="0.501961" points="55.367865,151.734692,82.989118,147.237615,76.729102,167.061705,43.443654,120.605379" />
<rect fill="#1d0b18" fill-opacity="0.501961" x="82" y="166" width="12" height="4" />
<polygon fill="#dec5a2" fill-opacity="0.501961" points="118.385770,212.067717,116.847682,194.756448,132.608494,233.801552,137.948563,229.763914" />
<rect fill="#6e3622" fill-opacity="0.501961" x="125" y="103" width="7" height="12" />
<polygon fill="#dbb58a" fill-opacity="0.501961" points="107.442941,127.809481,105.187783,195.894232,97.551804,209.464127,97.119287,205.922155" />
<polygon fill="#bf8045" fill-opacity="0.501961" points="66.578526,136.520780,74.869045,114.940332,129.340242,152.179950,85.257315,127.315236" />
<polygon fill="#d65124" fill-opacity="0.501961" points="185,182 130,234 185,217" />
<ellipse fill="#e88631" fill-opacity="0.501961" cx="133" cy="205" rx="9" ry="18" />
<polygon fill="#e16a2a" fill-opacity="0.501961" points="130.551569,148.191033,132.522163,103.517664,90.599062,91.073410,151.110062,92.662003" />
<g transform="translate(86.754180 157.106772) rotate(220.513973) scale(4.360090 3.152016)"><ellipse fill="#2d2935" fill-opacity="0.501961" cx="0" cy="0" rx="1" ry="1" /></g>
<g transform="translate(86 165) rotate(350) scale(29 2)"><rect fill="#cc6d4c" fill-opacity="0.501961" x="-0.5" y="-0.5" width="1" height="1" /></g>
<polygon fill="#b85b2e" fill-opacity="0.501961" points="43,208 63,190 67,217" />
<g transform="translate(102.465027 71.662231) rotate(93.251263) scale(49.101606 13.310444)"><ellipse fill="#e37c2f" fill-opacity="0.501961" cx="0" cy="0" rx="1" ry="1" /></g>
<g transform="translate(97.863463 138.821653) rotate(371.879725) scale(4.255949 2.579325)"><ellipse fill="#1a1e34" fill-opacity="0.501961" cx="0" cy="0" rx="1" ry="1" /></g>
<ellipse fill="#d53c19" fill-opacity="0.501961" cx="103" cy="231" rx="15" ry="8" />
<polygon fill="#d8c1a4" fill-opacity="0.501961" points="78,222 88,234 69,232" />
<polygon fill="#e67c2c" fill-opacity="0.501961" points="53.749102,200.124583,70.030142,167.816474,-16.000000,226.878092,36.316139,213.839791" />
<polygon fill="#e7b35e" fill-opacity="0.501961" points="108,-16 60,18 49,-8" />
<polygon fill="#61221e" fill-opacity="0.501961" points="29.565084,221.542345,44.287077,226.154587,43.696390,214.354741,67.475214,226.283548" />
<polygon fill="#914426" fill-opacity="0.501961" points="68,189 60,196 75,201" />
<polygon fill="#d59b63" fill-opacity="0.501961" points="85.029746,217.420571,62.544284,198.910244,68.611524,226.401049,72.726639,229.507272" />
<g transform="translate(73.747442 145.369835) rotate(363.743901) scale(4.482231 5.325095)"><ellipse fill="#452527" fill-opacity="0.501961" cx="0" cy="0" rx="1" ry="1" /></g>
<polygon fill="#8a402f" fill-opacity="0.501961" points="40,122 59,151 68,128" />
<ellipse fill="#df7a31" fill-opacity="0.501961" cx="155" cy="233" rx="24" ry="5" />
<polygon fill="#dcb89a" fill-opacity="0.501961" points="92.402785,177.812916,97.699563,175.523417,112.879140,192.896553,99.390512,165.242118" />
<polygon fill="#cfa072" fill-opacity="0.501961" points="80.594296,195.685398,74.155063,170.276912,84.464994,167.496643,78.060333,160.944038" />
<g transform="translate(122.154020 117.835767) rotate(106.266667) scale(14.735945 10.027326)"><ellipse fill="#8e4932" fill-opacity="0.501961" cx="0" cy="0" rx="1" ry="1" /></g>
<rect fill="#431819" fill-opacity="0.501961" x="76" y="233" width="2" height="8" />
<polygon fill="#c5602f" fill-opacity="0.501961" points="75.567937,200.829329,85.402751,188.322631,106.595460,212.747441,64.613666,200.239999" />
<g transform="translate(11.977737 233.639593) rotate(54.117989) scale(9.883553 23.848418)"><ellipse fill="#da5827" fill-opacity="0.501961" cx="0" cy="0" rx="1" ry="1" /></g>
<g transform="translate(88.021399 32.260409) rotate(86.886412) scale(33.972117 8.074165)"><ellipse fill="#e59840" fill-opacity="0.501961" cx="0" cy="0" rx="1" ry="1" /></g>
<polygon fill="#ded2bb" fill-opacity="0.501961" points="88.312079,151.466194,84.583725,129.611478,98.831473,158.427136,86.814599,147.976984" />
<polygon fill="#ca864e" fill-opacity="0.501961" points="80.650314,186.275531,98.485141,203.685334,94.268683,176.173066,81.611482,177.557772" />
<polygon fill="#dd6728" fill-opacity="0.501961" points="11.208304,13.643355,-11.375158,103.382660,20.840011,25.567923,56.521906,-16.000000" />
<g transform="translate(80 133) rotate(160) scale(5 19)"><rect fill="#814f30" fill-opacity="0.501961" x="-0.5" y="-0.5" width="1" height="1" /></g>
<polygon fill="#e27b2e" fill-opacity="0.501961" points="163.438122,61.483331,147.220544,39.585652,185.000000,41.768274,185.000000,20.296831" />
<rect fill="#d55025" fill-opacity="0.501961" x="88" y="236" width="82" height="14" />
<polygon fill="#c45d27" fill-opacity="0.501961" points="69.254402,134.734336,69.887990,173.288420,75.140528,151.719915,62.311765,152.722883" />
<polygon fill="#23101b" fill-opacity="0.501961" points="83.046886,155.541276,88.335906,160.214753,86.197074,166.608960,79.046823,159.202278" />
<polygon fill="#ec7d2e" fill-opacity="0.501961" points="97.482911,227.152060,107.952027,209.266097,113.374919,224.194408,100.549781,225.699148" />
<polygon fill="#421c1e" fill-opacity="0.501961" points="58.066690,219.618517,52.252359,223.720848,49.232806,216.137609,36.377116,226.880442" />
<g transform="translate(28 248) rotate(174) scale(61 10)"><rect fill="#df712c" fill-opacity="0.501961" x="-0.5" y="-0.5" width="1" height="1" /></g>
<polygon fill="#cb9757" fill-opacity="0.501961" points="99.140421,162.324403,107.630925,138.697110,116.961023,155.149848,103.260898,122.039462" />
<ellipse fill="#772b22" fill-opacity="0.501961" cx="123" cy="233" rx="9" ry="2" />
<ellipse fill="#cebf97" fill-opacity="0.501961" cx="124" cy="223" rx="5" ry="5" />
<polygon fill="#e5d0b8" fill-opacity="0.501961" points="110.186180,191.990270,112.963116,149.920917,99.078497,192.416164,102.741453,195.970748" />
<polygon fill="#b5301a" fill-opacity="0.501961" points="42.960733,225.982038,61.766445,222.513062,68.624451,231.014846,65.338383,236.731376" />
<polygon fill="#e1762e" fill-opacity="0.501961" points="119.482500,147.382051,114.384330,163.292285,122.180699,186.195823,173.009518,253.313494" />
<ellipse fill="#e5923b" fill-opacity="0.501961" cx="59" cy="102" rx="24" ry="24" />
<polygon fill="#873e27" fill-opacity="0.501961" points="108.300918,122.961748,124.768659,102.676785,98.016777,123.407741,123.366200,137.074722" />
<polygon fill="#3b1e26" fill-opacity="0.501961" points="95,173 87,164 84,173" />
<g transform="translate(78.238027 175.572479) rotate(351.339980) scale(6.744581 6.261673)"><ellipse fill="#d5a471" fill-opacity="0.501961" cx="0" cy="0" rx="1" ry="1" /></g>
<polygon fill="#e47d2e" fill-opacity="0.501961" points="34.386848,136.113194,65.844181,157.019506,53.221607,172.476202,40.197536,165.998921" />
<g transform="translate(53.307477 139.300293) rotate(112.377570) scale(6.271652 15.247724)"><ellipse fill="#843e2e" fill-opacity="0.501961" cx="0" cy="0" rx="1" ry="1" /></g>
<polygon fill="#9e3a21" fill-opacity="0.501961" points="67.695774,221.850923,61.742879,204.542907,63.758130,211.391994,62.001739,232.484551" />
<ellipse fill="#d4955b" fill-opacity="0.501961" cx="72" cy="208" rx="8" ry="8" />
<polygon fill="#ca7736" fill-opacity="0.501961" points="112.994238,135.748351,112.092424,147.541378,129.196410,128.904505,120.762812,150.877042" />
<polygon fill="#e48e3d" fill-opacity="0.501961" points="28.489116,18.555927,56.251997,20.331963,53.612551,8.076708,41.606277,-7.314095" />
<rect fill="#662b1d" fill-opacity="0.501961" x="36" y="124" width="7" height="7" />
<polygon fill="#c24923" fill-opacity="0.501961" points="113,207 88,208 87,223" />
<polygon fill="#b7683d" fill-opacity="0.501961" points="121.483539,224.601421,114.300412,206.003792,107.143586,193.548125,116.420639,233.352239" />
<polygon fill="#d84423" fill-opacity="0.501961" points="182.711224,174.725740,185.000000,189.687772,137.646500,172.604703,166.037181,157.880852" />
<g transform="translate(28.456946 61.955882) rotate(364.704662) scale(15.134952 36.971009)"><ellipse fill="#e38335" fill-opacity="0.501961" cx="0" cy="0" rx="1" ry="1" /></g>
<rect fill="#c44e3b" fill-opacity="0.501961" x="95" y="162" width="9" height="3" />
<polygon fill="#e38232" fill-opacity="0.501961" points="-14,233 4,194 59,192" />
<rect fill="#ddb97c" fill-opacity="0.501961" x="104" y="136" width="6" height="25" />
<rect fill="#d6a06f" fill-opacity="0.501961" x="73" y="175" width="29" height="4" />
<polygon fill="#dd6026" fill-opacity="0.501961" points="28,132 -16,106 42,118" />
<polygon fill="#b65b2b" fill-opacity="0.501961" points="72.391227,171.095298,59.341528,184.072114,58.192047,195.341002,62.364817,205.254292" />
<g transform="translate(89 225) rotate(-17) scale(12 1)"><rect fill="#301118" fill-opacity="0.501961" x="-0.5" y="-0.5" width="1" height="1" /></g>
<polygon fill="#e9d7c3" fill-opacity="0.501961" points="96.623818,171.009555,110.360557,157.997155,117.248646,196.801737,118.811121,172.208465" />
<polygon fill="#b2371f" fill-opacity="0.501961" points="78.331657,240.921504,98.748892,231.589369,83.868113,221.990442,88.750276,242.593081" />
<g transform="translate(93 161) rotate(329) scale(10 1)"><rect fill="#e5d1bb" fill-opacity="0.501961" x="-0.5" y="-0.5" width="1" height="1" /></g>
<rect fill="#d8ac70" fill-opacity="0.501961" x="115" y="198" width="4" height="17" />
<polygon fill="#883327" fill-opacity="0.501961" points="103,120 123,133 119,139" />
<g transform="translate(38 216) rotate(152) scale(14 1)"><rect fill="#d1a77b" fill-opacity="0.501961" x="-0.5" y="-0.5" width="1" height="1" /></g>
<polygon fill="#beb08e" fill-opacity="0.501961" points="83,122 86,121 84,131" />
<g transform="translate(163.406499 75.995952) rotate(193.453395) scale(41.354388 9.391992)"><ellipse fill="#d95225" fill-opacity="0.501961" cx="0" cy="0" rx="1" ry="1" /></g>
<polygon fill="#9b5235" fill-opacity="0.501961" points="45.582429,125.062081,61.165333,125.500548,57.184731,144.611826,43.719693,133.367382" />
<rect fill="#88493a" fill-opacity="0.501961" x="69" y="237" width="8" height="3" />
<g transform="translate(126 106) rotate(153) scale(6 6)"><rect fill="#6b2f1f" fill-opacity="0.501961" x="-0.5" y="-0.5" width="1" height="1" /></g>
<polygon fill="#824e35" fill-opacity="0.501961" points="88.212182,142.632051,47.325203,138.025498,91.086546,142.669458,98.467784,127.608698" />
<rect fill="#eee1d4" fill-opacity="0.501961" x="111" y="158" width="3" height="35" />
<polygon fill="#d3b597" fill-opacity="0.501961" points="88,235 77,217 78,232" />
<polygon fill="#e06628" fill-opacity="0.501961" points="116.340037,95.196527,123.513195,68.063232,135.057560,84.931188,143.877342,111.335330" />
<polygon fill="#df6c2a" fill-opacity="0.501961" points="43.648671,198.180453,61.250755,186.216601,8.622658,137.418791,35.193386,115.331817" />
<g transform="translate(28 215) rotate(163) scale(37 5)"><rect fill="#de6628" fill-opacity="0.501961" x="-0.5" y="-0.5" width="1" height="1" /></g>
<polygon fill="#e2732b" fill-opacity="0.501961" points="125.669775,99.117254,82.721006,96.692388,86.060475,115.801839,106.423889,116.242177" />
<g transform="translate(135.814565 0.000000) rotate(120.221514) scale(22.809135 70.499337)"><ellipse fill="#dd6529" fill-opacity="0.501961" cx="0" cy="0" rx="1" ry="1" /></g>
<rect fill="#823e2a" fill-opacity="0.501961" x="82" y="233" width="2" height="3" />
<rect fill="#e5d1b9" fill-opacity="0.501961" x="119" y="198" width="5" height="14" />
<polygon fill="#d8b370" fill-opacity="0.501961" points="120,186 124,197 116,198" />
<ellipse fill="#181525" fill-opacity="0.501961" cx="72" cy="143" rx="3" ry="3" />
<polygon fill="#9b573b" fill-opacity="0.501961" points="113,113 126,106 123,131" />
<g transform="translate(93 134) rotate(324) scale(11 2)"><rect fill="#8e4d2b" fill-opacity="0.501961" x="-0.5" y="-0.5" width="1" height="1" /></g>
<polygon fill="#995131" fill-opacity="0.501961" points="50,216 46,208 55,200" />
</g>
</svg>