<svg xmlns="http://www.w3.org/2000/svg" version="1.1" width="680" height="1024">
<rect x="0" y="0" width="680" height="1024" fill="#d3be4f" />
<g transform="scale(4.000000) translate(0.5 0.5)">
<ellipse fill="#5c1725" fill-opacity="0.501961" cx="82" cy="108" rx="34" ry="34" />
<g transform="translate(125.995449 195.147737) rotate(169.477112) scale(14.535740 41.156263)"><ellipse fill="#6a261f" fill-opacity="0.501961" cx="0" cy="0" rx="1" ry="1" /></g>
<ellipse fill="#faf350" fill-opacity="0.501961" cx="74" cy="0" rx="81" ry="81" />
<ellipse fill="#ccb58a" fill-opacity="0.501961" cx="78" cy="205" rx="38" ry="76" />
<rect fill="#9d5737" fill-opacity="0.501961" x="18" y="72" width="117" height="27" />
<g transform="translate(16.057685 151.859323) rotate(78.336177) scale(74.212584 26.497374)"><ellipse fill="#faf34b" fill-opacity="0.501961" cx="0" cy="0" rx="1" ry="1" /></g>
<rect fill="#895408" fill-opacity="0.501961" x="64" y="198" width="30" height="30" />
<ellipse fill="#f2e946" fill-opacity="0.501961" cx="152" cy="93" rx="19" ry="111" />
<rect fill="#efecd3" fill-opacity="0.501961" x="45" y="188" width="18" height="44" />
<polygon fill="#f9fdd1" fill-opacity="0.501961" points="83,74 103,117 87,103" />
<g transform="translate(79.779710 122.868135) rotate(335.882442) scale(16.249300 30.165953)"><ellipse fill="#6e4725" fill-opacity="0.501961" cx="0" cy="0" rx="1" ry="1" /></g>
<g transform="translate(48.635811 249.393179) rotate(184.559757) scale(120.190679 10.340704)"><ellipse fill="#f5ef4b" fill-opacity="0.501961" cx="0" cy="0" rx="1" ry="1" /></g>
<polygon fill="#813f23" fill-opacity="0.501961" points="136.679036,80.183579,134.238558,62.853056,115.937326,70.059068,95.956184,89.777228" />
<g transform="translate(106 214) rotate(16) scale(15 37)"><rect fill="#ededd2" fill-opacity="0.501961" x="-0.5" y="-0.5" width="1" height="1" /></g>
<ellipse fill="#e1d4ab" fill-opacity="0.501961" cx="81" cy="168" rx="30" ry="14" />
<polygon fill="#eee145" fill-opacity="0.501961" points="106.998965,129.278614,107.790512,118.625522,147.056704,73.766120,133.418212,175.680959" />
<polygon fill="#8a5122" fill-opacity="0.501961" points="147.929216,198.050949,115.770110,151.118271,105.228514,188.002000,138.878142,222.123515" />
<ellipse fill="#000015" fill-opacity="0.501961" cx="89" cy="115" rx="7" ry="7" />
<polygon fill="#1a050b" fill-opacity="0.501961" points="108.715141,103.140855,101.556616,87.496765,95.065787,100.733508,103.680474,112.030132" />
<g transform="translate(43.518919 83.384045) rotate(291.775453) scale(7.555503 31.020803)"><ellipse fill="#975125" fill-opacity="0.501961" cx="0" cy="0" rx="1" ry="1" /></g>
<polygon fill="#e9dc4e" fill-opacity="0.501961" points="12.231124,24.114777,50.436571,87.950945,185.000000,1.892163,99.543902,82.924336" />
<g transform="translate(119 224) rotate(355) scale(9 20)"><rect fill="#63362f" fill-opacity="0.501961" x="-0.5" y="-0.5" width="1" height="1" /></g>
<g transform="translate(41.948685 107.955804) rotate(304.409650) scale(4.314575 25.415759)"><ellipse fill="#b15a34" fill-opacity="0.501961" cx="0" cy="0" rx="1" ry="1" /></g>
<g transform="translate(2 69) rotate(295) scale(57 31)"><rect fill="#f6ef54" fill-opacity="0.501961" x="-0.5" y="-0.5" width="1" height="1" /></g>
<polygon fill="#b4a56d" fill-opacity="0.501961" points="77.399737,128.792864,116.262430,158.252649,100.366111,117.262206,83.176462,141.414871" />
<polygon fill="#f7ee50" fill-opacity="0.501961" points="47.587452,158.348931,60.281400,128.158316,18.372328,100.892345,31.180257,114.272170" />
<rect fill="#1a0109" fill-opacity="0.501961" x="63" y="217" width="15" height="6" />
<g transform="translate(77.540346 198.262239) rotate(58.646248) scale(25.103918 15.449239)"><ellipse fill="#caa54d" fill-opacity="0.501961" cx="0" cy="0" rx="1" ry="1" /></g>
<g transform="translate(158.099679 227.439789) rotate(194.650038) scale(21.060311 63.215017)"><ellipse fill="#d7c432" fill-opacity="0.501961" cx="0" cy="0" rx="1" ry="1" /></g>
<rect fill="#dfc724" fill-opacity="0.501961" x="64" y="226" width="24" height="21" />
<ellipse fill="#b8865f" fill-opacity="0.501961" cx="118" cy="91" rx="8" ry="20" />
<polygon fill="#000011" fill-opacity="0.501961" points="70,95 78,101 59,106" />
<polygon fill="#ae6f12" fill-opacity="0.501961" points="49,162 52,182 40,189" />
<g transform="translate(22 85) rotate(75) scale(23 8)"><rect fill="#822d11" fill-opacity="0.501961" x="-0.5" y="-0.5" width="1" height="1" /></g>
<polygon fill="#d3a192" fill-opacity="0.501961" points="32.232389,81.993340,52.941140,104.076417,39.093969,107.621946,31.076567,97.311357" />
<ellipse fill="#e7db4f" fill-opacity="0.501961" cx="9" cy="206" rx="35" ry="120" />
<g transform="translate(83 224) rotate(114) scale(3 21)"><rect fill="#451a10" fill-opacity="0.501961" x="-0.5" y="-0.5" width="1" height="1" /></g>
<ellipse fill="#f2e9b2" fill-opacity="0.501961" cx="82" cy="122" rx="3" ry="5" />
<rect fill="#e1d89e" fill-opacity="0.501961" x="99" y="195" width="20" height="15" />
<polygon fill="#ece253" fill-opacity="0.501961" points="110,62 52,80 -9,49" />
<polygon fill="#a25a28" fill-opacity="0.501961" points="68.803518,142.572464,63.992728,83.098913,20.232972,71.066557,48.543934,94.533429" />
<ellipse fill="#d0b77b" fill-opacity="0.501961" cx="125" cy="221" rx="5" ry="9" />
<rect fill="#7b4723" fill-opacity="0.501961" x="130" y="181" width="13" height="41" />
<polygon fill="#d8cb96" fill-opacity="0.501961" points="52.344429,179.033810,112.871087,151.065450,112.427043,177.547123,55.401716,135.904836" />
<polygon fill="#161921" fill-opacity="0.501961" points="100.483833,130.782655,83.955661,116.790621,97.917229,118.289474,83.404118,130.577225" />
<polygon fill="#b87431" fill-opacity="0.501961" points="84,75 88,110 62,77" />
<rect fill="#dcdfb3" fill-opacity="0.501961" x="97" y="110" width="4" height="18" />
<g transform="translate(154.529973 18.902157) rotate(101.691383) scale(52.803716 52.155295)"><ellipse fill="#e6d951" fill-opacity="0.501961" cx="0" cy="0" rx="1" ry="1" /></g>
<polygon fill="#ddca3e" fill-opacity="0.501961" points="40,231 -16,254 49,140" />
<polygon fill="#e7da7c" fill-opacity="0.501961" points="85,136 77,132 98,131" />
<g transform="translate(40.883163 255.000000) rotate(362.663942) scale(70.649656 5.554806)"><ellipse fill="#f4f072" fill-opacity="0.501961" cx="0" cy="0" rx="1" ry="1" /></g>
<polygon fill="#5c311b" fill-opacity="0.501961" points="107.802922,87.411676,112.764900,114.649971,92.732560,100.678600,91.170653,93.061612" />
<polygon fill="#9e5d23" fill-opacity="0.501961" points="118.502302,113.835211,125.961174,95.392854,135.747378,80.586272,110.333231,110.329357" />
<g transform="translate(122.404959 121.073908) rotate(226.358797) scale(10.396571 20.969843)"><ellipse fill="#eadf51" fill-opacity="0.501961" cx="0" cy="0" rx="1" ry="1" /></g>
<polygon fill="#79361a" fill-opacity="0.501961" points="135,71 127,65 105,78" />
<polygon fill="#a47539" fill-opacity="0.501961" points="97.751578,189.062722,120.351149,198.784074,108.755736,139.654768,124.157367,156.799608" />
<polygon fill="#ded1a8" fill-opacity="0.501961" points="95.828993,212.074261,99.977056,178.388864,112.845414,235.821768,93.778213,234.621334" />
<polygon fill="#d2b089" fill-opacity="0.501961" points="109.849209,92.728258,121.631052,81.774050,120.453922,101.442819,110.544801,100.479401" />
<polygon fill="#c7a566" fill-opacity="0.501961" points="77.264685,114.300032,94.469138,100.756618,83.816475,63.725975,92.891726,109.411166" />
<rect fill="#aa7b36" fill-opacity="0.501961" x="87" y="240" width="22" height="5" />
<polygon fill="#ba7d2b" fill-opacity="0.501961" points="29.640167,105.798932,64.001789,112.488285,77.302429,144.456053,49.909742,122.296738" />
<g transform="translate(159.056109 169.231076) rotate(280.317828) scale(17.149164 33.040015)"><ellipse fill="#decb40" fill-opacity="0.501961" cx="0" cy="0" rx="1" ry="1" /></g>
<polygon fill="#794f29" fill-opacity="0.501961" points="125.114438,213.000903,141.997589,212.779163,121.842836,190.695725,112.305643,242.139871" />
<rect fill="#e8db4f" fill-opacity="0.501961" x="39" y="46" width="71" height="29" />
<g transform="translate(27 74) rotate(292) scale(6 13)"><rect fill="#712f19" fill-opacity="0.501961" x="-0.5" y="-0.5" width="1" height="1" /></g>
<polygon fill="#e5dcb3" fill-opacity="0.501961" points="53.909640,223.415523,41.125138,234.802906,38.714411,233.213954,63.437576,178.562283" />
<polygon fill="#d5be67" fill-opacity="0.501961" points="88.711305,224.643417,98.469891,209.227606,98.025436,210.448540,70.207736,214.102849" />
<polygon fill="#e8db51" fill-opacity="0.501961" points="138,77 185,120 120,111" />
<polygon fill="#926f30" fill-opacity="0.501961" points="97,149 107,123 84,143" />
<polygon fill="#c1af7c" fill-opacity="0.501961" points="116.115126,160.265315,104.455825,133.663743,104.234902,143.439532,67.358343,158.279008" />
<rect fill="#e0dbbb" fill-opacity="0.501961" x="88" y="98" width="5" height="12" />
<g transform="translate(130 86) rotate(27) scale(4 14)"><rect fill="#803517" fill-opacity="0.501961" x="-0.5" y="-0.5" width="1" height="1" /></g>
<rect fill="#b1822e" fill-opacity="0.501961" x="64" y="197" width="32" height="12" />
<polygon fill="#cbb96e" fill-opacity="0.501961" points="92,136 102,127 103,116" />
<ellipse fill="#964b25" fill-opacity="0.501961" cx="127" cy="230" rx="9" ry="4" />
<polygon fill="#c3a457" fill-opacity="0.501961" points="64,145 93,154 60,129" />
<g transform="translate(100 87) rotate(192) scale(18 16)"><rect fill="#915424" fill-opacity="0.501961" x="-0.5" y="-0.5" width="1" height="1" /></g>
<polygon fill="#cbb135" fill-opacity="0.501961" points="144,209 126,242 184,234" />
<rect fill="#020914" fill-opacity="0.501961" x="84" y="112" width="13" height="8" />
<ellipse fill="#301715" fill-opacity="0.501961" cx="67" cy="217" rx="4" ry="4" />
<polygon fill="#854b22" fill-opacity="0.501961" points="113,174 123,190 104,188" />
<polygon fill="#09131f" fill-opacity="0.501961" points="93,95 103,96 104,105" />
<polygon fill="#caa161" fill-opacity="0.501961" points="39.907234,236.386254,53.301430,228.039744,70.204747,236.218535,54.837804,241.613662" />
<g transform="translate(65 81) rotate(342) scale(41 3)"><rect fill="#98592a" fill-opacity="0.501961" x="-0.5" y="-0.5" width="1" height="1" /></g>
<polygon fill="#57311f" fill-opacity="0.501961" points="131.093608,210.011331,137.626584,204.672051,140.086996,210.312579,132.852250,225.403080" />
<polygon fill="#ac7736" fill-opacity="0.501961" points="145.452769,194.242911,139.459820,176.453767,124.623432,197.768664,112.324725,167.212346" />
<polygon fill="#9b5426" fill-opacity="0.501961" points="85.562636,108.643190,72.732590,139.694937,59.109860,118.841099,78.861023,98.002182" />
<g transform="translate(115.670626 2.615102) rotate(272.679009) scale(13.775450 71.516516)"><ellipse fill="#eadf5b" fill-opacity="0.501961" cx="0" cy="0" rx="1" ry="1" /></g>
<polygon fill="#d8cd92" fill-opacity="0.501961" points="107,211 110,241 119,192" />
<polygon fill="#decd8f" fill-opacity="0.501961" points="77.719212,185.538739,96.069271,178.975726,75.716888,152.300735,50.375909,146.827552" />
<polygon fill="#ece054" fill-opacity="0.501961" points="25,218 -16,197 15,51" />
<polygon fill="#cd9a73" fill-opacity="0.501961" points="48,110 55,100 27,82" />
<polygon fill="#e9dd52" fill-opacity="0.501961" points="8.178566,130.657244,50.154821,115.116711,58.427474,134.147421,48.645849,161.488384" />
<polygon fill="#e0cf45" fill-opacity="0.501961" points="185.000000,196.134027,185.000000,130.789323,137.306199,145.336231,147.409833,222.871019" />
<g transform="translate(94.232370 245.941488) rotate(183.100766) scale(81.263413 2.979528)"><ellipse fill="#d5c144" fill-opacity="0.501961" cx="0" cy="0" rx="1" ry="1" /></g>
<polygon fill="#814c20" fill-opacity="0.501961" points="100.138782,113.795857,100.904972,105.843239,111.204953,115.059942,108.855095,122.373057" />
<polygon fill="#262026" fill-opacity="0.501961" points="93,119 81,129 93,128" />
<ellipse fill="#e6d84d" fill-opacity="0.501961" cx="20" cy="53" rx="149" ry="17" />
<rect fill="#d0a35b" fill-opacity="0.501961" x="74" y="82" width="20" height="7" />
<g transform="translate(63 212) rotate(185) scale(2 40)"><rect fill="#ccb46e" fill-opacity="0.501961" x="-0.5" y="-0.5" width="1" height="1" /></g>
<polygon fill="#eae055" fill-opacity="0.501961" points="171.886569,252.694644,180.506465,255.301679,128.538426,271.000000,36.150538,246.544205" />
<g transform="translate(67.449297 98.153984) rotate(317.345841) scale(10.097572 1.000000)"><ellipse fill="#361713" fill-opacity="0.501961" cx="0" cy="0" rx="1" ry="1" /></g>
<polygon fill="#d3bb39" fill-opacity="0.501961" points="25.436997,222.751361,20.541001,215.906929,43.839808,208.223112,43.498729,226.205005" />
<rect fill="#5f2e18" fill-opacity="0.501961" x="72" y="116" width="5" height="17" />
<polygon fill="#c7a54d" fill-opacity="0.501961" points="69.704238,207.090903,88.543856,197.743088,92.301022,174.780748,74.708145,193.380414" />
<polygon fill="#9d5e32" fill-opacity="0.501961" points="63.455390,85.673923,30.777824,71.529322,36.769315,84.020802,56.210641,104.590386" />
<polygon fill="#bda767" fill-opacity="0.501961" points="128.691999,221.035261,139.919306,224.698641,118.430600,225.453139,128.085241,209.920846" />
<rect fill="#8a5335" fill-opacity="0.501961" x="97" y="234" width="3" height="11" />
<polygon fill="#e5d74d" fill-opacity="0.501961" points="115.893457,69.752612,185.000000,6.391199,68.533472,21.349048,98.419335,81.953779" />
<polygon fill="#b06b2c" fill-opacity="0.501961" points="59,120 35,112 27,98" />
<polygon fill="#dcd0a8" fill-opacity="0.501961" points="87.047490,80.493419,92.919356,105.568234,86.932714,103.042421,84.982723,77.750928" />
<polygon fill="#e9dc52" fill-opacity="0.501961" points="26.324412,29.115325,84.472259,69.843128,55.949314,82.101060,-4.981738,54.709863" />
<polygon fill="#d5c68e" fill-opacity="0.501961" points="82,171 106,184 107,146" />
<polygon fill="#956133" fill-opacity="0.501961" points="103.865844,98.881839,128.074524,72.021967,123.822556,65.123805,111.752976,74.920520" />
<ellipse fill="#cbb187" fill-opacity="0.501961" cx="85" cy="124" rx="2" ry="2" />
<polygon fill="#c6b88a" fill-opacity="0.501961" points="98.571947,127.800305,102.748288,118.227892,97.726481,120.271029,93.255040,125.679456" />
<polygon fill="#a86e31" fill-opacity="0.501961" points="137,177 145,190 131,206" />
<polygon fill="#b17a49" fill-opacity="0.501961" points="53,89 27,75 23,86" />
<polygon fill="#c7b25f" fill-opacity="0.501961" points="81,139 81,130 97,133" />
<g transform="translate(70 100) rotate(23) scale(8 8)"><rect fill="#18171e" fill-opacity="0.501961" x="-0.5" y="-0.5" width="1" height="1" /></g>
<polygon fill="#e5dcb1" fill-opacity="0.501961" points="44,199 60,199 56,237" />
<polygon fill="#dac63b" fill-opacity="0.501961" points="140,135 146,189 115,142" />
<polygon fill="#d2b132" fill-opacity="0.501961" points="52,165 39,181 50,152" />
<polygon fill="#e1d69d" fill-opacity="0.501961" points="67,170 58,139 51,181" />
<polygon fill="#8d5c29" fill-opacity="0.501961" points="93,209 96,201 92,196" />
<rect fill="#d5bf3a" fill-opacity="0.501961" x="116" y="234" width="20" height="17" />
<polygon fill="#e4d64c" fill-opacity="0.501961" points="185.000000,18.412905,136.172921,25.124271,134.791808,92.982169,130.558921,152.516332" />
<rect fill="#c48e4c" fill-opacity="0.501961" x="122" y="73" width="7" height="10" />
<polygon fill="#e9de53" fill-opacity="0.501961" points="-16.000000,119.459447,-10.718029,60.750070,57.503373,135.577500,17.384233,154.566494" />
<g transform="translate(64.762591 122.004929) rotate(303.649121) scale(12.762339 5.125707)"><ellipse fill="#a46329" fill-opacity="0.501961" cx="0" cy="0" rx="1" ry="1" /></g>
<g transform="translate(22.097604 77.779058) rotate(115.202387) scale(8.369029 5.340962)"><ellipse fill="#8f4b22" fill-opacity="0.501961" cx="0" cy="0" rx="1" ry="1" /></g>
<ellipse fill="#b98230" fill-opacity="0.501961" cx="54" cy="238" rx="9" ry="2" />
<ellipse fill="#8c5327" fill-opacity="0.501961" cx="126" cy="231" rx="10" ry="3" />
<ellipse fill="#e8dfb7" fill-opacity="0.501961" cx="101" cy="210" rx="5" ry="9" />
<polygon fill="#e8db50" fill-opacity="0.501961" points="103.253333,78.107927,21.305036,64.905687,185.000000,65.763508,127.505880,61.909433" />
<g transform="translate(81 117) rotate(107) scale(11 2)"><rect fill="#d1a762" fill-opacity="0.501961" x="-0.5" y="-0.5" width="1" height="1" /></g>
<polygon fill="#89532c" fill-opacity="0.501961" points="103,91 115,85 91,76" />
<polygon fill="#c4a458" fill-opacity="0.501961" points="116.555956,161.002358,105.289269,190.341792,54.350994,181.326105,92.116761,194.043173" />
<polygon fill="#d4bf79" fill-opacity="0.501961" points="93.361907,196.031356,117.901682,193.287044,116.158935,210.165730,92.688135,174.747988" />
<rect fill="#805b25" fill-opacity="0.501961" x="77" y="139" width="15" height="5" />
<rect fill="#a7662b" fill-opacity="0.501961" x="45" y="174" width="5" height="12" />
<g transform="translate(120 159) rotate(144) scale(4 22)"><rect fill="#96602a" fill-opacity="0.501961" x="-0.5" y="-0.5" width="1" height="1" /></g>
<g transform="translate(93.615368 223.970297) rotate(211.434393) scale(1.115311 2.934251)"><ellipse fill="#6d4728" fill-opacity="0.501961" cx="0" cy="0" rx="1" ry="1" /></g>
<ellipse fill="#d1bb90" fill-opacity="0.501961" cx="105" cy="235" rx="7" ry="7" />
<polygon fill="#d4bf6e" fill-opacity="0.501961" points="51.298541,136.913285,60.796179,132.061785,52.512907,151.743062,76.003807,136.365436" />
<polygon fill="#ac6a2e" fill-opacity="0.501961" points="50.121444,112.903642,84.626978,76.001162,85.520633,86.630843,57.481620,82.332668" />
<ellipse fill="#cfb696" fill-opacity="0.501961" cx="114" cy="91" rx="4" ry="4" />
<polygon fill="#8d4f24" fill-opacity="0.501961" points="102.642255,79.436912,90.969870,95.261051,92.384136,99.293686,127.746165,64.488676" />
<polygon fill="#e0d499" fill-opacity="0.501961" points="56.107146,243.714756,42.247916,192.913435,60.927007,184.572985,49.322498,199.838090" />
<ellipse fill="#e0cc3d" fill-opacity="0.501961" cx="74" cy="233" rx="9" ry="9" />
<ellipse fill="#dbc29d" fill-opacity="0.501961" cx="39" cy="96" rx="5" ry="3" />
<polygon fill="#9b5826" fill-opacity="0.501961" points="67.915527,96.378221,76.489867,92.063060,30.782883,71.280469,49.877930,86.471582" />
<polygon fill="#e5d74d" fill-opacity="0.501961" points="120.225656,108.392029,136.091130,81.424046,185.000000,130.337285,107.767329,125.834445" />
<path stroke="#dad5b1" stroke-opacity="0.501961" fill="none" d="M 102.550418 123.108913 Q 85.734042 94.974057, 87.421443 82.449990" stroke-width="0.500000" />
<g transform="translate(126.203776 71.273393) rotate(347.198456) scale(8.207557 5.775596)"><ellipse fill="#8d5328" fill-opacity="0.501961" cx="0" cy="0" rx="1" ry="1" /></g>
<g transform="translate(34.511147 167.573855) rotate(212.507261) scale(10.724546 26.379498)"><ellipse fill="#e2d143" fill-opacity="0.501961" cx="0" cy="0" rx="1" ry="1" /></g>
<polygon fill="#ddd3a2" fill-opacity="0.501961" points="92.548384,213.563271,112.248526,238.296167,114.178541,212.192104,95.511095,210.241502" />
<g transform="translate(63.267239 106.754462) rotate(44.916331) scale(8.603048 3.336008)"><ellipse fill="#843d1b" fill-opacity="0.501961" cx="0" cy="0" rx="1" ry="1" /></g>
<ellipse fill="#ae7040" fill-opacity="0.501961" cx="126" cy="228" rx="10" ry="4" />
<polygon fill="#bb7f3f" fill-opacity="0.501961" points="88.433643,101.790929,81.216021,83.110309,71.887121,80.653079,64.289369,81.876496" />
</g>
</svg>