<svg xmlns="http://www.w3.org/2000/svg" version="1.1" width="692" height="1024">
<rect x="0" y="0" width="692" height="1024" fill="#d2723e" />
<g transform="scale(4.000000) translate(0.5 0.5)">
<ellipse fill="#cbd8ce" fill-opacity="0.501961" cx="84" cy="181" rx="36" ry="56" />
<ellipse fill="#5c6860" fill-opacity="0.501961" cx="83" cy="102" rx="30" ry="30" />
<g transform="translate(84 213) rotate(178) scale(28 48)"><rect fill="#b22d00" fill-opacity="0.501961" x="-0.5" y="-0.5" width="1" height="1" /></g>
<polygon fill="#e6e7db" fill-opacity="0.501961" points="64.789231,130.409935,52.254614,189.887548,48.853167,225.518334,70.508136,231.544238" />
<ellipse fill="#d1521a" fill-opacity="0.501961" cx="145" cy="167" rx="32" ry="91" />
<rect fill="#e1e1ce" fill-opacity="0.501961" x="59" y="134" width="53" height="37" />
<ellipse fill="#e45515" fill-opacity="0.501961" cx="22" cy="156" rx="33" ry="71" />
<g transform="translate(76.382639 28.308968) rotate(88.296625) scale(45.258564 172.000000)"><ellipse fill="#e6631a" fill-opacity="0.501961" cx="0" cy="0" rx="1" ry="1" /></g>
<rect fill="#e3ebdf" fill-opacity="0.501961" x="100" y="182" width="16" height="46" />
<polygon fill="#ccc6b3" fill-opacity="0.501961" points="85,118 113,146 78,70" />
<g transform="translate(45.320033 92.429764) rotate(233.020157) scale(14.008203 8.187904)"><ellipse fill="#b5ccc5" fill-opacity="0.501961" cx="0" cy="0" rx="1" ry="1" /></g>
<polygon fill="#78695a" fill-opacity="0.501961" points="113,144 144,214 117,222" />
<polygon fill="#a4beb3" fill-opacity="0.501961" points="130.505710,93.625712,129.949562,69.136587,107.633183,90.363546,116.914343,103.452637" />
<g transform="translate(71.976961 100.923853) rotate(324.442531) scale(10.149825 13.592849)"><ellipse fill="#3a2832" fill-opacity="0.501961" cx="0" cy="0" rx="1" ry="1" /></g>
<polygon fill="#745031" fill-opacity="0.501961" points="122.491182,65.954447,90.812121,130.972412,92.493839,93.223299,86.517749,91.048797" />
<ellipse fill="#e87625" fill-opacity="0.501961" cx="64" cy="252" rx="127" ry="24" />
<rect fill="#781f1b" fill-opacity="0.501961" x="68" y="211" width="30" height="8" />
<rect fill="#f4edd5" fill-opacity="0.501961" x="80" y="74" width="6" height="22" />
<g transform="translate(154.795258 130.774070) rotate(182.574220) scale(22.183941 89.809104)"><ellipse fill="#e26224" fill-opacity="0.501961" cx="0" cy="0" rx="1" ry="1" /></g>
<rect fill="#c49365" fill-opacity="0.501961" x="81" y="174" width="17" height="40" />
<polygon fill="#a95828" fill-opacity="0.501961" points="113.151813,113.791778,77.484334,135.694718,68.198502,123.519821,123.370735,111.498445" />
<g transform="translate(115.755198 175.014729) rotate(213.538340) scale(6.660566 10.817459)"><ellipse fill="#9a602c" fill-opacity="0.501961" cx="0" cy="0" rx="1" ry="1" /></g>
<polygon fill="#897552" fill-opacity="0.501961" points="138,78 88,87 138,61" />
<g transform="translate(87 102) rotate(171) scale(7 19)"><rect fill="#f3f9f4" fill-opacity="0.501961" x="-0.5" y="-0.5" width="1" height="1" /></g>
<rect fill="#1f091c" fill-opacity="0.501961" x="118" y="202" width="7" height="12" />
<g transform="translate(132 208) rotate(145) scale(9 9)"><rect fill="#cbcab2" fill-opacity="0.501961" x="-0.5" y="-0.5" width="1" height="1" /></g>
<g transform="translate(20.249046 219.569334) rotate(65.948404) scale(20.723907 31.116644)"><ellipse fill="#d55122" fill-opacity="0.501961" cx="0" cy="0" rx="1" ry="1" /></g>
<rect fill="#000015" fill-opacity="0.501961" x="72" y="96" width="11" height="10" />
<polygon fill="#906b43" fill-opacity="0.501961" points="22.359332,66.349642,82.405292,88.832035,22.191846,81.571522,51.261141,114.816636" />
<rect fill="#e0d4c6" fill-opacity="0.501961" x="49" y="191" width="15" height="39" />
<polygon fill="#d7c3a7" fill-opacity="0.501961" points="64.656633,138.133222,52.700820,186.882109,115.036823,162.363968,108.284118,122.163090" />
<g transform="translate(95 90) rotate(177) scale(14 7)"><rect fill="#171228" fill-opacity="0.501961" x="-0.5" y="-0.5" width="1" height="1" /></g>
<polygon fill="#daad85" fill-opacity="0.501961" points="74,109 67,95 66,110" />
<rect fill="#ce662a" fill-opacity="0.501961" x="49" y="107" width="9" height="75" />
<ellipse fill="#eccda8" fill-opacity="0.501961" cx="77" cy="119" rx="7" ry="3" />
<rect fill="#e3d0bc" fill-opacity="0.501961" x="99" y="186" width="18" height="37" />
<polygon fill="#9c421d" fill-opacity="0.501961" points="87.935111,128.019769,58.917934,122.355125,57.998808,88.983668,79.201367,131.806875" />
<ellipse fill="#e06928" fill-opacity="0.501961" cx="10" cy="81" rx="17" ry="82" />
<polygon fill="#dcc8bf" fill-opacity="0.501961" points="125,79 109,96 124,95" />
<polygon fill="#dcc6ac" fill-opacity="0.501961" points="109.825086,223.675508,90.110161,229.078263,118.411405,184.703034,118.974455,193.886283" />
<g transform="translate(172 218) rotate(215) scale(60 49)"><rect fill="#d34d22" fill-opacity="0.501961" x="-0.5" y="-0.5" width="1" height="1" /></g>
<ellipse fill="#e2571c" fill-opacity="0.501961" cx="82" cy="227" rx="12" ry="11" />
<polygon fill="#906138" fill-opacity="0.501961" points="102,123 88,116 136,87" />
<polygon fill="#c4a77d" fill-opacity="0.501961" points="87,134 58,139 66,125" />
<rect fill="#e06c29" fill-opacity="0.501961" x="110" y="108" width="63" height="31" />
<rect fill="#281b2e" fill-opacity="0.501961" x="65" y="112" width="22" height="3" />
<polygon fill="#6d241b" fill-opacity="0.501961" points="69.594244,203.822701,84.787924,216.446873,80.922003,217.199777,67.703791,209.528657" />
<rect fill="#bf8f57" fill-opacity="0.501961" x="70" y="71" width="11" height="25" />
<ellipse fill="#230d18" fill-opacity="0.501961" cx="64" cy="93" rx="4" ry="5" />
<ellipse fill="#e7913d" fill-opacity="0.501961" cx="77" cy="255" rx="114" ry="6" />
<g transform="translate(47 95) rotate(293) scale(12 14)"><rect fill="#d7c1b9" fill-opacity="0.501961" x="-0.5" y="-0.5" width="1" height="1" /></g>
<polygon fill="#a77a4b" fill-opacity="0.501961" points="106,99 118,75 94,80" />
<rect fill="#ddcab2" fill-opacity="0.501961" x="56" y="144" width="53" height="28" />
<polygon fill="#885e39" fill-opacity="0.501961" points="119.413807,108.681643,139.526468,81.857644,137.744158,68.397040,128.894893,91.602716" />
<polygon fill="#7c5238" fill-opacity="0.501961" points="126,184 138,198 114,206" />
<ellipse fill="#d49c7b" fill-opacity="0.501961" cx="85" cy="207" rx="9" ry="6" />
<polygon fill="#8f512d" fill-opacity="0.501961" points="26.631549,92.303154,26.156431,68.168566,57.121424,79.219842,34.944379,74.017965" />
<polygon fill="#c79463" fill-opacity="0.501961" points="66.915400,173.976789,119.510192,185.223496,64.614139,188.709495,90.938394,197.380863" />
<polygon fill="#c8b39f" fill-opacity="0.501961" points="120.093206,223.783511,115.479718,229.461589,96.320255,227.471695,109.626460,214.354962" />
<ellipse fill="#bb3f21" fill-opacity="0.501961" cx="130" cy="217" rx="15" ry="5" />
<g transform="translate(31.692561 120.286271) rotate(185.198285) scale(30.581607 13.070569)"><ellipse fill="#e2712c" fill-opacity="0.501961" cx="0" cy="0" rx="1" ry="1" /></g>
<polygon fill="#d4bda8" fill-opacity="0.501961" points="72.926647,224.184463,68.116750,230.995939,45.516749,228.285809,52.987496,210.926553" />
<rect fill="#e6d6c4" fill-opacity="0.501961" x="51" y="183" width="15" height="40" />
<polygon fill="#a68465" fill-opacity="0.501961" points="57.580280,93.091646,55.164912,79.792019,29.003373,75.526133,58.629789,98.086161" />
<polygon fill="#b67b40" fill-opacity="0.501961" points="84.382090,90.592989,94.032189,74.296057,67.335323,74.594995,84.147648,69.093381" />
<polygon fill="#d1cfc5" fill-opacity="0.501961" points="93,105 76,90 89,94" />
<rect fill="#d46731" fill-opacity="0.501961" x="25" y="230" width="147" height="12" />
<polygon fill="#c7b49c" fill-opacity="0.501961" points="90.265936,117.532468,70.301215,114.050856,71.608819,120.291660,87.462185,118.950475" />
<polygon fill="#d35627" fill-opacity="0.501961" points="11,215 47,222 52,205" />
<g transform="translate(86 109) rotate(209) scale(12 7)"><rect fill="#ccbca9" fill-opacity="0.501961" x="-0.5" y="-0.5" width="1" height="1" /></g>
<rect fill="#e9e7d3" fill-opacity="0.501961" x="69" y="105" width="3" height="6" />
<polygon fill="#dac7af" fill-opacity="0.501961" points="64.909623,149.835598,59.126539,124.944189,108.647339,165.209882,117.217817,149.537319" />
<polygon fill="#a05930" fill-opacity="0.501961" points="55,103 75,91 58,118" />
<g transform="translate(130.038742 159.475912) rotate(173.564720) scale(10.605310 17.212285)"><ellipse fill="#d64e22" fill-opacity="0.501961" cx="0" cy="0" rx="1" ry="1" /></g>
<polygon fill="#64100c" fill-opacity="0.501961" points="87,217 69,213 69,206" />
<g transform="translate(79 199) rotate(269) scale(9 20)"><rect fill="#b1552f" fill-opacity="0.501961" x="-0.5" y="-0.5" width="1" height="1" /></g>
<polygon fill="#e3d6c7" fill-opacity="0.501961" points="95,203 117,224 108,191" />
<polygon fill="#b5c3c1" fill-opacity="0.501961" points="73,96 72,93 79,93" />
<g transform="translate(77.160890 108.148908) rotate(227.891094) scale(8.414038 2.223079)"><ellipse fill="#2d2132" fill-opacity="0.501961" cx="0" cy="0" rx="1" ry="1" /></g>
<ellipse fill="#754b36" fill-opacity="0.501961" cx="97" cy="114" rx="12" ry="2" />
<polygon fill="#c3a170" fill-opacity="0.501961" points="133.529633,70.277537,111.736347,109.327869,109.665185,96.331206,128.409109,96.318852" />
<ellipse fill="#dc6a2a" fill-opacity="0.501961" cx="161" cy="85" rx="23" ry="73" />
<polygon fill="#71452d" fill-opacity="0.501961" points="134,65 123,69 142,72" />
<polygon fill="#5e3429" fill-opacity="0.501961" points="108,92 93,92 99,101" />
<ellipse fill="#df6d2b" fill-opacity="0.501961" cx="101" cy="46" rx="30" ry="30" />
<rect fill="#8a7862" fill-opacity="0.501961" x="123" y="196" width="5" height="18" />
<g transform="translate(0.000000 14.085546) rotate(321.498793) scale(64.419167 18.190145)"><ellipse fill="#d65a28" fill-opacity="0.501961" cx="0" cy="0" rx="1" ry="1" /></g>
<polygon fill="#d6b393" fill-opacity="0.501961" points="54.316393,206.646705,48.466394,180.716636,62.532651,180.000370,45.691427,204.843019" />
<ellipse fill="#df7232" fill-opacity="0.501961" cx="124" cy="14" rx="71" ry="12" />
<g transform="translate(39 178) rotate(183) scale(23 31)"><rect fill="#da5825" fill-opacity="0.501961" x="-0.5" y="-0.5" width="1" height="1" /></g>
<polygon fill="#c9b694" fill-opacity="0.501961" points="109,116 112,151 102,130" />
<polygon fill="#bfa67d" fill-opacity="0.501961" points="70.717300,139.063548,87.728993,128.295218,106.598664,122.546776,95.316306,137.226874" />
<g transform="translate(49 106) rotate(90) scale(6 10)"><rect fill="#bc9f62" fill-opacity="0.501961" x="-0.5" y="-0.5" width="1" height="1" /></g>
<ellipse fill="#1b1120" fill-opacity="0.501961" cx="77" cy="101" rx="6" ry="6" />
<polygon fill="#e26a28" fill-opacity="0.501961" points="-16,58 -9,115 36,61" />
<rect fill="#d3b691" fill-opacity="0.501961" x="58" y="167" width="54" height="9" />
<g transform="translate(123 183) rotate(41) scale(32 8)"><rect fill="#98643d" fill-opacity="0.501961" x="-0.5" y="-0.5" width="1" height="1" /></g>
<polygon fill="#ddccb8" fill-opacity="0.501961" points="114.016486,190.335441,101.424897,206.185704,95.226412,223.339796,116.192720,219.219059" />
<polygon fill="#99794f" fill-opacity="0.501961" points="57,176 54,162 50,181" />
<rect fill="#d55d29" fill-opacity="0.501961" x="118" y="218" width="55" height="20" />
<polygon fill="#482826" fill-opacity="0.501961" points="72.316675,89.950814,71.351850,92.721234,59.935090,96.718773,67.283267,83.536283" />
<rect fill="#89654d" fill-opacity="0.501961" x="106" y="221" width="2" height="7" />
<polygon fill="#caa77f" fill-opacity="0.501961" points="126.210749,73.837165,123.053876,77.936859,124.186025,92.253194,132.177335,73.783603" />
<rect fill="#a37646" fill-opacity="0.501961" x="92" y="102" width="24" height="8" />
<rect fill="#815036" fill-opacity="0.501961" x="92" y="105" width="8" height="19" />
<ellipse fill="#e06d2a" fill-opacity="0.501961" cx="60" cy="47" rx="30" ry="30" />
<rect fill="#020119" fill-opacity="0.501961" x="94" y="89" width="4" height="5" />
<polygon fill="#c2834f" fill-opacity="0.501961" points="93.582355,181.503297,75.751135,174.846939,88.840154,197.003687,73.249294,194.611887" />
<rect fill="#d94519" fill-opacity="0.501961" x="71" y="218" width="24" height="5" />
<rect fill="#db5d27" fill-opacity="0.501961" x="50" y="131" width="7" height="26" />
<polygon fill="#c69f86" fill-opacity="0.501961" points="59.045087,219.944679,73.452564,226.656266,68.329249,231.883048,51.815389,229.689449" />
<polygon fill="#c29d6d" fill-opacity="0.501961" points="41.504751,85.032535,38.373329,79.188392,30.379733,79.153790,45.237378,107.280476" />
<rect fill="#511a1b" fill-opacity="0.501961" x="118" y="207" width="7" height="10" />
<polygon fill="#c2a082" fill-opacity="0.501961" points="133,200 141,210 124,213" />
<polygon fill="#c9b39e" fill-opacity="0.501961" points="69,112 69,104 75,108" />
<g transform="translate(90 216) rotate(278) scale(1 8)"><rect fill="#290713" fill-opacity="0.501961" x="-0.5" y="-0.5" width="1" height="1" /></g>
<polygon fill="#c49971" fill-opacity="0.501961" points="108.520847,131.431507,111.981109,135.757778,117.215892,158.375317,106.884321,137.074197" />
<rect fill="#dc6a2b" fill-opacity="0.501961" x="119" y="20" width="52" height="46" />
<g transform="translate(86 210) rotate(-8) scale(4 10)"><rect fill="#dca783" fill-opacity="0.501961" x="-0.5" y="-0.5" width="1" height="1" /></g>
<rect fill="#c67843" fill-opacity="0.501961" x="76" y="121" width="11" height="6" />
<polygon fill="#d95e28" fill-opacity="0.501961" points="-16.000000,253.982134,45.432454,227.957905,46.991535,188.397677,61.308215,121.975500" />
<polygon fill="#9f8265" fill-opacity="0.501961" points="107,94 111,80 130,69" />
<polygon fill="#854026" fill-opacity="0.501961" points="70,120 67,103 59,114" />
<rect fill="#e4ded9" fill-opacity="0.501961" x="80" y="82" width="4" height="13" />
<polygon fill="#de6a2a" fill-opacity="0.501961" points="129.172789,99.277262,113.460689,111.528445,115.888951,160.837738,171.670337,20.072168" />
<rect fill="#d6b899" fill-opacity="0.501961" x="67" y="172" width="2" height="49" />
<rect fill="#99493b" fill-opacity="0.501961" x="97" y="229" width="14" height="2" />
<polygon fill="#af7654" fill-opacity="0.501961" points="87,191 94,207 100,188" />
<polygon fill="#a35d49" fill-opacity="0.501961" points="134.892526,218.324928,137.652175,215.581957,141.455227,207.946719,122.925537,213.915085" />
<g transform="translate(64 81) rotate(235) scale(3 30)"><rect fill="#9b683f" fill-opacity="0.501961" x="-0.5" y="-0.5" width="1" height="1" /></g>
<polygon fill="#c5a37d" fill-opacity="0.501961" points="79.582911,193.863609,116.262131,166.606353,106.526415,166.447763,110.712373,177.867914" />
<polygon fill="#df742d" fill-opacity="0.501961" points="159,251 8,250 74,227" />
<polygon fill="#83532e" fill-opacity="0.501961" points="89,81 101,79 86,88" />
<rect fill="#945b33" fill-opacity="0.501961" x="71" y="87" width="8" height="6" />
<polygon fill="#dccbb8" fill-opacity="0.501961" points="83.271540,163.808619,56.676906,141.243660,103.364968,138.736057,109.223067,142.514612" />
<g transform="translate(17.306809 106.642023) rotate(257.288193) scale(49.586911 15.867315)"><ellipse fill="#de6b2b" fill-opacity="0.501961" cx="0" cy="0" rx="1" ry="1" /></g>
<rect fill="#dac6bf" fill-opacity="0.501961" x="44" y="91" width="9" height="7" />
<polygon fill="#d7bb9f" fill-opacity="0.501961" points="88.031225,183.572096,119.079375,190.085756,114.567672,214.715564,105.844488,178.978305" />
<polygon fill="#865232" fill-opacity="0.501961" points="32,92 25,75 31,69" />
<polygon fill="#c68760" fill-opacity="0.501961" points="103,207 68,206 86,199" />
<polygon fill="#af7d49" fill-opacity="0.501961" points="121.762764,187.325284,109.384068,170.309222,121.440052,156.716360,105.863432,182.990879" />
<ellipse fill="#d6c4ad" fill-opacity="0.501961" cx="114" cy="223" rx="4" ry="4" />
<rect fill="#cdb6aa" fill-opacity="0.501961" x="114" y="86" width="9" height="13" />
<polygon fill="#894f33" fill-opacity="0.501961" points="57.223230,79.554061,73.756109,127.013288,81.426330,133.669956,63.343030,107.768592" />
<g transform="translate(104.354446 103.130726) rotate(8.836987) scale(2.402648 23.219426)"><ellipse fill="#9c7043" fill-opacity="0.501961" cx="0" cy="0" rx="1" ry="1" /></g>
<g transform="translate(86 118) rotate(128) scale(8 5)"><rect fill="#c8b391" fill-opacity="0.501961" x="-0.5" y="-0.5" width="1" height="1" /></g>
<g transform="translate(75 101) rotate(220) scale(5 11)"><rect fill="#211722" fill-opacity="0.501961" x="-0.5" y="-0.5" width="1" height="1" /></g>
<ellipse fill="#c39c6e" fill-opacity="0.501961" cx="69" cy="132" rx="5" ry="4" />
<g transform="translate(141.112720 199.609111) rotate(77.375968) scale(42.300485 3.894018)"><ellipse fill="#d55a28" fill-opacity="0.501961" cx="0" cy="0" rx="1" ry="1" /></g>
<rect fill="#ca794a" fill-opacity="0.501961" x="49" y="184" width="1" height="36" />
<rect fill="#a84328" fill-opacity="0.501961" x="71" y="196" width="4" height="14" />
<ellipse fill="#df6b2b" fill-opacity="0.501961" cx="40" cy="128" rx="21" ry="21" />
<polygon fill="#90643e" fill-opacity="0.501961" points="139,71 125,92 136,86" />
<polygon fill="#d36d37" fill-opacity="0.501961" points="50.111932,240.242200,47.702435,236.907162,73.119695,227.746560,135.912370,233.206547" />
<g transform="translate(64.995874 90.497231) rotate(134.005650) scale(2.710938 2.230908)"><ellipse fill="#1f1420" fill-opacity="0.501961" cx="0" cy="0" rx="1" ry="1" /></g>
<polygon fill="#b7985e" fill-opacity="0.501961" points="91,77 84,71 85,84" />
<rect fill="#d5c0a7" fill-opacity="0.501961" x="48" y="222" width="23" height="6" />
<polygon fill="#ce4b23" fill-opacity="0.501961" points="175,226 148,212 175,194" />
<polygon fill="#ac5a31" fill-opacity="0.501961" points="71.712214,120.523880,40.134952,107.020208,67.623683,111.606780,62.791504,130.087747" />
<rect fill="#cd9a68" fill-opacity="0.501961" x="79" y="187" width="15" height="6" />
<polygon fill="#a1825f" fill-opacity="0.501961" points="93.826485,105.235487,83.067778,80.415207,83.800805,86.268274,97.792469,102.149315" />
<polygon fill="#c5a77e" fill-opacity="0.501961" points="54.310557,173.438667,62.087911,174.094223,58.161049,185.340407,57.170170,150.649354" />
<g transform="translate(134 204) rotate(164) scale(4 4)"><rect fill="#d1ccb0" fill-opacity="0.501961" x="-0.5" y="-0.5" width="1" height="1" /></g>
<polygon fill="#d49b6d" fill-opacity="0.501961" points="73.942959,161.444899,50.305496,102.776179,57.170798,93.871471,54.854005,114.537038" />
<polygon fill="#e1cfbd" fill-opacity="0.501961" points="112.464807,200.556708,95.652042,228.248455,103.113282,190.595885,108.577740,184.504801" />
<polygon fill="#a96b3a" fill-opacity="0.501961" points="61.210859,80.069361,58.901222,94.111571,73.195906,78.008527,93.292153,67.278904" />
<polygon fill="#dac4ab" fill-opacity="0.501961" points="79,186 62,184 67,180" />
<g transform="translate(93 117) rotate(377) scale(1 7)"><rect fill="#442428" fill-opacity="0.501961" x="-0.5" y="-0.5" width="1" height="1" /></g>
<polygon fill="#9a5f3a" fill-opacity="0.501961" points="126.081254,103.466221,95.120829,112.190027,91.607809,127.111033,78.096093,128.346690" />
<g transform="translate(34.359327 94.760609) rotate(53.251715) scale(7.795460 1.898773)"><ellipse fill="#9c5f39" fill-opacity="0.501961" cx="0" cy="0" rx="1" ry="1" /></g>
<polygon fill="#d85b27" fill-opacity="0.501961" points="188.000000,200.625410,119.007569,157.257246,107.111696,113.957734,130.962353,140.187295" />
<polygon fill="#dab18e" fill-opacity="0.501961" points="51.568534,195.508064,50.458349,180.764512,49.078621,189.534405,52.554168,220.719493" />
<ellipse fill="#d5c8b1" fill-opacity="0.501961" cx="104" cy="150" rx="6" ry="24" />
<ellipse fill="#ddbfa5" fill-opacity="0.501961" cx="49" cy="224" rx="3" ry="4" />
<polygon fill="#925c35" fill-opacity="0.501961" points="28.118177,73.486983,68.294651,85.443504,40.456832,72.367272,39.806327,70.201007" />
<ellipse fill="#af8877" fill-opacity="0.501961" cx="80" cy="109" rx="2" ry="2" />
<ellipse fill="#251c2c" fill-opacity="0.501961" cx="78" cy="112" rx="6" ry="2" />
<ellipse fill="#784530" fill-opacity="0.501961" cx="133" cy="197" rx="4" ry="4" />
<rect fill="#de6d2c" fill-opacity="0.501961" x="7" y="39" width="108" height="32" />
<polygon fill="#b89261" fill-opacity="0.501961" points="131.428103,87.863666,115.651059,108.738705,135.001701,72.336442,131.770226,86.649370" />
</g>
</svg>