<svg xmlns="http://www.w3.org/2000/svg" version="1.1" width="1024" height="680">
<rect x="0" y="0" width="1024" height="680" fill="#83786c" />
<g transform="scale(4.000000) translate(0.5 0.5)">
<g transform="translate(46.091479 103.816364) rotate(334.688536) scale(102.310099 39.962463)"><ellipse fill="#ffffff" fill-opacity="0.501961" cx="0" cy="0" rx="1" ry="1" /></g>
<g transform="translate(225.609646 55.160973) rotate(-11.124235) scale(41.605904 101.950582)"><ellipse fill="#000000" fill-opacity="0.501961" cx="0" cy="0" rx="1" ry="1" /></g>
<g transform="translate(48.876066 6.665901) rotate(262.983072) scale(35.592106 70.887037)"><ellipse fill="#000000" fill-opacity="0.501961" cx="0" cy="0" rx="1" ry="1" /></g>
<g transform="translate(139.712687 35.510249) rotate(95.006729) scale(25.493156 41.681392)"><ellipse fill="#ffd9b0" fill-opacity="0.501961" cx="0" cy="0" rx="1" ry="1" /></g>
<ellipse fill="#e09f77" fill-opacity="0.501961" cx="139" cy="105" rx="48" ry="85" />
<g transform="translate(37.531357 95.810329) rotate(187.398082) scale(70.756491 24.993858)"><ellipse fill="#ffffff" fill-opacity="0.501961" cx="0" cy="0" rx="1" ry="1" /></g>
<g transform="translate(69.438497 140.847932) rotate(279.242968) scale(17.586706 34.472327)"><ellipse fill="#007d92" fill-opacity="0.501961" cx="0" cy="0" rx="1" ry="1" /></g>
<g transform="translate(90.793275 56.749141) rotate(338.920993) scale(10.104388 35.867604)"><ellipse fill="#12110a" fill-opacity="0.501961" cx="0" cy="0" rx="1" ry="1" /></g>
<polygon fill="#000004" fill-opacity="0.501961" points="133,-4 202,-16 214,49" />
<rect fill="#000d15" fill-opacity="0.501961" x="22" y="0" width="20" height="72" />
<g transform="translate(166.084142 78.234656) rotate(123.298698) scale(40.573044 26.325698)"><ellipse fill="#aa5a3b" fill-opacity="0.501961" cx="0" cy="0" rx="1" ry="1" /></g>
<ellipse fill="#130f19" fill-opacity="0.501961" cx="228" cy="93" rx="37" ry="47" />
<g transform="translate(64 51) rotate(371) scale(34 22)"><rect fill="#f5e1bd" fill-opacity="0.501961" x="-0.5" y="-0.5" width="1" height="1" /></g>
<g transform="translate(113.415572 137.320897) rotate(267.466118) scale(43.023392 13.305574)"><ellipse fill="#fdca9e" fill-opacity="0.501961" cx="0" cy="0" rx="1" ry="1" /></g>
<ellipse fill="#000a17" fill-opacity="0.501961" cx="77" cy="4" rx="101" ry="6" />
<polygon fill="#d9ccbf" fill-opacity="0.501961" points="168,185 153,125 194,91" />
<polygon fill="#e7e7ce" fill-opacity="0.501961" points="-14.049117,133.392987,47.629864,185.000000,18.320762,43.006524,10.318907,47.060178" />
<ellipse fill="#00021c" fill-opacity="0.501961" cx="130" cy="47" rx="8" ry="8" />
<g transform="translate(144.860240 19.324856) rotate(282.000055) scale(9.590825 24.074924)"><ellipse fill="#e9ede8" fill-opacity="0.501961" cx="0" cy="0" rx="1" ry="1" /></g>
<g transform="translate(224.644872 156.071770) rotate(387.656515) scale(44.870495 22.541556)"><ellipse fill="#7f6f49" fill-opacity="0.501961" cx="0" cy="0" rx="1" ry="1" /></g>
<ellipse fill="#0ab7cd" fill-opacity="0.501961" cx="66" cy="133" rx="32" ry="10" />
<rect fill="#063c34" fill-opacity="0.501961" x="47" y="144" width="53" height="17" />
<g transform="translate(56 8) rotate(186) scale(91 60)"><rect fill="#111f28" fill-opacity="0.501961" x="-0.5" y="-0.5" width="1" height="1" /></g>
<polygon fill="#feddbd" fill-opacity="0.501961" points="82.060525,61.454816,83.413366,61.326882,138.418431,5.387961,112.702169,54.934347" />
<polygon fill="#890325" fill-opacity="0.501961" points="169,107 136,112 110,91" />
<g transform="translate(237.386473 0.000000) rotate(105.029787) scale(37.119317 19.495206)"><ellipse fill="#9d5731" fill-opacity="0.501961" cx="0" cy="0" rx="1" ry="1" /></g>
<polygon fill="#51001e" fill-opacity="0.501961" points="170.286534,110.850932,189.871513,88.275937,178.682233,85.809808,161.540045,105.815457" />
<polygon fill="#c1ad87" fill-opacity="0.501961" points="182.725637,30.934257,176.411983,40.349228,187.032706,71.560816,194.777945,57.776549" />
<polygon fill="#13120d" fill-opacity="0.501961" points="197.442003,96.753834,206.102698,128.595669,189.179118,127.004817,190.467706,107.136683" />
<ellipse fill="#fffff6" fill-opacity="0.501961" cx="62" cy="92" rx="45" ry="13" />
<g transform="translate(140.316822 159.855338) rotate(141.711407) scale(8.578334 15.275497)"><ellipse fill="#4f4940" fill-opacity="0.501961" cx="0" cy="0" rx="1" ry="1" /></g>
<g transform="translate(96 66) rotate(54) scale(14 14)"><rect fill="#000007" fill-opacity="0.501961" x="-0.5" y="-0.5" width="1" height="1" /></g>
<g transform="translate(127.674399 65.770100) rotate(235.086492) scale(10.894382 19.293791)"><ellipse fill="#dadbca" fill-opacity="0.501961" cx="0" cy="0" rx="1" ry="1" /></g>
<polygon fill="#020b20" fill-opacity="0.501961" points="188,3 189,48 242,103" />
<polygon fill="#c1fafc" fill-opacity="0.501961" points="50,138 62,124 41,110" />
<polygon fill="#b1a280" fill-opacity="0.501961" points="10,185 -16,152 106,168" />
<g transform="translate(150 95) rotate(285) scale(8 31)"><rect fill="#d8c9ab" fill-opacity="0.501961" x="-0.5" y="-0.5" width="1" height="1" /></g>
<polygon fill="#9f7248" fill-opacity="0.501961" points="149.110220,54.494317,157.667281,33.297696,198.318110,58.138461,196.413235,96.678164" />
<ellipse fill="#fbfef9" fill-opacity="0.501961" cx="12" cy="78" rx="8" ry="22" />
<ellipse fill="#dfc3a3" fill-opacity="0.501961" cx="132" cy="120" rx="54" ry="6" />
<polygon fill="#233127" fill-opacity="0.501961" points="78,73 93,45 82,18" />
<ellipse fill="#1b2229" fill-opacity="0.501961" cx="26" cy="17" rx="81" ry="20" />
<rect fill="#d79d72" fill-opacity="0.501961" x="155" y="68" width="7" height="102" />
<polygon fill="#00919b" fill-opacity="0.501961" points="35.773563,120.216388,57.927363,141.847599,88.510845,141.146223,46.143731,155.976962" />
<ellipse fill="#d2bf9d" fill-opacity="0.501961" cx="63" cy="60" rx="18" ry="24" />
<g transform="translate(42.602633 96.982195) rotate(-13.361560) scale(27.424950 28.802227)"><ellipse fill="#f0eee1" fill-opacity="0.501961" cx="0" cy="0" rx="1" ry="1" /></g>
<g transform="translate(250.610347 46.400518) rotate(84.856375) scale(18.629972 6.771469)"><ellipse fill="#0b0619" fill-opacity="0.501961" cx="0" cy="0" rx="1" ry="1" /></g>
<polygon fill="#101825" fill-opacity="0.501961" points="214,50 209,6 149,4" />
<rect fill="#53504e" fill-opacity="0.501961" x="176" y="163" width="80" height="7" />
<polygon fill="#f6f1e6" fill-opacity="0.501961" points="152.444088,8.451666,95.738330,31.637126,117.481081,13.857093,136.749679,9.607889" />
<polygon fill="#704f3b" fill-opacity="0.501961" points="105.986251,158.759248,94.196965,131.339997,93.056601,140.444255,75.520772,165.037548" />
<g transform="translate(147.545392 0.000000) rotate(75.864372) scale(5.559263 51.247889)"><ellipse fill="#181e1f" fill-opacity="0.501961" cx="0" cy="0" rx="1" ry="1" /></g>
<polygon fill="#20272a" fill-opacity="0.501961" points="21.272100,45.429406,-16.000000,7.335819,101.539365,-16.000000,19.791589,69.737468" />
<g transform="translate(231 145) rotate(289) scale(13 99)"><rect fill="#7f6b49" fill-opacity="0.501961" x="-0.5" y="-0.5" width="1" height="1" /></g>
<rect fill="#007186" fill-opacity="0.501961" x="63" y="126" width="19" height="9" />
<g transform="translate(118.289022 100.271924) rotate(160.872827) scale(4.879234 48.658164)"><ellipse fill="#c39068" fill-opacity="0.501961" cx="0" cy="0" rx="1" ry="1" /></g>
<polygon fill="#ccc9b8" fill-opacity="0.501961" points="21.676883,161.819049,49.339659,157.469487,-16.000000,72.377455,-16.000000,142.948500" />
<polygon fill="#a8b1bc" fill-opacity="0.501961" points="173.215454,126.005117,181.518950,150.563050,196.015186,70.314680,189.074725,87.121106" />
<polygon fill="#debf9b" fill-opacity="0.501961" points="102.236758,144.787799,133.955175,106.097298,92.731794,106.737089,97.003136,145.879130" />
<polygon fill="#69153d" fill-opacity="0.501961" points="154.563997,105.777696,182.890809,101.475928,193.303463,76.717777,175.308250,90.810760" />
<rect fill="#e5bb97" fill-opacity="0.501961" x="106" y="19" width="42" height="22" />
<polygon fill="#cccac2" fill-opacity="0.501961" points="181.969640,41.852736,146.744986,20.858673,167.183743,22.664107,185.993108,37.552628" />
<polygon fill="#d6b584" fill-opacity="0.501961" points="158.937739,38.769964,130.389430,80.985203,98.878791,97.502915,135.332241,91.279588" />
<polygon fill="#e3d2c1" fill-opacity="0.501961" points="101,44 89,58 151,58" />
<g transform="translate(85 67) rotate(112) scale(27 1)"><rect fill="#fff0cd" fill-opacity="0.501961" x="-0.5" y="-0.5" width="1" height="1" /></g>
<polygon fill="#71262a" fill-opacity="0.501961" points="121.891971,94.141581,146.098734,99.249015,155.283506,109.775519,120.222683,100.813472" />
<g transform="translate(0 64) rotate(187) scale(8 23)"><rect fill="#58461b" fill-opacity="0.501961" x="-0.5" y="-0.5" width="1" height="1" /></g>
<polygon fill="#d0a483" fill-opacity="0.501961" points="86,185 131,98 125,185" />
<g transform="translate(160 147) rotate(-4) scale(16 49)"><rect fill="#da9a6c" fill-opacity="0.501961" x="-0.5" y="-0.5" width="1" height="1" /></g>
<polygon fill="#b4a37b" fill-opacity="0.501961" points="6.983260,55.486409,-16.000000,42.348195,17.750770,40.291103,-0.806344,82.571119" />
<g transform="translate(128.838210 46.194046) rotate(176.938744) scale(7.112178 4.982428)"><ellipse fill="#2d282c" fill-opacity="0.501961" cx="0" cy="0" rx="1" ry="1" /></g>
<polygon fill="#252c2c" fill-opacity="0.501961" points="92.342178,-8.646526,47.243919,-10.452546,87.900279,57.547767,98.348050,44.552097" />
<ellipse fill="#1d111b" fill-opacity="0.501961" cx="94" cy="71" rx="7" ry="7" />
<rect fill="#7d724f" fill-opacity="0.501961" x="45" y="36" width="35" height="6" />
<polygon fill="#814f2a" fill-opacity="0.501961" points="159.604411,39.773988,157.956786,56.277297,166.217580,39.462974,164.343094,33.246610" />
<ellipse fill="#ffffff" fill-opacity="0.501961" cx="157" cy="108" rx="2" ry="3" />
<polygon fill="#947f62" fill-opacity="0.501961" points="135.225374,128.593849,121.430143,152.002390,155.771224,158.816691,143.920358,134.015368" />
<polygon fill="#a90d39" fill-opacity="0.501961" points="173.837731,104.671906,161.917924,113.317582,157.933176,104.963384,189.464824,94.238637" />
<rect fill="#252126" fill-opacity="0.501961" x="193" y="71" width="63" height="53" />
<polygon fill="#a58462" fill-opacity="0.501961" points="90.259745,80.619211,102.178822,89.739019,116.715150,87.867383,135.499514,84.125200" />
<polygon fill="#006a70" fill-opacity="0.501961" points="90.825935,141.484060,70.844910,157.081001,59.800105,153.025554,44.688738,142.624474" />
<polygon fill="#f9edd2" fill-opacity="0.501961" points="86.777710,85.367508,86.784133,67.122343,79.303415,75.228053,71.214669,78.040333" />
<g transform="translate(62 68) rotate(156) scale(11 25)"><rect fill="#c3aa84" fill-opacity="0.501961" x="-0.5" y="-0.5" width="1" height="1" /></g>
<rect fill="#feffff" fill-opacity="0.501961" x="31" y="75" width="23" height="24" />
<g transform="translate(25 73) rotate(174) scale(17 7)"><rect fill="#b4ae8d" fill-opacity="0.501961" x="-0.5" y="-0.5" width="1" height="1" /></g>
<polygon fill="#a7a7a2" fill-opacity="0.501961" points="158.290146,101.082353,146.991532,96.648572,177.102199,88.474962,164.265381,100.681129" />
<rect fill="#f3f9f5" fill-opacity="0.501961" x="122" y="11" width="34" height="5" />
<g transform="translate(183 42) rotate(165) scale(3 22)"><rect fill="#c8bba6" fill-opacity="0.501961" x="-0.5" y="-0.5" width="1" height="1" /></g>
<polygon fill="#432f2b" fill-opacity="0.501961" points="256,72 216,59 200,-16" />
<polygon fill="#b80b31" fill-opacity="0.501961" points="159,113 142,112 144,102" />
<polygon fill="#5d5145" fill-opacity="0.501961" points="188.776419,122.250562,195.744469,92.705324,211.533767,83.221662,194.955347,78.169678" />
<g transform="translate(230.734095 12.202635) rotate(208.589793) scale(10.690244 26.330187)"><ellipse fill="#845436" fill-opacity="0.501961" cx="0" cy="0" rx="1" ry="1" /></g>
<rect fill="#8b8664" fill-opacity="0.501961" x="78" y="45" width="5" height="30" />
<g transform="translate(253.203190 12.692437) rotate(120.424328) scale(14.775772 12.190664)"><ellipse fill="#593d2f" fill-opacity="0.501961" cx="0" cy="0" rx="1" ry="1" /></g>
<polygon fill="#a18468" fill-opacity="0.501961" points="127,113 137,115 149,102" />
<ellipse fill="#121420" fill-opacity="0.501961" cx="251" cy="132" rx="9" ry="9" />
<polygon fill="#55d5e9" fill-opacity="0.501961" points="38.222835,125.762847,61.011419,127.220403,60.705699,131.113345,56.007852,142.182262" />
<polygon fill="#d7cbc0" fill-opacity="0.501961" points="74,45 47,40 73,68" />
<rect fill="#d5d9cb" fill-opacity="0.501961" x="6" y="115" width="77" height="10" />
<ellipse fill="#65a9b7" fill-opacity="0.501961" cx="70" cy="138" rx="16" ry="3" />
<polygon fill="#d7b595" fill-opacity="0.501961" points="161.918465,15.983718,146.208669,47.730196,99.321198,25.191543,97.249722,51.882377" />
<polygon fill="#2d312f" fill-opacity="0.501961" points="85.850251,142.356118,91.726638,142.465846,71.642162,163.841291,99.503329,149.353957" />
<polygon fill="#1f292b" fill-opacity="0.501961" points="24.415080,-3.001639,23.392028,68.108848,44.173475,52.044459,41.531174,32.802677" />
<ellipse fill="#ba8441" fill-opacity="0.501961" cx="156" cy="80" rx="18" ry="13" />
<g transform="translate(173.340826 164.681398) rotate(287.376350) scale(45.421840 2.751046)"><ellipse fill="#96979b" fill-opacity="0.501961" cx="0" cy="0" rx="1" ry="1" /></g>
<g transform="translate(255.000000 155.152410) rotate(342.650833) scale(23.566009 4.082358)"><ellipse fill="#575248" fill-opacity="0.501961" cx="0" cy="0" rx="1" ry="1" /></g>
<polygon fill="#d3d1c6" fill-opacity="0.501961" points="109.462622,69.656441,136.370204,77.359380,129.016763,86.659695,112.871727,46.371181" />
<rect fill="#4e3b35" fill-opacity="0.501961" x="177" y="162" width="15" height="8" />
<g transform="translate(0.568575 14.643528) rotate(43.178524) scale(21.252275 18.488066)"><ellipse fill="#101623" fill-opacity="0.501961" cx="0" cy="0" rx="1" ry="1" /></g>
<rect fill="#5d4f44" fill-opacity="0.501961" x="129" y="157" width="23" height="8" />
<polygon fill="#141824" fill-opacity="0.501961" points="222.037761,42.614454,206.959603,77.429599,198.237745,54.741840,164.618048,0.130481" />
<rect fill="#645946" fill-opacity="0.501961" x="47" y="156" width="34" height="7" />
<polygon fill="#dfa072" fill-opacity="0.501961" points="143,129 113,92 111,134" />
<polygon fill="#252a2b" fill-opacity="0.501961" points="153.356956,-3.231531,62.605870,-16.000000,101.263972,34.991955,56.304840,37.940494" />
<polygon fill="#7ca49b" fill-opacity="0.501961" points="99.805266,121.445259,71.025548,123.606432,100.099108,131.671730,94.377500,142.301170" />
<rect fill="#a5967b" fill-opacity="0.501961" x="18" y="163" width="85" height="7" />
<polygon fill="#c8c7c1" fill-opacity="0.501961" points="163,125 192,90 185,121" />
<g transform="translate(47.273788 56.906752) rotate(197.836973) scale(3.411995 17.959084)"><ellipse fill="#bfbaa0" fill-opacity="0.501961" cx="0" cy="0" rx="1" ry="1" /></g>
<rect fill="#e6d7bd" fill-opacity="0.501961" x="100" y="91" width="8" height="41" />
<polygon fill="#bf9368" fill-opacity="0.501961" points="165.073898,34.281509,163.231051,88.421754,148.128540,71.977919,173.335676,33.245419" />
<polygon fill="#474042" fill-opacity="0.501961" points="137.303354,44.706317,144.218818,51.345606,124.549826,47.180863,126.706470,38.517704" />
<polygon fill="#b28053" fill-opacity="0.501961" points="182.860886,37.868355,174.080471,87.986294,201.251337,61.751338,165.899580,41.896211" />
<polygon fill="#dcccb7" fill-opacity="0.501961" points="150.419409,41.756906,110.039985,78.069499,145.803310,52.414511,131.281522,31.926852" />
<polygon fill="#c4aa88" fill-opacity="0.501961" points="89.740573,72.329189,56.292814,64.483838,49.020428,51.993604,96.707640,88.174828" />
<polygon fill="#d8b89b" fill-opacity="0.501961" points="126.323780,69.583054,128.925119,116.922259,133.619039,65.217833,104.914541,22.039024" />
<ellipse fill="#857960" fill-opacity="0.501961" cx="207" cy="152" rx="30" ry="14" />
<g transform="translate(172 98) rotate(131) scale(22 6)"><rect fill="#4e1728" fill-opacity="0.501961" x="-0.5" y="-0.5" width="1" height="1" /></g>
<polygon fill="#810015" fill-opacity="0.501961" points="139,102 133,113 132,96" />
<polygon fill="#b7af9d" fill-opacity="0.501961" points="-1.180555,95.691615,4.515110,147.899201,35.873692,163.112972,-10.867012,157.420860" />
<ellipse fill="#48412f" fill-opacity="0.501961" cx="168" cy="0" rx="31" ry="3" />
<ellipse fill="#007fa1" fill-opacity="0.501961" cx="39" cy="132" rx="4" ry="5" />
<polygon fill="#ed0b3e" fill-opacity="0.501961" points="177,106 176,100 168,106" />
<g transform="translate(82.240678 93.083719) rotate(188.878562) scale(1.029863 28.979628)"><ellipse fill="#faf5e8" fill-opacity="0.501961" cx="0" cy="0" rx="1" ry="1" /></g>
<rect fill="#f4b17d" fill-opacity="0.501961" x="107" y="25" width="14" height="13" />
<polygon fill="#b4a49f" fill-opacity="0.501961" points="122.802502,138.588250,134.134169,185.000000,120.355080,185.000000,121.776524,155.187659" />
<polygon fill="#dfbfa4" fill-opacity="0.501961" points="137.442307,118.472287,154.465712,115.410752,155.002050,114.472249,141.960749,131.990092" />
<rect fill="#008799" fill-opacity="0.501961" x="66" y="126" width="23" height="8" />
<g transform="translate(18 114) rotate(261) scale(32 24)"><rect fill="#ded8cb" fill-opacity="0.501961" x="-0.5" y="-0.5" width="1" height="1" /></g>
<polygon fill="#1d1723" fill-opacity="0.501961" points="260,58 271,111 200,99" />
<polygon fill="#856959" fill-opacity="0.501961" points="103,74 110,83 104,56" />
<polygon fill="#061a1c" fill-opacity="0.501961" points="122,94 127,103 125,93" />
<polygon fill="#2c2b29" fill-opacity="0.501961" points="196.547983,92.162685,271.000000,149.729521,196.432159,122.415699,186.488518,126.890087" />
<polygon fill="#ebeae1" fill-opacity="0.501961" points="146,18 117,13 146,7" />
<polygon fill="#bfbdb5" fill-opacity="0.501961" points="169.191867,24.830534,136.432560,11.401106,188.305779,43.050281,186.389425,35.451895" />
<polygon fill="#4d362c" fill-opacity="0.501961" points="237.758350,108.475020,239.590397,118.214471,271.000000,123.276383,271.000000,119.437329" />
<polygon fill="#573629" fill-opacity="0.501961" points="263.216063,-6.047988,226.571460,44.298492,246.450370,43.865300,246.128779,-14.461085" />
<polygon fill="#1e2328" fill-opacity="0.501961" points="138.103789,7.063726,72.898498,21.417634,131.292337,-2.680898,204.366160,21.626593" />
<rect fill="#787154" fill-opacity="0.501961" x="0" y="38" width="20" height="4" />
<polygon fill="#dd6b39" fill-opacity="0.501961" points="118.612945,95.056750,131.098198,112.264653,126.252201,109.584378,116.443183,101.937386" />
<polygon fill="#caa77f" fill-opacity="0.501961" points="138,72 145,88 122,94" />
<polygon fill="#edd5c1" fill-opacity="0.501961" points="102,41 118,47 89,56" />
<polygon fill="#8e5636" fill-opacity="0.501961" points="224,12 240,41 236,-16" />
<g transform="translate(80 94) rotate(51) scale(22 30)"><rect fill="#f8f9f0" fill-opacity="0.501961" x="-0.5" y="-0.5" width="1" height="1" /></g>
<polygon fill="#b17037" fill-opacity="0.501961" points="152,55 151,89 139,82" />
<polygon fill="#507553" fill-opacity="0.501961" points="31,67 42,56 43,68" />
<polygon fill="#764d3c" fill-opacity="0.501961" points="96,84 107,73 88,76" />
<rect fill="#b5805a" fill-opacity="0.501961" x="92" y="56" width="13" height="4" />
<polygon fill="#eac4a0" fill-opacity="0.501961" points="125,21 103,21 100,36" />
<polygon fill="#cbaf98" fill-opacity="0.501961" points="177.301523,125.316646,166.122526,145.527805,178.949661,104.576316,144.512498,123.909947" />
<ellipse fill="#424a3a" fill-opacity="0.501961" cx="82" cy="51" rx="2" ry="20" />
</g>
</svg>