<svg xmlns="http://www.w3.org/2000/svg" version="1.1" width="1024" height="680">
<rect x="0" y="0" width="1024" height="680" fill="#83786c" />
<g transform="scale(4.000000) translate(0.5 0.5)">
<g transform="translate(44 101) rotate(331) scale(108 80)"><rect fill="#ffffff" fill-opacity="0.501961" x="-0.5" y="-0.5" width="1" height="1" /></g>
<g transform="translate(224.703206 51.095716) rotate(257.911594) scale(107.766266 42.398254)"><ellipse fill="#000000" fill-opacity="0.501961" cx="0" cy="0" rx="1" ry="1" /></g>
<g transform="translate(36.109349 0.000000) rotate(360.625729) scale(80.708112 42.782574)"><ellipse fill="#000000" fill-opacity="0.501961" cx="0" cy="0" rx="1" ry="1" /></g>
<g transform="translate(133.554657 44.746448) rotate(134.037071) scale(36.832596 35.891221)"><ellipse fill="#ffe1b6" fill-opacity="0.501961" cx="0" cy="0" rx="1" ry="1" /></g>
<g transform="translate(93.287184 111.504188) rotate(292.242142) scale(22.158062 109.546231)"><ellipse fill="#ffeacb" fill-opacity="0.501961" cx="0" cy="0" rx="1" ry="1" /></g>
<ellipse fill="#008aa4" fill-opacity="0.501961" cx="65" cy="139" rx="32" ry="18" />
<g transform="translate(177.706928 14.015087) rotate(301.649961) scale(10.214434 132.838758)"><ellipse fill="#010110" fill-opacity="0.501961" cx="0" cy="0" rx="1" ry="1" /></g>
<ellipse fill="#d18057" fill-opacity="0.501961" cx="167" cy="71" rx="28" ry="48" />
<rect fill="#00050f" fill-opacity="0.501961" x="22" y="0" width="19" height="71" />
<g transform="translate(28.133578 100.503527) rotate(88.030798) scale(27.320057 81.471913)"><ellipse fill="#f9fff5" fill-opacity="0.501961" cx="0" cy="0" rx="1" ry="1" /></g>
<g transform="translate(140.672435 132.853403) rotate(72.597610) scale(56.163561 45.445312)"><ellipse fill="#d09372" fill-opacity="0.501961" cx="0" cy="0" rx="1" ry="1" /></g>
<ellipse fill="#110d18" fill-opacity="0.501961" cx="228" cy="100" rx="38" ry="38" />
<polygon fill="#03141f" fill-opacity="0.501961" points="102,-16 97,48 -16,4" />
<g transform="translate(20.432763 146.602979) rotate(134.371020) scale(19.125043 30.174022)"><ellipse fill="#dbd8bc" fill-opacity="0.501961" cx="0" cy="0" rx="1" ry="1" /></g>
<ellipse fill="#00070f" fill-opacity="0.501961" cx="140" cy="4" rx="68" ry="5" />
<ellipse fill="#786a4a" fill-opacity="0.501961" cx="211" cy="158" rx="37" ry="30" />
<g transform="translate(96.002439 67.745047) rotate(301.369657) scale(11.608836 7.922295)"><ellipse fill="#0a0000" fill-opacity="0.501961" cx="0" cy="0" rx="1" ry="1" /></g>
<polygon fill="#811037" fill-opacity="0.501961" points="170,113 192,84 118,110" />
<polygon fill="#100010" fill-opacity="0.501961" points="140.357985,51.789390,139.371950,46.524231,126.392873,35.452518,121.167930,50.776447" />
<polygon fill="#eaece6" fill-opacity="0.501961" points="154,8 106,16 191,39" />
<g transform="translate(77.990753 153.671480) rotate(175.409264) scale(23.286758 8.980383)"><ellipse fill="#002e27" fill-opacity="0.501961" cx="0" cy="0" rx="1" ry="1" /></g>
<g transform="translate(177.879188 114.081918) rotate(131.247220) scale(19.716417 8.862380)"><ellipse fill="#d4dada" fill-opacity="0.501961" cx="0" cy="0" rx="1" ry="1" /></g>
<ellipse fill="#f4f7eb" fill-opacity="0.501961" cx="13" cy="81" rx="8" ry="38" />
<g transform="translate(236.049106 3.736868) rotate(14.506427) scale(18.577810 47.498026)"><ellipse fill="#905332" fill-opacity="0.501961" cx="0" cy="0" rx="1" ry="1" /></g>
<ellipse fill="#f5c69e" fill-opacity="0.501961" cx="113" cy="169" rx="11" ry="155" />
<g transform="translate(139 150) rotate(83) scale(40 22)"><rect fill="#6b5d47" fill-opacity="0.501961" x="-0.5" y="-0.5" width="1" height="1" /></g>
<g transform="translate(60.277951 57.821945) rotate(340.019182) scale(14.065960 23.269238)"><ellipse fill="#dac298" fill-opacity="0.501961" cx="0" cy="0" rx="1" ry="1" /></g>
<g transform="translate(69.869892 137.398521) rotate(166.601806) scale(30.595781 9.430745)"><ellipse fill="#009baa" fill-opacity="0.501961" cx="0" cy="0" rx="1" ry="1" /></g>
<g transform="translate(203.257620 38.485843) rotate(158.233383) scale(15.881615 40.252674)"><ellipse fill="#0c1220" fill-opacity="0.501961" cx="0" cy="0" rx="1" ry="1" /></g>
<g transform="translate(136.668434 104.381018) rotate(22.394178) scale(17.175362 8.241126)"><ellipse fill="#8d1e22" fill-opacity="0.501961" cx="0" cy="0" rx="1" ry="1" /></g>
<polygon fill="#1a2524" fill-opacity="0.501961" points="79,10 108,-1 82,70" />
<g transform="translate(169.066370 69.375389) rotate(153.197612) scale(30.625587 19.974368)"><ellipse fill="#ab733c" fill-opacity="0.501961" cx="0" cy="0" rx="1" ry="1" /></g>
<polygon fill="#272226" fill-opacity="0.501961" points="188.882690,117.115811,210.193368,13.407267,271.000000,138.499680,186.332029,128.778542" />
<polygon fill="#ffecda" fill-opacity="0.501961" points="84,60 103,41 118,52" />
<polygon fill="#e0d3c1" fill-opacity="0.501961" points="105.568510,55.831914,120.324568,54.130418,150.079224,51.971781,127.732747,99.620756" />
<g transform="translate(31.338924 3.622600) rotate(0.923368) scale(85.201060 35.511966)"><ellipse fill="#1e262c" fill-opacity="0.501961" cx="0" cy="0" rx="1" ry="1" /></g>
<polygon fill="#c9d1b6" fill-opacity="0.501961" points="176,90 141,94 157,102" />
<g transform="translate(172.067574 146.984345) rotate(108.336510) scale(58.260398 7.935284)"><ellipse fill="#c3bbb4" fill-opacity="0.501961" cx="0" cy="0" rx="1" ry="1" /></g>
<g transform="translate(175 95) rotate(316) scale(37 6)"><rect fill="#480221" fill-opacity="0.501961" x="-0.5" y="-0.5" width="1" height="1" /></g>
<g transform="translate(122 4) rotate(79) scale(15 48)"><rect fill="#11171d" fill-opacity="0.501961" x="-0.5" y="-0.5" width="1" height="1" /></g>
<rect fill="#2dc8de" fill-opacity="0.501961" x="36" y="124" width="31" height="17" />
<rect fill="#1c2a2a" fill-opacity="0.501961" x="23" y="0" width="21" height="67" />
<g transform="translate(240 156) rotate(200) scale(111 29)"><rect fill="#817050" fill-opacity="0.501961" x="-0.5" y="-0.5" width="1" height="1" /></g>
<rect fill="#f0ba94" fill-opacity="0.501961" x="103" y="21" width="51" height="20" />
<g transform="translate(99.823665 79.122882) rotate(303.353215) scale(8.429264 9.580151)"><ellipse fill="#69402e" fill-opacity="0.501961" cx="0" cy="0" rx="1" ry="1" /></g>
<polygon fill="#c1ba9f" fill-opacity="0.501961" points="197,64 182,35 166,33" />
<polygon fill="#111821" fill-opacity="0.501961" points="206,42 153,9 208,-3" />
<polygon fill="#dea77b" fill-opacity="0.501961" points="154,185 155,105 176,119" />
<ellipse fill="#bca584" fill-opacity="0.501961" cx="72" cy="169" rx="65" ry="6" />
<polygon fill="#a5744a" fill-opacity="0.501961" points="160,36 138,83 200,61" />
<ellipse fill="#d29d6f" fill-opacity="0.501961" cx="125" cy="124" rx="10" ry="22" />
<rect fill="#ffffff" fill-opacity="0.501961" x="124" y="10" width="29" height="6" />
<polygon fill="#4e3e17" fill-opacity="0.501961" points="-16,131 -16,46 6,56" />
<rect fill="#f9fcfa" fill-opacity="0.501961" x="2" y="82" width="91" height="18" />
<g transform="translate(6.543888 125.754441) rotate(-38.711622) scale(23.452467 41.252918)"><ellipse fill="#d1cdbc" fill-opacity="0.501961" cx="0" cy="0" rx="1" ry="1" /></g>
<polygon fill="#006a6b" fill-opacity="0.501961" points="101.729271,142.499933,64.304053,143.856534,36.401844,133.800862,52.822829,157.391009" />
<g transform="translate(63.361423 48.788021) rotate(178.140131) scale(17.616015 10.735424)"><ellipse fill="#cbba9e" fill-opacity="0.501961" cx="0" cy="0" rx="1" ry="1" /></g>
<ellipse fill="#e6e2c9" fill-opacity="0.501961" cx="102" cy="114" rx="4" ry="28" />
<rect fill="#201823" fill-opacity="0.501961" x="243" y="28" width="13" height="111" />
<g transform="translate(172.913168 101.124579) rotate(236.619259) scale(6.194373 13.775300)"><ellipse fill="#87122d" fill-opacity="0.501961" cx="0" cy="0" rx="1" ry="1" /></g>
<ellipse fill="#94ebf6" fill-opacity="0.501961" cx="54" cy="129" rx="7" ry="9" />
<polygon fill="#8d362e" fill-opacity="0.501961" points="117.216498,90.312132,118.125101,85.640207,119.025071,105.460522,141.717358,102.463819" />
<rect fill="#3f404a" fill-opacity="0.501961" x="175" y="165" width="44" height="5" />
<rect fill="#0089a0" fill-opacity="0.501961" x="58" y="126" width="26" height="9" />
<g transform="translate(227.499722 41.650580) rotate(143.071108) scale(8.525323 33.748378)"><ellipse fill="#4b3832" fill-opacity="0.501961" cx="0" cy="0" rx="1" ry="1" /></g>
<g transform="translate(43 134) rotate(137) scale(7 16)"><rect fill="#0095b1" fill-opacity="0.501961" x="-0.5" y="-0.5" width="1" height="1" /></g>
<g transform="translate(4.737678 161.351348) rotate(280.898331) scale(6.973965 33.347582)"><ellipse fill="#a09076" fill-opacity="0.501961" cx="0" cy="0" rx="1" ry="1" /></g>
<rect fill="#a3a6b7" fill-opacity="0.501961" x="189" y="82" width="4" height="24" />
<ellipse fill="#ac9e77" fill-opacity="0.501961" cx="9" cy="47" rx="10" ry="10" />
<g transform="translate(0.000000 11.047942) rotate(219.473794) scale(29.848401 20.170092)"><ellipse fill="#0e1622" fill-opacity="0.501961" cx="0" cy="0" rx="1" ry="1" /></g>
<polygon fill="#929878" fill-opacity="0.501961" points="18,65 17,75 44,68" />
<polygon fill="#28302b" fill-opacity="0.501961" points="77.799954,67.730831,100.825815,42.622781,69.088403,-8.029515,83.711374,47.218767" />
<polygon fill="#0e1321" fill-opacity="0.501961" points="196,7 237,99 187,47" />
<ellipse fill="#ecefe7" fill-opacity="0.501961" cx="13" cy="73" rx="7" ry="19" />
<g transform="translate(233.106432 0.000000) rotate(91.528526) scale(32.662397 11.830638)"><ellipse fill="#905735" fill-opacity="0.501961" cx="0" cy="0" rx="1" ry="1" /></g>
<polygon fill="#ccc2bc" fill-opacity="0.501961" points="164.584845,122.861167,157.210204,103.202765,154.601700,110.467239,179.555651,122.846633" />
<g transform="translate(94 67) rotate(335) scale(10 13)"><rect fill="#020920" fill-opacity="0.501961" x="-0.5" y="-0.5" width="1" height="1" /></g>
<rect fill="#d09e6d" fill-opacity="0.501961" x="153" y="67" width="12" height="22" />
<ellipse fill="#4e3d2f" fill-opacity="0.501961" cx="93" cy="150" rx="9" ry="9" />
<rect fill="#61381a" fill-opacity="0.501961" x="159" y="36" width="5" height="12" />
<g transform="translate(130.114552 44.472165) rotate(260.437996) scale(3.255305 5.009324)"><ellipse fill="#15121c" fill-opacity="0.501961" cx="0" cy="0" rx="1" ry="1" /></g>
<polygon fill="#57473b" fill-opacity="0.501961" points="193.003397,97.283890,193.483880,86.300988,190.794220,69.353404,212.246569,85.106897" />
<g transform="translate(140.443044 107.928652) rotate(62.013376) scale(1.000000 5.693836)"><ellipse fill="#ddcfb8" fill-opacity="0.501961" cx="0" cy="0" rx="1" ry="1" /></g>
<rect fill="#61b1c1" fill-opacity="0.501961" x="50" y="135" width="32" height="6" />
<polygon fill="#cba77c" fill-opacity="0.501961" points="143.726140,79.133454,126.563404,68.111462,156.218335,100.747476,91.602052,88.561727" />
<polygon fill="#46403b" fill-opacity="0.501961" points="139.835192,154.170495,135.003328,155.936380,133.207657,161.656982,150.368989,164.084102" />
<polygon fill="#c7946b" fill-opacity="0.501961" points="128.107171,99.585046,166.721278,185.000000,164.573298,117.337806,129.584710,139.362550" />
<rect fill="#2a2826" fill-opacity="0.501961" x="191" y="100" width="65" height="27" />
<polygon fill="#c7cebf" fill-opacity="0.501961" points="91,124 37,124 104,106" />
<rect fill="#eff9ee" fill-opacity="0.501961" x="138" y="8" width="10" height="5" />
<polygon fill="#24282c" fill-opacity="0.501961" points="96.637953,16.072653,178.289921,1.338167,13.077963,-16.000000,20.362847,48.061912" />
<g transform="translate(239.309016 169.000000) rotate(71.463935) scale(11.182688 114.897566)"><ellipse fill="#5f5c53" fill-opacity="0.501961" cx="0" cy="0" rx="1" ry="1" /></g>
<g transform="translate(117 166) rotate(76) scale(80 22)"><rect fill="#daac87" fill-opacity="0.501961" x="-0.5" y="-0.5" width="1" height="1" /></g>
<g transform="translate(170.463382 12.749045) rotate(14.308048) scale(40.601132 2.687571)"><ellipse fill="#191f25" fill-opacity="0.501961" cx="0" cy="0" rx="1" ry="1" /></g>
<polygon fill="#bea580" fill-opacity="0.501961" points="53.633210,63.997975,52.914216,47.253801,72.334496,76.468580,63.192898,78.352165" />
<rect fill="#f7f9f4" fill-opacity="0.501961" x="31" y="70" width="24" height="26" />
<polygon fill="#c3bfb5" fill-opacity="0.501961" points="156,116 187,102 182,138" />
<g transform="translate(69 39) rotate(372) scale(22 6)"><rect fill="#726941" fill-opacity="0.501961" x="-0.5" y="-0.5" width="1" height="1" /></g>
<polygon fill="#e4be9e" fill-opacity="0.501961" points="99.395833,26.639864,111.611274,14.383063,122.800130,51.855884,122.726700,64.006352" />
<rect fill="#e2f6ea" fill-opacity="0.501961" x="129" y="102" width="2" height="10" />
<polygon fill="#c3baae" fill-opacity="0.501961" points="155,13 177,26 130,28" />
<rect fill="#938b5d" fill-opacity="0.501961" x="78" y="55" width="5" height="20" />
<g transform="translate(136 102) rotate(100) scale(7 9)"><rect fill="#660017" fill-opacity="0.501961" x="-0.5" y="-0.5" width="1" height="1" /></g>
<g transform="translate(255 12) rotate(311) scale(30 26)"><rect fill="#5f402f" fill-opacity="0.501961" x="-0.5" y="-0.5" width="1" height="1" /></g>
<polygon fill="#dfcbb4" fill-opacity="0.501961" points="155.312747,36.878914,110.218915,76.785497,148.607268,58.297499,136.084295,39.833752" />
<ellipse fill="#282e3f" fill-opacity="0.501961" cx="133" cy="47" rx="5" ry="5" />
<rect fill="#555041" fill-opacity="0.501961" x="48" y="155" width="48" height="7" />
<g transform="translate(121 17) rotate(336) scale(13 9)"><rect fill="#f4ece6" fill-opacity="0.501961" x="-0.5" y="-0.5" width="1" height="1" /></g>
<rect fill="#c70028" fill-opacity="0.501961" x="144" y="105" width="11" height="8" />
<g transform="translate(172 0) rotate(7) scale(45 4)"><rect fill="#564931" fill-opacity="0.501961" x="-0.5" y="-0.5" width="1" height="1" /></g>
<polygon fill="#e9dcca" fill-opacity="0.501961" points="87.776905,60.463954,122.383020,40.643674,87.196035,55.646679,69.427152,124.728760" />
<g transform="translate(125 99) rotate(152) scale(1 11)"><rect fill="#00081d" fill-opacity="0.501961" x="-0.5" y="-0.5" width="1" height="1" /></g>
<polygon fill="#aa8268" fill-opacity="0.501961" points="106.705352,61.989617,102.693930,55.840488,95.326154,55.302868,111.764882,76.740321" />
<polygon fill="#1b1723" fill-opacity="0.501961" points="247.301829,107.216183,202.346742,101.558158,266.339578,54.212433,244.798596,19.356952" />
<g transform="translate(177.891733 152.174402) rotate(285.686247) scale(27.714895 2.996212)"><ellipse fill="#91959d" fill-opacity="0.501961" cx="0" cy="0" rx="1" ry="1" /></g>
<polygon fill="#827b6c" fill-opacity="0.501961" points="174,151 204,166 244,154" />
<polygon fill="#ee8f52" fill-opacity="0.501961" points="127,111 111,98 118,90" />
<polygon fill="#dcd0c4" fill-opacity="0.501961" points="51,42 75,68 76,49" />
<ellipse fill="#473a2f" fill-opacity="0.501961" cx="133" cy="111" rx="3" ry="3" />
<polygon fill="#e7ddc7" fill-opacity="0.501961" points="51.439907,92.709647,87.667349,80.529851,85.636472,71.618484,57.786344,79.538901" />
<polygon fill="#00656b" fill-opacity="0.501961" points="80,153 95,137 46,152" />
<g transform="translate(170 106) rotate(327) scale(22 1)"><rect fill="#d9002f" fill-opacity="0.501961" x="-0.5" y="-0.5" width="1" height="1" /></g>
<polygon fill="#e2b58c" fill-opacity="0.501961" points="91.041937,54.417747,146.688040,21.782228,92.556468,27.975568,105.854187,35.137162" />
<ellipse fill="#ead2b8" fill-opacity="0.501961" cx="143" cy="121" rx="5" ry="5" />
<polygon fill="#a37956" fill-opacity="0.501961" points="202.094508,61.687210,190.926558,72.093659,183.901119,88.160833,171.201514,38.145486" />
<polygon fill="#008094" fill-opacity="0.501961" points="68,125 92,129 64,135" />
<polygon fill="#b5a98a" fill-opacity="0.501961" points="43.641727,50.832836,40.839070,73.779842,61.508879,43.996660,59.244930,67.814336" />
<g transform="translate(184 169) rotate(80) scale(13 13)"><rect fill="#4b3a39" fill-opacity="0.501961" x="-0.5" y="-0.5" width="1" height="1" /></g>
<polygon fill="#d1cfbf" fill-opacity="0.501961" points="26.377073,118.661434,-16.000000,111.124662,32.743502,160.214469,44.709216,154.548418" />
<polygon fill="#c3c6bc" fill-opacity="0.501961" points="162.785710,29.930474,190.774468,44.238361,171.071248,24.171828,152.820760,10.967365" />
<polygon fill="#1f282c" fill-opacity="0.501961" points="41.655968,50.924455,23.520307,73.350000,22.716728,21.081817,50.485954,3.283363" />
<polygon fill="#212d2c" fill-opacity="0.501961" points="93,5 97,40 81,67" />
<polygon fill="#cecbc2" fill-opacity="0.501961" points="112,43 115,82 132,80" />
<polygon fill="#3e2e2c" fill-opacity="0.501961" points="205.240267,23.736661,225.551970,77.163220,247.327689,12.480531,245.350219,48.511609" />
<ellipse fill="#b7a397" fill-opacity="0.501961" cx="125" cy="168" rx="4" ry="39" />
<polygon fill="#0f4f44" fill-opacity="0.501961" points="171,97 175,89 165,100" />
<polygon fill="#a18b69" fill-opacity="0.501961" points="138.904184,156.684569,141.766456,134.784853,150.055669,124.043897,154.838787,153.237610" />
<rect fill="#d4a876" fill-opacity="0.501961" x="146" y="25" width="9" height="29" />
<polygon fill="#0c1221" fill-opacity="0.501961" points="206.464006,31.573799,199.982216,65.242244,193.366102,76.982830,216.562748,73.941435" />
<polygon fill="#9a836a" fill-opacity="0.501961" points="111,79 99,88 126,84" />
<polygon fill="#a79978" fill-opacity="0.501961" points="13.774115,48.631395,-16.000000,46.476837,6.980405,42.435974,1.317692,76.990843" />
<polygon fill="#cac5b1" fill-opacity="0.501961" points="0.975121,82.938072,9.572575,68.422345,-16.000000,83.424686,6.043091,147.823378" />
<rect fill="#eae7db" fill-opacity="0.501961" x="7" y="98" width="81" height="21" />
<polygon fill="#4d372c" fill-opacity="0.501961" points="240.636814,118.507875,237.462407,110.534303,244.735515,109.081215,268.341431,122.276344" />
<polygon fill="#b26e36" fill-opacity="0.501961" points="143,70 162,46 148,91" />
<polygon fill="#95977e" fill-opacity="0.501961" points="107.307868,160.492924,99.864599,147.942106,94.438849,145.367931,93.892196,118.500761" />
<g transform="translate(161.861797 154.253010) rotate(101.670003) scale(35.021413 8.185666)"><ellipse fill="#d7a27e" fill-opacity="0.501961" cx="0" cy="0" rx="1" ry="1" /></g>
<polygon fill="#876e46" fill-opacity="0.501961" points="185,138 243,146 187,122" />
<polygon fill="#1a1f27" fill-opacity="0.501961" points="162.129714,12.964787,182.772140,32.016602,217.267489,-16.000000,222.014016,-12.361768" />
<polygon fill="#252c2e" fill-opacity="0.501961" points="35.393071,37.228969,124.710739,-16.000000,109.564721,17.093572,93.265507,33.769510" />
<ellipse fill="#c2ae99" fill-opacity="0.501961" cx="160" cy="96" rx="8" ry="5" />
<g transform="translate(81 95) rotate(224) scale(23 30)"><rect fill="#f8f7f1" fill-opacity="0.501961" x="-0.5" y="-0.5" width="1" height="1" /></g>
<polygon fill="#c2c0a6" fill-opacity="0.501961" points="16.640441,73.915476,59.459713,63.316763,24.818151,78.222769,15.473828,70.891811" />
<polygon fill="#cdb089" fill-opacity="0.501961" points="103.349025,95.559787,76.991875,59.426764,87.189529,71.262889,86.896553,79.636935" />
<polygon fill="#b49e85" fill-opacity="0.501961" points="63,168 102,161 116,185" />
<polygon fill="#a0003c" fill-opacity="0.501961" points="190,76 186,88 192,79" />
<ellipse fill="#c0763f" fill-opacity="0.501961" cx="176" cy="77" rx="9" ry="9" />
<g transform="translate(53 127) rotate(82) scale(9 15)"><rect fill="#8ae3ef" fill-opacity="0.501961" x="-0.5" y="-0.5" width="1" height="1" /></g>
<ellipse fill="#f6ffff" fill-opacity="0.501961" cx="157" cy="107" rx="2" ry="2" />
<ellipse fill="#008eab" fill-opacity="0.501961" cx="41" cy="132" rx="5" ry="5" />
<g transform="translate(133.841339 14.617060) rotate(225.839909) scale(5.915670 6.079009)"><ellipse fill="#eae7db" fill-opacity="0.501961" cx="0" cy="0" rx="1" ry="1" /></g>
<polygon fill="#1f383d" fill-opacity="0.501961" points="73.330248,157.234851,85.548803,147.378199,93.780523,139.417233,88.197899,157.723454" />
<polygon fill="#d1c8b5" fill-opacity="0.501961" points="40.849218,80.430529,57.725505,41.553338,61.892690,46.201636,51.348320,39.296110" />
<g transform="translate(128 48) rotate(260) scale(8 9)"><rect fill="#49312e" fill-opacity="0.501961" x="-0.5" y="-0.5" width="1" height="1" /></g>
<polygon fill="#cdad8c" fill-opacity="0.501961" points="183.328694,40.296479,145.473617,35.249065,131.608867,22.642156,150.696131,24.578131" />
<rect fill="#d9a884" fill-opacity="0.501961" x="128" y="94" width="2" height="29" />
<ellipse fill="#d7c1a4" fill-opacity="0.501961" cx="117" cy="90" rx="13" ry="3" />
<polygon fill="#7caaa9" fill-opacity="0.501961" points="89.513350,122.387496,55.373477,124.352061,85.925726,126.958798,102.230648,126.904996" />
<polygon fill="#4e624c" fill-opacity="0.501961" points="40.625468,68.835147,17.654454,70.155271,29.043198,58.534166,43.265666,54.128824" />
<polygon fill="#92866a" fill-opacity="0.501961" points="1.464202,175.709806,98.631976,159.165428,-16.000000,167.628907,27.036657,185.000000" />
<g transform="translate(255 15) rotate(105) scale(19 10)"><rect fill="#79553f" fill-opacity="0.501961" x="-0.5" y="-0.5" width="1" height="1" /></g>
<polygon fill="#a89a86" fill-opacity="0.501961" points="185.990831,55.115550,191.309471,58.266975,196.238671,68.049112,182.875628,35.956285" />
<polygon fill="#605d49" fill-opacity="0.501961" points="8.365227,35.183569,22.810476,41.295994,-3.111281,41.544877,-16.000000,39.331462" />
<polygon fill="#65564d" fill-opacity="0.501961" points="149,156 128,156 149,174" />
<polygon fill="#694936" fill-opacity="0.501961" points="212,31 213,21 244,32" />
<polygon fill="#e6b48a" fill-opacity="0.501961" points="107.515919,91.861592,138.013874,122.464907,159.834830,114.392317,109.232622,119.253463" />
<polygon fill="#b0b2b2" fill-opacity="0.501961" points="183.502916,111.251719,174.147725,135.903118,191.172427,82.404416,194.403125,94.704684" />
<g transform="translate(195 146) rotate(103) scale(18 25)"><rect fill="#908060" fill-opacity="0.501961" x="-0.5" y="-0.5" width="1" height="1" /></g>
<g transform="translate(94 60) rotate(246) scale(4 7)"><rect fill="#624d40" fill-opacity="0.501961" x="-0.5" y="-0.5" width="1" height="1" /></g>
<g transform="translate(1 62) rotate(293) scale(19 4)"><rect fill="#574933" fill-opacity="0.501961" x="-0.5" y="-0.5" width="1" height="1" /></g>
</g>
</svg>