<svg xmlns="http://www.w3.org/2000/svg" version="1.1" width="1024" height="680">
<rect x="0" y="0" width="1024" height="680" fill="#7f7671" />
<g transform="scale(4.000000) translate(0.5 0.5)">
<ellipse fill="#000000" fill-opacity="0.501961" cx="222" cy="31" rx="56" ry="76" />
<g transform="translate(98.154932 154.562198) rotate(320.588153) scale(48.942188 71.263491)"><ellipse fill="#eef4ff" fill-opacity="0.501961" cx="0" cy="0" rx="1" ry="1" /></g>
<g transform="translate(38.198195 0.000000) rotate(315.179106) scale(156.195154 34.991223)"><ellipse fill="#d8fde7" fill-opacity="0.501961" cx="0" cy="0" rx="1" ry="1" /></g>
<g transform="translate(229.642483 141.813859) rotate(123.349237) scale(20.894368 90.587270)"><ellipse fill="#e7dada" fill-opacity="0.501961" cx="0" cy="0" rx="1" ry="1" /></g>
<g transform="translate(81.493674 50.960642) rotate(92.699483) scale(28.731360 41.147671)"><ellipse fill="#2e1604" fill-opacity="0.501961" cx="0" cy="0" rx="1" ry="1" /></g>
<ellipse fill="#000000" fill-opacity="0.501961" cx="241" cy="55" rx="51" ry="51" />
<g transform="translate(11.975424 133.911456) rotate(50.716463) scale(16.227492 43.541040)"><ellipse fill="#000000" fill-opacity="0.501961" cx="0" cy="0" rx="1" ry="1" /></g>
<g transform="translate(134.191470 91.015357) rotate(19.682913) scale(17.091145 35.367036)"><ellipse fill="#020e20" fill-opacity="0.501961" cx="0" cy="0" rx="1" ry="1" /></g>
<g transform="translate(174.588118 46.800334) rotate(320.968575) scale(16.581241 38.598438)"><ellipse fill="#d4ad93" fill-opacity="0.501961" cx="0" cy="0" rx="1" ry="1" /></g>
<ellipse fill="#000000" fill-opacity="0.501961" cx="191" cy="0" rx="35" ry="26" />
<ellipse fill="#eddfd9" fill-opacity="0.501961" cx="152" cy="147" rx="15" ry="37" />
<g transform="translate(25.872980 74.626635) rotate(88.869252) scale(20.998591 24.769512)"><ellipse fill="#ffbb98" fill-opacity="0.501961" cx="0" cy="0" rx="1" ry="1" /></g>
<ellipse fill="#ffd9bc" fill-opacity="0.501961" cx="96" cy="11" rx="62" ry="8" />
<g transform="translate(105.415322 95.559729) rotate(203.400389) scale(8.308957 27.064171)"><ellipse fill="#e1f7ff" fill-opacity="0.501961" cx="0" cy="0" rx="1" ry="1" /></g>
<g transform="translate(249.093620 166.735822) rotate(40.552103) scale(34.650609 15.858748)"><ellipse fill="#e7ffff" fill-opacity="0.501961" cx="0" cy="0" rx="1" ry="1" /></g>
<ellipse fill="#00959c" fill-opacity="0.501961" cx="18" cy="18" rx="10" ry="26" />
<ellipse fill="#faea95" fill-opacity="0.501961" cx="33" cy="162" rx="18" ry="25" />
<g transform="translate(154 59) rotate(240) scale(25 18)"><rect fill="#000004" fill-opacity="0.501961" x="-0.5" y="-0.5" width="1" height="1" /></g>
<polygon fill="#561e16" fill-opacity="0.501961" points="170.199636,185.000000,248.458840,185.000000,192.755574,139.146052,179.146031,139.927048" />
<g transform="translate(107.317353 32.881382) rotate(55.686332) scale(4.475521 27.902784)"><ellipse fill="#f3cfb4" fill-opacity="0.501961" cx="0" cy="0" rx="1" ry="1" /></g>
<g transform="translate(225.888198 77.569633) rotate(335.054530) scale(41.190373 23.246456)"><ellipse fill="#000005" fill-opacity="0.501961" cx="0" cy="0" rx="1" ry="1" /></g>
<rect fill="#a49794" fill-opacity="0.501961" x="77" y="63" width="20" height="52" />
<ellipse fill="#ab9992" fill-opacity="0.501961" cx="213" cy="122" rx="57" ry="22" />
<ellipse fill="#d9e0e5" fill-opacity="0.501961" cx="63" cy="121" rx="17" ry="33" />
<g transform="translate(157.307869 82.616262) rotate(118.328050) scale(8.374216 18.201946)"><ellipse fill="#ceafa0" fill-opacity="0.501961" cx="0" cy="0" rx="1" ry="1" /></g>
<g transform="translate(109 56) rotate(149) scale(27 25)"><rect fill="#000b19" fill-opacity="0.501961" x="-0.5" y="-0.5" width="1" height="1" /></g>
<polygon fill="#503e34" fill-opacity="0.501961" points="179,107 166,28 197,71" />
<g transform="translate(196 19) rotate(142) scale(32 60)"><rect fill="#000000" fill-opacity="0.501961" x="-0.5" y="-0.5" width="1" height="1" /></g>
<polygon fill="#122237" fill-opacity="0.501961" points="159.611737,101.426778,127.192601,126.779720,111.514373,121.012995,126.336133,77.775731" />
<polygon fill="#2f1400" fill-opacity="0.501961" points="105,12 72,40 90,12" />
<g transform="translate(17.617576 123.960075) rotate(254.436065) scale(20.905724 27.289816)"><ellipse fill="#332a1e" fill-opacity="0.501961" cx="0" cy="0" rx="1" ry="1" /></g>
<polygon fill="#e8d4c7" fill-opacity="0.501961" points="193,45 143,9 175,21" />
<polygon fill="#ecb300" fill-opacity="0.501961" points="42,171 37,138 25,168" />
<g transform="translate(180.323051 59.050396) rotate(267.351516) scale(27.193724 2.864162)"><ellipse fill="#d0b3a4" fill-opacity="0.501961" cx="0" cy="0" rx="1" ry="1" /></g>
<polygon fill="#f1d4bc" fill-opacity="0.501961" points="47.163486,78.245040,9.521205,57.059293,119.271496,-15.354999,26.710092,-16.000000" />
<polygon fill="#2e2116" fill-opacity="0.501961" points="64.566062,90.939874,38.082379,42.303013,85.343904,37.071573,74.813427,79.488272" />
<polygon fill="#d3d3df" fill-opacity="0.501961" points="123,84 91,143 102,81" />
<rect fill="#8d6342" fill-opacity="0.501961" x="127" y="21" width="20" height="58" />
<polygon fill="#4b5f7b" fill-opacity="0.501961" points="266,142 239,145 269,68" />
<g transform="translate(248 160) rotate(176) scale(41 24)"><rect fill="#e4ffff" fill-opacity="0.501961" x="-0.5" y="-0.5" width="1" height="1" /></g>
<ellipse fill="#c88f75" fill-opacity="0.501961" cx="1" cy="81" rx="59" ry="17" />
<polygon fill="#cfc1bd" fill-opacity="0.501961" points="124,46 140,-16 114,4" />
<g transform="translate(20.542288 163.098655) rotate(281.272426) scale(22.788361 7.631033)"><ellipse fill="#9cb0dd" fill-opacity="0.501961" cx="0" cy="0" rx="1" ry="1" /></g>
<g transform="translate(240.698242 18.047516) rotate(19.923563) scale(20.408710 42.080587)"><ellipse fill="#3e1a09" fill-opacity="0.501961" cx="0" cy="0" rx="1" ry="1" /></g>
<polygon fill="#215590" fill-opacity="0.501961" points="170.793162,22.481090,163.020272,13.307031,161.216090,-16.000000,106.808846,-13.885578" />
<g transform="translate(175 132) rotate(211) scale(23 75)"><rect fill="#c19175" fill-opacity="0.501961" x="-0.5" y="-0.5" width="1" height="1" /></g>
<g transform="translate(250.387977 79.271008) rotate(-10.107421) scale(60.462565 22.100196)"><ellipse fill="#00000c" fill-opacity="0.501961" cx="0" cy="0" rx="1" ry="1" /></g>
<polygon fill="#c19370" fill-opacity="0.501961" points="99.296812,12.493425,150.450970,15.831201,166.909592,20.902264,84.246930,41.976747" />
<g transform="translate(170 37) rotate(71) scale(18 8)"><rect fill="#1c0e00" fill-opacity="0.501961" x="-0.5" y="-0.5" width="1" height="1" /></g>
<rect fill="#010000" fill-opacity="0.501961" x="173" y="44" width="4" height="37" />
<rect fill="#4b4a4c" fill-opacity="0.501961" x="120" y="47" width="21" height="55" />
<ellipse fill="#92aac5" fill-opacity="0.501961" cx="236" cy="123" rx="16" ry="16" />
<rect fill="#977d8e" fill-opacity="0.501961" x="91" y="134" width="35" height="13" />
<polygon fill="#ccc8c7" fill-opacity="0.501961" points="129,130 170,110 151,185" />
<polygon fill="#d4b29a" fill-opacity="0.501961" points="147.824155,8.301714,139.634989,52.569220,147.496042,39.716818,171.523916,53.662121" />
<polygon fill="#baa08f" fill-opacity="0.501961" points="196,44 165,25 204,67" />
<ellipse fill="#00928f" fill-opacity="0.501961" cx="17" cy="9" rx="4" ry="32" />
<polygon fill="#956b73" fill-opacity="0.501961" points="216,143 229,166 194,150" />
<ellipse fill="#cbd4e7" fill-opacity="0.501961" cx="50" cy="149" rx="8" ry="32" />
<rect fill="#000000" fill-opacity="0.501961" x="176" y="83" width="3" height="21" />
<polygon fill="#37190d" fill-opacity="0.501961" points="195.063214,153.354233,183.393353,138.283053,175.777657,159.325785,183.035463,165.854671" />
<polygon fill="#e0eff6" fill-opacity="0.501961" points="62,118 61,82 41,139" />
<polygon fill="#a16e48" fill-opacity="0.501961" points="101,9 58,33 65,18" />
<g transform="translate(0 133) rotate(257) scale(30 17)"><rect fill="#000103" fill-opacity="0.501961" x="-0.5" y="-0.5" width="1" height="1" /></g>
<polygon fill="#886a5f" fill-opacity="0.501961" points="39.435334,110.570268,44.490493,128.192999,55.191265,89.581655,3.147297,90.238082" />
<polygon fill="#030507" fill-opacity="0.501961" points="144,-16 188,33 271,-8" />
<polygon fill="#291d12" fill-opacity="0.501961" points="151,38 139,66 158,44" />
<polygon fill="#596e9d" fill-opacity="0.501961" points="133.593354,128.019859,104.266647,121.755680,161.446450,115.524509,157.708629,105.588503" />
<ellipse fill="#000715" fill-opacity="0.501961" cx="127" cy="109" rx="10" ry="10" />
<g transform="translate(95 89) rotate(105) scale(47 5)"><rect fill="#666364" fill-opacity="0.501961" x="-0.5" y="-0.5" width="1" height="1" /></g>
<polygon fill="#86593b" fill-opacity="0.501961" points="173.635028,143.622429,169.490101,150.764225,163.740637,148.597669,174.985974,107.865896" />
<ellipse fill="#d1c5bc" fill-opacity="0.501961" cx="143" cy="165" rx="29" ry="15" />
<polygon fill="#14342f" fill-opacity="0.501961" points="102.557370,4.891331,112.022945,4.656586,118.213959,-16.000000,84.660161,-16.000000" />
<g transform="translate(20.108511 145.945728) rotate(234.688149) scale(3.686837 28.912086)"><ellipse fill="#777a71" fill-opacity="0.501961" cx="0" cy="0" rx="1" ry="1" /></g>
<polygon fill="#bab3b5" fill-opacity="0.501961" points="79,185 90,66 44,163" />
<polygon fill="#d3b7a5" fill-opacity="0.501961" points="157,51 168,42 173,63" />
<g transform="translate(233.112999 104.575448) rotate(95.728376) scale(4.371862 43.868529)"><ellipse fill="#455668" fill-opacity="0.501961" cx="0" cy="0" rx="1" ry="1" /></g>
<g transform="translate(131.861269 5.411199) rotate(109.494287) scale(4.969867 15.886032)"><ellipse fill="#b2c4e0" fill-opacity="0.501961" cx="0" cy="0" rx="1" ry="1" /></g>
<g transform="translate(153 63) rotate(308) scale(18 20)"><rect fill="#14202f" fill-opacity="0.501961" x="-0.5" y="-0.5" width="1" height="1" /></g>
<polygon fill="#23262d" fill-opacity="0.501961" points="119,79 157,110 144,76" />
<polygon fill="#c0ab9d" fill-opacity="0.501961" points="196.034816,161.033077,189.804926,185.000000,134.149270,164.475142,178.413604,172.294124" />
<rect fill="#a98d77" fill-opacity="0.501961" x="86" y="41" width="23" height="6" />
<g transform="translate(86 30) rotate(120) scale(31 5)"><rect fill="#0e0800" fill-opacity="0.501961" x="-0.5" y="-0.5" width="1" height="1" /></g>
<g transform="translate(209.533840 128.465314) rotate(264.375699) scale(18.969896 16.649527)"><ellipse fill="#cfaf9a" fill-opacity="0.501961" cx="0" cy="0" rx="1" ry="1" /></g>
<polygon fill="#000209" fill-opacity="0.501961" points="205.672772,46.676135,271.000000,86.219043,271.000000,116.912348,199.181300,67.460371" />
<polygon fill="#c1cde1" fill-opacity="0.501961" points="135.753865,130.868628,165.435273,105.526366,142.217412,142.630065,62.845219,112.054794" />
<polygon fill="#9a8172" fill-opacity="0.501961" points="114.758663,69.165734,76.060812,68.386632,90.516473,110.266232,69.459885,91.315826" />
<polygon fill="#d0dce4" fill-opacity="0.501961" points="94.064518,104.968319,111.560045,70.927263,117.639217,93.501645,124.204397,93.744697" />
<rect fill="#7b5c46" fill-opacity="0.501961" x="128" y="22" width="14" height="54" />
<polygon fill="#b5bfbd" fill-opacity="0.501961" points="-5.529668,59.998443,-16.000000,49.520003,38.757017,32.266911,28.169218,71.995168" />
<polygon fill="#c5b1a5" fill-opacity="0.501961" points="157.192064,92.131152,160.396049,140.236604,176.628125,87.573670,145.605065,75.883929" />
<polygon fill="#e7d0b6" fill-opacity="0.501961" points="115.017381,12.551394,44.296015,-16.000000,30.306720,50.950421,60.838808,12.437014" />
<polygon fill="#4a7596" fill-opacity="0.501961" points="143,98 141,104 122,93" />
<g transform="translate(34.352296 166.883974) rotate(362.867558) scale(4.654970 13.852318)"><ellipse fill="#d3a600" fill-opacity="0.501961" cx="0" cy="0" rx="1" ry="1" /></g>
<g transform="translate(0 15) rotate(273) scale(55 24)"><rect fill="#a7c9c7" fill-opacity="0.501961" x="-0.5" y="-0.5" width="1" height="1" /></g>
<polygon fill="#644b38" fill-opacity="0.501961" points="81.728741,22.349046,72.750911,51.883249,66.652023,84.683064,58.597002,32.671582" />
<g transform="translate(114 42) rotate(21) scale(7 14)"><rect fill="#010100" fill-opacity="0.501961" x="-0.5" y="-0.5" width="1" height="1" /></g>
<g transform="translate(195.913960 68.003075) rotate(359.149600) scale(4.030372 12.217572)"><ellipse fill="#847873" fill-opacity="0.501961" cx="0" cy="0" rx="1" ry="1" /></g>
<g transform="translate(166 27) rotate(216) scale(13 4)"><rect fill="#845328" fill-opacity="0.501961" x="-0.5" y="-0.5" width="1" height="1" /></g>
<polygon fill="#96b8b0" fill-opacity="0.501961" points="22,51 26,-12 37,8" />
<rect fill="#996b4d" fill-opacity="0.501961" x="185" y="120" width="10" height="12" />
<rect fill="#482c1d" fill-opacity="0.501961" x="226" y="5" width="20" height="28" />
<g transform="translate(0.000000 87.025838) rotate(8.789931) scale(11.476306 28.755993)"><ellipse fill="#bd8c7b" fill-opacity="0.501961" cx="0" cy="0" rx="1" ry="1" /></g>
<polygon fill="#c9d1da" fill-opacity="0.501961" points="91.556541,128.743809,115.074097,123.542058,49.445887,104.624664,70.345960,85.470953" />
<polygon fill="#4d5975" fill-opacity="0.501961" points="126.661660,121.675913,161.751476,109.869188,150.869765,89.400216,144.182464,126.676039" />
<g transform="translate(224.171336 169.000000) rotate(86.790239) scale(8.823983 2.548235)"><ellipse fill="#192225" fill-opacity="0.501961" cx="0" cy="0" rx="1" ry="1" /></g>
<g transform="translate(172 47) rotate(350) scale(1 22)"><rect fill="#000000" fill-opacity="0.501961" x="-0.5" y="-0.5" width="1" height="1" /></g>
<polygon fill="#b8a190" fill-opacity="0.501961" points="77.163643,66.322589,90.268931,47.258096,122.444745,21.649547,87.640740,41.220211" />
<rect fill="#d4d7dc" fill-opacity="0.501961" x="120" y="17" width="6" height="14" />
<polygon fill="#e0d7ce" fill-opacity="0.501961" points="149,36 170,50 156,33" />
<ellipse fill="#ae8d7c" fill-opacity="0.501961" cx="169" cy="99" rx="3" ry="29" />
<polygon fill="#d2e8ff" fill-opacity="0.501961" points="238.231508,185.000000,271.000000,166.252331,271.000000,148.269607,219.662107,143.502988" />
<polygon fill="#436495" fill-opacity="0.501961" points="157,64 152,56 148,65" />
<polygon fill="#5a4738" fill-opacity="0.501961" points="14,97 2,119 46,100" />
<g transform="translate(74.638695 65.679619) rotate(196.356176) scale(1.859059 21.420424)"><ellipse fill="#0a0a05" fill-opacity="0.501961" cx="0" cy="0" rx="1" ry="1" /></g>
<polygon fill="#cacccd" fill-opacity="0.501961" points="141.130994,185.000000,152.102678,109.429276,128.930856,149.975787,85.491323,167.075770" />
<polygon fill="#c0bec8" fill-opacity="0.501961" points="39.340231,161.814122,119.132066,85.441363,110.073961,108.102390,114.235680,119.914259" />
<polygon fill="#021421" fill-opacity="0.501961" points="111,44 89,52 102,67" />
<polygon fill="#281a12" fill-opacity="0.501961" points="168,58 170,71 158,56" />
<polygon fill="#ceb7ac" fill-opacity="0.501961" points="203,142 210,126 180,90" />
<polygon fill="#615957" fill-opacity="0.501961" points="145.958758,80.195054,124.625949,44.441897,118.356076,45.701585,129.169640,82.838922" />
<polygon fill="#9ba6b4" fill-opacity="0.501961" points="241,147 209,104 235,105" />
<polygon fill="#1c3d59" fill-opacity="0.501961" points="119.551465,-9.067136,167.422266,11.167613,167.424084,-1.896132,98.819687,2.643614" />
<polygon fill="#bb9d89" fill-opacity="0.501961" points="139,38 148,31 146,56" />
<polygon fill="#d0c3ae" fill-opacity="0.501961" points="59.615145,77.868620,45.121535,75.961499,34.889861,10.417973,27.198643,57.531935" />
<polygon fill="#bcaa9f" fill-opacity="0.501961" points="156.862540,139.466897,173.031919,67.244457,145.728975,150.090536,152.376008,185.000000" />
<polygon fill="#9e8577" fill-opacity="0.501961" points="176.259895,40.054722,187.960193,53.360851,184.385271,67.312700,175.991325,72.715222" />
<g transform="translate(215 136) rotate(207) scale(10 9)"><rect fill="#9f7e5b" fill-opacity="0.501961" x="-0.5" y="-0.5" width="1" height="1" /></g>
<polygon fill="#3c2c21" fill-opacity="0.501961" points="62.807280,83.832598,43.151929,60.224602,60.390297,27.069833,67.092608,33.860243" />
<polygon fill="#d1a995" fill-opacity="0.501961" points="33.603356,85.533022,8.145134,65.912615,-15.463363,45.493777,62.924109,79.694272" />
<polygon fill="#956b4c" fill-opacity="0.501961" points="84.675283,34.151859,120.323299,18.834951,79.680699,11.217859,98.212926,12.315505" />
<rect fill="#392c21" fill-opacity="0.501961" x="175" y="75" width="5" height="28" />
<polygon fill="#cdb4a3" fill-opacity="0.501961" points="199.823054,54.609341,180.496970,41.194373,187.673046,61.670196,169.381040,18.025480" />
<polygon fill="#5a586b" fill-opacity="0.501961" points="112.934345,123.795669,111.694450,97.005368,123.849880,122.914928,136.495822,117.715366" />
<g transform="translate(26.997086 154.659255) rotate(295.179181) scale(7.866859 5.554295)"><ellipse fill="#dbd6bd" fill-opacity="0.501961" cx="0" cy="0" rx="1" ry="1" /></g>
<polygon fill="#957560" fill-opacity="0.501961" points="170.653231,65.337540,163.204514,47.966641,153.483235,49.100317,167.221093,62.159050" />
<rect fill="#194979" fill-opacity="0.501961" x="98" y="54" width="14" height="5" />
<polygon fill="#5e5a60" fill-opacity="0.501961" points="244.459675,139.820323,271.000000,113.301898,271.000000,98.908438,258.277624,146.603975" />
<polygon fill="#879abd" fill-opacity="0.501961" points="147.871316,120.105947,160.009895,121.581732,142.645636,107.248399,141.465685,129.218883" />
<polygon fill="#bba496" fill-opacity="0.501961" points="130.139290,47.934886,119.600925,34.506866,131.961760,13.603192,124.431250,13.145642" />
<polygon fill="#643838" fill-opacity="0.501961" points="180.932810,138.922321,184.077575,139.415051,193.067899,137.944056,210.679881,185.000000" />
<polygon fill="#292f38" fill-opacity="0.501961" points="155,102 158,112 137,104" />
<polygon fill="#8c684e" fill-opacity="0.501961" points="76.689579,59.536936,91.385805,59.706581,105.542989,70.303463,94.353733,86.435271" />
<ellipse fill="#040404" fill-opacity="0.501961" cx="204" cy="23" rx="16" ry="28" />
<g transform="translate(90.100372 104.070136) rotate(349.367033) scale(4.055464 13.797289)"><ellipse fill="#7c90a7" fill-opacity="0.501961" cx="0" cy="0" rx="1" ry="1" /></g>
<rect fill="#d2d0d5" fill-opacity="0.501961" x="158" y="87" width="5" height="22" />
<polygon fill="#906b53" fill-opacity="0.501961" points="36.020686,44.784980,54.734116,26.106714,71.110605,32.844039,92.301254,11.739139" />
<rect fill="#674c3c" fill-opacity="0.501961" x="186" y="48" width="5" height="35" />
<polygon fill="#ab8d7e" fill-opacity="0.501961" points="170.926378,123.486347,164.086724,83.929394,143.678510,77.864235,171.151542,67.983957" />
<polygon fill="#d1bcb2" fill-opacity="0.501961" points="180.861946,24.979349,167.394614,19.725440,128.402146,3.849832,129.287345,13.800826" />
<polygon fill="#d1b358" fill-opacity="0.501961" points="42.206016,166.529862,39.471606,152.855262,40.329957,130.545354,30.806111,139.395762" />
<polygon fill="#5c4738" fill-opacity="0.501961" points="136,56 139,25 118,75" />
<g transform="translate(108 7) rotate(174) scale(49 2)"><rect fill="#dfd8d4" fill-opacity="0.501961" x="-0.5" y="-0.5" width="1" height="1" /></g>
<polygon fill="#caaa9c" fill-opacity="0.501961" points="175,97 179,140 184,118" />
<ellipse fill="#080300" fill-opacity="0.501961" cx="255" cy="26" rx="5" ry="74" />
<polygon fill="#d6e3eb" fill-opacity="0.501961" points="110.908966,95.416151,114.501961,89.079191,115.458153,75.486346,99.322972,85.398117" />
<polygon fill="#73b6b4" fill-opacity="0.501961" points="7.536305,-16.000000,15.454075,54.376121,26.870122,36.477488,7.366779,44.213207" />
<polygon fill="#ccc7bc" fill-opacity="0.501961" points="1,-8 -16,56 9,66" />
<polygon fill="#c6a088" fill-opacity="0.501961" points="127.525041,8.553833,147.016856,15.138941,103.145703,21.972443,106.242857,8.379379" />
<g transform="translate(141.901433 23.639862) rotate(192.536639) scale(13.765431 5.021599)"><ellipse fill="#b58158" fill-opacity="0.501961" cx="0" cy="0" rx="1" ry="1" /></g>
</g>
</svg>