<svg xmlns="http://www.w3.org/2000/svg" version="1.1" width="1024" height="680">
<rect x="0" y="0" width="1024" height="680" fill="#5e5a54" />
<g transform="scale(4.000000) translate(0.5 0.5)">
<g transform="translate(124.117862 80.947275) rotate(238.610778) scale(56.436791 49.753041)"><ellipse fill="#fff5e5" fill-opacity="0.501961" cx="0" cy="0" rx="1" ry="1" /></g>
<g transform="translate(49.265072 105.404895) rotate(255.213364) scale(84.365868 33.387052)"><ellipse fill="#000000" fill-opacity="0.501961" cx="0" cy="0" rx="1" ry="1" /></g>
<g transform="translate(237.085529 69.453443) rotate(359.631234) scale(28.607240 78.254546)"><ellipse fill="#000000" fill-opacity="0.501961" cx="0" cy="0" rx="1" ry="1" /></g>
<g transform="translate(55.678681 0.000000) rotate(-7.055971) scale(168.129785 17.088946)"><ellipse fill="#ffffff" fill-opacity="0.501961" cx="0" cy="0" rx="1" ry="1" /></g>
<g transform="translate(119 106) rotate(236) scale(30 25)"><rect fill="#0d0000" fill-opacity="0.501961" x="-0.5" y="-0.5" width="1" height="1" /></g>
<rect fill="#fffff0" fill-opacity="0.501961" x="68" y="45" width="111" height="20" />
<g transform="translate(44.058872 94.609177) rotate(54.885518) scale(87.417354 22.596800)"><ellipse fill="#000000" fill-opacity="0.501961" cx="0" cy="0" rx="1" ry="1" /></g>
<g transform="translate(219.725093 62.411551) rotate(301.832905) scale(16.909347 84.490950)"><ellipse fill="#000000" fill-opacity="0.501961" cx="0" cy="0" rx="1" ry="1" /></g>
<ellipse fill="#ada39e" fill-opacity="0.501961" cx="137" cy="138" rx="53" ry="27" />
<polygon fill="#ece9e1" fill-opacity="0.501961" points="200.930776,38.067182,218.187562,20.046164,216.284170,-11.269107,187.747988,34.106411" />
<polygon fill="#0c0400" fill-opacity="0.501961" points="149.366349,23.488374,122.533782,41.524786,114.174091,39.230824,99.058381,23.910861" />
<g transform="translate(155.033135 169.000000) rotate(89.034638) scale(35.896110 9.095004)"><ellipse fill="#020000" fill-opacity="0.501961" cx="0" cy="0" rx="1" ry="1" /></g>
<polygon fill="#7d90a1" fill-opacity="0.501961" points="13.991776,70.283174,24.443927,128.344766,10.323812,185.000000,-16.000000,72.149865" />
<polygon fill="#020405" fill-opacity="0.501961" points="169.975247,95.642453,168.470157,84.818258,193.575528,37.178523,271.000000,21.177748" />
<ellipse fill="#000000" fill-opacity="0.501961" cx="48" cy="128" rx="28" ry="86" />
<g transform="translate(190.617088 97.329412) rotate(54.571623) scale(15.826454 30.568629)"><ellipse fill="#a69484" fill-opacity="0.501961" cx="0" cy="0" rx="1" ry="1" /></g>
<polygon fill="#fffdf1" fill-opacity="0.501961" points="144,109 83,37 110,34" />
<polygon fill="#7a5943" fill-opacity="0.501961" points="109.580878,81.305347,104.136373,53.295311,74.625454,56.143265,88.472355,76.943844" />
<g transform="translate(168 63) rotate(299) scale(32 15)"><rect fill="#ffffff" fill-opacity="0.501961" x="-0.5" y="-0.5" width="1" height="1" /></g>
<ellipse fill="#503d21" fill-opacity="0.501961" cx="241" cy="139" rx="51" ry="42" />
<ellipse fill="#000000" fill-opacity="0.501961" cx="134" cy="75" rx="6" ry="6" />
<polygon fill="#fff9e2" fill-opacity="0.501961" points="129.392127,29.837314,127.053163,40.339490,54.949028,51.554925,183.256803,57.582112" />
<g transform="translate(136.976565 137.737740) rotate(16.366451) scale(12.033938 85.402396)"><ellipse fill="#c8bfb2" fill-opacity="0.501961" cx="0" cy="0" rx="1" ry="1" /></g>
<g transform="translate(88.199153 1.424207) rotate(356.621604) scale(44.662919 8.455369)"><ellipse fill="#f0f7f9" fill-opacity="0.501961" cx="0" cy="0" rx="1" ry="1" /></g>
<ellipse fill="#b6b3ad" fill-opacity="0.501961" cx="175" cy="132" rx="10" ry="34" />
<rect fill="#171715" fill-opacity="0.501961" x="154" y="13" width="38" height="34" />
<ellipse fill="#070808" fill-opacity="0.501961" cx="237" cy="55" rx="27" ry="47" />
<polygon fill="#010202" fill-opacity="0.501961" points="19.370076,88.401915,83.367205,74.535809,74.708197,113.254966,36.006737,185.000000" />
<polygon fill="#333030" fill-opacity="0.501961" points="-16,30 75,43 121,6" />
<ellipse fill="#3b1f25" fill-opacity="0.501961" cx="119" cy="106" rx="10" ry="19" />
<ellipse fill="#000000" fill-opacity="0.501961" cx="105" cy="76" rx="6" ry="6" />
<polygon fill="#fcffff" fill-opacity="0.501961" points="150,83 101,78 140,96" />
<g transform="translate(151.363719 111.519165) rotate(11.566124) scale(3.725583 29.734088)"><ellipse fill="#f5f7f1" fill-opacity="0.501961" cx="0" cy="0" rx="1" ry="1" /></g>
<polygon fill="#7f8c8f" fill-opacity="0.501961" points="0.704735,73.205981,9.093258,64.863645,35.508707,175.899817,31.480422,168.725378" />
<polygon fill="#141615" fill-opacity="0.501961" points="179,58 183,101 170,86" />
<g transform="translate(23.272380 11.288331) rotate(81.154986) scale(11.618812 75.015198)"><ellipse fill="#b9c2c7" fill-opacity="0.501961" cx="0" cy="0" rx="1" ry="1" /></g>
<polygon fill="#4a4746" fill-opacity="0.501961" points="236,-16 153,33 67,28" />
<rect fill="#ccc2bc" fill-opacity="0.501961" x="80" y="82" width="30" height="21" />
<polygon fill="#c3bfb5" fill-opacity="0.501961" points="195.952332,12.225135,203.438335,7.636011,186.557468,36.843977,211.585708,34.600847" />
<polygon fill="#ead6c0" fill-opacity="0.501961" points="57,53 142,70 140,37" />
<ellipse fill="#050708" fill-opacity="0.501961" cx="9" cy="55" rx="53" ry="15" />
<polygon fill="#191d20" fill-opacity="0.501961" points="14,118 22,139 16,151" />
<polygon fill="#fdffff" fill-opacity="0.501961" points="143,79 130,104 126,96" />
<rect fill="#3c311f" fill-opacity="0.501961" x="51" y="166" width="120" height="4" />
<polygon fill="#e8eae8" fill-opacity="0.501961" points="86.043931,6.352394,150.084358,3.710968,191.464098,-4.650565,52.839481,-15.291009" />
<ellipse fill="#000000" fill-opacity="0.501961" cx="119" cy="36" rx="8" ry="6" />
<rect fill="#2d2f33" fill-opacity="0.501961" x="213" y="0" width="43" height="7" />
<polygon fill="#ab9078" fill-opacity="0.501961" points="75.830716,57.761476,103.611467,44.331491,96.545224,78.355833,67.483555,78.132276" />
<polygon fill="#1c0f00" fill-opacity="0.501961" points="132.647369,185.000000,154.127769,145.115334,166.417138,165.385685,147.848424,164.339430" />
<g transform="translate(139 38) rotate(251) scale(1 32)"><rect fill="#ffffff" fill-opacity="0.501961" x="-0.5" y="-0.5" width="1" height="1" /></g>
<polygon fill="#968f88" fill-opacity="0.501961" points="98.188653,174.442456,86.388039,185.000000,135.386578,160.287315,135.646183,111.853324" />
<polygon fill="#fffef1" fill-opacity="0.501961" points="57.603308,51.656806,83.448066,44.033115,109.474996,38.123110,131.837043,47.251085" />
<polygon fill="#302c28" fill-opacity="0.501961" points="-2,49 17,22 88,41" />
<g transform="translate(147.705318 53.797203) rotate(69.065671) scale(21.091684 4.009774)"><ellipse fill="#fffff6" fill-opacity="0.501961" cx="0" cy="0" rx="1" ry="1" /></g>
<polygon fill="#181818" fill-opacity="0.501961" points="243,85 190,71 218,14" />
<g transform="translate(13.283106 161.608257) rotate(177.723164) scale(1.750616 97.109175)"><ellipse fill="#a8b0b5" fill-opacity="0.501961" cx="0" cy="0" rx="1" ry="1" /></g>
<polygon fill="#9d7959" fill-opacity="0.501961" points="131.866848,86.674859,145.649385,68.481106,140.470050,57.165031,156.803203,74.450826" />
<g transform="translate(117.174217 95.788422) rotate(323.004202) scale(5.852453 8.606243)"><ellipse fill="#091212" fill-opacity="0.501961" cx="0" cy="0" rx="1" ry="1" /></g>
<polygon fill="#fffffe" fill-opacity="0.501961" points="167.292990,82.074275,171.406146,58.735552,159.591724,68.199901,159.564385,86.191368" />
<polygon fill="#61646a" fill-opacity="0.501961" points="114,161 94,160 82,106" />
<polygon fill="#070809" fill-opacity="0.501961" points="42,108 64,41 -6,49" />
<ellipse fill="#1b0f0c" fill-opacity="0.501961" cx="104" cy="76" rx="6" ry="6" />
<polygon fill="#121413" fill-opacity="0.501961" points="190.998606,17.553805,190.302028,35.650651,193.879916,51.637687,162.944380,46.946050" />
<g transform="translate(83 164) rotate(155) scale(25 56)"><rect fill="#1f1a11" fill-opacity="0.501961" x="-0.5" y="-0.5" width="1" height="1" /></g>
<g transform="translate(252.775691 132.824320) rotate(23.940127) scale(44.743046 35.552583)"><ellipse fill="#483e2e" fill-opacity="0.501961" cx="0" cy="0" rx="1" ry="1" /></g>
<polygon fill="#746b64" fill-opacity="0.501961" points="152.112333,125.672082,150.649256,119.823422,164.419762,111.918310,167.596850,177.058873" />
<polygon fill="#594c3f" fill-opacity="0.501961" points="176.457711,56.507963,195.262899,124.561273,188.963895,136.607713,175.776304,76.617062" />
<polygon fill="#ba9775" fill-opacity="0.501961" points="154,56 163,58 154,91" />
<g transform="translate(160 50) rotate(188) scale(36 7)"><rect fill="#ffffff" fill-opacity="0.501961" x="-0.5" y="-0.5" width="1" height="1" /></g>
<polygon fill="#f2eadb" fill-opacity="0.501961" points="132,57 99,70 102,32" />
<polygon fill="#e7ebec" fill-opacity="0.501961" points="111,74 104,88 146,88" />
<polygon fill="#131415" fill-opacity="0.501961" points="250,39 166,87 190,50" />
<polygon fill="#241916" fill-opacity="0.501961" points="143,70 126,76 139,81" />
<polygon fill="#070606" fill-opacity="0.501961" points="30.355868,151.666717,81.639248,147.813197,85.973474,119.504429,66.508713,63.618100" />
<polygon fill="#765456" fill-opacity="0.501961" points="141.789832,99.124101,130.378993,116.705833,127.056291,123.140823,103.587763,113.080031" />
<polygon fill="#c7c3bc" fill-opacity="0.501961" points="199,7 193,39 219,8" />
<polygon fill="#9f968f" fill-opacity="0.501961" points="116,164 82,107 146,156" />
<polygon fill="#c8bfb3" fill-opacity="0.501961" points="140.832099,49.176242,116.475628,84.222488,94.742066,54.956597,145.522308,74.079970" />
<g transform="translate(19 163) rotate(274) scale(37 1)"><rect fill="#b6c0c6" fill-opacity="0.501961" x="-0.5" y="-0.5" width="1" height="1" /></g>
<g transform="translate(255.000000 45.966596) rotate(119.724700) scale(63.294190 23.197486)"><ellipse fill="#0c0b0b" fill-opacity="0.501961" cx="0" cy="0" rx="1" ry="1" /></g>
<polygon fill="#151616" fill-opacity="0.501961" points="199,12 174,47 148,38" />
<polygon fill="#0c0d09" fill-opacity="0.501961" points="167.140749,31.768863,168.217188,27.122403,160.768763,25.701101,134.933750,31.838374" />
<g transform="translate(142.703946 10.546239) rotate(354.913175) scale(66.077941 6.247634)"><ellipse fill="#525558" fill-opacity="0.501961" cx="0" cy="0" rx="1" ry="1" /></g>
<g transform="translate(84 79) rotate(39) scale(1 33)"><rect fill="#462e1a" fill-opacity="0.501961" x="-0.5" y="-0.5" width="1" height="1" /></g>
<g transform="translate(195.617043 163.848223) rotate(65.528757) scale(9.542143 58.505467)"><ellipse fill="#635840" fill-opacity="0.501961" cx="0" cy="0" rx="1" ry="1" /></g>
<ellipse fill="#303845" fill-opacity="0.501961" cx="0" cy="117" rx="3" ry="19" />
<ellipse fill="#373b3c" fill-opacity="0.501961" cx="14" cy="113" rx="2" ry="21" />
<polygon fill="#ffffea" fill-opacity="0.501961" points="142,46 129,41 127,32" />
<ellipse fill="#a09386" fill-opacity="0.501961" cx="205" cy="90" rx="9" ry="9" />
<g transform="translate(62.294576 4.958413) rotate(87.347402) scale(11.134531 29.070684)"><ellipse fill="#ced0d0" fill-opacity="0.501961" cx="0" cy="0" rx="1" ry="1" /></g>
<ellipse fill="#cecbbf" fill-opacity="0.501961" cx="191" cy="35" rx="2" ry="4" />
<polygon fill="#9f988f" fill-opacity="0.501961" points="173.596351,92.127271,187.603382,123.246664,171.045665,183.082328,158.957595,91.235265" />
<g transform="translate(1.883334 6.477984) rotate(175.125696) scale(13.140404 18.862202)"><ellipse fill="#949aa1" fill-opacity="0.501961" cx="0" cy="0" rx="1" ry="1" /></g>
<polygon fill="#d5c3af" fill-opacity="0.501961" points="79.193372,80.025434,77.354151,69.438457,103.681015,42.361987,88.111512,67.764110" />
<g transform="translate(63 160) rotate(258) scale(20 42)"><rect fill="#2f271c" fill-opacity="0.501961" x="-0.5" y="-0.5" width="1" height="1" /></g>
<polygon fill="#80756b" fill-opacity="0.501961" points="143,160 140,171 115,160" />
<polygon fill="#ffffff" fill-opacity="0.501961" points="94,40 65,52 82,52" />
<rect fill="#eef0e9" fill-opacity="0.501961" x="144" y="112" width="6" height="30" />
<polygon fill="#decfbb" fill-opacity="0.501961" points="120.265844,86.393552,115.691423,57.638309,129.113191,43.360325,147.320109,50.938030" />
<polygon fill="#a59a8e" fill-opacity="0.501961" points="112.459634,105.498056,76.715345,100.126732,81.023497,83.267427,60.858264,53.049683" />
<polygon fill="#30221e" fill-opacity="0.501961" points="152,131 160,131 161,141" />
<ellipse fill="#8e6a4c" fill-opacity="0.501961" cx="82" cy="57" rx="5" ry="5" />
<polygon fill="#edf0ea" fill-opacity="0.501961" points="180.292036,70.303359,163.547151,48.584885,182.740549,52.668793,160.445040,64.643963" />
<polygon fill="#49423b" fill-opacity="0.501961" points="221.568113,-16.000000,202.257113,4.044784,106.094234,34.339988,188.579267,21.516170" />
<polygon fill="#070808" fill-opacity="0.501961" points="77.111607,79.173527,80.098358,90.344288,38.448052,140.078907,1.497496,46.252539" />
<polygon fill="#524433" fill-opacity="0.501961" points="180,159 244,129 212,102" />
<polygon fill="#7b6c59" fill-opacity="0.501961" points="181,138 169,150 188,146" />
<rect fill="#98968b" fill-opacity="0.501961" x="88" y="29" width="12" height="9" />
<rect fill="#fffffc" fill-opacity="0.501961" x="164" y="50" width="8" height="30" />
<polygon fill="#0c1823" fill-opacity="0.501961" points="7.640299,167.213627,22.824936,185.000000,27.269393,165.709367,-16.000000,179.466554" />
<ellipse fill="#362e22" fill-opacity="0.501961" cx="253" cy="145" rx="9" ry="54" />
<g transform="translate(24.254563 134.207883) rotate(347.980036) scale(1.770575 36.084658)"><ellipse fill="#747e7e" fill-opacity="0.501961" cx="0" cy="0" rx="1" ry="1" /></g>
<ellipse fill="#3b3836" fill-opacity="0.501961" cx="243" cy="2" rx="30" ry="10" />
<polygon fill="#161616" fill-opacity="0.501961" points="202.625526,52.750311,271.000000,-16.000000,231.692708,82.376988,172.526582,59.462331" />
<rect fill="#0f0403" fill-opacity="0.501961" x="114" y="119" width="13" height="3" />
<rect fill="#38332e" fill-opacity="0.501961" x="15" y="29" width="69" height="15" />
<ellipse fill="#97a1aa" fill-opacity="0.501961" cx="9" cy="108" rx="2" ry="42" />
<polygon fill="#c3bbb5" fill-opacity="0.501961" points="81,108 91,75 112,95" />
<polygon fill="#c9c2b4" fill-opacity="0.501961" points="136.632208,88.559579,145.137258,71.386999,138.252361,71.063732,163.592579,89.375145" />
<polygon fill="#505960" fill-opacity="0.501961" points="9.124081,126.936712,3.851621,117.000315,23.001637,133.443484,21.481097,127.353553" />
<polygon fill="#997556" fill-opacity="0.501961" points="150.916725,81.414908,144.443749,64.071942,156.852007,76.436434,154.576471,81.339222" />
<polygon fill="#a6a099" fill-opacity="0.501961" points="162.107662,79.677858,190.283686,133.162415,166.245349,149.780697,178.032442,96.338374" />
<g transform="translate(175 73) rotate(102) scale(1 12)"><rect fill="#1a2122" fill-opacity="0.501961" x="-0.5" y="-0.5" width="1" height="1" /></g>
<rect fill="#483719" fill-opacity="0.501961" x="142" y="165" width="33" height="5" />
<polygon fill="#fdf7e6" fill-opacity="0.501961" points="115.898346,51.822890,97.225890,29.822487,109.105561,35.107073,122.830744,49.726725" />
<ellipse fill="#b8b1a7" fill-opacity="0.501961" cx="202" cy="24" rx="8" ry="13" />
<polygon fill="#816d5b" fill-opacity="0.501961" points="191,121 185,72 205,112" />
<polygon fill="#30393f" fill-opacity="0.501961" points="18.667309,109.863396,17.286922,166.903273,14.536373,142.387545,22.647750,159.419817" />
<polygon fill="#fff8e7" fill-opacity="0.501961" points="161.016857,74.622736,151.200713,68.564679,131.126735,33.274991,150.711914,50.612798" />
<polygon fill="#9399a2" fill-opacity="0.501961" points="-4,172 11,156 6,150" />
<polygon fill="#edbc82" fill-opacity="0.501961" points="138,44 145,59 128,45" />
<polygon fill="#4d453d" fill-opacity="0.501961" points="127.169244,32.828325,62.923287,23.854584,175.029135,17.077205,143.959052,30.178926" />
<ellipse fill="#181c28" fill-opacity="0.501961" cx="5" cy="138" rx="4" ry="3" />
<polygon fill="#57595f" fill-opacity="0.501961" points="85,126 91,156 104,139" />
<polygon fill="#171717" fill-opacity="0.501961" points="256,27 190,38 173,82" />
<polygon fill="#615c56" fill-opacity="0.501961" points="180.281406,89.241412,180.595075,80.176721,200.661334,70.961208,203.817807,77.229852" />
<rect fill="#202329" fill-opacity="0.501961" x="9" y="151" width="8" height="3" />
<rect fill="#faf4e5" fill-opacity="0.501961" x="63" y="51" width="18" height="4" />
<rect fill="#434947" fill-opacity="0.501961" x="65" y="55" width="4" height="11" />
<polygon fill="#17100d" fill-opacity="0.501961" points="112,90 125,92 119,110" />
<polygon fill="#111110" fill-opacity="0.501961" points="50.901722,39.639708,74.501697,47.248108,26.845863,48.080216,64.199366,125.551162" />
<polygon fill="#e4edef" fill-opacity="0.501961" points="124,55 140,56 124,70" />
<g transform="translate(68.877670 24.943871) rotate(168.755754) scale(54.521260 4.488149)"><ellipse fill="#4f4d4e" fill-opacity="0.501961" cx="0" cy="0" rx="1" ry="1" /></g>
<polygon fill="#846247" fill-opacity="0.501961" points="82,80 94,71 97,55" />
<g transform="translate(95 41) rotate(41) scale(10 5)"><rect fill="#ffffff" fill-opacity="0.501961" x="-0.5" y="-0.5" width="1" height="1" /></g>
<polygon fill="#f4f9f9" fill-opacity="0.501961" points="133,102 140,96 125,73" />
<rect fill="#0d0e0f" fill-opacity="0.501961" x="216" y="16" width="40" height="12" />
<g transform="translate(157 58) rotate(42) scale(13 1)"><rect fill="#9b693e" fill-opacity="0.501961" x="-0.5" y="-0.5" width="1" height="1" /></g>
<polygon fill="#151411" fill-opacity="0.501961" points="92.428365,157.584426,80.913912,128.274334,87.199690,185.000000,109.677497,185.000000" />
<polygon fill="#0a0a09" fill-opacity="0.501961" points="221.594401,100.702285,271.000000,85.476137,258.734811,42.191664,209.880816,103.713639" />
<ellipse fill="#151d28" fill-opacity="0.501961" cx="1" cy="74" rx="5" ry="2" />
<g transform="translate(126 168) rotate(189) scale(7 9)"><rect fill="#352f2c" fill-opacity="0.501961" x="-0.5" y="-0.5" width="1" height="1" /></g>
<polygon fill="#7d585b" fill-opacity="0.501961" points="111.657566,89.821427,112.579500,111.269484,131.012638,119.230213,109.697013,120.463027" />
<ellipse fill="#1b1313" fill-opacity="0.501961" cx="136" cy="75" rx="5" ry="5" />
<rect fill="#00081e" fill-opacity="0.501961" x="0" y="151" width="3" height="8" />
<polygon fill="#37302c" fill-opacity="0.501961" points="126,119 138,102 130,108" />
<polygon fill="#fefffb" fill-opacity="0.501961" points="174.390990,57.808172,184.230366,55.070512,136.722399,41.809055,147.822634,52.136421" />
<polygon fill="#eaeded" fill-opacity="0.501961" points="166,-16 122,4 207,-6" />
<polygon fill="#6f6b6f" fill-opacity="0.501961" points="166.147129,123.554185,170.268762,127.124392,157.764291,153.855266,159.333130,137.877351" />
<ellipse fill="#bfbdb5" fill-opacity="0.501961" cx="143" cy="117" rx="3" ry="43" />
<g transform="translate(5 109) rotate(338) scale(4 4)"><rect fill="#17222d" fill-opacity="0.501961" x="-0.5" y="-0.5" width="1" height="1" /></g>
<polygon fill="#fffffa" fill-opacity="0.501961" points="148,129 141,126 150,115" />
<polygon fill="#a2978d" fill-opacity="0.501961" points="149.483730,116.166290,179.054517,95.410467,186.661698,111.092209,161.762639,130.251078" />
<rect fill="#7a6c5b" fill-opacity="0.501961" x="125" y="73" width="4" height="3" />
<polygon fill="#101e28" fill-opacity="0.501961" points="22.121398,141.085747,33.785169,183.830269,14.648739,160.511674,24.664463,185.000000" />
<polygon fill="#888f92" fill-opacity="0.501961" points="24.691234,172.036258,8.281358,154.469417,10.540419,174.789410,21.738913,163.856676" />
<g transform="translate(219.371172 141.955167) rotate(254.387798) scale(1.359461 31.893533)"><ellipse fill="#302a18" fill-opacity="0.501961" cx="0" cy="0" rx="1" ry="1" /></g>
<g transform="translate(158 90) rotate(292) scale(39 1)"><rect fill="#fefdf3" fill-opacity="0.501961" x="-0.5" y="-0.5" width="1" height="1" /></g>
<ellipse fill="#171110" fill-opacity="0.501961" cx="103" cy="75" rx="5" ry="5" />
<polygon fill="#a6aeb7" fill-opacity="0.501961" points="163,139 177,127 167,151" />
<polygon fill="#6a514a" fill-opacity="0.501961" points="117.992860,115.115036,111.725570,94.147375,114.225505,124.538504,97.588231,96.165820" />
<polygon fill="#9a8f86" fill-opacity="0.501961" points="128.381141,165.468814,139.186785,185.000000,140.683139,146.172653,85.441035,114.853672" />
<polygon fill="#303232" fill-opacity="0.501961" points="16,40 55,19 3,25" />
<ellipse fill="#030e19" fill-opacity="0.501961" cx="4" cy="93" rx="2" ry="2" />
<g transform="translate(176.412632 91.423478) rotate(46.621109) scale(14.064761 1.000000)"><ellipse fill="#272622" fill-opacity="0.501961" cx="0" cy="0" rx="1" ry="1" /></g>
<polygon fill="#f7f2e5" fill-opacity="0.501961" points="109.013866,39.389175,91.188558,30.890953,118.156181,50.272324,106.387328,33.821928" />
<polygon fill="#44464b" fill-opacity="0.501961" points="215.034025,-16.000000,212.503447,6.673796,212.081877,7.726943,255.436742,0.118919" />
<rect fill="#040405" fill-opacity="0.501961" x="34" y="102" width="48" height="35" />
<polygon fill="#020506" fill-opacity="0.501961" points="7.967273,35.342912,36.014127,185.000000,46.370680,185.000000,33.934688,108.688858" />
<polygon fill="#1e1403" fill-opacity="0.501961" points="156.780669,166.543710,162.880281,157.854855,145.678875,150.414437,150.331907,165.532679" />
</g>
</svg>