<svg xmlns="http://www.w3.org/2000/svg" version="1.1" width="1024" height="680">
<rect x="0" y="0" width="1024" height="680" fill="#5e5a54" />
<g transform="scale(4.000000) translate(0.5 0.5)">
<g transform="translate(129.831475 85.637337) rotate(139.309525) scale(49.894493 64.994852)"><ellipse fill="#faecdd" fill-opacity="0.501961" cx="0" cy="0" rx="1" ry="1" /></g>
<g transform="translate(52.839526 119.774827) rotate(166.770096) scale(31.380303 101.904628)"><ellipse fill="#000000" fill-opacity="0.501961" cx="0" cy="0" rx="1" ry="1" /></g>
<g transform="translate(60.971240 2.883505) rotate(81.992182) scale(14.039468 152.166898)"><ellipse fill="#ffffff" fill-opacity="0.501961" cx="0" cy="0" rx="1" ry="1" /></g>
<g transform="translate(232.265206 63.590855) rotate(50.946626) scale(43.997121 70.757551)"><ellipse fill="#000000" fill-opacity="0.501961" cx="0" cy="0" rx="1" ry="1" /></g>
<polygon fill="#fffffe" fill-opacity="0.501961" points="177,47 170,78 58,44" />
<g transform="translate(193.500748 99.642646) rotate(308.151668) scale(30.761592 16.346302)"><ellipse fill="#b8a592" fill-opacity="0.501961" cx="0" cy="0" rx="1" ry="1" /></g>
<g transform="translate(52.260744 110.091742) rotate(-11.695616) scale(30.439634 73.453320)"><ellipse fill="#000000" fill-opacity="0.501961" cx="0" cy="0" rx="1" ry="1" /></g>
<polygon fill="#260d0f" fill-opacity="0.501961" points="140.416689,110.685608,111.387760,131.490096,109.517696,71.151708,81.681066,63.055371" />
<rect fill="#fcf8ef" fill-opacity="0.501961" x="197" y="8" width="17" height="27" />
<ellipse fill="#b3aca7" fill-opacity="0.501961" cx="119" cy="144" rx="29" ry="22" />
<ellipse fill="#000000" fill-opacity="0.501961" cx="170" cy="30" rx="19" ry="19" />
<g transform="translate(240.553610 53.662003) rotate(355.785911) scale(33.476166 50.856445)"><ellipse fill="#000000" fill-opacity="0.501961" cx="0" cy="0" rx="1" ry="1" /></g>
<polygon fill="#000000" fill-opacity="0.501961" points="112.261343,37.411855,122.595076,43.147568,134.920075,24.351998,100.067437,25.083622" />
<g transform="translate(26.309002 57.035308) rotate(123.251524) scale(18.773812 64.418950)"><ellipse fill="#000000" fill-opacity="0.501961" cx="0" cy="0" rx="1" ry="1" /></g>
<ellipse fill="#453217" fill-opacity="0.501961" cx="240" cy="141" rx="49" ry="46" />
<polygon fill="#b7ada0" fill-opacity="0.501961" points="131,38 193,136 170,168" />
<g transform="translate(117.618566 52.137075) rotate(360.254572) scale(59.825594 10.462310)"><ellipse fill="#fff1d6" fill-opacity="0.501961" cx="0" cy="0" rx="1" ry="1" /></g>
<g transform="translate(156.430885 151.911906) rotate(93.773185) scale(31.079173 8.353082)"><ellipse fill="#24180d" fill-opacity="0.501961" cx="0" cy="0" rx="1" ry="1" /></g>
<polygon fill="#f1f5f2" fill-opacity="0.501961" points="150,128 157,96 103,59" />
<ellipse fill="#8498ac" fill-opacity="0.501961" cx="6" cy="126" rx="8" ry="57" />
<polygon fill="#312f2e" fill-opacity="0.501961" points="-4.258821,26.687203,48.623400,64.001058,119.612260,5.852623,55.546568,18.299555" />
<ellipse fill="#000000" fill-opacity="0.501961" cx="136" cy="76" rx="7" ry="6" />
<ellipse fill="#f9feff" fill-opacity="0.501961" cx="99" cy="0" rx="63" ry="5" />
<g transform="translate(119 102) rotate(97) scale(25 12)"><rect fill="#0a0000" fill-opacity="0.501961" x="-0.5" y="-0.5" width="1" height="1" /></g>
<polygon fill="#fffded" fill-opacity="0.501961" points="125,31 181,53 163,82" />
<polygon fill="#fbf5e7" fill-opacity="0.501961" points="139.818333,102.516414,109.263433,33.739444,103.590422,32.832241,87.522186,37.332768" />
<polygon fill="#000000" fill-opacity="0.501961" points="-16.000000,87.087718,5.995105,65.845433,111.134290,185.000000,8.240121,31.261334" />
<g transform="translate(86 65) rotate(164) scale(37 23)"><rect fill="#a78e77" fill-opacity="0.501961" x="-0.5" y="-0.5" width="1" height="1" /></g>
<polygon fill="#000204" fill-opacity="0.501961" points="24.560484,185.000000,20.160431,133.398256,39.747136,184.851106,67.789206,14.384838" />
<polygon fill="#f1f2f2" fill-opacity="0.501961" points="104,92 85,82 127,80" />
<polygon fill="#040709" fill-opacity="0.501961" points="171,91 214,49 186,34" />
<polygon fill="#d1cec4" fill-opacity="0.501961" points="202,36 217,-8 189,31" />
<polygon fill="#434040" fill-opacity="0.501961" points="170,32 49,30 230,-16" />
<ellipse fill="#999591" fill-opacity="0.501961" cx="170" cy="128" rx="14" ry="38" />
<ellipse fill="#d3dade" fill-opacity="0.501961" cx="60" cy="6" rx="39" ry="8" />
<polygon fill="#b6aca0" fill-opacity="0.501961" points="79.758498,108.043574,122.998581,130.637217,166.166190,42.757826,139.491249,175.580030" />
<polygon fill="#151615" fill-opacity="0.501961" points="196.559230,7.587871,154.993327,31.983130,154.448621,46.746926,186.926483,50.763482" />
<polygon fill="#674646" fill-opacity="0.501961" points="114.291528,122.780310,101.296166,101.495482,143.864291,103.461569,143.205525,105.160377" />
<polygon fill="#e5e6de" fill-opacity="0.501961" points="141,113 161,78 143,159" />
<polygon fill="#010201" fill-opacity="0.501961" points="16,71 38,185 83,76" />
<g transform="translate(142 38) rotate(161) scale(29 1)"><rect fill="#ffffff" fill-opacity="0.501961" x="-0.5" y="-0.5" width="1" height="1" /></g>
<polygon fill="#25231e" fill-opacity="0.501961" points="166,83 180,75 188,108" />
<polygon fill="#060000" fill-opacity="0.501961" points="100,81 113,76 99,71" />
<g transform="translate(23.769495 130.798755) rotate(168.611633) scale(1.499245 60.493798)"><ellipse fill="#73858c" fill-opacity="0.501961" cx="0" cy="0" rx="1" ry="1" /></g>
<polygon fill="#e2ddd3" fill-opacity="0.501961" points="72.578515,60.568892,95.536302,107.170347,62.498837,47.732827,86.957972,46.379536" />
<ellipse fill="#8f8479" fill-opacity="0.501961" cx="199" cy="87" rx="19" ry="12" />
<g transform="translate(243 0) rotate(288) scale(28 54)"><rect fill="#242425" fill-opacity="0.501961" x="-0.5" y="-0.5" width="1" height="1" /></g>
<polygon fill="#a5774b" fill-opacity="0.501961" points="160,78 142,58 144,77" />
<polygon fill="#281d0b" fill-opacity="0.501961" points="189.459222,185.000000,146.005382,141.980198,149.481663,185.000000,144.060629,159.137176" />
<polygon fill="#25201a" fill-opacity="0.501961" points="48,51 88,42 58,28" />
<ellipse fill="#16110a" fill-opacity="0.501961" cx="118" cy="33" rx="8" ry="8" />
<ellipse fill="#4c3e2e" fill-opacity="0.501961" cx="253" cy="126" rx="67" ry="27" />
<polygon fill="#2c251a" fill-opacity="0.501961" points="91.813291,145.333400,38.404493,154.990033,52.913936,185.000000,106.467973,185.000000" />
<ellipse fill="#ffffff" fill-opacity="0.501961" cx="171" cy="54" rx="12" ry="5" />
<polygon fill="#bcb3ad" fill-opacity="0.501961" points="106,80 78,95 95,132" />
<polygon fill="#fffff6" fill-opacity="0.501961" points="76.138386,52.975811,121.764259,45.237147,105.611564,34.365458,63.723310,51.958512" />
<g transform="translate(95.459862 144.471844) rotate(-26.061604) scale(7.620965 20.590921)"><ellipse fill="#565a62" fill-opacity="0.501961" cx="0" cy="0" rx="1" ry="1" /></g>
<polygon fill="#9fa9b0" fill-opacity="0.501961" points="15.564957,152.387462,16.344892,180.933937,10.854546,185.000000,9.052385,85.889783" />
<polygon fill="#c1bcb3" fill-opacity="0.501961" points="187,36 211,30 220,5" />
<polygon fill="#f3f9f9" fill-opacity="0.501961" points="151,85 135,96 109,77" />
<rect fill="#968e86" fill-opacity="0.501961" x="108" y="130" width="37" height="34" />
<ellipse fill="#0e0f10" fill-opacity="0.501961" cx="227" cy="55" rx="30" ry="30" />
<g transform="translate(15.615716 5.606947) rotate(172.993461) scale(58.052595 18.698419)"><ellipse fill="#acb5bb" fill-opacity="0.501961" cx="0" cy="0" rx="1" ry="1" /></g>
<polygon fill="#b78f69" fill-opacity="0.501961" points="163.080298,57.854392,162.186122,66.592374,151.805541,58.558422,155.126527,52.514746" />
<polygon fill="#ebdac2" fill-opacity="0.501961" points="137.851902,31.789876,144.517889,54.096070,89.393160,76.141655,113.116571,48.310515" />
<ellipse fill="#383e48" fill-opacity="0.501961" cx="0" cy="138" rx="3" ry="40" />
<polygon fill="#332823" fill-opacity="0.501961" points="151.336791,136.347572,155.427436,133.551108,168.345549,126.690689,139.951700,185.000000" />
<g transform="translate(207.332043 169.000000) rotate(276.292292) scale(64.162344 24.223680)"><ellipse fill="#5f523d" fill-opacity="0.501961" cx="0" cy="0" rx="1" ry="1" /></g>
<ellipse fill="#9aa7ac" fill-opacity="0.501961" cx="10" cy="98" rx="3" ry="28" />
<polygon fill="#ffffee" fill-opacity="0.501961" points="147,42 109,47 143,32" />
<polygon fill="#362e23" fill-opacity="0.501961" points="253,180 232,115 271,77" />
<g transform="translate(44.023767 72.966019) rotate(164.617451) scale(26.033347 29.929056)"><ellipse fill="#0c0c0d" fill-opacity="0.501961" cx="0" cy="0" rx="1" ry="1" /></g>
<polygon fill="#926e4f" fill-opacity="0.501961" points="92.767747,73.803923,92.584410,81.678303,102.184225,43.993860,77.432853,88.692275" />
<polygon fill="#f6faf5" fill-opacity="0.501961" points="161.266783,46.013320,172.556726,79.391624,157.435334,88.166577,178.011522,49.394046" />
<rect fill="#feffff" fill-opacity="0.501961" x="18" y="151" width="2" height="14" />
<polygon fill="#dadcda" fill-opacity="0.501961" points="119,5 33,16 80,-16" />
<ellipse fill="#020202" fill-opacity="0.501961" cx="56" cy="122" rx="30" ry="26" />
<polygon fill="#55524e" fill-opacity="0.501961" points="152.058261,4.446661,116.787319,6.558264,14.778072,30.018189,137.744066,33.017190" />
<polygon fill="#c2bcb1" fill-opacity="0.501961" points="156.364161,93.146177,139.258494,129.733830,136.285129,88.712508,145.341857,67.451801" />
<polygon fill="#070a0b" fill-opacity="0.501961" points="124.055071,103.690171,111.967919,100.078148,111.029947,93.552687,124.595152,90.277387" />
<polygon fill="#a49b91" fill-opacity="0.501961" points="150.508679,127.028058,190.529765,139.610628,173.101131,89.218561,149.600823,114.382174" />
<rect fill="#12110e" fill-opacity="0.501961" x="133" y="26" width="58" height="6" />
<g transform="translate(14.540873 120.728537) rotate(176.718661) scale(1.000000 67.330044)"><ellipse fill="#2f3a41" fill-opacity="0.501961" cx="0" cy="0" rx="1" ry="1" /></g>
<g transform="translate(202 102) rotate(202) scale(9 37)"><rect fill="#9c8977" fill-opacity="0.501961" x="-0.5" y="-0.5" width="1" height="1" /></g>
<rect fill="#000001" fill-opacity="0.501961" x="3" y="165" width="6" height="5" />
<polygon fill="#d5cfc5" fill-opacity="0.501961" points="119,55 148,54 104,91" />
<rect fill="#000000" fill-opacity="0.501961" x="114" y="120" width="14" height="3" />
<ellipse fill="#393533" fill-opacity="0.501961" cx="33" cy="33" rx="39" ry="11" />
<polygon fill="#070605" fill-opacity="0.501961" points="225.864102,97.846962,204.309518,109.054485,271.000000,32.997403,261.269417,91.342809" />
<g transform="translate(133 78) rotate(39) scale(14 5)"><rect fill="#3e2f27" fill-opacity="0.501961" x="-0.5" y="-0.5" width="1" height="1" /></g>
<g transform="translate(93 56) rotate(126) scale(39 4)"><rect fill="#e6d1b6" fill-opacity="0.501961" x="-0.5" y="-0.5" width="1" height="1" /></g>
<g transform="translate(204.043763 19.643024) rotate(302.934929) scale(22.326612 7.902980)"><ellipse fill="#acaaa4" fill-opacity="0.501961" cx="0" cy="0" rx="1" ry="1" /></g>
<polygon fill="#8b6443" fill-opacity="0.501961" points="81,62 89,51 75,56" />
<g transform="translate(164.634898 19.867638) rotate(259.982526) scale(6.706306 31.501869)"><ellipse fill="#4a423b" fill-opacity="0.501961" cx="0" cy="0" rx="1" ry="1" /></g>
<ellipse fill="#8a877a" fill-opacity="0.501961" cx="95" cy="31" rx="6" ry="6" />
<polygon fill="#adb7bf" fill-opacity="0.501961" points="171.191465,153.537907,173.747077,141.025927,172.022754,130.004962,163.417954,142.291368" />
<polygon fill="#dbd4c9" fill-opacity="0.501961" points="77.830876,61.113960,73.721905,43.102001,68.576660,44.456916,77.949896,78.238666" />
<ellipse fill="#ffffff" fill-opacity="0.501961" cx="146" cy="126" rx="5" ry="5" />
<polygon fill="#1c1413" fill-opacity="0.501961" points="132.364916,69.337144,130.104035,76.932385,135.386763,80.080632,142.958012,76.326962" />
<g transform="translate(184.569073 99.849082) rotate(347.638902) scale(3.232590 23.134343)"><ellipse fill="#5c4f45" fill-opacity="0.501961" cx="0" cy="0" rx="1" ry="1" /></g>
<g transform="translate(229 0) rotate(17) scale(29 23)"><rect fill="#393838" fill-opacity="0.501961" x="-0.5" y="-0.5" width="1" height="1" /></g>
<g transform="translate(22 150) rotate(344) scale(3 26)"><rect fill="#000f1f" fill-opacity="0.501961" x="-0.5" y="-0.5" width="1" height="1" /></g>
<polygon fill="#0b0b0b" fill-opacity="0.501961" points="89.412409,185.000000,99.168702,167.231788,23.556527,98.431182,67.507837,53.507209" />
<polygon fill="#7d5757" fill-opacity="0.501961" points="100.376575,98.729760,123.504014,113.751735,129.992116,116.418329,110.002254,119.489449" />
<polygon fill="#bab4aa" fill-opacity="0.501961" points="153.545847,101.919932,111.767794,131.098687,108.078988,119.036050,138.470353,135.031542" />
<polygon fill="#050606" fill-opacity="0.501961" points="60,41 6,51 35,140" />
<g transform="translate(217.860895 141.614283) rotate(252.450508) scale(2.897963 34.679541)"><ellipse fill="#363020" fill-opacity="0.501961" cx="0" cy="0" rx="1" ry="1" /></g>
<g transform="translate(215 52) rotate(293) scale(48 25)"><rect fill="#181818" fill-opacity="0.501961" x="-0.5" y="-0.5" width="1" height="1" /></g>
<polygon fill="#231704" fill-opacity="0.501961" points="163.063592,165.303560,150.340551,167.688928,135.783587,172.295417,157.464319,150.775850" />
<polygon fill="#ddbc95" fill-opacity="0.501961" points="129.333372,49.110442,132.391003,40.899058,119.051162,21.016321,155.748367,73.981916" />
<g transform="translate(154 50) rotate(191) scale(23 8)"><rect fill="#ffffff" fill-opacity="0.501961" x="-0.5" y="-0.5" width="1" height="1" /></g>
<polygon fill="#191a1a" fill-opacity="0.501961" points="238.839676,45.002437,179.102230,73.771487,169.550304,71.690508,177.402645,82.015412" />
<polygon fill="#8c938c" fill-opacity="0.501961" points="180.161264,66.406714,166.188737,73.955297,185.725122,53.795889,173.336773,59.214406" />
<rect fill="#a5abab" fill-opacity="0.501961" x="171" y="151" width="11" height="11" />
<rect fill="#10110c" fill-opacity="0.501961" x="114" y="32" width="13" height="9" />
<g transform="translate(135 92) rotate(114) scale(17 10)"><rect fill="#f5fafb" fill-opacity="0.501961" x="-0.5" y="-0.5" width="1" height="1" /></g>
<polygon fill="#728084" fill-opacity="0.501961" points="18.620245,128.039653,32.470100,170.601293,27.375565,140.589491,13.514680,86.408086" />
<polygon fill="#6f5655" fill-opacity="0.501961" points="110.006860,117.344735,145.516614,95.487275,126.586038,120.972640,106.971483,103.108707" />
<g transform="translate(164.333760 127.561432) rotate(90.613040) scale(12.144300 5.538821)"><ellipse fill="#7e7674" fill-opacity="0.501961" cx="0" cy="0" rx="1" ry="1" /></g>
<polygon fill="#978e87" fill-opacity="0.501961" points="115.643315,158.946567,115.392153,172.705428,141.835789,144.018602,82.101355,111.750865" />
<g transform="translate(193.993347 169.000000) rotate(238.026663) scale(14.899051 34.818987)"><ellipse fill="#685d46" fill-opacity="0.501961" cx="0" cy="0" rx="1" ry="1" /></g>
<g transform="translate(12 152) rotate(118) scale(2 8)"><rect fill="#232930" fill-opacity="0.501961" x="-0.5" y="-0.5" width="1" height="1" /></g>
<polygon fill="#a7988b" fill-opacity="0.501961" points="76,65 70,75 87,78" />
<polygon fill="#fef5e3" fill-opacity="0.501961" points="109.559575,58.271428,126.161165,47.089656,110.606041,38.714784,97.555107,27.493690" />
<g transform="translate(156 93) rotate(107) scale(61 4)"><rect fill="#f2f0e4" fill-opacity="0.501961" x="-0.5" y="-0.5" width="1" height="1" /></g>
<polygon fill="#151616" fill-opacity="0.501961" points="170.809592,30.856131,187.099355,62.718209,208.515107,37.248498,149.064801,41.826932" />
<polygon fill="#252934" fill-opacity="0.501961" points="7,139 -5,140 7,134" />
<g transform="translate(104.574355 73.247813) rotate(386.201327) scale(3.248074 1.886874)"><ellipse fill="#000101" fill-opacity="0.501961" cx="0" cy="0" rx="1" ry="1" /></g>
<polygon fill="#c5b3a2" fill-opacity="0.501961" points="78,94 102,82 89,75" />
<g transform="translate(148 35) rotate(252) scale(1 12)"><rect fill="#fbfbeb" fill-opacity="0.501961" x="-0.5" y="-0.5" width="1" height="1" /></g>
<polygon fill="#f5f6ef" fill-opacity="0.501961" points="82.603945,37.655804,106.295781,37.694504,60.615163,52.881728,99.599518,46.977359" />
<polygon fill="#4b4239" fill-opacity="0.501961" points="194.441501,14.357690,119.340201,19.674175,68.509742,30.047650,135.169411,31.148231" />
<g transform="translate(209.206687 12.426599) rotate(185.430607) scale(1.651462 24.914116)"><ellipse fill="#bab7b0" fill-opacity="0.501961" cx="0" cy="0" rx="1" ry="1" /></g>
<polygon fill="#4f4c48" fill-opacity="0.501961" points="67.472979,24.305288,54.993713,82.215253,69.778317,14.884985,101.479890,39.679946" />
<rect fill="#00070e" fill-opacity="0.501961" x="0" y="50" width="18" height="19" />
<polygon fill="#8a8c93" fill-opacity="0.501961" points="9.204513,156.681285,-11.583837,128.426580,2.831452,130.422189,3.653062,167.375638" />
<g transform="translate(68 60) rotate(81) scale(9 6)"><rect fill="#7d8483" fill-opacity="0.501961" x="-0.5" y="-0.5" width="1" height="1" /></g>
<rect fill="#a4b0b7" fill-opacity="0.501961" x="7" y="71" width="4" height="28" />
<polygon fill="#aaaead" fill-opacity="0.501961" points="150.624395,135.633503,140.119088,144.473802,147.479135,158.382573,142.397236,162.660910" />
<g transform="translate(158.397104 63.270471) rotate(79.172310) scale(6.729085 1.878331)"><ellipse fill="#a88363" fill-opacity="0.501961" cx="0" cy="0" rx="1" ry="1" /></g>
<ellipse fill="#a89e92" fill-opacity="0.501961" cx="173" cy="109" rx="10" ry="16" />
<ellipse fill="#2e3440" fill-opacity="0.501961" cx="8" cy="123" rx="3" ry="3" />
<g transform="translate(123 86) rotate(195) scale(31 5)"><rect fill="#f3f6f6" fill-opacity="0.501961" x="-0.5" y="-0.5" width="1" height="1" /></g>
<ellipse fill="#0f1a23" fill-opacity="0.501961" cx="4" cy="110" rx="3" ry="3" />
<polygon fill="#010506" fill-opacity="0.501961" points="176,79 168,82 175,90" />
<polygon fill="#bdb4a5" fill-opacity="0.501961" points="126.021954,123.289023,148.684987,105.595414,163.744677,66.981749,134.449472,109.688882" />
<g transform="translate(0.000000 8.694343) rotate(75.961842) scale(17.695491 10.873514)"><ellipse fill="#939aa0" fill-opacity="0.501961" cx="0" cy="0" rx="1" ry="1" /></g>
<ellipse fill="#000609" fill-opacity="0.501961" cx="114" cy="91" rx="3" ry="4" />
<polygon fill="#c9b9a7" fill-opacity="0.501961" points="91.344196,62.318564,115.970369,76.122166,120.255935,46.149714,129.421973,80.236693" />
<polygon fill="#6a6560" fill-opacity="0.501961" points="109,153 92,150 113,184" />
<polygon fill="#7b583f" fill-opacity="0.501961" points="146,70 155,78 147,65" />
<g transform="translate(193.620632 76.444137) rotate(347.511728) scale(11.006857 3.528879)"><ellipse fill="#504d48" fill-opacity="0.501961" cx="0" cy="0" rx="1" ry="1" /></g>
<polygon fill="#788081" fill-opacity="0.501961" points="28.864117,18.387850,41.569350,17.431035,50.706744,18.615499,31.500695,22.355136" />
<polygon fill="#e0e1e0" fill-opacity="0.501961" points="69,-16 117,6 165,-1" />
<rect fill="#141515" fill-opacity="0.501961" x="160" y="25" width="24" height="22" />
<polygon fill="#55575a" fill-opacity="0.501961" points="145.102527,3.139901,55.867774,29.784215,188.501961,10.903964,211.117371,-0.239174" />
<g transform="translate(189 28) rotate(206) scale(2 37)"><rect fill="#0f100e" fill-opacity="0.501961" x="-0.5" y="-0.5" width="1" height="1" /></g>
<polygon fill="#0f0f0e" fill-opacity="0.501961" points="210.027337,100.920823,271.000000,40.485282,252.659042,-10.005752,226.107518,100.091947" />
<polygon fill="#7b5d45" fill-opacity="0.501961" points="96,59 95,71 80,80" />
<polygon fill="#d2cec5" fill-opacity="0.501961" points="142,78 159,87 135,86" />
</g>
</svg>