<svg xmlns="http://www.w3.org/2000/svg" version="1.1" width="1024" height="680">
<rect x="0" y="0" width="1024" height="680" fill="#939188" />
<g transform="scale(4.000000) translate(0.5 0.5)">
<ellipse fill="#070503" fill-opacity="0.501961" cx="99" cy="153" rx="28" ry="147" />
<g transform="translate(172.713916 73.066028) rotate(78.678644) scale(96.178298 51.953935)"><ellipse fill="#e4e1d4" fill-opacity="0.501961" cx="0" cy="0" rx="1" ry="1" /></g>
<g transform="translate(255.000000 80.250770) rotate(215.371503) scale(17.045535 28.520205)"><ellipse fill="#000000" fill-opacity="0.501961" cx="0" cy="0" rx="1" ry="1" /></g>
<rect fill="#0f0d0c" fill-opacity="0.501961" x="23" y="46" width="94" height="25" />
<rect fill="#c9c9c2" fill-opacity="0.501961" x="0" y="81" width="108" height="38" />
<polygon fill="#000000" fill-opacity="0.501961" points="138.688645,169.075479,128.275302,130.789320,72.283479,152.591582,64.602999,185.000000" />
<polygon fill="#464a49" fill-opacity="0.501961" points="83,146 59,84 89,8" />
<g transform="translate(43.855401 114.905737) rotate(74.979049) scale(45.320851 23.313214)"><ellipse fill="#d2cac0" fill-opacity="0.501961" cx="0" cy="0" rx="1" ry="1" /></g>
<g transform="translate(142.767090 124.317462) rotate(111.059175) scale(18.035768 20.634956)"><ellipse fill="#d9d5c9" fill-opacity="0.501961" cx="0" cy="0" rx="1" ry="1" /></g>
<g transform="translate(40 61) rotate(286) scale(21 21)"><rect fill="#000000" fill-opacity="0.501961" x="-0.5" y="-0.5" width="1" height="1" /></g>
<polygon fill="#040601" fill-opacity="0.501961" points="116,18 109,90 96,24" />
<polygon fill="#c8c6bc" fill-opacity="0.501961" points="16,36 51,9 102,41" />
<ellipse fill="#ccd7d9" fill-opacity="0.501961" cx="57" cy="67" rx="7" ry="14" />
<polygon fill="#000000" fill-opacity="0.501961" points="271,114 235,94 271,35" />
<g transform="translate(249.103402 2.293525) rotate(98.173836) scale(24.634437 99.588209)"><ellipse fill="#707263" fill-opacity="0.501961" cx="0" cy="0" rx="1" ry="1" /></g>
<g transform="translate(237.491373 169.000000) rotate(135.289927) scale(110.821275 15.389379)"><ellipse fill="#5a5a4d" fill-opacity="0.501961" cx="0" cy="0" rx="1" ry="1" /></g>
<ellipse fill="#c9c5bb" fill-opacity="0.501961" cx="162" cy="153" rx="27" ry="134" />
<polygon fill="#bdb8ad" fill-opacity="0.501961" points="36,43 -16,109 19,25" />
<polygon fill="#211711" fill-opacity="0.501961" points="43.442293,36.874509,24.482266,57.211429,16.610265,79.868855,59.160980,48.247162" />
<ellipse fill="#cccbbf" fill-opacity="0.501961" cx="137" cy="42" rx="24" ry="24" />
<ellipse fill="#adaaa0" fill-opacity="0.501961" cx="116" cy="7" rx="80" ry="9" />
<g transform="translate(73 140) rotate(274) scale(32 22)"><rect fill="#9a827f" fill-opacity="0.501961" x="-0.5" y="-0.5" width="1" height="1" /></g>
<g transform="translate(200.823235 143.354346) rotate(410.487835) scale(20.261281 51.756011)"><ellipse fill="#a4a097" fill-opacity="0.501961" cx="0" cy="0" rx="1" ry="1" /></g>
<ellipse fill="#a6b0b3" fill-opacity="0.501961" cx="98" cy="102" rx="15" ry="15" />
<g transform="translate(81 26) rotate(223) scale(14 5)"><rect fill="#000000" fill-opacity="0.501961" x="-0.5" y="-0.5" width="1" height="1" /></g>
<ellipse fill="#160900" fill-opacity="0.501961" cx="119" cy="166" rx="16" ry="41" />
<g transform="translate(114 114) rotate(330) scale(20 8)"><rect fill="#000000" fill-opacity="0.501961" x="-0.5" y="-0.5" width="1" height="1" /></g>
<g transform="translate(73 74) rotate(204) scale(10 20)"><rect fill="#050a0c" fill-opacity="0.501961" x="-0.5" y="-0.5" width="1" height="1" /></g>
<g transform="translate(100.428129 168.643693) rotate(181.381759) scale(6.739945 15.837467)"><ellipse fill="#8b7f73" fill-opacity="0.501961" cx="0" cy="0" rx="1" ry="1" /></g>
<polygon fill="#1e1f15" fill-opacity="0.501961" points="123.661380,85.052534,117.303253,50.877402,104.755507,76.841142,126.010313,112.001741" />
<g transform="translate(13.829287 0.000000) rotate(139.700363) scale(80.254350 12.156587)"><ellipse fill="#58564b" fill-opacity="0.501961" cx="0" cy="0" rx="1" ry="1" /></g>
<g transform="translate(220.136747 44.372276) rotate(147.056922) scale(25.080340 38.567056)"><ellipse fill="#a9a99d" fill-opacity="0.501961" cx="0" cy="0" rx="1" ry="1" /></g>
<polygon fill="#5f605c" fill-opacity="0.501961" points="71.607260,49.911255,110.055912,58.299731,104.304307,39.995901,41.001684,43.367388" />
<polygon fill="#4d5348" fill-opacity="0.501961" points="250.565746,17.912953,250.506304,85.371444,267.940610,-16.000000,200.193480,-15.058877" />
<g transform="translate(0.000000 169.000000) rotate(311.880376) scale(21.500508 76.198024)"><ellipse fill="#6a6355" fill-opacity="0.501961" cx="0" cy="0" rx="1" ry="1" /></g>
<ellipse fill="#bab3a9" fill-opacity="0.501961" cx="39" cy="129" rx="37" ry="18" />
<rect fill="#cccbbf" fill-opacity="0.501961" x="124" y="42" width="77" height="58" />
<polygon fill="#342d27" fill-opacity="0.501961" points="102.978532,127.541963,71.047363,138.741624,105.445988,160.878037,68.819614,104.723384" />
<polygon fill="#161816" fill-opacity="0.501961" points="108,5 91,38 115,33" />
<polygon fill="#a1a5a4" fill-opacity="0.501961" points="103,78 75,78 93,124" />
<g transform="translate(87 162) rotate(292) scale(36 11)"><rect fill="#000000" fill-opacity="0.501961" x="-0.5" y="-0.5" width="1" height="1" /></g>
<g transform="translate(148.660115 122.194708) rotate(182.257789) scale(24.377485 27.097866)"><ellipse fill="#c5c2b6" fill-opacity="0.501961" cx="0" cy="0" rx="1" ry="1" /></g>
<polygon fill="#a8a499" fill-opacity="0.501961" points="17,25 -16,77 39,46" />
<polygon fill="#c3c2b7" fill-opacity="0.501961" points="26.252228,116.851474,65.672759,146.071704,52.707041,81.852722,24.812173,66.730067" />
<polygon fill="#13100b" fill-opacity="0.501961" points="48.307646,44.902381,16.170578,78.437059,18.932802,85.844009,25.805676,57.520676" />
<g transform="translate(175.787039 37.492397) rotate(295.700303) scale(17.677669 76.815444)"><ellipse fill="#b7b6ab" fill-opacity="0.501961" cx="0" cy="0" rx="1" ry="1" /></g>
<polygon fill="#c2c9c7" fill-opacity="0.501961" points="73,26 43,40 93,32" />
<polygon fill="#b16c64" fill-opacity="0.501961" points="65,135 85,158 73,130" />
<g transform="translate(71 80) rotate(258) scale(9 12)"><rect fill="#020f14" fill-opacity="0.501961" x="-0.5" y="-0.5" width="1" height="1" /></g>
<polygon fill="#000606" fill-opacity="0.501961" points="236.389161,99.684827,242.836973,101.099687,271.000000,100.090169,271.000000,39.463954" />
<g transform="translate(108 30) rotate(198) scale(16 21)"><rect fill="#0f0e09" fill-opacity="0.501961" x="-0.5" y="-0.5" width="1" height="1" /></g>
<g transform="translate(100 124) rotate(180) scale(7 34)"><rect fill="#80766c" fill-opacity="0.501961" x="-0.5" y="-0.5" width="1" height="1" /></g>
<polygon fill="#9f9d91" fill-opacity="0.501961" points="195,-9 271,57 119,-4" />
<polygon fill="#52524e" fill-opacity="0.501961" points="95.551445,85.230043,98.706913,45.108767,74.597633,31.976121,84.468380,81.981724" />
<polygon fill="#13120e" fill-opacity="0.501961" points="121.091766,90.266606,120.671863,71.219674,106.895029,53.555593,91.740251,64.902316" />
<polygon fill="#c6c4b9" fill-opacity="0.501961" points="121.960439,24.269846,208.237165,52.136608,123.140888,75.162822,114.051039,40.483450" />
<g transform="translate(63.100816 20.036611) rotate(136.215867) scale(27.017645 9.863732)"><ellipse fill="#bab2a7" fill-opacity="0.501961" cx="0" cy="0" rx="1" ry="1" /></g>
<polygon fill="#0d0704" fill-opacity="0.501961" points="118.806688,124.424408,107.994732,168.965138,139.865848,174.451112,104.847256,129.780987" />
<g transform="translate(140.187962 117.039525) rotate(253.164898) scale(9.479902 21.235426)"><ellipse fill="#c7c3b7" fill-opacity="0.501961" cx="0" cy="0" rx="1" ry="1" /></g>
<polygon fill="#586061" fill-opacity="0.501961" points="108.589485,10.405155,105.225583,9.474965,101.275798,33.308282,73.980210,16.138493" />
<polygon fill="#808275" fill-opacity="0.501961" points="247.049879,47.239077,225.495919,95.938261,271.000000,31.860811,185.267619,-16.000000" />
<g transform="translate(205.151241 164.598344) rotate(334.451935) scale(50.653534 11.879981)"><ellipse fill="#8f8b80" fill-opacity="0.501961" cx="0" cy="0" rx="1" ry="1" /></g>
<polygon fill="#0e0f0a" fill-opacity="0.501961" points="34,51 19,81 20,65" />
<polygon fill="#a8a398" fill-opacity="0.501961" points="-16.000000,141.408570,7.700600,121.126380,33.782684,14.660372,15.150687,27.959346" />
<polygon fill="#3c3934" fill-opacity="0.501961" points="63.900469,53.572861,88.879618,44.933359,96.096106,76.829043,77.717890,76.720786" />
<rect fill="#afaca3" fill-opacity="0.501961" x="212" y="33" width="18" height="102" />
<rect fill="#667578" fill-opacity="0.501961" x="59" y="148" width="15" height="22" />
<g transform="translate(39.697533 59.079128) rotate(248.308717) scale(9.621394 14.922550)"><ellipse fill="#150804" fill-opacity="0.501961" cx="0" cy="0" rx="1" ry="1" /></g>
<polygon fill="#595b53" fill-opacity="0.501961" points="113.248350,97.703641,122.277325,120.145718,102.812383,79.946494,127.321071,95.352592" />
<g transform="translate(58 71) rotate(305) scale(24 18)"><rect fill="#949996" fill-opacity="0.501961" x="-0.5" y="-0.5" width="1" height="1" /></g>
<polygon fill="#54544b" fill-opacity="0.501961" points="257.967505,147.486099,220.232053,185.000000,264.610989,185.000000,246.240745,73.572268" />
<polygon fill="#c5c4b9" fill-opacity="0.501961" points="56,68 68,110 34,133" />
<polygon fill="#394c4d" fill-opacity="0.501961" points="233,76 232,98 251,74" />
<polygon fill="#9e9c92" fill-opacity="0.501961" points="39.574559,173.259851,70.843190,149.783131,-14.564265,120.558837,65.334759,185.000000" />
<polygon fill="#43413b" fill-opacity="0.501961" points="94.557647,153.068495,96.853401,134.849474,83.697903,108.238104,71.733085,113.168974" />
<polygon fill="#84827e" fill-opacity="0.501961" points="62.836989,98.245164,77.890042,122.830321,63.725295,122.632638,89.556047,87.563233" />
<polygon fill="#888f8f" fill-opacity="0.501961" points="98.930150,70.715144,95.155837,122.884407,114.197614,106.200754,109.971678,93.726049" />
<polygon fill="#272722" fill-opacity="0.501961" points="121,69 91,29 104,12" />
<polygon fill="#5d6253" fill-opacity="0.501961" points="246,108 235,102 268,101" />
<polygon fill="#535a49" fill-opacity="0.501961" points="139.584806,163.865882,124.303319,124.617936,121.233954,145.395819,133.911633,144.371989" />
<polygon fill="#c4c8c5" fill-opacity="0.501961" points="98,95 89,115 89,83" />
<polygon fill="#14120d" fill-opacity="0.501961" points="119,98 128,107 109,119" />
<polygon fill="#a8a298" fill-opacity="0.501961" points="83.233831,-16.000000,156.251603,-16.000000,82.993092,15.814033,1.646891,39.341008" />
<polygon fill="#2d1e16" fill-opacity="0.501961" points="59.247292,50.028645,27.640795,55.442048,50.884821,79.572672,44.146633,52.579038" />
<polygon fill="#909895" fill-opacity="0.501961" points="99.863614,160.550735,100.024500,185.000000,105.609134,185.000000,82.305706,185.000000" />
<polygon fill="#b5b1a6" fill-opacity="0.501961" points="47,148 13,127 26,67" />
<polygon fill="#000000" fill-opacity="0.501961" points="82,29 75,20 96,30" />
<polygon fill="#b2b1a8" fill-opacity="0.501961" points="3.514697,97.044054,18.222045,51.968310,32.811283,35.492099,34.671900,40.167287" />
<polygon fill="#bbb9af" fill-opacity="0.501961" points="38.999320,36.751416,79.016513,35.283927,75.446152,18.099748,121.379545,-16.000000" />
<g transform="translate(168.461471 139.147589) rotate(156.758946) scale(32.857080 18.090439)"><ellipse fill="#bcb9af" fill-opacity="0.501961" cx="0" cy="0" rx="1" ry="1" /></g>
<polygon fill="#140a03" fill-opacity="0.501961" points="104.820297,148.284901,76.009288,179.281901,78.297905,161.796274,117.574493,127.853873" />
<polygon fill="#5c6061" fill-opacity="0.501961" points="76.634501,80.980393,57.869159,84.042732,85.444799,107.456052,84.439291,99.652640" />
<polygon fill="#575959" fill-opacity="0.501961" points="105,102 100,93 114,106" />
<g transform="translate(41.772124 43.663933) rotate(291.027600) scale(4.957499 8.817544)"><ellipse fill="#57554c" fill-opacity="0.501961" cx="0" cy="0" rx="1" ry="1" /></g>
<polygon fill="#949895" fill-opacity="0.501961" points="81.586427,112.481043,57.939139,90.886375,52.777134,78.607665,87.279365,116.283911" />
<polygon fill="#a3abab" fill-opacity="0.501961" points="85,32 90,29 97,46" />
<polygon fill="#5b5c58" fill-opacity="0.501961" points="75,66 57,46 69,76" />
<g transform="translate(37.556285 0.000000) rotate(54.715074) scale(6.526571 82.259435)"><ellipse fill="#878277" fill-opacity="0.501961" cx="0" cy="0" rx="1" ry="1" /></g>
<polygon fill="#111e1f" fill-opacity="0.501961" points="250,87 271,37 252,58" />
<polygon fill="#df7b77" fill-opacity="0.501961" points="65.575267,117.597572,69.802999,139.590343,62.511098,128.818046,64.198171,114.534610" />
<polygon fill="#30241b" fill-opacity="0.501961" points="90,121 91,143 98,123" />
<g transform="translate(126 28) rotate(346) scale(15 38)"><rect fill="#c0beb2" fill-opacity="0.501961" x="-0.5" y="-0.5" width="1" height="1" /></g>
<polygon fill="#72797a" fill-opacity="0.501961" points="108.152334,6.872848,89.115263,13.923754,83.495699,17.662087,85.158015,24.932436" />
<polygon fill="#c3beb3" fill-opacity="0.501961" points="163.995678,143.989873,120.851572,121.585066,105.273718,127.944726,129.310346,115.095461" />
<polygon fill="#73695d" fill-opacity="0.501961" points="90.536392,140.265029,106.904757,126.606410,99.591838,101.145564,107.243799,139.609146" />
<polygon fill="#060500" fill-opacity="0.501961" points="116,33 116,26 109,19" />
<polygon fill="#8f897c" fill-opacity="0.501961" points="46.122506,177.757758,5.988239,128.144247,-12.311228,133.917302,37.856168,185.000000" />
<polygon fill="#bbc3c2" fill-opacity="0.501961" points="55.499882,47.171706,56.052609,38.775650,76.585651,37.028682,71.820270,26.554234" />
<polygon fill="#95968d" fill-opacity="0.501961" points="70.256536,133.752259,66.551533,98.764144,79.875665,156.348784,84.944107,157.791658" />
<polygon fill="#676863" fill-opacity="0.501961" points="87.284393,133.683527,66.568361,136.925223,90.140712,120.758239,95.957834,119.743635" />
<polygon fill="#615d53" fill-opacity="0.501961" points="8.912836,163.593891,21.643053,178.161137,-9.978488,175.112921,-16.000000,139.272675" />
<g transform="translate(198.490420 154.135645) rotate(245.289534) scale(8.506031 29.113735)"><ellipse fill="#a6a29a" fill-opacity="0.501961" cx="0" cy="0" rx="1" ry="1" /></g>
<polygon fill="#331813" fill-opacity="0.501961" points="87.856315,155.464286,105.555379,155.916449,106.954968,135.074167,134.515907,143.031746" />
<g transform="translate(3.624581 3.492633) rotate(232.244713) scale(5.606322 24.700349)"><ellipse fill="#56584e" fill-opacity="0.501961" cx="0" cy="0" rx="1" ry="1" /></g>
<polygon fill="#62664f" fill-opacity="0.501961" points="137.917206,160.895658,135.672441,154.215154,130.817396,132.871633,137.677843,185.000000" />
<polygon fill="#21201a" fill-opacity="0.501961" points="78,110 77,125 85,119" />
<polygon fill="#b2b1a6" fill-opacity="0.501961" points="113.138082,0.938926,109.313533,16.199326,120.305164,23.726781,196.322041,12.298116" />
<polygon fill="#cdcabe" fill-opacity="0.501961" points="120,53 168,69 131,117" />
<polygon fill="#787a76" fill-opacity="0.501961" points="54.758706,60.604831,94.380164,36.139375,69.017095,39.011701,73.618033,43.481113" />
<polygon fill="#616460" fill-opacity="0.501961" points="90.309090,65.611332,100.533836,50.584561,93.352745,33.648897,89.355861,66.636119" />
<rect fill="#a0c6c4" fill-opacity="0.501961" x="79" y="144" width="5" height="3" />
<polygon fill="#afb3b0" fill-opacity="0.501961" points="90,97 100,119 89,120" />
<polygon fill="#4e585b" fill-opacity="0.501961" points="110,14 98,12 107,4" />
<polygon fill="#a0a3a0" fill-opacity="0.501961" points="105.780789,109.486841,99.453988,77.892485,108.644000,97.785525,75.276624,107.025228" />
<polygon fill="#2f2b24" fill-opacity="0.501961" points="78.421169,152.085739,93.158706,154.951152,84.222835,152.994244,103.072524,118.260422" />
<polygon fill="#555848" fill-opacity="0.501961" points="112.463388,37.761934,111.980148,49.769561,102.666780,51.429230,119.015423,57.242380" />
<polygon fill="#1f2822" fill-opacity="0.501961" points="83.298037,137.652296,83.016697,146.095010,93.963598,151.313961,70.799244,132.770513" />
<polygon fill="#818174" fill-opacity="0.501961" points="247.716433,104.828470,271.000000,106.241153,193.839047,183.816866,271.000000,133.501744" />
<g transform="translate(81 155) rotate(248) scale(1 3)"><rect fill="#fcffff" fill-opacity="0.501961" x="-0.5" y="-0.5" width="1" height="1" /></g>
<g transform="translate(30 70) rotate(270) scale(1 12)"><rect fill="#bdb9a3" fill-opacity="0.501961" x="-0.5" y="-0.5" width="1" height="1" /></g>
<polygon fill="#747472" fill-opacity="0.501961" points="74,74 84,84 91,79" />
<polygon fill="#201a16" fill-opacity="0.501961" points="101.981431,115.515354,108.198938,122.513852,122.654847,117.294768,119.539210,112.025487" />
<polygon fill="#4f5147" fill-opacity="0.501961" points="259.321856,-5.342669,262.195792,20.904003,236.816444,-4.385857,235.336749,-1.727723" />
<polygon fill="#10100b" fill-opacity="0.501961" points="78.226979,24.722211,116.317981,36.839518,115.337395,21.204854,109.404699,41.653436" />
<polygon fill="#030000" fill-opacity="0.501961" points="86,185 77,154 93,163" />
<g transform="translate(72 140) rotate(57) scale(26 1)"><rect fill="#c34640" fill-opacity="0.501961" x="-0.5" y="-0.5" width="1" height="1" /></g>
<polygon fill="#5d594f" fill-opacity="0.501961" points="115,173 95,152 94,162" />
<polygon fill="#3c3a36" fill-opacity="0.501961" points="79.935884,67.887602,64.566822,73.485872,77.039539,50.060018,103.655570,75.905155" />
<polygon fill="#545f56" fill-opacity="0.501961" points="254,54 247,75 247,57" />
<polygon fill="#aaa79d" fill-opacity="0.501961" points="227.270588,72.335373,209.679654,146.934585,234.889538,132.413242,235.350574,141.633832" />
<polygon fill="#35322d" fill-opacity="0.501961" points="73.311493,150.477496,93.079796,151.258205,79.063012,148.668828,72.187389,173.566635" />
<polygon fill="#413e38" fill-opacity="0.501961" points="71,102 79,128 86,124" />
<polygon fill="#9fa5a3" fill-opacity="0.501961" points="56,52 48,75 66,69" />
<g transform="translate(126 106) rotate(172) scale(2 11)"><rect fill="#464334" fill-opacity="0.501961" x="-0.5" y="-0.5" width="1" height="1" /></g>
<polygon fill="#61615b" fill-opacity="0.501961" points="53.558076,40.342014,67.697212,66.780812,67.531617,52.547822,54.485428,57.307426" />
<polygon fill="#272620" fill-opacity="0.501961" points="120.490608,85.675465,86.560767,48.315153,99.663821,65.909133,105.217091,84.391116" />
<g transform="translate(238 10) rotate(309) scale(9 75)"><rect fill="#717266" fill-opacity="0.501961" x="-0.5" y="-0.5" width="1" height="1" /></g>
<polygon fill="#b6b4b0" fill-opacity="0.501961" points="74.716280,132.573200,77.669054,127.058250,41.376745,119.514185,78.740141,130.840501" />
<g transform="translate(164.209459 169.000000) rotate(29.384727) scale(20.506489 23.209082)"><ellipse fill="#aea9a0" fill-opacity="0.501961" cx="0" cy="0" rx="1" ry="1" /></g>
<ellipse fill="#a7a69e" fill-opacity="0.501961" cx="90" cy="2" rx="6" ry="15" />
<g transform="translate(30.422782 20.439910) rotate(321.162021) scale(52.077754 7.725212)"><ellipse fill="#9c968b" fill-opacity="0.501961" cx="0" cy="0" rx="1" ry="1" /></g>
<rect fill="#000000" fill-opacity="0.501961" x="248" y="85" width="8" height="15" />
<polygon fill="#b5b0a5" fill-opacity="0.501961" points="12.287517,106.200164,23.980458,41.005580,7.021394,94.153906,27.978793,73.211211" />
<polygon fill="#6c6f60" fill-opacity="0.501961" points="230.398509,89.400905,240.106152,100.908902,233.780053,102.768563,234.116608,106.374830" />
<polygon fill="#6c7071" fill-opacity="0.501961" points="72.381897,156.741626,60.699002,185.000000,74.660501,143.879335,65.153624,137.876065" />
<g transform="translate(44 72) rotate(325) scale(1 13)"><rect fill="#514a37" fill-opacity="0.501961" x="-0.5" y="-0.5" width="1" height="1" /></g>
<polygon fill="#687279" fill-opacity="0.501961" points="102,93 110,111 115,107" />
<polygon fill="#080602" fill-opacity="0.501961" points="83.284105,169.919346,92.169734,184.269251,92.794537,152.596175,84.404021,142.439410" />
<polygon fill="#c6c4b9" fill-opacity="0.501961" points="114.472137,37.088976,121.474832,65.060763,192.506952,64.173711,181.009069,37.289136" />
<polygon fill="#030000" fill-opacity="0.501961" points="47,65 37,69 53,50" />
<g transform="translate(100 83) rotate(77) scale(15 4)"><rect fill="#a3a8a7" fill-opacity="0.501961" x="-0.5" y="-0.5" width="1" height="1" /></g>
<polygon fill="#62140f" fill-opacity="0.501961" points="108,146 109,140 119,134" />
<ellipse fill="#897e6d" fill-opacity="0.501961" cx="107" cy="125" rx="5" ry="2" />
<polygon fill="#33302c" fill-opacity="0.501961" points="80,55 75,85 71,48" />
<polygon fill="#c5c1b6" fill-opacity="0.501961" points="60.755041,101.181212,41.094538,69.447841,23.447587,91.064496,64.234692,136.084550" />
<polygon fill="#2d2d24" fill-opacity="0.501961" points="141.098923,185.000000,119.889183,120.772377,124.522808,126.802307,115.612077,135.194789" />
<g transform="translate(3 115) rotate(63) scale(76 11)"><rect fill="#9f9b8f" fill-opacity="0.501961" x="-0.5" y="-0.5" width="1" height="1" /></g>
<ellipse fill="#c7c4b9" fill-opacity="0.501961" cx="161" cy="106" rx="34" ry="19" />
<polygon fill="#0f0b09" fill-opacity="0.501961" points="103.816921,167.205684,108.854046,163.403015,128.587794,177.655626,116.914939,134.307400" />
<ellipse fill="#797e7d" fill-opacity="0.501961" cx="86" cy="94" rx="4" ry="4" />
<polygon fill="#8d9597" fill-opacity="0.501961" points="69.200543,153.094363,61.266586,185.000000,64.679067,136.460706,66.106287,134.263707" />
<polygon fill="#2a2926" fill-opacity="0.501961" points="79.981048,66.144095,107.165402,74.919112,115.507043,66.738345,62.309210,78.695572" />
<g transform="translate(77 129) rotate(323) scale(1 29)"><rect fill="#818a88" fill-opacity="0.501961" x="-0.5" y="-0.5" width="1" height="1" /></g>
<polygon fill="#9b9a8e" fill-opacity="0.501961" points="210.494660,-1.744894,237.442264,64.468208,224.742446,90.462811,248.937397,57.822282" />
<polygon fill="#515552" fill-opacity="0.501961" points="98.139175,32.336990,70.671262,17.079295,118.975318,36.834437,79.694376,15.728610" />
<g transform="translate(95.289808 78.121871) rotate(6.206305) scale(3.741904 4.267903)"><ellipse fill="#4a4b47" fill-opacity="0.501961" cx="0" cy="0" rx="1" ry="1" /></g>
<polygon fill="#a8afb0" fill-opacity="0.501961" points="59.492722,126.912518,67.570752,145.665576,58.547068,150.622646,44.326960,137.939620" />
<ellipse fill="#030300" fill-opacity="0.501961" cx="111" cy="134" rx="4" ry="4" />
<rect fill="#4e433b" fill-opacity="0.501961" x="100" y="120" width="12" height="4" />
<polygon fill="#49423d" fill-opacity="0.501961" points="98.070132,107.965616,106.725708,120.363638,85.285974,143.402579,107.224745,114.835003" />
</g>
</svg>