<svg xmlns="http://www.w3.org/2000/svg" version="1.1" width="1024" height="680">
<rect x="0" y="0" width="1024" height="680" fill="#939188" />
<g transform="scale(4.000000) translate(0.5 0.5)">
<g transform="translate(101.168060 169.000000) rotate(362.496988) scale(34.465241 58.255342)"><ellipse fill="#000000" fill-opacity="0.501961" cx="0" cy="0" rx="1" ry="1" /></g>
<g transform="translate(160.634151 85.331177) rotate(170.856585) scale(36.924598 135.420892)"><ellipse fill="#e9e6d9" fill-opacity="0.501961" cx="0" cy="0" rx="1" ry="1" /></g>
<g transform="translate(94.503483 81.429749) rotate(87.120073) scale(69.586139 28.618992)"><ellipse fill="#252726" fill-opacity="0.501961" cx="0" cy="0" rx="1" ry="1" /></g>
<polygon fill="#000000" fill-opacity="0.501961" points="234.336095,101.882673,229.841994,80.816142,262.024930,48.069232,263.771673,111.982980" />
<polygon fill="#000000" fill-opacity="0.501961" points="27.296860,53.887495,64.705058,37.745143,45.811724,73.633717,20.800500,69.629009" />
<g transform="translate(37.487908 113.250813) rotate(258.822116) scale(30.154305 77.025534)"><ellipse fill="#c4c0b9" fill-opacity="0.501961" cx="0" cy="0" rx="1" ry="1" /></g>
<ellipse fill="#cac6bb" fill-opacity="0.501961" cx="194" cy="85" rx="40" ry="72" />
<ellipse fill="#000000" fill-opacity="0.501961" cx="106" cy="47" rx="10" ry="37" />
<polygon fill="#060000" fill-opacity="0.501961" points="83.845151,146.192253,67.233886,185.000000,140.105573,177.733858,127.569562,134.112010" />
<polygon fill="#d2d3ca" fill-opacity="0.501961" points="93,32 55,45 29,13" />
<ellipse fill="#393b3a" fill-opacity="0.501961" cx="77" cy="84" rx="11" ry="43" />
<g transform="translate(118.031684 95.424339) rotate(173.279425) scale(7.422777 25.240083)"><ellipse fill="#16150d" fill-opacity="0.501961" cx="0" cy="0" rx="1" ry="1" /></g>
<g transform="translate(43.569136 105.171767) rotate(338.247875) scale(19.378126 36.784882)"><ellipse fill="#d6d0c4" fill-opacity="0.501961" cx="0" cy="0" rx="1" ry="1" /></g>
<g transform="translate(39 59) rotate(39) scale(20 27)"><rect fill="#010000" fill-opacity="0.501961" x="-0.5" y="-0.5" width="1" height="1" /></g>
<g transform="translate(249.585503 12.780255) rotate(40.868356) scale(75.005771 15.261411)"><ellipse fill="#525748" fill-opacity="0.501961" cx="0" cy="0" rx="1" ry="1" /></g>
<polygon fill="#000000" fill-opacity="0.501961" points="249.441737,71.171920,233.559187,98.428703,266.619300,106.122381,259.753336,47.185728" />
<g transform="translate(249.907923 160.121444) rotate(262.945255) scale(16.857818 98.598530)"><ellipse fill="#7a766c" fill-opacity="0.501961" cx="0" cy="0" rx="1" ry="1" /></g>
<rect fill="#a3abab" fill-opacity="0.501961" x="80" y="79" width="25" height="36" />
<g transform="translate(79.792984 58.045115) rotate(23.133997) scale(44.117811 7.602931)"><ellipse fill="#2b2823" fill-opacity="0.501961" cx="0" cy="0" rx="1" ry="1" /></g>
<polygon fill="#cfccc0" fill-opacity="0.501961" points="110.904738,37.792429,121.543567,68.419156,139.755046,167.139792,170.717472,30.203459" />
<g transform="translate(111 34) rotate(105) scale(24 10)"><rect fill="#000000" fill-opacity="0.501961" x="-0.5" y="-0.5" width="1" height="1" /></g>
<g transform="translate(5.855398 9.032690) rotate(51.345284) scale(10.895398 61.454466)"><ellipse fill="#59584d" fill-opacity="0.501961" cx="0" cy="0" rx="1" ry="1" /></g>
<rect fill="#a89e98" fill-opacity="0.501961" x="22" y="131" width="61" height="27" />
<g transform="translate(92.552156 0.000000) rotate(152.939612) scale(116.487562 12.171061)"><ellipse fill="#b6b0a5" fill-opacity="0.501961" cx="0" cy="0" rx="1" ry="1" /></g>
<g transform="translate(99.857326 167.717018) rotate(270.051643) scale(11.760260 6.633576)"><ellipse fill="#928e80" fill-opacity="0.501961" cx="0" cy="0" rx="1" ry="1" /></g>
<polygon fill="#0a0901" fill-opacity="0.501961" points="25.423356,58.681814,17.116431,76.478978,17.665030,84.845981,29.557562,64.402148" />
<g transform="translate(192.684782 146.668571) rotate(56.753820) scale(22.604347 58.973130)"><ellipse fill="#ada89f" fill-opacity="0.501961" cx="0" cy="0" rx="1" ry="1" /></g>
<polygon fill="#493f34" fill-opacity="0.501961" points="114,140 76,142 77,108" />
<polygon fill="#2a2f2f" fill-opacity="0.501961" points="58.339339,81.678492,79.965590,116.980667,66.387466,94.526319,89.452483,59.431898" />
<g transform="translate(11.420396 160.651535) rotate(239.921257) scale(80.275115 14.435384)"><ellipse fill="#787163" fill-opacity="0.501961" cx="0" cy="0" rx="1" ry="1" /></g>
<g transform="translate(129 128) rotate(150) scale(8 26)"><rect fill="#dddac8" fill-opacity="0.501961" x="-0.5" y="-0.5" width="1" height="1" /></g>
<g transform="translate(162.343707 9.894927) rotate(24.116504) scale(90.480052 17.425270)"><ellipse fill="#a8a79b" fill-opacity="0.501961" cx="0" cy="0" rx="1" ry="1" /></g>
<g transform="translate(7 76) rotate(115) scale(82 15)"><rect fill="#bbb6ab" fill-opacity="0.501961" x="-0.5" y="-0.5" width="1" height="1" /></g>
<g transform="translate(219.477475 57.148944) rotate(204.611536) scale(31.083066 18.828358)"><ellipse fill="#b5b4a9" fill-opacity="0.501961" cx="0" cy="0" rx="1" ry="1" /></g>
<polygon fill="#857a6c" fill-opacity="0.501961" points="106.867064,124.202709,129.613519,114.018132,93.783642,142.395242,102.187594,106.456425" />
<g transform="translate(252.634445 155.270655) rotate(26.759789) scale(12.509138 56.516368)"><ellipse fill="#5d5d51" fill-opacity="0.501961" cx="0" cy="0" rx="1" ry="1" /></g>
<polygon fill="#050501" fill-opacity="0.501961" points="109.164488,43.849483,112.256596,35.821441,78.907038,22.503757,75.533658,23.919333" />
<rect fill="#100000" fill-opacity="0.501961" x="106" y="127" width="17" height="41" />
<polygon fill="#030400" fill-opacity="0.501961" points="70.080677,148.545026,72.027483,146.406298,77.369593,185.000000,93.942546,164.859842" />
<polygon fill="#0d0d06" fill-opacity="0.501961" points="88,53 120,59 119,90" />
<ellipse fill="#c8c4b9" fill-opacity="0.501961" cx="35" cy="81" rx="12" ry="12" />
<polygon fill="#aeafa9" fill-opacity="0.501961" points="55.758097,9.913173,72.033558,51.224691,84.622333,40.617124,100.000960,44.513627" />
<ellipse fill="#c6c4b9" fill-opacity="0.501961" cx="172" cy="83" rx="49" ry="49" />
<polygon fill="#000000" fill-opacity="0.501961" points="117,20 113,31 104,17" />
<g transform="translate(115.400187 114.066406) rotate(-39.370679) scale(16.371737 3.851614)"><ellipse fill="#120d08" fill-opacity="0.501961" cx="0" cy="0" rx="1" ry="1" /></g>
<rect fill="#7f8280" fill-opacity="0.501961" x="66" y="85" width="19" height="24" />
<rect fill="#c3c8c6" fill-opacity="0.501961" x="89" y="90" width="7" height="28" />
<ellipse fill="#b5b3a8" fill-opacity="0.501961" cx="118" cy="0" rx="12" ry="21" />
<g transform="translate(52.060342 85.621458) rotate(205.279941) scale(6.917985 23.564228)"><ellipse fill="#bfc2bc" fill-opacity="0.501961" cx="0" cy="0" rx="1" ry="1" /></g>
<polygon fill="#827c7d" fill-opacity="0.501961" points="68.361095,129.277286,73.853073,97.269510,71.257399,176.895494,52.371055,185.000000" />
<polygon fill="#41403c" fill-opacity="0.501961" points="61,58 93,81 103,40" />
<polygon fill="#cc5f57" fill-opacity="0.501961" points="74,134 61,125 81,155" />
<ellipse fill="#b7b8b0" fill-opacity="0.501961" cx="48" cy="137" rx="18" ry="18" />
<polygon fill="#100200" fill-opacity="0.501961" points="48,71 53,50 22,64" />
<polygon fill="#c1c2ba" fill-opacity="0.501961" points="69.965022,6.237403,69.706435,19.969512,82.039289,31.172748,54.517814,47.025529" />
<polygon fill="#332f2a" fill-opacity="0.501961" points="93.682179,123.874126,105.124633,129.052532,74.522887,122.316725,74.449552,106.891473" />
<polygon fill="#8c9496" fill-opacity="0.501961" points="94,122 99,72 115,104" />
<polygon fill="#3a4344" fill-opacity="0.501961" points="91.339540,9.889979,110.799913,7.198203,93.234367,36.734032,99.426716,11.934617" />
<polygon fill="#88897c" fill-opacity="0.501961" points="244.969250,159.790067,222.952103,71.307250,241.886671,105.402785,271.000000,102.170321" />
<polygon fill="#000000" fill-opacity="0.501961" points="254,100 261,57 241,97" />
<polygon fill="#4f5147" fill-opacity="0.501961" points="271.000000,45.287781,256.000837,-16.000000,235.997023,5.019035,238.537292,-1.666854" />
<polygon fill="#595956" fill-opacity="0.501961" points="81.416101,34.622458,57.588574,43.997931,93.216084,61.610699,107.052013,53.299766" />
<polygon fill="#b6b2a6" fill-opacity="0.501961" points="46.784404,74.838678,24.289428,67.394969,34.641748,123.388240,-16.000000,91.729202" />
<polygon fill="#848678" fill-opacity="0.501961" points="245,64 220,3 270,35" />
<ellipse fill="#000000" fill-opacity="0.501961" cx="89" cy="164" rx="5" ry="26" />
<g transform="translate(8.623063 123.822238) rotate(337.769225) scale(8.381562 39.581466)"><ellipse fill="#9f9b8f" fill-opacity="0.501961" cx="0" cy="0" rx="1" ry="1" /></g>
<polygon fill="#10110e" fill-opacity="0.501961" points="83.901993,25.619451,87.184588,32.879279,79.002162,28.691098,77.249968,19.836015" />
<polygon fill="#474743" fill-opacity="0.501961" points="66.627693,100.224790,94.688748,133.391768,66.927363,65.625822,98.694410,164.107108" />
<polygon fill="#605c52" fill-opacity="0.501961" points="5.384799,157.922609,-13.909524,136.609188,-10.469948,176.062071,33.484604,182.764932" />
<polygon fill="#080400" fill-opacity="0.501961" points="130.435465,159.105853,130.934362,185.000000,122.989226,185.000000,100.687815,144.495467" />
<polygon fill="#73716a" fill-opacity="0.501961" points="103.813969,87.349561,107.898925,138.180690,91.574665,147.666563,117.684890,90.855535" />
<ellipse fill="#081419" fill-opacity="0.501961" cx="71" cy="78" rx="6" ry="6" />
<g transform="translate(55.721953 68.342638) rotate(273.119467) scale(17.519051 4.446667)"><ellipse fill="#9da5a7" fill-opacity="0.501961" cx="0" cy="0" rx="1" ry="1" /></g>
<g transform="translate(146.464442 40.269053) rotate(86.725057) scale(24.038849 32.106695)"><ellipse fill="#c2c1b6" fill-opacity="0.501961" cx="0" cy="0" rx="1" ry="1" /></g>
<g transform="translate(152 0) rotate(278) scale(20 88)"><rect fill="#a3a095" fill-opacity="0.501961" x="-0.5" y="-0.5" width="1" height="1" /></g>
<polygon fill="#3f443f" fill-opacity="0.501961" points="68.833696,129.562740,88.924535,142.074173,66.133245,159.201290,86.064687,148.742651" />
<g transform="translate(81 154) rotate(163) scale(1 4)"><rect fill="#f3ffff" fill-opacity="0.501961" x="-0.5" y="-0.5" width="1" height="1" /></g>
<g transform="translate(26.807798 27.975639) rotate(228.985574) scale(8.490107 76.743095)"><ellipse fill="#9f9a8f" fill-opacity="0.501961" cx="0" cy="0" rx="1" ry="1" /></g>
<polygon fill="#929793" fill-opacity="0.501961" points="76.562293,108.732191,76.936169,98.824963,69.246182,94.071861,57.825639,89.800684" />
<polygon fill="#b5bcbb" fill-opacity="0.501961" points="80,32 89,30 94,38" />
<polygon fill="#2d2a26" fill-opacity="0.501961" points="72.478131,80.422522,73.565582,58.408079,95.269440,82.397380,98.767489,59.173823" />
<polygon fill="#b9b5ac" fill-opacity="0.501961" points="15.502356,129.945030,19.257472,51.602860,3.907212,92.396506,41.827017,71.634477" />
<g transform="translate(104.257785 89.395289) rotate(58.979729) scale(9.782589 2.627835)"><ellipse fill="#abb0ad" fill-opacity="0.501961" cx="0" cy="0" rx="1" ry="1" /></g>
<polygon fill="#55503e" fill-opacity="0.501961" points="39.762244,69.305502,49.426617,78.761977,51.387259,78.781976,47.059043,69.165593" />
<polygon fill="#3a4a49" fill-opacity="0.501961" points="234.655645,101.640749,230.623685,95.235337,233.059953,82.144228,257.100026,60.344520" />
<polygon fill="#8f9190" fill-opacity="0.501961" points="91,92 87,104 75,72" />
<polygon fill="#1b1918" fill-opacity="0.501961" points="104.356300,119.625785,124.345247,99.175041,121.295017,119.488038,100.904728,112.049569" />
<rect fill="#afaba2" fill-opacity="0.501961" x="138" y="146" width="50" height="24" />
<polygon fill="#2b2c20" fill-opacity="0.501961" points="109.229509,44.101633,103.379786,16.583123,118.205136,54.948814,124.362857,105.423006" />
<polygon fill="#767e7f" fill-opacity="0.501961" points="80.469342,16.961836,109.773327,3.249218,88.643954,24.099681,73.072394,18.025362" />
<rect fill="#615a4f" fill-opacity="0.501961" x="34" y="38" width="9" height="11" />
<polygon fill="#788180" fill-opacity="0.501961" points="74,128 85,130 87,141" />
<polygon fill="#c8c3b8" fill-opacity="0.501961" points="131.628355,120.272958,167.196387,154.374786,168.828031,75.096244,115.305219,124.025125" />
<polygon fill="#b6b1a5" fill-opacity="0.501961" points="66,30 107,-16 20,41" />
<polygon fill="#bab8ad" fill-opacity="0.501961" points="111,12 203,24 228,81" />
<polygon fill="#25221a" fill-opacity="0.501961" points="23.399074,65.875455,23.853748,75.888896,17.145022,85.001673,17.818156,76.802123" />
<polygon fill="#8a867b" fill-opacity="0.501961" points="-16,30 -16,66 52,-16" />
<g transform="translate(109 27) rotate(183) scale(13 15)"><rect fill="#101009" fill-opacity="0.501961" x="-0.5" y="-0.5" width="1" height="1" /></g>
<g transform="translate(255.000000 163.586732) rotate(146.775917) scale(31.349370 6.440785)"><ellipse fill="#57554c" fill-opacity="0.501961" cx="0" cy="0" rx="1" ry="1" /></g>
<polygon fill="#ada99f" fill-opacity="0.501961" points="217,89 247,116 175,170" />
<polygon fill="#8a8d8b" fill-opacity="0.501961" points="100.659638,161.890788,100.073619,185.000000,117.516189,181.322758,77.650101,185.000000" />
<polygon fill="#181510" fill-opacity="0.501961" points="29.061053,54.981088,49.017065,42.934185,19.041702,74.750612,19.683438,67.008733" />
<g transform="translate(0.843214 0.000000) rotate(229.080454) scale(10.496626 35.235112)"><ellipse fill="#56574e" fill-opacity="0.501961" cx="0" cy="0" rx="1" ry="1" /></g>
<polygon fill="#3f3c38" fill-opacity="0.501961" points="87.107756,41.799158,82.387343,48.917570,38.680566,47.945061,99.004460,60.772157" />
<polygon fill="#4f594d" fill-opacity="0.501961" points="245.219726,60.020349,265.321581,57.149213,255.296558,74.299202,271.000000,33.652312" />
<rect fill="#757a76" fill-opacity="0.501961" x="95" y="39" width="4" height="15" />
<polygon fill="#a2a195" fill-opacity="0.501961" points="211,19 229,83 249,49" />
<rect fill="#e2847e" fill-opacity="0.501961" x="63" y="116" width="4" height="15" />
<polygon fill="#cac7bc" fill-opacity="0.501961" points="177.706066,40.963213,116.858270,44.317597,120.062012,66.192443,138.661411,139.487053" />
<polygon fill="#828274" fill-opacity="0.501961" points="257.380136,41.041150,243.628386,17.473175,205.858253,-16.000000,175.136697,-16.000000" />
<g transform="translate(101 101) rotate(53) scale(21 3)"><rect fill="#b3bcbd" fill-opacity="0.501961" x="-0.5" y="-0.5" width="1" height="1" /></g>
<g transform="translate(63 57) rotate(147) scale(5 28)"><rect fill="#686965" fill-opacity="0.501961" x="-0.5" y="-0.5" width="1" height="1" /></g>
<polygon fill="#aaa69c" fill-opacity="0.501961" points="7.583965,117.236619,-12.140566,65.775910,88.409560,-16.000000,24.979121,51.394251" />
<g transform="translate(55 111) rotate(327) scale(25 22)"><rect fill="#c9c5b9" fill-opacity="0.501961" x="-0.5" y="-0.5" width="1" height="1" /></g>
<polygon fill="#4f1c11" fill-opacity="0.501961" points="116.399278,141.248784,95.536438,156.757422,102.055415,156.038746,120.920715,119.518217" />
<polygon fill="#070500" fill-opacity="0.501961" points="88,159 84,143 101,149" />
<g transform="translate(104 99) rotate(330) scale(1 19)"><rect fill="#5c5f61" fill-opacity="0.501961" x="-0.5" y="-0.5" width="1" height="1" /></g>
<g transform="translate(127 13) rotate(98) scale(16 33)"><rect fill="#b7b5a9" fill-opacity="0.501961" x="-0.5" y="-0.5" width="1" height="1" /></g>
<polygon fill="#959b98" fill-opacity="0.501961" points="76,36 76,44 59,40" />
<g transform="translate(101.463964 76.312450) rotate(316.028927) scale(1.000000 40.896966)"><ellipse fill="#4d4d45" fill-opacity="0.501961" cx="0" cy="0" rx="1" ry="1" /></g>
<g transform="translate(181.485691 121.116610) rotate(223.385012) scale(15.002995 41.195156)"><ellipse fill="#bebab0" fill-opacity="0.501961" cx="0" cy="0" rx="1" ry="1" /></g>
<polygon fill="#2e2d25" fill-opacity="0.501961" points="106.383699,151.872424,91.338171,141.149226,77.572059,144.232707,75.754979,134.193176" />
<polygon fill="#a7aba8" fill-opacity="0.501961" points="103,117 93,121 83,104" />
<polygon fill="#6d706e" fill-opacity="0.501961" points="75,97 88,70 83,114" />
<ellipse fill="#c5c1b7" fill-opacity="0.501961" cx="153" cy="121" rx="29" ry="21" />
<polygon fill="#56493d" fill-opacity="0.501961" points="105,152 109,171 94,154" />
<g transform="translate(210 159) rotate(325) scale(77 12)"><rect fill="#969388" fill-opacity="0.501961" x="-0.5" y="-0.5" width="1" height="1" /></g>
<polygon fill="#767d74" fill-opacity="0.501961" points="232.008387,97.568322,227.765861,84.409623,237.466711,69.780448,236.368283,80.243964" />
<polygon fill="#090b0a" fill-opacity="0.501961" points="120.149490,63.665001,114.427746,70.472053,96.445000,61.509178,101.224212,58.366675" />
<polygon fill="#3f4441" fill-opacity="0.501961" points="78.170667,19.969296,78.377826,15.420813,103.276866,34.706257,102.428270,22.491165" />
<polygon fill="#50534b" fill-opacity="0.501961" points="108,83 116,104 121,89" />
<polygon fill="#9e9c92" fill-opacity="0.501961" points="44.395683,151.314473,-16.000000,107.363062,42.999402,170.426520,71.848277,146.907714" />
<rect fill="#030100" fill-opacity="0.501961" x="109" y="131" width="7" height="8" />
<polygon fill="#a6a59c" fill-opacity="0.501961" points="70.391970,5.152664,106.905979,-9.320509,92.657484,17.450496,91.522024,17.258292" />
<polygon fill="#909590" fill-opacity="0.501961" points="70,131 67,100 79,132" />
<polygon fill="#596247" fill-opacity="0.501961" points="134,143 123,126 127,140" />
<polygon fill="#77766b" fill-opacity="0.501961" points="271.000000,128.790924,191.926569,185.000000,195.751648,168.918051,225.764266,179.721465" />
<polygon fill="#c8cecb" fill-opacity="0.501961" points="56,38 78,32 75,24" />
<polygon fill="#353532" fill-opacity="0.501961" points="61.819334,79.384101,94.087118,69.421681,95.787681,91.001622,88.641967,64.564591" />
<rect fill="#000000" fill-opacity="0.501961" x="113" y="22" width="4" height="8" />
<polygon fill="#4c4137" fill-opacity="0.501961" points="119.589645,122.159708,86.782872,127.202059,127.608208,113.326159,126.034216,106.264065" />
<g transform="translate(79 114) rotate(320) scale(3 11)"><rect fill="#1a1811" fill-opacity="0.501961" x="-0.5" y="-0.5" width="1" height="1" /></g>
<polygon fill="#bfbbb1" fill-opacity="0.501961" points="40,71 32,127 25,69" />
<polygon fill="#000000" fill-opacity="0.501961" points="88,27 81,28 76,20" />
<rect fill="#dbd8d0" fill-opacity="0.501961" x="79" y="145" width="3" height="4" />
<g transform="translate(116.469038 114.461192) rotate(139.243703) scale(7.651688 5.109539)"><ellipse fill="#15120f" fill-opacity="0.501961" cx="0" cy="0" rx="1" ry="1" /></g>
<polygon fill="#6c4b3d" fill-opacity="0.501961" points="81,147 84,154 76,148" />
<ellipse fill="#8b9196" fill-opacity="0.501961" cx="68" cy="72" rx="2" ry="2" />
<polygon fill="#7c8a8b" fill-opacity="0.501961" points="58.655163,147.366225,70.621463,155.251936,68.185672,167.125227,56.793417,185.000000" />
<polygon fill="#a6a299" fill-opacity="0.501961" points="240,113 215,155 160,175" />
<polygon fill="#757772" fill-opacity="0.501961" points="78.652038,35.793101,88.109318,35.883229,78.141566,44.291199,55.876533,65.899941" />
<polygon fill="#5e6260" fill-opacity="0.501961" points="69.018314,92.077586,64.607743,101.992454,62.263996,75.448950,80.815343,97.980105" />
<polygon fill="#a6a39a" fill-opacity="0.501961" points="97.368959,-15.678200,10.838731,61.179439,45.868525,43.584126,21.955069,50.171225" />
<ellipse fill="#54583f" fill-opacity="0.501961" cx="135" cy="163" rx="2" ry="10" />
<g transform="translate(150.756718 83.102226) rotate(197.161586) scale(26.786861 32.579883)"><ellipse fill="#c9c7bb" fill-opacity="0.501961" cx="0" cy="0" rx="1" ry="1" /></g>
<polygon fill="#161f21" fill-opacity="0.501961" points="65,78 77,83 75,70" />
<g transform="translate(91 133) rotate(38) scale(4 21)"><rect fill="#302721" fill-opacity="0.501961" x="-0.5" y="-0.5" width="1" height="1" /></g>
<polygon fill="#54594d" fill-opacity="0.501961" points="236.762819,105.708704,271.000000,105.481284,239.764119,103.057538,231.221193,80.387534" />
<polygon fill="#b1b6b8" fill-opacity="0.501961" points="58.393873,116.182951,63.344935,125.586892,65.412606,146.704179,52.579128,147.987382" />
<polygon fill="#bab6aa" fill-opacity="0.501961" points="54.373569,125.924943,12.978072,77.485533,19.499686,122.556154,49.673307,148.194515" />
</g>
</svg>