<svg xmlns="http://www.w3.org/2000/svg" version="1.1" width="1024" height="680">
<rect x="0" y="0" width="1024" height="680" fill="#48462f" />
<g transform="scale(4.000000) translate(0.5 0.5)">
<g transform="translate(118.415747 50.047828) rotate(187.182480) scale(45.924847 24.107944)"><ellipse fill="#ffe4b1" fill-opacity="0.501961" cx="0" cy="0" rx="1" ry="1" /></g>
<ellipse fill="#ceaa7a" fill-opacity="0.501961" cx="64" cy="131" rx="23" ry="51" />
<g transform="translate(138.259784 137.078111) rotate(283.459428) scale(87.367771 13.632014)"><ellipse fill="#caa28c" fill-opacity="0.501961" cx="0" cy="0" rx="1" ry="1" /></g>
<g transform="translate(229.273814 35.600602) rotate(202.847911) scale(69.720290 72.423978)"><ellipse fill="#001505" fill-opacity="0.501961" cx="0" cy="0" rx="1" ry="1" /></g>
<g transform="translate(68.932876 0.000000) rotate(155.453489) scale(210.660641 35.229493)"><ellipse fill="#000000" fill-opacity="0.501961" cx="0" cy="0" rx="1" ry="1" /></g>
<rect fill="#ffddb1" fill-opacity="0.501961" x="118" y="29" width="30" height="42" />
<ellipse fill="#845a35" fill-opacity="0.501961" cx="92" cy="65" rx="28" ry="26" />
<g transform="translate(62.764654 97.381638) rotate(310.448776) scale(24.477321 9.205280)"><ellipse fill="#f8cfa8" fill-opacity="0.501961" cx="0" cy="0" rx="1" ry="1" /></g>
<polygon fill="#091f0a" fill-opacity="0.501961" points="-6,177 -2,-16 49,185" />
<ellipse fill="#fae3b0" fill-opacity="0.501961" cx="140" cy="169" rx="7" ry="43" />
<ellipse fill="#293623" fill-opacity="0.501961" cx="220" cy="136" rx="74" ry="74" />
<rect fill="#ffeeb7" fill-opacity="0.501961" x="86" y="26" width="38" height="14" />
<polygon fill="#725834" fill-opacity="0.501961" points="103,28 39,181 139,185" />
<polygon fill="#69685e" fill-opacity="0.501961" points="136.497220,51.435737,137.774461,43.826447,164.238551,76.672684,164.717792,185.000000" />
<g transform="translate(120.173318 7.160564) rotate(-36.539274) scale(19.343624 20.654421)"><ellipse fill="#001002" fill-opacity="0.501961" cx="0" cy="0" rx="1" ry="1" /></g>
<polygon fill="#cbbc9d" fill-opacity="0.501961" points="117,90 132,52 98,65" />
<g transform="translate(117.483268 97.667835) rotate(172.946427) scale(26.658460 7.826088)"><ellipse fill="#240e09" fill-opacity="0.501961" cx="0" cy="0" rx="1" ry="1" /></g>
<g transform="translate(36.880814 71.369813) rotate(8.561029) scale(33.361845 21.062250)"><ellipse fill="#33301b" fill-opacity="0.501961" cx="0" cy="0" rx="1" ry="1" /></g>
<g transform="translate(41 6) rotate(311) scale(69 90)"><rect fill="#091208" fill-opacity="0.501961" x="-0.5" y="-0.5" width="1" height="1" /></g>
<g transform="translate(70 52) rotate(377) scale(9 22)"><rect fill="#d1b487" fill-opacity="0.501961" x="-0.5" y="-0.5" width="1" height="1" /></g>
<polygon fill="#ffd59d" fill-opacity="0.501961" points="88,25 153,32 105,48" />
<polygon fill="#0f0006" fill-opacity="0.501961" points="103,156 82,115 112,146" />
<polygon fill="#482d13" fill-opacity="0.501961" points="86.480460,73.358023,74.190432,48.815281,117.554131,57.769957,112.840245,45.176753" />
<g transform="translate(184.012573 77.745412) rotate(89.609994) scale(35.643125 22.676667)"><ellipse fill="#112212" fill-opacity="0.501961" cx="0" cy="0" rx="1" ry="1" /></g>
<rect fill="#a4865e" fill-opacity="0.501961" x="112" y="118" width="27" height="25" />
<g transform="translate(155 75) rotate(171) scale(10 25)"><rect fill="#e5a468" fill-opacity="0.501961" x="-0.5" y="-0.5" width="1" height="1" /></g>
<rect fill="#000008" fill-opacity="0.501961" x="127" y="72" width="12" height="25" />
<rect fill="#3e3a24" fill-opacity="0.501961" x="10" y="42" width="40" height="72" />
<g transform="translate(50.442884 169.000000) rotate(359.339726) scale(7.280406 27.421602)"><ellipse fill="#3f3a14" fill-opacity="0.501961" cx="0" cy="0" rx="1" ry="1" /></g>
<ellipse fill="#aeecff" fill-opacity="0.501961" cx="78" cy="121" rx="4" ry="4" />
<rect fill="#4e4337" fill-opacity="0.501961" x="146" y="46" width="6" height="97" />
<g transform="translate(141 56) rotate(233) scale(13 6)"><rect fill="#412212" fill-opacity="0.501961" x="-0.5" y="-0.5" width="1" height="1" /></g>
<rect fill="#d5cdb5" fill-opacity="0.501961" x="141" y="61" width="4" height="33" />
<g transform="translate(235 167) rotate(99) scale(32 50)"><rect fill="#13200f" fill-opacity="0.501961" x="-0.5" y="-0.5" width="1" height="1" /></g>
<rect fill="#0c2112" fill-opacity="0.501961" x="98" y="0" width="45" height="27" />
<polygon fill="#212417" fill-opacity="0.501961" points="82.340027,36.895574,87.279474,13.185298,-16.000000,46.226649,67.149713,44.606429" />
<polygon fill="#64461d" fill-opacity="0.501961" points="122.232258,129.540612,77.238771,114.500537,106.968115,9.625590,94.337564,81.800538" />
<polygon fill="#f9d0a6" fill-opacity="0.501961" points="44,121 56,88 77,80" />
<polygon fill="#ffe9c3" fill-opacity="0.501961" points="123.390463,64.831087,122.410834,50.323976,135.531031,50.098552,141.608713,68.076118" />
<ellipse fill="#504a2f" fill-opacity="0.501961" cx="251" cy="114" rx="22" ry="37" />
<rect fill="#02010a" fill-opacity="0.501961" x="115" y="111" width="20" height="5" />
<polygon fill="#a88c62" fill-opacity="0.501961" points="55.093272,108.097437,85.914326,88.534134,36.087726,152.036909,51.391133,101.981478" />
<g transform="translate(94.430698 160.947606) rotate(228.268355) scale(61.276998 11.473599)"><ellipse fill="#846c40" fill-opacity="0.501961" cx="0" cy="0" rx="1" ry="1" /></g>
<ellipse fill="#5a6e70" fill-opacity="0.501961" cx="153" cy="103" rx="12" ry="19" />
<polygon fill="#e7b17f" fill-opacity="0.501961" points="159,75 145,31 162,50" />
<g transform="translate(193.380789 9.976634) rotate(188.565332) scale(36.996736 10.398596)"><ellipse fill="#2b4d22" fill-opacity="0.501961" cx="0" cy="0" rx="1" ry="1" /></g>
<rect fill="#0c1116" fill-opacity="0.501961" x="106" y="49" width="12" height="8" />
<g transform="translate(247.751077 29.279632) rotate(339.341293) scale(19.472535 51.793238)"><ellipse fill="#0d1c0c" fill-opacity="0.501961" cx="0" cy="0" rx="1" ry="1" /></g>
<polygon fill="#1b1c14" fill-opacity="0.501961" points="110.528220,93.387831,101.570555,75.246514,105.796832,115.074642,119.414131,109.803512" />
<polygon fill="#c9596d" fill-opacity="0.501961" points="136,96 142,129 150,123" />
<polygon fill="#ecc196" fill-opacity="0.501961" points="104.433320,32.950884,112.502431,33.178022,92.264492,23.173359,73.613709,47.088551" />
<g transform="translate(134.113120 150.307634) rotate(181.635891) scale(7.006945 23.158836)"><ellipse fill="#ac916b" fill-opacity="0.501961" cx="0" cy="0" rx="1" ry="1" /></g>
<rect fill="#cb8486" fill-opacity="0.501961" x="121" y="105" width="11" height="5" />
<polygon fill="#3f4d45" fill-opacity="0.501961" points="162.704143,-16.000000,132.759191,-2.924850,166.273966,63.021707,156.641534,-15.408755" />
<ellipse fill="#89815e" fill-opacity="0.501961" cx="67" cy="144" rx="9" ry="42" />
<polygon fill="#262b1b" fill-opacity="0.501961" points="22,30 76,76 59,85" />
<polygon fill="#817554" fill-opacity="0.501961" points="94.341478,80.367682,122.186204,88.210775,99.413487,38.177452,108.848553,35.606442" />
<rect fill="#260c00" fill-opacity="0.501961" x="92" y="48" width="2" height="47" />
<polygon fill="#f9ad75" fill-opacity="0.501961" points="106,45 127,34 145,47" />
<polygon fill="#e8d9aa" fill-opacity="0.501961" points="146.229904,31.980267,161.553749,48.709322,106.489466,24.982884,98.338420,23.644168" />
<polygon fill="#2a2c1a" fill-opacity="0.501961" points="71.499795,51.148667,49.628390,72.896953,68.122257,23.688818,-16.000000,58.889120" />
<g transform="translate(227.035722 126.002697) rotate(227.276752) scale(36.300906 13.518317)"><ellipse fill="#4b512e" fill-opacity="0.501961" cx="0" cy="0" rx="1" ry="1" /></g>
<polygon fill="#26151d" fill-opacity="0.501961" points="112.292996,152.187961,76.758072,107.463039,111.674104,159.461939,133.261310,133.009649" />
<ellipse fill="#e6d5ac" fill-opacity="0.501961" cx="143" cy="163" rx="3" ry="33" />
<g transform="translate(193 141) rotate(56) scale(28 33)"><rect fill="#223018" fill-opacity="0.501961" x="-0.5" y="-0.5" width="1" height="1" /></g>
<g transform="translate(144 128) rotate(237) scale(81 1)"><rect fill="#3e2621" fill-opacity="0.501961" x="-0.5" y="-0.5" width="1" height="1" /></g>
<g transform="translate(152 55) rotate(154) scale(4 37)"><rect fill="#9f6b40" fill-opacity="0.501961" x="-0.5" y="-0.5" width="1" height="1" /></g>
<polygon fill="#836c3b" fill-opacity="0.501961" points="107,117 92,126 78,89" />
<polygon fill="#e3be98" fill-opacity="0.501961" points="66.216803,104.933878,56.630399,99.926679,74.786451,76.466433,79.189815,74.623531" />
<g transform="translate(37 100) rotate(205) scale(25 44)"><rect fill="#4a462e" fill-opacity="0.501961" x="-0.5" y="-0.5" width="1" height="1" /></g>
<polygon fill="#362001" fill-opacity="0.501961" points="83.941725,88.707370,94.257962,98.217567,98.704759,93.821257,91.560877,77.801363" />
<polygon fill="#f0e4bf" fill-opacity="0.501961" points="112.845696,45.111833,124.779789,28.614784,117.113327,28.565715,101.850718,52.692176" />
<rect fill="#37403c" fill-opacity="0.501961" x="148" y="133" width="22" height="37" />
<ellipse fill="#13110c" fill-opacity="0.501961" cx="226" cy="90" rx="13" ry="10" />
<polygon fill="#ba8359" fill-opacity="0.501961" points="105.320523,30.393284,112.103685,45.505620,79.705979,42.823243,97.560091,37.896206" />
<rect fill="#979478" fill-opacity="0.501961" x="40" y="120" width="6" height="32" />
<g transform="translate(10.316195 126.732618) rotate(93.022557) scale(11.946868 32.506397)"><ellipse fill="#162d17" fill-opacity="0.501961" cx="0" cy="0" rx="1" ry="1" /></g>
<g transform="translate(146 63) rotate(188) scale(1 28)"><rect fill="#d9b78e" fill-opacity="0.501961" x="-0.5" y="-0.5" width="1" height="1" /></g>
<g transform="translate(23.887788 7.348233) rotate(280.303515) scale(8.395693 63.325882)"><ellipse fill="#060c04" fill-opacity="0.501961" cx="0" cy="0" rx="1" ry="1" /></g>
<polygon fill="#d3ac82" fill-opacity="0.501961" points="135.377785,32.967268,165.400863,55.480925,157.033611,79.465183,161.162054,46.097476" />
<polygon fill="#121f10" fill-opacity="0.501961" points="238.342124,45.841664,227.371340,46.088139,217.526259,65.566547,147.797211,39.320530" />
<polygon fill="#111e12" fill-opacity="0.501961" points="150,30 150,20 117,18" />
<polygon fill="#525939" fill-opacity="0.501961" points="241,76 241,87 220,70" />
<polygon fill="#5e6a63" fill-opacity="0.501961" points="129,67 119,89 108,92" />
<polygon fill="#2e1303" fill-opacity="0.501961" points="94,53 98,43 89,51" />
<g transform="translate(32.049572 70.089976) rotate(106.980683) scale(10.282760 39.851702)"><ellipse fill="#423c23" fill-opacity="0.501961" cx="0" cy="0" rx="1" ry="1" /></g>
<polygon fill="#fde6bd" fill-opacity="0.501961" points="145.823062,76.182785,121.018648,49.463372,121.447185,66.490812,136.120046,58.614970" />
<polygon fill="#887454" fill-opacity="0.501961" points="125,148 119,170 96,175" />
<polygon fill="#655e44" fill-opacity="0.501961" points="226.695228,111.964212,266.680691,151.571577,271.000000,159.230544,236.250653,134.151394" />
<polygon fill="#a87f54" fill-opacity="0.501961" points="72.737780,66.556007,71.178945,45.358958,92.482870,44.129477,61.239675,65.208099" />
<polygon fill="#fee7ab" fill-opacity="0.501961" points="139,32 114,25 145,49" />
<polygon fill="#342318" fill-opacity="0.501961" points="114,159 94,151 80,107" />
<polygon fill="#191916" fill-opacity="0.501961" points="141,81 125,72 141,74" />
<polygon fill="#c27983" fill-opacity="0.501961" points="143,109 134,119 139,94" />
<polygon fill="#edb282" fill-opacity="0.501961" points="159.415397,81.226540,155.538177,67.205736,153.706948,79.447637,156.330399,89.951859" />
<ellipse fill="#0f0d09" fill-opacity="0.501961" cx="142" cy="55" rx="3" ry="3" />
<ellipse fill="#d6bb8f" fill-opacity="0.501961" cx="70" cy="46" rx="4" ry="4" />
<polygon fill="#6f5127" fill-opacity="0.501961" points="103.902965,151.925454,83.872794,128.864374,78.743431,145.714348,95.610201,173.259461" />
<ellipse fill="#5f6864" fill-opacity="0.501961" cx="157" cy="124" rx="5" ry="30" />
<polygon fill="#2b492d" fill-opacity="0.501961" points="79.080480,15.903204,109.703899,18.324211,90.019481,26.028119,82.810475,31.051414" />
<g transform="translate(80 120) rotate(81) scale(8 7)"><rect fill="#8bacd9" fill-opacity="0.501961" x="-0.5" y="-0.5" width="1" height="1" /></g>
<polygon fill="#2e471f" fill-opacity="0.501961" points="233.022489,26.736222,248.296875,12.899680,189.937136,4.228657,222.399356,17.005135" />
<g transform="translate(0.000000 90.491683) rotate(247.133464) scale(10.833826 31.717808)"><ellipse fill="#1f2017" fill-opacity="0.501961" cx="0" cy="0" rx="1" ry="1" /></g>
<polygon fill="#3f483c" fill-opacity="0.501961" points="151,109 141,98 154,94" />
<polygon fill="#302f1f" fill-opacity="0.501961" points="271,142 240,128 249,94" />
<polygon fill="#0b100a" fill-opacity="0.501961" points="83.152028,33.532773,65.445770,43.840787,68.594236,40.009347,52.134343,-16.000000" />
<g transform="translate(121 105) rotate(135) scale(3 8)"><rect fill="#a18c7b" fill-opacity="0.501961" x="-0.5" y="-0.5" width="1" height="1" /></g>
<polygon fill="#ab8762" fill-opacity="0.501961" points="91,40 90,65 86,48" />
<polygon fill="#0f190e" fill-opacity="0.501961" points="179.705432,39.733356,163.533375,30.556204,166.288489,55.457567,167.382813,109.065343" />
<ellipse fill="#586456" fill-opacity="0.501961" cx="150" cy="0" rx="10" ry="10" />
<polygon fill="#c29f7c" fill-opacity="0.501961" points="76.068615,82.752390,80.638393,87.612850,68.785720,116.226723,70.493257,81.888391" />
<polygon fill="#fde7be" fill-opacity="0.501961" points="121.023670,73.477514,118.378341,72.089275,129.243724,56.558491,137.951669,58.743390" />
<polygon fill="#323d33" fill-opacity="0.501961" points="154,43 153,8 166,26" />
<polygon fill="#867552" fill-opacity="0.501961" points="107.596989,144.491609,112.560188,121.543291,129.899020,123.161290,131.242289,134.851741" />
<g transform="translate(184.952909 73.768379) rotate(22.075042) scale(17.297329 3.841527)"><ellipse fill="#343c2c" fill-opacity="0.501961" cx="0" cy="0" rx="1" ry="1" /></g>
<polygon fill="#b59d75" fill-opacity="0.501961" points="69,62 76,44 63,61" />
<polygon fill="#1c311a" fill-opacity="0.501961" points="157,17 167,-11 201,69" />
<g transform="translate(105.309609 24.388561) rotate(176.416277) scale(9.608265 3.624022)"><ellipse fill="#3a4730" fill-opacity="0.501961" cx="0" cy="0" rx="1" ry="1" /></g>
<polygon fill="#7d562c" fill-opacity="0.501961" points="76.362371,83.015164,80.896530,79.757806,67.431966,59.979451,98.031192,63.009465" />
<g transform="translate(101 93) rotate(60) scale(9 1)"><rect fill="#949976" fill-opacity="0.501961" x="-0.5" y="-0.5" width="1" height="1" /></g>
<polygon fill="#eaca9c" fill-opacity="0.501961" points="154.036999,50.798415,165.416679,48.231405,125.715857,31.156308,152.087784,35.894357" />
<ellipse fill="#452100" fill-opacity="0.501961" cx="147" cy="77" rx="3" ry="4" />
<rect fill="#061215" fill-opacity="0.501961" x="41" y="154" width="4" height="16" />
<polygon fill="#624320" fill-opacity="0.501961" points="88.827963,81.439401,73.344700,103.818068,84.321356,99.245190,82.958622,54.081856" />
<polygon fill="#3e402e" fill-opacity="0.501961" points="147,178 228,166 150,131" />
<polygon fill="#edcea2" fill-opacity="0.501961" points="103.836805,29.268115,87.175814,50.887835,91.950268,46.901979,92.016597,24.635101" />
<polygon fill="#2c0905" fill-opacity="0.501961" points="131,104 115,95 140,91" />
<polygon fill="#dca373" fill-opacity="0.501961" points="123.952371,42.831275,128.047264,56.248209,131.685741,32.038135,102.375966,52.931951" />
<polygon fill="#f8d7b3" fill-opacity="0.501961" points="65,94 56,92 78,77" />
<rect fill="#989686" fill-opacity="0.501961" x="112" y="75" width="12" height="9" />
<rect fill="#805429" fill-opacity="0.501961" x="112" y="67" width="4" height="9" />
<polygon fill="#2f333b" fill-opacity="0.501961" points="124.182180,72.869483,125.704057,98.343821,128.771762,68.341469,132.377115,71.270275" />
<polygon fill="#0b170a" fill-opacity="0.501961" points="134.858247,17.922494,149.851176,26.697091,76.655134,-16.000000,107.382215,26.251064" />
<g transform="translate(9 20) rotate(134) scale(93 13)"><rect fill="#050903" fill-opacity="0.501961" x="-0.5" y="-0.5" width="1" height="1" /></g>
<polygon fill="#624317" fill-opacity="0.501961" points="104,102 119,115 99,137" />
<polygon fill="#a8835e" fill-opacity="0.501961" points="152.640694,70.400838,131.864136,47.354131,142.929113,70.791663,159.369579,54.202885" />
<g transform="translate(116.748262 31.231965) rotate(2.258795) scale(33.198431 2.185500)"><ellipse fill="#f4e1ad" fill-opacity="0.501961" cx="0" cy="0" rx="1" ry="1" /></g>
<g transform="translate(236.189820 151.565644) rotate(247.027338) scale(33.932834 4.297900)"><ellipse fill="#232f19" fill-opacity="0.501961" cx="0" cy="0" rx="1" ry="1" /></g>
<polygon fill="#2d2f1c" fill-opacity="0.501961" points="46,85 11,24 31,25" />
<polygon fill="#010809" fill-opacity="0.501961" points="115,99 122,113 105,100" />
<polygon fill="#c2b38e" fill-opacity="0.501961" points="136,161 149,159 143,140" />
<polygon fill="#1a161e" fill-opacity="0.501961" points="82,115 76,116 83,104" />
<polygon fill="#0e170d" fill-opacity="0.501961" points="271.000000,50.080775,236.556826,26.334996,218.492104,24.882791,268.515386,89.698882" />
<rect fill="#431b00" fill-opacity="0.501961" x="147" y="62" width="2" height="16" />
<polygon fill="#465131" fill-opacity="0.501961" points="183,115 234,145 213,115" />
<polygon fill="#694b1c" fill-opacity="0.501961" points="47.758367,145.003832,56.442039,127.363995,54.087483,156.900682,55.136948,177.173191" />
<g transform="translate(106 91) rotate(255) scale(14 8)"><rect fill="#2e2e2d" fill-opacity="0.501961" x="-0.5" y="-0.5" width="1" height="1" /></g>
<g transform="translate(117.297929 52.951486) rotate(55.332352) scale(3.529002 1.787510)"><ellipse fill="#684e36" fill-opacity="0.501961" cx="0" cy="0" rx="1" ry="1" /></g>
<polygon fill="#3e462c" fill-opacity="0.501961" points="67.601140,57.710661,69.165190,49.642352,53.965239,47.989703,60.466224,58.736335" />
<polygon fill="#1c2e18" fill-opacity="0.501961" points="22.620855,112.155999,9.523663,101.584061,-15.153814,185.000000,36.464217,143.510266" />
<polygon fill="#e9e9bf" fill-opacity="0.501961" points="106.910805,28.493895,149.351685,36.199487,116.125712,27.338868,114.030271,24.868522" />
<g transform="translate(219.276173 40.622250) rotate(11.783679) scale(35.814781 2.905986)"><ellipse fill="#2c3b27" fill-opacity="0.501961" cx="0" cy="0" rx="1" ry="1" /></g>
<g transform="translate(237 125) rotate(323) scale(4 8)"><rect fill="#8b7f5a" fill-opacity="0.501961" x="-0.5" y="-0.5" width="1" height="1" /></g>
<polygon fill="#565134" fill-opacity="0.501961" points="6.703912,97.060457,49.036522,108.093742,43.110129,120.192200,35.578828,117.939431" />
<g transform="translate(66.036721 110.100826) rotate(261.104215) scale(4.652115 10.452426)"><ellipse fill="#a2855e" fill-opacity="0.501961" cx="0" cy="0" rx="1" ry="1" /></g>
<g transform="translate(75.955965 42.411318) rotate(160.562158) scale(5.763637 1.000000)"><ellipse fill="#ffcc9f" fill-opacity="0.501961" cx="0" cy="0" rx="1" ry="1" /></g>
<g transform="translate(146.325101 50.926447) rotate(155.499496) scale(1.000000 3.368738)"><ellipse fill="#e9eaee" fill-opacity="0.501961" cx="0" cy="0" rx="1" ry="1" /></g>
<polygon fill="#f4d1a8" fill-opacity="0.501961" points="125.342206,52.078079,110.876022,25.614507,125.193337,64.940298,116.483551,63.246238" />
<polygon fill="#7e1507" fill-opacity="0.501961" points="141,126 144,124 146,130" />
<g transform="translate(154 137) rotate(170) scale(4 79)"><rect fill="#47514c" fill-opacity="0.501961" x="-0.5" y="-0.5" width="1" height="1" /></g>
<polygon fill="#80693d" fill-opacity="0.501961" points="43.488494,161.879259,61.744252,107.609761,64.233273,125.582094,48.999852,135.947971" />
<rect fill="#29241e" fill-opacity="0.501961" x="105" y="51" width="12" height="7" />
<g transform="translate(132 70) rotate(373) scale(13 2)"><rect fill="#a1adc9" fill-opacity="0.501961" x="-0.5" y="-0.5" width="1" height="1" /></g>
<polygon fill="#9a8a70" fill-opacity="0.501961" points="96.351428,71.548183,126.663320,47.641455,120.589311,53.579514,105.190896,74.491635" />
<g transform="translate(155 78) rotate(254) scale(14 8)"><rect fill="#dca273" fill-opacity="0.501961" x="-0.5" y="-0.5" width="1" height="1" /></g>
<polygon fill="#331c27" fill-opacity="0.501961" points="110.320646,159.438427,109.056880,157.502214,123.589654,147.411078,129.195732,133.564250" />
<polygon fill="#2b4222" fill-opacity="0.501961" points="224,54 193,84 241,61" />
<rect fill="#656e68" fill-opacity="0.501961" x="151" y="86" width="12" height="39" />
<g transform="translate(144 80) rotate(352) scale(1 14)"><rect fill="#d6cfb6" fill-opacity="0.501961" x="-0.5" y="-0.5" width="1" height="1" /></g>
<g transform="translate(151.021017 61.420230) rotate(263.766732) scale(15.089901 2.209076)"><ellipse fill="#96693f" fill-opacity="0.501961" cx="0" cy="0" rx="1" ry="1" /></g>
<rect fill="#b17970" fill-opacity="0.501961" x="123" y="107" width="8" height="4" />
<polygon fill="#4d4325" fill-opacity="0.501961" points="7,62 44,78 9,48" />
<polygon fill="#926e42" fill-opacity="0.501961" points="99.152146,48.111297,107.921411,12.446877,102.402477,36.095618,109.756902,44.221050" />
<polygon fill="#816c42" fill-opacity="0.501961" points="71,143 91,152 79,185" />
<polygon fill="#dc9362" fill-opacity="0.501961" points="129,50 136,40 118,40" />
<polygon fill="#1a2e16" fill-opacity="0.501961" points="196.114449,114.534500,163.415454,101.301784,161.336009,91.130931,195.312540,101.731555" />
<polygon fill="#2f4823" fill-opacity="0.501961" points="14.853182,166.620154,37.086043,164.153456,42.881863,148.663291,36.344635,144.807853" />
<polygon fill="#332920" fill-opacity="0.501961" points="119,114 133,109 138,116" />
<g transform="translate(46.782142 135.311276) rotate(304.628706) scale(11.132926 2.769831)"><ellipse fill="#ba9a6f" fill-opacity="0.501961" cx="0" cy="0" rx="1" ry="1" /></g>
<ellipse fill="#31372f" fill-opacity="0.501961" cx="150" cy="146" rx="3" ry="26" />
</g>
</svg>