<svg xmlns="http://www.w3.org/2000/svg" version="1.1" width="680" height="1024">
<rect x="0" y="0" width="680" height="1024" fill="#c9c8c6" />
<g transform="scale(4.000000) translate(0.5 0.5)">
<g transform="translate(80.148070 233.342448) rotate(188.563490) scale(39.399541 121.311867)"><ellipse fill="#000000" fill-opacity="0.501961" cx="0" cy="0" rx="1" ry="1" /></g>
<ellipse fill="#000000" fill-opacity="0.501961" cx="88" cy="208" rx="34" ry="93" />
<ellipse fill="#ffffff" fill-opacity="0.501961" cx="79" cy="27" rx="92" ry="92" />
<g transform="translate(116.737773 114.827676) rotate(198.667887) scale(10.396162 23.756612)"><ellipse fill="#000000" fill-opacity="0.501961" cx="0" cy="0" rx="1" ry="1" /></g>
<polygon fill="#000000" fill-opacity="0.501961" points="94.953054,129.001472,30.301326,109.362084,41.992193,133.761576,59.351654,146.667905" />
<g transform="translate(151.055020 161.688990) rotate(362.391202) scale(25.980052 160.867446)"><ellipse fill="#ffffff" fill-opacity="0.501961" cx="0" cy="0" rx="1" ry="1" /></g>
<ellipse fill="#ffffff" fill-opacity="0.501961" cx="21" cy="168" rx="43" ry="43" />
<g transform="translate(76.068124 240.983820) rotate(0.681101) scale(37.078334 71.324955)"><ellipse fill="#020000" fill-opacity="0.501961" cx="0" cy="0" rx="1" ry="1" /></g>
<g transform="translate(51.283270 56.984476) rotate(74.611042) scale(55.459029 157.857787)"><ellipse fill="#ffffff" fill-opacity="0.501961" cx="0" cy="0" rx="1" ry="1" /></g>
<ellipse fill="#ffffff" fill-opacity="0.501961" cx="15" cy="166" rx="21" ry="252" />
<ellipse fill="#ffffff" fill-opacity="0.501961" cx="148" cy="166" rx="29" ry="75" />
<polygon fill="#000000" fill-opacity="0.501961" points="129,89 123,135 100,114" />
<polygon fill="#ffffff" fill-opacity="0.501961" points="21,271 -16,157 66,146" />
<g transform="translate(63.662687 134.766623) rotate(211.574952) scale(33.213746 11.392298)"><ellipse fill="#100100" fill-opacity="0.501961" cx="0" cy="0" rx="1" ry="1" /></g>
<g transform="translate(98.749476 206.081431) rotate(76.097006) scale(45.234848 23.160358)"><ellipse fill="#0a0000" fill-opacity="0.501961" cx="0" cy="0" rx="1" ry="1" /></g>
<ellipse fill="#ffffff" fill-opacity="0.501961" cx="152" cy="225" rx="26" ry="255" />
<ellipse fill="#ffffff" fill-opacity="0.501961" cx="62" cy="26" rx="88" ry="88" />
<g transform="translate(145.547156 245.786229) rotate(148.306730) scale(30.827376 23.659349)"><ellipse fill="#ffffff" fill-opacity="0.501961" cx="0" cy="0" rx="1" ry="1" /></g>
<rect fill="#ffffff" fill-opacity="0.501961" x="118" y="131" width="52" height="48" />
<polygon fill="#150800" fill-opacity="0.501961" points="112,242 34,244 38,271" />
<g transform="translate(19.158886 140.956046) rotate(310.482843) scale(23.314353 54.875453)"><ellipse fill="#ffffff" fill-opacity="0.501961" cx="0" cy="0" rx="1" ry="1" /></g>
<polygon fill="#1f0d00" fill-opacity="0.501961" points="127,123 124,90 102,156" />
<g transform="translate(19.533167 222.301202) rotate(210.370453) scale(15.609267 88.681790)"><ellipse fill="#ffffff" fill-opacity="0.501961" cx="0" cy="0" rx="1" ry="1" /></g>
<polygon fill="#ffffff" fill-opacity="0.501961" points="24.063611,-16.000000,-16.000000,271.000000,38.181619,243.228578,41.157262,247.359884" />
<g transform="translate(92 134) rotate(-15) scale(22 35)"><rect fill="#6b5c4b" fill-opacity="0.501961" x="-0.5" y="-0.5" width="1" height="1" /></g>
<polygon fill="#190d00" fill-opacity="0.501961" points="96.340438,125.874837,129.674171,112.824588,126.823735,89.561607,113.160677,98.925166" />
<polygon fill="#060600" fill-opacity="0.501961" points="52,185 83,217 63,171" />
<g transform="translate(102.541982 179.289919) rotate(225.479358) scale(26.279704 13.658638)"><ellipse fill="#1e1403" fill-opacity="0.501961" cx="0" cy="0" rx="1" ry="1" /></g>
<polygon fill="#ffffff" fill-opacity="0.501961" points="185.000000,33.661504,3.019155,-16.000000,-14.465313,110.350681,90.835064,117.688649" />
<ellipse fill="#0f0700" fill-opacity="0.501961" cx="59" cy="134" rx="11" ry="11" />
<rect fill="#2d1d0a" fill-opacity="0.501961" x="71" y="150" width="48" height="18" />
<ellipse fill="#ffffff" fill-opacity="0.501961" cx="140" cy="144" rx="23" ry="25" />
<polygon fill="#ffffff" fill-opacity="0.501961" points="171.191578,-16.000000,-16.000000,37.713247,136.301448,95.667022,170.352455,271.000000" />
<g transform="translate(80.921321 147.395629) rotate(256.076274) scale(26.910670 12.551107)"><ellipse fill="#372b1c" fill-opacity="0.501961" cx="0" cy="0" rx="1" ry="1" /></g>
<ellipse fill="#514331" fill-opacity="0.501961" cx="51" cy="217" rx="8" ry="22" />
<polygon fill="#ffffff" fill-opacity="0.501961" points="185,251 115,262 138,176" />
<polygon fill="#ffffff" fill-opacity="0.501961" points="119.530949,164.751744,131.367760,97.874711,185.000000,271.000000,117.352851,174.482623" />
<polygon fill="#31271c" fill-opacity="0.501961" points="91.675619,129.169864,130.463130,98.543322,128.267824,116.673918,116.048622,139.650469" />
<polygon fill="#ffffff" fill-opacity="0.501961" points="107,112 -2,79 62,119" />
<ellipse fill="#110c00" fill-opacity="0.501961" cx="99" cy="222" rx="24" ry="35" />
<ellipse fill="#0d0900" fill-opacity="0.501961" cx="51" cy="124" rx="14" ry="6" />
<rect fill="#ffffff" fill-opacity="0.501961" x="0" y="144" width="54" height="50" />
<polygon fill="#ffffff" fill-opacity="0.501961" points="97,107 10,63 69,121" />
<polygon fill="#3a2e20" fill-opacity="0.501961" points="120.210810,162.142589,108.459310,107.067245,104.537795,109.700877,105.074574,166.571096" />
<g transform="translate(95 138) rotate(249) scale(23 6)"><rect fill="#757773" fill-opacity="0.501961" x="-0.5" y="-0.5" width="1" height="1" /></g>
<polygon fill="#3b2b18" fill-opacity="0.501961" points="34.686597,245.580073,34.126932,271.000000,61.971409,218.510412,76.144157,243.222071" />
<rect fill="#ffffff" fill-opacity="0.501961" x="0" y="0" width="35" height="256" />
<rect fill="#0e0b00" fill-opacity="0.501961" x="35" y="115" width="13" height="6" />
<polygon fill="#ffffff" fill-opacity="0.501961" points="136.822632,271.000000,185.000000,248.908775,170.084875,-12.707717,121.730521,207.233221" />
<g transform="translate(87.872861 120.938316) rotate(79.194751) scale(4.478393 16.907363)"><ellipse fill="#6f6456" fill-opacity="0.501961" cx="0" cy="0" rx="1" ry="1" /></g>
<polygon fill="#ffffff" fill-opacity="0.501961" points="-16.000000,87.162241,164.414370,14.808715,102.189396,115.112398,55.095993,117.486533" />
<g transform="translate(116.472136 111.635727) rotate(301.395343) scale(20.653567 9.401004)"><ellipse fill="#1e170f" fill-opacity="0.501961" cx="0" cy="0" rx="1" ry="1" /></g>
<polygon fill="#0d0a02" fill-opacity="0.501961" points="61,208 76,149 123,271" />
<polygon fill="#fdfdfd" fill-opacity="0.501961" points="11.581112,203.187173,43.087304,251.157631,35.422927,218.881396,54.932864,187.991962" />
<polygon fill="#302518" fill-opacity="0.501961" points="94,137 64,181 67,123" />
<polygon fill="#3a2916" fill-opacity="0.501961" points="103.717835,224.435061,124.642700,218.547053,123.920407,227.106865,116.158598,249.686140" />
<polygon fill="#605448" fill-opacity="0.501961" points="80,161 86,167 96,137" />
<polygon fill="#807161" fill-opacity="0.501961" points="48.489982,219.605313,52.525447,249.818962,52.129311,237.779304,52.580863,212.627108" />
<polygon fill="#fffffe" fill-opacity="0.501961" points="64.865055,155.337518,57.664173,141.412637,58.512873,168.546498,57.697693,178.306106" />
<polygon fill="#ffffff" fill-opacity="0.501961" points="132.043226,97.211482,122.222879,148.603404,185.000000,65.762608,118.714795,83.135552" />
<polygon fill="#44453d" fill-opacity="0.501961" points="42.879831,245.558533,48.532488,271.000000,31.903885,271.000000,35.927366,242.785581" />
<polygon fill="#0e0b05" fill-opacity="0.501961" points="103.864454,151.622355,123.621931,199.095132,76.737426,271.000000,65.717572,253.623946" />
<polygon fill="#221a14" fill-opacity="0.501961" points="78,125 36,120 48,136" />
<g transform="translate(43.984674 155.424615) rotate(234.475856) scale(26.217569 12.898109)"><ellipse fill="#ffffff" fill-opacity="0.501961" cx="0" cy="0" rx="1" ry="1" /></g>
<polygon fill="#2a1e11" fill-opacity="0.501961" points="83.986360,231.658888,62.432536,216.113732,55.606209,186.338538,52.176639,260.326402" />
<rect fill="#827b70" fill-opacity="0.501961" x="51" y="196" width="3" height="15" />
<g transform="translate(130.390801 137.579714) rotate(132.414683) scale(15.466964 10.777473)"><ellipse fill="#fffffd" fill-opacity="0.501961" cx="0" cy="0" rx="1" ry="1" /></g>
<polygon fill="#1e160c" fill-opacity="0.501961" points="96.110286,151.483144,71.164404,191.693655,110.473495,198.370064,118.326050,161.576472" />
<polygon fill="#504e44" fill-opacity="0.501961" points="38.962294,234.236529,54.617240,194.315918,73.367051,151.922485,40.605911,217.618463" />
<rect fill="#1b170f" fill-opacity="0.501961" x="46" y="202" width="3" height="54" />
<polygon fill="#392e22" fill-opacity="0.501961" points="105.254112,110.161258,116.919510,132.139246,117.130120,167.515464,96.565259,127.389632" />
<polygon fill="#271f16" fill-opacity="0.501961" points="79,155 44,132 76,121" />
<g transform="translate(140.893555 255.000000) rotate(110.733332) scale(19.554717 24.302203)"><ellipse fill="#ffffff" fill-opacity="0.501961" cx="0" cy="0" rx="1" ry="1" /></g>
<polygon fill="#30251c" fill-opacity="0.501961" points="118.706768,137.282987,121.131064,130.952912,104.987835,143.899777,119.067390,92.775198" />
<polygon fill="#ffffff" fill-opacity="0.501961" points="-16,7 148,-16 71,122" />
<rect fill="#14100a" fill-opacity="0.501961" x="75" y="181" width="47" height="22" />
<g transform="translate(78.840788 212.345471) rotate(304.996242) scale(9.061597 27.044563)"><ellipse fill="#030301" fill-opacity="0.501961" cx="0" cy="0" rx="1" ry="1" /></g>
<g transform="translate(48.353391 158.345508) rotate(233.005169) scale(7.908179 18.968637)"><ellipse fill="#ffffff" fill-opacity="0.501961" cx="0" cy="0" rx="1" ry="1" /></g>
<polygon fill="#6e665b" fill-opacity="0.501961" points="89.330114,120.837877,99.825809,114.672480,121.272095,147.944867,106.534729,125.944967" />
<g transform="translate(131.357213 168.258363) rotate(73.534833) scale(8.255163 14.234169)"><ellipse fill="#ffffff" fill-opacity="0.501961" cx="0" cy="0" rx="1" ry="1" /></g>
<polygon fill="#ffffff" fill-opacity="0.501961" points="40.420196,130.061561,-16.000000,74.738260,19.889567,268.218581,63.421547,157.454903" />
<polygon fill="#6d655a" fill-opacity="0.501961" points="96,136 113,150 99,147" />
<polygon fill="#6c6a62" fill-opacity="0.501961" points="69,177 64,169 63,175" />
<g transform="translate(69.215554 154.355866) rotate(260.839268) scale(6.494499 1.000000)"><ellipse fill="#76604a" fill-opacity="0.501961" cx="0" cy="0" rx="1" ry="1" /></g>
<polygon fill="#2a2117" fill-opacity="0.501961" points="69.852247,130.793156,53.951410,144.897430,48.656063,138.326778,104.525512,167.221586" />
<path stroke="#81796c" stroke-opacity="0.501961" fill="none" d="M 49.848852 240.622813 Q 51.988411 211.394525, 54.111441 181.622019" stroke-width="0.500000" />
<polygon fill="#231d14" fill-opacity="0.501961" points="107.665462,164.022984,54.932671,199.441234,54.598948,180.061334,106.191084,160.452669" />
<polygon fill="#16130c" fill-opacity="0.501961" points="107.651411,105.451123,121.442245,93.348376,122.812739,100.453199,106.685793,119.653496" />
<g transform="translate(41.730779 120.028769) rotate(136.372744) scale(4.775857 7.020421)"><ellipse fill="#29241c" fill-opacity="0.501961" cx="0" cy="0" rx="1" ry="1" /></g>
<polygon fill="#ffffff" fill-opacity="0.501961" points="41.313187,248.568380,-2.964110,181.702203,43.054763,192.448798,37.975991,239.169947" />
<rect fill="#88796c" fill-opacity="0.501961" x="50" y="212" width="2" height="31" />
<rect fill="#494036" fill-opacity="0.501961" x="75" y="120" width="7" height="15" />
<polygon fill="#2d241a" fill-opacity="0.501961" points="107.840138,119.839302,107.005934,150.773411,127.590456,122.451418,120.474013,104.701742" />
<rect fill="#ffffff" fill-opacity="0.501961" x="0" y="0" width="95" height="114" />
<polygon fill="#ffffff" fill-opacity="0.501961" points="185.000000,265.881022,118.992670,256.395818,126.160484,218.956804,120.909598,149.339940" />
<polygon fill="#423629" fill-opacity="0.501961" points="57,229 71,225 59,216" />
<rect fill="#0f0d07" fill-opacity="0.501961" x="121" y="99" width="5" height="26" />
<polygon fill="#120a03" fill-opacity="0.501961" points="121.851037,231.164915,79.488998,237.758924,51.424734,236.269518,69.798228,260.420453" />
<g transform="translate(46.080351 247.050770) rotate(253.526528) scale(17.265447 2.634380)"><ellipse fill="#241a0b" fill-opacity="0.501961" cx="0" cy="0" rx="1" ry="1" /></g>
<g transform="translate(48 222) rotate(13) scale(1 37)"><rect fill="#201c15" fill-opacity="0.501961" x="-0.5" y="-0.5" width="1" height="1" /></g>
<g transform="translate(63 129) rotate(82) scale(16 10)"><rect fill="#16110c" fill-opacity="0.501961" x="-0.5" y="-0.5" width="1" height="1" /></g>
<polygon fill="#4b3c29" fill-opacity="0.501961" points="117.290169,198.063039,122.142024,212.795697,124.759309,224.908550,122.877537,232.509087" />
<polygon fill="#1c140b" fill-opacity="0.501961" points="104.645532,148.497161,108.184884,211.589639,63.726344,152.174000,70.363588,189.769348" />
<polygon fill="#ffffff" fill-opacity="0.501961" points="159,113 122,129 124,211" />
<polygon fill="#ffffff" fill-opacity="0.501961" points="47.520354,157.923623,6.915356,42.606382,-11.711462,227.764243,69.074147,147.141464" />
<polygon fill="#57432f" fill-opacity="0.501961" points="56.607326,245.873608,51.342015,239.078658,47.053999,233.921125,64.868913,271.000000" />
<g transform="translate(49 201) rotate(105) scale(12 1)"><rect fill="#292e29" fill-opacity="0.501961" x="-0.5" y="-0.5" width="1" height="1" /></g>
<rect fill="#261609" fill-opacity="0.501961" x="90" y="246" width="27" height="10" />
<rect fill="#3a332b" fill-opacity="0.501961" x="35" y="246" width="9" height="10" />
<polygon fill="#010100" fill-opacity="0.501961" points="76.247398,202.068162,70.092698,178.525214,64.374617,185.275563,69.128366,214.303585" />
<g transform="translate(84 132) rotate(254) scale(8 5)"><rect fill="#0e0805" fill-opacity="0.501961" x="-0.5" y="-0.5" width="1" height="1" /></g>
<polygon fill="#483a2c" fill-opacity="0.501961" points="104,148 109,164 113,145" />
<rect fill="#15100a" fill-opacity="0.501961" x="98" y="123" width="4" height="14" />
<polygon fill="#19120a" fill-opacity="0.501961" points="114,99 120,92 125,113" />
<g transform="translate(37 117) rotate(71) scale(1 7)"><rect fill="#3c3125" fill-opacity="0.501961" x="-0.5" y="-0.5" width="1" height="1" /></g>
<polygon fill="#ffffff" fill-opacity="0.501961" points="-16.000000,111.913744,91.912882,115.032062,107.317467,108.824226,127.973946,45.072126" />
<polygon fill="#696157" fill-opacity="0.501961" points="78,118 85,125 103,115" />
<ellipse fill="#433625" fill-opacity="0.501961" cx="93" cy="237" rx="3" ry="3" />
<rect fill="#ffffff" fill-opacity="0.501961" x="0" y="200" width="34" height="56" />
<polygon fill="#ffffff" fill-opacity="0.501961" points="33.159685,106.849728,56.825301,117.881867,73.202852,122.638871,156.556496,21.354670" />
<path stroke="#f6f6f3" stroke-opacity="0.501961" fill="none" d="M 104.940665 114.849112 Q 80.044488 115.373597, -16.000000 110.522641" stroke-width="0.500000" />
<g transform="translate(24.010483 183.563661) rotate(110.392068) scale(5.205483 30.584542)"><ellipse fill="#ffffff" fill-opacity="0.501961" cx="0" cy="0" rx="1" ry="1" /></g>
<polygon fill="#fefefd" fill-opacity="0.501961" points="125.512390,134.808379,130.925886,91.313167,102.722296,89.188056,185.000000,83.163818" />
<g transform="translate(67.335730 156.039752) rotate(344.871191) scale(1.825309 4.992706)"><ellipse fill="#231b10" fill-opacity="0.501961" cx="0" cy="0" rx="1" ry="1" /></g>
<polygon fill="#ffffff" fill-opacity="0.501961" points="59.573461,175.836796,1.930900,88.924296,52.291273,143.939215,65.457628,148.716772" />
<polygon fill="#fffefd" fill-opacity="0.501961" points="121.057663,208.107420,131.530246,215.358512,116.065875,251.854324,143.926341,252.217292" />
<polygon fill="#ffffff" fill-opacity="0.501961" points="103.809614,113.636694,98.744020,116.144599,143.194411,56.658425,57.250357,119.350073" />
<polygon fill="#2f291f" fill-opacity="0.501961" points="112.922089,173.610766,125.018633,185.191944,108.933994,180.650446,107.156960,155.206068" />
<path stroke="#e0dfd6" stroke-opacity="0.501961" fill="none" d="M 128.950767 207.488144 Q 121.567155 197.374480, 122.484860 185.425524" stroke-width="0.500000" />
<polygon fill="#bdbfb8" fill-opacity="0.501961" points="64.697691,168.544387,62.578161,154.804695,65.490347,168.533864,45.983696,192.369124" />
<g transform="translate(87 165) rotate(501) scale(2 5)"><rect fill="#6a5c4b" fill-opacity="0.501961" x="-0.5" y="-0.5" width="1" height="1" /></g>
<ellipse fill="#21180d" fill-opacity="0.501961" cx="124" cy="101" rx="5" ry="11" />
<rect fill="#ffffff" fill-opacity="0.501961" x="119" y="167" width="13" height="11" />
<polygon fill="#000000" fill-opacity="0.501961" points="76,237 64,258 89,237" />
<g transform="translate(46.800913 206.863449) rotate(101.098005) scale(9.786385 1.000000)"><ellipse fill="#454843" fill-opacity="0.501961" cx="0" cy="0" rx="1" ry="1" /></g>
<polygon fill="#251a0e" fill-opacity="0.501961" points="51.921980,220.703546,55.147119,212.494871,73.890256,271.000000,63.678957,271.000000" />
<polygon fill="#33322c" fill-opacity="0.501961" points="57.756605,178.031313,52.350083,199.188249,62.880661,195.775747,60.799878,180.930610" />
<g transform="translate(102 162) rotate(332) scale(14 24)"><rect fill="#1d170f" fill-opacity="0.501961" x="-0.5" y="-0.5" width="1" height="1" /></g>
<polygon fill="#ffffff" fill-opacity="0.501961" points="40,244 38,225 24,228" />
<g transform="translate(107.512216 128.194365) rotate(327.309262) scale(2.110661 14.128214)"><ellipse fill="#43392f" fill-opacity="0.501961" cx="0" cy="0" rx="1" ry="1" /></g>
<polygon fill="#665945" fill-opacity="0.501961" points="121.565256,237.800222,120.583731,214.150777,123.603034,187.828268,119.973860,239.126461" />
<path stroke="#2c2a24" stroke-opacity="0.501961" fill="none" d="M 40.716239 215.159789 Q 61.367678 187.647953, 88.640481 209.764830" stroke-width="0.500000" />
<g transform="translate(137.184979 70.607207) rotate(414.287678) scale(15.995089 28.235301)"><ellipse fill="#ffffff" fill-opacity="0.501961" cx="0" cy="0" rx="1" ry="1" /></g>
<rect fill="#5f4d3c" fill-opacity="0.501961" x="68" y="149" width="4" height="12" />
<g transform="translate(79.936602 127.287069) rotate(40.139918) scale(1.000000 7.186669)"><ellipse fill="#6b5d4e" fill-opacity="0.501961" cx="0" cy="0" rx="1" ry="1" /></g>
<g transform="translate(109.899677 163.190525) rotate(70.679296) scale(5.503749 10.467731)"><ellipse fill="#2b2318" fill-opacity="0.501961" cx="0" cy="0" rx="1" ry="1" /></g>
<path stroke="#3c3c34" stroke-opacity="0.501961" fill="none" d="M 54.022489 183.128187 Q 51.236223 197.661965, 68.533324 194.629608" stroke-width="0.500000" />
<g transform="translate(93 145) rotate(297) scale(19 4)"><rect fill="#5a554e" fill-opacity="0.501961" x="-0.5" y="-0.5" width="1" height="1" /></g>
<ellipse fill="#654e2d" fill-opacity="0.501961" cx="43" cy="114" rx="1" ry="1" />
<polygon fill="#241b10" fill-opacity="0.501961" points="39.772155,226.212751,53.631875,258.375134,57.427891,247.799461,44.244866,248.466651" />
<g transform="translate(51 126) rotate(148) scale(9 18)"><rect fill="#221a16" fill-opacity="0.501961" x="-0.5" y="-0.5" width="1" height="1" /></g>
<g transform="translate(96 211) rotate(344) scale(49 7)"><rect fill="#080602" fill-opacity="0.501961" x="-0.5" y="-0.5" width="1" height="1" /></g>
<g transform="translate(93 255) rotate(352) scale(3 8)"><rect fill="#4a3e30" fill-opacity="0.501961" x="-0.5" y="-0.5" width="1" height="1" /></g>
<rect fill="#22180c" fill-opacity="0.501961" x="113" y="143" width="2" height="39" />
<polygon fill="#322a23" fill-opacity="0.501961" points="66.163511,135.636772,42.206310,131.436680,65.852694,148.305783,64.041639,141.861880" />
<polygon fill="#ffffff" fill-opacity="0.501961" points="-9.557311,271.000000,12.800327,152.121852,54.338685,191.191768,45.606237,199.141521" />
<g transform="translate(99 145) rotate(22) scale(6 8)"><rect fill="#757470" fill-opacity="0.501961" x="-0.5" y="-0.5" width="1" height="1" /></g>
<rect fill="#41403c" fill-opacity="0.501961" x="103" y="112" width="4" height="18" />
<ellipse fill="#514c45" fill-opacity="0.501961" cx="97" cy="137" rx="7" ry="4" />
<rect fill="#090300" fill-opacity="0.501961" x="95" y="241" width="9" height="15" />
<g transform="translate(109 120) rotate(215) scale(10 10)"><rect fill="#1e1b16" fill-opacity="0.501961" x="-0.5" y="-0.5" width="1" height="1" /></g>
<ellipse fill="#ffffff" fill-opacity="0.501961" cx="142" cy="224" rx="18" ry="163" />
<polygon fill="#1d1611" fill-opacity="0.501961" points="66.988976,145.534404,64.255523,124.018278,50.060373,141.910594,71.349339,133.931217" />
<polygon fill="#fefefe" fill-opacity="0.501961" points="47.326760,202.401590,7.343942,144.200111,34.342390,212.138019,48.175719,201.716370" />
<g transform="translate(148.839158 132.441085) rotate(79.635316) scale(4.152160 32.838678)"><ellipse fill="#fefefd" fill-opacity="0.501961" cx="0" cy="0" rx="1" ry="1" /></g>
<path stroke="#433c32" stroke-opacity="0.501961" fill="none" d="M 87.783341 140.354316 Q 39.282322 142.854042, 36.753888 120.273120" stroke-width="0.500000" />
<g transform="translate(161.279781 26.351672) rotate(-20.647432) scale(17.048314 69.930930)"><ellipse fill="#fcfdfa" fill-opacity="0.501961" cx="0" cy="0" rx="1" ry="1" /></g>
<polygon fill="#0e0b06" fill-opacity="0.501961" points="104.233134,223.943591,70.365345,202.446854,97.779182,183.962509,117.019874,231.578677" />
<polygon fill="#261b11" fill-opacity="0.501961" points="50.971426,119.393532,69.513193,145.985184,71.430022,156.665523,86.778657,147.099709" />
<polygon fill="#282219" fill-opacity="0.501961" points="67.034113,174.394213,65.624688,166.854336,73.359780,165.541049,76.828625,193.004522" />
<polygon fill="#4a3f32" fill-opacity="0.501961" points="116,175 116,178 121,180" />
<polygon fill="#1d1309" fill-opacity="0.501961" points="66.657322,166.822460,108.541479,169.110213,120.796286,155.266542,100.194612,189.940815" />
<polygon fill="#3d3327" fill-opacity="0.501961" points="59,144 51,136 55,144" />
<polygon fill="#2b2014" fill-opacity="0.501961" points="122,232 121,217 103,232" />
<polygon fill="#433221" fill-opacity="0.501961" points="121.417183,125.178293,106.288731,148.849764,120.000995,152.423866,109.714134,141.901476" />
<path stroke="#9c8a6b" stroke-opacity="0.501961" fill="none" d="M 124.496120 225.095854 Q 118.028412 250.305272, 114.959389 250.277618" stroke-width="0.500000" />
<g transform="translate(40 251) rotate(155) scale(1 19)"><rect fill="#433e37" fill-opacity="0.501961" x="-0.5" y="-0.5" width="1" height="1" /></g>
<g transform="translate(43 221) rotate(85) scale(17 1)"><rect fill="#5d564a" fill-opacity="0.501961" x="-0.5" y="-0.5" width="1" height="1" /></g>
<g transform="translate(43 255) rotate(355) scale(1 59)"><rect fill="#423726" fill-opacity="0.501961" x="-0.5" y="-0.5" width="1" height="1" /></g>
<polygon fill="#ffffff" fill-opacity="0.501961" points="-2.977840,152.548269,37.522571,113.560882,87.637184,112.315654,-16.000000,94.990771" />
</g>
</svg>