<svg xmlns="http://www.w3.org/2000/svg" version="1.1" width="1024" height="680">
<rect x="0" y="0" width="1024" height="680" fill="#35362d" />
<g transform="scale(4.000000) translate(0.5 0.5)">
<g transform="translate(103.612877 120.949629) rotate(281.495935) scale(25.232435 48.286753)"><ellipse fill="#b5b7b4" fill-opacity="0.501961" cx="0" cy="0" rx="1" ry="1" /></g>
<g transform="translate(214.243852 32.946452) rotate(34.226124) scale(196.560642 45.349411)"><ellipse fill="#000000" fill-opacity="0.501961" cx="0" cy="0" rx="1" ry="1" /></g>
<g transform="translate(162.058896 122.201183) rotate(175.383466) scale(66.026033 52.623012)"><ellipse fill="#6e7062" fill-opacity="0.501961" cx="0" cy="0" rx="1" ry="1" /></g>
<g transform="translate(33.695571 34.622709) rotate(224.919497) scale(44.065648 255.000000)"><ellipse fill="#020000" fill-opacity="0.501961" cx="0" cy="0" rx="1" ry="1" /></g>
<ellipse fill="#b9c1c4" fill-opacity="0.501961" cx="74" cy="110" rx="12" ry="31" />
<polygon fill="#caab98" fill-opacity="0.501961" points="114.820463,27.507077,145.530415,34.530035,155.124323,55.638287,93.363923,41.823186" />
<g transform="translate(240.909061 40.399580) rotate(-3.639848) scale(91.064777 40.511154)"><ellipse fill="#000000" fill-opacity="0.501961" cx="0" cy="0" rx="1" ry="1" /></g>
<g transform="translate(196 133) rotate(260) scale(14 40)"><rect fill="#afb8bd" fill-opacity="0.501961" x="-0.5" y="-0.5" width="1" height="1" /></g>
<rect fill="#b7b5bb" fill-opacity="0.501961" x="143" y="42" width="9" height="44" />
<g transform="translate(105.832839 158.310462) rotate(89.571060) scale(17.701677 214.778839)"><ellipse fill="#415836" fill-opacity="0.501961" cx="0" cy="0" rx="1" ry="1" /></g>
<ellipse fill="#a7a6a8" fill-opacity="0.501961" cx="101" cy="133" rx="47" ry="9" />
<polygon fill="#131c0f" fill-opacity="0.501961" points="50.875157,139.360325,3.304731,125.136902,67.951595,60.980636,62.505373,128.502404" />
<polygon fill="#2a2016" fill-opacity="0.501961" points="103,102 180,84 124,120" />
<rect fill="#000000" fill-opacity="0.501961" x="227" y="0" width="29" height="127" />
<ellipse fill="#020204" fill-opacity="0.501961" cx="112" cy="11" rx="74" ry="18" />
<polygon fill="#7e583d" fill-opacity="0.501961" points="106,29 68,56 143,52" />
<ellipse fill="#425039" fill-opacity="0.501961" cx="67" cy="159" rx="185" ry="21" />
<polygon fill="#1d0900" fill-opacity="0.501961" points="107,46 94,87 61,72" />
<polygon fill="#aaa1a5" fill-opacity="0.501961" points="166,79 129,86 147,66" />
<polygon fill="#9fa8aa" fill-opacity="0.501961" points="62,99 91,94 74,77" />
<polygon fill="#2e211b" fill-opacity="0.501961" points="184.566958,105.750156,214.627855,126.628855,221.057696,112.108625,187.887456,95.513138" />
<ellipse fill="#565041" fill-opacity="0.501961" cx="109" cy="90" rx="15" ry="24" />
<polygon fill="#251610" fill-opacity="0.501961" points="171,83 155,80 179,130" />
<g transform="translate(138.885147 39.022972) rotate(218.248879) scale(14.685997 4.262459)"><ellipse fill="#b3bbbe" fill-opacity="0.501961" cx="0" cy="0" rx="1" ry="1" /></g>
<polygon fill="#7a6965" fill-opacity="0.501961" points="178.672761,102.680691,214.366884,84.889677,199.517248,76.433701,165.424022,77.691541" />
<polygon fill="#94938f" fill-opacity="0.501961" points="53.962544,143.336672,45.394510,159.208345,64.979309,120.380307,168.543731,123.951587" />
<g transform="translate(166 122) rotate(246) scale(39 7)"><rect fill="#867f7e" fill-opacity="0.501961" x="-0.5" y="-0.5" width="1" height="1" /></g>
<g transform="translate(197 130) rotate(83) scale(25 19)"><rect fill="#939894" fill-opacity="0.501961" x="-0.5" y="-0.5" width="1" height="1" /></g>
<ellipse fill="#0b0805" fill-opacity="0.501961" cx="174" cy="59" rx="25" ry="15" />
<polygon fill="#1e0a00" fill-opacity="0.501961" points="136,77 93,57 145,62" />
<ellipse fill="#262f20" fill-opacity="0.501961" cx="186" cy="145" rx="92" ry="4" />
<ellipse fill="#6c6c63" fill-opacity="0.501961" cx="93" cy="109" rx="16" ry="21" />
<polygon fill="#887361" fill-opacity="0.501961" points="94.760009,36.489444,127.765795,24.051990,90.914983,49.936163,66.249302,63.190264" />
<polygon fill="#8d9494" fill-opacity="0.501961" points="148.423478,131.760973,134.193077,143.766364,112.608801,139.596192,145.646739,105.949398" />
<rect fill="#0d1702" fill-opacity="0.501961" x="2" y="110" width="59" height="11" />
<polygon fill="#000000" fill-opacity="0.501961" points="125.127595,19.954381,139.212365,25.361823,98.924159,30.605702,32.681084,-16.000000" />
<polygon fill="#736e6d" fill-opacity="0.501961" points="157.189468,77.386218,115.820396,76.274923,139.027914,97.431602,153.627567,92.183867" />
<rect fill="#110f0b" fill-opacity="0.501961" x="146" y="138" width="23" height="8" />
<ellipse fill="#4c5b40" fill-opacity="0.501961" cx="98" cy="157" rx="68" ry="11" />
<g transform="translate(23.816661 78.194338) rotate(209.417743) scale(46.005236 29.488483)"><ellipse fill="#262324" fill-opacity="0.501961" cx="0" cy="0" rx="1" ry="1" /></g>
<polygon fill="#7b6961" fill-opacity="0.501961" points="204.346832,81.268137,218.666596,93.146914,225.885113,102.538099,201.310588,102.184407" />
<polygon fill="#9d9b9a" fill-opacity="0.501961" points="156.861242,75.582819,149.097077,58.925353,144.093183,43.137049,149.295114,86.168832" />
<ellipse fill="#030000" fill-opacity="0.501961" cx="240" cy="77" rx="25" ry="25" />
<polygon fill="#c2c7c6" fill-opacity="0.501961" points="78,119 53,136 85,127" />
<polygon fill="#2e4528" fill-opacity="0.501961" points="271.000000,116.711299,271.000000,150.429406,215.963193,147.978479,208.510272,131.298031" />
<polygon fill="#020403" fill-opacity="0.501961" points="121.739416,22.762907,150.996026,27.962734,165.049685,58.305590,143.938783,35.736775" />
<polygon fill="#6a6d6b" fill-opacity="0.501961" points="176,104 223,127 215,138" />
<rect fill="#4a4b4f" fill-opacity="0.501961" x="27" y="100" width="21" height="8" />
<polygon fill="#2f2421" fill-opacity="0.501961" points="78.915835,147.832601,77.477170,135.171357,100.965847,146.939572,50.061148,142.051212" />
<g transform="translate(102.515650 58.257938) rotate(351.637694) scale(5.104735 13.119920)"><ellipse fill="#201102" fill-opacity="0.501961" cx="0" cy="0" rx="1" ry="1" /></g>
<ellipse fill="#1a1a1b" fill-opacity="0.501961" cx="127" cy="4" rx="40" ry="10" />
<g transform="translate(122.718178 50.732537) rotate(334.032104) scale(16.946775 9.286897)"><ellipse fill="#624730" fill-opacity="0.501961" cx="0" cy="0" rx="1" ry="1" /></g>
<polygon fill="#2e221d" fill-opacity="0.501961" points="152.166752,117.860078,153.240867,124.248384,158.869841,94.147383,141.138811,96.071700" />
<g transform="translate(21.395293 12.664919) rotate(336.664881) scale(33.833892 88.108575)"><ellipse fill="#201c17" fill-opacity="0.501961" cx="0" cy="0" rx="1" ry="1" /></g>
<polygon fill="#373029" fill-opacity="0.501961" points="179.657855,130.575933,189.968421,125.663277,177.110130,110.462664,167.381797,119.555537" />
<polygon fill="#a1a0a2" fill-opacity="0.501961" points="121,120 92,139 103,142" />
<polygon fill="#334827" fill-opacity="0.501961" points="61,122 -16,132 50,146" />
<g transform="translate(136.179433 62.266658) rotate(297.300530) scale(8.562383 9.991232)"><ellipse fill="#241914" fill-opacity="0.501961" cx="0" cy="0" rx="1" ry="1" /></g>
<polygon fill="#b5c0c4" fill-opacity="0.501961" points="135,31 149,41 142,47" />
<g transform="translate(83.427045 80.921887) rotate(214.573083) scale(16.043143 3.901281)"><ellipse fill="#18160c" fill-opacity="0.501961" cx="0" cy="0" rx="1" ry="1" /></g>
<polygon fill="#65696a" fill-opacity="0.501961" points="139,143 123,142 155,128" />
<polygon fill="#3a3727" fill-opacity="0.501961" points="139.172316,101.056058,109.446238,103.475794,136.529856,118.279524,126.965125,82.122360" />
<polygon fill="#7b7976" fill-opacity="0.501961" points="179,75 191,80 177,104" />
<polygon fill="#3f382f" fill-opacity="0.501961" points="229.398855,125.331750,189.031220,85.331134,183.780840,109.463125,205.962409,120.829856" />
<g transform="translate(218.971396 0.773031) rotate(356.610314) scale(51.894433 8.431217)"><ellipse fill="#060301" fill-opacity="0.501961" cx="0" cy="0" rx="1" ry="1" /></g>
<polygon fill="#848a85" fill-opacity="0.501961" points="64,120 105,123 78,93" />
<g transform="translate(107.043345 32.084239) rotate(159.336751) scale(10.560856 1.000000)"><ellipse fill="#8c8989" fill-opacity="0.501961" cx="0" cy="0" rx="1" ry="1" /></g>
<rect fill="#000000" fill-opacity="0.501961" x="158" y="84" width="7" height="5" />
<g transform="translate(157.773133 128.511213) rotate(297.540494) scale(8.190259 11.061112)"><ellipse fill="#675151" fill-opacity="0.501961" cx="0" cy="0" rx="1" ry="1" /></g>
<polygon fill="#979e9c" fill-opacity="0.501961" points="185.581033,134.641299,194.177423,144.188006,207.586175,123.483209,187.542466,124.985132" />
<polygon fill="#5f3f24" fill-opacity="0.501961" points="92.698635,58.358923,67.371726,70.117945,70.975095,56.885499,99.539054,49.187124" />
<polygon fill="#876e5a" fill-opacity="0.501961" points="140.524686,49.438003,111.934849,33.557474,123.421546,27.316841,134.775048,36.713064" />
<polygon fill="#646056" fill-opacity="0.501961" points="90.957037,134.809161,88.904035,120.719083,109.983480,127.526249,124.404564,105.518096" />
<polygon fill="#60574c" fill-opacity="0.501961" points="175.942735,69.595410,164.975321,101.502296,80.962977,135.481283,159.106765,99.050967" />
<polygon fill="#726d66" fill-opacity="0.501961" points="155.563377,111.482447,171.329676,104.214348,162.442067,132.173255,157.648382,124.698988" />
<rect fill="#6d787c" fill-opacity="0.501961" x="63" y="86" width="4" height="40" />
<polygon fill="#9c9391" fill-opacity="0.501961" points="170,76 153,70 134,81" />
<polygon fill="#65615b" fill-opacity="0.501961" points="157.228172,125.368059,198.087460,123.591598,179.168489,97.684728,179.726224,131.881732" />
<polygon fill="#243017" fill-opacity="0.501961" points="-16.000000,122.131924,61.934939,130.646277,64.712478,128.057492,57.326622,115.065899" />
<polygon fill="#9ca09c" fill-opacity="0.501961" points="123.456975,123.573007,144.443849,134.824594,89.588550,133.239765,129.895296,117.795351" />
<rect fill="#1e2411" fill-opacity="0.501961" x="226" y="104" width="30" height="26" />
<g transform="translate(112 84) rotate(251) scale(33 24)"><rect fill="#4e493d" fill-opacity="0.501961" x="-0.5" y="-0.5" width="1" height="1" /></g>
<polygon fill="#0e0d09" fill-opacity="0.501961" points="85,37 37,-8 112,27" />
<ellipse fill="#44513b" fill-opacity="0.501961" cx="16" cy="146" rx="52" ry="9" />
<polygon fill="#6e5747" fill-opacity="0.501961" points="156,71 196,75 169,84" />
<ellipse fill="#14110e" fill-opacity="0.501961" cx="146" cy="99" rx="12" ry="3" />
<polygon fill="#0f0201" fill-opacity="0.501961" points="91,144 79,140 73,144" />
<ellipse fill="#45553a" fill-opacity="0.501961" cx="167" cy="148" rx="180" ry="2" />
<rect fill="#100e0c" fill-opacity="0.501961" x="156" y="0" width="62" height="72" />
<polygon fill="#706760" fill-opacity="0.501961" points="219.637777,91.496289,229.870658,111.733170,222.518067,111.118581,202.519612,86.409971" />
<polygon fill="#263020" fill-opacity="0.501961" points="222.178926,137.534036,211.158888,140.697900,161.131090,147.051845,252.643713,143.281126" />
<polygon fill="#9da5a8" fill-opacity="0.501961" points="80.108827,86.029019,72.330375,78.572174,64.058723,115.602521,72.762336,108.225883" />
<polygon fill="#767577" fill-opacity="0.501961" points="150.222345,139.212315,137.219615,142.122206,111.595791,132.432879,114.768810,145.524009" />
<polygon fill="#1f1d1b" fill-opacity="0.501961" points="49,110 -8,-16 73,76" />
<ellipse fill="#050301" fill-opacity="0.501961" cx="232" cy="21" rx="18" ry="83" />
<rect fill="#857d7d" fill-opacity="0.501961" x="56" y="135" width="36" height="5" />
<polygon fill="#090000" fill-opacity="0.501961" points="111,140 107,145 113,147" />
<polygon fill="#211814" fill-opacity="0.501961" points="167.500989,137.072591,161.526864,144.487129,156.344530,143.557653,170.300531,130.984953" />
<polygon fill="#525145" fill-opacity="0.501961" points="127.772974,82.791737,134.642557,122.898045,142.414872,103.617320,83.453543,94.420418" />
<rect fill="#352820" fill-opacity="0.501961" x="157" y="88" width="18" height="12" />
<polygon fill="#7e7f82" fill-opacity="0.501961" points="167,122 187,140 177,143" />
<g transform="translate(135 62) rotate(154) scale(9 7)"><rect fill="#000000" fill-opacity="0.501961" x="-0.5" y="-0.5" width="1" height="1" /></g>
<polygon fill="#5c5d59" fill-opacity="0.501961" points="148.116239,37.188374,145.801782,39.712890,153.717962,47.225758,151.599328,62.012984" />
<polygon fill="#616865" fill-opacity="0.501961" points="209.576346,141.945371,197.775550,143.725048,186.667429,144.985920,226.348754,120.277734" />
<polygon fill="#989b99" fill-opacity="0.501961" points="102.365861,139.906212,149.686733,113.386324,143.083811,132.234528,98.476621,124.921160" />
<g transform="translate(89.679153 47.206986) rotate(324.882219) scale(6.823852 4.499884)"><ellipse fill="#8c745f" fill-opacity="0.501961" cx="0" cy="0" rx="1" ry="1" /></g>
<polygon fill="#010200" fill-opacity="0.501961" points="175.742328,53.581215,108.077431,14.683212,106.460243,26.532685,158.828232,29.321580" />
<g transform="translate(208.409043 114.595327) rotate(25.584703) scale(9.457050 5.757126)"><ellipse fill="#2e281f" fill-opacity="0.501961" cx="0" cy="0" rx="1" ry="1" /></g>
<polygon fill="#8e7e74" fill-opacity="0.501961" points="127.632849,35.042801,110.070650,28.371034,128.881388,28.064754,128.228467,28.046773" />
<polygon fill="#372d1f" fill-opacity="0.501961" points="89.025083,62.029550,95.595681,52.508228,104.220998,66.185276,97.711115,88.661738" />
<rect fill="#635346" fill-opacity="0.501961" x="141" y="53" width="3" height="22" />
<ellipse fill="#b4b3af" fill-opacity="0.501961" cx="81" cy="128" rx="6" ry="6" />
<rect fill="#24321a" fill-opacity="0.501961" x="0" y="117" width="24" height="16" />
<polygon fill="#785f49" fill-opacity="0.501961" points="121.980463,32.394336,135.784611,43.380044,111.998491,49.957176,103.760791,45.384058" />
<polygon fill="#11100f" fill-opacity="0.501961" points="160,140 174,140 174,146" />
<polygon fill="#090e13" fill-opacity="0.501961" points="158.797648,79.891369,164.511048,85.689379,158.541579,94.438443,156.500347,80.974518" />
<polygon fill="#22180b" fill-opacity="0.501961" points="78.942414,83.339552,80.556034,54.583944,94.007018,84.280543,81.373186,85.866828" />
<g transform="translate(177 123) rotate(148) scale(7 14)"><rect fill="#2d271c" fill-opacity="0.501961" x="-0.5" y="-0.5" width="1" height="1" /></g>
<polygon fill="#55473d" fill-opacity="0.501961" points="199,89 225,113 187,98" />
<polygon fill="#5a5b53" fill-opacity="0.501961" points="83.822968,153.655326,88.424909,154.008755,64.263568,140.574427,67.310795,135.960533" />
<polygon fill="#292510" fill-opacity="0.501961" points="131,105 116,102 117,107" />
<g transform="translate(125.975598 71.884692) rotate(84.723915) scale(5.711055 9.002261)"><ellipse fill="#36281b" fill-opacity="0.501961" cx="0" cy="0" rx="1" ry="1" /></g>
<polygon fill="#1b1a16" fill-opacity="0.501961" points="45.296225,63.267389,74.545736,80.488207,49.245776,87.724142,75.317777,51.072151" />
<polygon fill="#9d9b9c" fill-opacity="0.501961" points="145.175519,58.707702,153.483124,80.076289,163.589159,79.788161,158.198949,74.614294" />
<polygon fill="#8d8a88" fill-opacity="0.501961" points="81.115648,128.654064,73.257194,145.573764,69.382164,137.925902,51.396518,138.737779" />
<polygon fill="#4e5742" fill-opacity="0.501961" points="76.478638,161.883519,114.289930,152.938344,80.958411,143.276852,94.832807,128.972364" />
<polygon fill="#5e5e58" fill-opacity="0.501961" points="142.679769,98.673712,122.122110,84.643784,119.140209,78.409117,150.776365,87.360241" />
<polygon fill="#75766f" fill-opacity="0.501961" points="185,114 196,121 202,115" />
<polygon fill="#404e35" fill-opacity="0.501961" points="202.464612,185.000000,182.020575,132.975325,197.996739,156.664170,113.825454,162.280565" />
<polygon fill="#503e2d" fill-opacity="0.501961" points="124.632158,47.597151,128.086554,60.704603,134.990502,56.346246,141.038685,50.843055" />
<rect fill="#030000" fill-opacity="0.501961" x="179" y="144" width="13" height="2" />
<polygon fill="#635346" fill-opacity="0.501961" points="171.257283,72.721970,162.202550,93.640653,178.935089,84.208752,156.110466,72.396285" />
<polygon fill="#999d9e" fill-opacity="0.501961" points="178,131 177,137 190,130" />
<ellipse fill="#434138" fill-opacity="0.501961" cx="153" cy="123" rx="4" ry="4" />
<polygon fill="#5c594c" fill-opacity="0.501961" points="102,102 137,120 115,118" />
<g transform="translate(24 169) rotate(12) scale(76 9)"><rect fill="#344029" fill-opacity="0.501961" x="-0.5" y="-0.5" width="1" height="1" /></g>
<g transform="translate(197.356072 25.522175) rotate(169.494362) scale(9.252799 55.428221)"><ellipse fill="#14130d" fill-opacity="0.501961" cx="0" cy="0" rx="1" ry="1" /></g>
<polygon fill="#7d7570" fill-opacity="0.501961" points="154.472566,70.655489,150.362779,70.272501,127.449522,88.603533,140.134037,72.277094" />
<ellipse fill="#a9aeb1" fill-opacity="0.501961" cx="62" cy="134" rx="4" ry="4" />
<rect fill="#313e28" fill-opacity="0.501961" x="48" y="126" width="8" height="22" />
<rect fill="#2a2c2b" fill-opacity="0.501961" x="44" y="102" width="18" height="9" />
<g transform="translate(143.439944 18.947278) rotate(290.679589) scale(9.639089 42.635275)"><ellipse fill="#111213" fill-opacity="0.501961" cx="0" cy="0" rx="1" ry="1" /></g>
<polygon fill="#7f827e" fill-opacity="0.501961" points="150.166426,44.809907,149.921252,51.263042,132.780209,40.514831,152.989560,59.541223" />
<ellipse fill="#13120e" fill-opacity="0.501961" cx="77" cy="27" rx="26" ry="10" />
<ellipse fill="#18180f" fill-opacity="0.501961" cx="255" cy="110" rx="28" ry="13" />
<g transform="translate(179.760564 66.729597) rotate(192.011738) scale(31.351305 5.510290)"><ellipse fill="#13120c" fill-opacity="0.501961" cx="0" cy="0" rx="1" ry="1" /></g>
<rect fill="#422a14" fill-opacity="0.501961" x="107" y="48" width="4" height="12" />
<polygon fill="#4e4b42" fill-opacity="0.501961" points="170.825778,124.535047,172.988605,89.776106,174.194619,99.468865,164.300546,120.064714" />
<g transform="translate(137 35) rotate(305) scale(1 15)"><rect fill="#c5c9ca" fill-opacity="0.501961" x="-0.5" y="-0.5" width="1" height="1" /></g>
<polygon fill="#73746e" fill-opacity="0.501961" points="147.569981,109.103587,139.129164,107.275157,138.246180,107.288295,131.974718,125.360875" />
<polygon fill="#6d6d69" fill-opacity="0.501961" points="166.017959,110.796349,154.488305,116.279321,177.236502,137.961837,167.913281,143.176311" />
<g transform="translate(38.766671 36.403262) rotate(11.724181) scale(12.488689 33.425161)"><ellipse fill="#221f1a" fill-opacity="0.501961" cx="0" cy="0" rx="1" ry="1" /></g>
<polygon fill="#736e67" fill-opacity="0.501961" points="179.681488,92.525267,176.485408,82.275048,190.056992,77.120579,199.833028,84.849443" />
<g transform="translate(96 142) rotate(201) scale(16 2)"><rect fill="#6d6368" fill-opacity="0.501961" x="-0.5" y="-0.5" width="1" height="1" /></g>
<rect fill="#000000" fill-opacity="0.501961" x="100" y="51" width="4" height="7" />
<g transform="translate(71 64) rotate(138) scale(8 9)"><rect fill="#594533" fill-opacity="0.501961" x="-0.5" y="-0.5" width="1" height="1" /></g>
<ellipse fill="#3d3f3f" fill-opacity="0.501961" cx="32" cy="103" rx="9" ry="6" />
<ellipse fill="#949597" fill-opacity="0.501961" cx="117" cy="135" rx="4" ry="8" />
<g transform="translate(239.929146 68.392560) rotate(242.088098) scale(13.100988 32.216423)"><ellipse fill="#080605" fill-opacity="0.501961" cx="0" cy="0" rx="1" ry="1" /></g>
<g transform="translate(5.749894 110.068175) rotate(276.238796) scale(3.034502 40.720164)"><ellipse fill="#0d1208" fill-opacity="0.501961" cx="0" cy="0" rx="1" ry="1" /></g>
</g>
</svg>