<svg xmlns="http://www.w3.org/2000/svg" version="1.1" width="680" height="1024">
<rect x="0" y="0" width="680" height="1024" fill="#a39a88" />
<g transform="scale(4.000000) translate(0.5 0.5)">
<g transform="translate(0.000000 38.491981) rotate(311.884962) scale(161.159947 35.966301)"><ellipse fill="#000000" fill-opacity="0.501961" cx="0" cy="0" rx="1" ry="1" /></g>
<ellipse fill="#f3e6d9" fill-opacity="0.501961" cx="94" cy="119" rx="84" ry="84" />
<ellipse fill="#280900" fill-opacity="0.501961" cx="81" cy="200" rx="19" ry="102" />
<ellipse fill="#142527" fill-opacity="0.501961" cx="125" cy="228" rx="157" ry="20" />
<ellipse fill="#f4f5f4" fill-opacity="0.501961" cx="15" cy="137" rx="55" ry="55" />
<polygon fill="#413600" fill-opacity="0.501961" points="129.951898,25.717176,76.565804,37.586198,-16.000000,10.272140,85.728928,-12.693020" />
<g transform="translate(149 100) rotate(267) scale(48 58)"><rect fill="#ffffff" fill-opacity="0.501961" x="-0.5" y="-0.5" width="1" height="1" /></g>
<ellipse fill="#2c2200" fill-opacity="0.501961" cx="162" cy="63" rx="39" ry="7" />
<g transform="translate(93.769282 55.609342) rotate(150.614386) scale(47.123211 15.248216)"><ellipse fill="#fffffe" fill-opacity="0.501961" cx="0" cy="0" rx="1" ry="1" /></g>
<g transform="translate(23.821261 47.612746) rotate(344.544092) scale(20.810401 30.994388)"><ellipse fill="#482f03" fill-opacity="0.501961" cx="0" cy="0" rx="1" ry="1" /></g>
<ellipse fill="#f2f7fb" fill-opacity="0.501961" cx="146" cy="161" rx="33" ry="26" />
<polygon fill="#ffd78d" fill-opacity="0.501961" points="94,5 30,61 40,30" />
<g transform="translate(168.457590 14.758818) rotate(309.804830) scale(35.518858 82.452521)"><ellipse fill="#a0871d" fill-opacity="0.501961" cx="0" cy="0" rx="1" ry="1" /></g>
<g transform="translate(25 255) rotate(377) scale(76 62)"><rect fill="#303d3d" fill-opacity="0.501961" x="-0.5" y="-0.5" width="1" height="1" /></g>
<rect fill="#000000" fill-opacity="0.501961" x="72" y="189" width="25" height="50" />
<ellipse fill="#ca976b" fill-opacity="0.501961" cx="96" cy="133" rx="14" ry="64" />
<polygon fill="#c8ccc9" fill-opacity="0.501961" points="81,240 125,248 54,271" />
<g transform="translate(42.661996 0.000000) rotate(306.179346) scale(54.176752 15.195365)"><ellipse fill="#000300" fill-opacity="0.501961" cx="0" cy="0" rx="1" ry="1" /></g>
<rect fill="#080000" fill-opacity="0.501961" x="162" y="35" width="8" height="37" />
<polygon fill="#b5afa1" fill-opacity="0.501961" points="42.182216,222.212172,11.040340,210.724931,69.447989,155.639465,71.726129,235.846164" />
<g transform="translate(121.614229 205.440483) rotate(129.810848) scale(32.771391 17.903444)"><ellipse fill="#afa9a1" fill-opacity="0.501961" cx="0" cy="0" rx="1" ry="1" /></g>
<g transform="translate(29.337228 97.292599) rotate(332.665017) scale(32.646900 12.994280)"><ellipse fill="#ffffff" fill-opacity="0.501961" cx="0" cy="0" rx="1" ry="1" /></g>
<rect fill="#a39e93" fill-opacity="0.501961" x="18" y="127" width="25" height="37" />
<polygon fill="#fdffff" fill-opacity="0.501961" points="158.433844,30.492155,185.000000,33.209865,185.000000,17.542141,159.477370,15.984989" />
<polygon fill="#b3754b" fill-opacity="0.501961" points="52,75 119,105 112,81" />
<polygon fill="#eaeeee" fill-opacity="0.501961" points="117.010835,130.121415,125.429695,187.375186,96.947826,108.517923,185.000000,80.093482" />
<g transform="translate(100.167453 59.590183) rotate(93.940209) scale(18.732099 20.665018)"><ellipse fill="#ffffff" fill-opacity="0.501961" cx="0" cy="0" rx="1" ry="1" /></g>
<ellipse fill="#fff2a7" fill-opacity="0.501961" cx="148" cy="52" rx="10" ry="10" />
<g transform="translate(147.003557 252.467730) rotate(16.723587) scale(31.156634 61.911690)"><ellipse fill="#4f5e62" fill-opacity="0.501961" cx="0" cy="0" rx="1" ry="1" /></g>
<polygon fill="#000000" fill-opacity="0.501961" points="159.597597,4.785581,173.952576,17.415235,169.738798,-3.365493,148.498296,-16.000000" />
<g transform="translate(2.194440 76.291245) rotate(-28.475296) scale(26.997574 11.377726)"><ellipse fill="#392f1c" fill-opacity="0.501961" cx="0" cy="0" rx="1" ry="1" /></g>
<polygon fill="#212f31" fill-opacity="0.501961" points="-16,184 -16,206 21,195" />
<polygon fill="#bd9859" fill-opacity="0.501961" points="-6,53 52,63 69,46" />
<polygon fill="#776403" fill-opacity="0.501961" points="152.942237,47.014977,156.301008,5.457786,129.722427,44.637750,133.827651,40.582444" />
<polygon fill="#3d1c00" fill-opacity="0.501961" points="119.931321,240.831090,112.129212,209.763897,108.493240,205.100747,107.491023,218.678149" />
<g transform="translate(127.653265 0.000000) rotate(279.702188) scale(22.339210 26.028890)"><ellipse fill="#cdba68" fill-opacity="0.501961" cx="0" cy="0" rx="1" ry="1" /></g>
<polygon fill="#e8e8e5" fill-opacity="0.501961" points="61,190 60,146 10,189" />
<ellipse fill="#000000" fill-opacity="0.501961" cx="72" cy="126" rx="5" ry="7" />
<polygon fill="#823f0d" fill-opacity="0.501961" points="60,87 71,103 66,78" />
<g transform="translate(73 142) rotate(205) scale(7 47)"><rect fill="#d0a16f" fill-opacity="0.501961" x="-0.5" y="-0.5" width="1" height="1" /></g>
<ellipse fill="#a79e90" fill-opacity="0.501961" cx="13" cy="132" rx="58" ry="6" />
<polygon fill="#746b27" fill-opacity="0.501961" points="117.459268,-13.983181,93.753534,38.330595,63.646570,40.009277,102.512369,-13.075048" />
<rect fill="#000000" fill-opacity="0.501961" x="75" y="100" width="9" height="10" />
<rect fill="#7e4414" fill-opacity="0.501961" x="57" y="202" width="15" height="18" />
<polygon fill="#582b00" fill-opacity="0.501961" points="70,148 73,191 84,147" />
<ellipse fill="#9d9c98" fill-opacity="0.501961" cx="0" cy="246" rx="60" ry="5" />
<ellipse fill="#f6f1eb" fill-opacity="0.501961" cx="0" cy="145" rx="63" ry="7" />
<g transform="translate(13.305153 107.286616) rotate(98.614748) scale(14.604077 61.053007)"><ellipse fill="#efece7" fill-opacity="0.501961" cx="0" cy="0" rx="1" ry="1" /></g>
<ellipse fill="#333932" fill-opacity="0.501961" cx="156" cy="238" rx="53" ry="9" />
<ellipse fill="#cbbb6e" fill-opacity="0.501961" cx="76" cy="20" rx="9" ry="9" />
<polygon fill="#c19268" fill-opacity="0.501961" points="96,136 75,182 118,168" />
<polygon fill="#d8cfa4" fill-opacity="0.501961" points="126,62 92,30 140,26" />
<g transform="translate(25 62) rotate(341) scale(11 26)"><rect fill="#2f2816" fill-opacity="0.501961" x="-0.5" y="-0.5" width="1" height="1" /></g>
<rect fill="#fbfaf7" fill-opacity="0.501961" x="11" y="80" width="44" height="22" />
<polygon fill="#d9d7d6" fill-opacity="0.501961" points="12.470973,214.886561,-16.000000,216.573386,10.230921,209.088609,33.373385,215.692270" />
<g transform="translate(129.510766 88.811903) rotate(198.928615) scale(25.412285 6.365602)"><ellipse fill="#f6fafc" fill-opacity="0.501961" cx="0" cy="0" rx="1" ry="1" /></g>
<polygon fill="#7b5c39" fill-opacity="0.501961" points="102.323126,160.314443,89.469630,182.443264,60.185809,196.834620,101.212081,191.792677" />
<polygon fill="#222d2b" fill-opacity="0.501961" points="13.683507,251.575584,25.495457,246.065628,43.290747,271.000000,-16.000000,249.707180" />
<polygon fill="#7c7f78" fill-opacity="0.501961" points="27.748517,162.824109,14.245854,154.747617,35.349899,154.208543,51.007819,152.915552" />
<polygon fill="#819091" fill-opacity="0.501961" points="185,210 127,198 121,229" />
<rect fill="#e1b899" fill-opacity="0.501961" x="102" y="153" width="6" height="82" />
<g transform="translate(134 134) rotate(350) scale(82 10)"><rect fill="#a8adab" fill-opacity="0.501961" x="-0.5" y="-0.5" width="1" height="1" /></g>
<polygon fill="#ffffff" fill-opacity="0.501961" points="55,201 34,203 47,208" />
<rect fill="#425352" fill-opacity="0.501961" x="25" y="211" width="25" height="36" />
<polygon fill="#edd8c6" fill-opacity="0.501961" points="92.859054,110.392475,100.793059,83.960835,84.388730,103.997314,91.939559,120.586229" />
<g transform="translate(53 40) rotate(440) scale(20 20)"><rect fill="#e5c6a6" fill-opacity="0.501961" x="-0.5" y="-0.5" width="1" height="1" /></g>
<polygon fill="#e1e1dd" fill-opacity="0.501961" points="118,140 163,186 113,184" />
<polygon fill="#ffffff" fill-opacity="0.501961" points="143.122715,155.473410,185.000000,147.944545,119.860357,144.372029,116.169492,155.293728" />
<rect fill="#060400" fill-opacity="0.501961" x="87" y="86" width="8" height="5" />
<g transform="translate(98 110) rotate(108) scale(53 8)"><rect fill="#b36f3c" fill-opacity="0.501961" x="-0.5" y="-0.5" width="1" height="1" /></g>
<polygon fill="#b2931b" fill-opacity="0.501961" points="12.230280,6.779631,0.114648,2.538241,62.221393,-16.000000,17.004672,4.571040" />
<polygon fill="#d9bda5" fill-opacity="0.501961" points="107.323869,183.626744,92.921181,83.664356,35.741786,73.977147,99.199465,73.081322" />
<g transform="translate(0 188) rotate(113) scale(15 12)"><rect fill="#6b6155" fill-opacity="0.501961" x="-0.5" y="-0.5" width="1" height="1" /></g>
<polygon fill="#827840" fill-opacity="0.501961" points="124,68 126,54 175,72" />
<g transform="translate(156 250) rotate(6) scale(16 1)"><rect fill="#ffffff" fill-opacity="0.501961" x="-0.5" y="-0.5" width="1" height="1" /></g>
<polygon fill="#c9c6be" fill-opacity="0.501961" points="167.088907,183.810375,162.727245,153.055900,132.551206,159.443519,135.272960,192.157831" />
<g transform="translate(4.324895 160.715451) rotate(122.669562) scale(41.221362 7.721995)"><ellipse fill="#eee4db" fill-opacity="0.501961" cx="0" cy="0" rx="1" ry="1" /></g>
<polygon fill="#3a3a18" fill-opacity="0.501961" points="109,11 89,37 92,10" />
<g transform="translate(130.508109 198.472093) rotate(359.364030) scale(24.827634 1.685801)"><ellipse fill="#d2d9d9" fill-opacity="0.501961" cx="0" cy="0" rx="1" ry="1" /></g>
<g transform="translate(73 254) rotate(171) scale(71 1)"><rect fill="#e9e6df" fill-opacity="0.501961" x="-0.5" y="-0.5" width="1" height="1" /></g>
<polygon fill="#4b1f00" fill-opacity="0.501961" points="109,225 123,212 108,213" />
<ellipse fill="#f8f0e7" fill-opacity="0.501961" cx="43" cy="248" rx="11" ry="2" />
<polygon fill="#0d0d03" fill-opacity="0.501961" points="96.808941,207.997944,79.629472,197.665163,65.755458,241.010910,92.014455,228.176130" />
<polygon fill="#50544b" fill-opacity="0.501961" points="113.047389,236.101618,67.097271,238.068641,42.495934,256.196562,29.172035,271.000000" />
<g transform="translate(11.620312 243.018349) rotate(362.589102) scale(12.174389 2.812128)"><ellipse fill="#baafa6" fill-opacity="0.501961" cx="0" cy="0" rx="1" ry="1" /></g>
<ellipse fill="#171a08" fill-opacity="0.501961" cx="39" cy="9" rx="34" ry="7" />
<polygon fill="#111900" fill-opacity="0.501961" points="185,67 155,66 182,26" />
<ellipse fill="#785d14" fill-opacity="0.501961" cx="163" cy="40" rx="34" ry="5" />
<rect fill="#a39269" fill-opacity="0.501961" x="5" y="49" width="10" height="12" />
<polygon fill="#e2d0c1" fill-opacity="0.501961" points="90.455136,117.534099,94.384117,90.853774,59.931622,84.212441,115.114244,120.420298" />
<ellipse fill="#ebd8a7" fill-opacity="0.501961" cx="143" cy="51" rx="19" ry="9" />
<g transform="translate(69 102) rotate(260) scale(16 3)"><rect fill="#633003" fill-opacity="0.501961" x="-0.5" y="-0.5" width="1" height="1" /></g>
<polygon fill="#b04800" fill-opacity="0.501961" points="117,90 110,103 118,101" />
<polygon fill="#946b1c" fill-opacity="0.501961" points="88.370923,2.376964,51.857318,24.330157,31.772949,28.023792,34.173466,41.959777" />
<ellipse fill="#cec7bd" fill-opacity="0.501961" cx="20" cy="106" rx="46" ry="4" />
<rect fill="#141300" fill-opacity="0.501961" x="65" y="32" width="13" height="5" />
<polygon fill="#fff5ed" fill-opacity="0.501961" points="185,211 157,205 181,203" />
<g transform="translate(100 214) rotate(266) scale(41 6)"><rect fill="#a6805c" fill-opacity="0.501961" x="-0.5" y="-0.5" width="1" height="1" /></g>
<rect fill="#bc8d60" fill-opacity="0.501961" x="63" y="144" width="8" height="65" />
<rect fill="#a86125" fill-opacity="0.501961" x="57" y="88" width="5" height="14" />
<rect fill="#fdfefb" fill-opacity="0.501961" x="72" y="44" width="44" height="25" />
<polygon fill="#f4f6f5" fill-opacity="0.501961" points="105.575904,97.952951,124.853469,115.851505,112.814584,123.743203,107.126175,120.491651" />
<polygon fill="#b69a59" fill-opacity="0.501961" points="45,76 25,54 44,42" />
<rect fill="#ab5818" fill-opacity="0.501961" x="110" y="159" width="4" height="16" />
<polygon fill="#72431c" fill-opacity="0.501961" points="69,87 78,82 92,85" />
<g transform="translate(92 247) rotate(275) scale(1 61)"><rect fill="#c9c0b6" fill-opacity="0.501961" x="-0.5" y="-0.5" width="1" height="1" /></g>
<polygon fill="#eae8e1" fill-opacity="0.501961" points="48,93 67,118 79,115" />
<ellipse fill="#1d2017" fill-opacity="0.501961" cx="60" cy="237" rx="64" ry="2" />
<polygon fill="#f5e9dd" fill-opacity="0.501961" points="79,77 71,74 61,91" />
<polygon fill="#887826" fill-opacity="0.501961" points="68.797321,15.428983,93.561387,8.307216,166.582327,41.960404,70.200654,-16.000000" />
<rect fill="#583a1b" fill-opacity="0.501961" x="0" y="0" width="7" height="86" />
<polygon fill="#9eab9e" fill-opacity="0.501961" points="95,25 120,32 94,43" />
<rect fill="#130000" fill-opacity="0.501961" x="101" y="81" width="4" height="6" />
<ellipse fill="#bdbeb9" fill-opacity="0.501961" cx="147" cy="102" rx="31" ry="3" />
<polygon fill="#d8c688" fill-opacity="0.501961" points="145.723110,-16.000000,137.164418,-3.017062,128.454546,21.277870,145.878797,17.113166" />
<polygon fill="#756956" fill-opacity="0.501961" points="10,128 -5,132 3,139" />
<rect fill="#ffffff" fill-opacity="0.501961" x="120" y="87" width="50" height="11" />
<rect fill="#e1e1e0" fill-opacity="0.501961" x="0" y="203" width="52" height="3" />
<rect fill="#b79f83" fill-opacity="0.501961" x="65" y="133" width="13" height="18" />
<ellipse fill="#3a545a" fill-opacity="0.501961" cx="25" cy="194" rx="8" ry="3" />
<polygon fill="#b5c2c6" fill-opacity="0.501961" points="104.256972,71.661306,147.031003,67.425827,125.771870,87.246164,95.592529,68.508437" />
<polygon fill="#6d8288" fill-opacity="0.501961" points="152.532104,190.405524,173.889882,203.380535,149.865007,195.939888,97.069925,195.464950" />
<polygon fill="#9a6f27" fill-opacity="0.501961" points="10.260181,24.319831,6.309120,-0.602584,28.973132,-7.063869,-11.734965,26.554236" />
<rect fill="#161411" fill-opacity="0.501961" x="12" y="7" width="17" height="41" />
<g transform="translate(73 123) rotate(367) scale(5 10)"><rect fill="#000000" fill-opacity="0.501961" x="-0.5" y="-0.5" width="1" height="1" /></g>
<polygon fill="#ae9120" fill-opacity="0.501961" points="140.654255,65.461748,124.871759,57.651452,159.524456,59.563663,154.930024,63.414055" />
<polygon fill="#beb0a2" fill-opacity="0.501961" points="99,232 103,216 116,234" />
<polygon fill="#2e2c22" fill-opacity="0.501961" points="8.522279,75.702221,13.623608,67.325896,23.916543,43.276650,23.157073,78.902804" />
<polygon fill="#efe7de" fill-opacity="0.501961" points="79.623535,100.311749,81.088309,83.158616,45.580159,127.428824,65.345888,98.380553" />
<polygon fill="#423a2a" fill-opacity="0.501961" points="55,207 59,220 59,196" />
<polygon fill="#d2ca94" fill-opacity="0.501961" points="126.666400,33.253392,40.230337,42.446849,67.201295,61.046801,71.242308,49.228518" />
<rect fill="#414640" fill-opacity="0.501961" x="22" y="244" width="81" height="2" />
<g transform="translate(132 63) rotate(367) scale(9 6)"><rect fill="#262000" fill-opacity="0.501961" x="-0.5" y="-0.5" width="1" height="1" /></g>
<ellipse fill="#000000" fill-opacity="0.501961" cx="73" cy="86" rx="2" ry="2" />
<polygon fill="#b59f81" fill-opacity="0.501961" points="76,167 92,167 81,186" />
<rect fill="#64797d" fill-opacity="0.501961" x="36" y="209" width="21" height="20" />
<polygon fill="#b3af9f" fill-opacity="0.501961" points="61.449320,216.554216,64.141946,217.549290,61.044923,234.341301,54.091673,231.650279" />
<polygon fill="#cbba78" fill-opacity="0.501961" points="149.728139,30.123374,167.463024,12.373166,157.731916,16.603770,164.869877,38.468060" />
<polygon fill="#574124" fill-opacity="0.501961" points="96,184 71,177 88,198" />
<rect fill="#f8f1ec" fill-opacity="0.501961" x="0" y="90" width="10" height="37" />
<ellipse fill="#3f4d4d" fill-opacity="0.501961" cx="169" cy="200" rx="13" ry="5" />
<g transform="translate(91 134) rotate(108) scale(20 3)"><rect fill="#5f3e20" fill-opacity="0.501961" x="-0.5" y="-0.5" width="1" height="1" /></g>
<polygon fill="#bab0a3" fill-opacity="0.501961" points="14,155 31,127 30,149" />
<rect fill="#000900" fill-opacity="0.501961" x="67" y="125" width="8" height="6" />
<polygon fill="#f0e7e0" fill-opacity="0.501961" points="96,250 109,250 93,271" />
<ellipse fill="#e4e6dd" fill-opacity="0.501961" cx="57" cy="71" rx="10" ry="10" />
<polygon fill="#6d7978" fill-opacity="0.501961" points="25.773323,206.190115,52.100701,199.859683,20.772584,201.028875,67.811751,250.979149" />
<g transform="translate(17 211) rotate(80) scale(1 40)"><rect fill="#eceae7" fill-opacity="0.501961" x="-0.5" y="-0.5" width="1" height="1" /></g>
<polygon fill="#ac944a" fill-opacity="0.501961" points="131.555556,1.742651,109.289717,34.034181,122.408721,31.386104,105.025902,18.036641" />
<polygon fill="#dcdedf" fill-opacity="0.501961" points="38,193 34,200 18,199" />
<rect fill="#e6e4df" fill-opacity="0.501961" x="32" y="137" width="28" height="16" />
<polygon fill="#eff1ee" fill-opacity="0.501961" points="137.111495,180.592255,109.630458,186.629376,117.350375,165.333586,118.859961,180.233960" />
<polygon fill="#3a403a" fill-opacity="0.501961" points="0.258992,245.370239,20.140898,247.181654,-16.000000,251.123352,10.999424,226.472753" />
<polygon fill="#d4c0ac" fill-opacity="0.501961" points="102.996720,164.274817,124.217309,217.374023,99.703798,195.075479,114.075200,155.986463" />
<g transform="translate(118.207263 255.000000) rotate(254.982650) scale(3.258757 6.305344)"><ellipse fill="#323d3d" fill-opacity="0.501961" cx="0" cy="0" rx="1" ry="1" /></g>
<polygon fill="#524636" fill-opacity="0.501961" points="-16,83 8,88 13,58" />
<polygon fill="#eadac4" fill-opacity="0.501961" points="113.530604,61.848401,121.687017,27.075883,134.123996,25.260124,138.025833,31.163545" />
<ellipse fill="#d4d8dc" fill-opacity="0.501961" cx="167" cy="191" rx="12" ry="3" />
<rect fill="#5e6869" fill-opacity="0.501961" x="11" y="206" width="22" height="3" />
<polygon fill="#8b6437" fill-opacity="0.501961" points="47.815400,55.456501,17.838274,18.997032,53.037557,63.410735,26.704062,62.482150" />
<polygon fill="#1f2521" fill-opacity="0.501961" points="120.995396,236.304140,110.905374,227.314446,110.654024,223.461655,121.669228,230.415692" />
<g transform="translate(108.923457 243.727488) rotate(92.208123) scale(4.413879 18.865802)"><ellipse fill="#5d5f59" fill-opacity="0.501961" cx="0" cy="0" rx="1" ry="1" /></g>
<polygon fill="#e8e7e2" fill-opacity="0.501961" points="67.945962,119.080605,53.187418,128.357316,64.112890,91.478810,65.263024,94.985117" />
<polygon fill="#a08611" fill-opacity="0.501961" points="169,11 152,9 149,-8" />
<polygon fill="#312f0a" fill-opacity="0.501961" points="114.723457,-16.000000,66.240613,5.529205,43.088249,-16.000000,44.044904,27.124685" />
<rect fill="#dfe1e6" fill-opacity="0.501961" x="158" y="19" width="12" height="9" />
<g transform="translate(103.851146 227.007953) rotate(9.529577) scale(2.904511 11.961716)"><ellipse fill="#b5a18f" fill-opacity="0.501961" cx="0" cy="0" rx="1" ry="1" /></g>
<g transform="translate(50.607790 41.444514) rotate(175.469973) scale(5.419476 14.159102)"><ellipse fill="#e2bfa7" fill-opacity="0.501961" cx="0" cy="0" rx="1" ry="1" /></g>
<polygon fill="#bf5f0e" fill-opacity="0.501961" points="100,105 99,93 105,96" />
<rect fill="#793620" fill-opacity="0.501961" x="33" y="35" width="6" height="14" />
<ellipse fill="#8c623e" fill-opacity="0.501961" cx="99" cy="214" rx="4" ry="10" />
<ellipse fill="#98a2a6" fill-opacity="0.501961" cx="144" cy="71" rx="23" ry="3" />
<polygon fill="#8d9593" fill-opacity="0.501961" points="165,129 139,127 125,137" />
<g transform="translate(111 176) rotate(288) scale(7 1)"><rect fill="#933b00" fill-opacity="0.501961" x="-0.5" y="-0.5" width="1" height="1" /></g>
<polygon fill="#d5b597" fill-opacity="0.501961" points="77,117 95,118 101,108" />
<polygon fill="#b17c4e" fill-opacity="0.501961" points="82.863754,163.551526,104.329677,178.730537,97.989798,150.359675,81.431450,141.491595" />
<polygon fill="#dbd8d0" fill-opacity="0.501961" points="56,186 23,164 26,192" />
<polygon fill="#f7f7f6" fill-opacity="0.501961" points="47.395786,89.895595,58.750245,95.497089,57.725794,105.973475,-16.000000,96.267309" />
<g transform="translate(82.001021 117.174473) rotate(34.562853) scale(19.025468 1.000000)"><ellipse fill="#9b6331" fill-opacity="0.501961" cx="0" cy="0" rx="1" ry="1" /></g>
<ellipse fill="#596d70" fill-opacity="0.501961" cx="33" cy="193" rx="18" ry="2" />
</g>
</svg>