<svg xmlns="http://www.w3.org/2000/svg" version="1.1" width="1024" height="680">
<rect x="0" y="0" width="1024" height="680" fill="#736d60" />
<g transform="scale(4.000000) translate(0.5 0.5)">
<g transform="translate(127 65) rotate(204) scale(66 56)"><rect fill="#ffd192" fill-opacity="0.501961" x="-0.5" y="-0.5" width="1" height="1" /></g>
<g transform="translate(246.644181 74.434905) rotate(353.477632) scale(67.857848 75.210438)"><ellipse fill="#a8b5b8" fill-opacity="0.501961" cx="0" cy="0" rx="1" ry="1" /></g>
<g transform="translate(14.111074 14.396101) rotate(365.489040) scale(27.803185 94.547350)"><ellipse fill="#00181c" fill-opacity="0.501961" cx="0" cy="0" rx="1" ry="1" /></g>
<ellipse fill="#293937" fill-opacity="0.501961" cx="92" cy="169" rx="141" ry="55" />
<ellipse fill="#c16529" fill-opacity="0.501961" cx="77" cy="48" rx="42" ry="33" />
<g transform="translate(121.239480 0.000000) rotate(158.037921) scale(32.060655 22.210636)"><ellipse fill="#001c23" fill-opacity="0.501961" cx="0" cy="0" rx="1" ry="1" /></g>
<polygon fill="#ffd0bb" fill-opacity="0.501961" points="155.084660,40.494895,114.835063,58.206753,98.606421,92.144037,149.848277,93.093940" />
<g transform="translate(66 0) rotate(183) scale(43 23)"><rect fill="#ffd691" fill-opacity="0.501961" x="-0.5" y="-0.5" width="1" height="1" /></g>
<polygon fill="#cc895f" fill-opacity="0.501961" points="139.877395,124.844717,132.962518,185.000000,113.619105,111.148452,121.538061,100.946509" />
<g transform="translate(70.963165 82.030558) rotate(54.697906) scale(21.693790 31.981738)"><ellipse fill="#5c4834" fill-opacity="0.501961" cx="0" cy="0" rx="1" ry="1" /></g>
<g transform="translate(161.858424 99.001688) rotate(237.777485) scale(13.179185 32.715459)"><ellipse fill="#5a422b" fill-opacity="0.501961" cx="0" cy="0" rx="1" ry="1" /></g>
<g transform="translate(54.494482 126.739556) rotate(67.051474) scale(13.642863 5.074926)"><ellipse fill="#ebb996" fill-opacity="0.501961" cx="0" cy="0" rx="1" ry="1" /></g>
<ellipse fill="#b3b5b2" fill-opacity="0.501961" cx="228" cy="71" rx="26" ry="26" />
<polygon fill="#f4965a" fill-opacity="0.501961" points="94,19 192,65 143,68" />
<polygon fill="#20302e" fill-opacity="0.501961" points="105.326397,139.212478,117.493023,164.993582,115.059256,90.622039,46.170328,145.940813" />
<g transform="translate(76.046336 32.734594) rotate(325.427775) scale(20.196395 4.547575)"><ellipse fill="#191e14" fill-opacity="0.501961" cx="0" cy="0" rx="1" ry="1" /></g>
<rect fill="#c39571" fill-opacity="0.501961" x="37" y="33" width="25" height="43" />
<g transform="translate(198.380782 20.870380) rotate(329.997748) scale(48.505947 27.763959)"><ellipse fill="#727b7b" fill-opacity="0.501961" cx="0" cy="0" rx="1" ry="1" /></g>
<polygon fill="#45575b" fill-opacity="0.501961" points="48.369226,69.104444,17.167105,172.342605,-7.668870,185.000000,-2.806397,74.452290" />
<g transform="translate(102.738382 44.566432) rotate(275.039827) scale(15.226823 24.993763)"><ellipse fill="#e68647" fill-opacity="0.501961" cx="0" cy="0" rx="1" ry="1" /></g>
<polygon fill="#b1aea5" fill-opacity="0.501961" points="203.211548,133.987650,176.486847,120.132451,166.710215,113.876779,182.558158,102.834481" />
<polygon fill="#352613" fill-opacity="0.501961" points="65.356375,5.659737,66.227141,22.881932,65.952028,20.442455,17.498848,43.390598" />
<g transform="translate(187.408460 169.000000) rotate(243.761456) scale(35.832852 20.127233)"><ellipse fill="#193032" fill-opacity="0.501961" cx="0" cy="0" rx="1" ry="1" /></g>
<polygon fill="#dfdfdc" fill-opacity="0.501961" points="255.969802,54.256011,226.097427,137.034099,233.283973,130.876309,257.356737,60.878836" />
<g transform="translate(250 93) rotate(290) scale(142 3)"><rect fill="#213e43" fill-opacity="0.501961" x="-0.5" y="-0.5" width="1" height="1" /></g>
<ellipse fill="#eff2ff" fill-opacity="0.501961" cx="126" cy="84" rx="14" ry="7" />
<polygon fill="#ec9a62" fill-opacity="0.501961" points="89,3 72,32 60,-7" />
<polygon fill="#1b2b25" fill-opacity="0.501961" points="40,85 22,94 21,19" />
<polygon fill="#47585d" fill-opacity="0.501961" points="196,-16 155,34 99,21" />
<g transform="translate(125 119) rotate(219) scale(21 5)"><rect fill="#ecc8ab" fill-opacity="0.501961" x="-0.5" y="-0.5" width="1" height="1" /></g>
<g transform="translate(80.610115 92.002522) rotate(65.140644) scale(4.770741 23.620351)"><ellipse fill="#203539" fill-opacity="0.501961" cx="0" cy="0" rx="1" ry="1" /></g>
<polygon fill="#000009" fill-opacity="0.501961" points="119,73 126,71 126,76" />
<rect fill="#1e2d29" fill-opacity="0.501961" x="19" y="0" width="24" height="37" />
<g transform="translate(54.978375 77.721808) rotate(68.838384) scale(17.953561 14.196983)"><ellipse fill="#9e6e47" fill-opacity="0.501961" cx="0" cy="0" rx="1" ry="1" /></g>
<g transform="translate(89.696864 21.608087) rotate(238.499590) scale(5.779184 35.197430)"><ellipse fill="#3a3627" fill-opacity="0.501961" cx="0" cy="0" rx="1" ry="1" /></g>
<rect fill="#7b5230" fill-opacity="0.501961" x="152" y="68" width="25" height="34" />
<g transform="translate(255 154) rotate(44) scale(23 19)"><rect fill="#9ca7a3" fill-opacity="0.501961" x="-0.5" y="-0.5" width="1" height="1" /></g>
<g transform="translate(192.899754 69.178105) rotate(159.635008) scale(17.015299 63.641865)"><ellipse fill="#878b88" fill-opacity="0.501961" cx="0" cy="0" rx="1" ry="1" /></g>
<ellipse fill="#797d7b" fill-opacity="0.501961" cx="24" cy="114" rx="70" ry="6" />
<g transform="translate(178.501728 94.917972) rotate(171.223495) scale(28.819981 5.234427)"><ellipse fill="#585548" fill-opacity="0.501961" cx="0" cy="0" rx="1" ry="1" /></g>
<polygon fill="#ffceb2" fill-opacity="0.501961" points="47,13 43,-16 88,-16" />
<polygon fill="#c9a88c" fill-opacity="0.501961" points="64.599686,138.206561,48.977851,137.473084,49.721342,133.377576,48.578284,117.565431" />
<polygon fill="#a2a29c" fill-opacity="0.501961" points="173.409313,58.951621,211.137818,100.924426,231.159048,97.925306,271.000000,31.594499" />
<polygon fill="#253635" fill-opacity="0.501961" points="142.279894,173.936043,151.525134,175.541092,150.658365,124.617261,136.066809,133.247508" />
<polygon fill="#d0ae92" fill-opacity="0.501961" points="43,34 35,50 39,73" />
<polygon fill="#696d6a" fill-opacity="0.501961" points="73.030803,123.162673,67.705313,119.732051,75.463674,95.222459,125.023599,100.233659" />
<g transform="translate(13.903111 10.451877) rotate(265.902586) scale(76.782410 2.881125)"><ellipse fill="#526a6e" fill-opacity="0.501961" cx="0" cy="0" rx="1" ry="1" /></g>
<g transform="translate(224.006857 156.315576) rotate(118.899638) scale(12.160985 29.594769)"><ellipse fill="#445a5f" fill-opacity="0.501961" cx="0" cy="0" rx="1" ry="1" /></g>
<rect fill="#12231f" fill-opacity="0.501961" x="98" y="94" width="25" height="5" />
<polygon fill="#c98a5d" fill-opacity="0.501961" points="53,54 43,7 65,40" />
<polygon fill="#827160" fill-opacity="0.501961" points="183,96 158,114 152,160" />
<g transform="translate(122.431882 138.321654) rotate(260.120016) scale(23.660792 2.115802)"><ellipse fill="#c69a6f" fill-opacity="0.501961" cx="0" cy="0" rx="1" ry="1" /></g>
<g transform="translate(241.645624 12.244709) rotate(280.470270) scale(4.859595 12.306458)"><ellipse fill="#bdb8b0" fill-opacity="0.501961" cx="0" cy="0" rx="1" ry="1" /></g>
<ellipse fill="#222c24" fill-opacity="0.501961" cx="92" cy="129" rx="32" ry="7" />
<polygon fill="#52412a" fill-opacity="0.501961" points="87.067609,77.687135,88.701546,66.521287,68.884283,53.344206,55.587828,62.993999" />
<g transform="translate(144 43) rotate(202) scale(10 10)"><rect fill="#f4c3a5" fill-opacity="0.501961" x="-0.5" y="-0.5" width="1" height="1" /></g>
<ellipse fill="#37210b" fill-opacity="0.501961" cx="60" cy="14" rx="7" ry="7" />
<polygon fill="#c8b7ae" fill-opacity="0.501961" points="139.176946,96.664426,93.092482,70.903010,95.332178,78.773952,114.841539,91.304348" />
<polygon fill="#3e4b49" fill-opacity="0.501961" points="46.391250,28.843542,24.978236,20.551171,6.453525,32.476740,36.709220,44.255940" />
<polygon fill="#777975" fill-opacity="0.501961" points="225,-5 131,39 244,27" />
<polygon fill="#633f30" fill-opacity="0.501961" points="112.133138,107.735065,159.442007,112.811075,174.410320,94.983211,126.885110,117.897853" />
<g transform="translate(73 156) rotate(365) scale(15 11)"><rect fill="#7f837f" fill-opacity="0.501961" x="-0.5" y="-0.5" width="1" height="1" /></g>
<polygon fill="#d1814a" fill-opacity="0.501961" points="108.122535,71.232057,132.683435,35.665826,95.240711,19.329415,91.010692,81.272383" />
<polygon fill="#d79465" fill-opacity="0.501961" points="177.026645,63.277586,148.048257,37.569876,159.308921,74.404154,144.078363,89.418646" />
<polygon fill="#ded1c7" fill-opacity="0.501961" points="98,89 109,71 107,91" />
<ellipse fill="#ae866a" fill-opacity="0.501961" cx="158" cy="168" rx="6" ry="7" />
<ellipse fill="#757d74" fill-opacity="0.501961" cx="249" cy="131" rx="10" ry="17" />
<ellipse fill="#556567" fill-opacity="0.501961" cx="0" cy="151" rx="35" ry="16" />
<polygon fill="#43433b" fill-opacity="0.501961" points="17.721602,79.495927,37.809818,72.295239,52.686876,117.626260,62.396629,102.233887" />
<polygon fill="#ded7da" fill-opacity="0.501961" points="128,67 133,94 148,93" />
<polygon fill="#8e755e" fill-opacity="0.501961" points="115.800196,135.222373,174.250053,71.445403,143.072739,89.696377,157.766491,71.969716" />
<g transform="translate(133.623603 144.955361) rotate(85.081062) scale(23.221057 6.698089)"><ellipse fill="#6c5d46" fill-opacity="0.501961" cx="0" cy="0" rx="1" ry="1" /></g>
<polygon fill="#0e1f1a" fill-opacity="0.501961" points="8.131717,12.235154,10.450940,21.554506,8.973580,-16.000000,-16.000000,36.433225" />
<polygon fill="#6e4321" fill-opacity="0.501961" points="48.675958,10.583072,68.120767,31.704483,73.303597,55.321410,49.314646,19.012726" />
<polygon fill="#5d4830" fill-opacity="0.501961" points="157.833800,79.786138,178.744516,62.659347,182.211665,66.224466,154.732264,83.659205" />
<polygon fill="#545b56" fill-opacity="0.501961" points="110,-10 198,14 221,-16" />
<ellipse fill="#505047" fill-opacity="0.501961" cx="124" cy="73" rx="6" ry="3" />
<polygon fill="#f4c299" fill-opacity="0.501961" points="139.798631,84.956768,116.534560,62.233550,126.397822,43.486288,153.899003,75.727566" />
<polygon fill="#323932" fill-opacity="0.501961" points="141.956891,11.503867,91.138434,-16.000000,86.293715,33.854570,111.283067,14.946498" />
<polygon fill="#f1ba91" fill-opacity="0.501961" points="128,124 119,122 120,107" />
<polygon fill="#886144" fill-opacity="0.501961" points="104.255815,11.380907,133.469687,38.907151,132.667310,52.203511,143.822288,49.784369" />
<polygon fill="#82715d" fill-opacity="0.501961" points="46.987821,116.389694,64.191563,101.608220,80.864410,120.201322,81.311742,123.941132" />
<polygon fill="#b47141" fill-opacity="0.501961" points="74,5 68,12 45,8" />
<polygon fill="#8f9495" fill-opacity="0.501961" points="149.847625,96.034056,135.198531,103.754708,103.599399,84.274659,119.529925,90.169059" />
<polygon fill="#15221a" fill-opacity="0.501961" points="62,118 58,128 76,127" />
<g transform="translate(0.000000 98.079330) rotate(279.863911) scale(9.176339 48.231077)"><ellipse fill="#595f5e" fill-opacity="0.501961" cx="0" cy="0" rx="1" ry="1" /></g>
<polygon fill="#000b0a" fill-opacity="0.501961" points="183,89 179,87 178,98" />
<polygon fill="#c68450" fill-opacity="0.501961" points="92,2 75,30 56,25" />
<polygon fill="#d98d55" fill-opacity="0.501961" points="108.821781,76.300648,111.006205,24.522350,75.214495,37.715047,120.560313,77.352846" />
<g transform="translate(22.557679 129.131514) rotate(194.784347) scale(27.095201 7.973085)"><ellipse fill="#374746" fill-opacity="0.501961" cx="0" cy="0" rx="1" ry="1" /></g>
<polygon fill="#2b2d20" fill-opacity="0.501961" points="71,95 66,106 71,111" />
<g transform="translate(243.593115 95.534346) rotate(113.807695) scale(17.019286 2.840333)"><ellipse fill="#cbcccb" fill-opacity="0.501961" cx="0" cy="0" rx="1" ry="1" /></g>
<polygon fill="#e3b28b" fill-opacity="0.501961" points="161.051277,85.727699,135.354413,58.599848,140.396715,87.531557,167.575450,77.463024" />
<polygon fill="#798080" fill-opacity="0.501961" points="209,2 149,39 181,61" />
<g transform="translate(220 164) rotate(110) scale(59 6)"><rect fill="#647373" fill-opacity="0.501961" x="-0.5" y="-0.5" width="1" height="1" /></g>
<polygon fill="#b7654d" fill-opacity="0.501961" points="112.262694,98.142480,130.107930,108.710870,124.833143,112.084105,101.855365,97.464177" />
<g transform="translate(105.675200 157.207298) rotate(174.592726) scale(17.271977 24.946698)"><ellipse fill="#3a4540" fill-opacity="0.501961" cx="0" cy="0" rx="1" ry="1" /></g>
<polygon fill="#d9bfa8" fill-opacity="0.501961" points="124,140 123,146 119,135" />
<ellipse fill="#010f07" fill-opacity="0.501961" cx="21" cy="90" rx="5" ry="4" />
<polygon fill="#2a3633" fill-opacity="0.501961" points="108.878870,125.370938,53.445883,141.783833,115.971886,108.574779,120.309103,109.801900" />
<polygon fill="#14231e" fill-opacity="0.501961" points="40.901960,12.334908,40.911929,-16.000000,14.336702,-3.908422,21.593332,14.193835" />
<polygon fill="#cb976a" fill-opacity="0.501961" points="127,161 131,185 151,178" />
<polygon fill="#c6753d" fill-opacity="0.501961" points="123.128984,52.858388,126.828923,33.114389,94.943999,62.976041,97.954712,76.759221" />
<g transform="translate(83.566118 92.553875) rotate(249.453354) scale(1.000000 17.540004)"><ellipse fill="#0e1d1e" fill-opacity="0.501961" cx="0" cy="0" rx="1" ry="1" /></g>
<g transform="translate(195.459469 150.947673) rotate(37.753737) scale(28.799855 9.233602)"><ellipse fill="#374748" fill-opacity="0.501961" cx="0" cy="0" rx="1" ry="1" /></g>
<polygon fill="#2d3932" fill-opacity="0.501961" points="44.567288,25.000314,20.211472,84.726917,41.241639,-9.344816,43.740161,10.763632" />
<polygon fill="#788485" fill-opacity="0.501961" points="228.925836,107.501365,230.519865,149.124675,185.823707,85.419677,177.723435,106.472375" />
<polygon fill="#473722" fill-opacity="0.501961" points="176.826559,86.717502,166.557314,83.711485,153.758090,88.400661,153.976237,91.773134" />
<polygon fill="#5e6b6c" fill-opacity="0.501961" points="76.051733,96.230139,68.424284,117.520955,112.433608,105.234461,96.883037,92.106560" />
<g transform="translate(147 116) rotate(293) scale(21 35)"><rect fill="#675b49" fill-opacity="0.501961" x="-0.5" y="-0.5" width="1" height="1" /></g>
<g transform="translate(65 0) rotate(176) scale(37 9)"><rect fill="#eec7a6" fill-opacity="0.501961" x="-0.5" y="-0.5" width="1" height="1" /></g>
<ellipse fill="#0d2223" fill-opacity="0.501961" cx="96" cy="83" rx="4" ry="4" />
<polygon fill="#2e3c38" fill-opacity="0.501961" points="162.127315,6.778873,49.145890,-9.153115,86.487720,0.494998,96.072410,13.750244" />
<g transform="translate(56 158) rotate(272) scale(35 21)"><rect fill="#505d5d" fill-opacity="0.501961" x="-0.5" y="-0.5" width="1" height="1" /></g>
<polygon fill="#28352f" fill-opacity="0.501961" points="-6,45 13,37 16,86" />
<g transform="translate(145.358484 9.315799) rotate(329.301839) scale(35.410144 6.246070)"><ellipse fill="#4a5655" fill-opacity="0.501961" cx="0" cy="0" rx="1" ry="1" /></g>
<polygon fill="#707f83" fill-opacity="0.501961" points="43,103 47,119 1,114" />
<polygon fill="#9e9c94" fill-opacity="0.501961" points="191.823523,51.091457,247.164994,71.111389,187.472083,85.765733,174.409929,77.593835" />
<polygon fill="#efb07c" fill-opacity="0.501961" points="124,60 130,32 137,63" />
<rect fill="#efe0df" fill-opacity="0.501961" x="118" y="76" width="20" height="11" />
<ellipse fill="#858a88" fill-opacity="0.501961" cx="78" cy="102" rx="6" ry="6" />
<polygon fill="#f0be99" fill-opacity="0.501961" points="99,81 117,83 111,68" />
<polygon fill="#965e33" fill-opacity="0.501961" points="56.840375,51.820166,88.900977,50.011690,94.763907,69.154885,114.965532,76.016175" />
<rect fill="#1d2d2c" fill-opacity="0.501961" x="80" y="116" width="21" height="5" />
<polygon fill="#31291b" fill-opacity="0.501961" points="82.241384,25.409952,96.097126,27.708339,59.802480,31.293593,70.331284,38.987425" />
<polygon fill="#847563" fill-opacity="0.501961" points="72.233413,78.910000,72.323325,72.904607,64.203281,66.086160,60.797221,119.704260" />
<polygon fill="#b7bbb8" fill-opacity="0.501961" points="247.853621,46.314989,246.939789,91.630575,247.511347,75.075108,271.000000,67.433749" />
<g transform="translate(54.458743 69.670372) rotate(292.480837) scale(22.116275 9.330114)"><ellipse fill="#956d4b" fill-opacity="0.501961" cx="0" cy="0" rx="1" ry="1" /></g>
<g transform="translate(156.760176 72.319852) rotate(325.514683) scale(3.694573 1.898077)"><ellipse fill="#46301f" fill-opacity="0.501961" cx="0" cy="0" rx="1" ry="1" /></g>
<polygon fill="#6e6b5a" fill-opacity="0.501961" points="217.838722,16.615060,184.199950,-16.000000,201.746307,16.625411,197.555300,29.768024" />
<polygon fill="#3f3e30" fill-opacity="0.501961" points="67.943382,56.871637,84.981890,68.866209,67.742572,103.276329,83.799340,82.439777" />
<polygon fill="#4b6e7b" fill-opacity="0.501961" points="271,30 260,47 251,-16" />
<polygon fill="#ca9c7a" fill-opacity="0.501961" points="50.297683,40.227350,65.185571,45.029764,67.190449,44.128153,51.193843,54.452355" />
<rect fill="#373a4f" fill-opacity="0.501961" x="18" y="101" width="31" height="3" />
<polygon fill="#686d68" fill-opacity="0.501961" points="173,26 184,-3 142,26" />
<polygon fill="#818783" fill-opacity="0.501961" points="227.418615,23.077304,266.358960,14.720713,231.703081,47.725801,174.541531,11.025454" />
<polygon fill="#eab487" fill-opacity="0.501961" points="149.146558,77.324687,134.770505,36.459987,164.116782,59.511338,121.818250,59.626620" />
<ellipse fill="#e7dfdc" fill-opacity="0.501961" cx="246" cy="13" rx="3" ry="4" />
<g transform="translate(244.861466 169.000000) rotate(93.998984) scale(4.430849 25.012394)"><ellipse fill="#3c5053" fill-opacity="0.501961" cx="0" cy="0" rx="1" ry="1" /></g>
<rect fill="#121e19" fill-opacity="0.501961" x="55" y="14" width="7" height="9" />
<polygon fill="#67685e" fill-opacity="0.501961" points="74,83 79,73 94,85" />
<polygon fill="#886746" fill-opacity="0.501961" points="137.551719,134.913533,146.761395,124.469296,118.426938,133.678864,117.664048,120.481125" />
<g transform="translate(172.097016 64.755941) rotate(74.620160) scale(1.000000 8.995849)"><ellipse fill="#fdb475" fill-opacity="0.501961" cx="0" cy="0" rx="1" ry="1" /></g>
<ellipse fill="#ffe3d2" fill-opacity="0.501961" cx="120" cy="105" rx="2" ry="2" />
<ellipse fill="#464027" fill-opacity="0.501961" cx="197" cy="91" rx="4" ry="3" />
<polygon fill="#e7c3a7" fill-opacity="0.501961" points="145.558642,91.742721,119.107970,62.592583,156.029145,67.829981,144.880962,83.522272" />
<g transform="translate(119 60) rotate(318) scale(14 2)"><rect fill="#f8e6e2" fill-opacity="0.501961" x="-0.5" y="-0.5" width="1" height="1" /></g>
<rect fill="#5c4428" fill-opacity="0.501961" x="154" y="79" width="4" height="33" />
<polygon fill="#979993" fill-opacity="0.501961" points="228.910448,133.386427,179.618373,106.340971,174.000594,112.278010,202.689768,135.456176" />
<polygon fill="#8e887b" fill-opacity="0.501961" points="212.180156,86.832561,216.439833,92.806684,176.611895,121.576319,193.114143,94.664957" />
<polygon fill="#8f9694" fill-opacity="0.501961" points="237,151 264,171 266,142" />
<polygon fill="#9a6a42" fill-opacity="0.501961" points="46.717370,121.678718,49.546503,134.713084,50.678934,107.107520,45.793124,101.108042" />
<polygon fill="#5e4a34" fill-opacity="0.501961" points="170,73 180,64 172,86" />
<polygon fill="#d19361" fill-opacity="0.501961" points="81.482196,9.011024,78.583505,21.983995,61.532141,26.324622,74.045084,2.725719" />
<g transform="translate(158.061737 155.269650) rotate(25.427279) scale(4.068368 11.842954)"><ellipse fill="#6c543b" fill-opacity="0.501961" cx="0" cy="0" rx="1" ry="1" /></g>
<g transform="translate(110.316760 90.790793) rotate(138.167949) scale(5.913598 2.150982)"><ellipse fill="#817869" fill-opacity="0.501961" cx="0" cy="0" rx="1" ry="1" /></g>
<polygon fill="#5a6662" fill-opacity="0.501961" points="210.414549,138.617425,173.766264,127.405508,170.161526,106.443239,173.072741,120.653309" />
<polygon fill="#4f5b5b" fill-opacity="0.501961" points="97,100 77,108 119,110" />
<polygon fill="#d28f57" fill-opacity="0.501961" points="74.816519,0.737400,50.533541,7.788580,44.317890,17.589729,74.377160,0.587143" />
<ellipse fill="#081c18" fill-opacity="0.501961" cx="44" cy="27" rx="3" ry="3" />
<polygon fill="#99643f" fill-opacity="0.501961" points="102.458358,22.030644,83.716908,16.061592,84.909009,9.365883,99.594976,27.466428" />
<g transform="translate(130.705638 124.378536) rotate(243.496351) scale(5.053384 5.835719)"><ellipse fill="#a2927e" fill-opacity="0.501961" cx="0" cy="0" rx="1" ry="1" /></g>
<ellipse fill="#ae5e28" fill-opacity="0.501961" cx="134" cy="46" rx="4" ry="4" />
<polygon fill="#283125" fill-opacity="0.501961" points="175.816016,154.761973,184.247310,156.812528,161.363636,154.970419,191.941201,178.310868" />
<rect fill="#ecdad0" fill-opacity="0.501961" x="128" y="38" width="2" height="9" />
<polygon fill="#aca290" fill-opacity="0.501961" points="261.378466,71.144109,271.000000,138.306279,249.813604,105.171964,250.212365,96.992327" />
<rect fill="#cdac90" fill-opacity="0.501961" x="49" y="122" width="5" height="13" />
<rect fill="#0f1d18" fill-opacity="0.501961" x="107" y="95" width="16" height="3" />
<rect fill="#c69571" fill-opacity="0.501961" x="41" y="34" width="4" height="34" />
<g transform="translate(235 135) rotate(111) scale(125 1)"><rect fill="#374c4b" fill-opacity="0.501961" x="-0.5" y="-0.5" width="1" height="1" /></g>
<polygon fill="#998d6d" fill-opacity="0.501961" points="269.288780,135.867114,271.000000,148.677434,271.000000,161.397029,235.149306,140.512314" />
<polygon fill="#2c3e3f" fill-opacity="0.501961" points="43,87 25,94 29,65" />
<polygon fill="#848986" fill-opacity="0.501961" points="202.400397,120.414296,169.200734,115.595071,160.628567,129.308897,225.509834,94.351565" />
<polygon fill="#b08969" fill-opacity="0.501961" points="40.154100,80.438525,44.453961,32.275912,49.084018,31.295106,33.553514,63.206985" />
<polygon fill="#6e4f33" fill-opacity="0.501961" points="48,103 66,84 58,78" />
<polygon fill="#847361" fill-opacity="0.501961" points="69,123 60,101 81,122" />
<g transform="translate(147.121558 135.111759) rotate(137.540933) scale(12.175011 5.088831)"><ellipse fill="#2e3a36" fill-opacity="0.501961" cx="0" cy="0" rx="1" ry="1" /></g>
<g transform="translate(183.859902 108.713635) rotate(-0.705867) scale(4.243837 1.000000)"><ellipse fill="#c6c1bd" fill-opacity="0.501961" cx="0" cy="0" rx="1" ry="1" /></g>
<g transform="translate(106.420452 28.489437) rotate(320.359355) scale(4.523234 5.326545)"><ellipse fill="#de9d6f" fill-opacity="0.501961" cx="0" cy="0" rx="1" ry="1" /></g>
<polygon fill="#37270f" fill-opacity="0.501961" points="233,150 241,147 233,147" />
</g>
</svg>