<svg xmlns="http://www.w3.org/2000/svg" version="1.1" width="680" height="1024">
<rect x="0" y="0" width="680" height="1024" fill="#756761" />
<g transform="scale(4.000000) translate(0.5 0.5)">
<g transform="translate(146.856954 206.461980) rotate(414.451425) scale(53.389402 117.620810)"><ellipse fill="#000000" fill-opacity="0.501961" cx="0" cy="0" rx="1" ry="1" /></g>
<g transform="translate(59.154477 153.297696) rotate(11.323776) scale(31.739062 51.748264)"><ellipse fill="#ffffff" fill-opacity="0.501961" cx="0" cy="0" rx="1" ry="1" /></g>
<g transform="translate(22 223) rotate(175) scale(24 79)"><rect fill="#ffffff" fill-opacity="0.501961" x="-0.5" y="-0.5" width="1" height="1" /></g>
<g transform="translate(143.695094 108.539555) rotate(24.383475) scale(16.308835 49.680196)"><ellipse fill="#e9e7e2" fill-opacity="0.501961" cx="0" cy="0" rx="1" ry="1" /></g>
<ellipse fill="#ffffff" fill-opacity="0.501961" cx="22" cy="108" rx="26" ry="9" />
<g transform="translate(154 218) rotate(190) scale(60 122)"><rect fill="#000000" fill-opacity="0.501961" x="-0.5" y="-0.5" width="1" height="1" /></g>
<g transform="translate(109.202325 150.102777) rotate(137.549480) scale(14.420603 23.299635)"><ellipse fill="#000000" fill-opacity="0.501961" cx="0" cy="0" rx="1" ry="1" /></g>
<g transform="translate(137.819463 24.257803) rotate(293.114268) scale(29.821140 94.662140)"><ellipse fill="#5c2919" fill-opacity="0.501961" cx="0" cy="0" rx="1" ry="1" /></g>
<polygon fill="#fefef9" fill-opacity="0.501961" points="94,85 93,52 54,86" />
<polygon fill="#f6fcfe" fill-opacity="0.501961" points="84.262977,143.589262,104.820195,170.938860,88.320374,193.122485,80.989782,186.494287" />
<polygon fill="#000000" fill-opacity="0.501961" points="88,104 92,82 133,113" />
<ellipse fill="#787376" fill-opacity="0.501961" cx="79" cy="230" rx="58" ry="13" />
<g transform="translate(61.093375 128.117494) rotate(252.063355) scale(11.350509 41.386017)"><ellipse fill="#f0f2ef" fill-opacity="0.501961" cx="0" cy="0" rx="1" ry="1" /></g>
<g transform="translate(39.371119 55.038607) rotate(273.880476) scale(49.850598 14.839419)"><ellipse fill="#bf927b" fill-opacity="0.501961" cx="0" cy="0" rx="1" ry="1" /></g>
<polygon fill="#fafaf9" fill-opacity="0.501961" points="-16.000000,172.814226,31.298609,230.773819,25.573499,194.685678,14.448442,185.377450" />
<polygon fill="#0c0606" fill-opacity="0.501961" points="-0.156714,177.196884,34.364736,156.895379,29.159162,145.657836,24.429574,145.030160" />
<polygon fill="#070d12" fill-opacity="0.501961" points="88.893303,146.880127,80.748423,149.671081,67.615397,143.115573,73.548380,133.673364" />
<g transform="translate(73.741006 192.426748) rotate(46.928205) scale(26.085248 6.681281)"><ellipse fill="#232325" fill-opacity="0.501961" cx="0" cy="0" rx="1" ry="1" /></g>
<ellipse fill="#faffff" fill-opacity="0.501961" cx="110" cy="126" rx="4" ry="16" />
<polygon fill="#0c0b09" fill-opacity="0.501961" points="152.277464,121.390901,160.859430,100.670839,161.327805,132.565131,123.111404,180.802959" />
<g transform="translate(157.481950 87.477719) rotate(335.428912) scale(6.911089 29.211209)"><ellipse fill="#ece3db" fill-opacity="0.501961" cx="0" cy="0" rx="1" ry="1" /></g>
<g transform="translate(110 252) rotate(256) scale(25 133)"><rect fill="#000000" fill-opacity="0.501961" x="-0.5" y="-0.5" width="1" height="1" /></g>
<g transform="translate(17.497142 107.600119) rotate(280.627338) scale(8.248785 32.889458)"><ellipse fill="#faf5ee" fill-opacity="0.501961" cx="0" cy="0" rx="1" ry="1" /></g>
<polygon fill="#000000" fill-opacity="0.501961" points="98,189 166,161 113,147" />
<g transform="translate(94.182276 232.833743) rotate(239.418160) scale(2.899958 28.681203)"><ellipse fill="#bab6b6" fill-opacity="0.501961" cx="0" cy="0" rx="1" ry="1" /></g>
<polygon fill="#fbefe5" fill-opacity="0.501961" points="142,94 112,96 120,105" />
<g transform="translate(121.315436 53.333944) rotate(428.587722) scale(45.756981 20.998833)"><ellipse fill="#8b5a4b" fill-opacity="0.501961" cx="0" cy="0" rx="1" ry="1" /></g>
<polygon fill="#000000" fill-opacity="0.501961" points="88,210 61,216 44,205" />
<g transform="translate(40.006322 190.468055) rotate(323.121392) scale(8.769462 12.470269)"><ellipse fill="#fcffff" fill-opacity="0.501961" cx="0" cy="0" rx="1" ry="1" /></g>
<polygon fill="#000000" fill-opacity="0.501961" points="82,85 125,106 119,118" />
<polygon fill="#ffffff" fill-opacity="0.501961" points="72,106 51,105 89,144" />
<polygon fill="#f4f6f4" fill-opacity="0.501961" points="129.040455,150.598940,118.934052,153.116927,156.099255,108.239491,144.566975,137.832681" />
<polygon fill="#251d1a" fill-opacity="0.501961" points="108.283800,92.942786,86.780465,96.710867,106.189140,46.673490,86.958126,147.628791" />
<polygon fill="#1b1a1c" fill-opacity="0.501961" points="112,271 60,271 16,224" />
<g transform="translate(160.085910 205.624193) rotate(160.824988) scale(16.368848 60.313373)"><ellipse fill="#000000" fill-opacity="0.501961" cx="0" cy="0" rx="1" ry="1" /></g>
<g transform="translate(166.725669 14.998272) rotate(340.950009) scale(24.995842 61.268981)"><ellipse fill="#3f241b" fill-opacity="0.501961" cx="0" cy="0" rx="1" ry="1" /></g>
<polygon fill="#4a1f11" fill-opacity="0.501961" points="9,201 7,271 -16,190" />
<polygon fill="#635e5f" fill-opacity="0.501961" points="110,181 60,251 127,211" />
<polygon fill="#180f0a" fill-opacity="0.501961" points="28,179 31,188 17,191" />
<polygon fill="#fffffe" fill-opacity="0.501961" points="81,87 97,73 94,55" />
<g transform="translate(78.632651 102.636034) rotate(137.616313) scale(8.231988 25.701817)"><ellipse fill="#9fa09d" fill-opacity="0.501961" cx="0" cy="0" rx="1" ry="1" /></g>
<ellipse fill="#854f3e" fill-opacity="0.501961" cx="0" cy="49" rx="26" ry="54" />
<g transform="translate(164.708346 144.461191) rotate(265.937530) scale(19.483660 16.514199)"><ellipse fill="#6c605b" fill-opacity="0.501961" cx="0" cy="0" rx="1" ry="1" /></g>
<polygon fill="#f6f0e9" fill-opacity="0.501961" points="141.917647,63.176741,147.154341,79.685964,169.841577,76.066809,185.000000,70.510232" />
<g transform="translate(75 31) rotate(142) scale(40 60)"><rect fill="#805243" fill-opacity="0.501961" x="-0.5" y="-0.5" width="1" height="1" /></g>
<polygon fill="#eeeeed" fill-opacity="0.501961" points="11,218 41,267 14,271" />
<polygon fill="#969293" fill-opacity="0.501961" points="10,159 65,194 90,169" />
<g transform="translate(73 156) rotate(206) scale(65 12)"><rect fill="#e1e0e1" fill-opacity="0.501961" x="-0.5" y="-0.5" width="1" height="1" /></g>
<polygon fill="#f3f5f2" fill-opacity="0.501961" points="122,113 124,124 156,108" />
<rect fill="#8e8a89" fill-opacity="0.501961" x="29" y="196" width="12" height="43" />
<polygon fill="#0d0d0f" fill-opacity="0.501961" points="118.124844,170.902751,87.294834,190.300103,64.898229,193.273730,75.697545,217.531678" />
<rect fill="#000000" fill-opacity="0.501961" x="115" y="106" width="5" height="84" />
<g transform="translate(144 108) rotate(266) scale(2 49)"><rect fill="#47423d" fill-opacity="0.501961" x="-0.5" y="-0.5" width="1" height="1" /></g>
<polygon fill="#f6f5f3" fill-opacity="0.501961" points="57,138 13,139 88,106" />
<rect fill="#ffffff" fill-opacity="0.501961" x="0" y="182" width="18" height="12" />
<ellipse fill="#000000" fill-opacity="0.501961" cx="23" cy="156" rx="7" ry="7" />
<g transform="translate(61 94) rotate(75) scale(1 29)"><rect fill="#020200" fill-opacity="0.501961" x="-0.5" y="-0.5" width="1" height="1" /></g>
<polygon fill="#393532" fill-opacity="0.501961" points="60.972238,144.189472,73.673880,135.988708,73.084015,147.773737,62.090131,130.804355" />
<polygon fill="#000205" fill-opacity="0.501961" points="97.308821,138.598381,136.365591,205.020644,97.412587,157.646225,87.874052,128.270206" />
<polygon fill="#7b7675" fill-opacity="0.501961" points="67.678988,66.757162,120.544660,146.550550,157.686051,98.842856,109.818228,147.641694" />
<polygon fill="#060100" fill-opacity="0.501961" points="99,108 90,94 99,61" />
<g transform="translate(0.000000 134.477730) rotate(209.605610) scale(18.803555 22.995089)"><ellipse fill="#764738" fill-opacity="0.501961" cx="0" cy="0" rx="1" ry="1" /></g>
<polygon fill="#686765" fill-opacity="0.501961" points="57,114 42,101 51,122" />
<polygon fill="#7e594d" fill-opacity="0.501961" points="134.140264,17.101429,93.839658,19.114166,99.150679,91.149435,150.002440,94.663550" />
<polygon fill="#986b58" fill-opacity="0.501961" points="83,59 40,104 59,28" />
<polygon fill="#f1ede8" fill-opacity="0.501961" points="69.631240,86.469687,57.618212,91.943926,72.918824,70.021587,80.178895,67.765338" />
<rect fill="#ffffff" fill-opacity="0.501961" x="89" y="57" width="8" height="13" />
<g transform="translate(37.089032 51.508103) rotate(184.804920) scale(5.905245 15.359746)"><ellipse fill="#c6b2a5" fill-opacity="0.501961" cx="0" cy="0" rx="1" ry="1" /></g>
<g transform="translate(93 174) rotate(32) scale(8 30)"><rect fill="#f0f0f0" fill-opacity="0.501961" x="-0.5" y="-0.5" width="1" height="1" /></g>
<g transform="translate(150 255) rotate(141) scale(24 10)"><rect fill="#585557" fill-opacity="0.501961" x="-0.5" y="-0.5" width="1" height="1" /></g>
<polygon fill="#eeedec" fill-opacity="0.501961" points="158,112 141,106 144,124" />
<g transform="translate(166 93) rotate(305) scale(28 24)"><rect fill="#b1a9a4" fill-opacity="0.501961" x="-0.5" y="-0.5" width="1" height="1" /></g>
<polygon fill="#dddcdc" fill-opacity="0.501961" points="60.214421,208.546486,41.058304,199.348029,33.887782,173.772820,65.730461,201.351967" />
<polygon fill="#0d0d0a" fill-opacity="0.501961" points="150.139423,127.951860,151.370919,120.343623,161.594301,111.915693,128.291330,172.986156" />
<g transform="translate(90 115) rotate(141) scale(14 9)"><rect fill="#5f5854" fill-opacity="0.501961" x="-0.5" y="-0.5" width="1" height="1" /></g>
<polygon fill="#36302f" fill-opacity="0.501961" points="106.852344,181.594480,142.421479,158.151217,110.599848,246.123714,143.775196,232.259356" />
<ellipse fill="#653d30" fill-opacity="0.501961" cx="2" cy="172" rx="21" ry="9" />
<polygon fill="#dad7d7" fill-opacity="0.501961" points="43.339366,125.469880,35.536078,110.728514,64.899658,132.179037,25.795716,175.366220" />
<polygon fill="#eaeae7" fill-opacity="0.501961" points="68,102 88,135 65,137" />
<ellipse fill="#361c11" fill-opacity="0.501961" cx="17" cy="119" rx="23" ry="2" />
<polygon fill="#fbfffe" fill-opacity="0.501961" points="9,156 13,159 10,147" />
<g transform="translate(128.306136 107.520464) rotate(113.991318) scale(4.635868 8.286146)"><ellipse fill="#746a63" fill-opacity="0.501961" cx="0" cy="0" rx="1" ry="1" /></g>
<polygon fill="#e5e3e1" fill-opacity="0.501961" points="18.155127,224.644533,5.443530,210.591683,43.643910,178.689291,37.680718,179.794178" />
<polygon fill="#7c7672" fill-opacity="0.501961" points="55.723892,105.629295,71.422985,101.735617,72.828985,97.252421,89.696166,62.511000" />
<polygon fill="#a9a5a5" fill-opacity="0.501961" points="51.936478,219.562325,32.314317,210.846033,29.303948,176.450036,31.450841,195.136936" />
<polygon fill="#050806" fill-opacity="0.501961" points="99.946302,54.565389,94.461498,109.335218,98.888190,50.156962,81.970879,54.991959" />
<polygon fill="#6c6565" fill-opacity="0.501961" points="35,240 28,208 94,232" />
<g transform="translate(73 255) rotate(247) scale(13 53)"><rect fill="#000000" fill-opacity="0.501961" x="-0.5" y="-0.5" width="1" height="1" /></g>
<polygon fill="#3a2f2a" fill-opacity="0.501961" points="10.128860,204.287872,0.112759,206.789840,-7.679761,200.569249,11.668573,195.879770" />
<g transform="translate(115 218) rotate(135) scale(26 1)"><rect fill="#cec9d1" fill-opacity="0.501961" x="-0.5" y="-0.5" width="1" height="1" /></g>
<polygon fill="#7a7472" fill-opacity="0.501961" points="74.664285,174.789100,17.092641,172.778911,74.082537,185.834796,60.968623,207.763537" />
<polygon fill="#f1efec" fill-opacity="0.501961" points="23.387976,113.121250,-16.000000,109.824952,14.489526,99.494762,61.784345,111.091741" />
<polygon fill="#e7e6e3" fill-opacity="0.501961" points="137.833240,149.533098,142.643859,135.441759,119.774899,147.468508,138.985463,150.995791" />
<polygon fill="#d7cfc7" fill-opacity="0.501961" points="135,107 159,97 120,93" />
<polygon fill="#000000" fill-opacity="0.501961" points="150.328860,166.622139,114.929142,211.207689,141.071478,198.750436,185.000000,267.887915" />
<polygon fill="#282b2f" fill-opacity="0.501961" points="76,147 83,137 65,138" />
<polygon fill="#0f0e0a" fill-opacity="0.501961" points="43,103 56,90 48,106" />
<g transform="translate(87 163) rotate(187) scale(8 40)"><rect fill="#bab6b4" fill-opacity="0.501961" x="-0.5" y="-0.5" width="1" height="1" /></g>
<rect fill="#79716e" fill-opacity="0.501961" x="99" y="192" width="17" height="13" />
<g transform="translate(100 138) rotate(318) scale(11 20)"><rect fill="#141415" fill-opacity="0.501961" x="-0.5" y="-0.5" width="1" height="1" /></g>
<g transform="translate(86 58) rotate(228) scale(1 23)"><rect fill="#000100" fill-opacity="0.501961" x="-0.5" y="-0.5" width="1" height="1" /></g>
<rect fill="#9d7b69" fill-opacity="0.501961" x="22" y="72" width="22" height="31" />
<polygon fill="#000000" fill-opacity="0.501961" points="105,93 84,88 114,112" />
<polygon fill="#946b5c" fill-opacity="0.501961" points="9,140 38,126 -1,115" />
<g transform="translate(157.806743 181.044175) rotate(57.951041) scale(7.458924 3.740267)"><ellipse fill="#4f433d" fill-opacity="0.501961" cx="0" cy="0" rx="1" ry="1" /></g>
<g transform="translate(153.695278 76.492818) rotate(185.299917) scale(7.486429 14.210382)"><ellipse fill="#e7e0d9" fill-opacity="0.501961" cx="0" cy="0" rx="1" ry="1" /></g>
<g transform="translate(97 232) rotate(235) scale(1 39)"><rect fill="#e3dfe0" fill-opacity="0.501961" x="-0.5" y="-0.5" width="1" height="1" /></g>
<polygon fill="#ffffff" fill-opacity="0.501961" points="48,111 29,136 44,128" />
<polygon fill="#a89fa1" fill-opacity="0.501961" points="16,164 59,174 70,152" />
<polygon fill="#000000" fill-opacity="0.501961" points="162,111 152,107 159,106" />
<rect fill="#867d78" fill-opacity="0.501961" x="27" y="139" width="10" height="5" />
<rect fill="#000000" fill-opacity="0.501961" x="54" y="91" width="8" height="3" />
<rect fill="#43403d" fill-opacity="0.501961" x="74" y="104" width="10" height="5" />
<rect fill="#000001" fill-opacity="0.501961" x="11" y="143" width="5" height="6" />
<polygon fill="#080a0c" fill-opacity="0.501961" points="47,208 101,206 71,216" />
<g transform="translate(108 113) rotate(109) scale(1 13)"><rect fill="#dddfd9" fill-opacity="0.501961" x="-0.5" y="-0.5" width="1" height="1" /></g>
<ellipse fill="#8d6654" fill-opacity="0.501961" cx="32" cy="8" rx="23" ry="14" />
<g transform="translate(148 107) rotate(168) scale(22 1)"><rect fill="#2a2722" fill-opacity="0.501961" x="-0.5" y="-0.5" width="1" height="1" /></g>
<polygon fill="#393638" fill-opacity="0.501961" points="111,218 89,196 70,225" />
<polygon fill="#070808" fill-opacity="0.501961" points="111.425397,146.925532,109.332919,183.401395,101.486716,170.129656,132.479921,151.563747" />
<rect fill="#ada8a6" fill-opacity="0.501961" x="55" y="185" width="12" height="21" />
<g transform="translate(23 172) rotate(120) scale(1 17)"><rect fill="#000508" fill-opacity="0.501961" x="-0.5" y="-0.5" width="1" height="1" /></g>
<rect fill="#412a1e" fill-opacity="0.501961" x="17" y="118" width="23" height="5" />
<g transform="translate(146.803390 0.000000) rotate(343.421701) scale(3.911089 68.127392)"><ellipse fill="#3a2118" fill-opacity="0.501961" cx="0" cy="0" rx="1" ry="1" /></g>
<polygon fill="#5a5251" fill-opacity="0.501961" points="105.614305,225.265619,45.094774,237.663774,49.628968,249.712845,63.649886,249.845301" />
<polygon fill="#e6e6e3" fill-opacity="0.501961" points="64.530682,134.892755,95.038811,129.430565,57.706417,105.414042,58.163590,141.872581" />
<ellipse fill="#7f5c50" fill-opacity="0.501961" cx="124" cy="51" rx="26" ry="25" />
<ellipse fill="#000000" fill-opacity="0.501961" cx="26" cy="154" rx="5" ry="5" />
<polygon fill="#000000" fill-opacity="0.501961" points="71,271 185,211 122,271" />
<g transform="translate(0 165) rotate(337) scale(22 24)"><rect fill="#784e40" fill-opacity="0.501961" x="-0.5" y="-0.5" width="1" height="1" /></g>
<polygon fill="#cdbfbd" fill-opacity="0.501961" points="21,151 15,144 22,146" />
<g transform="translate(29 230) rotate(69) scale(60 1)"><rect fill="#c5c4c1" fill-opacity="0.501961" x="-0.5" y="-0.5" width="1" height="1" /></g>
<g transform="translate(98.036423 151.293943) rotate(225.654455) scale(4.620063 6.124963)"><ellipse fill="#000000" fill-opacity="0.501961" cx="0" cy="0" rx="1" ry="1" /></g>
<polygon fill="#98938e" fill-opacity="0.501961" points="87.737312,104.169958,46.895159,98.613275,80.391530,90.149260,72.434273,62.233007" />
<polygon fill="#8d6252" fill-opacity="0.501961" points="97,76 147,89 97,90" />
<g transform="translate(169.000000 10.302883) rotate(261.053198) scale(30.299440 8.459207)"><ellipse fill="#744f42" fill-opacity="0.501961" cx="0" cy="0" rx="1" ry="1" /></g>
<rect fill="#4f504e" fill-opacity="0.501961" x="100" y="115" width="8" height="18" />
<rect fill="#eeedea" fill-opacity="0.501961" x="30" y="178" width="14" height="15" />
<g transform="translate(73.001275 245.467895) rotate(163.739479) scale(10.093507 1.000000)"><ellipse fill="#bab5b4" fill-opacity="0.501961" cx="0" cy="0" rx="1" ry="1" /></g>
<rect fill="#22201d" fill-opacity="0.501961" x="127" y="109" width="10" height="3" />
<polygon fill="#797174" fill-opacity="0.501961" points="123.909885,142.785163,119.358057,127.247832,117.953913,137.041302,138.180125,126.576551" />
<polygon fill="#746c67" fill-opacity="0.501961" points="160,84 170,84 178,65" />
<rect fill="#b7afa9" fill-opacity="0.501961" x="162" y="85" width="8" height="31" />
<polygon fill="#acabab" fill-opacity="0.501961" points="76.190695,139.945208,86.003225,155.310047,66.119063,132.230030,45.005617,134.263044" />
<ellipse fill="#65443a" fill-opacity="0.501961" cx="4" cy="240" rx="6" ry="36" />
<rect fill="#ccc9c1" fill-opacity="0.501961" x="90" y="83" width="3" height="5" />
<polygon fill="#494340" fill-opacity="0.501961" points="134.677570,216.101463,111.607060,221.728941,147.017553,234.271272,85.886000,245.875515" />
<g transform="translate(96 79) rotate(193) scale(1 43)"><rect fill="#000000" fill-opacity="0.501961" x="-0.5" y="-0.5" width="1" height="1" /></g>
<g transform="translate(79.247269 114.044821) rotate(57.075179) scale(1.000000 16.479111)"><ellipse fill="#f1f4f3" fill-opacity="0.501961" cx="0" cy="0" rx="1" ry="1" /></g>
<g transform="translate(80 147) rotate(160) scale(12 1)"><rect fill="#100d0b" fill-opacity="0.501961" x="-0.5" y="-0.5" width="1" height="1" /></g>
<polygon fill="#6b635f" fill-opacity="0.501961" points="159.399329,142.149383,168.236073,111.558889,185.000000,157.954840,153.322789,153.825477" />
<polygon fill="#010101" fill-opacity="0.501961" points="105.473713,106.779126,87.265256,104.036293,107.656297,95.926760,121.770497,109.532205" />
<polygon fill="#363733" fill-opacity="0.501961" points="65,98 49,103 59,104" />
<rect fill="#21211f" fill-opacity="0.501961" x="14" y="141" width="13" height="3" />
<g transform="translate(91 92) rotate(308) scale(4 15)"><rect fill="#000200" fill-opacity="0.501961" x="-0.5" y="-0.5" width="1" height="1" /></g>
<rect fill="#dddcdc" fill-opacity="0.501961" x="56" y="148" width="38" height="2" />
<polygon fill="#f7f6f3" fill-opacity="0.501961" points="65.578827,103.461302,53.140365,110.048931,67.649567,124.250037,72.494101,105.361094" />
<polygon fill="#35261d" fill-opacity="0.501961" points="-3,111 15,117 2,117" />
<polygon fill="#e6e4e1" fill-opacity="0.501961" points="44.005907,134.072018,10.756555,141.673471,90.981882,104.029190,49.017955,138.024530" />
<polygon fill="#080809" fill-opacity="0.501961" points="62.188254,248.990724,39.957353,247.363200,59.899452,265.588421,133.334074,241.286108" />
<g transform="translate(129 98) rotate(74) scale(4 29)"><rect fill="#ded6cf" fill-opacity="0.501961" x="-0.5" y="-0.5" width="1" height="1" /></g>
<polygon fill="#615b57" fill-opacity="0.501961" points="48,115 51,124 55,120" />
<rect fill="#dbdbd7" fill-opacity="0.501961" x="110" y="112" width="3" height="33" />
<polygon fill="#948885" fill-opacity="0.501961" points="17.738695,155.356779,30.425711,176.832510,14.447849,192.924664,29.461607,181.511291" />
<polygon fill="#a2a09e" fill-opacity="0.501961" points="102.589064,112.458515,45.084006,130.238925,103.024671,117.401287,77.032764,147.405829" />
<polygon fill="#040303" fill-opacity="0.501961" points="138.456501,176.221717,121.901120,216.622316,146.661688,200.771977,161.197076,157.642404" />
<rect fill="#1c1917" fill-opacity="0.501961" x="69" y="190" width="28" height="3" />
<g transform="translate(111 144) rotate(98) scale(15 5)"><rect fill="#737171" fill-opacity="0.501961" x="-0.5" y="-0.5" width="1" height="1" /></g>
<rect fill="#dcd9d6" fill-opacity="0.501961" x="141" y="108" width="12" height="12" />
<polygon fill="#2c231e" fill-opacity="0.501961" points="185.000000,170.850750,185.000000,165.614916,148.965566,153.328678,157.708704,173.447157" />
<ellipse fill="#e6e1db" fill-opacity="0.501961" cx="66" cy="85" rx="6" ry="5" />
<polygon fill="#080808" fill-opacity="0.501961" points="114.923226,134.913967,107.076585,176.897757,100.143815,152.717950,124.454437,184.215650" />
<polygon fill="#56585f" fill-opacity="0.501961" points="47.672514,207.561854,49.341269,226.484212,108.895313,215.999741,65.569914,219.681503" />
<polygon fill="#0a0a07" fill-opacity="0.501961" points="148.332898,134.900648,163.893218,107.350248,158.146810,112.043336,148.165824,131.081047" />
<polygon fill="#d6d5d4" fill-opacity="0.501961" points="98.385798,182.027416,79.841072,186.544978,90.734265,167.474377,104.021605,169.058198" />
<ellipse fill="#383232" fill-opacity="0.501961" cx="127" cy="172" rx="6" ry="16" />
<g transform="translate(67.250172 121.765823) rotate(237.235318) scale(2.185458 27.219255)"><ellipse fill="#eeeeed" fill-opacity="0.501961" cx="0" cy="0" rx="1" ry="1" /></g>
<polygon fill="#907364" fill-opacity="0.501961" points="31.423895,132.345175,5.364658,123.701927,40.814647,119.568610,37.386524,127.891502" />
<polygon fill="#9c8172" fill-opacity="0.501961" points="46.795601,105.198985,20.012897,100.866260,31.426563,55.001625,44.186865,114.710247" />
<polygon fill="#dfddda" fill-opacity="0.501961" points="149.442869,109.633239,156.177957,116.828025,121.065156,150.461894,145.702586,139.418409" />
</g>
</svg>