<svg xmlns="http://www.w3.org/2000/svg" version="1.1" width="840" height="1024">
<rect x="0" y="0" width="840" height="1024" fill="#2c2d2e" />
<g transform="scale(4.000000) translate(0.5 0.5)">
<g transform="translate(25.218767 205.563071) rotate(403.499342) scale(55.671249 85.769955)"><ellipse fill="#ffffff" fill-opacity="0.501961" cx="0" cy="0" rx="1" ry="1" /></g>
<g transform="translate(130.332424 152.587150) rotate(262.488714) scale(22.110485 39.016186)"><ellipse fill="#ffffff" fill-opacity="0.501961" cx="0" cy="0" rx="1" ry="1" /></g>
<ellipse fill="#000000" fill-opacity="0.501961" cx="103" cy="0" rx="132" ry="132" />
<ellipse fill="#000000" fill-opacity="0.501961" cx="177" cy="229" rx="97" ry="59" />
<g transform="translate(0 230) rotate(283) scale(76 31)"><rect fill="#000000" fill-opacity="0.501961" x="-0.5" y="-0.5" width="1" height="1" /></g>
<polygon fill="#f1f5f6" fill-opacity="0.501961" points="7,227 48,266 142,111" />
<g transform="translate(158.664909 65.395231) rotate(239.057203) scale(177.283743 42.333004)"><ellipse fill="#000000" fill-opacity="0.501961" cx="0" cy="0" rx="1" ry="1" /></g>
<polygon fill="#dbdfdf" fill-opacity="0.501961" points="109.066605,85.766039,132.706085,123.041033,173.779288,146.597389,129.109322,162.491324" />
<polygon fill="#050909" fill-opacity="0.501961" points="162.427405,101.174848,73.846312,130.804473,64.437371,156.248714,109.332046,141.218407" />
<ellipse fill="#000000" fill-opacity="0.501961" cx="157" cy="231" rx="58" ry="58" />
<g transform="translate(35.933429 145.111848) rotate(121.731455) scale(29.213278 21.567922)"><ellipse fill="#808385" fill-opacity="0.501961" cx="0" cy="0" rx="1" ry="1" /></g>
<ellipse fill="#000000" fill-opacity="0.501961" cx="25" cy="36" rx="83" ry="83" />
<polygon fill="#000000" fill-opacity="0.501961" points="-1,268 20,199 -3,191" />
<polygon fill="#d9dbdc" fill-opacity="0.501961" points="117,104 166,161 151,176" />
<ellipse fill="#000000" fill-opacity="0.501961" cx="179" cy="20" rx="102" ry="102" />
<polygon fill="#f0f3f3" fill-opacity="0.501961" points="79.933639,175.080381,65.434105,158.514682,93.936478,148.911557,81.466779,233.045464" />
<rect fill="#000000" fill-opacity="0.501961" x="95" y="177" width="115" height="79" />
<g transform="translate(0 114) rotate(136) scale(48 54)"><rect fill="#000000" fill-opacity="0.501961" x="-0.5" y="-0.5" width="1" height="1" /></g>
<g transform="translate(91.093628 255.000000) rotate(159.355766) scale(30.120177 28.930281)"><ellipse fill="#000000" fill-opacity="0.501961" cx="0" cy="0" rx="1" ry="1" /></g>
<g transform="translate(53 236) rotate(41) scale(22 74)"><rect fill="#f1f3f4" fill-opacity="0.501961" x="-0.5" y="-0.5" width="1" height="1" /></g>
<polygon fill="#757678" fill-opacity="0.501961" points="61.697624,150.571466,-16.000000,168.658218,30.766396,121.639524,47.036772,104.477636" />
<polygon fill="#b8bbbc" fill-opacity="0.501961" points="40,217 -4,167 154,137" />
<g transform="translate(75 145) rotate(231) scale(11 19)"><rect fill="#000000" fill-opacity="0.501961" x="-0.5" y="-0.5" width="1" height="1" /></g>
<g transform="translate(27 244) rotate(76) scale(46 28)"><rect fill="#c3c5c7" fill-opacity="0.501961" x="-0.5" y="-0.5" width="1" height="1" /></g>
<g transform="translate(172.138339 111.320767) rotate(206.728221) scale(57.408302 30.834720)"><ellipse fill="#030709" fill-opacity="0.501961" cx="0" cy="0" rx="1" ry="1" /></g>
<polygon fill="#000103" fill-opacity="0.501961" points="100,173 65,271 169,175" />
<g transform="translate(0 248) rotate(430) scale(104 21)"><rect fill="#000000" fill-opacity="0.501961" x="-0.5" y="-0.5" width="1" height="1" /></g>
<polygon fill="#a7aaaa" fill-opacity="0.501961" points="139,177 139,141 170,163" />
<g transform="translate(25.569980 42.621489) rotate(29.376008) scale(48.695125 141.150644)"><ellipse fill="#000000" fill-opacity="0.501961" cx="0" cy="0" rx="1" ry="1" /></g>
<polygon fill="#000000" fill-opacity="0.501961" points="-16,242 -15,186 27,205" />
<polygon fill="#000000" fill-opacity="0.501961" points="124,161 135,167 117,168" />
<polygon fill="#0b0f11" fill-opacity="0.501961" points="75.306855,115.898530,53.637084,148.883493,42.239441,58.573645,153.885038,77.146982" />
<rect fill="#a6a7a9" fill-opacity="0.501961" x="24" y="149" width="24" height="92" />
<polygon fill="#e3e5e6" fill-opacity="0.501961" points="122.452888,164.265078,140.006430,143.910232,110.093111,95.473087,129.329777,115.029099" />
<rect fill="#bfc1c2" fill-opacity="0.501961" x="80" y="147" width="96" height="4" />
<rect fill="#101213" fill-opacity="0.501961" x="74" y="115" width="46" height="23" />
<ellipse fill="#000000" fill-opacity="0.501961" cx="203" cy="135" rx="29" ry="255" />
<polygon fill="#7e7f81" fill-opacity="0.501961" points="23,131 45,108 79,197" />
<rect fill="#e2e5e5" fill-opacity="0.501961" x="16" y="242" width="43" height="14" />
<polygon fill="#0d1011" fill-opacity="0.501961" points="136.392208,76.966872,194.026971,204.482729,160.077970,147.762032,225.000000,136.298113" />
<polygon fill="#000203" fill-opacity="0.501961" points="207.503372,271.000000,174.587916,165.670240,131.617361,181.227879,51.497160,261.776384" />
<polygon fill="#999b9d" fill-opacity="0.501961" points="55,93 47,96 48,102" />
<polygon fill="#e7e8e8" fill-opacity="0.501961" points="81,149 69,164 97,189" />
<ellipse fill="#090a0b" fill-opacity="0.501961" cx="158" cy="116" rx="30" ry="15" />
<g transform="translate(126 118) rotate(324) scale(2 28)"><rect fill="#ffffff" fill-opacity="0.501961" x="-0.5" y="-0.5" width="1" height="1" /></g>
<rect fill="#c9cbcb" fill-opacity="0.501961" x="105" y="141" width="38" height="23" />
<g transform="translate(68 137) rotate(292) scale(9 6)"><rect fill="#dde3df" fill-opacity="0.501961" x="-0.5" y="-0.5" width="1" height="1" /></g>
<polygon fill="#a3a5a6" fill-opacity="0.501961" points="85.592238,175.017794,122.602144,173.880619,113.550192,151.491374,107.813847,147.297239" />
<rect fill="#e3e5e6" fill-opacity="0.501961" x="46" y="205" width="37" height="22" />
<polygon fill="#9c9e9f" fill-opacity="0.501961" points="138.766436,158.582391,133.348692,152.712115,175.837150,158.201324,142.742523,178.297272" />
<rect fill="#070a0b" fill-opacity="0.501961" x="72" y="81" width="25" height="67" />
<polygon fill="#454847" fill-opacity="0.501961" points="127.747509,129.972406,100.187332,142.537251,120.252910,137.617706,105.255679,85.578286" />
<polygon fill="#585a5c" fill-opacity="0.501961" points="100.143247,181.615314,84.993498,206.304014,78.875403,236.298794,89.881986,207.203812" />
<g transform="translate(51 133) rotate(337) scale(7 32)"><rect fill="#505253" fill-opacity="0.501961" x="-0.5" y="-0.5" width="1" height="1" /></g>
<polygon fill="#fdffff" fill-opacity="0.501961" points="149,139 155,136 135,127" />
<g transform="translate(5 152) rotate(60) scale(7 59)"><rect fill="#6b6c6e" fill-opacity="0.501961" x="-0.5" y="-0.5" width="1" height="1" /></g>
<g transform="translate(125.816818 22.365922) rotate(181.551277) scale(209.000000 35.362721)"><ellipse fill="#000000" fill-opacity="0.501961" cx="0" cy="0" rx="1" ry="1" /></g>
<polygon fill="#919294" fill-opacity="0.501961" points="56,169 39,120 22,165" />
<rect fill="#7e8082" fill-opacity="0.501961" x="0" y="151" width="4" height="45" />
<polygon fill="#d4d5d6" fill-opacity="0.501961" points="97.740287,149.621804,82.885586,146.306598,76.218614,159.315502,83.280684,221.322349" />
<polygon fill="#030506" fill-opacity="0.501961" points="55,261 191,181 121,173" />
<polygon fill="#b7b9ba" fill-opacity="0.501961" points="92.217540,184.771373,60.771858,221.393004,67.502304,171.961592,13.118083,194.072764" />
<polygon fill="#d6dcd8" fill-opacity="0.501961" points="69,159 67,149 62,149" />
<polygon fill="#c5c7c8" fill-opacity="0.501961" points="34.052089,271.000000,47.005851,239.995664,10.611150,224.302368,18.933534,271.000000" />
<rect fill="#f8fafb" fill-opacity="0.501961" x="52" y="228" width="6" height="28" />
<rect fill="#bfc2c1" fill-opacity="0.501961" x="133" y="173" width="18" height="2" />
<polygon fill="#0a0c0d" fill-opacity="0.501961" points="225.000000,107.320340,89.050489,62.741733,134.246802,124.201136,198.521472,162.005069" />
<polygon fill="#818385" fill-opacity="0.501961" points="15.882768,218.548516,25.604093,202.785711,24.657494,217.576690,7.017006,233.399390" />
<g transform="translate(7 252) rotate(365) scale(13 12)"><rect fill="#020607" fill-opacity="0.501961" x="-0.5" y="-0.5" width="1" height="1" /></g>
<polygon fill="#f4f6f7" fill-opacity="0.501961" points="52.390771,251.900684,72.245733,227.847590,93.909448,187.836343,62.541294,228.145446" />
<polygon fill="#d9dbdc" fill-opacity="0.501961" points="138.003197,134.965580,135.085925,124.592332,110.246903,144.025591,124.364314,158.709478" />
<polygon fill="#d7d9da" fill-opacity="0.501961" points="177.922798,150.707004,145.947256,132.931298,125.822983,122.397843,132.830723,135.019040" />
<polygon fill="#040708" fill-opacity="0.501961" points="200,134 225,192 127,203" />
<ellipse fill="#000100" fill-opacity="0.501961" cx="123" cy="165" rx="3" ry="3" />
<polygon fill="#040809" fill-opacity="0.501961" points="26.524710,204.573359,-16.000000,224.071187,-16.000000,206.682124,11.895623,194.651270" />
<rect fill="#646a66" fill-opacity="0.501961" x="116" y="122" width="5" height="12" />
<polygon fill="#040607" fill-opacity="0.501961" points="107.814769,229.580300,181.944250,162.105617,90.072666,200.263009,85.487927,211.486383" />
<polygon fill="#afb2b2" fill-opacity="0.501961" points="55,180 40,244 15,177" />
<polygon fill="#0d1011" fill-opacity="0.501961" points="78.989162,145.949578,101.049117,90.815924,71.864002,156.766782,62.590013,143.158236" />
<ellipse fill="#d5d9d8" fill-opacity="0.501961" cx="68" cy="139" rx="4" ry="4" />
<polygon fill="#3f4141" fill-opacity="0.501961" points="43.517579,114.948660,61.494231,137.033792,71.565986,132.047160,62.489240,131.123569" />
<polygon fill="#bfc2c2" fill-opacity="0.501961" points="165,166 135,139 163,151" />
<polygon fill="#777879" fill-opacity="0.501961" points="45.659380,156.013753,69.624637,176.959971,40.820236,117.669573,49.729219,158.270652" />
<g transform="translate(107 130) rotate(58) scale(15 40)"><rect fill="#171919" fill-opacity="0.501961" x="-0.5" y="-0.5" width="1" height="1" /></g>
<g transform="translate(61.443988 245.604352) rotate(25.608251) scale(1.000000 10.849312)"><ellipse fill="#8e9092" fill-opacity="0.501961" cx="0" cy="0" rx="1" ry="1" /></g>
<rect fill="#939597" fill-opacity="0.501961" x="10" y="221" width="4" height="26" />
<polygon fill="#c6c8c9" fill-opacity="0.501961" points="106.744237,169.132790,67.699221,198.163629,46.899153,188.112840,59.227804,219.906817" />
<polygon fill="#9e9fa1" fill-opacity="0.501961" points="76.705876,175.580659,77.959483,193.150724,-0.085878,154.842900,35.043999,159.826843" />
<polygon fill="#7f8483" fill-opacity="0.501961" points="171,157 173,149 175,151" />
<polygon fill="#07090a" fill-opacity="0.501961" points="113,99 70,131 39,57" />
<g transform="translate(68.504394 159.957602) rotate(251.484390) scale(25.880885 2.045362)"><ellipse fill="#b7bab8" fill-opacity="0.501961" cx="0" cy="0" rx="1" ry="1" /></g>
<g transform="translate(117.143305 108.599808) rotate(337.241604) scale(1.000000 8.198982)"><ellipse fill="#aaacac" fill-opacity="0.501961" cx="0" cy="0" rx="1" ry="1" /></g>
<polygon fill="#888a8b" fill-opacity="0.501961" points="-16.000000,175.384116,22.039495,150.721905,-2.930523,193.048075,23.212390,195.742285" />
<polygon fill="#7d7f81" fill-opacity="0.501961" points="69.839020,230.906916,83.508966,223.402501,63.580264,245.068376,55.644728,254.538014" />
<ellipse fill="#000000" fill-opacity="0.501961" cx="106" cy="182" rx="8" ry="8" />
<ellipse fill="#666b67" fill-opacity="0.501961" cx="118" cy="124" rx="4" ry="4" />
<g transform="translate(35 94) rotate(128) scale(115 22)"><rect fill="#05080a" fill-opacity="0.501961" x="-0.5" y="-0.5" width="1" height="1" /></g>
<ellipse fill="#090b0c" fill-opacity="0.501961" cx="157" cy="111" rx="30" ry="21" />
<g transform="translate(110 150) rotate(138) scale(12 20)"><rect fill="#c3c5c6" fill-opacity="0.501961" x="-0.5" y="-0.5" width="1" height="1" /></g>
<g transform="translate(13.267024 149.848274) rotate(201.016371) scale(8.362014 4.496355)"><ellipse fill="#67696b" fill-opacity="0.501961" cx="0" cy="0" rx="1" ry="1" /></g>
<ellipse fill="#030806" fill-opacity="0.501961" cx="126" cy="166" rx="8" ry="2" />
<polygon fill="#abadad" fill-opacity="0.501961" points="102.277190,150.539990,91.043968,165.282125,88.959150,170.627893,127.422600,173.602575" />
<polygon fill="#07090a" fill-opacity="0.501961" points="76,154 88,124 65,147" />
<polygon fill="#7d7e80" fill-opacity="0.501961" points="43.781278,170.728197,30.196064,141.807437,24.063136,127.125104,12.909559,143.473591" />
<polygon fill="#d3d5d6" fill-opacity="0.501961" points="96.098409,188.460787,77.221732,173.653247,81.919241,197.286024,92.502989,199.524649" />
<polygon fill="#b9bcbc" fill-opacity="0.501961" points="147,144 136,164 107,160" />
<g transform="translate(146.938409 162.623904) rotate(282.779240) scale(3.235712 1.816078)"><ellipse fill="#6e716f" fill-opacity="0.501961" cx="0" cy="0" rx="1" ry="1" /></g>
<polygon fill="#dcdede" fill-opacity="0.501961" points="81.976177,147.785924,68.878048,161.914795,71.227826,163.169440,85.386633,179.487803" />
<g transform="translate(137.874838 169.538056) rotate(8.094195) scale(11.029522 1.000000)"><ellipse fill="#595c5d" fill-opacity="0.501961" cx="0" cy="0" rx="1" ry="1" /></g>
<polygon fill="#0a0d0e" fill-opacity="0.501961" points="202.837636,166.051882,127.138890,194.044051,174.909661,160.703716,161.148404,147.592741" />
<g transform="translate(100 116) rotate(279) scale(8 13)"><rect fill="#2f3232" fill-opacity="0.501961" x="-0.5" y="-0.5" width="1" height="1" /></g>
<polygon fill="#010405" fill-opacity="0.501961" points="95.376005,182.281678,119.664078,172.493806,109.499314,268.012810,99.044902,190.330065" />
<polygon fill="#111414" fill-opacity="0.501961" points="105.838372,123.164559,116.393753,115.383719,115.177392,140.547078,54.148201,81.852028" />
<polygon fill="#16181a" fill-opacity="0.501961" points="125.875599,81.242545,116.605606,69.958626,117.160410,63.559103,92.260357,88.903131" />
<path stroke="#dcdede" stroke-opacity="0.501961" fill="none" d="M 110.435842 94.459925 Q 125.434784 112.851162, 134.764158 132.056503" stroke-width="0.500000" />
<g transform="translate(47 111) rotate(108) scale(15 1)"><rect fill="#5b5e60" fill-opacity="0.501961" x="-0.5" y="-0.5" width="1" height="1" /></g>
<polygon fill="#b2b4b6" fill-opacity="0.501961" points="162,164 159,169 170,161" />
<polygon fill="#000103" fill-opacity="0.501961" points="85,271 68,238 190,208" />
<g transform="translate(37.182995 99.554191) rotate(108.937918) scale(18.076466 10.432638)"><ellipse fill="#0b0d0f" fill-opacity="0.501961" cx="0" cy="0" rx="1" ry="1" /></g>
<polygon fill="#d1d3d4" fill-opacity="0.501961" points="79,157 111,139 96,158" />
<polygon fill="#dadcdd" fill-opacity="0.501961" points="54.594275,193.203231,45.494779,219.110234,45.673267,249.722674,68.730700,217.040979" />
<ellipse fill="#a7a9aa" fill-opacity="0.501961" cx="40" cy="208" rx="5" ry="27" />
<g transform="translate(23.220585 220.846393) rotate(310.280034) scale(22.114743 3.491935)"><ellipse fill="#b1b2b4" fill-opacity="0.501961" cx="0" cy="0" rx="1" ry="1" /></g>
<polygon fill="#111613" fill-opacity="0.501961" points="119,115 125,127 126,122" />
<polygon fill="#9c9d9f" fill-opacity="0.501961" points="106,169 99,165 89,184" />
<polygon fill="#5f6163" fill-opacity="0.501961" points="5.754793,226.334713,16.709479,256.083798,11.711639,252.742716,10.801462,220.847281" />
<polygon fill="#4f4f52" fill-opacity="0.501961" points="154,168 159,167 155,166" />
<polygon fill="#edeff0" fill-opacity="0.501961" points="76.580365,203.818995,77.943811,220.800009,91.582074,188.972119,91.420293,195.593170" />
<g transform="translate(12 209) rotate(111) scale(26 6)"><rect fill="#050809" fill-opacity="0.501961" x="-0.5" y="-0.5" width="1" height="1" /></g>
<polygon fill="#b5b7b8" fill-opacity="0.501961" points="34.490337,212.533260,0.142041,162.844006,40.060044,196.875793,38.336345,212.898768" />
<g transform="translate(51.528195 253.612629) rotate(108.268864) scale(27.767732 5.552782)"><ellipse fill="#eceeef" fill-opacity="0.501961" cx="0" cy="0" rx="1" ry="1" /></g>
<ellipse fill="#e1e3e4" fill-opacity="0.501961" cx="155" cy="141" rx="4" ry="4" />
<polygon fill="#b2b7b4" fill-opacity="0.501961" points="59,154 65,147 71,156" />
<ellipse fill="#d0d2d4" fill-opacity="0.501961" cx="25" cy="248" rx="8" ry="19" />
<g transform="translate(67.906369 48.980989) rotate(79.838585) scale(21.046906 90.423120)"><ellipse fill="#000305" fill-opacity="0.501961" cx="0" cy="0" rx="1" ry="1" /></g>
<g transform="translate(104 89) rotate(150) scale(1 11)"><rect fill="#3c3e3f" fill-opacity="0.501961" x="-0.5" y="-0.5" width="1" height="1" /></g>
<g transform="translate(171 149) rotate(210) scale(12 1)"><rect fill="#888c89" fill-opacity="0.501961" x="-0.5" y="-0.5" width="1" height="1" /></g>
<polygon fill="#151718" fill-opacity="0.501961" points="114.112878,111.246227,73.732584,149.582713,101.527624,142.200202,117.811549,136.048371" />
<rect fill="#bfc1c3" fill-opacity="0.501961" x="143" y="145" width="20" height="4" />
<g transform="translate(171 159) rotate(314) scale(9 1)"><rect fill="#707173" fill-opacity="0.501961" x="-0.5" y="-0.5" width="1" height="1" /></g>
<path stroke="#e6e8e8" stroke-opacity="0.501961" fill="none" d="M 117.916439 156.373913 Q 143.088193 135.816652, 119.365931 105.362217" stroke-width="0.500000" />
<polygon fill="#0a0c0d" fill-opacity="0.501961" points="112.518996,108.312001,51.875007,123.865981,56.917710,61.169280,110.899589,96.179270" />
<g transform="translate(173 149) rotate(290) scale(1 6)"><rect fill="#c3c7c5" fill-opacity="0.501961" x="-0.5" y="-0.5" width="1" height="1" /></g>
<g transform="translate(168.104789 71.134451) rotate(111.133611) scale(22.780213 81.643948)"><ellipse fill="#000305" fill-opacity="0.501961" cx="0" cy="0" rx="1" ry="1" /></g>
<path stroke="#3c3e3f" stroke-opacity="0.501961" fill="none" d="M 74.197113 230.641564 Q 91.250325 228.866997, 94.924488 182.410453" stroke-width="0.500000" />
<ellipse fill="#747677" fill-opacity="0.501961" cx="122" cy="173" rx="13" ry="1" />
<g transform="translate(136 129) rotate(116) scale(3 20)"><rect fill="#edeff0" fill-opacity="0.501961" x="-0.5" y="-0.5" width="1" height="1" /></g>
<polygon fill="#0b0d0e" fill-opacity="0.501961" points="147.035474,130.767473,225.000000,177.616343,187.243801,123.677668,126.542596,117.211664" />
<g transform="translate(50.870600 118.612600) rotate(162.286176) scale(2.352435 11.310783)"><ellipse fill="#3d3f41" fill-opacity="0.501961" cx="0" cy="0" rx="1" ry="1" /></g>
<path stroke="#131516" stroke-opacity="0.501961" fill="none" d="M 184.432243 60.099046 Q 159.427294 127.412339, 168.168354 164.098538" stroke-width="0.500000" />
<g transform="translate(0 152) rotate(57) scale(1 44)"><rect fill="#7e7f81" fill-opacity="0.501961" x="-0.5" y="-0.5" width="1" height="1" /></g>
<polygon fill="#292d2b" fill-opacity="0.501961" points="172,148 167,155 169,149" />
<ellipse fill="#c1c7c4" fill-opacity="0.501961" cx="64" cy="140" rx="5" ry="4" />
<polygon fill="#8f9092" fill-opacity="0.501961" points="36.835756,131.185675,54.248271,142.739513,43.067382,125.545369,17.492670,182.999505" />
<polygon fill="#0b0d0e" fill-opacity="0.501961" points="48,102 81,73 82,141" />
<polygon fill="#d8dadb" fill-opacity="0.501961" points="116.238382,147.412404,123.550373,129.836981,136.608581,136.872574,129.957764,151.092113" />
<rect fill="#020806" fill-opacity="0.501961" x="124" y="167" width="6" height="2" />
<polygon fill="#080a0b" fill-opacity="0.501961" points="138,112 97,83 171,95" />
<polygon fill="#e3e6e5" fill-opacity="0.501961" points="128,115 120,105 123,114" />
<rect fill="#b8bbbc" fill-opacity="0.501961" x="113" y="170" width="19" height="3" />
<rect fill="#4d4f51" fill-opacity="0.501961" x="26" y="133" width="3" height="9" />
<g transform="translate(24.074578 201.748132) rotate(360.174557) scale(1.000000 4.411952)"><ellipse fill="#727275" fill-opacity="0.501961" cx="0" cy="0" rx="1" ry="1" /></g>
<rect fill="#050708" fill-opacity="0.501961" x="123" y="176" width="70" height="13" />
<path stroke="#a5a8a7" stroke-opacity="0.501961" fill="none" d="M 118.782695 107.154176 Q 125.622463 132.333463, 108.354508 166.175716" stroke-width="0.500000" />
<rect fill="#eff1f2" fill-opacity="0.501961" x="74" y="158" width="8" height="8" />
<rect fill="#f3f5f6" fill-opacity="0.501961" x="72" y="216" width="8" height="9" />
<rect fill="#a1a4a2" fill-opacity="0.501961" x="70" y="132" width="3" height="6" />
<ellipse fill="#b6b8b9" fill-opacity="0.501961" cx="45" cy="232" rx="5" ry="5" />
<rect fill="#b2b4b4" fill-opacity="0.501961" x="138" y="137" width="6" height="28" />
<polygon fill="#5c5d5f" fill-opacity="0.501961" points="5.107594,151.990733,15.344993,139.126925,15.006015,141.708268,16.325381,153.171045" />
<polygon fill="#010304" fill-opacity="0.501961" points="60.959419,253.827232,110.943648,195.479028,71.261142,271.000000,62.014451,244.308288" />
<rect fill="#2c2f2e" fill-opacity="0.501961" x="131" y="166" width="6" height="2" />
<polygon fill="#4a4d4f" fill-opacity="0.501961" points="6.163715,192.455587,-3.976318,201.078904,-5.849279,199.260321,20.430050,193.995523" />
<polygon fill="#e4e6e7" fill-opacity="0.501961" points="53.582667,210.514265,45.858502,220.666862,63.280953,239.530921,71.880893,234.761336" />
<path stroke="#adafae" stroke-opacity="0.501961" fill="none" d="M 131.732691 166.845065 Q 147.957953 139.118620, 117.173967 126.528258" stroke-width="0.500000" />
<polygon fill="#383a3c" fill-opacity="0.501961" points="98.722508,187.419095,97.503076,194.338700,92.895360,202.494493,91.075563,199.165280" />
<polygon fill="#080b0c" fill-opacity="0.501961" points="1,233 -16,180 17,209" />
<polygon fill="#6e7071" fill-opacity="0.501961" points="70.408067,243.166694,88.895905,214.840571,63.028596,236.922982,87.090100,216.046651" />
<polygon fill="#0a0c0d" fill-opacity="0.501961" points="97.720247,105.575158,70.776057,155.433335,73.237907,133.557095,58.668392,126.462680" />
<ellipse fill="#a7a8ab" fill-opacity="0.501961" cx="50" cy="97" rx="2" ry="2" />
</g>
</svg>