<svg xmlns="http://www.w3.org/2000/svg" version="1.1" width="1024" height="684">
<rect x="0" y="0" width="1024" height="684" fill="#a9a6a4" />
<g transform="scale(4.000000) translate(0.5 0.5)">
<g transform="translate(127.924149 72.139849) rotate(320.326278) scale(51.430038 65.051623)"><ellipse fill="#000000" fill-opacity="0.501961" cx="0" cy="0" rx="1" ry="1" /></g>
<g transform="translate(215.715532 109.514536) rotate(202.458680) scale(36.388961 139.680667)"><ellipse fill="#feffff" fill-opacity="0.501961" cx="0" cy="0" rx="1" ry="1" /></g>
<g transform="translate(32.273467 72.104279) rotate(350.972891) scale(37.819515 196.390821)"><ellipse fill="#f2f7f9" fill-opacity="0.501961" cx="0" cy="0" rx="1" ry="1" /></g>
<polygon fill="#0e0000" fill-opacity="0.501961" points="158,80 100,161 64,-7" />
<g transform="translate(174.995888 12.708338) rotate(204.268036) scale(58.498755 26.931163)"><ellipse fill="#ffffff" fill-opacity="0.501961" cx="0" cy="0" rx="1" ry="1" /></g>
<g transform="translate(176.953667 58.648295) rotate(46.222661) scale(24.153046 16.537681)"><ellipse fill="#4b211d" fill-opacity="0.501961" cx="0" cy="0" rx="1" ry="1" /></g>
<g transform="translate(145 154) rotate(186) scale(58 39)"><rect fill="#f3f7f6" fill-opacity="0.501961" x="-0.5" y="-0.5" width="1" height="1" /></g>
<ellipse fill="#000000" fill-opacity="0.501961" cx="104" cy="143" rx="13" ry="15" />
<polygon fill="#b4b8b8" fill-opacity="0.501961" points="52,54 97,100 88,186" />
<ellipse fill="#94655d" fill-opacity="0.501961" cx="160" cy="106" rx="23" ry="23" />
<rect fill="#fbfbf5" fill-opacity="0.501961" x="117" y="118" width="9" height="20" />
<polygon fill="#fafeff" fill-opacity="0.501961" points="96.390477,15.274830,187.031076,-16.000000,62.974443,-16.000000,92.396190,21.687396" />
<polygon fill="#e3e5e4" fill-opacity="0.501961" points="63.236833,1.581217,16.693711,36.652236,9.023503,89.610410,78.480733,31.581008" />
<polygon fill="#241a11" fill-opacity="0.501961" points="66.766277,80.758746,74.344672,3.951276,126.651452,75.050148,141.341758,132.319826" />
<rect fill="#f9fcfb" fill-opacity="0.501961" x="182" y="89" width="41" height="49" />
<polygon fill="#f8fbfb" fill-opacity="0.501961" points="157,37 125,-11 206,30" />
<g transform="translate(115.512987 30.722167) rotate(176.797539) scale(32.936482 21.000752)"><ellipse fill="#5d3d34" fill-opacity="0.501961" cx="0" cy="0" rx="1" ry="1" /></g>
<ellipse fill="#b4b9be" fill-opacity="0.501961" cx="255" cy="8" rx="46" ry="46" />
<g transform="translate(149.583545 73.214658) rotate(175.260009) scale(13.042071 19.691014)"><ellipse fill="#290f07" fill-opacity="0.501961" cx="0" cy="0" rx="1" ry="1" /></g>
<g transform="translate(247.972691 141.315181) rotate(356.040489) scale(103.999599 32.952038)"><ellipse fill="#d3d7d7" fill-opacity="0.501961" cx="0" cy="0" rx="1" ry="1" /></g>
<ellipse fill="#000000" fill-opacity="0.501961" cx="67" cy="0" rx="7" ry="7" />
<ellipse fill="#c3c6c6" fill-opacity="0.501961" cx="102" cy="170" rx="252" ry="12" />
<rect fill="#291c18" fill-opacity="0.501961" x="167" y="108" width="14" height="14" />
<g transform="translate(219.251138 64.189868) rotate(250.317193) scale(53.275714 18.560905)"><ellipse fill="#e3e7e7" fill-opacity="0.501961" cx="0" cy="0" rx="1" ry="1" /></g>
<polygon fill="#846664" fill-opacity="0.501961" points="167.187404,38.258714,162.033678,9.533056,176.825171,90.075248,123.711181,23.935667" />
<polygon fill="#8e9090" fill-opacity="0.501961" points="60,81 61,44 100,120" />
<polygon fill="#dadcdb" fill-opacity="0.501961" points="77,28 66,7 29,82" />
<polygon fill="#d8d9d8" fill-opacity="0.501961" points="98.048195,166.992395,-16.000000,130.617628,46.630177,85.878432,85.778496,133.490601" />
<ellipse fill="#311a0f" fill-opacity="0.501961" cx="106" cy="130" rx="10" ry="29" />
<polygon fill="#ecedec" fill-opacity="0.501961" points="163.661283,120.950037,154.899764,149.030979,219.704860,68.239468,213.276319,139.985693" />
<polygon fill="#17120f" fill-opacity="0.501961" points="79.497043,76.943040,76.194583,72.026492,80.958534,33.563299,117.463363,10.155572" />
<polygon fill="#875e58" fill-opacity="0.501961" points="167.113864,115.399706,139.447105,84.849967,135.505371,134.942813,156.377408,136.100640" />
<g transform="translate(184 57) rotate(38) scale(32 17)"><rect fill="#4c312d" fill-opacity="0.501961" x="-0.5" y="-0.5" width="1" height="1" /></g>
<polygon fill="#bcbdbd" fill-opacity="0.501961" points="-16,61 51,180 2,163" />
<g transform="translate(209.384230 25.748259) rotate(91.867543) scale(30.562607 24.891197)"><ellipse fill="#d7dada" fill-opacity="0.501961" cx="0" cy="0" rx="1" ry="1" /></g>
<polygon fill="#1c1814" fill-opacity="0.501961" points="88.880341,23.145019,66.028351,-16.000000,66.385117,4.875770,84.635873,41.555614" />
<polygon fill="#b2b6b5" fill-opacity="0.501961" points="250.185993,186.000000,271.000000,173.266246,248.881079,138.253686,175.156105,186.000000" />
<rect fill="#8e908e" fill-opacity="0.501961" x="83" y="94" width="15" height="32" />
<g transform="translate(127.189030 149.690746) rotate(253.662994) scale(29.830608 8.366990)"><ellipse fill="#c9c9c7" fill-opacity="0.501961" cx="0" cy="0" rx="1" ry="1" /></g>
<g transform="translate(203 84) rotate(218) scale(24 32)"><rect fill="#eff1f0" fill-opacity="0.501961" x="-0.5" y="-0.5" width="1" height="1" /></g>
<ellipse fill="#3e1e12" fill-opacity="0.501961" cx="140" cy="131" rx="10" ry="3" />
<ellipse fill="#969db0" fill-opacity="0.501961" cx="163" cy="88" rx="6" ry="6" />
<g transform="translate(97.697671 139.712078) rotate(201.715508) scale(4.908139 11.971635)"><ellipse fill="#1e1a16" fill-opacity="0.501961" cx="0" cy="0" rx="1" ry="1" /></g>
<ellipse fill="#66504e" fill-opacity="0.501961" cx="130" cy="40" rx="12" ry="28" />
<polygon fill="#392924" fill-opacity="0.501961" points="129.577295,33.568830,114.821934,6.994242,67.245561,47.428320,98.865086,34.651295" />
<ellipse fill="#989a9f" fill-opacity="0.501961" cx="252" cy="0" rx="7" ry="27" />
<polygon fill="#87665c" fill-opacity="0.501961" points="150.156250,26.310993,89.555577,53.142265,117.091384,31.682518,154.882963,43.964348" />
<polygon fill="#e7e8e8" fill-opacity="0.501961" points="167.904597,28.822243,69.516193,-16.000000,187.334619,9.977383,233.371754,79.665329" />
<polygon fill="#765855" fill-opacity="0.501961" points="181,38 183,87 194,75" />
<g transform="translate(151.842507 155.592572) rotate(248.858297) scale(19.475366 52.158728)"><ellipse fill="#dbdcdb" fill-opacity="0.501961" cx="0" cy="0" rx="1" ry="1" /></g>
<g transform="translate(95.011435 0.303666) rotate(223.033489) scale(16.190268 16.707864)"><ellipse fill="#dde1e0" fill-opacity="0.501961" cx="0" cy="0" rx="1" ry="1" /></g>
<polygon fill="#1f150f" fill-opacity="0.501961" points="122,61 134,130 74,70" />
<rect fill="#8a7d7f" fill-opacity="0.501961" x="165" y="58" width="10" height="16" />
<ellipse fill="#30201b" fill-opacity="0.501961" cx="145" cy="75" rx="18" ry="18" />
<rect fill="#623f34" fill-opacity="0.501961" x="111" y="113" width="45" height="8" />
<polygon fill="#907875" fill-opacity="0.501961" points="157,87 165,128 141,135" />
<polygon fill="#201714" fill-opacity="0.501961" points="181,68 179,50 162,50" />
<g transform="translate(70 7) rotate(127) scale(3 42)"><rect fill="#171412" fill-opacity="0.501961" x="-0.5" y="-0.5" width="1" height="1" /></g>
<polygon fill="#dddfde" fill-opacity="0.501961" points="18,51 53,102 28,159" />
<rect fill="#563f39" fill-opacity="0.501961" x="175" y="105" width="7" height="14" />
<polygon fill="#53403f" fill-opacity="0.501961" points="138,35 174,47 125,71" />
<g transform="translate(4.579163 2.567319) rotate(120.409877) scale(10.842239 11.279188)"><ellipse fill="#abadb1" fill-opacity="0.501961" cx="0" cy="0" rx="1" ry="1" /></g>
<polygon fill="#7c6156" fill-opacity="0.501961" points="116.338252,109.740363,117.742499,126.981996,117.270762,164.282636,113.104144,128.289248" />
<g transform="translate(77.289434 48.307619) rotate(267.040705) scale(15.421692 6.873493)"><ellipse fill="#1e1814" fill-opacity="0.501961" cx="0" cy="0" rx="1" ry="1" /></g>
<polygon fill="#bbbec1" fill-opacity="0.501961" points="241,0 256,125 271,28" />
<rect fill="#e8e9e8" fill-opacity="0.501961" x="176" y="118" width="10" height="32" />
<g transform="translate(93.784071 135.799285) rotate(108.063847) scale(8.258355 1.754360)"><ellipse fill="#7e807f" fill-opacity="0.501961" cx="0" cy="0" rx="1" ry="1" /></g>
<polygon fill="#5f4d4b" fill-opacity="0.501961" points="141.355811,35.719623,125.804534,86.729807,188.577244,118.642097,120.494202,90.544759" />
<g transform="translate(91 165) rotate(201) scale(121 18)"><rect fill="#cacbc9" fill-opacity="0.501961" x="-0.5" y="-0.5" width="1" height="1" /></g>
<g transform="translate(165.851382 29.398079) rotate(185.153260) scale(16.356249 7.258721)"><ellipse fill="#eeefed" fill-opacity="0.501961" cx="0" cy="0" rx="1" ry="1" /></g>
<rect fill="#000000" fill-opacity="0.501961" x="178" y="63" width="2" height="34" />
<polygon fill="#cacccd" fill-opacity="0.501961" points="231.454699,48.492358,191.998639,34.929553,233.404810,13.323401,258.765360,63.511266" />
<g transform="translate(165 100) rotate(287) scale(11 6)"><rect fill="#3b2723" fill-opacity="0.501961" x="-0.5" y="-0.5" width="1" height="1" /></g>
<polygon fill="#f4f6f5" fill-opacity="0.501961" points="181,101 195,102 188,81" />
<ellipse fill="#626263" fill-opacity="0.501961" cx="52" cy="0" rx="4" ry="2" />
<ellipse fill="#b7b9b8" fill-opacity="0.501961" cx="0" cy="160" rx="25" ry="25" />
<g transform="translate(118.119882 18.009836) rotate(186.063838) scale(12.969607 9.085959)"><ellipse fill="#5c453d" fill-opacity="0.501961" cx="0" cy="0" rx="1" ry="1" /></g>
<g transform="translate(236.948793 138.649471) rotate(205.589968) scale(8.947326 54.039669)"><ellipse fill="#c6c8c7" fill-opacity="0.501961" cx="0" cy="0" rx="1" ry="1" /></g>
<polygon fill="#967f74" fill-opacity="0.501961" points="183.567539,121.414201,178.091194,93.530901,156.438226,132.039608,173.013517,93.276017" />
<polygon fill="#543934" fill-opacity="0.501961" points="173.043327,105.574852,156.678593,91.408478,149.075959,100.753141,120.804116,64.322652" />
<polygon fill="#d2d3d3" fill-opacity="0.501961" points="75,28 40,91 62,2" />
<polygon fill="#886f68" fill-opacity="0.501961" points="132,15 138,33 167,43" />
<g transform="translate(148 117) rotate(361) scale(16 6)"><rect fill="#5d2d21" fill-opacity="0.501961" x="-0.5" y="-0.5" width="1" height="1" /></g>
<g transform="translate(71.069947 97.332750) rotate(163.568969) scale(7.427999 28.368249)"><ellipse fill="#b2b2b1" fill-opacity="0.501961" cx="0" cy="0" rx="1" ry="1" /></g>
<rect fill="#e0e2e1" fill-opacity="0.501961" x="199" y="39" width="37" height="72" />
<polygon fill="#211813" fill-opacity="0.501961" points="159.661085,87.088659,150.367805,76.786558,93.482997,142.080666,148.398854,58.070507" />
<polygon fill="#6f5653" fill-opacity="0.501961" points="194.138755,48.567770,200.571482,58.820127,180.394571,95.628268,180.669893,54.003943" />
<g transform="translate(65 58) rotate(89) scale(40 5)"><rect fill="#9fa2a4" fill-opacity="0.501961" x="-0.5" y="-0.5" width="1" height="1" /></g>
<polygon fill="#b5b6b2" fill-opacity="0.501961" points="23.424781,60.425190,-7.358370,57.649817,2.405980,62.625546,24.673696,48.852729" />
<g transform="translate(135.130930 126.900297) rotate(113.547037) scale(5.283005 10.319065)"><ellipse fill="#3b2520" fill-opacity="0.501961" cx="0" cy="0" rx="1" ry="1" /></g>
<polygon fill="#cccecd" fill-opacity="0.501961" points="171,176 155,142 166,121" />
<polygon fill="#ebeceb" fill-opacity="0.501961" points="197.717354,71.223473,219.569780,55.253464,184.455174,150.532833,183.309743,88.094180" />
<polygon fill="#e7e6df" fill-opacity="0.501961" points="11,123 0,154 -16,162" />
<g transform="translate(3.806694 112.756749) rotate(142.041912) scale(7.307949 2.495205)"><ellipse fill="#959594" fill-opacity="0.501961" cx="0" cy="0" rx="1" ry="1" /></g>
<rect fill="#c6c7c5" fill-opacity="0.501961" x="120" y="119" width="5" height="52" />
<polygon fill="#eeefee" fill-opacity="0.501961" points="50.075090,102.564824,61.557643,94.217434,38.628464,129.514972,33.711769,129.618290" />
<polygon fill="#332420" fill-opacity="0.501961" points="173,122 165,116 178,110" />
<polygon fill="#babdbf" fill-opacity="0.501961" points="243,-16 199,3 250,33" />
<g transform="translate(82 92) rotate(197) scale(20 9)"><rect fill="#737575" fill-opacity="0.501961" x="-0.5" y="-0.5" width="1" height="1" /></g>
<rect fill="#50342b" fill-opacity="0.501961" x="110" y="113" width="6" height="41" />
<rect fill="#d1d3d3" fill-opacity="0.501961" x="72" y="131" width="18" height="35" />
<polygon fill="#a8a9a5" fill-opacity="0.501961" points="187.026527,173.241954,176.469358,184.354824,237.286136,149.813094,201.330473,177.865660" />
<polygon fill="#6f4537" fill-opacity="0.501961" points="91,51 94,59 101,41" />
<rect fill="#301f16" fill-opacity="0.501961" x="99" y="68" width="10" height="68" />
<ellipse fill="#110d0a" fill-opacity="0.501961" cx="115" cy="89" rx="6" ry="28" />
<g transform="translate(125.601418 0.000000) rotate(-0.653182) scale(47.839089 8.708081)"><ellipse fill="#dadcdd" fill-opacity="0.501961" cx="0" cy="0" rx="1" ry="1" /></g>
<g transform="translate(34.633867 22.433641) rotate(78.067282) scale(7.320380 22.075579)"><ellipse fill="#c7cacb" fill-opacity="0.501961" cx="0" cy="0" rx="1" ry="1" /></g>
<polygon fill="#b2b4b4" fill-opacity="0.501961" points="29.230223,163.322698,33.783972,164.409139,102.700284,172.496110,24.859566,185.403720" />
<polygon fill="#d0d1d1" fill-opacity="0.501961" points="15.607840,143.778332,14.991090,118.498401,-8.101252,130.778502,68.534072,51.294249" />
<polygon fill="#e3e4e5" fill-opacity="0.501961" points="50.500693,33.750217,54.486589,7.882715,58.088675,1.425307,67.658772,15.380247" />
<polygon fill="#363531" fill-opacity="0.501961" points="88.593571,75.817195,76.639834,86.570418,114.149598,102.575669,74.279271,80.097967" />
<g transform="translate(57.255670 163.832465) rotate(198.357685) scale(1.186378 36.919182)"><ellipse fill="#ecece9" fill-opacity="0.501961" cx="0" cy="0" rx="1" ry="1" /></g>
<g transform="translate(153.459746 39.524430) rotate(8.002882) scale(35.053062 3.086114)"><ellipse fill="#7a5f59" fill-opacity="0.501961" cx="0" cy="0" rx="1" ry="1" /></g>
<polygon fill="#977e7a" fill-opacity="0.501961" points="163.197382,118.143050,138.422514,104.716237,161.253154,97.209129,153.916465,138.927665" />
<rect fill="#e0e2e1" fill-opacity="0.501961" x="153" y="133" width="62" height="10" />
<polygon fill="#5c4940" fill-opacity="0.501961" points="89.762892,24.132262,69.158899,37.422863,88.463998,18.199571,94.737089,27.027375" />
<g transform="translate(105.008393 28.166185) rotate(273.881677) scale(9.122702 13.737225)"><ellipse fill="#322620" fill-opacity="0.501961" cx="0" cy="0" rx="1" ry="1" /></g>
<polygon fill="#83817e" fill-opacity="0.501961" points="93.905827,139.760052,99.490103,110.317884,88.551260,105.672648,92.282457,146.165832" />
<polygon fill="#dddedd" fill-opacity="0.501961" points="-7.148354,37.178358,45.178840,75.594588,12.623614,114.797564,26.596467,78.333420" />
<polygon fill="#8c746c" fill-opacity="0.501961" points="185.471469,110.994045,169.458146,101.525564,178.745528,85.672554,170.161727,79.183554" />
<polygon fill="#614745" fill-opacity="0.501961" points="189.371265,80.076241,185.329271,79.542936,171.843993,40.686312,198.291591,67.395091" />
<polygon fill="#261c14" fill-opacity="0.501961" points="107.243353,115.689732,96.577560,123.127451,99.479096,158.001698,91.323373,145.988697" />
<g transform="translate(75 17) rotate(244) scale(23 4)"><rect fill="#100f0c" fill-opacity="0.501961" x="-0.5" y="-0.5" width="1" height="1" /></g>
<polygon fill="#bfc0c0" fill-opacity="0.501961" points="85.154703,110.076977,54.345677,147.237540,66.820320,121.098908,100.997564,93.760813" />
<polygon fill="#bfc1c0" fill-opacity="0.501961" points="125,186 120,162 138,138" />
<polygon fill="#d2d3d2" fill-opacity="0.501961" points="216,98 223,112 256,80" />
<g transform="translate(0 170) rotate(191) scale(1 61)"><rect fill="#939089" fill-opacity="0.501961" x="-0.5" y="-0.5" width="1" height="1" /></g>
<rect fill="#6a5152" fill-opacity="0.501961" x="166" y="75" width="12" height="11" />
<polygon fill="#ebedec" fill-opacity="0.501961" points="210.906239,46.857050,163.550420,26.210133,182.320348,41.331949,215.939559,59.880355" />
<polygon fill="#eeefee" fill-opacity="0.501961" points="30.854106,36.404595,38.057968,65.397294,19.437547,26.191397,19.406861,33.707782" />
<polygon fill="#1d1a18" fill-opacity="0.501961" points="180,86 182,72 175,58" />
<polygon fill="#4b4844" fill-opacity="0.501961" points="83.737073,86.452672,93.104984,95.470953,69.186614,62.245290,65.937946,63.760509" />
<polygon fill="#12120f" fill-opacity="0.501961" points="74,66 91,88 83,33" />
<polygon fill="#32231c" fill-opacity="0.501961" points="136.441103,113.998155,134.872247,87.754278,130.100140,132.662180,117.257413,94.902694" />
<polygon fill="#211612" fill-opacity="0.501961" points="155.240952,87.722237,158.637580,69.008116,127.875193,65.910125,166.007367,80.830429" />
<polygon fill="#7a5c5c" fill-opacity="0.501961" points="158.726675,123.296608,139.895785,142.403795,144.417493,137.214977,130.667823,110.965918" />
<g transform="translate(146.373991 150.240156) rotate(318.362866) scale(6.954199 17.915575)"><ellipse fill="#e2e2df" fill-opacity="0.501961" cx="0" cy="0" rx="1" ry="1" /></g>
<rect fill="#b3b8b8" fill-opacity="0.501961" x="195" y="153" width="17" height="5" />
<polygon fill="#94969b" fill-opacity="0.501961" points="231.347492,-16.000000,269.450754,29.915701,250.364983,-16.000000,241.908257,-16.000000" />
<polygon fill="#cbc6d0" fill-opacity="0.501961" points="169,89 169,86 163,92" />
<rect fill="#573f35" fill-opacity="0.501961" x="170" y="115" width="12" height="4" />
<rect fill="#907a85" fill-opacity="0.501961" x="141" y="120" width="12" height="7" />
<g transform="translate(130 146) rotate(308) scale(26 1)"><rect fill="#f6f7f6" fill-opacity="0.501961" x="-0.5" y="-0.5" width="1" height="1" /></g>
<polygon fill="#3c312f" fill-opacity="0.501961" points="107.071702,43.024280,111.067015,45.495057,133.141233,49.682659,109.334173,68.799987" />
<polygon fill="#cccfd3" fill-opacity="0.501961" points="9.349903,167.915427,4.609855,156.568514,7.663128,141.276306,9.016727,154.366503" />
<g transform="translate(25 170) rotate(106) scale(59 2)"><rect fill="#ebeceb" fill-opacity="0.501961" x="-0.5" y="-0.5" width="1" height="1" /></g>
<polygon fill="#a2a4a4" fill-opacity="0.501961" points="99.049733,119.395881,72.070747,105.021486,69.028234,79.417526,92.227616,123.141067" />
<polygon fill="#c2c5c7" fill-opacity="0.501961" points="45,98 44,80 71,83" />
<polygon fill="#6a7479" fill-opacity="0.501961" points="4,58 -16,66 -16,78" />
<polygon fill="#4e3c3a" fill-opacity="0.501961" points="173,87 170,95 157,101" />
<rect fill="#c8c8c8" fill-opacity="0.501961" x="102" y="157" width="3" height="14" />
<polygon fill="#d2d4d5" fill-opacity="0.501961" points="203,-16 192,29 249,63" />
<polygon fill="#e6e7e6" fill-opacity="0.501961" points="158.205998,36.947235,163.939965,-6.564170,117.651940,8.897767,113.286970,-16.000000" />
<polygon fill="#b6b7b4" fill-opacity="0.501961" points="71,60 63,29 60,57" />
<rect fill="#918f8a" fill-opacity="0.501961" x="239" y="157" width="2" height="14" />
<rect fill="#6e514d" fill-opacity="0.501961" x="160" y="52" width="4" height="26" />
<ellipse fill="#dadad9" fill-opacity="0.501961" cx="11" cy="66" rx="52" ry="6" />
<polygon fill="#d6d8d8" fill-opacity="0.501961" points="163.369871,-16.000000,175.320635,9.961038,108.484925,1.748257,88.808979,19.507390" />
<polygon fill="#c5c7c7" fill-opacity="0.501961" points="153.041856,150.686702,159.527623,151.955455,211.027634,185.596834,167.906327,168.868651" />
<polygon fill="#d6d6d5" fill-opacity="0.501961" points="33.721902,136.557988,16.541227,152.894490,17.504343,121.496596,-2.503788,73.904236" />
</g>
</svg>