<svg xmlns="http://www.w3.org/2000/svg" version="1.1" width="1024" height="684">
<rect x="0" y="0" width="1024" height="684" fill="#a9a6a4" />
<g transform="scale(4.000000) translate(0.5 0.5)">
<g transform="translate(126.806047 72.920457) rotate(230.507633) scale(65.791289 51.339319)"><ellipse fill="#000000" fill-opacity="0.501961" cx="0" cy="0" rx="1" ry="1" /></g>
<polygon fill="#ffffff" fill-opacity="0.501961" points="271,144 231,-16 143,186" />
<ellipse fill="#eef4f5" fill-opacity="0.501961" cx="0" cy="100" rx="80" ry="80" />
<rect fill="#0c0000" fill-opacity="0.501961" x="92" y="16" width="25" height="140" />
<g transform="translate(173.337408 11.418527) rotate(115.525438) scale(27.403617 63.545418)"><ellipse fill="#ffffff" fill-opacity="0.501961" cx="0" cy="0" rx="1" ry="1" /></g>
<g transform="translate(135.840248 67.165283) rotate(263.909058) scale(29.251890 64.834166)"><ellipse fill="#341913" fill-opacity="0.501961" cx="0" cy="0" rx="1" ry="1" /></g>
<polygon fill="#190e06" fill-opacity="0.501961" points="61,-16 103,127 150,96" />
<ellipse fill="#eff3f4" fill-opacity="0.501961" cx="38" cy="26" rx="36" ry="27" />
<g transform="translate(137.796547 159.852606) rotate(238.073346) scale(21.917392 30.834994)"><ellipse fill="#f3f7f7" fill-opacity="0.501961" cx="0" cy="0" rx="1" ry="1" /></g>
<polygon fill="#d3d6d6" fill-opacity="0.501961" points="101,102 78,186 -16,49" />
<ellipse fill="#996c65" fill-opacity="0.501961" cx="160" cy="108" rx="23" ry="23" />
<ellipse fill="#64463e" fill-opacity="0.501961" cx="119" cy="32" rx="29" ry="23" />
<rect fill="#1d0b01" fill-opacity="0.501961" x="97" y="100" width="16" height="59" />
<polygon fill="#ffffff" fill-opacity="0.501961" points="71,-12 151,-16 90,19" />
<g transform="translate(70.348197 5.769714) rotate(146.922985) scale(5.552276 44.627268)"><ellipse fill="#0a0301" fill-opacity="0.501961" cx="0" cy="0" rx="1" ry="1" /></g>
<g transform="translate(76.734088 96.083142) rotate(246.794501) scale(44.778821 9.713532)"><ellipse fill="#828483" fill-opacity="0.501961" cx="0" cy="0" rx="1" ry="1" /></g>
<g transform="translate(231.238444 74.384481) rotate(173.152117) scale(32.503124 159.256721)"><ellipse fill="#d3d8d9" fill-opacity="0.501961" cx="0" cy="0" rx="1" ry="1" /></g>
<ellipse fill="#f5f7f5" fill-opacity="0.501961" cx="204" cy="107" rx="24" ry="36" />
<rect fill="#6a524f" fill-opacity="0.501961" x="160" y="39" width="22" height="79" />
<polygon fill="#d9d9d6" fill-opacity="0.501961" points="112.983394,113.472112,118.088177,131.131385,117.505876,166.020254,169.054412,170.479083" />
<rect fill="#0b0600" fill-opacity="0.501961" x="71" y="36" width="21" height="40" />
<g transform="translate(75.667969 165.306344) rotate(136.738953) scale(22.864222 47.161067)"><ellipse fill="#d8dada" fill-opacity="0.501961" cx="0" cy="0" rx="1" ry="1" /></g>
<g transform="translate(171 20) rotate(181) scale(45 33)"><rect fill="#f3f5f5" fill-opacity="0.501961" x="-0.5" y="-0.5" width="1" height="1" /></g>
<g transform="translate(178 136) rotate(184) scale(43 26)"><rect fill="#e7ebeb" fill-opacity="0.501961" x="-0.5" y="-0.5" width="1" height="1" /></g>
<polygon fill="#7f6564" fill-opacity="0.501961" points="149,28 112,36 179,71" />
<ellipse fill="#d6d7d7" fill-opacity="0.501961" cx="18" cy="40" rx="49" ry="49" />
<polygon fill="#1f0e07" fill-opacity="0.501961" points="98,89 141,136 134,95" />
<g transform="translate(148 78) rotate(137) scale(22 27)"><rect fill="#1a0c07" fill-opacity="0.501961" x="-0.5" y="-0.5" width="1" height="1" /></g>
<g transform="translate(14.632403 170.000000) rotate(134.823808) scale(20.128875 106.175867)"><ellipse fill="#acadac" fill-opacity="0.501961" cx="0" cy="0" rx="1" ry="1" /></g>
<ellipse fill="#1e120d" fill-opacity="0.501961" cx="173" cy="115" rx="7" ry="7" />
<g transform="translate(255.000000 142.049687) rotate(139.229588) scale(143.186345 20.636756)"><ellipse fill="#b7baba" fill-opacity="0.501961" cx="0" cy="0" rx="1" ry="1" /></g>
<g transform="translate(238.793204 23.175179) rotate(48.896957) scale(44.219284 21.253970)"><ellipse fill="#b9bcc0" fill-opacity="0.501961" cx="0" cy="0" rx="1" ry="1" /></g>
<polygon fill="#786564" fill-opacity="0.501961" points="197.375668,73.186409,165.878070,103.248034,157.150879,30.942850,178.272277,79.291295" />
<polygon fill="#1d110d" fill-opacity="0.501961" points="180.171738,91.329065,180.541268,86.518037,180.736844,48.456877,170.215295,49.352041" />
<polygon fill="#2f211a" fill-opacity="0.501961" points="105.603139,83.516349,91.604412,151.041969,109.452469,158.970209,118.217636,111.433591" />
<polygon fill="#81807d" fill-opacity="0.501961" points="71,85 98,95 99,124" />
<ellipse fill="#a9b3c7" fill-opacity="0.501961" cx="163" cy="89" rx="6" ry="5" />
<polygon fill="#edefee" fill-opacity="0.501961" points="223,84 162,12 243,64" />
<polygon fill="#30241e" fill-opacity="0.501961" points="105,128 107,31 72,4" />
<g transform="translate(154.830734 123.424082) rotate(135.010576) scale(16.895328 8.743324)"><ellipse fill="#8a6761" fill-opacity="0.501961" cx="0" cy="0" rx="1" ry="1" /></g>
<polygon fill="#7b5d56" fill-opacity="0.501961" points="141.523456,25.763443,90.993877,54.912622,105.858861,37.184051,191.158492,52.671619" />
<g transform="translate(127.336954 17.423632) rotate(112.151058) scale(5.742268 18.454524)"><ellipse fill="#604b47" fill-opacity="0.501961" cx="0" cy="0" rx="1" ry="1" /></g>
<ellipse fill="#d6d7d5" fill-opacity="0.501961" cx="122" cy="140" rx="4" ry="22" />
<g transform="translate(69 68) rotate(171) scale(7 28)"><rect fill="#7c7c7c" fill-opacity="0.501961" x="-0.5" y="-0.5" width="1" height="1" /></g>
<polygon fill="#ebeeee" fill-opacity="0.501961" points="148.196542,-2.523254,107.827583,1.662921,158.079980,24.616613,156.886970,-16.000000" />
<rect fill="#784b43" fill-opacity="0.501961" x="136" y="87" width="17" height="33" />
<polygon fill="#d4d7d6" fill-opacity="0.501961" points="196.095987,174.589263,136.919660,174.135907,131.962448,134.199370,245.812766,136.600712" />
<g transform="translate(118 170) rotate(141) scale(46 29)"><rect fill="#cacccc" fill-opacity="0.501961" x="-0.5" y="-0.5" width="1" height="1" /></g>
<polygon fill="#e9eae8" fill-opacity="0.501961" points="168,159 177,118 211,125" />
<g transform="translate(63 28) rotate(45) scale(24 19)"><rect fill="#dbdddc" fill-opacity="0.501961" x="-0.5" y="-0.5" width="1" height="1" /></g>
<polygon fill="#201b17" fill-opacity="0.501961" points="81.895792,87.315294,94.356929,89.948659,85.434645,12.833617,68.870438,41.870255" />
<polygon fill="#c4c5c4" fill-opacity="0.501961" points="59,75 91,131 74,148" />
<polygon fill="#e5e5e3" fill-opacity="0.501961" points="12,122 31,147 56,98" />
<polygon fill="#eff0ef" fill-opacity="0.501961" points="151.732992,30.440828,154.942711,36.155886,186.508384,34.492641,140.616138,10.194934" />
<g transform="translate(0 109) rotate(228) scale(16 21)"><rect fill="#a0a2a2" fill-opacity="0.501961" x="-0.5" y="-0.5" width="1" height="1" /></g>
<g transform="translate(49.987187 19.718407) rotate(-19.282236) scale(20.962120 18.448186)"><ellipse fill="#d5d7d8" fill-opacity="0.501961" cx="0" cy="0" rx="1" ry="1" /></g>
<polygon fill="#181817" fill-opacity="0.501961" points="75,-9 58,-2 77,15" />
<g transform="translate(0.000000 13.105077) rotate(32.069791) scale(32.804186 78.881502)"><ellipse fill="#c6c7c8" fill-opacity="0.501961" cx="0" cy="0" rx="1" ry="1" /></g>
<g transform="translate(150.063584 48.162583) rotate(78.564723) scale(9.391582 29.204635)"><ellipse fill="#5a4949" fill-opacity="0.501961" cx="0" cy="0" rx="1" ry="1" /></g>
<rect fill="#a28a89" fill-opacity="0.501961" x="150" y="99" width="8" height="15" />
<g transform="translate(104.572470 143.920580) rotate(273.716425) scale(13.423137 11.794641)"><ellipse fill="#261e1a" fill-opacity="0.501961" cx="0" cy="0" rx="1" ry="1" /></g>
<polygon fill="#41281f" fill-opacity="0.501961" points="127,128 148,136 123,102" />
<polygon fill="#5e4a3f" fill-opacity="0.501961" points="69.819394,36.967654,86.277869,18.617489,80.440590,21.822896,120.725665,8.463137" />
<polygon fill="#3c3231" fill-opacity="0.501961" points="92.580239,60.467808,120.757138,46.233166,147.341477,90.260697,89.216744,45.707231" />
<ellipse fill="#caccca" fill-opacity="0.501961" cx="69" cy="163" rx="29" ry="21" />
<polygon fill="#eceeed" fill-opacity="0.501961" points="213.610498,61.104087,181.415361,89.470382,187.827707,127.571835,216.492979,129.293534" />
<rect fill="#17130f" fill-opacity="0.501961" x="178" y="66" width="3" height="34" />
<polygon fill="#8b726a" fill-opacity="0.501961" points="183.682147,109.236788,164.314777,108.090248,174.944450,90.062557,148.131917,22.862331" />
<ellipse fill="#b9bdbe" fill-opacity="0.501961" cx="255" cy="149" rx="9" ry="94" />
<ellipse fill="#674544" fill-opacity="0.501961" cx="189" cy="60" rx="10" ry="10" />
<g transform="translate(165 147) rotate(320) scale(41 30)"><rect fill="#dbdcdb" fill-opacity="0.501961" x="-0.5" y="-0.5" width="1" height="1" /></g>
<rect fill="#8f7d7f" fill-opacity="0.501961" x="165" y="61" width="10" height="13" />
<g transform="translate(165.703732 102.447470) rotate(286.459158) scale(11.181858 2.464201)"><ellipse fill="#4a2d23" fill-opacity="0.501961" cx="0" cy="0" rx="1" ry="1" /></g>
<polygon fill="#dadbdb" fill-opacity="0.501961" points="219,145 215,10 254,83" />
<polygon fill="#0d0e0a" fill-opacity="0.501961" points="111.652617,66.197862,110.666521,79.811456,118.041197,118.835731,122.216989,57.908136" />
<ellipse fill="#32241e" fill-opacity="0.501961" cx="106" cy="26" rx="18" ry="8" />
<rect fill="#56382f" fill-opacity="0.501961" x="108" y="115" width="8" height="39" />
<polygon fill="#dfdfde" fill-opacity="0.501961" points="5,122 42,87 38,22" />
<polygon fill="#d2d4d4" fill-opacity="0.501961" points="131,-16 258,69 203,-16" />
<polygon fill="#b5b7b6" fill-opacity="0.501961" points="70.669685,40.669039,60.804740,70.181571,58.086905,48.885051,75.494063,25.409934" />
<polygon fill="#3e302c" fill-opacity="0.501961" points="164.871410,120.051967,176.389166,108.598540,175.753015,123.738321,169.154646,122.466502" />
<polygon fill="#c3c3c2" fill-opacity="0.501961" points="227.034266,183.262986,171.485842,171.663943,133.517043,127.886601,177.070168,157.496977" />
<polygon fill="#69443e" fill-opacity="0.501961" points="143.368263,119.789958,140.364189,129.599814,131.678924,113.399569,177.665384,113.665322" />
<g transform="translate(160.078485 38.282342) rotate(190.979435) scale(26.595515 1.954854)"><ellipse fill="#90736a" fill-opacity="0.501961" cx="0" cy="0" rx="1" ry="1" /></g>
<g transform="translate(128.940385 53.627977) rotate(357.519341) scale(6.179061 25.655454)"><ellipse fill="#534747" fill-opacity="0.501961" cx="0" cy="0" rx="1" ry="1" /></g>
<g transform="translate(79 19) rotate(242) scale(12 11)"><rect fill="#0d0d0b" fill-opacity="0.501961" x="-0.5" y="-0.5" width="1" height="1" /></g>
<ellipse fill="#e0e3e5" fill-opacity="0.501961" cx="108" cy="3" rx="26" ry="5" />
<g transform="translate(233.421758 0.000000) rotate(61.862829) scale(26.886729 17.365559)"><ellipse fill="#b4b7b9" fill-opacity="0.501961" cx="0" cy="0" rx="1" ry="1" /></g>
<g transform="translate(2 157) rotate(194) scale(1 40)"><rect fill="#8e8b82" fill-opacity="0.501961" x="-0.5" y="-0.5" width="1" height="1" /></g>
<polygon fill="#adafab" fill-opacity="0.501961" points="237,148 271,122 237,169" />
<polygon fill="#64514f" fill-opacity="0.501961" points="123.712660,92.450889,117.133029,81.057544,128.973586,90.400878,184.598638,111.991496" />
<polygon fill="#563732" fill-opacity="0.501961" points="156.015349,42.939364,184.111291,56.036406,173.886699,36.308681,170.525185,62.642799" />
<g transform="translate(27 162) rotate(285) scale(70 4)"><rect fill="#e3e5e3" fill-opacity="0.501961" x="-0.5" y="-0.5" width="1" height="1" /></g>
<rect fill="#2c211a" fill-opacity="0.501961" x="98" y="50" width="13" height="108" />
<g transform="translate(145.372729 70.540960) rotate(276.388210) scale(8.283800 14.566244)"><ellipse fill="#221713" fill-opacity="0.501961" cx="0" cy="0" rx="1" ry="1" /></g>
<polygon fill="#70514d" fill-opacity="0.501961" points="198.003258,58.880594,171.278473,36.242327,182.214499,56.472558,179.708350,98.632492" />
<polygon fill="#50413b" fill-opacity="0.501961" points="113.875441,13.187342,142.777521,16.764923,111.833489,8.492585,76.627050,34.911649" />
<polygon fill="#cfd1d1" fill-opacity="0.501961" points="98.932263,164.670188,103.920850,156.841050,118.100809,173.371742,117.916211,166.656884" />
<polygon fill="#f2f4f2" fill-opacity="0.501961" points="199,69 192,104 180,101" />
<g transform="translate(161 120) rotate(240) scale(10 8)"><rect fill="#9e908e" fill-opacity="0.501961" x="-0.5" y="-0.5" width="1" height="1" /></g>
<polygon fill="#4f4843" fill-opacity="0.501961" points="88.303266,98.998044,72.001960,56.048231,69.136367,62.408953,66.073884,62.384429" />
<polygon fill="#100f0c" fill-opacity="0.501961" points="80.400905,62.570278,77.180623,79.374392,88.315815,82.970149,83.692481,29.107547" />
<polygon fill="#e3e3e1" fill-opacity="0.501961" points="157.911544,157.800241,136.360985,142.894181,120.946280,126.763828,153.979278,146.868462" />
<g transform="translate(140.866825 27.524964) rotate(55.516250) scale(13.077376 7.346102)"><ellipse fill="#806a65" fill-opacity="0.501961" cx="0" cy="0" rx="1" ry="1" /></g>
<rect fill="#e1e2e2" fill-opacity="0.501961" x="164" y="125" width="20" height="35" />
<g transform="translate(151 127) rotate(211) scale(18 6)"><rect fill="#987f84" fill-opacity="0.501961" x="-0.5" y="-0.5" width="1" height="1" /></g>
<polygon fill="#2b1e18" fill-opacity="0.501961" points="140.436419,115.417242,113.635872,81.577212,129.493311,132.107984,135.084499,92.079259" />
<polygon fill="#868886" fill-opacity="0.501961" points="83,98 97,95 96,133" />
<rect fill="#d1d2d2" fill-opacity="0.501961" x="68" y="130" width="22" height="35" />
<polygon fill="#61433d" fill-opacity="0.501961" points="197.053376,68.464473,196.501068,69.245855,187.095814,82.576112,185.790937,73.028419" />
<polygon fill="#8f9699" fill-opacity="0.501961" points="-16,60 -16,69 11,56" />
<polygon fill="#8d6761" fill-opacity="0.501961" points="141,91 136,122 147,108" />
<polygon fill="#e6e8e8" fill-opacity="0.501961" points="209.487738,16.633438,193.763318,33.914672,217.362294,64.616953,162.059692,27.358598" />
<g transform="translate(77.908981 105.314583) rotate(176.283355) scale(11.473720 7.101163)"><ellipse fill="#aaabac" fill-opacity="0.501961" cx="0" cy="0" rx="1" ry="1" /></g>
<g transform="translate(60.699223 153.102950) rotate(107.977270) scale(26.796834 1.789456)"><ellipse fill="#e5e5e2" fill-opacity="0.501961" cx="0" cy="0" rx="1" ry="1" /></g>
<polygon fill="#e3e5e3" fill-opacity="0.501961" points="246.295557,76.693693,196.993845,68.503682,193.679744,96.538799,244.432147,85.697425" />
<polygon fill="#dcdddc" fill-opacity="0.501961" points="33,88 5,70 9,24" />
<polygon fill="#e7e8e7" fill-opacity="0.501961" points="63.096095,22.507097,60.941557,10.560826,32.577451,49.645650,15.078826,38.007701" />
<polygon fill="#c4c6c7" fill-opacity="0.501961" points="58.929349,156.577183,44.695400,169.441087,-16.000000,114.222598,22.656830,130.584225" />
<polygon fill="#d2d3d2" fill-opacity="0.501961" points="45.673992,38.593259,-4.755287,118.474130,76.953476,30.126338,72.163938,24.770031" />
<g transform="translate(61 0) rotate(119) scale(1 16)"><rect fill="#090500" fill-opacity="0.501961" x="-0.5" y="-0.5" width="1" height="1" /></g>
<g transform="translate(125 160) rotate(296) scale(23 3)"><rect fill="#b2b2ad" fill-opacity="0.501961" x="-0.5" y="-0.5" width="1" height="1" /></g>
<polygon fill="#997466" fill-opacity="0.501961" points="127,38 117,33 109,37" />
<g transform="translate(115.920744 119.692633) rotate(147.228966) scale(11.544090 2.163735)"><ellipse fill="#653f30" fill-opacity="0.501961" cx="0" cy="0" rx="1" ry="1" /></g>
<g transform="translate(255.000000 4.371673) rotate(132.595791) scale(5.930939 9.723809)"><ellipse fill="#91949d" fill-opacity="0.501961" cx="0" cy="0" rx="1" ry="1" /></g>
<polygon fill="#7e8290" fill-opacity="0.501961" points="158,87 170,86 168,80" />
<g transform="translate(99.401176 140.412971) rotate(134.947558) scale(9.426845 4.007412)"><ellipse fill="#12100e" fill-opacity="0.501961" cx="0" cy="0" rx="1" ry="1" /></g>
<polygon fill="#e0e0da" fill-opacity="0.501961" points="-12.954793,186.000000,-4.749550,106.748094,-16.000000,176.036127,22.563953,95.700217" />
<polygon fill="#271815" fill-opacity="0.501961" points="165.570078,47.670082,166.545762,55.477686,177.246768,59.522751,177.695728,57.900956" />
<polygon fill="#d4d6d5" fill-opacity="0.501961" points="228,104 199,158 259,109" />
<polygon fill="#251d19" fill-opacity="0.501961" points="88.285982,25.985309,67.987555,48.125537,85.958147,60.672866,109.072524,28.811643" />
<polygon fill="#abada9" fill-opacity="0.501961" points="218.039407,161.317347,212.453521,162.243786,186.184572,183.921004,252.709532,141.563470" />
<polygon fill="#c7c9ca" fill-opacity="0.501961" points="246.152114,85.256289,225.467396,-3.479653,261.087183,64.745371,271.000000,70.183906" />
<g transform="translate(47.453970 112.249164) rotate(123.490346) scale(21.668214 1.000000)"><ellipse fill="#f5f6f6" fill-opacity="0.501961" cx="0" cy="0" rx="1" ry="1" /></g>
<polygon fill="#b2b2b1" fill-opacity="0.501961" points="240.181153,124.532891,270.112582,155.987771,260.141479,141.033833,236.779895,114.959186" />
<g transform="translate(19 56) rotate(44) scale(4 15)"><rect fill="#b6b3a9" fill-opacity="0.501961" x="-0.5" y="-0.5" width="1" height="1" /></g>
<rect fill="#5c3025" fill-opacity="0.501961" x="141" y="115" width="14" height="5" />
<polygon fill="#898b8c" fill-opacity="0.501961" points="94.806705,137.807939,92.558698,126.186952,89.558561,143.773458,92.656392,142.692584" />
<polygon fill="#c0bebb" fill-opacity="0.501961" points="126.993709,129.108920,153.930122,160.829755,118.934533,120.802635,114.629990,144.718758" />
<polygon fill="#efefef" fill-opacity="0.501961" points="170.143863,17.854835,223.447122,-16.000000,176.656079,18.754240,188.894238,18.855369" />
<polygon fill="#90776e" fill-opacity="0.501961" points="175.467164,78.102444,179.227567,100.746134,185.092295,92.081095,168.997409,113.701778" />
<polygon fill="#2b1e1a" fill-opacity="0.501961" points="166.282509,76.499073,151.599877,96.262540,155.017948,58.512445,127.535877,94.536273" />
<polygon fill="#b6b7b8" fill-opacity="0.501961" points="45.981905,80.229441,74.677494,55.525708,39.724598,86.115701,65.759063,91.768904" />
<rect fill="#6c534a" fill-opacity="0.501961" x="178" y="104" width="4" height="15" />
<polygon fill="#55332b" fill-opacity="0.501961" points="155,59 163,61 160,86" />
<polygon fill="#4a2b25" fill-opacity="0.501961" points="134,133 147,129 135,125" />
<polygon fill="#473027" fill-opacity="0.501961" points="109.486251,125.924250,88.310897,124.178800,118.625656,118.642124,104.314795,105.831898" />
<polygon fill="#664033" fill-opacity="0.501961" points="91,50 95,62 103,41" />
<g transform="translate(71 0) rotate(141) scale(5 19)"><rect fill="#42383a" fill-opacity="0.501961" x="-0.5" y="-0.5" width="1" height="1" /></g>
<g transform="translate(216 170) rotate(154) scale(42 4)"><rect fill="#d1d4d3" fill-opacity="0.501961" x="-0.5" y="-0.5" width="1" height="1" /></g>
<polygon fill="#bcb5b2" fill-opacity="0.501961" points="109.895220,152.950498,110.118190,150.228310,111.995053,171.554380,119.990318,154.254752" />
<g transform="translate(7 110) rotate(251) scale(4 5)"><rect fill="#907c70" fill-opacity="0.501961" x="-0.5" y="-0.5" width="1" height="1" /></g>
<polygon fill="#352b29" fill-opacity="0.501961" points="101.792856,44.799495,108.097391,83.429255,119.004525,46.141190,127.275248,61.685535" />
<polygon fill="#4b3530" fill-opacity="0.501961" points="174,83 162,101 168,103" />
<polygon fill="#d4d5d6" fill-opacity="0.501961" points="193.199190,44.951389,252.218873,-2.865670,191.612187,34.329397,195.028276,-14.547581" />
<polygon fill="#d9dbdb" fill-opacity="0.501961" points="80.390917,9.910280,131.672490,8.695827,162.667350,-16.000000,79.868197,4.691716" />
<polygon fill="#c5c6c4" fill-opacity="0.501961" points="5,85 23,83 16,106" />
<polygon fill="#e8e8e8" fill-opacity="0.501961" points="50,55 35,52 12,67" />
<g transform="translate(225 15) rotate(321) scale(1 43)"><rect fill="#a8aaa6" fill-opacity="0.501961" x="-0.5" y="-0.5" width="1" height="1" /></g>
<polygon fill="#e0e2e1" fill-opacity="0.501961" points="213.670397,92.108893,200.480428,124.446306,217.677141,53.607178,235.648608,24.028727" />
<polygon fill="#110e0a" fill-opacity="0.501961" points="136.497231,110.670764,128.725394,93.263031,103.455180,103.546543,111.291629,89.666266" />
<path stroke="#d6d1cf" stroke-opacity="0.501961" fill="none" d="M 157.307020 2.275412 Q 179.285569 36.910037, 202.991198 61.492522" stroke-width="0.500000" />
<polygon fill="#95999d" fill-opacity="0.501961" points="50.703869,4.158093,91.228163,-16.000000,83.875847,2.756436,40.020869,-15.553771" />
<g transform="translate(18 5) rotate(-15) scale(3 13)"><rect fill="#eae9eb" fill-opacity="0.501961" x="-0.5" y="-0.5" width="1" height="1" /></g>
<rect fill="#b2b4b2" fill-opacity="0.501961" x="48" y="6" width="3" height="19" />
<polygon fill="#adafaf" fill-opacity="0.501961" points="65,37 56,77 69,83" />
<polygon fill="#c5c6c4" fill-opacity="0.501961" points="86.802717,106.039867,38.348203,134.978126,81.497865,119.974739,47.312969,179.317452" />
<polygon fill="#d1d2d1" fill-opacity="0.501961" points="36.964034,26.434278,41.749361,68.970272,62.829243,57.223923,59.708489,72.584157" />
<polygon fill="#7b5249" fill-opacity="0.501961" points="155,122 150,134 140,134" />
<g transform="translate(2 0) rotate(114) scale(16 27)"><rect fill="#afb2b6" fill-opacity="0.501961" x="-0.5" y="-0.5" width="1" height="1" /></g>
<g transform="translate(117.817996 165.521553) rotate(119.828237) scale(32.589014 1.436438)"><ellipse fill="#e2e3e1" fill-opacity="0.501961" cx="0" cy="0" rx="1" ry="1" /></g>
<polygon fill="#d9d9d5" fill-opacity="0.501961" points="182.989116,124.679060,141.702468,137.943000,182.146675,131.846349,164.465747,125.713769" />
<polygon fill="#e3e4e4" fill-opacity="0.501961" points="236.512251,119.400774,214.885997,142.768588,250.569539,99.339540,224.201111,107.666115" />
<polygon fill="#babdbd" fill-opacity="0.501961" points="212,153 186,151 206,159" />
<g transform="translate(158.460189 18.086970) rotate(55.500676) scale(23.031881 12.587274)"><ellipse fill="#e5e6e6" fill-opacity="0.501961" cx="0" cy="0" rx="1" ry="1" /></g>
<polygon fill="#573e37" fill-opacity="0.501961" points="120,9 105,13 128,36" />
<g transform="translate(31 149) rotate(199) scale(1 32)"><rect fill="#efefee" fill-opacity="0.501961" x="-0.5" y="-0.5" width="1" height="1" /></g>
<polygon fill="#686b6b" fill-opacity="0.501961" points="70.060597,75.496550,75.918955,91.153405,82.019651,81.561590,69.457331,68.108238" />
<polygon fill="#c6c8c6" fill-opacity="0.501961" points="119.393527,117.939721,125.235920,125.837682,134.572270,143.678558,121.764634,146.185248" />
<polygon fill="#4f322c" fill-opacity="0.501961" points="140.735569,95.185479,151.138928,98.492658,151.765484,86.897011,137.788874,80.117823" />
</g>
</svg>