<svg xmlns="http://www.w3.org/2000/svg" version="1.1" width="1024" height="680">
<rect x="0" y="0" width="1024" height="680" fill="#bca283" />
<g transform="scale(4.000000) translate(0.5 0.5)">
<g transform="translate(22.177868 119.441825) rotate(290.096239) scale(94.190374 33.276551)"><ellipse fill="#852700" fill-opacity="0.501961" cx="0" cy="0" rx="1" ry="1" /></g>
<g transform="translate(141.650630 68.214314) rotate(181.672452) scale(72.001710 125.785800)"><ellipse fill="#e6ddc4" fill-opacity="0.501961" cx="0" cy="0" rx="1" ry="1" /></g>
<g transform="translate(244.564604 13.515240) rotate(80.224313) scale(46.863722 15.757340)"><ellipse fill="#2e0500" fill-opacity="0.501961" cx="0" cy="0" rx="1" ry="1" /></g>
<ellipse fill="#a7d6f4" fill-opacity="0.501961" cx="115" cy="0" rx="84" ry="32" />
<ellipse fill="#6b938f" fill-opacity="0.501961" cx="18" cy="32" rx="36" ry="36" />
<g transform="translate(250.103951 167.513582) rotate(183.258219) scale(35.354770 16.794994)"><ellipse fill="#821000" fill-opacity="0.501961" cx="0" cy="0" rx="1" ry="1" /></g>
<g transform="translate(5.839475 99.083892) rotate(17.775950) scale(46.895065 31.950136)"><ellipse fill="#883300" fill-opacity="0.501961" cx="0" cy="0" rx="1" ry="1" /></g>
<g transform="translate(207.447071 32.891864) rotate(200.428151) scale(28.445677 38.661927)"><ellipse fill="#8d9593" fill-opacity="0.501961" cx="0" cy="0" rx="1" ry="1" /></g>
<g transform="translate(125.703920 135.458090) rotate(278.182737) scale(38.626333 78.126030)"><ellipse fill="#fcc489" fill-opacity="0.501961" cx="0" cy="0" rx="1" ry="1" /></g>
<g transform="translate(56 69) rotate(22) scale(19 76)"><rect fill="#ad4d00" fill-opacity="0.501961" x="-0.5" y="-0.5" width="1" height="1" /></g>
<g transform="translate(65.951871 164.978943) rotate(8.676741) scale(31.648861 16.643645)"><ellipse fill="#d96437" fill-opacity="0.501961" cx="0" cy="0" rx="1" ry="1" /></g>
<ellipse fill="#624113" fill-opacity="0.501961" cx="2" cy="109" rx="11" ry="97" />
<polygon fill="#c3d1cf" fill-opacity="0.501961" points="34.984747,72.278867,53.271917,-16.000000,96.237291,19.404671,3.568115,61.216890" />
<rect fill="#a2a18c" fill-opacity="0.501961" x="85" y="29" width="123" height="30" />
<polygon fill="#e4845f" fill-opacity="0.501961" points="249,185 202,144 85,169" />
<rect fill="#bbb988" fill-opacity="0.501961" x="22" y="125" width="15" height="36" />
<g transform="translate(120.998915 75.106957) rotate(377.052870) scale(29.889803 21.065081)"><ellipse fill="#dcdbd3" fill-opacity="0.501961" cx="0" cy="0" rx="1" ry="1" /></g>
<ellipse fill="#f5e3bb" fill-opacity="0.501961" cx="142" cy="124" rx="46" ry="19" />
<g transform="translate(255.000000 113.071823) rotate(107.682987) scale(46.368210 14.672160)"><ellipse fill="#997649" fill-opacity="0.501961" cx="0" cy="0" rx="1" ry="1" /></g>
<ellipse fill="#514231" fill-opacity="0.501961" cx="24" cy="0" rx="9" ry="21" />
<polygon fill="#becbc2" fill-opacity="0.501961" points="244,117 207,72 238,54" />
<g transform="translate(255.000000 16.068540) rotate(161.802250) scale(16.226472 48.140654)"><ellipse fill="#5a2300" fill-opacity="0.501961" cx="0" cy="0" rx="1" ry="1" /></g>
<ellipse fill="#dac48b" fill-opacity="0.501961" cx="200" cy="124" rx="32" ry="35" />
<polygon fill="#f7d494" fill-opacity="0.501961" points="72.009762,44.620329,54.195101,132.114805,49.763697,103.200205,87.355121,91.450576" />
<ellipse fill="#972f00" fill-opacity="0.501961" cx="48" cy="71" rx="26" ry="7" />
<ellipse fill="#c2d2d8" fill-opacity="0.501961" cx="172" cy="7" rx="41" ry="27" />
<g transform="translate(253.174901 59.435131) rotate(113.352357) scale(9.037472 70.722637)"><ellipse fill="#948668" fill-opacity="0.501961" cx="0" cy="0" rx="1" ry="1" /></g>
<g transform="translate(112 28) rotate(281) scale(65 21)"><rect fill="#a09b8b" fill-opacity="0.501961" x="-0.5" y="-0.5" width="1" height="1" /></g>
<polygon fill="#661700" fill-opacity="0.501961" points="45,185 69,185 16,146" />
<polygon fill="#bd620b" fill-opacity="0.501961" points="66.488745,106.759990,28.211517,95.751693,43.163629,166.903728,58.565765,78.373110" />
<polygon fill="#b21f00" fill-opacity="0.501961" points="189,165 210,173 195,157" />
<g transform="translate(46.825489 35.897902) rotate(132.670058) scale(23.864656 9.970518)"><ellipse fill="#9a9d7a" fill-opacity="0.501961" cx="0" cy="0" rx="1" ry="1" /></g>
<ellipse fill="#560b00" fill-opacity="0.501961" cx="60" cy="51" rx="3" ry="19" />
<polygon fill="#b4d4e2" fill-opacity="0.501961" points="28,18 52,-16 106,20" />
<polygon fill="#eed1a4" fill-opacity="0.501961" points="69.743946,185.000000,41.868379,161.591376,71.224125,165.015982,130.877045,89.886200" />
<g transform="translate(126.061617 75.704296) rotate(351.653436) scale(2.519106 25.841978)"><ellipse fill="#f4ffff" fill-opacity="0.501961" cx="0" cy="0" rx="1" ry="1" /></g>
<g transform="translate(5.902118 24.423718) rotate(342.619804) scale(8.106406 27.636422)"><ellipse fill="#5e7a68" fill-opacity="0.501961" cx="0" cy="0" rx="1" ry="1" /></g>
<polygon fill="#f0e8c3" fill-opacity="0.501961" points="84.072307,83.826189,58.019716,81.597410,69.628570,107.394338,77.694278,50.564472" />
<polygon fill="#cd872f" fill-opacity="0.501961" points="33.408125,55.016220,85.462305,48.742822,79.404552,36.993868,53.997576,67.438623" />
<polygon fill="#821600" fill-opacity="0.501961" points="-13.471938,51.252042,-16.000000,70.359721,31.621434,130.110631,34.230133,119.919296" />
<polygon fill="#c35430" fill-opacity="0.501961" points="65.474029,149.499060,83.260156,155.219395,52.691025,155.636241,44.924712,136.875895" />
<g transform="translate(126.948334 150.697093) rotate(363.855585) scale(4.864963 1.553550)"><ellipse fill="#6f1600" fill-opacity="0.501961" cx="0" cy="0" rx="1" ry="1" /></g>
<polygon fill="#bc7d56" fill-opacity="0.501961" points="217.142466,117.065237,208.908561,123.165840,187.884675,124.535475,186.076126,113.542508" />
<g transform="translate(57.878101 113.611126) rotate(253.745267) scale(15.350462 2.954086)"><ellipse fill="#f8e5b2" fill-opacity="0.501961" cx="0" cy="0" rx="1" ry="1" /></g>
<polygon fill="#79280f" fill-opacity="0.501961" points="223,160 259,152 263,178" />
<polygon fill="#f05418" fill-opacity="0.501961" points="62,106 43,71 23,66" />
<polygon fill="#edf0ef" fill-opacity="0.501961" points="33,50 26,63 32,68" />
<ellipse fill="#8d7b38" fill-opacity="0.501961" cx="13" cy="133" rx="9" ry="27" />
<polygon fill="#de8058" fill-opacity="0.501961" points="109.974691,173.138238,101.605630,153.491577,122.823535,157.531163,144.887378,162.017584" />
<g transform="translate(19 51) rotate(17) scale(4 33)"><rect fill="#cdd9e0" fill-opacity="0.501961" x="-0.5" y="-0.5" width="1" height="1" /></g>
<polygon fill="#fffffc" fill-opacity="0.501961" points="138,163 150,165 142,185" />
<polygon fill="#645c4f" fill-opacity="0.501961" points="97.963621,46.379623,101.106226,52.550465,83.090906,62.038968,93.892214,60.878330" />
<polygon fill="#803d06" fill-opacity="0.501961" points="64.589405,57.797026,32.809950,66.947776,52.236631,84.711121,71.770478,66.236422" />
<polygon fill="#ce825e" fill-opacity="0.501961" points="231.520405,144.339792,250.263391,164.613415,228.920110,155.222658,162.616013,185.000000" />
<rect fill="#c8b87e" fill-opacity="0.501961" x="73" y="88" width="49" height="16" />
<rect fill="#ececf0" fill-opacity="0.501961" x="150" y="61" width="8" height="24" />
<g transform="translate(78 55) rotate(-44) scale(12 14)"><rect fill="#fafcda" fill-opacity="0.501961" x="-0.5" y="-0.5" width="1" height="1" /></g>
<polygon fill="#796a3f" fill-opacity="0.501961" points="245.291779,52.807350,240.947180,41.635913,262.774626,-16.000000,225.967738,51.066086" />
<polygon fill="#dfc191" fill-opacity="0.501961" points="228.175034,82.094067,54.045247,113.836775,42.736605,158.594422,53.416623,132.834484" />
<g transform="translate(20 90) rotate(264) scale(32 9)"><rect fill="#d96315" fill-opacity="0.501961" x="-0.5" y="-0.5" width="1" height="1" /></g>
<rect fill="#c8e2e9" fill-opacity="0.501961" x="66" y="2" width="26" height="32" />
<g transform="translate(179 165) rotate(144) scale(24 6)"><rect fill="#ffddc7" fill-opacity="0.501961" x="-0.5" y="-0.5" width="1" height="1" /></g>
<g transform="translate(204.022585 47.892603) rotate(68.711820) scale(26.493602 12.261618)"><ellipse fill="#ab937d" fill-opacity="0.501961" cx="0" cy="0" rx="1" ry="1" /></g>
<polygon fill="#8f6b53" fill-opacity="0.501961" points="13,73 14,37 -7,54" />
<g transform="translate(251.452501 76.630008) rotate(264.117004) scale(25.497457 13.782009)"><ellipse fill="#93957d" fill-opacity="0.501961" cx="0" cy="0" rx="1" ry="1" /></g>
<polygon fill="#f8e6bf" fill-opacity="0.501961" points="158.264089,162.258957,153.168105,164.085491,88.772843,120.591369,106.775571,121.407934" />
<rect fill="#ff1e3b" fill-opacity="0.501961" x="86" y="161" width="11" height="7" />
<polygon fill="#89230a" fill-opacity="0.501961" points="165,154 165,159 154,154" />
<polygon fill="#daba89" fill-opacity="0.501961" points="134.424076,109.898795,116.851482,107.428917,172.358249,67.080996,198.678991,98.858515" />
<polygon fill="#db943d" fill-opacity="0.501961" points="88.449284,48.574759,89.748314,52.533791,66.259609,48.622581,69.759494,30.934383" />
<polygon fill="#d8e4e7" fill-opacity="0.501961" points="202,71 200,102 193,69" />
<polygon fill="#c41908" fill-opacity="0.501961" points="102,169 116,165 116,169" />
<ellipse fill="#a4b1b4" fill-opacity="0.501961" cx="208" cy="12" rx="18" ry="18" />
<polygon fill="#f0dcab" fill-opacity="0.501961" points="149,108 218,96 212,114" />
<polygon fill="#c3cecf" fill-opacity="0.501961" points="235.666294,84.571413,240.449138,49.766251,225.571971,69.396062,227.334168,80.965684" />
<polygon fill="#a70000" fill-opacity="0.501961" points="22,121 31,122 21,93" />
<ellipse fill="#9f8c6e" fill-opacity="0.501961" cx="117" cy="44" rx="3" ry="27" />
<polygon fill="#d20000" fill-opacity="0.501961" points="52,92 63,96 64,109" />
<polygon fill="#d79d6b" fill-opacity="0.501961" points="148,150 124,134 163,145" />
<polygon fill="#e4d6a1" fill-opacity="0.501961" points="54.770057,81.821556,86.423944,147.503203,88.492947,163.195099,101.425104,143.490228" />
<g transform="translate(225.280850 87.934867) rotate(159.591763) scale(24.905833 6.109364)"><ellipse fill="#b5a57c" fill-opacity="0.501961" cx="0" cy="0" rx="1" ry="1" /></g>
<g transform="translate(65 157) rotate(81) scale(6 13)"><rect fill="#ffd292" fill-opacity="0.501961" x="-0.5" y="-0.5" width="1" height="1" /></g>
<rect fill="#bc9786" fill-opacity="0.501961" x="8" y="135" width="7" height="13" />
<polygon fill="#5e0000" fill-opacity="0.501961" points="10,167 -16,160 14,160" />
<ellipse fill="#eb6d16" fill-opacity="0.501961" cx="104" cy="146" rx="4" ry="4" />
<rect fill="#bdc5b2" fill-opacity="0.501961" x="23" y="124" width="3" height="31" />
<rect fill="#ffe4d4" fill-opacity="0.501961" x="119" y="164" width="12" height="4" />
<g transform="translate(70 169) rotate(178) scale(4 11)"><rect fill="#c40000" fill-opacity="0.501961" x="-0.5" y="-0.5" width="1" height="1" /></g>
<g transform="translate(30 25) rotate(42) scale(6 28)"><rect fill="#acc5cd" fill-opacity="0.501961" x="-0.5" y="-0.5" width="1" height="1" /></g>
<polygon fill="#e19940" fill-opacity="0.501961" points="54.908542,37.213179,52.578611,55.188000,52.270457,66.700113,43.186058,54.369764" />
<polygon fill="#698aa0" fill-opacity="0.501961" points="-7.469216,-8.984848,-3.289976,19.148063,19.027879,19.781518,16.683435,1.267155" />
<rect fill="#b1b4b1" fill-opacity="0.501961" x="90" y="0" width="41" height="21" />
<polygon fill="#bab5a5" fill-opacity="0.501961" points="199,70 159,19 129,63" />
<ellipse fill="#000010" fill-opacity="0.501961" cx="97" cy="49" rx="3" ry="2" />
<g transform="translate(77.407620 154.827117) rotate(354.182778) scale(6.327684 1.000000)"><ellipse fill="#6b3c0a" fill-opacity="0.501961" cx="0" cy="0" rx="1" ry="1" /></g>
<polygon fill="#f5d1a6" fill-opacity="0.501961" points="166,157 198,146 156,132" />
<ellipse fill="#dde4e8" fill-opacity="0.501961" cx="97" cy="76" rx="4" ry="19" />
<g transform="translate(238.892154 1.255967) rotate(345.404153) scale(5.493993 22.707596)"><ellipse fill="#7c1c00" fill-opacity="0.501961" cx="0" cy="0" rx="1" ry="1" /></g>
<polygon fill="#7e370b" fill-opacity="0.501961" points="41.919136,175.212146,41.677348,155.392910,18.550416,167.832655,44.875537,169.057281" />
<polygon fill="#fff8ce" fill-opacity="0.501961" points="100.777899,154.066404,62.255863,144.070803,67.528323,150.145628,101.650634,148.293190" />
<polygon fill="#bcb18d" fill-opacity="0.501961" points="235,160 233,96 212,122" />
<polygon fill="#650d00" fill-opacity="0.501961" points="55,52 60,34 64,61" />
<ellipse fill="#943e01" fill-opacity="0.501961" cx="43" cy="116" rx="10" ry="10" />
<g transform="translate(123 56) rotate(-94) scale(10 9)"><rect fill="#e5f3fb" fill-opacity="0.501961" x="-0.5" y="-0.5" width="1" height="1" /></g>
<g transform="translate(255 8) rotate(69) scale(8 18)"><rect fill="#6d7d81" fill-opacity="0.501961" x="-0.5" y="-0.5" width="1" height="1" /></g>
<polygon fill="#f8f5e7" fill-opacity="0.501961" points="69.140721,93.689017,79.344063,67.018685,82.649987,73.946864,73.201522,92.098037" />
<polygon fill="#999982" fill-opacity="0.501961" points="39.100794,60.411090,27.165187,52.793584,47.034392,12.976973,53.706606,40.954489" />
<g transform="translate(72.437086 137.286546) rotate(287.073522) scale(8.431534 14.582906)"><ellipse fill="#bba976" fill-opacity="0.501961" cx="0" cy="0" rx="1" ry="1" /></g>
<rect fill="#634d35" fill-opacity="0.501961" x="84" y="57" width="13" height="3" />
<ellipse fill="#000021" fill-opacity="0.501961" cx="80" cy="45" rx="2" ry="2" />
<g transform="translate(16 151) rotate(122) scale(1 28)"><rect fill="#5e2500" fill-opacity="0.501961" x="-0.5" y="-0.5" width="1" height="1" /></g>
<polygon fill="#6d2900" fill-opacity="0.501961" points="-16.000000,126.683518,3.670186,72.229783,17.731592,85.331838,8.931848,105.247364" />
<rect fill="#997753" fill-opacity="0.501961" x="248" y="81" width="8" height="61" />
<polygon fill="#543e18" fill-opacity="0.501961" points="271.000000,22.612863,253.510759,-3.705215,253.816567,9.635618,231.480122,54.154606" />
<polygon fill="#9c2914" fill-opacity="0.501961" points="216.299349,163.790871,249.626804,167.009132,223.695400,157.542865,202.840725,165.410014" />
<ellipse fill="#514a0a" fill-opacity="0.501961" cx="0" cy="129" rx="23" ry="5" />
<rect fill="#c1b584" fill-opacity="0.501961" x="196" y="120" width="50" height="13" />
<polygon fill="#671700" fill-opacity="0.501961" points="44,59 38,64 58,85" />
<rect fill="#f4efd2" fill-opacity="0.501961" x="73" y="51" width="21" height="7" />
<polygon fill="#af7d52" fill-opacity="0.501961" points="9.244551,137.626725,17.838130,165.689593,65.077212,148.487364,11.856907,156.486560" />
<polygon fill="#9d8f77" fill-opacity="0.501961" points="244.942622,26.269797,192.278010,53.919229,194.386335,68.837055,227.704544,49.912801" />
<polygon fill="#d2b180" fill-opacity="0.501961" points="254.153100,141.061972,248.649524,154.823228,212.293345,120.852374,191.603523,160.105639" />
<polygon fill="#bb3833" fill-opacity="0.501961" points="137.749677,185.000000,166.343368,167.553699,168.162702,184.424537,155.508820,163.675138" />
<rect fill="#b6a383" fill-opacity="0.501961" x="237" y="161" width="19" height="2" />
<polygon fill="#c99735" fill-opacity="0.501961" points="75,70 55,76 61,85" />
<polygon fill="#c3ae8b" fill-opacity="0.501961" points="91,64 91,91 63,108" />
<polygon fill="#c03223" fill-opacity="0.501961" points="57.545440,140.813496,57.326332,146.899843,51.181190,147.718001,49.866766,144.055893" />
<g transform="translate(26.338577 48.622106) rotate(104.022276) scale(16.512101 1.657990)"><ellipse fill="#8d7241" fill-opacity="0.501961" cx="0" cy="0" rx="1" ry="1" /></g>
<ellipse fill="#c8ceb8" fill-opacity="0.501961" cx="64" cy="22" rx="2" ry="23" />
<g transform="translate(168.508348 14.762384) rotate(309.977775) scale(7.937384 22.613225)"><ellipse fill="#c7dde5" fill-opacity="0.501961" cx="0" cy="0" rx="1" ry="1" /></g>
<polygon fill="#f7cc89" fill-opacity="0.501961" points="96.356854,47.763692,70.915286,33.058827,91.868416,52.136597,95.634294,48.565885" />
<rect fill="#aa9784" fill-opacity="0.501961" x="131" y="35" width="10" height="28" />
<rect fill="#866c2b" fill-opacity="0.501961" x="236" y="115" width="20" height="4" />
<polygon fill="#e55b2e" fill-opacity="0.501961" points="192,151 186,158 203,151" />
<polygon fill="#afad99" fill-opacity="0.501961" points="251.946319,61.862495,230.025647,136.407045,245.171703,68.880984,247.835513,41.959953" />
<g transform="translate(26 69) rotate(14) scale(20 1)"><rect fill="#ff5955" fill-opacity="0.501961" x="-0.5" y="-0.5" width="1" height="1" /></g>
<polygon fill="#a56337" fill-opacity="0.501961" points="90.150104,160.804230,49.306360,163.501612,1.069022,165.108361,84.112680,158.547561" />
<polygon fill="#f4e0b8" fill-opacity="0.501961" points="158.982659,137.421373,70.941688,127.881056,143.714136,111.951730,143.124094,148.617935" />
<polygon fill="#dba13f" fill-opacity="0.501961" points="53,103 41,81 50,89" />
<polygon fill="#d8d6cc" fill-opacity="0.501961" points="180,85 188,67 178,58" />
<g transform="translate(104 158) rotate(376) scale(4 3)"><rect fill="#a30800" fill-opacity="0.501961" x="-0.5" y="-0.5" width="1" height="1" /></g>
<ellipse fill="#6d2d05" fill-opacity="0.501961" cx="15" cy="72" rx="17" ry="2" />
<polygon fill="#d06956" fill-opacity="0.501961" points="232,157 219,158 224,145" />
<polygon fill="#99855e" fill-opacity="0.501961" points="124,32 113,22 120,47" />
<polygon fill="#f4d9a7" fill-opacity="0.501961" points="97,163 108,157 125,166" />
<polygon fill="#594d35" fill-opacity="0.501961" points="13.861232,0.237086,32.817880,6.840490,37.711672,-16.000000,19.740886,10.516266" />
<rect fill="#c97044" fill-opacity="0.501961" x="108" y="160" width="39" height="3" />
<polygon fill="#817e77" fill-opacity="0.501961" points="222,14 226,0 237,36" />
<polygon fill="#d3bf97" fill-opacity="0.501961" points="31,148 35,131 38,154" />
<polygon fill="#e3bd93" fill-opacity="0.501961" points="175.574790,152.412006,223.413561,170.059958,208.337277,171.039722,207.399829,161.183978" />
<ellipse fill="#a44908" fill-opacity="0.501961" cx="65" cy="162" rx="4" ry="4" />
<polygon fill="#9b781a" fill-opacity="0.501961" points="190.210396,185.000000,188.131061,185.000000,204.485901,162.449643,210.648836,165.310879" />
<rect fill="#8c3600" fill-opacity="0.501961" x="118" y="149" width="11" height="2" />
<ellipse fill="#cb5233" fill-opacity="0.501961" cx="192" cy="117" rx="4" ry="4" />
<rect fill="#913f22" fill-opacity="0.501961" x="48" y="152" width="4" height="11" />
<polygon fill="#aa7729" fill-opacity="0.501961" points="-5,117 17,108 20,124" />
<rect fill="#c6beaa" fill-opacity="0.501961" x="100" y="41" width="6" height="47" />
<ellipse fill="#7c3500" fill-opacity="0.501961" cx="239" cy="151" rx="3" ry="3" />
<polygon fill="#edce8c" fill-opacity="0.501961" points="81.402866,185.000000,57.836475,156.834743,56.942642,185.000000,58.729360,185.000000" />
<rect fill="#e2ddd5" fill-opacity="0.501961" x="151" y="58" width="8" height="28" />
<ellipse fill="#ac0000" fill-opacity="0.501961" cx="194" cy="162" rx="3" ry="3" />
<polygon fill="#babeb3" fill-opacity="0.501961" points="232,119 223,103 243,88" />
<rect fill="#e6ae89" fill-opacity="0.501961" x="47" y="132" width="11" height="11" />
<polygon fill="#cbc485" fill-opacity="0.501961" points="56,166 43,156 45,167" />
<polygon fill="#e0bf91" fill-opacity="0.501961" points="220.665805,129.443152,197.768327,143.616363,132.895338,118.142818,149.594578,136.491880" />
<polygon fill="#ffffc8" fill-opacity="0.501961" points="99.287087,154.878714,92.528271,154.202079,83.768097,145.389007,89.113760,144.042032" />
<polygon fill="#f5a2a2" fill-opacity="0.501961" points="72,159 72,175 87,161" />
<polygon fill="#dece9c" fill-opacity="0.501961" points="49,129 102,108 68,100" />
<rect fill="#d7bbb5" fill-opacity="0.501961" x="6" y="66" width="27" height="2" />
<polygon fill="#e1cd9e" fill-opacity="0.501961" points="87.355067,74.238601,70.638214,48.953028,79.540686,48.460572,63.903540,57.275953" />
<polygon fill="#857a57" fill-opacity="0.501961" points="20.844772,28.215343,40.502448,-7.559655,10.866095,34.900312,6.581273,80.079671" />
<rect fill="#ef9230" fill-opacity="0.501961" x="13" y="75" width="11" height="4" />
<ellipse fill="#b30f00" fill-opacity="0.501961" cx="177" cy="157" rx="2" ry="2" />
<polygon fill="#b9c9c9" fill-opacity="0.501961" points="113.403136,-1.000907,110.648761,33.509680,89.871240,-9.908027,131.122156,38.269555" />
<polygon fill="#ab5520" fill-opacity="0.501961" points="130,136 136,140 124,136" />
<rect fill="#fde3af" fill-opacity="0.501961" x="26" y="169" width="9" height="1" />
<g transform="translate(128 78) rotate(80) scale(45 3)"><rect fill="#edf8f7" fill-opacity="0.501961" x="-0.5" y="-0.5" width="1" height="1" /></g>
<polygon fill="#ece8bf" fill-opacity="0.501961" points="169.919992,132.556609,153.678310,125.582897,138.466227,109.895691,174.559107,121.851386" />
<polygon fill="#b88220" fill-opacity="0.501961" points="29.188766,73.912344,33.951481,86.564739,38.683067,106.812155,34.765804,73.669674" />
<polygon fill="#eea47d" fill-opacity="0.501961" points="142.716395,146.473432,177.501395,145.708317,184.574977,152.481855,163.407771,150.860156" />
</g>
</svg>