<svg xmlns="http://www.w3.org/2000/svg" version="1.1" width="1024" height="680">
<rect x="0" y="0" width="1024" height="680" fill="#88431e" />
<g transform="scale(4.000000) translate(0.5 0.5)">
<g transform="translate(103.516677 81.806503) rotate(127.664926) scale(50.351044 23.585988)"><ellipse fill="#c1e1da" fill-opacity="0.501961" cx="0" cy="0" rx="1" ry="1" /></g>
<g transform="translate(176.113760 152.853368) rotate(356.082584) scale(255.000000 26.120095)"><ellipse fill="#531200" fill-opacity="0.501961" cx="0" cy="0" rx="1" ry="1" /></g>
<polygon fill="#866343" fill-opacity="0.501961" points="166,67 76,159 120,44" />
<polygon fill="#e0e1d4" fill-opacity="0.501961" points="127,27 73,83 68,134" />
<polygon fill="#988b6e" fill-opacity="0.501961" points="58.469988,132.278152,116.057279,73.442274,124.856830,134.766937,113.989546,135.949026" />
<g transform="translate(181.146706 68.625782) rotate(405.256705) scale(36.286072 72.327508)"><ellipse fill="#a34412" fill-opacity="0.501961" cx="0" cy="0" rx="1" ry="1" /></g>
<g transform="translate(9.943653 145.175532) rotate(110.995418) scale(27.831877 26.483337)"><ellipse fill="#581d00" fill-opacity="0.501961" cx="0" cy="0" rx="1" ry="1" /></g>
<ellipse fill="#772f09" fill-opacity="0.501961" cx="24" cy="1" rx="255" ry="20" />
<ellipse fill="#a94f1a" fill-opacity="0.501961" cx="119" cy="28" rx="73" ry="12" />
<polygon fill="#3b3e37" fill-opacity="0.501961" points="113.650667,53.866829,117.761100,74.425064,127.922098,64.465156,126.415697,44.739190" />
<g transform="translate(185.465293 131.896766) rotate(151.782945) scale(193.795817 26.122492)"><ellipse fill="#7a2d04" fill-opacity="0.501961" cx="0" cy="0" rx="1" ry="1" /></g>
<g transform="translate(59.692868 59.154642) rotate(159.150964) scale(42.034832 20.918612)"><ellipse fill="#a64815" fill-opacity="0.501961" cx="0" cy="0" rx="1" ry="1" /></g>
<ellipse fill="#919b96" fill-opacity="0.501961" cx="139" cy="62" rx="5" ry="12" />
<g transform="translate(91 128) rotate(182) scale(8 17)"><rect fill="#c9c2a7" fill-opacity="0.501961" x="-0.5" y="-0.5" width="1" height="1" /></g>
<polygon fill="#6e2400" fill-opacity="0.501961" points="89.191716,144.760821,76.569303,185.000000,76.430906,119.789785,82.840520,116.121650" />
<polygon fill="#913b0e" fill-opacity="0.501961" points="-7,126 23,-14 71,142" />
<g transform="translate(114 130) rotate(383) scale(12 11)"><rect fill="#b3ac88" fill-opacity="0.501961" x="-0.5" y="-0.5" width="1" height="1" /></g>
<ellipse fill="#ccc1b0" fill-opacity="0.501961" cx="70" cy="121" rx="3" ry="13" />
<polygon fill="#beb19d" fill-opacity="0.501961" points="116.429798,53.038529,62.944441,107.285366,68.723410,107.364018,87.504112,120.944225" />
<g transform="translate(112 103) rotate(212) scale(14 52)"><rect fill="#7f6348" fill-opacity="0.501961" x="-0.5" y="-0.5" width="1" height="1" /></g>
<g transform="translate(5 10) rotate(259) scale(34 40)"><rect fill="#622508" fill-opacity="0.501961" x="-0.5" y="-0.5" width="1" height="1" /></g>
<g transform="translate(240.677203 158.550837) rotate(99.148979) scale(13.028278 41.913506)"><ellipse fill="#571d00" fill-opacity="0.501961" cx="0" cy="0" rx="1" ry="1" /></g>
<polygon fill="#3c2d12" fill-opacity="0.501961" points="237.119862,17.784218,247.328674,-5.144634,268.857914,2.232955,222.702046,2.722745" />
<g transform="translate(60 150) rotate(277) scale(30 75)"><rect fill="#752c05" fill-opacity="0.501961" x="-0.5" y="-0.5" width="1" height="1" /></g>
<g transform="translate(149.996103 41.397837) rotate(305.572179) scale(11.161868 68.929170)"><ellipse fill="#9e4a1c" fill-opacity="0.501961" cx="0" cy="0" rx="1" ry="1" /></g>
<g transform="translate(191.234464 104.623488) rotate(254.409130) scale(15.227030 74.926537)"><ellipse fill="#8f3c11" fill-opacity="0.501961" cx="0" cy="0" rx="1" ry="1" /></g>
<ellipse fill="#9a4619" fill-opacity="0.501961" cx="51" cy="76" rx="21" ry="43" />
<polygon fill="#352d11" fill-opacity="0.501961" points="159.432609,9.844994,162.056267,19.618188,150.359683,20.021131,154.587685,7.120668" />
<g transform="translate(111 98) rotate(110) scale(13 29)"><rect fill="#968976" fill-opacity="0.501961" x="-0.5" y="-0.5" width="1" height="1" /></g>
<g transform="translate(252.969202 45.527238) rotate(366.847098) scale(16.391073 76.499417)"><ellipse fill="#80350c" fill-opacity="0.501961" cx="0" cy="0" rx="1" ry="1" /></g>
<g transform="translate(89 77) rotate(128) scale(32 13)"><rect fill="#d0ccbf" fill-opacity="0.501961" x="-0.5" y="-0.5" width="1" height="1" /></g>
<ellipse fill="#a24e20" fill-opacity="0.501961" cx="188" cy="21" rx="31" ry="10" />
<polygon fill="#403228" fill-opacity="0.501961" points="134,59 139,57 132,52" />
<polygon fill="#b1a288" fill-opacity="0.501961" points="91.767939,93.948382,101.486713,97.161230,121.555324,70.565540,90.927892,69.926290" />
<g transform="translate(0.000000 152.856298) rotate(306.392787) scale(19.770391 14.397870)"><ellipse fill="#461801" fill-opacity="0.501961" cx="0" cy="0" rx="1" ry="1" /></g>
<g transform="translate(117.531320 66.285190) rotate(100.402034) scale(2.498236 3.822896)"><ellipse fill="#291f13" fill-opacity="0.501961" cx="0" cy="0" rx="1" ry="1" /></g>
<g transform="translate(89.253916 9.305701) rotate(172.699875) scale(53.803285 15.150709)"><ellipse fill="#8a3b14" fill-opacity="0.501961" cx="0" cy="0" rx="1" ry="1" /></g>
<polygon fill="#974013" fill-opacity="0.501961" points="166,55 129,76 120,124" />
<rect fill="#9a491a" fill-opacity="0.501961" x="13" y="29" width="165" height="10" />
<g transform="translate(92 53) rotate(318) scale(43 11)"><rect fill="#a24d1a" fill-opacity="0.501961" x="-0.5" y="-0.5" width="1" height="1" /></g>
<rect fill="#bec1b8" fill-opacity="0.501961" x="109" y="42" width="24" height="3" />
<g transform="translate(240.961560 85.454031) rotate(99.598334) scale(7.191068 8.136362)"><ellipse fill="#5b3a0d" fill-opacity="0.501961" cx="0" cy="0" rx="1" ry="1" /></g>
<g transform="translate(178.020899 121.576960) rotate(355.738689) scale(58.469234 2.477974)"><ellipse fill="#9d4e1e" fill-opacity="0.501961" cx="0" cy="0" rx="1" ry="1" /></g>
<polygon fill="#612708" fill-opacity="0.501961" points="143.622265,127.636784,133.682643,157.597729,93.084651,118.548350,110.732932,140.512361" />
<g transform="translate(95 69) rotate(35) scale(10 39)"><rect fill="#d1cdbe" fill-opacity="0.501961" x="-0.5" y="-0.5" width="1" height="1" /></g>
<ellipse fill="#944114" fill-opacity="0.501961" cx="55" cy="125" rx="14" ry="8" />
<ellipse fill="#904116" fill-opacity="0.501961" cx="230" cy="49" rx="27" ry="35" />
<polygon fill="#725f45" fill-opacity="0.501961" points="72.603854,117.107598,76.312452,134.710928,80.471172,131.936319,83.839787,114.733202" />
<polygon fill="#672807" fill-opacity="0.501961" points="271,114 198,123 244,168" />
<polygon fill="#9f8b6b" fill-opacity="0.501961" points="105.185516,122.254085,116.893865,114.121111,122.803705,131.925380,113.111645,137.088369" />
<polygon fill="#9f4d1d" fill-opacity="0.501961" points="95,41 54,55 95,62" />
<polygon fill="#806344" fill-opacity="0.501961" points="101.678353,139.561670,91.467716,110.068890,117.809776,99.717305,113.202274,74.401853" />
<polygon fill="#9b8a72" fill-opacity="0.501961" points="105,87 138,70 144,51" />
<g transform="translate(160.574390 55.224034) rotate(245.337422) scale(37.243418 16.313641)"><ellipse fill="#9f4c1c" fill-opacity="0.501961" cx="0" cy="0" rx="1" ry="1" /></g>
<ellipse fill="#97461a" fill-opacity="0.501961" cx="46" cy="68" rx="31" ry="31" />
<ellipse fill="#81320d" fill-opacity="0.501961" cx="0" cy="115" rx="58" ry="13" />
<polygon fill="#847b68" fill-opacity="0.501961" points="122,43 113,52 116,43" />
<polygon fill="#2e2722" fill-opacity="0.501961" points="126,56 115,65 125,63" />
<polygon fill="#ced4d0" fill-opacity="0.501961" points="120,38 115,41 125,40" />
<g transform="translate(0.000000 55.211753) rotate(26.267152) scale(10.348263 62.932827)"><ellipse fill="#873910" fill-opacity="0.501961" cx="0" cy="0" rx="1" ry="1" /></g>
<polygon fill="#c8bfb3" fill-opacity="0.501961" points="92.248394,136.281173,73.025740,84.233927,83.490250,91.841300,86.673315,134.857665" />
<rect fill="#8b3f15" fill-opacity="0.501961" x="91" y="34" width="92" height="5" />
<polygon fill="#83310c" fill-opacity="0.501961" points="172.076560,117.848574,194.619322,110.005478,148.298607,110.373928,115.441153,122.315161" />
<polygon fill="#4d1f01" fill-opacity="0.501961" points="6.307817,175.630413,40.595390,164.582623,72.340592,176.679100,65.002584,165.599858" />
<polygon fill="#9e4c1d" fill-opacity="0.501961" points="120,21 107,48 56,57" />
<ellipse fill="#4a401e" fill-opacity="0.501961" cx="154" cy="10" rx="7" ry="7" />
<polygon fill="#aa9a7f" fill-opacity="0.501961" points="104.604926,90.223275,83.870309,90.020869,98.607688,106.328242,109.985196,98.882622" />
<g transform="translate(38.785329 24.089314) rotate(-205.120241) scale(4.963394 4.565505)"><ellipse fill="#5b421a" fill-opacity="0.501961" cx="0" cy="0" rx="1" ry="1" /></g>
<g transform="translate(72 121) rotate(293) scale(29 1)"><rect fill="#b4a38f" fill-opacity="0.501961" x="-0.5" y="-0.5" width="1" height="1" /></g>
<g transform="translate(0 4) rotate(81) scale(38 14)"><rect fill="#50270a" fill-opacity="0.501961" x="-0.5" y="-0.5" width="1" height="1" /></g>
<g transform="translate(113.018266 28.052270) rotate(-3.651593) scale(50.655343 6.608224)"><ellipse fill="#a45221" fill-opacity="0.501961" cx="0" cy="0" rx="1" ry="1" /></g>
<polygon fill="#752a07" fill-opacity="0.501961" points="44,132 99,138 81,185" />
<g transform="translate(130 58) rotate(111) scale(18 3)"><rect fill="#969489" fill-opacity="0.501961" x="-0.5" y="-0.5" width="1" height="1" /></g>
<polygon fill="#cdc5ba" fill-opacity="0.501961" points="66.817054,106.070953,89.137727,66.999581,75.431687,78.599562,88.934977,93.851633" />
<rect fill="#7b2a05" fill-opacity="0.501961" x="157" y="161" width="73" height="9" />
<polygon fill="#6b3d18" fill-opacity="0.501961" points="96,24 96,13 70,13" />
<g transform="translate(97 80) rotate(211) scale(22 9)"><rect fill="#b5ab9a" fill-opacity="0.501961" x="-0.5" y="-0.5" width="1" height="1" /></g>
<polygon fill="#c7b7a7" fill-opacity="0.501961" points="66.911595,113.117422,72.865903,96.837628,75.372800,87.273735,69.296968,126.884706" />
<g transform="translate(202 87) rotate(264) scale(41 45)"><rect fill="#934118" fill-opacity="0.501961" x="-0.5" y="-0.5" width="1" height="1" /></g>
<polygon fill="#654a2e" fill-opacity="0.501961" points="101,133 101,117 108,116" />
<polygon fill="#d6d4c8" fill-opacity="0.501961" points="113.142408,42.821635,80.214837,76.850003,108.204721,59.867027,108.107070,44.920876" />
<g transform="translate(33 130) rotate(179) scale(43 5)"><rect fill="#914c1e" fill-opacity="0.501961" x="-0.5" y="-0.5" width="1" height="1" /></g>
<ellipse fill="#431b00" fill-opacity="0.501961" cx="106" cy="136" rx="4" ry="4" />
<polygon fill="#846142" fill-opacity="0.501961" points="109.734176,92.295485,103.375879,94.121288,130.308508,71.551875,142.719847,74.722842" />
<polygon fill="#462108" fill-opacity="0.501961" points="135.487780,166.599060,150.193805,165.050447,154.034405,183.541074,118.025218,185.000000" />
<polygon fill="#a25222" fill-opacity="0.501961" points="126.448478,41.118704,196.133181,45.032943,143.376516,55.369702,127.235306,36.734789" />
<polygon fill="#401602" fill-opacity="0.501961" points="222,159 219,146 206,158" />
<polygon fill="#947b5a" fill-opacity="0.501961" points="86,109 105,133 94,128" />
<polygon fill="#443315" fill-opacity="0.501961" points="229.245340,13.792574,239.655263,14.881513,234.959740,-16.000000,229.156558,9.223823" />
<rect fill="#9e4b1e" fill-opacity="0.501961" x="56" y="65" width="15" height="34" />
<rect fill="#b1b3a5" fill-opacity="0.501961" x="126" y="44" width="10" height="6" />
<polygon fill="#815124" fill-opacity="0.501961" points="163,4 165,-10 141,11" />
<polygon fill="#783f14" fill-opacity="0.501961" points="271,87 271,67 204,72" />
<rect fill="#917f6e" fill-opacity="0.501961" x="121" y="84" width="5" height="17" />
<g transform="translate(28.678630 138.445698) rotate(178.938776) scale(30.253944 5.623067)"><ellipse fill="#6a2e0d" fill-opacity="0.501961" cx="0" cy="0" rx="1" ry="1" /></g>
<polygon fill="#9a9288" fill-opacity="0.501961" points="135,69 145,64 138,58" />
<g transform="translate(65.280503 43.261005) rotate(264.039911) scale(3.171031 73.423583)"><ellipse fill="#8c3f15" fill-opacity="0.501961" cx="0" cy="0" rx="1" ry="1" /></g>
<g transform="translate(81 128) rotate(279) scale(19 5)"><rect fill="#683718" fill-opacity="0.501961" x="-0.5" y="-0.5" width="1" height="1" /></g>
<ellipse fill="#954518" fill-opacity="0.501961" cx="67" cy="126" rx="3" ry="3" />
<rect fill="#a08867" fill-opacity="0.501961" x="106" y="71" width="21" height="9" />
<polygon fill="#683416" fill-opacity="0.501961" points="263.449315,1.526680,271.000000,25.829987,245.149142,7.346397,208.051946,-2.851498" />
<ellipse fill="#a99678" fill-opacity="0.501961" cx="119" cy="131" rx="4" ry="4" />
<polygon fill="#6e2d0c" fill-opacity="0.501961" points="167.244281,126.200367,143.145892,127.864650,210.599349,151.656125,207.965206,121.496070" />
<g transform="translate(93 66) rotate(310) scale(5 9)"><rect fill="#d2d2c7" fill-opacity="0.501961" x="-0.5" y="-0.5" width="1" height="1" /></g>
<ellipse fill="#813d19" fill-opacity="0.501961" cx="15" cy="77" rx="48" ry="3" />
<ellipse fill="#7d2f09" fill-opacity="0.501961" cx="103" cy="159" rx="43" ry="7" />
<polygon fill="#716758" fill-opacity="0.501961" points="112.749175,67.658610,119.640110,61.852797,125.828961,41.833835,115.132307,53.097310" />
<polygon fill="#5e4b3c" fill-opacity="0.501961" points="137,59 131,63 132,53" />
<polygon fill="#99866d" fill-opacity="0.501961" points="109,112 111,95 118,103" />
<polygon fill="#672604" fill-opacity="0.501961" points="77.880013,156.141016,81.073478,138.381781,103.674214,137.818859,140.179733,135.611679" />
<ellipse fill="#cde4e1" fill-opacity="0.501961" cx="124" cy="39" rx="1" ry="1" />
<g transform="translate(141 55) rotate(166) scale(4 9)"><rect fill="#b29d8a" fill-opacity="0.501961" x="-0.5" y="-0.5" width="1" height="1" /></g>
<rect fill="#934016" fill-opacity="0.501961" x="22" y="89" width="45" height="28" />
<polygon fill="#9c4a1c" fill-opacity="0.501961" points="137.900471,74.244723,125.046324,87.423776,125.605854,97.641709,202.069459,76.583137" />
<polygon fill="#8b370d" fill-opacity="0.501961" points="180.023395,52.321690,196.980416,50.796635,271.000000,49.070474,155.750033,58.000194" />
<rect fill="#c5b6a3" fill-opacity="0.501961" x="71" y="86" width="1" height="39" />
<rect fill="#3c3125" fill-opacity="0.501961" x="117" y="62" width="8" height="6" />
<g transform="translate(80 64) rotate(320) scale(31 11)"><rect fill="#9c4a1c" fill-opacity="0.501961" x="-0.5" y="-0.5" width="1" height="1" /></g>
<polygon fill="#893811" fill-opacity="0.501961" points="119.113315,128.525697,122.183416,119.464678,152.146966,110.231545,120.070839,114.670173" />
<g transform="translate(199.299628 45.159285) rotate(175.918690) scale(48.418673 3.685473)"><ellipse fill="#9e4c1d" fill-opacity="0.501961" cx="0" cy="0" rx="1" ry="1" /></g>
<polygon fill="#9d8b6d" fill-opacity="0.501961" points="120,117 107,117 104,129" />
<polygon fill="#aea48b" fill-opacity="0.501961" points="66,133 71,126 76,133" />
<g transform="translate(202.182345 62.402061) rotate(263.238289) scale(5.516928 61.398156)"><ellipse fill="#9a471c" fill-opacity="0.501961" cx="0" cy="0" rx="1" ry="1" /></g>
<polygon fill="#a58e72" fill-opacity="0.501961" points="103.342775,115.692746,85.944011,87.264370,103.958353,107.804437,106.649350,106.153151" />
<polygon fill="#8c3c15" fill-opacity="0.501961" points="115,13 25,15 130,-16" />
<polygon fill="#76310c" fill-opacity="0.501961" points="39.526599,144.598597,47.081941,174.142014,87.189286,133.891677,78.688736,130.543811" />
<polygon fill="#873b13" fill-opacity="0.501961" points="271.000000,24.451009,271.000000,34.961432,175.961171,34.172133,233.635530,26.062812" />
<polygon fill="#99481d" fill-opacity="0.501961" points="219.352903,27.296121,166.235907,35.383980,195.026425,10.925343,230.667490,10.728949" />
<polygon fill="#9b4a1d" fill-opacity="0.501961" points="38.361688,67.764377,59.356925,108.209973,72.762810,84.249128,92.109306,57.672660" />
<polygon fill="#c4bdaf" fill-opacity="0.501961" points="79.306098,105.547651,87.108578,125.811246,83.410632,78.791099,93.849629,86.738972" />
<polygon fill="#1a2f36" fill-opacity="0.501961" points="144,59 145,61 142,61" />
<g transform="translate(232 2) rotate(-8) scale(14 6)"><rect fill="#6c5025" fill-opacity="0.501961" x="-0.5" y="-0.5" width="1" height="1" /></g>
<g transform="translate(96.683138 133.377738) rotate(235.750395) scale(3.242872 6.581378)"><ellipse fill="#8e7147" fill-opacity="0.501961" cx="0" cy="0" rx="1" ry="1" /></g>
<polygon fill="#451701" fill-opacity="0.501961" points="17.383549,149.778042,32.029666,149.724204,4.488976,146.269567,-1.337970,167.192877" />
<path stroke="#cdc6b6" stroke-opacity="0.501961" fill="none" d="M 69.194420 102.540500 Q 100.593529 53.255879, 119.401453 38.315309" stroke-width="0.500000" />
<rect fill="#a35020" fill-opacity="0.501961" x="60" y="63" width="28" height="6" />
<rect fill="#cdc8ba" fill-opacity="0.501961" x="70" y="100" width="1" height="32" />
<g transform="translate(0.000000 124.840000) rotate(73.948902) scale(5.648702 11.077058)"><ellipse fill="#6d2606" fill-opacity="0.501961" cx="0" cy="0" rx="1" ry="1" /></g>
<polygon fill="#6a2504" fill-opacity="0.501961" points="175.161657,150.033652,176.190138,144.411476,148.082594,151.823088,225.243941,165.441771" />
<rect fill="#2f2720" fill-opacity="0.501961" x="133" y="53" width="2" height="6" />
<g transform="translate(115.241559 92.177444) rotate(22.399980) scale(3.890968 6.696630)"><ellipse fill="#7a644a" fill-opacity="0.501961" cx="0" cy="0" rx="1" ry="1" /></g>
<polygon fill="#7e3412" fill-opacity="0.501961" points="38,-6 32,25 4,10" />
<polygon fill="#934316" fill-opacity="0.501961" points="35.885011,65.129429,-13.723824,82.033118,9.166032,52.149191,94.075174,61.266487" />
<polygon fill="#9c4a1b" fill-opacity="0.501961" points="159.544119,36.484463,132.053144,37.722767,138.717705,50.427097,190.595545,98.342045" />
<polygon fill="#7f4a1a" fill-opacity="0.501961" points="234.921260,128.878682,223.593630,124.168232,235.303388,120.061622,215.272901,118.874049" />
<rect fill="#964618" fill-opacity="0.501961" x="11" y="28" width="36" height="13" />
<rect fill="#9b4113" fill-opacity="0.501961" x="82" y="122" width="4" height="11" />
<polygon fill="#603f0f" fill-opacity="0.501961" points="250.489418,80.139606,247.848074,78.559799,233.504102,80.696784,245.756898,88.351120" />
<g transform="translate(96.032177 104.330187) rotate(58.687087) scale(1.000000 19.437636)"><ellipse fill="#a99a83" fill-opacity="0.501961" cx="0" cy="0" rx="1" ry="1" /></g>
<polygon fill="#a48c6f" fill-opacity="0.501961" points="88.744555,106.909756,93.391749,121.441651,99.968866,92.456700,99.106198,90.650812" />
<polygon fill="#944319" fill-opacity="0.501961" points="161.104624,22.663786,126.731877,17.494585,128.083726,7.828140,173.105895,27.310713" />
<polygon fill="#bcb29d" fill-opacity="0.501961" points="84.195200,85.330969,104.688129,68.076280,103.648746,74.926903,117.120672,48.192006" />
<polygon fill="#712a07" fill-opacity="0.501961" points="142.069368,153.233196,112.793185,133.905394,84.219388,149.401642,80.709062,154.726441" />
<rect fill="#61442d" fill-opacity="0.501961" x="102" y="117" width="3" height="18" />
<polygon fill="#9a491d" fill-opacity="0.501961" points="112.652259,38.390037,70.312160,44.984913,81.058040,40.017852,105.099870,51.481795" />
<polygon fill="#d0c9bb" fill-opacity="0.501961" points="101.798400,55.154245,94.694657,64.771543,100.212905,53.222930,123.369301,39.484397" />
<polygon fill="#893e16" fill-opacity="0.501961" points="130,77 150,73 132,82" />
<rect fill="#a14e20" fill-opacity="0.501961" x="170" y="16" width="32" height="13" />
<ellipse fill="#3b1c03" fill-opacity="0.501961" cx="156" cy="15" rx="3" ry="3" />
<g transform="translate(58 169) rotate(369) scale(11 1)"><rect fill="#2d2810" fill-opacity="0.501961" x="-0.5" y="-0.5" width="1" height="1" /></g>
<rect fill="#4a4339" fill-opacity="0.501961" x="123" y="47" width="3" height="18" />
<rect fill="#916f4a" fill-opacity="0.501961" x="111" y="68" width="2" height="24" />
<g transform="translate(224.152417 109.309760) rotate(267.826286) scale(1.190326 30.680603)"><ellipse fill="#802907" fill-opacity="0.501961" cx="0" cy="0" rx="1" ry="1" /></g>
<polygon fill="#8f8270" fill-opacity="0.501961" points="127.171060,75.373261,126.443954,40.907492,132.779488,55.729952,126.337992,82.546268" />
<polygon fill="#3b1f08" fill-opacity="0.501961" points="233,12 243,13 231,5" />
<g transform="translate(130 44) rotate(291) scale(5 6)"><rect fill="#bebaad" fill-opacity="0.501961" x="-0.5" y="-0.5" width="1" height="1" /></g>
<g transform="translate(126 140) rotate(70) scale(11 24)"><rect fill="#612103" fill-opacity="0.501961" x="-0.5" y="-0.5" width="1" height="1" /></g>
<polygon fill="#b0a391" fill-opacity="0.501961" points="77,96 71,119 81,113" />
<polygon fill="#766a58" fill-opacity="0.501961" points="118.189414,45.533052,124.671727,52.256154,113.121558,66.742539,113.589301,56.729587" />
<polygon fill="#521e03" fill-opacity="0.501961" points="104.361640,166.718878,125.863130,170.963481,92.880801,184.032717,119.795239,185.000000" />
<g transform="translate(95.426561 112.140139) rotate(156.135261) scale(8.588335 2.118045)"><ellipse fill="#8f7154" fill-opacity="0.501961" cx="0" cy="0" rx="1" ry="1" /></g>
<ellipse fill="#934217" fill-opacity="0.501961" cx="166" cy="37" rx="42" ry="6" />
<polygon fill="#7f330f" fill-opacity="0.501961" points="89.154119,20.310032,37.841434,18.777256,77.011521,11.814247,77.476082,4.541765" />
<polygon fill="#712f0d" fill-opacity="0.501961" points="265.449345,101.000671,228.751267,85.628764,268.067888,93.626235,234.826963,103.937001" />
<ellipse fill="#954217" fill-opacity="0.501961" cx="160" cy="97" rx="34" ry="14" />
<rect fill="#9d4b1c" fill-opacity="0.501961" x="119" y="121" width="57" height="4" />
<polygon fill="#927a54" fill-opacity="0.501961" points="110,135 106,130 118,134" />
<rect fill="#a29581" fill-opacity="0.501961" x="112" y="48" width="3" height="14" />
<polygon fill="#8b3d17" fill-opacity="0.501961" points="244,64 193,72 228,79" />
<polygon fill="#6d471e" fill-opacity="0.501961" points="90.593120,12.196519,97.335951,21.503494,91.883139,22.817434,87.718257,23.956297" />
</g>
</svg>