<svg xmlns="http://www.w3.org/2000/svg" version="1.1" width="1024" height="680">
<rect x="0" y="0" width="1024" height="680" fill="#343f38" />
<g transform="scale(4.000000) translate(0.5 0.5)">
<g transform="translate(166.567453 90.269079) rotate(192.565567) scale(32.012578 55.040182)"><ellipse fill="#d7bfe7" fill-opacity="0.501961" cx="0" cy="0" rx="1" ry="1" /></g>
<g transform="translate(47.141808 32.806699) rotate(154.446589) scale(202.786139 47.297693)"><ellipse fill="#000000" fill-opacity="0.501961" cx="0" cy="0" rx="1" ry="1" /></g>
<rect fill="#eeddff" fill-opacity="0.501961" x="118" y="42" width="79" height="16" />
<ellipse fill="#000000" fill-opacity="0.501961" cx="252" cy="46" rx="57" ry="57" />
<polygon fill="#ecdcf8" fill-opacity="0.501961" points="187,136 193,75 208,127" />
<g transform="translate(174 102) rotate(148) scale(23 59)"><rect fill="#2d211a" fill-opacity="0.501961" x="-0.5" y="-0.5" width="1" height="1" /></g>
<g transform="translate(84.372041 151.201547) rotate(186.811412) scale(77.189482 49.856738)"><ellipse fill="#4e7543" fill-opacity="0.501961" cx="0" cy="0" rx="1" ry="1" /></g>
<ellipse fill="#00170e" fill-opacity="0.501961" cx="89" cy="79" rx="51" ry="21" />
<polygon fill="#c6b6d1" fill-opacity="0.501961" points="186.793566,31.502680,198.837898,35.542134,195.563501,72.261619,146.264247,49.044712" />
<g transform="translate(141.525766 104.403094) rotate(287.991621) scale(16.980385 10.478208)"><ellipse fill="#cccdeb" fill-opacity="0.501961" cx="0" cy="0" rx="1" ry="1" /></g>
<polygon fill="#030c16" fill-opacity="0.501961" points="271,14 -2,-16 -16,71" />
<polygon fill="#111716" fill-opacity="0.501961" points="207,-16 194,87 271,119" />
<polygon fill="#aaa3b4" fill-opacity="0.501961" points="210.771064,139.492345,182.364252,113.861293,144.785571,129.985570,198.776163,88.791740" />
<g transform="translate(137 123) rotate(256) scale(49 6)"><rect fill="#b1a9c9" fill-opacity="0.501961" x="-0.5" y="-0.5" width="1" height="1" /></g>
<g transform="translate(170.251119 85.599200) rotate(259.698993) scale(9.157030 16.354144)"><ellipse fill="#2b190f" fill-opacity="0.501961" cx="0" cy="0" rx="1" ry="1" /></g>
<g transform="translate(147 50) rotate(285) scale(9 43)"><rect fill="#dad7fe" fill-opacity="0.501961" x="-0.5" y="-0.5" width="1" height="1" /></g>
<polygon fill="#b8a4c1" fill-opacity="0.501961" points="118.950060,58.339486,150.853820,82.291261,153.505724,53.932653,132.517774,62.129366" />
<ellipse fill="#1e201b" fill-opacity="0.501961" cx="149" cy="14" rx="30" ry="30" />
<polygon fill="#2e0200" fill-opacity="0.501961" points="190,46 189,54 199,54" />
<polygon fill="#abaed9" fill-opacity="0.501961" points="144,98 190,142 150,128" />
<ellipse fill="#453f1e" fill-opacity="0.501961" cx="200" cy="163" rx="43" ry="30" />
<ellipse fill="#4c6b49" fill-opacity="0.501961" cx="93" cy="121" rx="40" ry="29" />
<polygon fill="#c1bfe2" fill-opacity="0.501961" points="169.807118,68.698453,157.245166,87.395539,187.028020,37.381162,130.868422,49.067530" />
<polygon fill="#664b4b" fill-opacity="0.501961" points="143.262152,55.951405,134.297393,74.723310,112.909850,51.340617,171.403942,58.983648" />
<g transform="translate(24.062288 49.152111) rotate(75.633189) scale(49.851345 39.925686)"><ellipse fill="#001319" fill-opacity="0.501961" cx="0" cy="0" rx="1" ry="1" /></g>
<polygon fill="#222e35" fill-opacity="0.501961" points="142.450307,112.164237,158.629936,154.566358,92.909110,161.812587,146.021409,144.334078" />
<ellipse fill="#181c1c" fill-opacity="0.501961" cx="185" cy="15" rx="130" ry="20" />
<polygon fill="#e9dee7" fill-opacity="0.501961" points="199,93 207,131 197,118" />
<polygon fill="#424d35" fill-opacity="0.501961" points="224.519664,150.967418,252.819324,102.901746,232.436041,97.985469,201.867183,121.254651" />
<polygon fill="#0f1014" fill-opacity="0.501961" points="66.665141,80.537393,119.580606,64.239100,116.047927,38.540737,142.650408,33.461060" />
<polygon fill="#010c00" fill-opacity="0.501961" points="207,104 196,84 198,63" />
<polygon fill="#1c0e0d" fill-opacity="0.501961" points="162,63 155,60 154,69" />
<g transform="translate(19.751811 105.124672) rotate(267.003745) scale(9.020321 114.883057)"><ellipse fill="#265036" fill-opacity="0.501961" cx="0" cy="0" rx="1" ry="1" /></g>
<ellipse fill="#5a6713" fill-opacity="0.501961" cx="159" cy="169" rx="62" ry="6" />
<ellipse fill="#151c16" fill-opacity="0.501961" cx="181" cy="123" rx="7" ry="7" />
<polygon fill="#232720" fill-opacity="0.501961" points="266.814720,174.365735,271.000000,166.008118,246.997008,137.346092,199.003016,158.816105" />
<polygon fill="#bbb0d1" fill-opacity="0.501961" points="175.050811,39.334606,136.764134,75.101852,199.606095,40.042532,185.031485,34.294484" />
<rect fill="#211514" fill-opacity="0.501961" x="174" y="63" width="10" height="5" />
<rect fill="#b9a3b3" fill-opacity="0.501961" x="145" y="69" width="52" height="6" />
<polygon fill="#14251e" fill-opacity="0.501961" points="49.491362,93.049478,127.265036,99.993583,142.948837,83.002149,24.327679,44.964931" />
<polygon fill="#b8bce1" fill-opacity="0.501961" points="142.141153,64.289909,133.616606,130.306463,148.226481,74.651516,151.133109,53.981547" />
<g transform="translate(14.295527 150.478271) rotate(192.786915) scale(105.881499 23.042862)"><ellipse fill="#37542f" fill-opacity="0.501961" cx="0" cy="0" rx="1" ry="1" /></g>
<polygon fill="#746c7b" fill-opacity="0.501961" points="195,103 154,150 182,88" />
<rect fill="#cd9882" fill-opacity="0.501961" x="199" y="165" width="7" height="5" />
<polygon fill="#1e1d1e" fill-opacity="0.501961" points="192,-16 141,44 170,38" />
<polygon fill="#d5c8d5" fill-opacity="0.501961" points="189,81 186,94 199,91" />
<polygon fill="#898199" fill-opacity="0.501961" points="198.646855,120.985841,185.365083,139.444182,181.468971,141.786048,195.024033,98.772379" />
<g transform="translate(221.157437 79.992150) rotate(337.080429) scale(26.291407 26.008196)"><ellipse fill="#19211c" fill-opacity="0.501961" cx="0" cy="0" rx="1" ry="1" /></g>
<polygon fill="#857391" fill-opacity="0.501961" points="150,158 161,150 157,138" />
<polygon fill="#9c9bc2" fill-opacity="0.501961" points="163,144 183,135 165,120" />
<polygon fill="#283830" fill-opacity="0.501961" points="160.943249,137.826864,147.593124,133.645659,151.672534,165.017979,116.347472,159.658196" />
<polygon fill="#161a1d" fill-opacity="0.501961" points="62,60 142,86 80,7" />
<polygon fill="#271f17" fill-opacity="0.501961" points="150.630924,93.800229,180.275959,89.133070,165.907787,85.057410,146.447743,86.879841" />
<polygon fill="#bfaec3" fill-opacity="0.501961" points="196.709066,38.368076,193.146811,57.764774,169.722356,47.489755,195.279254,81.084806" />
<ellipse fill="#13171a" fill-opacity="0.501961" cx="218" cy="16" rx="31" ry="31" />
<polygon fill="#7a7f97" fill-opacity="0.501961" points="145.955008,126.042620,143.563767,158.418220,134.680125,126.742366,153.755637,93.719057" />
<g transform="translate(166 44) rotate(-24) scale(26 4)"><rect fill="#e4e3f7" fill-opacity="0.501961" x="-0.5" y="-0.5" width="1" height="1" /></g>
<polygon fill="#8c7375" fill-opacity="0.501961" points="173,83 190,65 172,73" />
<polygon fill="#37392f" fill-opacity="0.501961" points="177,162 260,144 191,130" />
<polygon fill="#20281a" fill-opacity="0.501961" points="100,68 140,70 131,104" />
<g transform="translate(141.115548 93.494675) rotate(171.191286) scale(6.869394 6.263258)"><ellipse fill="#cfcbe1" fill-opacity="0.501961" cx="0" cy="0" rx="1" ry="1" /></g>
<polygon fill="#565346" fill-opacity="0.501961" points="181.764027,153.999076,138.736171,168.128568,178.710898,162.178425,151.909718,136.997324" />
<polygon fill="#796963" fill-opacity="0.501961" points="161,72 164,83 134,87" />
<polygon fill="#575e4a" fill-opacity="0.501961" points="201.647714,120.908287,215.753197,142.284126,250.008402,122.327299,233.148925,127.750141" />
<polygon fill="#d6cce2" fill-opacity="0.501961" points="114,50 138,40 145,48" />
<polygon fill="#5f7358" fill-opacity="0.501961" points="55,113 84,113 99,147" />
<ellipse fill="#183b21" fill-opacity="0.501961" cx="122" cy="154" rx="24" ry="5" />
<ellipse fill="#4c372c" fill-opacity="0.501961" cx="127" cy="56" rx="5" ry="5" />
<polygon fill="#1e1c15" fill-opacity="0.501961" points="186,121 170,121 185,136" />
<polygon fill="#35292a" fill-opacity="0.501961" points="162.113200,91.031557,160.086614,87.381676,166.728640,111.881913,184.252602,78.831613" />
<rect fill="#000000" fill-opacity="0.501961" x="155" y="64" width="7" height="4" />
<ellipse fill="#c5a9a5" fill-opacity="0.501961" cx="132" cy="67" rx="3" ry="3" />
<polygon fill="#222622" fill-opacity="0.501961" points="205,-16 137,10 180,36" />
<polygon fill="#271e28" fill-opacity="0.501961" points="185.467705,141.661414,161.957007,149.581311,174.370503,139.452773,188.375272,138.336196" />
<polygon fill="#151c1d" fill-opacity="0.501961" points="113.169888,60.555130,73.816079,70.619332,66.770764,-15.144615,133.131813,22.088953" />
<ellipse fill="#cec6de" fill-opacity="0.501961" cx="199" cy="111" rx="5" ry="7" />
<rect fill="#36452f" fill-opacity="0.501961" x="205" y="98" width="30" height="28" />
<g transform="translate(154 130) rotate(361) scale(7 8)"><rect fill="#b7b6e7" fill-opacity="0.501961" x="-0.5" y="-0.5" width="1" height="1" /></g>
<polygon fill="#13191a" fill-opacity="0.501961" points="136,-13 135,42 98,27" />
<ellipse fill="#cec1de" fill-opacity="0.501961" cx="169" cy="69" rx="4" ry="4" />
<polygon fill="#866f7a" fill-opacity="0.501961" points="196.327335,47.107049,200.308910,65.272001,189.555210,38.677106,182.243848,56.669940" />
<ellipse fill="#010c17" fill-opacity="0.501961" cx="21" cy="6" rx="43" ry="51" />
<rect fill="#767f70" fill-opacity="0.501961" x="38" y="121" width="5" height="14" />
<polygon fill="#2f322f" fill-opacity="0.501961" points="204.024746,156.774986,147.911382,155.099840,147.494291,121.384132,154.459872,151.364852" />
<polygon fill="#111416" fill-opacity="0.501961" points="148,44 123,32 167,23" />
<rect fill="#9b8975" fill-opacity="0.501961" x="54" y="125" width="7" height="6" />
<polygon fill="#325739" fill-opacity="0.501961" points="8.485083,159.769797,14.251760,121.138347,63.565218,125.425437,-4.176014,101.404176" />
<ellipse fill="#dab7c1" fill-opacity="0.501961" cx="186" cy="39" rx="3" ry="7" />
<polygon fill="#14171c" fill-opacity="0.501961" points="195.463703,66.540910,197.079223,77.407442,271.000000,71.570703,233.289001,-16.000000" />
<rect fill="#3e5c41" fill-opacity="0.501961" x="46" y="97" width="84" height="11" />
<polygon fill="#787554" fill-opacity="0.501961" points="52.921804,158.841947,55.372068,166.753078,64.974173,162.746786,53.862737,155.964879" />
<rect fill="#b9bbe5" fill-opacity="0.501961" x="159" y="41" width="28" height="18" />
<polygon fill="#695e61" fill-opacity="0.501961" points="188.960603,104.716928,155.170431,105.816561,179.899496,117.083275,189.037163,116.976818" />
<g transform="translate(163.607747 64.059364) rotate(21.786249) scale(29.010967 1.269387)"><ellipse fill="#a29bb9" fill-opacity="0.501961" cx="0" cy="0" rx="1" ry="1" /></g>
<ellipse fill="#a7a7d0" fill-opacity="0.501961" cx="144" cy="79" rx="6" ry="6" />
<g transform="translate(184 38) rotate(345) scale(21 1)"><rect fill="#f4ced2" fill-opacity="0.501961" x="-0.5" y="-0.5" width="1" height="1" /></g>
<rect fill="#3c2719" fill-opacity="0.501961" x="131" y="57" width="9" height="7" />
<g transform="translate(186 88) rotate(39) scale(1 25)"><rect fill="#ceaba4" fill-opacity="0.501961" x="-0.5" y="-0.5" width="1" height="1" /></g>
<ellipse fill="#928c82" fill-opacity="0.501961" cx="172" cy="159" rx="3" ry="3" />
<g transform="translate(214 88) rotate(376) scale(44 1)"><rect fill="#132313" fill-opacity="0.501961" x="-0.5" y="-0.5" width="1" height="1" /></g>
<g transform="translate(155.480534 69.302209) rotate(156.980611) scale(5.897426 1.000000)"><ellipse fill="#3d322f" fill-opacity="0.501961" cx="0" cy="0" rx="1" ry="1" /></g>
<rect fill="#857a63" fill-opacity="0.501961" x="76" y="134" width="16" height="6" />
<ellipse fill="#16402e" fill-opacity="0.501961" cx="9" cy="100" rx="29" ry="8" />
<polygon fill="#b6b3da" fill-opacity="0.501961" points="140.337334,63.471722,181.169172,56.066725,150.507771,42.547981,149.994705,50.788578" />
<g transform="translate(145 129) rotate(-7) scale(6 33)"><rect fill="#575966" fill-opacity="0.501961" x="-0.5" y="-0.5" width="1" height="1" /></g>
<polygon fill="#1b281e" fill-opacity="0.501961" points="115.728833,99.273706,109.895583,72.545946,132.652024,71.440927,142.234073,85.930197" />
<polygon fill="#747c79" fill-opacity="0.501961" points="12,139 20,141 23,136" />
<rect fill="#999ebd" fill-opacity="0.501961" x="137" y="120" width="4" height="22" />
<polygon fill="#233f2b" fill-opacity="0.501961" points="40,135 34,147 12,129" />
<g transform="translate(255.000000 115.522875) rotate(250.525977) scale(16.332281 13.022629)"><ellipse fill="#243427" fill-opacity="0.501961" cx="0" cy="0" rx="1" ry="1" /></g>
<g transform="translate(124 61) rotate(36) scale(13 1)"><rect fill="#b59a95" fill-opacity="0.501961" x="-0.5" y="-0.5" width="1" height="1" /></g>
<polygon fill="#a999ab" fill-opacity="0.501961" points="176.612601,70.598920,165.707665,56.393825,161.302714,83.731865,155.619836,74.982876" />
<ellipse fill="#c5bad6" fill-opacity="0.501961" cx="156" cy="145" rx="2" ry="2" />
<polygon fill="#433b33" fill-opacity="0.501961" points="160.652201,137.489627,179.589007,185.000000,189.471888,185.000000,158.066168,152.917558" />
<g transform="translate(204.932218 79.663224) rotate(151.070998) scale(3.750524 19.384650)"><ellipse fill="#222719" fill-opacity="0.501961" cx="0" cy="0" rx="1" ry="1" /></g>
<polygon fill="#968d89" fill-opacity="0.501961" points="44,139 42,143 48,143" />
<polygon fill="#171921" fill-opacity="0.501961" points="169.529665,77.753448,173.723932,77.463130,167.548791,95.677492,163.705554,74.370698" />
<polygon fill="#4d6949" fill-opacity="0.501961" points="123.481248,113.767542,142.461524,112.082093,109.489073,106.435709,85.335893,170.596155" />
<polygon fill="#85655c" fill-opacity="0.501961" points="172.641359,69.551972,187.416569,85.951227,172.253123,94.962279,192.603550,79.123303" />
<ellipse fill="#8e8b91" fill-opacity="0.501961" cx="233" cy="129" rx="3" ry="3" />
<g transform="translate(138.001609 99.657366) rotate(200.451631) scale(3.648948 7.893788)"><ellipse fill="#d4d0e3" fill-opacity="0.501961" cx="0" cy="0" rx="1" ry="1" /></g>
<g transform="translate(207 136) rotate(64) scale(1 18)"><rect fill="#7c7258" fill-opacity="0.501961" x="-0.5" y="-0.5" width="1" height="1" /></g>
<rect fill="#07251b" fill-opacity="0.501961" x="0" y="75" width="53" height="20" />
<g transform="translate(244.362765 94.136643) rotate(266.543734) scale(6.239596 44.224481)"><ellipse fill="#0d211a" fill-opacity="0.501961" cx="0" cy="0" rx="1" ry="1" /></g>
<rect fill="#232b1f" fill-opacity="0.501961" x="176" y="155" width="80" height="7" />
<g transform="translate(194 60) rotate(-16) scale(8 6)"><rect fill="#d9aba2" fill-opacity="0.501961" x="-0.5" y="-0.5" width="1" height="1" /></g>
<polygon fill="#d6d3e1" fill-opacity="0.501961" points="166.780823,43.704096,142.373528,53.284905,163.794935,39.918709,180.186459,45.659839" />
<polygon fill="#a5a4c7" fill-opacity="0.501961" points="146,89 148,123 166,138" />
<g transform="translate(161 40) rotate(338) scale(19 1)"><rect fill="#120f0d" fill-opacity="0.501961" x="-0.5" y="-0.5" width="1" height="1" /></g>
<ellipse fill="#687560" fill-opacity="0.501961" cx="18" cy="114" rx="4" ry="4" />
<g transform="translate(184 137) rotate(194) scale(7 1)"><rect fill="#dfaaaa" fill-opacity="0.501961" x="-0.5" y="-0.5" width="1" height="1" /></g>
<rect fill="#355a24" fill-opacity="0.501961" x="0" y="164" width="162" height="6" />
<polygon fill="#988d7c" fill-opacity="0.501961" points="166,163 160,161 165,159" />
<rect fill="#b8a9b2" fill-opacity="0.501961" x="23" y="126" width="3" height="3" />
<g transform="translate(157.578566 102.005601) rotate(325.858962) scale(2.771334 20.315379)"><ellipse fill="#787172" fill-opacity="0.501961" cx="0" cy="0" rx="1" ry="1" /></g>
<g transform="translate(253 140) rotate(50) scale(1 5)"><rect fill="#ad9baa" fill-opacity="0.501961" x="-0.5" y="-0.5" width="1" height="1" /></g>
<polygon fill="#465f36" fill-opacity="0.501961" points="128.139860,116.920672,135.377897,125.830556,138.413278,141.662425,98.512608,144.133421" />
<path stroke="#f7e8e8" stroke-opacity="0.501961" fill="none" d="M 200.868783 123.331845 Q 209.695025 119.268464, 191.411925 81.995559" stroke-width="0.500000" />
<polygon fill="#15191b" fill-opacity="0.501961" points="271.000000,-16.000000,271.000000,91.546009,197.696620,40.170337,174.037091,-16.000000" />
<polygon fill="#4f5536" fill-opacity="0.501961" points="35.799412,154.396688,92.002508,138.123956,40.030336,143.740416,-16.000000,148.148100" />
<rect fill="#7b7e92" fill-opacity="0.501961" x="140" y="108" width="3" height="41" />
<ellipse fill="#9a7b74" fill-opacity="0.501961" cx="203" cy="150" rx="3" ry="2" />
<ellipse fill="#000103" fill-opacity="0.501961" cx="178" cy="65" rx="2" ry="2" />
<polygon fill="#38392b" fill-opacity="0.501961" points="205.564714,167.277286,202.084935,160.272676,220.254899,132.522898,255.468166,146.687635" />
<polygon fill="#a498b0" fill-opacity="0.501961" points="152,66 133,65 142,72" />
<polygon fill="#9e99b6" fill-opacity="0.501961" points="187.026007,69.598408,180.910538,78.767643,197.197194,74.082585,168.713290,51.623846" />
<polygon fill="#757a75" fill-opacity="0.501961" points="122.713914,151.432091,158.676560,91.069815,128.311735,141.915102,121.192475,144.453696" />
<g transform="translate(60.010470 154.551370) rotate(86.725774) scale(3.679096 31.798668)"><ellipse fill="#2c4b31" fill-opacity="0.501961" cx="0" cy="0" rx="1" ry="1" /></g>
<ellipse fill="#381105" fill-opacity="0.501961" cx="190" cy="50" rx="2" ry="2" />
<g transform="translate(154.361252 82.711939) rotate(268.378595) scale(5.575263 6.158974)"><ellipse fill="#5e4a3d" fill-opacity="0.501961" cx="0" cy="0" rx="1" ry="1" /></g>
<ellipse fill="#e0dcf7" fill-opacity="0.501961" cx="247" cy="165" rx="1" ry="1" />
<rect fill="#587159" fill-opacity="0.501961" x="78" y="159" width="19" height="5" />
<polygon fill="#28292c" fill-opacity="0.501961" points="178,101 167,105 164,97" />
<rect fill="#5a600f" fill-opacity="0.501961" x="129" y="167" width="71" height="3" />
<rect fill="#b79283" fill-opacity="0.501961" x="104" y="133" width="5" height="3" />
<rect fill="#2a2c31" fill-opacity="0.501961" x="147" y="137" width="8" height="17" />
<polygon fill="#161a1b" fill-opacity="0.501961" points="215,-7 197,54 262,89" />
<polygon fill="#3e633d" fill-opacity="0.501961" points="77,135 125,125 96,107" />
<rect fill="#1a1c1a" fill-opacity="0.501961" x="187" y="0" width="14" height="34" />
<polygon fill="#c8c0da" fill-opacity="0.501961" points="201.259799,41.055260,152.121609,46.911094,152.821585,41.343303,139.930579,55.255538" />
</g>
</svg>