<svg xmlns="http://www.w3.org/2000/svg" version="1.1" width="1024" height="680">
<rect x="0" y="0" width="1024" height="680" fill="#343f38" />
<g transform="scale(4.000000) translate(0.5 0.5)">
<g transform="translate(167.912431 90.254161) rotate(93.704947) scale(54.835691 37.849380)"><ellipse fill="#cbb4d8" fill-opacity="0.501961" cx="0" cy="0" rx="1" ry="1" /></g>
<g transform="translate(35.692266 32.106789) rotate(164.355347) scale(101.713852 62.463588)"><ellipse fill="#000000" fill-opacity="0.501961" cx="0" cy="0" rx="1" ry="1" /></g>
<g transform="translate(228.094106 12.556834) rotate(269.515335) scale(117.179654 36.964130)"><ellipse fill="#030506" fill-opacity="0.501961" cx="0" cy="0" rx="1" ry="1" /></g>
<rect fill="#e2d2f8" fill-opacity="0.501961" x="121" y="41" width="78" height="19" />
<polygon fill="#2b1e14" fill-opacity="0.501961" points="193,155 179,74 147,80" />
<polygon fill="#e8dbf0" fill-opacity="0.501961" points="189.706188,79.004935,193.518082,131.423541,207.598462,134.511262,201.886628,98.940681" />
<ellipse fill="#4b7543" fill-opacity="0.501961" cx="67" cy="138" rx="84" ry="40" />
<g transform="translate(156.387300 17.294143) rotate(224.130660) scale(24.145050 29.645154)"><ellipse fill="#000001" fill-opacity="0.501961" cx="0" cy="0" rx="1" ry="1" /></g>
<g transform="translate(110.651873 77.841067) rotate(102.953746) scale(19.137974 29.986721)"><ellipse fill="#02140a" fill-opacity="0.501961" cx="0" cy="0" rx="1" ry="1" /></g>
<polygon fill="#b9bbdf" fill-opacity="0.501961" points="126.987327,112.070477,154.082181,52.636957,149.661986,96.241417,175.185510,143.855377" />
<polygon fill="#e1d4ee" fill-opacity="0.501961" points="189.808361,34.179796,201.759435,37.951925,175.883880,50.463469,115.625770,52.110851" />
<g transform="translate(226.192384 116.039458) rotate(329.390385) scale(15.752737 57.933186)"><ellipse fill="#363f2b" fill-opacity="0.501961" cx="0" cy="0" rx="1" ry="1" /></g>
<g transform="translate(33.038256 21.079444) rotate(56.852113) scale(84.032280 51.845449)"><ellipse fill="#001019" fill-opacity="0.501961" cx="0" cy="0" rx="1" ry="1" /></g>
<polygon fill="#b6b0dd" fill-opacity="0.501961" points="133.803464,121.739578,142.137992,153.635639,144.887573,136.169762,134.584655,98.792294" />
<polygon fill="#6d4b45" fill-opacity="0.501961" points="114,50 144,56 132,71" />
<rect fill="#0d1114" fill-opacity="0.501961" x="197" y="12" width="59" height="80" />
<rect fill="#c3a7b9" fill-opacity="0.501961" x="182" y="33" width="14" height="43" />
<ellipse fill="#444523" fill-opacity="0.501961" cx="186" cy="169" rx="61" ry="31" />
<rect fill="#2c1c11" fill-opacity="0.501961" x="148" y="81" width="35" height="11" />
<g transform="translate(226 119) rotate(182) scale(38 34)"><rect fill="#4f5c45" fill-opacity="0.501961" x="-0.5" y="-0.5" width="1" height="1" /></g>
<polygon fill="#14191c" fill-opacity="0.501961" points="140.283861,36.039910,60.685027,82.423243,68.553267,-16.000000,139.365633,-16.000000" />
<polygon fill="#8c8496" fill-opacity="0.501961" points="199,102 158,131 181,88" />
<g transform="translate(129.734135 47.484281) rotate(254.712835) scale(4.514275 12.143327)"><ellipse fill="#d0c9e4" fill-opacity="0.501961" cx="0" cy="0" rx="1" ry="1" /></g>
<polygon fill="#4f4e4d" fill-opacity="0.501961" points="153.009800,135.320907,142.052254,112.411839,142.916356,154.107317,203.328075,185.000000" />
<polygon fill="#181b1c" fill-opacity="0.501961" points="264.793997,-16.000000,183.927325,56.431290,226.252306,40.828432,51.558015,10.553370" />
<polygon fill="#b9badd" fill-opacity="0.501961" points="132.435625,135.804248,145.879447,83.254202,159.786056,49.352268,143.815431,56.380355" />
<polygon fill="#132b1a" fill-opacity="0.501961" points="21,80 139,68 133,100" />
<g transform="translate(98.853516 121.376407) rotate(333.470334) scale(34.561436 24.327665)"><ellipse fill="#4f6d4a" fill-opacity="0.501961" cx="0" cy="0" rx="1" ry="1" /></g>
<polygon fill="#c1c0e7" fill-opacity="0.501961" points="165.377768,64.104344,167.108546,79.550078,181.150528,43.448778,133.624347,46.245765" />
<polygon fill="#d6cbd1" fill-opacity="0.501961" points="195.630583,127.782237,210.641392,128.328727,203.389673,129.996796,206.040305,103.738273" />
<ellipse fill="#090101" fill-opacity="0.501961" cx="158" cy="66" rx="4" ry="4" />
<polygon fill="#a6a6cf" fill-opacity="0.501961" points="187,138 151,130 143,97" />
<polygon fill="#162a20" fill-opacity="0.501961" points="94,99 46,52 146,84" />
<g transform="translate(156.707130 21.930729) rotate(327.002274) scale(27.751463 20.716018)"><ellipse fill="#1d211e" fill-opacity="0.501961" cx="0" cy="0" rx="1" ry="1" /></g>
<rect fill="#5e6d15" fill-opacity="0.501961" x="113" y="164" width="102" height="6" />
<g transform="translate(139.854365 95.471324) rotate(75.108535) scale(7.755595 5.424099)"><ellipse fill="#dad5e9" fill-opacity="0.501961" cx="0" cy="0" rx="1" ry="1" /></g>
<polygon fill="#9d8281" fill-opacity="0.501961" points="119,48 140,71 121,60" />
<polygon fill="#24201e" fill-opacity="0.501961" points="122.764500,50.625395,129.206407,96.061655,103.691178,63.028320,142.436370,60.563096" />
<g transform="translate(4.922357 109.935360) rotate(81.796113) scale(14.473714 62.958988)"><ellipse fill="#1f4934" fill-opacity="0.501961" cx="0" cy="0" rx="1" ry="1" /></g>
<g transform="translate(12.650539 34.525719) rotate(295.813381) scale(66.025699 37.073096)"><ellipse fill="#000e16" fill-opacity="0.501961" cx="0" cy="0" rx="1" ry="1" /></g>
<ellipse fill="#123325" fill-opacity="0.501961" cx="117" cy="155" rx="31" ry="5" />
<g transform="translate(247.732273 161.001495) rotate(184.745233) scale(43.974414 11.181875)"><ellipse fill="#22261e" fill-opacity="0.501961" cx="0" cy="0" rx="1" ry="1" /></g>
<polygon fill="#000a00" fill-opacity="0.501961" points="187,119 183,133 174,124" />
<polygon fill="#7e798a" fill-opacity="0.501961" points="199,122 185,83 188,138" />
<polygon fill="#32292d" fill-opacity="0.501961" points="174.814684,83.073713,167.437338,73.888532,154.411532,87.911980,176.643379,114.423901" />
<g transform="translate(161.553372 133.295086) rotate(20.009479) scale(3.088176 28.435131)"><ellipse fill="#83819a" fill-opacity="0.501961" cx="0" cy="0" rx="1" ry="1" /></g>
<ellipse fill="#151f18" fill-opacity="0.501961" cx="215" cy="79" rx="20" ry="24" />
<polygon fill="#c0aabc" fill-opacity="0.501961" points="184.086944,70.630505,158.808941,73.530720,144.221812,77.427180,168.056176,64.400279" />
<polygon fill="#bf9a96" fill-opacity="0.501961" points="190.161580,107.558462,193.452635,51.270995,184.824869,32.265055,199.776723,39.827627" />
<polygon fill="#d3c9db" fill-opacity="0.501961" points="199.258169,94.119827,191.870709,80.603005,185.528824,90.227776,199.526670,103.890429" />
<g transform="translate(26.889257 169.000000) rotate(13.668290) scale(75.542102 39.275331)"><ellipse fill="#37512e" fill-opacity="0.501961" cx="0" cy="0" rx="1" ry="1" /></g>
<g transform="translate(184.109912 57.046772) rotate(57.926483) scale(20.649926 5.265079)"><ellipse fill="#babae2" fill-opacity="0.501961" cx="0" cy="0" rx="1" ry="1" /></g>
<rect fill="#4e2417" fill-opacity="0.501961" x="188" y="50" width="11" height="5" />
<polygon fill="#1e232e" fill-opacity="0.501961" points="153.575099,134.738321,155.320750,156.027602,149.245865,152.338786,146.960501,131.680045" />
<polygon fill="#333228" fill-opacity="0.501961" points="168,141 189,165 207,131" />
<rect fill="#12191b" fill-opacity="0.501961" x="67" y="0" width="69" height="43" />
<rect fill="#596c4e" fill-opacity="0.501961" x="55" y="114" width="40" height="31" />
<polygon fill="#9a99ba" fill-opacity="0.501961" points="142.457191,55.312954,163.865863,144.007780,180.882456,133.950851,142.466444,93.883279" />
<polygon fill="#241b1b" fill-opacity="0.501961" points="187,68 175,61 177,68" />
<polygon fill="#d8d3ea" fill-opacity="0.501961" points="129.776246,46.324661,171.513239,55.907657,130.808657,42.245313,127.047105,41.029673" />
<polygon fill="#ca967b" fill-opacity="0.501961" points="202.155779,163.834230,192.339411,184.469911,216.119149,175.839168,216.921880,181.045800" />
<polygon fill="#161a1a" fill-opacity="0.501961" points="200.735276,60.568505,187.098899,-16.000000,227.443227,-16.000000,195.584114,54.460858" />
<polygon fill="#806d6a" fill-opacity="0.501961" points="147.955399,88.931442,140.430420,84.564276,158.447766,73.985204,165.609630,82.655110" />
<polygon fill="#7e615e" fill-opacity="0.501961" points="179.698118,68.202988,172.452916,81.792724,189.608052,84.725226,169.996138,62.366562" />
<polygon fill="#14191a" fill-opacity="0.501961" points="30,75 125,44 169,-16" />
<polygon fill="#e3ddef" fill-opacity="0.501961" points="170,38 187,37 174,47" />
<ellipse fill="#86656a" fill-opacity="0.501961" cx="191" cy="50" rx="5" ry="5" />
<rect fill="#c5a3a2" fill-opacity="0.501961" x="129" y="65" width="14" height="4" />
<g transform="translate(205 129) rotate(54) scale(12 3)"><rect fill="#f5e0e1" fill-opacity="0.501961" x="-0.5" y="-0.5" width="1" height="1" /></g>
<g transform="translate(244.512372 83.871996) rotate(143.529452) scale(13.521868 115.724507)"><ellipse fill="#161c1c" fill-opacity="0.501961" cx="0" cy="0" rx="1" ry="1" /></g>
<ellipse fill="#12281e" fill-opacity="0.501961" cx="77" cy="80" rx="62" ry="16" />
<polygon fill="#5e5e4a" fill-opacity="0.501961" points="220,124 189,143 240,130" />
<g transform="translate(210.589495 73.178356) rotate(143.217722) scale(21.099517 6.431611)"><ellipse fill="#1b1f1b" fill-opacity="0.501961" cx="0" cy="0" rx="1" ry="1" /></g>
<polygon fill="#334230" fill-opacity="0.501961" points="256.266317,114.136846,267.891732,100.606609,216.970842,100.871487,201.585313,126.127677" />
<polygon fill="#18191b" fill-opacity="0.501961" points="110,15 221,20 145,44" />
<polygon fill="#d1d0de" fill-opacity="0.501961" points="145.720664,52.473296,164.563348,38.931985,164.265946,47.743737,178.761387,35.397524" />
<rect fill="#19151a" fill-opacity="0.501961" x="164" y="75" width="8" height="19" />
<polygon fill="#b4b0d6" fill-opacity="0.501961" points="159.576703,53.390450,150.568973,40.971382,139.242233,76.309646,191.287558,37.449054" />
<polygon fill="#5b4032" fill-opacity="0.501961" points="175.518629,103.893295,180.959024,89.702244,191.146994,78.194438,180.717395,78.458405" />
<polygon fill="#a1a2c3" fill-opacity="0.501961" points="138,140 136,124 146,141" />
<ellipse fill="#91886b" fill-opacity="0.501961" cx="57" cy="160" rx="5" ry="3" />
<rect fill="#be9eaa" fill-opacity="0.501961" x="174" y="136" width="14" height="2" />
<polygon fill="#6c757f" fill-opacity="0.501961" points="145.319403,106.080035,137.423830,124.238350,110.827099,128.778434,148.924391,124.105101" />
<polygon fill="#171a1e" fill-opacity="0.501961" points="128,77 69,65 92,-5" />
<polygon fill="#635e72" fill-opacity="0.501961" points="146.191037,58.330195,141.117048,61.639662,126.276760,52.639983,128.539125,47.999874" />
<polygon fill="#ded5e6" fill-opacity="0.501961" points="196,103 204,108 203,128" />
<polygon fill="#677362" fill-opacity="0.501961" points="41,117 37,130 50,148" />
<polygon fill="#c7c3de" fill-opacity="0.501961" points="142.462528,86.192235,129.644404,111.063706,149.090687,102.321962,139.448580,73.515925" />
<polygon fill="#503c33" fill-opacity="0.501961" points="141.228797,65.425312,134.870600,65.868454,143.459483,56.723465,121.141587,56.106239" />
<ellipse fill="#af9e95" fill-opacity="0.501961" cx="133" cy="109" rx="3" ry="10" />
<rect fill="#baa9c7" fill-opacity="0.501961" x="165" y="60" width="33" height="3" />
<polygon fill="#222d1d" fill-opacity="0.501961" points="248.131161,89.520639,197.189835,87.034367,208.374273,122.429688,200.240376,72.779082" />
<rect fill="#35573e" fill-opacity="0.501961" x="37" y="97" width="93" height="15" />
<rect fill="#af8f86" fill-opacity="0.501961" x="55" y="126" width="5" height="6" />
<polygon fill="#947b84" fill-opacity="0.501961" points="152.864950,77.921761,187.385653,73.886061,169.824447,86.153374,179.754910,67.822073" />
<rect fill="#4e5e47" fill-opacity="0.501961" x="134" y="159" width="39" height="6" />
<g transform="translate(193 80) rotate(301) scale(6 3)"><rect fill="#f9c9b5" fill-opacity="0.501961" x="-0.5" y="-0.5" width="1" height="1" /></g>
<rect fill="#282628" fill-opacity="0.501961" x="168" y="0" width="16" height="35" />
<polygon fill="#2f2e29" fill-opacity="0.501961" points="161,137 166,154 155,166" />
<polygon fill="#766d74" fill-opacity="0.501961" points="180.014421,109.813379,162.897568,115.333096,184.274807,89.711333,195.901375,125.320070" />
<polygon fill="#8c8aae" fill-opacity="0.501961" points="170.793852,131.850726,164.103564,127.839428,156.452597,128.202856,167.116943,150.199048" />
<polygon fill="#1d251d" fill-opacity="0.501961" points="80,44 140,85 115,99" />
<rect fill="#e7b1a6" fill-opacity="0.501961" x="194" y="39" width="2" height="21" />
<polygon fill="#476340" fill-opacity="0.501961" points="135.351218,140.602302,128.677373,98.328445,109.819974,101.185844,80.838490,166.677063" />
<rect fill="#bcb5d8" fill-opacity="0.501961" x="119" y="47" width="16" height="5" />
<g transform="translate(152 123) rotate(166) scale(5 23)"><rect fill="#a8a7ca" fill-opacity="0.501961" x="-0.5" y="-0.5" width="1" height="1" /></g>
<g transform="translate(119 55) rotate(362) scale(1 4)"><rect fill="#e8e3ff" fill-opacity="0.501961" x="-0.5" y="-0.5" width="1" height="1" /></g>
<rect fill="#ac99ae" fill-opacity="0.501961" x="156" y="143" width="3" height="8" />
<rect fill="#9d8473" fill-opacity="0.501961" x="76" y="136" width="15" height="3" />
<polygon fill="#a7a4c5" fill-opacity="0.501961" points="188,98 199,111 197,89" />
<ellipse fill="#708286" fill-opacity="0.501961" cx="153" cy="158" rx="4" ry="4" />
<polygon fill="#2e3125" fill-opacity="0.501961" points="174.515810,159.691031,207.806444,131.080925,165.195784,144.957826,235.772025,163.455706" />
<polygon fill="#4c5d4c" fill-opacity="0.501961" points="27.037836,151.028674,10.160832,101.551559,33.956565,128.518754,10.894724,138.332303" />
<polygon fill="#173e2d" fill-opacity="0.501961" points="-16.000000,103.408612,38.820069,111.948811,42.497716,96.770108,-8.577012,91.010540" />
<polygon fill="#0f080c" fill-opacity="0.501961" points="131,72 139,76 137,68" />
<g transform="translate(147 157) rotate(293) scale(45 2)"><rect fill="#1f3322" fill-opacity="0.501961" x="-0.5" y="-0.5" width="1" height="1" /></g>
<polygon fill="#aaa9d5" fill-opacity="0.501961" points="139,82 149,82 144,57" />
<rect fill="#292329" fill-opacity="0.501961" x="173" y="64" width="11" height="3" />
<ellipse fill="#291510" fill-opacity="0.501961" cx="155" cy="66" rx="3" ry="3" />
<polygon fill="#88898e" fill-opacity="0.501961" points="231,128 232,131 238,125" />
<ellipse fill="#2b591e" fill-opacity="0.501961" cx="79" cy="169" rx="49" ry="4" />
<polygon fill="#786c6f" fill-opacity="0.501961" points="166.129278,121.218053,150.749375,93.661751,190.668276,101.902331,161.887218,93.857906" />
<g transform="translate(20.340248 78.238952) rotate(91.228224) scale(17.308653 26.925024)"><ellipse fill="#051f1b" fill-opacity="0.501961" cx="0" cy="0" rx="1" ry="1" /></g>
<polygon fill="#4b6f52" fill-opacity="0.501961" points="135,111 102,120 114,105" />
<g transform="translate(203 88) rotate(57) scale(23 10)"><rect fill="#1a2618" fill-opacity="0.501961" x="-0.5" y="-0.5" width="1" height="1" /></g>
<polygon fill="#3e3e2c" fill-opacity="0.501961" points="167.007034,141.626870,235.110669,185.000000,198.715329,128.435467,228.318337,147.821628" />
<polygon fill="#262422" fill-opacity="0.501961" points="180.039512,137.454398,161.692555,146.915612,182.679212,146.283516,178.148145,169.604756" />
<polygon fill="#1b2317" fill-opacity="0.501961" points="131,103 125,65 135,77" />
<polygon fill="#a8a5cc" fill-opacity="0.501961" points="188.385717,72.823292,169.106603,48.683116,199.147895,39.744593,187.721583,49.400472" />
<polygon fill="#28462e" fill-opacity="0.501961" points="0,167 18,102 -16,137" />
<g transform="translate(247 166) rotate(283) scale(1 5)"><rect fill="#9e9898" fill-opacity="0.501961" x="-0.5" y="-0.5" width="1" height="1" /></g>
<polygon fill="#20412b" fill-opacity="0.501961" points="28,134 59,132 24,144" />
<polygon fill="#decccb" fill-opacity="0.501961" points="192.037219,76.794615,188.409585,84.370851,199.451860,92.421912,203.609292,120.583080" />
<polygon fill="#927d84" fill-opacity="0.501961" points="124.048044,61.712313,131.943248,71.501421,135.445066,69.458780,200.418986,80.859565" />
<ellipse fill="#978771" fill-opacity="0.501961" cx="172" cy="160" rx="3" ry="3" />
<rect fill="#141819" fill-opacity="0.501961" x="99" y="25" width="71" height="15" />
<ellipse fill="#a08573" fill-opacity="0.501961" cx="106" cy="134" rx="3" ry="3" />
<polygon fill="#847582" fill-opacity="0.501961" points="247,141 258,140 253,138" />
<rect fill="#e1c8ca" fill-opacity="0.501961" x="192" y="56" width="3" height="24" />
<g transform="translate(191 130) rotate(115) scale(5 8)"><rect fill="#9294b8" fill-opacity="0.501961" x="-0.5" y="-0.5" width="1" height="1" /></g>
<polygon fill="#41352c" fill-opacity="0.501961" points="143.850866,86.589202,149.763009,90.669432,185.309197,81.094883,186.685633,86.106379" />
<g transform="translate(178 120) rotate(166) scale(14 5)"><rect fill="#313333" fill-opacity="0.501961" x="-0.5" y="-0.5" width="1" height="1" /></g>
<polygon fill="#14201a" fill-opacity="0.501961" points="192.850805,61.960892,214.196303,96.093804,270.379466,105.359211,271.000000,88.182268" />
<rect fill="#50464f" fill-opacity="0.501961" x="158" y="136" width="4" height="16" />
<ellipse fill="#384c2f" fill-opacity="0.501961" cx="212" cy="122" rx="10" ry="4" />
<polygon fill="#273429" fill-opacity="0.501961" points="266.122827,118.498612,231.382113,140.165945,268.100721,77.406687,271.000000,99.055514" />
<ellipse fill="#13181b" fill-opacity="0.501961" cx="246" cy="6" rx="59" ry="59" />
<polygon fill="#262d23" fill-opacity="0.501961" points="249.918286,153.673902,271.000000,98.228633,260.892889,165.785958,145.379829,154.254054" />
<polygon fill="#d7cee1" fill-opacity="0.501961" points="139,54 152,42 152,52" />
<g transform="translate(157.628111 76.014941) rotate(140.445042) scale(2.112348 12.297879)"><ellipse fill="#8f7e86" fill-opacity="0.501961" cx="0" cy="0" rx="1" ry="1" /></g>
<polygon fill="#213d26" fill-opacity="0.501961" points="112,163 142,152 131,143" />
<ellipse fill="#a9a1a1" fill-opacity="0.501961" cx="24" cy="127" rx="2" ry="2" />
<g transform="translate(162 114) rotate(202) scale(22 11)"><rect fill="#8d899a" fill-opacity="0.501961" x="-0.5" y="-0.5" width="1" height="1" /></g>
<ellipse fill="#61677d" fill-opacity="0.501961" cx="143" cy="134" rx="3" ry="19" />
<rect fill="#4e7054" fill-opacity="0.501961" x="41" y="112" width="59" height="7" />
<polygon fill="#504b36" fill-opacity="0.501961" points="165,146 164,159 191,144" />
<g transform="translate(203.216123 150.721088) rotate(87.885572) scale(1.000000 4.152445)"><ellipse fill="#866b66" fill-opacity="0.501961" cx="0" cy="0" rx="1" ry="1" /></g>
<polygon fill="#3b5938" fill-opacity="0.501961" points="64.267813,117.420939,36.721904,117.358456,61.176323,126.623501,89.197377,157.164029" />
<g transform="translate(16 140) rotate(258) scale(1 14)"><rect fill="#7a847b" fill-opacity="0.501961" x="-0.5" y="-0.5" width="1" height="1" /></g>
<polygon fill="#c7bcd3" fill-opacity="0.501961" points="179.694819,42.888626,170.349641,35.806389,189.257133,38.002246,159.286439,59.905899" />
<polygon fill="#4a4b16" fill-opacity="0.501961" points="186.546393,165.872140,146.513340,179.628444,147.915087,180.639220,174.942765,158.315409" />
<polygon fill="#2b282c" fill-opacity="0.501961" points="167,106 163,98 176,101" />
<polygon fill="#3e5434" fill-opacity="0.501961" points="45.494770,153.251227,51.327158,128.770628,110.602959,155.013949,66.809948,136.133357" />
<polygon fill="#1b231d" fill-opacity="0.501961" points="156.723067,-16.000000,148.313605,49.533021,132.462363,-6.220977,176.039321,15.244798" />
<polygon fill="#5b4944" fill-opacity="0.501961" points="142.741714,65.373318,123.401375,48.892141,134.161985,66.429742,115.028241,67.589938" />
<ellipse fill="#1a1413" fill-opacity="0.501961" cx="166" cy="88" rx="10" ry="4" />
<g transform="translate(166 140) rotate(319) scale(8 4)"><rect fill="#aba9d5" fill-opacity="0.501961" x="-0.5" y="-0.5" width="1" height="1" /></g>
<rect fill="#34342a" fill-opacity="0.501961" x="217" y="135" width="33" height="22" />
<ellipse fill="#4b5032" fill-opacity="0.501961" cx="28" cy="147" rx="36" ry="5" />
<polygon fill="#a699af" fill-opacity="0.501961" points="183.793010,90.229511,199.576585,106.326741,183.015421,74.484596,187.752860,76.225439" />
<g transform="translate(163 44) rotate(71) scale(5 6)"><rect fill="#e1e0f9" fill-opacity="0.501961" x="-0.5" y="-0.5" width="1" height="1" /></g>
<g transform="translate(81.149681 159.969806) rotate(270.825925) scale(3.239166 20.405074)"><ellipse fill="#446348" fill-opacity="0.501961" cx="0" cy="0" rx="1" ry="1" /></g>
<polygon fill="#b9b6da" fill-opacity="0.501961" points="161.032802,62.152419,198.984006,39.804297,142.494467,54.477093,135.546730,38.721340" />
<rect fill="#d2cfe0" fill-opacity="0.501961" x="134" y="94" width="4" height="15" />
<ellipse fill="#2d4a30" fill-opacity="0.501961" cx="84" cy="153" rx="42" ry="5" />
<rect fill="#2a3738" fill-opacity="0.501961" x="145" y="129" width="5" height="35" />
<ellipse fill="#151719" fill-opacity="0.501961" cx="153" cy="33" rx="10" ry="10" />
<polygon fill="#223027" fill-opacity="0.501961" points="156,156 150,148 170,159" />
<g transform="translate(11.449656 15.919490) rotate(233.031306) scale(22.753563 25.388702)"><ellipse fill="#000a15" fill-opacity="0.501961" cx="0" cy="0" rx="1" ry="1" /></g>
<g transform="translate(91 144) rotate(106) scale(11 9)"><rect fill="#6b6f58" fill-opacity="0.501961" x="-0.5" y="-0.5" width="1" height="1" /></g>
</g>
</svg>