<svg xmlns="http://www.w3.org/2000/svg" version="1.1" width="1024" height="680">
<rect x="0" y="0" width="1024" height="680" fill="#2d2217" />
<g transform="scale(4.000000) translate(0.5 0.5)">
<ellipse fill="#edd8be" fill-opacity="0.501961" cx="100" cy="150" rx="24" ry="65" />
<g transform="translate(130 41) rotate(99) scale(57 23)"><rect fill="#ffffff" fill-opacity="0.501961" x="-0.5" y="-0.5" width="1" height="1" /></g>
<g transform="translate(29.378012 45.159705) rotate(102.869005) scale(179.641750 49.843997)"><ellipse fill="#000000" fill-opacity="0.501961" cx="0" cy="0" rx="1" ry="1" /></g>
<polygon fill="#ffffea" fill-opacity="0.501961" points="97.697878,80.392199,80.979913,185.000000,102.904990,88.110485,143.962284,31.438542" />
<g transform="translate(217.875634 97.091795) rotate(262.941609) scale(131.949477 64.284496)"><ellipse fill="#060000" fill-opacity="0.501961" cx="0" cy="0" rx="1" ry="1" /></g>
<polygon fill="#ffffff" fill-opacity="0.501961" points="129,75 123,16 140,17" />
<polygon fill="#fceccf" fill-opacity="0.501961" points="83.322172,185.000000,77.689286,125.431312,88.083152,121.994558,100.569674,146.333495" />
<polygon fill="#5f4a3c" fill-opacity="0.501961" points="89,117 158,81 127,185" />
<rect fill="#684020" fill-opacity="0.501961" x="79" y="26" width="14" height="87" />
<polygon fill="#f6f6df" fill-opacity="0.501961" points="127.793942,53.537512,97.067221,88.906649,106.989897,67.366042,146.216325,73.671906" />
<polygon fill="#b47142" fill-opacity="0.501961" points="127,29 82,32 111,8" />
<rect fill="#040a0d" fill-opacity="0.501961" x="105" y="77" width="32" height="36" />
<polygon fill="#090600" fill-opacity="0.501961" points="271.000000,81.492966,138.524578,37.280993,132.949879,49.788585,156.863386,98.339597" />
<ellipse fill="#000000" fill-opacity="0.501961" cx="24" cy="53" rx="27" ry="117" />
<polygon fill="#b2937f" fill-opacity="0.501961" points="139.589066,68.445691,149.988512,79.321760,134.479344,103.513701,155.224151,111.535320" />
<polygon fill="#c88b55" fill-opacity="0.501961" points="92.914148,75.760064,87.122503,58.432740,78.560243,51.949435,81.192906,78.574666" />
<g transform="translate(88.999729 94.791239) rotate(118.145882) scale(28.405223 4.397687)"><ellipse fill="#191106" fill-opacity="0.501961" cx="0" cy="0" rx="1" ry="1" /></g>
<polygon fill="#995931" fill-opacity="0.501961" points="80.337599,171.170945,52.397881,169.511108,61.186375,173.660371,78.222469,112.213458" />
<rect fill="#874b20" fill-opacity="0.501961" x="140" y="12" width="9" height="31" />
<rect fill="#030b0a" fill-opacity="0.501961" x="88" y="41" width="32" height="19" />
<polygon fill="#140a00" fill-opacity="0.501961" points="104.647231,108.291520,109.183900,123.691649,107.229898,125.310975,92.276732,132.096774" />
<polygon fill="#c9b89f" fill-opacity="0.501961" points="98,134 112,142 117,115" />
<polygon fill="#3b2b1f" fill-opacity="0.501961" points="93.614977,185.000000,180.147750,99.904392,106.851978,150.783508,93.544482,185.000000" />
<polygon fill="#ffffec" fill-opacity="0.501961" points="97.202713,114.751430,93.851825,95.631367,104.316917,74.326719,105.640063,87.438671" />
<polygon fill="#9c9288" fill-opacity="0.501961" points="133.448048,165.466049,95.813780,125.149137,117.340271,156.187702,112.528046,185.000000" />
<rect fill="#fffdda" fill-opacity="0.501961" x="125" y="16" width="11" height="48" />
<g transform="translate(129.108148 84.417054) rotate(146.858123) scale(14.146694 16.491417)"><ellipse fill="#090f0e" fill-opacity="0.501961" cx="0" cy="0" rx="1" ry="1" /></g>
<g transform="translate(225.208074 0.000000) rotate(80.901400) scale(42.277175 86.167850)"><ellipse fill="#301e0b" fill-opacity="0.501961" cx="0" cy="0" rx="1" ry="1" /></g>
<polygon fill="#e3dfc9" fill-opacity="0.501961" points="127.238999,39.322213,92.333346,106.534191,112.867561,62.447097,144.348315,75.721916" />
<polygon fill="#ffbbab" fill-opacity="0.501961" points="117,99 115,104 104,98" />
<rect fill="#f9f2d5" fill-opacity="0.501961" x="82" y="114" width="7" height="29" />
<g transform="translate(89.906964 101.218377) rotate(86.755555) scale(18.833537 1.315690)"><ellipse fill="#020a08" fill-opacity="0.501961" cx="0" cy="0" rx="1" ry="1" /></g>
<ellipse fill="#957d67" fill-opacity="0.501961" cx="146" cy="99" rx="4" ry="23" />
<polygon fill="#412716" fill-opacity="0.501961" points="81.472990,15.466130,62.118414,74.776332,120.925792,24.932726,121.817141,49.441522" />
<g transform="translate(209.956078 121.193324) rotate(293.226259) scale(23.159108 12.265268)"><ellipse fill="#3c2a15" fill-opacity="0.501961" cx="0" cy="0" rx="1" ry="1" /></g>
<polygon fill="#1f1102" fill-opacity="0.501961" points="22.040618,185.000000,82.569168,104.785720,98.924197,87.744742,47.104292,72.309126" />
<polygon fill="#522e18" fill-opacity="0.501961" points="182.739307,15.976015,131.690468,-7.070520,116.855976,25.211723,128.357491,14.396671" />
<g transform="translate(233.160954 94.737415) rotate(-12.116039) scale(10.464143 107.046403)"><ellipse fill="#090400" fill-opacity="0.501961" cx="0" cy="0" rx="1" ry="1" /></g>
<rect fill="#9f6553" fill-opacity="0.501961" x="106" y="112" width="28" height="10" />
<rect fill="#1b1d19" fill-opacity="0.501961" x="109" y="72" width="21" height="26" />
<rect fill="#fffffc" fill-opacity="0.501961" x="128" y="17" width="11" height="17" />
<polygon fill="#a26f42" fill-opacity="0.501961" points="83.883142,46.924099,81.117723,84.070198,89.930006,92.586226,86.715201,70.345375" />
<polygon fill="#fffad2" fill-opacity="0.501961" points="102,100 94,121 95,106" />
<ellipse fill="#362c21" fill-opacity="0.501961" cx="200" cy="37" rx="11" ry="23" />
<polygon fill="#18140f" fill-opacity="0.501961" points="122.081755,123.843729,102.064682,104.457118,147.452904,117.002401,121.534416,75.895108" />
<g transform="translate(171.059113 155.078320) rotate(199.184988) scale(21.474901 42.131397)"><ellipse fill="#150800" fill-opacity="0.501961" cx="0" cy="0" rx="1" ry="1" /></g>
<g transform="translate(156.875498 52.401150) rotate(-11.152970) scale(22.964285 12.192579)"><ellipse fill="#0a0d08" fill-opacity="0.501961" cx="0" cy="0" rx="1" ry="1" /></g>
<polygon fill="#432b15" fill-opacity="0.501961" points="177.444401,102.144769,173.588878,75.333275,167.832714,88.432006,159.936352,135.319198" />
<polygon fill="#ffffee" fill-opacity="0.501961" points="133,63 107,70 129,50" />
<ellipse fill="#000000" fill-opacity="0.501961" cx="35" cy="0" rx="63" ry="14" />
<g transform="translate(99.924493 138.103608) rotate(65.113695) scale(31.390101 2.309281)"><ellipse fill="#4e4f43" fill-opacity="0.501961" cx="0" cy="0" rx="1" ry="1" /></g>
<polygon fill="#542f14" fill-opacity="0.501961" points="78.830014,109.450408,43.460526,175.702006,58.669375,174.792756,84.531840,114.784123" />
<ellipse fill="#453428" fill-opacity="0.501961" cx="106" cy="103" rx="3" ry="26" />
<polygon fill="#c8b39c" fill-opacity="0.501961" points="76,132 87,185 101,151" />
<polygon fill="#05100f" fill-opacity="0.501961" points="137.973538,145.881232,146.772150,143.625498,129.535096,156.773836,115.574733,149.057198" />
<polygon fill="#000000" fill-opacity="0.501961" points="78,39 100,13 90,13" />
<g transform="translate(126.984424 79.377852) rotate(-6.177748) scale(13.605918 10.167249)"><ellipse fill="#0b0e0b" fill-opacity="0.501961" cx="0" cy="0" rx="1" ry="1" /></g>
<polygon fill="#272620" fill-opacity="0.501961" points="95.225830,40.147321,95.237569,38.606744,86.635787,101.032399,109.055497,68.332005" />
<polygon fill="#7e5433" fill-opacity="0.501961" points="150.655757,0.964254,145.131959,23.777861,158.276149,27.767940,132.937051,49.598609" />
<polygon fill="#9c7a68" fill-opacity="0.501961" points="143,89 136,100 158,103" />
<polygon fill="#7e4f31" fill-opacity="0.501961" points="103.384333,12.439186,126.884100,13.802105,118.186575,26.269050,77.465609,46.893695" />
<g transform="translate(114.373974 0.000000) rotate(13.333142) scale(18.094287 7.732287)"><ellipse fill="#0b0000" fill-opacity="0.501961" cx="0" cy="0" rx="1" ry="1" /></g>
<rect fill="#cdc5a4" fill-opacity="0.501961" x="123" y="28" width="6" height="24" />
<polygon fill="#050701" fill-opacity="0.501961" points="174.829094,28.759197,164.266909,95.819300,139.159324,68.475660,159.424157,71.735654" />
<polygon fill="#312619" fill-opacity="0.501961" points="48.824575,53.476144,74.320440,45.798519,88.616938,106.438224,94.997899,94.658593" />
<rect fill="#acafa6" fill-opacity="0.501961" x="134" y="152" width="5" height="5" />
<rect fill="#110900" fill-opacity="0.501961" x="99" y="111" width="6" height="16" />
<rect fill="#101915" fill-opacity="0.501961" x="90" y="98" width="3" height="24" />
<polygon fill="#f9faea" fill-opacity="0.501961" points="96.116211,102.127723,91.730925,105.528238,97.179298,90.013558,110.886589,68.540085" />
<ellipse fill="#050100" fill-opacity="0.501961" cx="24" cy="46" rx="22" ry="98" />
<polygon fill="#faf3db" fill-opacity="0.501961" points="141.855504,18.845767,137.581564,32.808389,125.117418,24.432694,128.817698,12.920314" />
<rect fill="#674c37" fill-opacity="0.501961" x="147" y="93" width="6" height="35" />
<ellipse fill="#010500" fill-opacity="0.501961" cx="158" cy="108" rx="4" ry="43" />
<polygon fill="#020400" fill-opacity="0.501961" points="97,35 119,41 116,58" />
<ellipse fill="#c6b18e" fill-opacity="0.501961" cx="95" cy="120" rx="4" ry="4" />
<g transform="translate(115 102) rotate(39) scale(10 1)"><rect fill="#ffbdaa" fill-opacity="0.501961" x="-0.5" y="-0.5" width="1" height="1" /></g>
<g transform="translate(97.733202 131.471810) rotate(258.057870) scale(1.756234 18.417481)"><ellipse fill="#c2b8a2" fill-opacity="0.501961" cx="0" cy="0" rx="1" ry="1" /></g>
<polygon fill="#292925" fill-opacity="0.501961" points="116.759491,66.885807,122.193671,108.809357,103.579936,82.893647,103.649611,82.844976" />
<polygon fill="#0e0800" fill-opacity="0.501961" points="227,35 267,57 228,185" />
<g transform="translate(123 157) rotate(39) scale(29 1)"><rect fill="#a89e97" fill-opacity="0.501961" x="-0.5" y="-0.5" width="1" height="1" /></g>
<polygon fill="#dacbb0" fill-opacity="0.501961" points="87.638814,161.234590,75.708644,142.503882,87.753870,107.229029,86.462068,185.000000" />
<polygon fill="#7f5b45" fill-opacity="0.501961" points="124.090180,151.633231,127.466241,111.014412,113.743092,115.980995,114.305582,122.872406" />
<rect fill="#341e0f" fill-opacity="0.501961" x="127" y="123" width="19" height="30" />
<polygon fill="#926541" fill-opacity="0.501961" points="72.966468,127.844835,82.341271,154.843607,82.706817,185.000000,75.549842,169.910455" />
<rect fill="#683d22" fill-opacity="0.501961" x="112" y="9" width="10" height="31" />
<rect fill="#a1927b" fill-opacity="0.501961" x="133" y="42" width="4" height="14" />
<polygon fill="#2b1e10" fill-opacity="0.501961" points="99.285691,86.498103,93.824478,39.912088,93.690880,84.086823,15.005744,185.000000" />
<ellipse fill="#b1a190" fill-opacity="0.501961" cx="104" cy="93" rx="4" ry="4" />
<polygon fill="#3a240f" fill-opacity="0.501961" points="58.541571,58.359664,50.367962,50.660628,60.765812,10.444874,49.829260,17.555058" />
<polygon fill="#e0d0ae" fill-opacity="0.501961" points="129.979815,50.249754,139.999257,17.572336,139.559352,38.283913,116.339498,55.362403" />
<g transform="translate(112.316106 116.972985) rotate(127.921584) scale(4.496706 5.658000)"><ellipse fill="#ae806c" fill-opacity="0.501961" cx="0" cy="0" rx="1" ry="1" /></g>
<polygon fill="#442512" fill-opacity="0.501961" points="171.582419,-16.000000,120.730767,7.207664,150.899125,23.561972,172.838038,-0.106062" />
<polygon fill="#0d0b05" fill-opacity="0.501961" points="141.189206,42.167638,135.205284,49.112699,144.875143,58.885244,168.874562,29.910886" />
<polygon fill="#0b0500" fill-opacity="0.501961" points="67,67 10,185 -16,-6" />
<polygon fill="#46382c" fill-opacity="0.501961" points="126.764341,164.786793,100.447354,143.944114,114.560917,165.152302,168.090938,143.666600" />
<rect fill="#0f0f0a" fill-opacity="0.501961" x="107" y="104" width="34" height="5" />
<g transform="translate(110 71) rotate(134) scale(22 2)"><rect fill="#fffff5" fill-opacity="0.501961" x="-0.5" y="-0.5" width="1" height="1" /></g>
<polygon fill="#000402" fill-opacity="0.501961" points="174.386892,21.320974,156.278123,9.051126,173.064823,35.798656,173.600373,28.550298" />
<g transform="translate(209 38) rotate(367) scale(4 27)"><rect fill="#5c3a24" fill-opacity="0.501961" x="-0.5" y="-0.5" width="1" height="1" /></g>
<g transform="translate(175.457155 22.919263) rotate(64.969509) scale(11.412120 2.693423)"><ellipse fill="#473527" fill-opacity="0.501961" cx="0" cy="0" rx="1" ry="1" /></g>
<polygon fill="#1b1c18" fill-opacity="0.501961" points="112,70 137,70 105,88" />
<g transform="translate(92 121) rotate(67) scale(16 1)"><rect fill="#212015" fill-opacity="0.501961" x="-0.5" y="-0.5" width="1" height="1" /></g>
<g transform="translate(110 22) rotate(45) scale(23 12)"><rect fill="#845936" fill-opacity="0.501961" x="-0.5" y="-0.5" width="1" height="1" /></g>
<polygon fill="#160d04" fill-opacity="0.501961" points="83,87 77,67 26,120" />
<polygon fill="#11100a" fill-opacity="0.501961" points="208.964830,52.377635,197.328147,44.380888,183.466846,45.308739,178.704972,7.614836" />
<polygon fill="#aa7543" fill-opacity="0.501961" points="83,79 78,61 90,77" />
<g transform="translate(144 78) rotate(159) scale(1 39)"><rect fill="#908673" fill-opacity="0.501961" x="-0.5" y="-0.5" width="1" height="1" /></g>
<g transform="translate(92.739656 54.983586) rotate(-39.678395) scale(1.434556 4.678730)"><ellipse fill="#555150" fill-opacity="0.501961" cx="0" cy="0" rx="1" ry="1" /></g>
<polygon fill="#000606" fill-opacity="0.501961" points="85.668083,46.745964,86.814066,54.777086,108.875218,39.258898,99.878943,45.390124" />
<g transform="translate(215.422790 110.211075) rotate(240.647686) scale(17.335800 5.006174)"><ellipse fill="#372d21" fill-opacity="0.501961" cx="0" cy="0" rx="1" ry="1" /></g>
<polygon fill="#0d100d" fill-opacity="0.501961" points="141.998930,78.563218,130.416775,70.652561,113.789924,116.217757,145.485057,88.693950" />
<polygon fill="#0c0500" fill-opacity="0.501961" points="65,40 52,-5 98,-6" />
<ellipse fill="#3d2515" fill-opacity="0.501961" cx="165" cy="169" rx="6" ry="20" />
<polygon fill="#e6e3cc" fill-opacity="0.501961" points="93,134 85,129 85,110" />
<g transform="translate(59.552098 142.875246) rotate(31.065844) scale(7.491735 37.492504)"><ellipse fill="#351e0a" fill-opacity="0.501961" cx="0" cy="0" rx="1" ry="1" /></g>
<polygon fill="#130901" fill-opacity="0.501961" points="195.383419,118.583798,145.197066,160.613781,176.357174,102.746252,224.632717,35.024084" />
<polygon fill="#271606" fill-opacity="0.501961" points="197,185 220,132 194,106" />
<polygon fill="#ae9286" fill-opacity="0.501961" points="114.400241,167.727984,108.488288,185.000000,140.504807,179.728251,116.162682,162.204749" />
<polygon fill="#040601" fill-opacity="0.501961" points="173.586703,54.280637,169.802978,61.575765,161.965882,115.037644,147.338525,78.446902" />
<polygon fill="#10100b" fill-opacity="0.501961" points="104,31 93,79 118,48" />
<g transform="translate(246 16) rotate(78) scale(38 52)"><rect fill="#2b1c0a" fill-opacity="0.501961" x="-0.5" y="-0.5" width="1" height="1" /></g>
<g transform="translate(99.656861 108.728437) rotate(286.848576) scale(11.016193 1.438923)"><ellipse fill="#d4a982" fill-opacity="0.501961" cx="0" cy="0" rx="1" ry="1" /></g>
<rect fill="#5a5b52" fill-opacity="0.501961" x="98" y="142" width="20" height="5" />
<polygon fill="#f4f1dc" fill-opacity="0.501961" points="104.743733,87.351618,93.191465,122.995580,94.466486,103.650417,100.673604,83.221320" />
<polygon fill="#2d1709" fill-opacity="0.501961" points="149.772071,-16.000000,128.119423,-16.000000,112.829393,17.856927,122.972671,15.345903" />
<rect fill="#59301c" fill-opacity="0.501961" x="58" y="153" width="20" height="17" />
<g transform="translate(92 107) rotate(63) scale(7 1)"><rect fill="#1c1c16" fill-opacity="0.501961" x="-0.5" y="-0.5" width="1" height="1" /></g>
<polygon fill="#271e15" fill-opacity="0.501961" points="174,112 119,153 151,147" />
<g transform="translate(89 15) rotate(135) scale(27 2)"><rect fill="#59321a" fill-opacity="0.501961" x="-0.5" y="-0.5" width="1" height="1" /></g>
<g transform="translate(53 22) rotate(287) scale(8 2)"><rect fill="#6c4429" fill-opacity="0.501961" x="-0.5" y="-0.5" width="1" height="1" /></g>
<polygon fill="#100800" fill-opacity="0.501961" points="216,131 271,163 210,185" />
<polygon fill="#0e1513" fill-opacity="0.501961" points="138,148 129,156 117,146" />
<ellipse fill="#ffc8b5" fill-opacity="0.501961" cx="111" cy="102" rx="2" ry="2" />
<polygon fill="#573523" fill-opacity="0.501961" points="125,138 131,118 158,106" />
<ellipse fill="#776058" fill-opacity="0.501961" cx="140" cy="169" rx="3" ry="3" />
<polygon fill="#e1dbc8" fill-opacity="0.501961" points="132.410636,54.605174,124.482856,62.703423,143.310929,76.392901,139.798362,71.066995" />
<polygon fill="#100b02" fill-opacity="0.501961" points="82.391809,25.401848,126.884770,-9.990163,92.127604,19.635232,73.208840,56.049610" />
<polygon fill="#0f0a04" fill-opacity="0.501961" points="175.925856,9.828588,183.472539,37.267569,210.955297,-16.000000,216.534633,22.860464" />
<polygon fill="#332a23" fill-opacity="0.501961" points="102.767058,106.237873,109.684232,92.718695,107.277624,116.635780,108.993173,104.792874" />
<polygon fill="#c0b69d" fill-opacity="0.501961" points="117.814859,58.349499,119.918486,48.900905,129.910086,21.422230,123.862856,46.680295" />
<polygon fill="#5e3d2b" fill-opacity="0.501961" points="155.715053,16.207767,160.106786,8.784924,126.735239,12.854274,148.743350,15.191126" />
<rect fill="#000000" fill-opacity="0.501961" x="94" y="125" width="13" height="3" />
<g transform="translate(182.275907 41.967375) rotate(171.831651) scale(1.000000 8.443156)"><ellipse fill="#543823" fill-opacity="0.501961" cx="0" cy="0" rx="1" ry="1" /></g>
<polygon fill="#763a1e" fill-opacity="0.501961" points="87,29 78,54 102,21" />
<ellipse fill="#918776" fill-opacity="0.501961" cx="147" cy="85" rx="3" ry="3" />
<polygon fill="#967048" fill-opacity="0.501961" points="77.853197,139.193105,86.478471,105.012276,81.394846,112.901750,73.837432,141.304838" />
<polygon fill="#403735" fill-opacity="0.501961" points="155,50 157,61 152,57" />
<polygon fill="#040704" fill-opacity="0.501961" points="139,92 107,82 140,77" />
<ellipse fill="#cbc0bf" fill-opacity="0.501961" cx="135" cy="154" rx="2" ry="2" />
<g transform="translate(99 117) rotate(99) scale(16 1)"><rect fill="#80664a" fill-opacity="0.501961" x="-0.5" y="-0.5" width="1" height="1" /></g>
<polygon fill="#6a5447" fill-opacity="0.501961" points="97,164 109,174 120,158" />
<rect fill="#252522" fill-opacity="0.501961" x="117" y="69" width="11" height="11" />
<polygon fill="#462e1a" fill-opacity="0.501961" points="174,87 162,114 170,117" />
<polygon fill="#ab7c4a" fill-opacity="0.501961" points="86,86 88,63 81,60" />
<polygon fill="#6b462b" fill-opacity="0.501961" points="87.890313,27.276607,122.537458,18.900402,119.697732,37.745841,110.847476,5.659630" />
<polygon fill="#846f57" fill-opacity="0.501961" points="127,139 109,146 115,126" />
<g transform="translate(96 159) rotate(106) scale(28 4)"><rect fill="#a59285" fill-opacity="0.501961" x="-0.5" y="-0.5" width="1" height="1" /></g>
<polygon fill="#2e2921" fill-opacity="0.501961" points="53.268811,54.089805,80.774768,86.600307,73.004290,77.483656,71.979559,54.656260" />
<polygon fill="#9a7462" fill-opacity="0.501961" points="135,97 146,111 151,98" />
<polygon fill="#473427" fill-opacity="0.501961" points="145.003399,139.979996,127.851525,151.641843,120.413426,117.029821,151.645718,159.392432" />
<polygon fill="#efedd9" fill-opacity="0.501961" points="131.028951,61.660523,134.252840,45.566772,113.156452,69.757386,129.921853,66.327458" />
<polygon fill="#10120e" fill-opacity="0.501961" points="143,113 133,95 133,116" />
<ellipse fill="#814c28" fill-opacity="0.501961" cx="75" cy="169" rx="4" ry="23" />
<polygon fill="#c9baa2" fill-opacity="0.501961" points="79.022035,151.414761,77.888641,142.413126,93.564954,185.000000,93.054300,129.511177" />
<g transform="translate(135 26) rotate(-10) scale(4 17)"><rect fill="#fffffb" fill-opacity="0.501961" x="-0.5" y="-0.5" width="1" height="1" /></g>
<polygon fill="#333028" fill-opacity="0.501961" points="125.204621,108.071327,103.076431,102.610109,104.192408,90.421557,110.629423,111.818016" />
<polygon fill="#996f47" fill-opacity="0.501961" points="138.054948,38.822513,142.070868,22.159127,147.413643,25.032080,144.113952,39.050611" />
<g transform="translate(108.040735 68.222569) rotate(312.572789) scale(17.845555 1.000000)"><ellipse fill="#48453a" fill-opacity="0.501961" cx="0" cy="0" rx="1" ry="1" /></g>
<ellipse fill="#c2af97" fill-opacity="0.501961" cx="108" cy="132" rx="5" ry="5" />
<polygon fill="#706e62" fill-opacity="0.501961" points="104.532611,141.326083,84.923830,121.629052,141.919971,169.407617,101.400399,139.687133" />
<ellipse fill="#c9a88c" fill-opacity="0.501961" cx="125" cy="120" rx="4" ry="1" />
<polygon fill="#402714" fill-opacity="0.501961" points="145,37 139,49 136,44" />
<g transform="translate(29.954117 13.542339) rotate(39.567187) scale(22.049869 31.679361)"><ellipse fill="#010100" fill-opacity="0.501961" cx="0" cy="0" rx="1" ry="1" /></g>
<polygon fill="#200f04" fill-opacity="0.501961" points="176,87 179,38 163,83" />
<g transform="translate(132 9) rotate(4) scale(29 4)"><rect fill="#261103" fill-opacity="0.501961" x="-0.5" y="-0.5" width="1" height="1" /></g>
<ellipse fill="#a96c62" fill-opacity="0.501961" cx="129" cy="114" rx="3" ry="3" />
<polygon fill="#fffff7" fill-opacity="0.501961" points="93,98 101,86 101,92" />
<polygon fill="#25211c" fill-opacity="0.501961" points="117,156 109,155 107,147" />
<g transform="translate(230 59) rotate(18) scale(40 19)"><rect fill="#090400" fill-opacity="0.501961" x="-0.5" y="-0.5" width="1" height="1" /></g>
<g transform="translate(51.091385 138.046057) rotate(113.770438) scale(70.710007 6.532864)"><ellipse fill="#251709" fill-opacity="0.501961" cx="0" cy="0" rx="1" ry="1" /></g>
</g>
</svg>