<svg xmlns="http://www.w3.org/2000/svg" version="1.1" width="1024" height="1024">
<rect x="0" y="0" width="1024" height="1024" fill="#daa952" />
<g transform="scale(4.000000) translate(0.5 0.5)">
<g transform="translate(111.336841 152.118522) rotate(478.303629) scale(46.251578 40.594628)"><ellipse fill="#4b2e3c" fill-opacity="0.501961" cx="0" cy="0" rx="1" ry="1" /></g>
<ellipse fill="#ffe08f" fill-opacity="0.501961" cx="197" cy="25" rx="108" ry="51" />
<g transform="translate(185.457555 93.304443) rotate(211.840290) scale(20.346555 37.115598)"><ellipse fill="#7d4668" fill-opacity="0.501961" cx="0" cy="0" rx="1" ry="1" /></g>
<g transform="translate(195.017300 149.219492) rotate(29.240012) scale(27.335058 11.171515)"><ellipse fill="#662700" fill-opacity="0.501961" cx="0" cy="0" rx="1" ry="1" /></g>
<ellipse fill="#704663" fill-opacity="0.501961" cx="106" cy="81" rx="15" ry="32" />
<g transform="translate(35.946027 104.215657) rotate(182.936157) scale(45.015628 232.574967)"><ellipse fill="#ecb536" fill-opacity="0.501961" cx="0" cy="0" rx="1" ry="1" /></g>
<g transform="translate(141.630149 98.234844) rotate(77.852011) scale(24.788720 45.025916)"><ellipse fill="#c49a8c" fill-opacity="0.501961" cx="0" cy="0" rx="1" ry="1" /></g>
<ellipse fill="#fdc757" fill-opacity="0.501961" cx="235" cy="99" rx="25" ry="185" />
<g transform="translate(92.774942 167.060514) rotate(214.430688) scale(12.983876 30.222324)"><ellipse fill="#5e300f" fill-opacity="0.501961" cx="0" cy="0" rx="1" ry="1" /></g>
<g transform="translate(178.356853 189.794463) rotate(316.232548) scale(29.893483 48.354882)"><ellipse fill="#fbc558" fill-opacity="0.501961" cx="0" cy="0" rx="1" ry="1" /></g>
<polygon fill="#d39d2a" fill-opacity="0.501961" points="-16,252 176,271 89,173" />
<g transform="translate(70.363220 74.175429) rotate(278.098473) scale(58.414239 22.071562)"><ellipse fill="#ffcc60" fill-opacity="0.501961" cx="0" cy="0" rx="1" ry="1" /></g>
<g transform="translate(164.447995 47.858234) rotate(332.958650) scale(48.591208 25.769816)"><ellipse fill="#ffdc8c" fill-opacity="0.501961" cx="0" cy="0" rx="1" ry="1" /></g>
<polygon fill="#7c4d2c" fill-opacity="0.501961" points="49.597195,145.551523,42.110374,152.783450,71.437196,157.907837,107.797125,113.431032" />
<polygon fill="#f8cebb" fill-opacity="0.501961" points="99,138 118,145 117,119" />
<g transform="translate(152.596740 159.060518) rotate(307.282185) scale(41.902650 8.732531)"><ellipse fill="#bc9486" fill-opacity="0.501961" cx="0" cy="0" rx="1" ry="1" /></g>
<polygon fill="#453427" fill-opacity="0.501961" points="135,118 160,139 117,137" />
<polygon fill="#864c19" fill-opacity="0.501961" points="213.456252,169.157056,228.142121,149.587677,213.708967,145.332370,169.513934,142.432939" />
<ellipse fill="#ecb945" fill-opacity="0.501961" cx="213" cy="221" rx="90" ry="58" />
<g transform="translate(213.726434 120.344806) rotate(292.174692) scale(30.013171 19.346877)"><ellipse fill="#fdc760" fill-opacity="0.501961" cx="0" cy="0" rx="1" ry="1" /></g>
<polygon fill="#452b00" fill-opacity="0.501961" points="88,114 101,117 75,153" />
<polygon fill="#703108" fill-opacity="0.501961" points="175,102 174,144 194,157" />
<g transform="translate(105.583787 186.756472) rotate(281.502143) scale(9.220250 31.799955)"><ellipse fill="#8b5a21" fill-opacity="0.501961" cx="0" cy="0" rx="1" ry="1" /></g>
<polygon fill="#824b25" fill-opacity="0.501961" points="107.517330,86.883777,108.508373,98.109854,120.390061,87.452337,111.275620,46.877435" />
<polygon fill="#e3b08b" fill-opacity="0.501961" points="135,89 177,134 165,158" />
<polygon fill="#7b4f36" fill-opacity="0.501961" points="209,90 184,105 202,61" />
<polygon fill="#e3c5b2" fill-opacity="0.501961" points="81,151 88,137 102,135" />
<rect fill="#472522" fill-opacity="0.501961" x="88" y="147" width="19" height="29" />
<rect fill="#a18064" fill-opacity="0.501961" x="115" y="144" width="31" height="49" />
<g transform="translate(85.223011 28.669916) rotate(129.908130) scale(81.293038 28.404819)"><ellipse fill="#f2bd58" fill-opacity="0.501961" cx="0" cy="0" rx="1" ry="1" /></g>
<g transform="translate(53.226457 121.771162) rotate(350.228255) scale(33.792049 20.522410)"><ellipse fill="#ecb443" fill-opacity="0.501961" cx="0" cy="0" rx="1" ry="1" /></g>
<polygon fill="#ffcb77" fill-opacity="0.501961" points="99,22 195,-9 258,83" />
<polygon fill="#e1c9b1" fill-opacity="0.501961" points="112.988312,118.747639,129.511143,91.335412,129.868945,92.294874,117.497402,130.395064" />
<rect fill="#b07d6e" fill-opacity="0.501961" x="42" y="135" width="26" height="15" />
<g transform="translate(160 102) rotate(71) scale(15 9)"><rect fill="#8e5a2c" fill-opacity="0.501961" x="-0.5" y="-0.5" width="1" height="1" /></g>
<rect fill="#d09724" fill-opacity="0.501961" x="62" y="152" width="13" height="38" />
<polygon fill="#aa7775" fill-opacity="0.501961" points="113.431922,82.706072,103.478763,67.631118,88.817649,103.348806,95.894036,115.850335" />
<g transform="translate(227 82) rotate(274) scale(23 33)"><rect fill="#ffd274" fill-opacity="0.501961" x="-0.5" y="-0.5" width="1" height="1" /></g>
<ellipse fill="#896545" fill-opacity="0.501961" cx="130" cy="131" rx="10" ry="28" />
<polygon fill="#d09970" fill-opacity="0.501961" points="97.632249,181.060515,83.706687,177.045996,92.896703,186.358990,109.821360,191.336694" />
<polygon fill="#633100" fill-opacity="0.501961" points="85,192 108,192 80,181" />
<polygon fill="#b87c6c" fill-opacity="0.501961" points="201,98 188,140 174,125" />
<polygon fill="#ffd580" fill-opacity="0.501961" points="207.816928,41.741743,113.714646,33.194961,121.503059,74.906635,120.935668,87.660417" />
<g transform="translate(49.670888 255.000000) rotate(201.196292) scale(137.505801 20.368688)"><ellipse fill="#cd9a30" fill-opacity="0.501961" cx="0" cy="0" rx="1" ry="1" /></g>
<ellipse fill="#c99f3e" fill-opacity="0.501961" cx="26" cy="0" rx="25" ry="28" />
<g transform="translate(117.706239 147.042275) rotate(233.417241) scale(18.345989 3.748280)"><ellipse fill="#d5aa91" fill-opacity="0.501961" cx="0" cy="0" rx="1" ry="1" /></g>
<rect fill="#7a4f37" fill-opacity="0.501961" x="97" y="166" width="29" height="16" />
<g transform="translate(115.724596 216.708595) rotate(105.551693) scale(17.351946 145.272720)"><ellipse fill="#e5b043" fill-opacity="0.501961" cx="0" cy="0" rx="1" ry="1" /></g>
<ellipse fill="#9b8780" fill-opacity="0.501961" cx="146" cy="143" rx="14" ry="4" />
<g transform="translate(109 62) rotate(322) scale(13 21)"><rect fill="#805033" fill-opacity="0.501961" x="-0.5" y="-0.5" width="1" height="1" /></g>
<polygon fill="#745944" fill-opacity="0.501961" points="95.625983,96.216263,90.549713,95.292599,110.192926,134.362976,87.738260,130.961309" />
<polygon fill="#1b1407" fill-opacity="0.501961" points="149,129 138,133 153,137" />
<g transform="translate(92 120) rotate(46) scale(4 13)"><rect fill="#060100" fill-opacity="0.501961" x="-0.5" y="-0.5" width="1" height="1" /></g>
<polygon fill="#b97f50" fill-opacity="0.501961" points="210.428750,147.512536,193.518957,154.705338,187.549131,133.169225,232.199763,151.026266" />
<g transform="translate(86.847444 53.398871) rotate(291.696955) scale(40.146347 10.093398)"><ellipse fill="#fcc768" fill-opacity="0.501961" cx="0" cy="0" rx="1" ry="1" /></g>
<polygon fill="#c7a05b" fill-opacity="0.501961" points="80,163 90,143 69,152" />
<g transform="translate(239.929882 4.388071) rotate(423.834722) scale(93.500608 33.293457)"><ellipse fill="#ebbc67" fill-opacity="0.501961" cx="0" cy="0" rx="1" ry="1" /></g>
<rect fill="#924736" fill-opacity="0.501961" x="172" y="108" width="10" height="25" />
<polygon fill="#694c2f" fill-opacity="0.501961" points="116.461064,137.298431,119.158627,129.604766,125.500620,166.013000,126.314878,125.121286" />
<polygon fill="#5e2d00" fill-opacity="0.501961" points="123,196 112,189 106,194" />
<g transform="translate(23.112462 162.850351) rotate(329.074436) scale(21.094616 32.371059)"><ellipse fill="#f2ba44" fill-opacity="0.501961" cx="0" cy="0" rx="1" ry="1" /></g>
<polygon fill="#e2b173" fill-opacity="0.501961" points="177.340937,136.099291,177.894329,130.679006,208.711230,144.821016,192.347976,127.263741" />
<g transform="translate(136 152) rotate(260) scale(15 4)"><rect fill="#60290a" fill-opacity="0.501961" x="-0.5" y="-0.5" width="1" height="1" /></g>
<polygon fill="#977558" fill-opacity="0.501961" points="96.201113,143.136875,119.148369,126.199269,94.266084,103.340117,110.970915,155.476325" />
<polygon fill="#aa7709" fill-opacity="0.501961" points="94.448626,198.097082,73.149522,169.396209,65.290939,181.790731,89.528163,195.256085" />
<rect fill="#bb8f72" fill-opacity="0.501961" x="143" y="77" width="8" height="51" />
<ellipse fill="#d7b49b" fill-opacity="0.501961" cx="125" cy="96" rx="14" ry="5" />
<g transform="translate(194.535581 182.116055) rotate(190.607590) scale(42.140164 17.704175)"><ellipse fill="#f5bf58" fill-opacity="0.501961" cx="0" cy="0" rx="1" ry="1" /></g>
<polygon fill="#462300" fill-opacity="0.501961" points="181,136 191,157 175,141" />
<ellipse fill="#9c6c56" fill-opacity="0.501961" cx="195" cy="76" rx="14" ry="14" />
<g transform="translate(178.382388 88.092235) rotate(29.901063) scale(8.358567 22.776997)"><ellipse fill="#c78d79" fill-opacity="0.501961" cx="0" cy="0" rx="1" ry="1" /></g>
<g transform="translate(39.692003 45.923769) rotate(40.653737) scale(19.549307 76.835882)"><ellipse fill="#e4b449" fill-opacity="0.501961" cx="0" cy="0" rx="1" ry="1" /></g>
<polygon fill="#b08d6e" fill-opacity="0.501961" points="121.552920,161.771287,156.276552,172.622739,140.871707,189.809496,131.505041,142.017729" />
<rect fill="#925425" fill-opacity="0.501961" x="203" y="147" width="21" height="13" />
<g transform="translate(218.845678 119.818539) rotate(126.017753) scale(19.979836 25.424650)"><ellipse fill="#f6c357" fill-opacity="0.501961" cx="0" cy="0" rx="1" ry="1" /></g>
<polygon fill="#aa7121" fill-opacity="0.501961" points="53.744868,141.337166,59.449649,164.038340,39.517618,138.430974,49.587316,162.854631" />
<polygon fill="#ffd68b" fill-opacity="0.501961" points="198,50 160,83 151,41" />
<rect fill="#d8a59e" fill-opacity="0.501961" x="96" y="87" width="4" height="18" />
<rect fill="#1f1610" fill-opacity="0.501961" x="91" y="145" width="6" height="9" />
<polygon fill="#f2bb44" fill-opacity="0.501961" points="82,130 14,86 90,95" />
<g transform="translate(158 122) rotate(61) scale(23 13)"><rect fill="#dfaf8d" fill-opacity="0.501961" x="-0.5" y="-0.5" width="1" height="1" /></g>
<polygon fill="#eab475" fill-opacity="0.501961" points="175,140 153,178 161,123" />
<g transform="translate(119 42) rotate(127) scale(25 30)"><rect fill="#ffc96f" fill-opacity="0.501961" x="-0.5" y="-0.5" width="1" height="1" /></g>
<ellipse fill="#edba45" fill-opacity="0.501961" cx="255" cy="104" rx="39" ry="17" />
<polygon fill="#9b7f69" fill-opacity="0.501961" points="95,136 85,127 114,128" />
<g transform="translate(177.539589 144.347684) rotate(113.970631) scale(2.378534 2.810583)"><ellipse fill="#181400" fill-opacity="0.501961" cx="0" cy="0" rx="1" ry="1" /></g>
<g transform="translate(220 65) rotate(340) scale(24 37)"><rect fill="#ffce77" fill-opacity="0.501961" x="-0.5" y="-0.5" width="1" height="1" /></g>
<ellipse fill="#966b4d" fill-opacity="0.501961" cx="155" cy="141" rx="5" ry="5" />
<g transform="translate(254.707368 255.000000) rotate(257.016088) scale(35.283653 40.637458)"><ellipse fill="#ddaf46" fill-opacity="0.501961" cx="0" cy="0" rx="1" ry="1" /></g>
<polygon fill="#b07b51" fill-opacity="0.501961" points="164,105 178,69 153,97" />
<g transform="translate(78 146) rotate(303) scale(18 8)"><rect fill="#985b04" fill-opacity="0.501961" x="-0.5" y="-0.5" width="1" height="1" /></g>
<polygon fill="#764e43" fill-opacity="0.501961" points="120,158 105,139 91,142" />
<polygon fill="#dfa839" fill-opacity="0.501961" points="69.134842,181.536226,54.686394,192.975855,81.380143,147.607927,37.488749,163.577617" />
<polygon fill="#976100" fill-opacity="0.501961" points="94.677045,197.259491,78.591508,174.406992,75.322763,185.026874,125.302036,198.632953" />
<g transform="translate(86.252576 152.626104) rotate(294.111445) scale(14.454625 1.932370)"><ellipse fill="#a38b85" fill-opacity="0.501961" cx="0" cy="0" rx="1" ry="1" /></g>
<g transform="translate(102.202604 65.021569) rotate(208.625501) scale(8.420954 17.447834)"><ellipse fill="#926b51" fill-opacity="0.501961" cx="0" cy="0" rx="1" ry="1" /></g>
<g transform="translate(190 149) rotate(145) scale(6 32)"><rect fill="#8d4d00" fill-opacity="0.501961" x="-0.5" y="-0.5" width="1" height="1" /></g>
<polygon fill="#b79174" fill-opacity="0.501961" points="162.065247,135.564778,143.451940,118.293836,161.034804,152.251518,163.849123,107.262796" />
<g transform="translate(29.288548 222.711499) rotate(283.440925) scale(16.354493 47.208746)"><ellipse fill="#dca83b" fill-opacity="0.501961" cx="0" cy="0" rx="1" ry="1" /></g>
<g transform="translate(143 138) rotate(305) scale(1 8)"><rect fill="#000000" fill-opacity="0.501961" x="-0.5" y="-0.5" width="1" height="1" /></g>
<rect fill="#eec6b0" fill-opacity="0.501961" x="92" y="136" width="20" height="3" />
<polygon fill="#805f3b" fill-opacity="0.501961" points="115,107 98,125 109,129" />
<polygon fill="#e6b989" fill-opacity="0.501961" points="147.607032,160.387164,153.466882,149.271778,171.781775,144.540710,160.906565,163.870585" />
<polygon fill="#52300c" fill-opacity="0.501961" points="99,124 97,113 91,129" />
<g transform="translate(116.169990 121.549323) rotate(194.056005) scale(1.615137 24.068346)"><ellipse fill="#dbb99e" fill-opacity="0.501961" cx="0" cy="0" rx="1" ry="1" /></g>
<polygon fill="#a98860" fill-opacity="0.501961" points="84.830831,117.871480,89.481706,113.274938,105.038147,121.468708,126.705735,97.857712" />
<polygon fill="#f2bf5a" fill-opacity="0.501961" points="220,103 271,172 232,187" />
<polygon fill="#ba865b" fill-opacity="0.501961" points="65.055563,153.520479,54.328144,153.511749,64.170010,135.879943,84.043930,130.054633" />
<g transform="translate(170 101) rotate(305) scale(22 4)"><rect fill="#d4a592" fill-opacity="0.501961" x="-0.5" y="-0.5" width="1" height="1" /></g>
<g transform="translate(242.151373 73.908761) rotate(144.460847) scale(39.837339 16.854027)"><ellipse fill="#f8c562" fill-opacity="0.501961" cx="0" cy="0" rx="1" ry="1" /></g>
<polygon fill="#441700" fill-opacity="0.501961" points="201,147 211,157 205,154" />
<g transform="translate(159.413195 76.166472) rotate(289.071260) scale(2.211579 3.297761)"><ellipse fill="#b7c3cc" fill-opacity="0.501961" cx="0" cy="0" rx="1" ry="1" /></g>
<rect fill="#9f663a" fill-opacity="0.501961" x="138" y="90" width="11" height="4" />
<polygon fill="#b2773a" fill-opacity="0.501961" points="209.249832,172.715458,203.047631,145.647905,175.512728,122.348619,171.907074,117.134213" />
<polygon fill="#ba8357" fill-opacity="0.501961" points="86.747884,183.401888,108.963422,191.685962,101.789302,181.128467,84.904624,176.209388" />
<polygon fill="#b78075" fill-opacity="0.501961" points="170.682078,85.061586,196.312737,114.348106,195.046514,127.216789,186.494765,124.045619" />
<g transform="translate(105.627385 82.689653) rotate(88.783643) scale(19.316032 4.402303)"><ellipse fill="#b27b6f" fill-opacity="0.501961" cx="0" cy="0" rx="1" ry="1" /></g>
<polygon fill="#e4af4c" fill-opacity="0.501961" points="201.904874,165.911137,221.959065,163.927995,218.279580,152.751718,212.266199,182.490883" />
<ellipse fill="#fec861" fill-opacity="0.501961" cx="87" cy="76" rx="4" ry="40" />
<polygon fill="#754a0a" fill-opacity="0.501961" points="88.676604,187.093700,75.335399,161.695108,74.737777,173.063492,82.109424,188.979157" />
<g transform="translate(56.556984 135.902642) rotate(179.609319) scale(19.333360 1.496682)"><ellipse fill="#e6b666" fill-opacity="0.501961" cx="0" cy="0" rx="1" ry="1" /></g>
<ellipse fill="#ebb950" fill-opacity="0.501961" cx="0" cy="61" rx="14" ry="41" />
<polygon fill="#945c16" fill-opacity="0.501961" points="41.355296,150.333833,51.348851,154.806676,62.949246,153.001655,45.459551,147.883543" />
<polygon fill="#ecc4a0" fill-opacity="0.501961" points="128.931773,95.408577,150.674897,98.822622,143.106909,95.028813,122.046412,92.312188" />
<polygon fill="#885941" fill-opacity="0.501961" points="184,96 209,82 198,103" />
<g transform="translate(112.858283 139.881627) rotate(137.244148) scale(2.479764 9.188002)"><ellipse fill="#ebc2a9" fill-opacity="0.501961" cx="0" cy="0" rx="1" ry="1" /></g>
<polygon fill="#713615" fill-opacity="0.501961" points="106.902081,180.769584,97.669750,180.976399,83.927842,165.745512,93.936244,163.187952" />
<g transform="translate(134 172) rotate(239) scale(10 2)"><rect fill="#815317" fill-opacity="0.501961" x="-0.5" y="-0.5" width="1" height="1" /></g>
<polygon fill="#180c00" fill-opacity="0.501961" points="100,127 86,120 88,116" />
<polygon fill="#8e5832" fill-opacity="0.501961" points="116.176918,60.536861,101.199045,52.746275,116.710114,92.256782,121.051030,84.594065" />
<polygon fill="#e0a92e" fill-opacity="0.501961" points="195,162 180,149 167,151" />
<polygon fill="#ba9593" fill-opacity="0.501961" points="138,135 134,139 137,145" />
<rect fill="#c59269" fill-opacity="0.501961" x="131" y="102" width="21" height="14" />
<g transform="translate(12.952443 115.621741) rotate(252.568788) scale(10.900492 46.054756)"><ellipse fill="#e5af37" fill-opacity="0.501961" cx="0" cy="0" rx="1" ry="1" /></g>
<g transform="translate(91 188) rotate(293) scale(2 18)"><rect fill="#552800" fill-opacity="0.501961" x="-0.5" y="-0.5" width="1" height="1" /></g>
<ellipse fill="#996e55" fill-opacity="0.501961" cx="196" cy="70" rx="10" ry="10" />
<rect fill="#47280d" fill-opacity="0.501961" x="120" y="136" width="3" height="9" />
<g transform="translate(50.366959 16.606174) rotate(144.349614) scale(48.159440 12.824285)"><ellipse fill="#daac47" fill-opacity="0.501961" cx="0" cy="0" rx="1" ry="1" /></g>
<g transform="translate(93.094980 18.149191) rotate(223.368369) scale(10.826657 45.107593)"><ellipse fill="#ecbb59" fill-opacity="0.501961" cx="0" cy="0" rx="1" ry="1" /></g>
<rect fill="#ffd477" fill-opacity="0.501961" x="122" y="59" width="11" height="23" />
<polygon fill="#e0ab8a" fill-opacity="0.501961" points="188.444125,121.284464,183.940993,118.661054,187.741307,129.325149,202.456604,144.141106" />
<polygon fill="#c69a7d" fill-opacity="0.501961" points="152,75 127,82 168,91" />
<rect fill="#92643d" fill-opacity="0.501961" x="161" y="97" width="4" height="16" />
<polygon fill="#cca37d" fill-opacity="0.501961" points="151.116174,72.933196,101.775435,115.518089,106.222929,103.423502,131.367307,82.979769" />
<ellipse fill="#ecb650" fill-opacity="0.501961" cx="153" cy="204" rx="16" ry="21" />
<g transform="translate(90.249538 126.712221) rotate(123.006277) scale(2.811059 1.000000)"><ellipse fill="#b4a293" fill-opacity="0.501961" cx="0" cy="0" rx="1" ry="1" /></g>
<g transform="translate(86 149) rotate(119) scale(23 1)"><rect fill="#bda297" fill-opacity="0.501961" x="-0.5" y="-0.5" width="1" height="1" /></g>
<rect fill="#281a05" fill-opacity="0.501961" x="140" y="129" width="8" height="6" />
<g transform="translate(196.804751 13.684742) rotate(43.714006) scale(60.141267 13.746109)"><ellipse fill="#f6c56f" fill-opacity="0.501961" cx="0" cy="0" rx="1" ry="1" /></g>
<ellipse fill="#a88a6c" fill-opacity="0.501961" cx="132" cy="185" rx="8" ry="8" />
<polygon fill="#f7c469" fill-opacity="0.501961" points="95.627105,26.048179,76.975809,98.293171,95.184894,57.441115,172.553079,-16.000000" />
<g transform="translate(109.953388 91.847541) rotate(219.552045) scale(3.508333 9.369143)"><ellipse fill="#926248" fill-opacity="0.501961" cx="0" cy="0" rx="1" ry="1" /></g>
<g transform="translate(241.494752 2.836576) rotate(263.420700) scale(22.827856 18.681687)"><ellipse fill="#e6b961" fill-opacity="0.501961" cx="0" cy="0" rx="1" ry="1" /></g>
<g transform="translate(123.687100 164.219147) rotate(154.175154) scale(3.387710 21.438122)"><ellipse fill="#aa8669" fill-opacity="0.501961" cx="0" cy="0" rx="1" ry="1" /></g>
<polygon fill="#c39867" fill-opacity="0.501961" points="148.714402,179.662679,129.196064,162.007946,158.725050,167.669977,137.532617,198.313088" />
<polygon fill="#b07e48" fill-opacity="0.501961" points="96.611615,182.631771,88.291468,170.971028,87.441157,185.663178,145.220551,199.162548" />
<rect fill="#000306" fill-opacity="0.501961" x="103" y="154" width="3" height="4" />
<polygon fill="#7a5a3b" fill-opacity="0.501961" points="142.111459,120.061925,141.783786,135.062599,116.927818,130.651032,141.480634,116.389549" />
<polygon fill="#ddaa42" fill-opacity="0.501961" points="214,271 100,194 19,212" />
<polygon fill="#a39785" fill-opacity="0.501961" points="148,138 136,145 152,145" />
<g transform="translate(230.195971 203.611462) rotate(148.903940) scale(56.507644 25.910019)"><ellipse fill="#eab850" fill-opacity="0.501961" cx="0" cy="0" rx="1" ry="1" /></g>
<ellipse fill="#d4a037" fill-opacity="0.501961" cx="84" cy="242" rx="29" ry="25" />
<polygon fill="#7a4d1d" fill-opacity="0.501961" points="85.437520,132.217565,70.856858,149.530365,73.362230,151.528848,91.740669,138.190210" />
<polygon fill="#936b45" fill-opacity="0.501961" points="106.999305,130.482376,90.238810,110.135300,90.621059,93.759451,94.773245,113.787122" />
<g transform="translate(31.776093 255.000000) rotate(189.613545) scale(83.523046 8.105364)"><ellipse fill="#ca982d" fill-opacity="0.501961" cx="0" cy="0" rx="1" ry="1" /></g>
<polygon fill="#88604d" fill-opacity="0.501961" points="100,173 126,169 109,159" />
<rect fill="#8d4d06" fill-opacity="0.501961" x="197" y="157" width="7" height="7" />
<polygon fill="#c59181" fill-opacity="0.501961" points="165.545017,110.442808,168.224240,121.479741,181.717050,95.781713,167.157971,91.816012" />
<g transform="translate(140.045711 157.212965) rotate(83.475535) scale(8.681055 2.410341)"><ellipse fill="#a06835" fill-opacity="0.501961" cx="0" cy="0" rx="1" ry="1" /></g>
<polygon fill="#8b6852" fill-opacity="0.501961" points="100,55 93,71 100,91" />
<g transform="translate(105.834042 84.298684) rotate(182.159879) scale(2.476290 6.514275)"><ellipse fill="#c3938f" fill-opacity="0.501961" cx="0" cy="0" rx="1" ry="1" /></g>
<ellipse fill="#697f8e" fill-opacity="0.501961" cx="145" cy="136" rx="2" ry="2" />
<g transform="translate(109.000479 147.808168) rotate(133.955116) scale(5.098179 9.709765)"><ellipse fill="#8c5945" fill-opacity="0.501961" cx="0" cy="0" rx="1" ry="1" /></g>
<polygon fill="#7c5642" fill-opacity="0.501961" points="135.207775,152.508330,149.173017,149.701510,133.408515,142.468464,121.834642,124.728355" />
<polygon fill="#8a6947" fill-opacity="0.501961" points="116.581428,139.807205,115.732788,128.705626,128.059702,116.770641,117.787180,141.282600" />
<polygon fill="#412518" fill-opacity="0.501961" points="96,162 95,141 86,159" />
<polygon fill="#5a4845" fill-opacity="0.501961" points="91,158 104,146 101,158" />
<polygon fill="#b67c3e" fill-opacity="0.501961" points="218.558061,143.367884,206.585759,145.493967,214.287279,158.425266,214.816563,165.197308" />
<rect fill="#9e6b30" fill-opacity="0.501961" x="115" y="84" width="7" height="7" />
<polygon fill="#856646" fill-opacity="0.501961" points="73.339827,164.861294,77.571607,155.180598,85.285085,159.544494,83.412248,170.267829" />
</g>
</svg>