<svg xmlns="http://www.w3.org/2000/svg" version="1.1" width="1024" height="680">
<rect x="0" y="0" width="1024" height="680" fill="#5895b4" />
<g transform="scale(4.000000) translate(0.5 0.5)">
<g transform="translate(170.717260 131.638842) rotate(133.304830) scale(44.751695 113.270832)"><ellipse fill="#250000" fill-opacity="0.501961" cx="0" cy="0" rx="1" ry="1" /></g>
<g transform="translate(43.403236 54.613134) rotate(280.608733) scale(255.000000 50.831711)"><ellipse fill="#7bf0ff" fill-opacity="0.501961" cx="0" cy="0" rx="1" ry="1" /></g>
<g transform="translate(193.154844 58.696074) rotate(321.198528) scale(41.674573 88.776321)"><ellipse fill="#66d4ff" fill-opacity="0.501961" cx="0" cy="0" rx="1" ry="1" /></g>
<g transform="translate(186.676820 136.124806) rotate(297.331560) scale(24.587696 121.212305)"><ellipse fill="#220000" fill-opacity="0.501961" cx="0" cy="0" rx="1" ry="1" /></g>
<rect fill="#331200" fill-opacity="0.501961" x="118" y="52" width="38" height="118" />
<ellipse fill="#63ceff" fill-opacity="0.501961" cx="71" cy="141" rx="45" ry="45" />
<ellipse fill="#75c7ff" fill-opacity="0.501961" cx="91" cy="18" rx="250" ry="30" />
<polygon fill="#a35b2e" fill-opacity="0.501961" points="72,76 91,125 133,43" />
<g transform="translate(208.981188 99.432177) rotate(305.513497) scale(21.388242 56.011010)"><ellipse fill="#45b3f9" fill-opacity="0.501961" cx="0" cy="0" rx="1" ry="1" /></g>
<g transform="translate(37.357584 72.555006) rotate(202.659222) scale(41.739001 138.666577)"><ellipse fill="#6ac7ff" fill-opacity="0.501961" cx="0" cy="0" rx="1" ry="1" /></g>
<ellipse fill="#0c0200" fill-opacity="0.501961" cx="232" cy="169" rx="32" ry="32" />
<rect fill="#6e5230" fill-opacity="0.501961" x="119" y="140" width="81" height="30" />
<g transform="translate(42.224039 169.000000) rotate(274.742005) scale(69.105660 76.524815)"><ellipse fill="#53c4ff" fill-opacity="0.501961" cx="0" cy="0" rx="1" ry="1" /></g>
<g transform="translate(134.660716 81.678542) rotate(151.866256) scale(29.979287 12.708220)"><ellipse fill="#220f00" fill-opacity="0.501961" cx="0" cy="0" rx="1" ry="1" /></g>
<g transform="translate(229.209216 56.536657) rotate(64.068676) scale(38.791265 75.384154)"><ellipse fill="#54b0e9" fill-opacity="0.501961" cx="0" cy="0" rx="1" ry="1" /></g>
<g transform="translate(115.197859 13.707165) rotate(302.353329) scale(21.216530 92.060301)"><ellipse fill="#76c5f3" fill-opacity="0.501961" cx="0" cy="0" rx="1" ry="1" /></g>
<g transform="translate(100.423105 109.122546) rotate(62.227711) scale(5.673778 10.099091)"><ellipse fill="#9b3608" fill-opacity="0.501961" cx="0" cy="0" rx="1" ry="1" /></g>
<g transform="translate(138.309595 104.746826) rotate(299.309400) scale(24.540460 39.577981)"><ellipse fill="#161606" fill-opacity="0.501961" cx="0" cy="0" rx="1" ry="1" /></g>
<g transform="translate(106.628680 68.190642) rotate(55.497113) scale(18.045779 25.628378)"><ellipse fill="#765335" fill-opacity="0.501961" cx="0" cy="0" rx="1" ry="1" /></g>
<polygon fill="#a89a8b" fill-opacity="0.501961" points="152.085757,174.343953,153.729111,176.856926,171.247255,143.451185,155.415087,145.100593" />
<rect fill="#1e1000" fill-opacity="0.501961" x="120" y="163" width="136" height="7" />
<polygon fill="#928376" fill-opacity="0.501961" points="134.970410,162.257261,123.213132,157.989832,112.702658,134.727028,138.149832,138.639636" />
<g transform="translate(95.795853 139.114008) rotate(118.492669) scale(24.038323 18.939704)"><ellipse fill="#69caff" fill-opacity="0.501961" cx="0" cy="0" rx="1" ry="1" /></g>
<polygon fill="#191100" fill-opacity="0.501961" points="181,143 170,102 227,136" />
<polygon fill="#5e3718" fill-opacity="0.501961" points="144,93 164,68 139,48" />
<polygon fill="#b7735e" fill-opacity="0.501961" points="89,73 77,81 89,118" />
<g transform="translate(40.313703 80.981633) rotate(71.221922) scale(59.792840 33.491464)"><ellipse fill="#77cafc" fill-opacity="0.501961" cx="0" cy="0" rx="1" ry="1" /></g>
<g transform="translate(4.558930 165.751325) rotate(271.561437) scale(17.982013 116.379298)"><ellipse fill="#3eb9f0" fill-opacity="0.501961" cx="0" cy="0" rx="1" ry="1" /></g>
<polygon fill="#1d1204" fill-opacity="0.501961" points="105.323028,80.296799,145.475808,116.043930,78.280976,93.194510,82.734799,102.930552" />
<rect fill="#0b0801" fill-opacity="0.501961" x="129" y="50" width="13" height="88" />
<g transform="translate(249.256316 55.917633) rotate(264.977805) scale(88.333742 43.021084)"><ellipse fill="#4ea7dc" fill-opacity="0.501961" cx="0" cy="0" rx="1" ry="1" /></g>
<ellipse fill="#e79c89" fill-opacity="0.501961" cx="97" cy="106" rx="15" ry="3" />
<g transform="translate(152.556675 136.925887) rotate(315.789314) scale(20.430375 4.595149)"><ellipse fill="#0d0600" fill-opacity="0.501961" cx="0" cy="0" rx="1" ry="1" /></g>
<polygon fill="#76c4f0" fill-opacity="0.501961" points="11,19 171,-16 73,71" />
<polygon fill="#66b5e7" fill-opacity="0.501961" points="240.730166,112.128628,169.981066,68.501129,127.407004,43.417882,225.881220,-16.000000" />
<polygon fill="#5abcf2" fill-opacity="0.501961" points="169,98 198,37 156,82" />
<polygon fill="#473c29" fill-opacity="0.501961" points="176.156679,137.846515,144.935091,118.209644,158.172150,99.545389,179.816263,112.737451" />
<polygon fill="#43aae0" fill-opacity="0.501961" points="202.585535,123.726778,215.987832,127.774668,271.000000,149.905172,159.336143,62.371161" />
<rect fill="#9e8c7f" fill-opacity="0.501961" x="153" y="151" width="8" height="19" />
<g transform="translate(194.016995 158.809410) rotate(190.138995) scale(3.394802 13.020106)"><ellipse fill="#7f7361" fill-opacity="0.501961" cx="0" cy="0" rx="1" ry="1" /></g>
<g transform="translate(106.053048 53.804360) rotate(180.653612) scale(11.732774 5.172247)"><ellipse fill="#a17856" fill-opacity="0.501961" cx="0" cy="0" rx="1" ry="1" /></g>
<polygon fill="#211803" fill-opacity="0.501961" points="245.362757,141.500980,178.235903,113.547758,234.725803,185.000000,271.000000,150.168040" />
<polygon fill="#000000" fill-opacity="0.501961" points="158.861346,96.293605,160.898246,89.027538,154.401387,81.553630,130.510219,125.492477" />
<polygon fill="#ac8c78" fill-opacity="0.501961" points="117,59 108,79 121,74" />
<g transform="translate(182 153) rotate(277) scale(79 12)"><rect fill="#1b1509" fill-opacity="0.501961" x="-0.5" y="-0.5" width="1" height="1" /></g>
<rect fill="#ffe8fa" fill-opacity="0.501961" x="89" y="101" width="7" height="4" />
<g transform="translate(110 68) rotate(99) scale(18 7)"><rect fill="#351906" fill-opacity="0.501961" x="-0.5" y="-0.5" width="1" height="1" /></g>
<rect fill="#5d2a0d" fill-opacity="0.501961" x="85" y="110" width="25" height="5" />
<polygon fill="#160d04" fill-opacity="0.501961" points="179.901679,99.627340,125.109703,176.831690,150.697340,185.000000,138.692279,147.067321" />
<rect fill="#c99784" fill-opacity="0.501961" x="77" y="79" width="11" height="15" />
<polygon fill="#68c3f6" fill-opacity="0.501961" points="51,121 121,177 108,115" />
<ellipse fill="#604230" fill-opacity="0.501961" cx="90" cy="70" rx="8" ry="8" />
<polygon fill="#6cc1ef" fill-opacity="0.501961" points="162,58 -16,-5 92,-16" />
<rect fill="#5b3c21" fill-opacity="0.501961" x="116" y="48" width="17" height="14" />
<polygon fill="#a49689" fill-opacity="0.501961" points="134,157 121,146 134,147" />
<polygon fill="#419bc7" fill-opacity="0.501961" points="269,96 237,-3 271,-7" />
<polygon fill="#5c4b38" fill-opacity="0.501961" points="108.364691,121.707315,140.440384,140.891233,117.343865,148.173833,118.368630,120.110810" />
<polygon fill="#1f1a11" fill-opacity="0.501961" points="167.405781,96.473635,174.196211,102.926089,177.481702,105.941735,72.246423,98.913885" />
<polygon fill="#2cb7ee" fill-opacity="0.501961" points="-11.118385,109.934187,27.095834,179.722927,6.750761,178.956401,-16.000000,157.599758" />
<polygon fill="#998674" fill-opacity="0.501961" points="108,59 95,51 105,68" />
<polygon fill="#0b1711" fill-opacity="0.501961" points="213.655291,132.020781,213.025338,131.680737,151.467850,88.199618,190.438187,111.593645" />
<g transform="translate(235.412781 124.561229) rotate(304.553831) scale(10.283850 31.259098)"><ellipse fill="#3d9ed2" fill-opacity="0.501961" cx="0" cy="0" rx="1" ry="1" /></g>
<g transform="translate(149.748851 70.591145) rotate(10.510452) scale(12.510144 11.720980)"><ellipse fill="#463322" fill-opacity="0.501961" cx="0" cy="0" rx="1" ry="1" /></g>
<rect fill="#4c1f09" fill-opacity="0.501961" x="97" y="101" width="17" height="5" />
<ellipse fill="#665138" fill-opacity="0.501961" cx="196" cy="146" rx="9" ry="9" />
<polygon fill="#392211" fill-opacity="0.501961" points="134.100204,88.888482,110.029284,81.932470,140.948581,59.380235,129.850600,47.300437" />
<polygon fill="#75c8f9" fill-opacity="0.501961" points="10,70 69,86 104,39" />
<polygon fill="#251308" fill-opacity="0.501961" points="132.533312,185.000000,115.278823,155.686933,145.346381,181.128004,144.554460,141.470971" />
<polygon fill="#78bee9" fill-opacity="0.501961" points="50,-11 181,48 187,0" />
<g transform="translate(201.070012 99.645160) rotate(324.184592) scale(14.108503 32.318459)"><ellipse fill="#4fafe3" fill-opacity="0.501961" cx="0" cy="0" rx="1" ry="1" /></g>
<polygon fill="#a15939" fill-opacity="0.501961" points="103,106 83,108 89,116" />
<polygon fill="#6f523e" fill-opacity="0.501961" points="156.446491,185.000000,154.655791,153.523436,126.478886,165.743280,138.736088,149.308022" />
<g transform="translate(85.030544 106.210120) rotate(123.817185) scale(3.010432 5.107203)"><ellipse fill="#bbc0d2" fill-opacity="0.501961" cx="0" cy="0" rx="1" ry="1" /></g>
<rect fill="#5c3926" fill-opacity="0.501961" x="77" y="82" width="18" height="3" />
<polygon fill="#b3b4bf" fill-opacity="0.501961" points="86.038493,78.476765,81.796247,72.536474,79.018709,78.396637,80.104224,84.891387" />
<polygon fill="#6e4828" fill-opacity="0.501961" points="87,86 88,100 101,92" />
<rect fill="#5c513c" fill-opacity="0.501961" x="169" y="127" width="6" height="31" />
<ellipse fill="#55b4e8" fill-opacity="0.501961" cx="186" cy="83" rx="28" ry="18" />
<g transform="translate(152.621811 117.577638) rotate(303.764295) scale(8.942381 5.035977)"><ellipse fill="#4f453c" fill-opacity="0.501961" cx="0" cy="0" rx="1" ry="1" /></g>
<polygon fill="#3d2a18" fill-opacity="0.501961" points="162.848481,183.580267,182.650476,119.644245,153.621739,185.000000,215.872911,165.077165" />
<polygon fill="#57bcf1" fill-opacity="0.501961" points="-16.000000,3.672580,-9.896575,-13.842721,20.081961,-1.558852,-3.867708,64.800531" />
<rect fill="#57bff3" fill-opacity="0.501961" x="10" y="142" width="107" height="21" />
<polygon fill="#201505" fill-opacity="0.501961" points="153,142 161,108 171,137" />
<polygon fill="#6dc7f9" fill-opacity="0.501961" points="71,131 114,129 105,114" />
<polygon fill="#917764" fill-opacity="0.501961" points="105.348216,83.446757,121.839521,73.774605,110.868284,50.081345,121.828097,61.292288" />
<rect fill="#71c3f1" fill-opacity="0.501961" x="58" y="11" width="77" height="36" />
<g transform="translate(31.643292 106.141200) rotate(95.462205) scale(25.370604 52.451807)"><ellipse fill="#6ac8f8" fill-opacity="0.501961" cx="0" cy="0" rx="1" ry="1" /></g>
<g transform="translate(84 97) rotate(357) scale(5 5)"><rect fill="#160000" fill-opacity="0.501961" x="-0.5" y="-0.5" width="1" height="1" /></g>
<polygon fill="#513a2e" fill-opacity="0.501961" points="126.638656,102.601991,93.379073,118.552142,84.738053,115.117915,107.944498,108.481510" />
<g transform="translate(223.950971 169.267072) rotate(97.513533) scale(24.611381 26.628284)"><ellipse fill="#181004" fill-opacity="0.501961" cx="0" cy="0" rx="1" ry="1" /></g>
<polygon fill="#3e413b" fill-opacity="0.501961" points="271.000000,183.926595,262.947459,159.418197,246.921139,141.726841,240.060685,137.766158" />
<polygon fill="#4aabe1" fill-opacity="0.501961" points="221.231736,128.718835,185.215825,108.013011,171.930275,100.377818,160.584032,56.941979" />
<rect fill="#3da4dc" fill-opacity="0.501961" x="249" y="40" width="7" height="100" />
<polygon fill="#63574c" fill-opacity="0.501961" points="144.622183,91.279532,160.051108,55.486436,146.861541,84.360313,139.103729,61.329523" />
<polygon fill="#261c0d" fill-opacity="0.501961" points="229.737625,133.416384,201.315795,179.963265,199.684312,158.657585,210.434379,126.525214" />
<polygon fill="#040706" fill-opacity="0.501961" points="149,99 134,129 135,74" />
<polygon fill="#1c1208" fill-opacity="0.501961" points="143,59 119,75 148,76" />
<polygon fill="#5a3517" fill-opacity="0.501961" points="102,46 114,49 103,50" />
<polygon fill="#120f06" fill-opacity="0.501961" points="109,96 100,85 103,78" />
<ellipse fill="#66c2f3" fill-opacity="0.501961" cx="82" cy="131" rx="34" ry="15" />
<g transform="translate(116 128) rotate(332) scale(2 29)"><rect fill="#6b5541" fill-opacity="0.501961" x="-0.5" y="-0.5" width="1" height="1" /></g>
<rect fill="#433020" fill-opacity="0.501961" x="200" y="123" width="6" height="25" />
<g transform="translate(111.420128 74.869845) rotate(99.464194) scale(10.930160 2.435394)"><ellipse fill="#855f47" fill-opacity="0.501961" cx="0" cy="0" rx="1" ry="1" /></g>
<polygon fill="#3b2a1a" fill-opacity="0.501961" points="150.209040,167.837083,146.791328,123.663018,135.598210,153.203476,155.655389,159.007212" />
<polygon fill="#595145" fill-opacity="0.501961" points="135,137 138,146 143,135" />
<rect fill="#3e1e0b" fill-opacity="0.501961" x="93" y="55" width="3" height="11" />
<polygon fill="#735c50" fill-opacity="0.501961" points="86.238130,65.541878,95.887849,50.804884,93.286857,65.180798,108.121771,76.295977" />
<path stroke="#6c95aa" stroke-opacity="0.501961" fill="none" d="M 90.161573 -16.000000 Q 119.380609 33.664348, 143.564148 78.537046" stroke-width="0.500000" />
<polygon fill="#351f0f" fill-opacity="0.501961" points="120.051955,165.942282,202.923065,185.000000,124.224597,185.000000,129.383967,154.473931" />
<polygon fill="#5a4e41" fill-opacity="0.501961" points="178.163882,145.021668,197.669132,154.383416,170.840879,147.828531,166.534453,185.000000" />
<g transform="translate(154.538421 70.412735) rotate(8.661422) scale(1.000000 10.019456)"><ellipse fill="#7d624b" fill-opacity="0.501961" cx="0" cy="0" rx="1" ry="1" /></g>
<g transform="translate(119 154) rotate(196) scale(1 13)"><rect fill="#351f13" fill-opacity="0.501961" x="-0.5" y="-0.5" width="1" height="1" /></g>
<rect fill="#bd7455" fill-opacity="0.501961" x="106" y="107" width="6" height="3" />
<polygon fill="#22190d" fill-opacity="0.501961" points="107,111 150,97 117,122" />
<polygon fill="#61bbee" fill-opacity="0.501961" points="140,44 159,62 201,57" />
<rect fill="#5cb5e9" fill-opacity="0.501961" x="163" y="54" width="59" height="28" />
<polygon fill="#70c0ed" fill-opacity="0.501961" points="135.138359,51.341494,119.624212,41.827163,5.247109,-16.000000,172.606196,19.832956" />
<ellipse fill="#0e0600" fill-opacity="0.501961" cx="110" cy="62" rx="3" ry="3" />
<polygon fill="#91887f" fill-opacity="0.501961" points="167.137202,144.419756,151.880698,153.796713,165.684161,185.000000,149.053526,179.723016" />
<g transform="translate(95.381035 101.271656) rotate(32.569006) scale(20.272165 1.000000)"><ellipse fill="#925e43" fill-opacity="0.501961" cx="0" cy="0" rx="1" ry="1" /></g>
<polygon fill="#080804" fill-opacity="0.501961" points="126,128 138,141 149,102" />
<polygon fill="#866c59" fill-opacity="0.501961" points="119.816947,131.980507,130.595981,167.783845,121.151465,160.146321,121.600409,147.187867" />
<polygon fill="#140800" fill-opacity="0.501961" points="137.242822,159.724236,160.665138,185.000000,122.292335,163.963610,127.413171,170.286949" />
<g transform="translate(66.217524 71.829086) rotate(271.115678) scale(10.420046 16.330078)"><ellipse fill="#73c5f3" fill-opacity="0.501961" cx="0" cy="0" rx="1" ry="1" /></g>
<polygon fill="#111009" fill-opacity="0.501961" points="145.548314,84.011142,172.391207,104.752635,172.967213,114.407883,156.538231,82.988017" />
<g transform="translate(86 80) rotate(-24) scale(1 10)"><rect fill="#d6afa0" fill-opacity="0.501961" x="-0.5" y="-0.5" width="1" height="1" /></g>
<polygon fill="#8b837a" fill-opacity="0.501961" points="133.333775,152.325642,110.500340,141.239194,137.236011,156.997821,126.178572,168.781443" />
<g transform="translate(195.039914 16.552750) rotate(171.155177) scale(16.932589 33.214731)"><ellipse fill="#6ab4e3" fill-opacity="0.501961" cx="0" cy="0" rx="1" ry="1" /></g>
<polygon fill="#88705d" fill-opacity="0.501961" points="104.468507,55.806758,84.469624,78.206763,104.711688,62.897722,121.442760,50.159036" />
<ellipse fill="#55ade1" fill-opacity="0.501961" cx="234" cy="74" rx="17" ry="51" />
<g transform="translate(113.465282 148.737659) rotate(-7.089975) scale(4.310118 12.263988)"><ellipse fill="#6abff2" fill-opacity="0.501961" cx="0" cy="0" rx="1" ry="1" /></g>
<polygon fill="#583721" fill-opacity="0.501961" points="116,83 129,72 126,83" />
<polygon fill="#231307" fill-opacity="0.501961" points="107.358497,87.712232,139.298609,121.356726,99.481985,94.928230,100.116535,110.700833" />
<polygon fill="#b99186" fill-opacity="0.501961" points="79.512765,99.216278,75.924419,91.410647,83.574336,74.205766,81.160952,86.450085" />
<polygon fill="#4fc3f8" fill-opacity="0.501961" points="-15,124 18,163 -3,64" />
<polygon fill="#503a25" fill-opacity="0.501961" points="89.317314,85.747587,89.513915,61.918665,85.336125,73.495908,103.431461,93.927518" />
<g transform="translate(102 113) rotate(67) scale(1 17)"><rect fill="#371b0a" fill-opacity="0.501961" x="-0.5" y="-0.5" width="1" height="1" /></g>
<g transform="translate(106 117) rotate(319) scale(4 7)"><rect fill="#70c9ff" fill-opacity="0.501961" x="-0.5" y="-0.5" width="1" height="1" /></g>
<polygon fill="#867a6e" fill-opacity="0.501961" points="134.217833,142.654363,143.913303,135.708008,135.100924,150.382241,123.292641,156.728959" />
<polygon fill="#140c02" fill-opacity="0.501961" points="177.911808,104.427557,186.077181,146.420270,195.327408,126.544948,154.619617,90.288423" />
<polygon fill="#6e492e" fill-opacity="0.501961" points="161,65 148,59 147,53" />
<polygon fill="#89786b" fill-opacity="0.501961" points="91.431365,56.031974,109.441363,46.390613,96.457425,48.595271,100.932392,58.488778" />
<g transform="translate(119 64) rotate(348) scale(14 1)"><rect fill="#978a7d" fill-opacity="0.501961" x="-0.5" y="-0.5" width="1" height="1" /></g>
<g transform="translate(194.747988 120.672212) rotate(135.988652) scale(4.207625 13.835910)"><ellipse fill="#27241b" fill-opacity="0.501961" cx="0" cy="0" rx="1" ry="1" /></g>
<g transform="translate(150.523509 58.998818) rotate(303.874437) scale(1.000000 16.150674)"><ellipse fill="#775944" fill-opacity="0.501961" cx="0" cy="0" rx="1" ry="1" /></g>
<polygon fill="#2c1a0c" fill-opacity="0.501961" points="126.580444,46.012232,153.649435,65.870929,135.722439,55.843791,128.252866,51.563648" />
<polygon fill="#ebc4b7" fill-opacity="0.501961" points="84,100 86,108 91,108" />
<polygon fill="#1db3e9" fill-opacity="0.501961" points="11.334259,170.339220,47.825939,171.249609,-16.000000,182.861311,-16.000000,129.085487" />
<polygon fill="#3c2312" fill-opacity="0.501961" points="112.934158,85.828914,94.927918,111.233621,109.996919,61.609577,100.875318,99.926564" />
<ellipse fill="#000000" fill-opacity="0.501961" cx="95" cy="60" rx="2" ry="2" />
<polygon fill="#473e32" fill-opacity="0.501961" points="191.150452,149.501974,182.256332,175.583258,181.073373,143.697467,162.161793,138.759328" />
<polygon fill="#362211" fill-opacity="0.501961" points="194.922565,132.019820,186.786063,140.055308,217.674562,145.516413,254.538162,149.535216" />
<g transform="translate(90 71) rotate(293) scale(18 2)"><rect fill="#957967" fill-opacity="0.501961" x="-0.5" y="-0.5" width="1" height="1" /></g>
<g transform="translate(64.500845 109.998932) rotate(35.649053) scale(32.887945 11.378951)"><ellipse fill="#6fc5f4" fill-opacity="0.501961" cx="0" cy="0" rx="1" ry="1" /></g>
<ellipse fill="#fbf3f8" fill-opacity="0.501961" cx="94" cy="103" rx="2" ry="2" />
<polygon fill="#bb9079" fill-opacity="0.501961" points="114,68 123,71 114,74" />
<g transform="translate(89 97) rotate(104) scale(17 1)"><rect fill="#693a29" fill-opacity="0.501961" x="-0.5" y="-0.5" width="1" height="1" /></g>
<polygon fill="#3d2815" fill-opacity="0.501961" points="163,70 155,81 158,64" />
<polygon fill="#70c2f0" fill-opacity="0.501961" points="98.096404,-2.587224,135.947979,46.884604,102.347458,46.872024,59.399166,67.406759" />
<ellipse fill="#070000" fill-opacity="0.501961" cx="84" cy="83" rx="2" ry="2" />
<ellipse fill="#1e0f02" fill-opacity="0.501961" cx="151" cy="64" rx="2" ry="6" />
<rect fill="#897362" fill-opacity="0.501961" x="143" y="81" width="2" height="10" />
<ellipse fill="#000000" fill-opacity="0.501961" cx="86" cy="71" rx="1" ry="4" />
<polygon fill="#6f6152" fill-opacity="0.501961" points="201.637126,142.993223,194.650677,167.117515,190.624881,156.761857,188.446691,151.390292" />
<ellipse fill="#5c4c3b" fill-opacity="0.501961" cx="172" cy="131" rx="4" ry="9" />
<g transform="translate(160 84) rotate(128) scale(1 13)"><rect fill="#59bbf2" fill-opacity="0.501961" x="-0.5" y="-0.5" width="1" height="1" /></g>
<polygon fill="#090805" fill-opacity="0.501961" points="135.299967,100.388239,145.742631,96.111973,137.844059,69.572238,132.351779,103.979648" />
<g transform="translate(111.956544 54.137681) rotate(191.045388) scale(4.378661 1.968604)"><ellipse fill="#a98d79" fill-opacity="0.501961" cx="0" cy="0" rx="1" ry="1" /></g>
<g transform="translate(105.899311 106.446237) rotate(364.845779) scale(2.581236 2.551741)"><ellipse fill="#bc7e66" fill-opacity="0.501961" cx="0" cy="0" rx="1" ry="1" /></g>
<g transform="translate(116.614971 123.048151) rotate(37.801065) scale(8.108566 2.670153)"><ellipse fill="#443828" fill-opacity="0.501961" cx="0" cy="0" rx="1" ry="1" /></g>
<path stroke="#332519" stroke-opacity="0.501961" fill="none" d="M 173.631449 182.194319 Q 143.646692 167.150280, 115.668033 157.988892" stroke-width="0.500000" />
<g transform="translate(148 137) rotate(305) scale(37 1)"><rect fill="#120a01" fill-opacity="0.501961" x="-0.5" y="-0.5" width="1" height="1" /></g>
<polygon fill="#281709" fill-opacity="0.501961" points="117.625936,75.988878,112.012300,97.166096,123.355990,70.748997,144.413135,70.171671" />
<polygon fill="#62c0f2" fill-opacity="0.501961" points="116.805079,130.324327,99.441311,115.697567,94.250852,185.000000,113.033802,153.787317" />
<g transform="translate(75.066751 169.000000) rotate(11.204992) scale(14.003306 21.684907)"><ellipse fill="#44baef" fill-opacity="0.501961" cx="0" cy="0" rx="1" ry="1" /></g>
<g transform="translate(28.705144 60.204909) rotate(159.394454) scale(22.806855 46.930527)"><ellipse fill="#72caf8" fill-opacity="0.501961" cx="0" cy="0" rx="1" ry="1" /></g>
<g transform="translate(88 64) rotate(228) scale(1 11)"><rect fill="#412716" fill-opacity="0.501961" x="-0.5" y="-0.5" width="1" height="1" /></g>
<polygon fill="#2a1d0f" fill-opacity="0.501961" points="250.357985,151.676123,271.000000,136.796778,234.508539,155.154349,260.202369,165.604921" />
<polygon fill="#2a2115" fill-opacity="0.501961" points="120.313996,129.710295,135.557494,71.167624,125.474755,139.274819,133.315190,154.352151" />
<polygon fill="#a28070" fill-opacity="0.501961" points="87.904436,93.116264,85.930372,77.969190,91.960353,90.771684,81.528082,65.814074" />
</g>
</svg>