<svg xmlns="http://www.w3.org/2000/svg" version="1.1" width="1024" height="680">
<rect x="0" y="0" width="1024" height="680" fill="#6d702d" />
<g transform="scale(4.000000) translate(0.5 0.5)">
<g transform="translate(129.593251 119.495046) rotate(37.339020) scale(55.894856 78.142751)"><ellipse fill="#2f0213" fill-opacity="0.501961" cx="0" cy="0" rx="1" ry="1" /></g>
<polygon fill="#a5bb50" fill-opacity="0.501961" points="-16,-16 271,-1 60,69" />
<g transform="translate(236.832155 69.340512) rotate(266.025295) scale(80.008958 43.803473)"><ellipse fill="#91b538" fill-opacity="0.501961" cx="0" cy="0" rx="1" ry="1" /></g>
<g transform="translate(127.241015 159.456423) rotate(-18.345347) scale(20.785776 34.658562)"><ellipse fill="#b27342" fill-opacity="0.501961" cx="0" cy="0" rx="1" ry="1" /></g>
<ellipse fill="#000000" fill-opacity="0.501961" cx="158" cy="133" rx="20" ry="19" />
<g transform="translate(174.938602 0.000000) rotate(181.043258) scale(50.141675 11.118434)"><ellipse fill="#e7cbaa" fill-opacity="0.501961" cx="0" cy="0" rx="1" ry="1" /></g>
<polygon fill="#07000a" fill-opacity="0.501961" points="48,131 73,104 45,84" />
<g transform="translate(146 71) rotate(299) scale(21 28)"><rect fill="#cc8a65" fill-opacity="0.501961" x="-0.5" y="-0.5" width="1" height="1" /></g>
<g transform="translate(0.000000 115.394817) rotate(-52.690458) scale(29.988575 47.221333)"><ellipse fill="#96b536" fill-opacity="0.501961" cx="0" cy="0" rx="1" ry="1" /></g>
<g transform="translate(100.625146 119.329334) rotate(217.066970) scale(18.074184 39.530191)"><ellipse fill="#1a0f09" fill-opacity="0.501961" cx="0" cy="0" rx="1" ry="1" /></g>
<ellipse fill="#638022" fill-opacity="0.501961" cx="49" cy="25" rx="178" ry="14" />
<polygon fill="#b0584a" fill-opacity="0.501961" points="62.402774,185.000000,48.813015,148.771318,53.915389,113.086709,74.227715,114.856382" />
<polygon fill="#050008" fill-opacity="0.501961" points="38.878430,147.458451,47.657653,177.311047,54.760938,185.000000,46.077168,128.384784" />
<ellipse fill="#c9b48b" fill-opacity="0.501961" cx="52" cy="0" rx="56" ry="7" />
<g transform="translate(95.696938 73.180318) rotate(306.936846) scale(29.562491 19.370136)"><ellipse fill="#7e8134" fill-opacity="0.501961" cx="0" cy="0" rx="1" ry="1" /></g>
<polygon fill="#ff8b57" fill-opacity="0.501961" points="178.222175,157.418323,181.827122,185.000000,159.100018,172.385965,132.347185,185.000000" />
<polygon fill="#77902a" fill-opacity="0.501961" points="271.000000,28.708552,254.753474,183.754023,172.799894,102.512623,184.061360,150.218796" />
<g transform="translate(129.588984 146.902497) rotate(120.069176) scale(6.438557 32.330698)"><ellipse fill="#b1774a" fill-opacity="0.501961" cx="0" cy="0" rx="1" ry="1" /></g>
<rect fill="#180900" fill-opacity="0.501961" x="119" y="163" width="42" height="7" />
<g transform="translate(32.524797 60.269244) rotate(76.292379) scale(20.402672 5.055417)"><ellipse fill="#3d1110" fill-opacity="0.501961" cx="0" cy="0" rx="1" ry="1" /></g>
<polygon fill="#010000" fill-opacity="0.501961" points="182,62 184,88 158,51" />
<g transform="translate(238 47) rotate(285) scale(26 18)"><rect fill="#c5c44c" fill-opacity="0.501961" x="-0.5" y="-0.5" width="1" height="1" /></g>
<polygon fill="#040000" fill-opacity="0.501961" points="172,162 143,143 172,94" />
<g transform="translate(83.839263 43.518729) rotate(-43.265575) scale(31.612677 22.357183)"><ellipse fill="#9da62e" fill-opacity="0.501961" cx="0" cy="0" rx="1" ry="1" /></g>
<g transform="translate(13 51) rotate(362) scale(26 32)"><rect fill="#7fac2a" fill-opacity="0.501961" x="-0.5" y="-0.5" width="1" height="1" /></g>
<g transform="translate(142 91) rotate(395) scale(19 31)"><rect fill="#735b50" fill-opacity="0.501961" x="-0.5" y="-0.5" width="1" height="1" /></g>
<rect fill="#040000" fill-opacity="0.501961" x="118" y="57" width="7" height="61" />
<polygon fill="#120c02" fill-opacity="0.501961" points="117.195644,110.698072,63.156766,185.000000,100.404498,162.995618,97.292144,110.287100" />
<polygon fill="#030100" fill-opacity="0.501961" points="175.393207,147.563270,125.713161,104.613218,124.305282,98.363502,131.008409,122.680828" />
<ellipse fill="#689128" fill-opacity="0.501961" cx="177" cy="42" rx="48" ry="9" />
<g transform="translate(152 105) rotate(322) scale(14 14)"><rect fill="#000007" fill-opacity="0.501961" x="-0.5" y="-0.5" width="1" height="1" /></g>
<polygon fill="#040000" fill-opacity="0.501961" points="50,122 64,100 47,89" />
<ellipse fill="#b5ae72" fill-opacity="0.501961" cx="217" cy="0" rx="114" ry="12" />
<ellipse fill="#aabd33" fill-opacity="0.501961" cx="226" cy="96" rx="24" ry="7" />
<ellipse fill="#996b6e" fill-opacity="0.501961" cx="41" cy="83" rx="9" ry="9" />
<polygon fill="#895e3a" fill-opacity="0.501961" points="97.375834,180.725051,112.866076,174.017918,140.427785,144.438042,125.751240,110.730906" />
<polygon fill="#0d0800" fill-opacity="0.501961" points="175.933856,81.262055,159.559741,73.707524,178.481738,104.718185,178.940285,60.022339" />
<rect fill="#271e00" fill-opacity="0.501961" x="181" y="163" width="20" height="7" />
<g transform="translate(73 120) rotate(54) scale(29 31)"><rect fill="#603f28" fill-opacity="0.501961" x="-0.5" y="-0.5" width="1" height="1" /></g>
<polygon fill="#aaaf2c" fill-opacity="0.501961" points="77.190649,51.186667,28.357855,35.821170,40.165933,58.063452,85.495975,58.404707" />
<polygon fill="#afbd46" fill-opacity="0.501961" points="39.314627,124.577409,14.343363,125.816241,39.329454,145.213191,45.099640,127.436629" />
<rect fill="#2d1d0b" fill-opacity="0.501961" x="133" y="71" width="10" height="16" />
<g transform="translate(204.618412 122.389167) rotate(312.127868) scale(27.933255 17.856610)"><ellipse fill="#688027" fill-opacity="0.501961" cx="0" cy="0" rx="1" ry="1" /></g>
<g transform="translate(58 153) rotate(260) scale(38 9)"><rect fill="#ce8152" fill-opacity="0.501961" x="-0.5" y="-0.5" width="1" height="1" /></g>
<polygon fill="#76614d" fill-opacity="0.501961" points="130.732640,68.400479,140.098540,114.154796,171.195060,110.240481,149.748729,121.960849" />
<polygon fill="#50711f" fill-opacity="0.501961" points="35,185 10,122 -3,185" />
<ellipse fill="#ebda61" fill-opacity="0.501961" cx="103" cy="40" rx="6" ry="6" />
<polygon fill="#0a0904" fill-opacity="0.501961" points="127.068261,142.389992,120.147188,102.574487,103.789709,116.963887,133.310152,137.108621" />
<polygon fill="#b47743" fill-opacity="0.501961" points="135.671077,164.852696,154.049712,163.869559,158.408410,158.981746,135.403927,135.929834" />
<polygon fill="#694d39" fill-opacity="0.501961" points="107.790066,111.316347,109.294712,83.648909,116.925512,31.063230,120.029384,104.641094" />
<polygon fill="#a86e43" fill-opacity="0.501961" points="123.414886,81.546481,166.198078,68.951079,137.360057,77.197300,128.292525,69.256726" />
<g transform="translate(26 91) rotate(239) scale(69 20)"><rect fill="#647f1f" fill-opacity="0.501961" x="-0.5" y="-0.5" width="1" height="1" /></g>
<polygon fill="#5b6c20" fill-opacity="0.501961" points="48.732273,57.886111,47.237705,87.015268,104.169546,89.658870,49.192068,54.371972" />
<g transform="translate(148.062343 70.497483) rotate(119.582252) scale(7.422891 9.584528)"><ellipse fill="#bc815b" fill-opacity="0.501961" cx="0" cy="0" rx="1" ry="1" /></g>
<ellipse fill="#decbac" fill-opacity="0.501961" cx="181" cy="0" rx="21" ry="7" />
<polygon fill="#070000" fill-opacity="0.501961" points="130,159 92,185 131,179" />
<rect fill="#5a741a" fill-opacity="0.501961" x="246" y="67" width="9" height="48" />
<polygon fill="#67472b" fill-opacity="0.501961" points="103.543819,118.464617,96.061898,144.256080,141.265867,156.718647,104.315940,135.234200" />
<polygon fill="#0d0001" fill-opacity="0.501961" points="43,144 46,175 54,169" />
<polygon fill="#231000" fill-opacity="0.501961" points="157.062491,169.273116,157.610571,168.525629,180.026293,154.470267,168.354022,126.812835" />
<polygon fill="#617e27" fill-opacity="0.501961" points="154,20 198,21 246,89" />
<polygon fill="#5c6f28" fill-opacity="0.501961" points="17,27 73,30 63,7" />
<polygon fill="#b0b740" fill-opacity="0.501961" points="168,52 159,43 144,45" />
<polygon fill="#b57741" fill-opacity="0.501961" points="109.685552,151.259344,129.016395,163.022408,104.012835,165.111424,121.173146,185.000000" />
<polygon fill="#beb171" fill-opacity="0.501961" points="83.225005,-16.000000,87.108149,9.913535,37.312838,-9.290090,34.171146,18.713597" />
<polygon fill="#576525" fill-opacity="0.501961" points="207.182843,185.000000,236.375858,144.891089,220.370058,136.939317,186.749510,143.676426" />
<g transform="translate(109 79) rotate(112) scale(17 11)"><rect fill="#97605f" fill-opacity="0.501961" x="-0.5" y="-0.5" width="1" height="1" /></g>
<polygon fill="#8e705c" fill-opacity="0.501961" points="159,113 159,94 165,95" />
<polygon fill="#c9c833" fill-opacity="0.501961" points="11,91 12,101 -14,102" />
<polygon fill="#a4964d" fill-opacity="0.501961" points="196.990666,77.124870,196.926248,96.999218,219.611989,88.689440,182.671299,87.507005" />
<polygon fill="#6b8d2c" fill-opacity="0.501961" points="23.670308,159.145938,-16.000000,150.991361,42.548736,143.548210,32.700891,173.727113" />
<polygon fill="#291c13" fill-opacity="0.501961" points="98.554255,88.666885,71.143351,135.550591,114.815547,91.696455,141.216245,103.105760" />
<polygon fill="#45240e" fill-opacity="0.501961" points="154,62 126,54 184,51" />
<polygon fill="#889940" fill-opacity="0.501961" points="198,5 228,46 247,9" />
<polygon fill="#070300" fill-opacity="0.501961" points="173,130 131,117 142,140" />
<polygon fill="#231300" fill-opacity="0.501961" points="38,64 29,35 26,50" />
<polygon fill="#6d8730" fill-opacity="0.501961" points="168.427093,50.375928,93.102037,14.899309,99.914510,-6.959091,153.511041,32.414361" />
<g transform="translate(168 169) rotate(234) scale(8 22)"><rect fill="#f6964e" fill-opacity="0.501961" x="-0.5" y="-0.5" width="1" height="1" /></g>
<polygon fill="#170a00" fill-opacity="0.501961" points="166.261743,69.113317,192.449141,78.601886,156.630980,53.125712,158.724213,62.515172" />
<g transform="translate(93 49) rotate(244) scale(47 10)"><rect fill="#768e29" fill-opacity="0.501961" x="-0.5" y="-0.5" width="1" height="1" /></g>
<g transform="translate(234.055511 169.000000) rotate(179.021583) scale(17.265712 9.043083)"><ellipse fill="#7c9a3d" fill-opacity="0.501961" cx="0" cy="0" rx="1" ry="1" /></g>
<ellipse fill="#d28544" fill-opacity="0.501961" cx="138" cy="156" rx="13" ry="4" />
<polygon fill="#151716" fill-opacity="0.501961" points="137,77 118,81 144,87" />
<polygon fill="#7f583a" fill-opacity="0.501961" points="151.286392,120.474190,140.251996,92.860257,122.395726,83.828965,127.569407,93.945557" />
<g transform="translate(242 146) rotate(295) scale(8 13)"><rect fill="#b4ac50" fill-opacity="0.501961" x="-0.5" y="-0.5" width="1" height="1" /></g>
<rect fill="#4c5a1b" fill-opacity="0.501961" x="202" y="103" width="10" height="12" />
<g transform="translate(241.976018 120.474635) rotate(47.662789) scale(4.213004 4.260453)"><ellipse fill="#c1ce2f" fill-opacity="0.501961" cx="0" cy="0" rx="1" ry="1" /></g>
<polygon fill="#788a32" fill-opacity="0.501961" points="225.004600,146.586110,170.287559,110.873235,185.139848,139.227061,215.194632,112.038035" />
<polygon fill="#12070c" fill-opacity="0.501961" points="65.670627,105.777822,40.980492,98.628577,40.393909,90.253949,69.067204,104.694136" />
<polygon fill="#7b6151" fill-opacity="0.501961" points="134.572782,88.271899,128.437694,93.484158,150.031268,86.400784,166.725639,102.716968" />
<polygon fill="#ae7f5e" fill-opacity="0.501961" points="118,143 118,129 108,130" />
<polygon fill="#aa6f44" fill-opacity="0.501961" points="166.101493,76.980334,167.199620,69.468016,172.489942,75.330578,172.612750,80.056838" />
<polygon fill="#874f35" fill-opacity="0.501961" points="84,183 58,140 69,181" />
<polygon fill="#728f2e" fill-opacity="0.501961" points="185.240699,70.287435,204.938685,75.739190,229.510091,40.437094,178.203142,47.193867" />
<polygon fill="#141311" fill-opacity="0.501961" points="189.217309,89.140049,161.577733,86.576534,158.539181,78.624078,154.975372,74.943379" />
<polygon fill="#050603" fill-opacity="0.501961" points="119.737942,113.019970,93.209487,111.477576,109.597363,129.223459,124.354606,118.354550" />
<rect fill="#66812c" fill-opacity="0.501961" x="0" y="9" width="31" height="29" />
<g transform="translate(128 135) rotate(146) scale(4 23)"><rect fill="#543415" fill-opacity="0.501961" x="-0.5" y="-0.5" width="1" height="1" /></g>
<polygon fill="#462a0d" fill-opacity="0.501961" points="93,119 65,149 82,169" />
<polygon fill="#57302d" fill-opacity="0.501961" points="99,96 92,79 109,65" />
<polygon fill="#405514" fill-opacity="0.501961" points="26,163 -12,156 34,185" />
<polygon fill="#584f27" fill-opacity="0.501961" points="47.283275,150.627712,44.412906,101.247550,25.944028,110.685084,56.883465,116.550981" />
<polygon fill="#302b21" fill-opacity="0.501961" points="194.284234,110.997656,184.721061,115.846458,184.931589,90.543011,196.437773,90.453302" />
<polygon fill="#80912b" fill-opacity="0.501961" points="152.766096,48.295558,69.091257,29.846484,147.761807,27.437439,92.601270,54.804476" />
<ellipse fill="#7d533a" fill-opacity="0.501961" cx="71" cy="114" rx="8" ry="8" />
<rect fill="#070d06" fill-opacity="0.501961" x="134" y="115" width="27" height="2" />
<rect fill="#a87b57" fill-opacity="0.501961" x="126" y="121" width="7" height="10" />
<polygon fill="#463426" fill-opacity="0.501961" points="136.821929,118.810244,129.100508,105.702107,152.219473,62.721891,138.049890,96.027477" />
<g transform="translate(24.976148 94.977436) rotate(58.793073) scale(12.624248 14.093032)"><ellipse fill="#7d912b" fill-opacity="0.501961" cx="0" cy="0" rx="1" ry="1" /></g>
<g transform="translate(238 99) rotate(311) scale(23 8)"><rect fill="#a9b63f" fill-opacity="0.501961" x="-0.5" y="-0.5" width="1" height="1" /></g>
<polygon fill="#abba39" fill-opacity="0.501961" points="195,112 210,88 203,84" />
<polygon fill="#140700" fill-opacity="0.501961" points="131,64 114,90 122,62" />
<polygon fill="#794529" fill-opacity="0.501961" points="127,47 135,65 115,52" />
<polygon fill="#8f7662" fill-opacity="0.501961" points="138,114 145,114 141,93" />
<polygon fill="#0f0a03" fill-opacity="0.501961" points="94,123 101,158 90,150" />
<g transform="translate(133 5) rotate(281) scale(5 124)"><rect fill="#a0a054" fill-opacity="0.501961" x="-0.5" y="-0.5" width="1" height="1" /></g>
<g transform="translate(72.855848 93.834247) rotate(351.666255) scale(14.897176 5.986404)"><ellipse fill="#757f2b" fill-opacity="0.501961" cx="0" cy="0" rx="1" ry="1" /></g>
<polygon fill="#584923" fill-opacity="0.501961" points="177.837790,60.122012,193.832339,55.839061,169.779172,55.182317,174.620327,69.638885" />
<polygon fill="#a67156" fill-opacity="0.501961" points="56.266060,157.666616,47.871478,156.485253,50.533831,126.322725,54.461667,131.306357" />
<polygon fill="#85992e" fill-opacity="0.501961" points="-16.000000,42.980924,27.094224,62.134474,26.331364,28.710407,36.802732,37.650684" />
<polygon fill="#c08155" fill-opacity="0.501961" points="138.921394,63.502001,130.334081,79.293221,125.756940,76.289564,144.910956,63.915627" />
<polygon fill="#836650" fill-opacity="0.501961" points="37.430358,96.163163,38.825342,89.844454,24.742554,59.022619,49.944604,89.978236" />
<polygon fill="#abb042" fill-opacity="0.501961" points="37.679918,133.270346,32.564044,114.115730,24.675839,120.065288,27.329768,142.656031" />
<polygon fill="#623f1c" fill-opacity="0.501961" points="187,172 178,126 176,151" />
<ellipse fill="#648221" fill-opacity="0.501961" cx="244" cy="84" rx="43" ry="4" />
<polygon fill="#b5ae49" fill-opacity="0.501961" points="60.483120,55.750770,74.363551,46.211425,72.094234,59.423659,59.203586,66.412395" />
<polygon fill="#758d2f" fill-opacity="0.501961" points="44.841440,70.644366,63.854111,56.029429,68.339802,52.039688,36.711853,55.606730" />
<polygon fill="#647d2c" fill-opacity="0.501961" points="146.937603,20.421622,183.235515,58.353794,218.709779,16.253789,187.341431,18.111028" />
<rect fill="#b3bc46" fill-opacity="0.501961" x="220" y="48" width="22" height="9" />
<polygon fill="#866244" fill-opacity="0.501961" points="102.604306,185.000000,125.176460,120.862206,100.935923,165.406335,54.234888,185.000000" />
<polygon fill="#8d5426" fill-opacity="0.501961" points="163,90 170,96 172,88" />
<polygon fill="#2b1400" fill-opacity="0.501961" points="113.998654,174.083724,125.860821,162.158539,130.914721,160.261314,138.919562,163.961142" />
<polygon fill="#516528" fill-opacity="0.501961" points="239.976422,153.431300,240.208569,162.668664,236.364823,165.768217,263.730126,160.441109" />
<polygon fill="#9da739" fill-opacity="0.501961" points="271,33 267,51 205,34" />
<rect fill="#ba784c" fill-opacity="0.501961" x="129" y="89" width="8" height="5" />
<polygon fill="#66472e" fill-opacity="0.501961" points="104,151 98,125 129,155" />
<rect fill="#8b9553" fill-opacity="0.501961" x="0" y="2" width="34" height="7" />
<polygon fill="#6a8d2f" fill-opacity="0.501961" points="271,-10 239,22 271,61" />
<polygon fill="#16130f" fill-opacity="0.501961" points="95.477744,117.777753,86.811085,97.517103,110.673027,100.884563,95.241001,108.638914" />
<g transform="translate(185 102) rotate(45) scale(17 1)"><rect fill="#7a645a" fill-opacity="0.501961" x="-0.5" y="-0.5" width="1" height="1" /></g>
<polygon fill="#718532" fill-opacity="0.501961" points="5,113 5,159 39,155" />
<polygon fill="#89a434" fill-opacity="0.501961" points="13.981115,112.869102,16.674692,87.782087,-10.673646,104.580605,-1.565973,54.467856" />
<polygon fill="#8da033" fill-opacity="0.501961" points="202.783123,50.049954,210.602962,92.852834,218.890656,64.725692,186.775244,59.280457" />
<polygon fill="#784f28" fill-opacity="0.501961" points="155,167 160,154 141,162" />
<polygon fill="#291d12" fill-opacity="0.501961" points="140,91 144,86 139,74" />
<polygon fill="#869727" fill-opacity="0.501961" points="44,26 90,51 22,35" />
<polygon fill="#8d9f36" fill-opacity="0.501961" points="225.841078,138.950817,259.905949,115.534679,206.942250,135.585098,211.573034,115.879977" />
<polygon fill="#8da434" fill-opacity="0.501961" points="225.866991,57.618932,252.341085,68.360707,238.500058,31.985566,250.314451,53.753731" />
<polygon fill="#a1a639" fill-opacity="0.501961" points="93.717549,16.439774,99.808068,18.547267,50.209840,54.673140,88.231685,15.953528" />
<g transform="translate(223.276827 68.285949) rotate(293.478291) scale(9.418157 5.949273)"><ellipse fill="#62791c" fill-opacity="0.501961" cx="0" cy="0" rx="1" ry="1" /></g>
<ellipse fill="#9c9f50" fill-opacity="0.501961" cx="71" cy="6" rx="29" ry="3" />
<polygon fill="#a4775b" fill-opacity="0.501961" points="144.888712,82.401050,164.500421,69.267309,139.973884,61.913002,160.809224,83.547033" />
<polygon fill="#657e22" fill-opacity="0.501961" points="237.045709,129.739146,193.928336,99.819542,211.889604,99.886880,236.112218,117.881136" />
<g transform="translate(53.927789 151.751783) rotate(158.948930) scale(3.185427 6.102772)"><ellipse fill="#d3915c" fill-opacity="0.501961" cx="0" cy="0" rx="1" ry="1" /></g>
<g transform="translate(56.459938 93.653257) rotate(223.610714) scale(13.129506 2.649562)"><ellipse fill="#3f3433" fill-opacity="0.501961" cx="0" cy="0" rx="1" ry="1" /></g>
<g transform="translate(178 93) rotate(216) scale(1 52)"><rect fill="#211a0b" fill-opacity="0.501961" x="-0.5" y="-0.5" width="1" height="1" /></g>
<rect fill="#906b53" fill-opacity="0.501961" x="190" y="72" width="7" height="13" />
<polygon fill="#66771a" fill-opacity="0.501961" points="248.667702,111.527197,268.204435,90.520826,263.565682,76.283867,229.775491,124.189929" />
<g transform="translate(144 95) rotate(226) scale(4 8)"><rect fill="#967967" fill-opacity="0.501961" x="-0.5" y="-0.5" width="1" height="1" /></g>
<g transform="translate(150 101) rotate(-57) scale(10 8)"><rect fill="#121513" fill-opacity="0.501961" x="-0.5" y="-0.5" width="1" height="1" /></g>
</g>
</svg>