<svg xmlns="http://www.w3.org/2000/svg" version="1.1" width="1024" height="680">
<rect x="0" y="0" width="1024" height="680" fill="#6d702d" />
<g transform="scale(4.000000) translate(0.5 0.5)">
<g transform="translate(132.805722 117.607087) rotate(214.964537) scale(54.356547 74.924915)"><ellipse fill="#2d0012" fill-opacity="0.501961" cx="0" cy="0" rx="1" ry="1" /></g>
<g transform="translate(164.930577 9.389633) rotate(177.853485) scale(255.000000 44.347751)"><ellipse fill="#99b347" fill-opacity="0.501961" cx="0" cy="0" rx="1" ry="1" /></g>
<ellipse fill="#8bad33" fill-opacity="0.501961" cx="240" cy="75" rx="47" ry="76" />
<ellipse fill="#e7cda5" fill-opacity="0.501961" cx="176" cy="0" rx="56" ry="12" />
<g transform="translate(126.216406 166.165465) rotate(262.969871) scale(41.228883 22.140161)"><ellipse fill="#b27443" fill-opacity="0.501961" cx="0" cy="0" rx="1" ry="1" /></g>
<polygon fill="#241511" fill-opacity="0.501961" points="198.848903,130.491103,47.067815,131.155954,43.894338,107.961303,45.947639,87.143166" />
<ellipse fill="#000000" fill-opacity="0.501961" cx="159" cy="133" rx="19" ry="19" />
<polygon fill="#d0906d" fill-opacity="0.501961" points="151.790107,89.031333,128.811914,58.528905,163.044189,64.739569,154.560311,85.861239" />
<g transform="translate(3.238897 115.234842) rotate(47.969408) scale(47.093353 30.919597)"><ellipse fill="#92b134" fill-opacity="0.501961" cx="0" cy="0" rx="1" ry="1" /></g>
<ellipse fill="#557220" fill-opacity="0.501961" cx="176" cy="37" rx="46" ry="19" />
<polygon fill="#a15845" fill-opacity="0.501961" points="57,184 46,133 90,83" />
<ellipse fill="#cab68a" fill-opacity="0.501961" cx="53" cy="0" rx="57" ry="8" />
<ellipse fill="#a3af2e" fill-opacity="0.501961" cx="75" cy="50" rx="39" ry="17" />
<polygon fill="#2c0102" fill-opacity="0.501961" points="42.066474,81.735130,23.472793,51.632494,28.967929,38.410953,33.980191,46.573878" />
<g transform="translate(84 153) rotate(334) scale(35 32)"><rect fill="#251003" fill-opacity="0.501961" x="-0.5" y="-0.5" width="1" height="1" /></g>
<polygon fill="#000007" fill-opacity="0.501961" points="40.610894,145.480207,43.521228,166.627301,56.475334,185.000000,46.316960,132.018708" />
<ellipse fill="#e39453" fill-opacity="0.501961" cx="143" cy="156" rx="12" ry="7" />
<rect fill="#5b7520" fill-opacity="0.501961" x="0" y="11" width="72" height="27" />
<g transform="translate(133.539872 169.000000) rotate(184.625976) scale(15.036736 6.556560)"><ellipse fill="#060000" fill-opacity="0.501961" cx="0" cy="0" rx="1" ry="1" /></g>
<g transform="translate(88.884875 80.843932) rotate(154.291599) scale(32.961211 16.084625)"><ellipse fill="#767934" fill-opacity="0.501961" cx="0" cy="0" rx="1" ry="1" /></g>
<polygon fill="#79a12d" fill-opacity="0.501961" points="221,137 172,105 182,137" />
<polygon fill="#ff8d58" fill-opacity="0.501961" points="155.969446,181.042543,142.181404,177.666682,177.741245,158.611847,184.184778,185.000000" />
<polygon fill="#000003" fill-opacity="0.501961" points="50.432041,114.619891,44.043293,94.762679,51.983091,87.685087,67.814584,106.379224" />
<polygon fill="#1f1106" fill-opacity="0.501961" points="179.868586,60.232800,152.445259,47.467266,173.632018,104.714663,185.962040,83.869446" />
<polygon fill="#916742" fill-opacity="0.501961" points="120.913812,124.580134,95.786107,135.609357,142.715275,153.512863,126.433213,108.115232" />
<g transform="translate(112 108) rotate(-23) scale(35 34)"><rect fill="#0f0e09" fill-opacity="0.501961" x="-0.5" y="-0.5" width="1" height="1" /></g>
<polygon fill="#8b6d5e" fill-opacity="0.501961" points="151.291140,90.000232,142.339697,114.287186,130.166775,92.750822,131.439701,86.753717" />
<polygon fill="#020000" fill-opacity="0.501961" points="170.653371,99.907605,173.574644,162.324168,138.607995,137.340938,160.360713,120.307882" />
<polygon fill="#bebf49" fill-opacity="0.501961" points="235.033082,32.576598,244.320403,34.086346,249.306718,64.730173,224.797298,55.885233" />
<ellipse fill="#adc134" fill-opacity="0.501961" cx="225" cy="95" rx="26" ry="7" />
<g transform="translate(57 158) rotate(337) scale(8 32)"><rect fill="#de8859" fill-opacity="0.501961" x="-0.5" y="-0.5" width="1" height="1" /></g>
<rect fill="#592c1b" fill-opacity="0.501961" x="113" y="49" width="44" height="12" />
<polygon fill="#070000" fill-opacity="0.501961" points="130.510775,60.660100,117.456136,64.022619,117.735056,80.343828,120.550258,88.824904" />
<polygon fill="#a26b44" fill-opacity="0.501961" points="139.131354,57.587748,163.378405,69.141097,181.997706,79.150669,124.390154,77.117903" />
<g transform="translate(237 4) rotate(268) scale(16 73)"><rect fill="#aaaa64" fill-opacity="0.501961" x="-0.5" y="-0.5" width="1" height="1" /></g>
<rect fill="#282402" fill-opacity="0.501961" x="182" y="162" width="19" height="8" />
<rect fill="#000006" fill-opacity="0.501961" x="145" y="96" width="11" height="15" />
<ellipse fill="#6d9423" fill-opacity="0.501961" cx="11" cy="60" rx="16" ry="29" />
<rect fill="#bac64d" fill-opacity="0.501961" x="25" y="125" width="16" height="17" />
<ellipse fill="#e7d75a" fill-opacity="0.501961" cx="103" cy="40" rx="7" ry="6" />
<rect fill="#a16e75" fill-opacity="0.501961" x="33" y="77" width="15" height="13" />
<polygon fill="#668529" fill-opacity="0.501961" points="93,7 113,38 177,18" />
<g transform="translate(178 0) rotate(183) scale(41 14)"><rect fill="#dbc8a7" fill-opacity="0.501961" x="-0.5" y="-0.5" width="1" height="1" /></g>
<polygon fill="#647622" fill-opacity="0.501961" points="208,97 173,130 236,119" />
<g transform="translate(19.596016 157.014626) rotate(367.132106) scale(19.714939 21.247243)"><ellipse fill="#587b26" fill-opacity="0.501961" cx="0" cy="0" rx="1" ry="1" /></g>
<polygon fill="#734f41" fill-opacity="0.501961" points="109,54 109,112 121,97" />
<ellipse fill="#6c8234" fill-opacity="0.501961" cx="238" cy="24" rx="59" ry="10" />
<polygon fill="#806c5b" fill-opacity="0.501961" points="139.251164,95.944310,157.877358,62.574212,137.602169,114.651676,154.000012,121.025876" />
<polygon fill="#ad713c" fill-opacity="0.501961" points="110.581662,154.669775,88.110964,185.000000,89.820771,185.000000,136.725470,154.401828" />
<polygon fill="#2c1300" fill-opacity="0.501961" points="178.294496,133.475334,173.803719,159.467692,127.445038,185.000000,157.123904,162.782629" />
<polygon fill="#090600" fill-opacity="0.501961" points="146,148 175,129 131,113" />
<polygon fill="#81a33d" fill-opacity="0.501961" points="260,168 231,154 206,185" />
<g transform="translate(31.320468 100.732683) rotate(57.305040) scale(26.694151 11.345734)"><ellipse fill="#667c1e" fill-opacity="0.501961" cx="0" cy="0" rx="1" ry="1" /></g>
<polygon fill="#ccb76e" fill-opacity="0.501961" points="35,-16 46,6 36,21" />
<polygon fill="#523319" fill-opacity="0.501961" points="62,127 95,115 72,170" />
<polygon fill="#6b5648" fill-opacity="0.501961" points="137,72 172,91 162,104" />
<polygon fill="#5a7617" fill-opacity="0.501961" points="246.517914,94.452957,239.409916,111.408843,271.000000,111.616195,248.513349,67.169432" />
<polygon fill="#b2b140" fill-opacity="0.501961" points="86.659374,62.096812,62.421917,37.203385,79.861751,28.312972,58.179938,62.612123" />
<polygon fill="#0f1009" fill-opacity="0.501961" points="159.902495,73.861207,170.079165,90.651759,181.580740,52.258501,183.758435,89.346309" />
<g transform="translate(138 7) rotate(99) scale(6 126)"><rect fill="#9c9f52" fill-opacity="0.501961" x="-0.5" y="-0.5" width="1" height="1" /></g>
<polygon fill="#0d0b04" fill-opacity="0.501961" points="98.371902,132.579573,98.650819,163.293318,94.523630,159.904486,86.975078,125.456183" />
<polygon fill="#22170c" fill-opacity="0.501961" points="131.165193,136.614922,99.015932,88.769135,108.564297,113.452749,134.255656,145.649485" />
<polygon fill="#9b8754" fill-opacity="0.501961" points="186.465581,86.255098,203.759954,91.610165,196.859385,69.114636,197.661272,72.033266" />
<ellipse fill="#5c6627" fill-opacity="0.501961" cx="205" cy="150" rx="30" ry="15" />
<polygon fill="#000000" fill-opacity="0.501961" points="116,126 127,96 103,119" />
<polygon fill="#bcc134" fill-opacity="0.501961" points="0.803111,94.417478,16.170274,94.360983,10.436777,105.097332,-16.000000,95.738009" />
<polygon fill="#809229" fill-opacity="0.501961" points="79,24 118,61 18,33" />
<polygon fill="#9b5d41" fill-opacity="0.501961" points="73.491601,141.564215,57.956044,161.306310,84.137801,179.669533,46.487247,129.803182" />
<polygon fill="#8e604c" fill-opacity="0.501961" points="103,89 115,47 119,75" />
<polygon fill="#16120c" fill-opacity="0.501961" points="139.856487,70.058592,133.103093,78.636199,111.654819,88.682321,139.954454,84.146171" />
<polygon fill="#996e48" fill-opacity="0.501961" points="124,124 142,146 126,109" />
<polygon fill="#a5ab3b" fill-opacity="0.501961" points="139.939855,45.619062,168.260499,53.270968,156.144577,41.356435,147.269582,47.304432" />
<g transform="translate(69.794102 80.861083) rotate(207.606368) scale(27.034854 15.149955)"><ellipse fill="#647623" fill-opacity="0.501961" cx="0" cy="0" rx="1" ry="1" /></g>
<polygon fill="#40550f" fill-opacity="0.501961" points="29.700728,178.545116,26.780404,160.151007,-3.743985,163.241176,23.775419,185.000000" />
<polygon fill="#170600" fill-opacity="0.501961" points="114.510006,170.555587,121.976737,169.823396,128.791320,185.000000,131.901923,158.393260" />
<g transform="translate(49 169) rotate(161) scale(5 46)"><rect fill="#090100" fill-opacity="0.501961" x="-0.5" y="-0.5" width="1" height="1" /></g>
<g transform="translate(28.442209 44.673001) rotate(95.957291) scale(6.758135 3.049715)"><ellipse fill="#292302" fill-opacity="0.501961" cx="0" cy="0" rx="1" ry="1" /></g>
<g transform="translate(130.090336 74.824551) rotate(131.857400) scale(10.107435 1.707260)"><ellipse fill="#be7b4a" fill-opacity="0.501961" cx="0" cy="0" rx="1" ry="1" /></g>
<ellipse fill="#a1a940" fill-opacity="0.501961" cx="229" cy="36" rx="25" ry="5" />
<polygon fill="#6a5641" fill-opacity="0.501961" points="165.179633,108.355824,158.616820,97.744631,167.657348,90.817776,147.418210,126.368276" />
<polygon fill="#708d2c" fill-opacity="0.501961" points="271,77 187,71 175,42" />
<rect fill="#bc7d53" fill-opacity="0.501961" x="52" y="127" width="8" height="32" />
<g transform="translate(241.901140 122.762561) rotate(393.304622) scale(4.271524 5.676041)"><ellipse fill="#b6c630" fill-opacity="0.501961" cx="0" cy="0" rx="1" ry="1" /></g>
<polygon fill="#351e11" fill-opacity="0.501961" points="145.287436,115.801515,166.065296,65.484279,132.684443,51.633491,177.270089,51.829413" />
<g transform="translate(147.140630 162.263685) rotate(342.109247) scale(12.747011 4.220970)"><ellipse fill="#8b5b2d" fill-opacity="0.501961" cx="0" cy="0" rx="1" ry="1" /></g>
<polygon fill="#8d9c42" fill-opacity="0.501961" points="222,23 266,8 191,6" />
<ellipse fill="#050000" fill-opacity="0.501961" cx="121" cy="73" rx="3" ry="18" />
<rect fill="#c4c162" fill-opacity="0.501961" x="238" y="141" width="6" height="9" />
<g transform="translate(27.984358 26.200240) rotate(346.962796) scale(57.885238 6.170819)"><ellipse fill="#627827" fill-opacity="0.501961" cx="0" cy="0" rx="1" ry="1" /></g>
<polygon fill="#be8056" fill-opacity="0.501961" points="145.390703,72.031843,168.440226,71.056977,151.888549,64.725171,131.712043,66.900187" />
<g transform="translate(108.769800 31.673061) rotate(120.709869) scale(8.971462 33.864453)"><ellipse fill="#8d9c2a" fill-opacity="0.501961" cx="0" cy="0" rx="1" ry="1" /></g>
<g transform="translate(94 98) rotate(160) scale(50 7)"><rect fill="#362f21" fill-opacity="0.501961" x="-0.5" y="-0.5" width="1" height="1" /></g>
<polygon fill="#b3b22c" fill-opacity="0.501961" points="30,34 69,53 37,49" />
<polygon fill="#9bad35" fill-opacity="0.501961" points="203.281894,84.371488,214.639484,63.614498,218.041222,75.733365,193.691104,115.264207" />
<polygon fill="#f1924f" fill-opacity="0.501961" points="161.148949,177.517842,162.393796,164.908594,178.519895,161.883762,173.378512,185.000000" />
<polygon fill="#748030" fill-opacity="0.501961" points="172.968533,97.264831,186.544854,122.841960,196.690299,108.928437,186.958073,162.327506" />
<polygon fill="#7d9637" fill-opacity="0.501961" points="19,121 27,165 53,185" />
<polygon fill="#201402" fill-opacity="0.501961" points="150.348246,181.104984,142.216011,163.571672,159.982423,170.857253,178.882748,124.170851" />
<polygon fill="#5d412a" fill-opacity="0.501961" points="110,141 100,121 104,170" />
<polygon fill="#545a1b" fill-opacity="0.501961" points="49.924471,120.182523,67.098466,127.308505,25.935562,110.662866,43.591533,92.559513" />
<ellipse fill="#c4b58a" fill-opacity="0.501961" cx="62" cy="0" rx="31" ry="3" />
<g transform="translate(142 153) rotate(326) scale(2 17)"><rect fill="#e39b63" fill-opacity="0.501961" x="-0.5" y="-0.5" width="1" height="1" /></g>
<polygon fill="#7f9131" fill-opacity="0.501961" points="100.454646,69.842516,70.270156,71.564292,109.798316,47.430928,148.163085,22.923337" />
<polygon fill="#1c1005" fill-opacity="0.501961" points="159.325716,50.075717,156.291616,60.189740,184.176530,84.952350,179.780862,72.791683" />
<g transform="translate(237.270494 99.930711) rotate(212.361697) scale(5.135902 13.950463)"><ellipse fill="#a3b439" fill-opacity="0.501961" cx="0" cy="0" rx="1" ry="1" /></g>
<polygon fill="#1c1912" fill-opacity="0.501961" points="165.733131,88.975890,158.751523,97.140064,160.060080,74.248992,179.381168,84.535803" />
<polygon fill="#1b0d0a" fill-opacity="0.501961" points="55,116 67,103 39,90" />
<rect fill="#839c2c" fill-opacity="0.501961" x="0" y="45" width="27" height="15" />
<g transform="translate(25 126) rotate(235) scale(6 20)"><rect fill="#afb540" fill-opacity="0.501961" x="-0.5" y="-0.5" width="1" height="1" /></g>
<polygon fill="#070d0c" fill-opacity="0.501961" points="158.338946,101.331893,153.813515,97.404210,146.592887,117.137606,159.317452,106.065004" />
<polygon fill="#603317" fill-opacity="0.501961" points="186.020308,155.165830,164.660796,158.467052,181.930197,145.058506,178.533847,185.000000" />
<g transform="translate(189 102) rotate(192) scale(11 23)"><rect fill="#2c2822" fill-opacity="0.501961" x="-0.5" y="-0.5" width="1" height="1" /></g>
<polygon fill="#5c6924" fill-opacity="0.501961" points="2.809893,72.040064,7.201253,69.008157,34.701652,69.556635,9.115111,90.057463" />
<polygon fill="#a97855" fill-opacity="0.501961" points="123,143 105,131 121,128" />
<polygon fill="#6c8627" fill-opacity="0.501961" points="221.039259,90.540186,194.979111,82.279153,233.417543,83.682895,211.300840,17.387616" />
<g transform="translate(230.479744 54.502690) rotate(265.060316) scale(4.594894 13.825220)"><ellipse fill="#acba43" fill-opacity="0.501961" cx="0" cy="0" rx="1" ry="1" /></g>
<polygon fill="#472f17" fill-opacity="0.501961" points="93.138083,133.513125,65.861998,156.661409,74.268036,124.278880,84.249610,106.091884" />
<polygon fill="#776457" fill-opacity="0.501961" points="158.689279,97.694404,141.510907,93.013214,161.710286,82.152387,142.239892,74.038624" />
<polygon fill="#a3643a" fill-opacity="0.501961" points="126,86 137,88 132,99" />
<polygon fill="#543d2a" fill-opacity="0.501961" points="74.104219,100.881109,48.950170,117.475984,40.995355,141.020596,48.150418,136.598206" />
<polygon fill="#190f00" fill-opacity="0.501961" points="118.647280,100.588692,150.539809,151.580362,165.388295,161.786092,171.212597,149.203899" />
<polygon fill="#99aa3f" fill-opacity="0.501961" points="203.758678,56.281967,199.121249,68.260462,191.030733,51.599539,198.184956,52.275052" />
<g transform="translate(28 94) rotate(69) scale(22 18)"><rect fill="#7a902a" fill-opacity="0.501961" x="-0.5" y="-0.5" width="1" height="1" /></g>
<rect fill="#546a1b" fill-opacity="0.501961" x="200" y="101" width="15" height="13" />
<polygon fill="#657529" fill-opacity="0.501961" points="57,56 72,102 42,60" />
<ellipse fill="#939a4e" fill-opacity="0.501961" cx="52" cy="7" rx="47" ry="3" />
<polygon fill="#462d26" fill-opacity="0.501961" points="93.685541,86.815116,96.756872,69.511569,96.337600,69.011310,108.948782,112.729393" />
<polygon fill="#252206" fill-opacity="0.501961" points="173,111 164,109 173,92" />
<polygon fill="#36281c" fill-opacity="0.501961" points="138.592186,70.745377,137.400260,115.415017,132.460800,99.217283,145.096650,90.093573" />
<g transform="translate(87.592600 21.751740) rotate(433.030629) scale(3.091632 9.339170)"><ellipse fill="#b3b23c" fill-opacity="0.501961" cx="0" cy="0" rx="1" ry="1" /></g>
<polygon fill="#5e7826" fill-opacity="0.501961" points="170,50 215,24 160,21" />
<polygon fill="#63871c" fill-opacity="0.501961" points="245,90 227,86 258,61" />
<polygon fill="#7a8030" fill-opacity="0.501961" points="94,93 54,88 70,101" />
<polygon fill="#beb87a" fill-opacity="0.501961" points="239.895757,13.115313,238.806367,-0.773922,164.121841,11.499025,259.430698,-16.000000" />
<g transform="translate(30 54) rotate(347) scale(5 20)"><rect fill="#2d1201" fill-opacity="0.501961" x="-0.5" y="-0.5" width="1" height="1" /></g>
<g transform="translate(66 57) rotate(218) scale(5 15)"><rect fill="#c2ba53" fill-opacity="0.501961" x="-0.5" y="-0.5" width="1" height="1" /></g>
<polygon fill="#96ad40" fill-opacity="0.501961" points="-10,99 12,154 -14,129" />
<g transform="translate(105 14) rotate(298) scale(16 22)"><rect fill="#667f2e" fill-opacity="0.501961" x="-0.5" y="-0.5" width="1" height="1" /></g>
<rect fill="#141507" fill-opacity="0.501961" x="143" y="115" width="29" height="2" />
<polygon fill="#625929" fill-opacity="0.501961" points="179.898189,58.278679,186.728056,74.031401,180.575349,41.674166,170.808268,68.722413" />
<ellipse fill="#5a463f" fill-opacity="0.501961" cx="48" cy="143" rx="2" ry="14" />
<polygon fill="#5c503a" fill-opacity="0.501961" points="182.703382,105.329225,180.694252,90.055169,196.967148,115.945916,190.069244,107.565594" />
<polygon fill="#3c240d" fill-opacity="0.501961" points="126.632614,79.138970,131.570488,115.602402,117.319496,75.159415,105.687688,102.267280" />
<polygon fill="#1c1807" fill-opacity="0.501961" points="163.166266,151.993983,173.223769,88.444359,188.631135,117.451956,172.731867,97.747355" />
<polygon fill="#4d4439" fill-opacity="0.501961" points="121,102 106,110 96,106" />
<g transform="translate(130 75) rotate(249) scale(7 7)"><rect fill="#c08455" fill-opacity="0.501961" x="-0.5" y="-0.5" width="1" height="1" /></g>
<rect fill="#704440" fill-opacity="0.501961" x="30" y="68" width="13" height="11" />
<polygon fill="#4b2706" fill-opacity="0.501961" points="134.317837,75.146454,143.318582,77.398204,137.167098,68.002660,129.015694,88.160008" />
<polygon fill="#697b2d" fill-opacity="0.501961" points="5,118 10,174 26,151" />
<polygon fill="#849a35" fill-opacity="0.501961" points="208,138 210,114 240,131" />
<polygon fill="#51493d" fill-opacity="0.501961" points="60,98 46,82 56,87" />
<g transform="translate(109 80) rotate(20) scale(11 19)"><rect fill="#875f53" fill-opacity="0.501961" x="-0.5" y="-0.5" width="1" height="1" /></g>
<polygon fill="#7c9126" fill-opacity="0.501961" points="103.641374,25.552966,92.901454,52.652995,75.155415,49.461308,85.913735,33.337337" />
<g transform="translate(211 169) rotate(299) scale(30 11)"><rect fill="#486622" fill-opacity="0.501961" x="-0.5" y="-0.5" width="1" height="1" /></g>
<ellipse fill="#b17d4f" fill-opacity="0.501961" cx="169" cy="75" rx="3" ry="3" />
<polygon fill="#a5ad41" fill-opacity="0.501961" points="214.929746,94.894766,194.285572,99.163459,199.997517,88.628988,194.698860,79.721039" />
<polygon fill="#766336" fill-opacity="0.501961" points="193,152 177,135 186,166" />
<polygon fill="#61402a" fill-opacity="0.501961" points="53,167 57,162 50,155" />
<rect fill="#57651e" fill-opacity="0.501961" x="68" y="75" width="26" height="13" />
<polygon fill="#020100" fill-opacity="0.501961" points="124,117 123,92 112,126" />
<polygon fill="#1e1500" fill-opacity="0.501961" points="85,161 99,183 58,179" />
<polygon fill="#546a1a" fill-opacity="0.501961" points="226,76 227,62 218,69" />
<polygon fill="#88a539" fill-opacity="0.501961" points="254.992724,62.777170,235.485309,75.115668,231.200501,72.043760,244.298265,51.745827" />
<polygon fill="#8d6e57" fill-opacity="0.501961" points="153,92 163,105 164,99" />
<polygon fill="#533019" fill-opacity="0.501961" points="147,49 131,51 161,65" />
<polygon fill="#030200" fill-opacity="0.501961" points="168,64 177,64 179,80" />
<polygon fill="#1e0f00" fill-opacity="0.501961" points="130,169 115,167 134,160" />
<polygon fill="#50261d" fill-opacity="0.501961" points="109,83 105,67 101,74" />
<polygon fill="#69492e" fill-opacity="0.501961" points="88,102 68,131 57,112" />
<ellipse fill="#ccbd9a" fill-opacity="0.501961" cx="180" cy="0" rx="40" ry="3" />
<polygon fill="#5d6b25" fill-opacity="0.501961" points="179.482549,127.752976,184.995188,117.269950,173.887912,99.359257,171.492683,114.191759" />
<g transform="translate(167 93) rotate(180) scale(11 8)"><rect fill="#72431a" fill-opacity="0.501961" x="-0.5" y="-0.5" width="1" height="1" /></g>
<rect fill="#725e4b" fill-opacity="0.501961" x="139" y="112" width="25" height="3" />
<ellipse fill="#6a421f" fill-opacity="0.501961" cx="124" cy="152" rx="12" ry="3" />
<polygon fill="#ac784d" fill-opacity="0.501961" points="118.652843,154.738204,108.802129,151.844924,123.533930,185.000000,104.953436,176.576677" />
<polygon fill="#865e38" fill-opacity="0.501961" points="128,54 127,61 118,43" />
<polygon fill="#718e2d" fill-opacity="0.501961" points="126,52 169,37 145,13" />
<polygon fill="#b85f32" fill-opacity="0.501961" points="178.064282,160.095327,158.609858,170.949340,177.558451,156.575845,189.699169,185.000000" />
<g transform="translate(142 101) rotate(120) scale(17 4)"><rect fill="#8d705a" fill-opacity="0.501961" x="-0.5" y="-0.5" width="1" height="1" /></g>
<polygon fill="#241200" fill-opacity="0.501961" points="163,71 162,85 158,75" />
</g>
</svg>