<svg xmlns="http://www.w3.org/2000/svg" version="1.1" width="1024" height="680">
<rect x="0" y="0" width="1024" height="680" fill="#86624b" />
<g transform="scale(4.000000) translate(0.5 0.5)">
<ellipse fill="#ffdfc1" fill-opacity="0.501961" cx="139" cy="107" rx="25" ry="86" />
<ellipse fill="#0b0105" fill-opacity="0.501961" cx="252" cy="129" rx="48" ry="68" />
<g transform="translate(64.365051 91.602391) rotate(122.204929) scale(24.661780 57.140094)"><ellipse fill="#2d1206" fill-opacity="0.501961" cx="0" cy="0" rx="1" ry="1" /></g>
<g transform="translate(92.048824 169.000000) rotate(127.024600) scale(20.245983 49.520454)"><ellipse fill="#bacfdd" fill-opacity="0.501961" cx="0" cy="0" rx="1" ry="1" /></g>
<g transform="translate(14.004123 27.665285) rotate(40.697379) scale(24.046002 66.207474)"><ellipse fill="#3e0c00" fill-opacity="0.501961" cx="0" cy="0" rx="1" ry="1" /></g>
<rect fill="#e49960" fill-opacity="0.501961" x="90" y="19" width="126" height="59" />
<ellipse fill="#512200" fill-opacity="0.501961" cx="28" cy="137" rx="28" ry="32" />
<polygon fill="#d9f5ff" fill-opacity="0.501961" points="121,97 131,185 153,152" />
<g transform="translate(120.632367 146.210150) rotate(180.765039) scale(13.263528 10.779969)"><ellipse fill="#000428" fill-opacity="0.501961" cx="0" cy="0" rx="1" ry="1" /></g>
<g transform="translate(147 92) rotate(282) scale(17 22)"><rect fill="#241c2d" fill-opacity="0.501961" x="-0.5" y="-0.5" width="1" height="1" /></g>
<polygon fill="#671800" fill-opacity="0.501961" points="175,47 141,22 172,77" />
<g transform="translate(3.701936 94.405189) rotate(15.577703) scale(13.432670 31.992624)"><ellipse fill="#95a3b6" fill-opacity="0.501961" cx="0" cy="0" rx="1" ry="1" /></g>
<g transform="translate(255.000000 10.712116) rotate(307.231649) scale(23.909965 116.572420)"><ellipse fill="#49240e" fill-opacity="0.501961" cx="0" cy="0" rx="1" ry="1" /></g>
<ellipse fill="#050e21" fill-opacity="0.501961" cx="189" cy="95" rx="6" ry="26" />
<polygon fill="#f8ffff" fill-opacity="0.501961" points="129.187467,115.292815,140.649654,136.730266,105.117237,134.614359,104.952770,132.945953" />
<g transform="translate(53.927196 31.929088) rotate(295.824822) scale(50.062780 17.326571)"><ellipse fill="#ab6d40" fill-opacity="0.501961" cx="0" cy="0" rx="1" ry="1" /></g>
<polygon fill="#45200c" fill-opacity="0.501961" points="103,160 107,83 49,69" />
<g transform="translate(130.600081 60.298011) rotate(7.994951) scale(31.514619 26.755702)"><ellipse fill="#ebac74" fill-opacity="0.501961" cx="0" cy="0" rx="1" ry="1" /></g>
<g transform="translate(66.521810 143.009933) rotate(188.004281) scale(15.749312 29.410412)"><ellipse fill="#96908e" fill-opacity="0.501961" cx="0" cy="0" rx="1" ry="1" /></g>
<g transform="translate(109.400440 169.000000) rotate(287.125269) scale(8.025552 29.903250)"><ellipse fill="#ddecfc" fill-opacity="0.501961" cx="0" cy="0" rx="1" ry="1" /></g>
<g transform="translate(165.365429 156.845865) rotate(106.679223) scale(46.476532 7.720421)"><ellipse fill="#da9d6a" fill-opacity="0.501961" cx="0" cy="0" rx="1" ry="1" /></g>
<g transform="translate(52.809575 95.887885) rotate(370.140969) scale(11.569721 35.390505)"><ellipse fill="#1d191f" fill-opacity="0.501961" cx="0" cy="0" rx="1" ry="1" /></g>
<g transform="translate(178.370967 28.368204) rotate(300.421615) scale(11.396286 55.811009)"><ellipse fill="#c29877" fill-opacity="0.501961" cx="0" cy="0" rx="1" ry="1" /></g>
<g transform="translate(0.000000 50.997664) rotate(301.136486) scale(61.536790 10.624720)"><ellipse fill="#3c1500" fill-opacity="0.501961" cx="0" cy="0" rx="1" ry="1" /></g>
<g transform="translate(75.016244 58.064737) rotate(279.096632) scale(23.316789 18.874878)"><ellipse fill="#8e4a20" fill-opacity="0.501961" cx="0" cy="0" rx="1" ry="1" /></g>
<rect fill="#a97858" fill-opacity="0.501961" x="55" y="13" width="104" height="23" />
<g transform="translate(125.061760 86.164599) rotate(136.388826) scale(23.576332 14.610907)"><ellipse fill="#c98256" fill-opacity="0.501961" cx="0" cy="0" rx="1" ry="1" /></g>
<polygon fill="#9a5124" fill-opacity="0.501961" points="160.030989,106.791172,170.599303,36.500612,166.347457,125.265193,151.703772,125.152120" />
<g transform="translate(152.063782 141.465751) rotate(15.860943) scale(6.546082 11.806342)"><ellipse fill="#d3dbef" fill-opacity="0.501961" cx="0" cy="0" rx="1" ry="1" /></g>
<g transform="translate(205.908959 119.044506) rotate(195.721059) scale(13.541867 30.058161)"><ellipse fill="#5f493e" fill-opacity="0.501961" cx="0" cy="0" rx="1" ry="1" /></g>
<ellipse fill="#773b08" fill-opacity="0.501961" cx="47" cy="8" rx="25" ry="13" />
<polygon fill="#e5f0ff" fill-opacity="0.501961" points="108.587332,181.241349,151.682964,175.489302,139.353286,142.830830,106.722680,185.000000" />
<g transform="translate(255.000000 145.109830) rotate(40.551205) scale(12.171487 29.360499)"><ellipse fill="#615558" fill-opacity="0.501961" cx="0" cy="0" rx="1" ry="1" /></g>
<polygon fill="#f8c896" fill-opacity="0.501961" points="136.038200,68.795932,164.776655,88.602356,160.520564,56.822766,147.067990,38.086478" />
<g transform="translate(245.290881 48.586320) rotate(133.733611) scale(17.145877 97.386629)"><ellipse fill="#775748" fill-opacity="0.501961" cx="0" cy="0" rx="1" ry="1" /></g>
<polygon fill="#e49f64" fill-opacity="0.501961" points="166,90 144,142 133,108" />
<g transform="translate(255.000000 110.374338) rotate(176.249625) scale(8.701343 20.043755)"><ellipse fill="#100000" fill-opacity="0.501961" cx="0" cy="0" rx="1" ry="1" /></g>
<ellipse fill="#5b2900" fill-opacity="0.501961" cx="15" cy="144" rx="20" ry="14" />
<polygon fill="#661e00" fill-opacity="0.501961" points="74,55 96,28 72,37" />
<polygon fill="#cd9d76" fill-opacity="0.501961" points="219.119336,39.003723,197.675399,85.606043,219.886833,93.455681,187.849961,31.563495" />
<polygon fill="#723a15" fill-opacity="0.501961" points="81.188278,131.524311,118.430277,116.645236,117.745706,99.531803,72.998379,103.700680" />
<ellipse fill="#cb946c" fill-opacity="0.501961" cx="60" cy="31" rx="23" ry="7" />
<g transform="translate(166 52) rotate(77) scale(18 10)"><rect fill="#3b0000" fill-opacity="0.501961" x="-0.5" y="-0.5" width="1" height="1" /></g>
<rect fill="#3b3f45" fill-opacity="0.501961" x="104" y="137" width="19" height="25" />
<g transform="translate(222.813069 157.394040) rotate(257.479657) scale(20.368771 8.314600)"><ellipse fill="#2f0f00" fill-opacity="0.501961" cx="0" cy="0" rx="1" ry="1" /></g>
<g transform="translate(137.230475 3.459649) rotate(163.826586) scale(45.836594 22.925391)"><ellipse fill="#8d6a58" fill-opacity="0.501961" cx="0" cy="0" rx="1" ry="1" /></g>
<g transform="translate(105.817366 51.821290) rotate(162.824554) scale(9.335223 27.721952)"><ellipse fill="#e0a574" fill-opacity="0.501961" cx="0" cy="0" rx="1" ry="1" /></g>
<polygon fill="#85624a" fill-opacity="0.501961" points="45.757326,157.074280,31.907432,80.454865,10.309820,109.591661,56.898441,156.710622" />
<polygon fill="#906351" fill-opacity="0.501961" points="157.684875,160.525533,178.814701,68.151995,203.202566,72.108576,164.390577,84.323889" />
<polygon fill="#b3724a" fill-opacity="0.501961" points="80,52 65,51 72,92" />
<g transform="translate(8.333728 169.000000) rotate(37.206669) scale(13.447343 8.784299)"><ellipse fill="#7d8a94" fill-opacity="0.501961" cx="0" cy="0" rx="1" ry="1" /></g>
<polygon fill="#e1efff" fill-opacity="0.501961" points="124.516629,110.439815,142.688841,153.628847,136.949684,132.209080,107.740710,138.874095" />
<rect fill="#111420" fill-opacity="0.501961" x="84" y="81" width="21" height="15" />
<ellipse fill="#52586b" fill-opacity="0.501961" cx="124" cy="142" rx="11" ry="9" />
<polygon fill="#9b918b" fill-opacity="0.501961" points="92,138 67,117 42,185" />
<polygon fill="#b07350" fill-opacity="0.501961" points="122.338711,77.740708,148.104540,77.968449,127.350888,109.571384,146.200224,133.178034" />
<ellipse fill="#3a231d" fill-opacity="0.501961" cx="236" cy="104" rx="13" ry="45" />
<polygon fill="#b86530" fill-opacity="0.501961" points="189,37 172,36 168,90" />
<polygon fill="#4e2c15" fill-opacity="0.501961" points="49.573995,39.125364,17.423808,43.613018,22.415033,76.757303,36.847468,36.811464" />
<g transform="translate(171 27) rotate(253) scale(17 27)"><rect fill="#d2a880" fill-opacity="0.501961" x="-0.5" y="-0.5" width="1" height="1" /></g>
<polygon fill="#dbb48f" fill-opacity="0.501961" points="158.025078,157.426773,168.881236,143.658072,161.824320,185.000000,137.303474,169.380964" />
<polygon fill="#6a5349" fill-opacity="0.501961" points="213.848020,100.880615,212.852226,69.085412,271.000000,41.508702,232.129510,72.235071" />
<rect fill="#551c00" fill-opacity="0.501961" x="75" y="62" width="9" height="40" />
<g transform="translate(99.460345 124.799093) rotate(186.471605) scale(3.094852 25.780620)"><ellipse fill="#3e1400" fill-opacity="0.501961" cx="0" cy="0" rx="1" ry="1" /></g>
<polygon fill="#8b878d" fill-opacity="0.501961" points="135.437577,162.753446,115.097262,155.280542,99.586279,143.802022,112.375012,164.554153" />
<g transform="translate(193.269184 18.979365) rotate(306.098581) scale(8.779065 44.588486)"><ellipse fill="#98725a" fill-opacity="0.501961" cx="0" cy="0" rx="1" ry="1" /></g>
<g transform="translate(253.353604 65.154875) rotate(263.690887) scale(19.913815 13.352170)"><ellipse fill="#524f61" fill-opacity="0.501961" cx="0" cy="0" rx="1" ry="1" /></g>
<rect fill="#0e0300" fill-opacity="0.501961" x="43" y="89" width="7" height="27" />
<polygon fill="#4e4040" fill-opacity="0.501961" points="184,71 175,115 213,124" />
<polygon fill="#9d755a" fill-opacity="0.501961" points="181,117 161,185 203,185" />
<g transform="translate(209.589611 161.424670) rotate(343.506408) scale(6.930845 27.204022)"><ellipse fill="#694220" fill-opacity="0.501961" cx="0" cy="0" rx="1" ry="1" /></g>
<rect fill="#752b00" fill-opacity="0.501961" x="164" y="54" width="4" height="33" />
<polygon fill="#c5c4c3" fill-opacity="0.501961" points="107.707309,160.856136,81.651203,144.799775,86.470823,185.000000,136.923530,185.000000" />
<rect fill="#dfa376" fill-opacity="0.501961" x="109" y="45" width="16" height="54" />
<polygon fill="#1a1412" fill-opacity="0.501961" points="103.986130,137.878897,115.784331,155.957217,119.643250,153.351915,112.304415,136.728295" />
<g transform="translate(144 143) rotate(369) scale(5 20)"><rect fill="#ad8d7c" fill-opacity="0.501961" x="-0.5" y="-0.5" width="1" height="1" /></g>
<polygon fill="#c4855b" fill-opacity="0.501961" points="113.922365,25.907934,146.296134,136.491808,135.396863,122.812378,130.575632,25.091862" />
<polygon fill="#fcfafe" fill-opacity="0.501961" points="117.249142,128.442585,121.689413,127.392090,127.613322,105.834189,142.418283,145.258503" />
<polygon fill="#756863" fill-opacity="0.501961" points="16,99 35,100 12,58" />
<polygon fill="#46424d" fill-opacity="0.501961" points="144,82 141,101 163,87" />
<polygon fill="#cfb4b8" fill-opacity="0.501961" points="135,121 121,106 121,79" />
<polygon fill="#a2704a" fill-opacity="0.501961" points="33,27 18,40 56,27" />
<ellipse fill="#ac734b" fill-opacity="0.501961" cx="86" cy="77" rx="6" ry="6" />
<polygon fill="#b6805b" fill-opacity="0.501961" points="62.256459,48.632292,96.328999,15.927415,71.424649,16.839936,46.630895,51.714174" />
<polygon fill="#fcc889" fill-opacity="0.501961" points="142,113 162,101 148,128" />
<g transform="translate(5 3) rotate(34) scale(18 52)"><rect fill="#7a5b39" fill-opacity="0.501961" x="-0.5" y="-0.5" width="1" height="1" /></g>
<g transform="translate(255.000000 4.352093) rotate(204.949076) scale(49.720712 8.081701)"><ellipse fill="#43230d" fill-opacity="0.501961" cx="0" cy="0" rx="1" ry="1" /></g>
<polygon fill="#98908f" fill-opacity="0.501961" points="-9,145 8,65 20,98" />
<polygon fill="#26242b" fill-opacity="0.501961" points="50.400331,107.063453,63.956516,81.184657,64.051230,56.066366,43.257269,81.733450" />
<g transform="translate(170.950430 85.684230) rotate(102.898701) scale(19.641872 2.372037)"><ellipse fill="#b9876d" fill-opacity="0.501961" cx="0" cy="0" rx="1" ry="1" /></g>
<polygon fill="#efc49e" fill-opacity="0.501961" points="158.580384,88.858803,147.301108,69.479825,159.916923,51.507754,162.493078,62.283513" />
<rect fill="#877268" fill-opacity="0.501961" x="102" y="127" width="4" height="27" />
<polygon fill="#431e00" fill-opacity="0.501961" points="30,4 -16,42 -16,112" />
<polygon fill="#523e38" fill-opacity="0.501961" points="65.844604,62.333998,44.785202,137.180542,50.459516,134.049798,74.914333,99.394850" />
<polygon fill="#87797c" fill-opacity="0.501961" points="153.120926,99.183844,133.300353,95.623230,147.076439,109.876643,148.251761,83.061307" />
<g transform="translate(131.790984 168.089162) rotate(165.697062) scale(21.334201 6.883875)"><ellipse fill="#dce3ea" fill-opacity="0.501961" cx="0" cy="0" rx="1" ry="1" /></g>
<rect fill="#7c5a48" fill-opacity="0.501961" x="29" y="46" width="19" height="34" />
<polygon fill="#5a4132" fill-opacity="0.501961" points="94.257334,153.589399,106.201413,155.289343,118.621896,160.760070,114.906222,161.911771" />
<polygon fill="#4a280f" fill-opacity="0.501961" points="30.706917,95.570553,31.424349,92.335617,37.470031,94.187923,39.352461,57.862536" />
<polygon fill="#814520" fill-opacity="0.501961" points="106.055955,102.712132,98.189270,71.992983,114.717779,83.999451,108.679126,81.237688" />
<polygon fill="#8e655b" fill-opacity="0.501961" points="106.525739,150.029796,121.909079,107.009699,107.017258,90.498507,113.823890,128.105415" />
<rect fill="#7f625b" fill-opacity="0.501961" x="175" y="65" width="8" height="56" />
<polygon fill="#dbe4ef" fill-opacity="0.501961" points="137,160 152,146 158,125" />
<polygon fill="#c08256" fill-opacity="0.501961" points="164.417232,164.922549,154.669293,147.208075,165.599346,122.413253,180.022467,118.824572" />
<polygon fill="#977057" fill-opacity="0.501961" points="117,10 150,40 152,-16" />
<rect fill="#8499b6" fill-opacity="0.501961" x="107" y="133" width="16" height="5" />
<polygon fill="#422106" fill-opacity="0.501961" points="89,133 98,121 98,151" />
<polygon fill="#92827c" fill-opacity="0.501961" points="75,165 78,121 57,110" />
<polygon fill="#724321" fill-opacity="0.501961" points="82,89 89,135 99,97" />
<g transform="translate(165 92) rotate(281) scale(56 1)"><rect fill="#804421" fill-opacity="0.501961" x="-0.5" y="-0.5" width="1" height="1" /></g>
<polygon fill="#2a211f" fill-opacity="0.501961" points="132.686471,147.335651,106.509462,145.334376,105.888675,144.851107,113.798943,154.704980" />
<polygon fill="#2c201e" fill-opacity="0.501961" points="182.988882,113.562616,193.979812,113.789732,196.502281,115.912941,188.505084,94.429975" />
<g transform="translate(195 74) rotate(168) scale(6 18)"><rect fill="#91502d" fill-opacity="0.501961" x="-0.5" y="-0.5" width="1" height="1" /></g>
<polygon fill="#b47a53" fill-opacity="0.501961" points="71.367094,70.186233,93.192705,37.418821,92.162675,35.201990,64.872423,69.226109" />
<g transform="translate(12.419346 63.570199) rotate(334.521378) scale(19.215530 3.238148)"><ellipse fill="#63524d" fill-opacity="0.501961" cx="0" cy="0" rx="1" ry="1" /></g>
<polygon fill="#713e14" fill-opacity="0.501961" points="41.538805,156.187452,51.054732,164.073129,28.045633,176.927118,11.845855,151.938417" />
<polygon fill="#ffffff" fill-opacity="0.501961" points="141,136 135,136 136,155" />
<rect fill="#6f707e" fill-opacity="0.501961" x="118" y="140" width="17" height="8" />
<g transform="translate(154 87) rotate(290) scale(1 14)"><rect fill="#1c0600" fill-opacity="0.501961" x="-0.5" y="-0.5" width="1" height="1" /></g>
<polygon fill="#b18264" fill-opacity="0.501961" points="213,44 193,86 222,66" />
<polygon fill="#895634" fill-opacity="0.501961" points="57.020249,35.144268,36.932327,43.327651,58.995911,53.012163,9.899540,35.979228" />
<polygon fill="#460a00" fill-opacity="0.501961" points="165,56 171,49 158,39" />
<g transform="translate(202.030626 40.409571) rotate(294.849754) scale(5.656165 24.424307)"><ellipse fill="#d1a075" fill-opacity="0.501961" cx="0" cy="0" rx="1" ry="1" /></g>
<rect fill="#060003" fill-opacity="0.501961" x="78" y="82" width="20" height="5" />
<rect fill="#160000" fill-opacity="0.501961" x="75" y="43" width="5" height="4" />
<polygon fill="#9f663e" fill-opacity="0.501961" points="93.329893,11.383225,66.529110,27.613169,49.768813,18.953708,82.181051,2.238745" />
<polygon fill="#7d583f" fill-opacity="0.501961" points="-16.000000,146.444432,20.993494,97.584163,35.538395,124.696094,39.801850,90.725901" />
<polygon fill="#391600" fill-opacity="0.501961" points="23,44 22,56 34,41" />
<polygon fill="#895b3a" fill-opacity="0.501961" points="224,56 207,6 255,36" />
<polygon fill="#bc845b" fill-opacity="0.501961" points="89.206996,54.720803,90.266445,38.104949,105.351783,46.838807,98.253924,70.060118" />
<polygon fill="#edba82" fill-opacity="0.501961" points="157.719826,52.143860,131.559466,71.960593,130.419414,80.800059,163.300581,56.022314" />
<polygon fill="#c87838" fill-opacity="0.501961" points="155.919209,40.193789,155.217609,50.905596,148.494018,43.661182,146.003300,27.055586" />
<polygon fill="#d78f52" fill-opacity="0.501961" points="131.393641,52.572083,106.723012,78.097198,111.167134,91.288792,135.189988,49.439279" />
<polygon fill="#9b9188" fill-opacity="0.501961" points="44,185 66,123 93,143" />
<polygon fill="#512b11" fill-opacity="0.501961" points="35.617394,77.459298,42.694713,140.955601,50.715939,136.381883,39.795545,80.978372" />
<polygon fill="#b99788" fill-opacity="0.501961" points="164.187085,117.973931,156.412768,161.892218,144.891790,158.555928,151.983627,153.089643" />
<ellipse fill="#b3d0f1" fill-opacity="0.501961" cx="123" cy="158" rx="4" ry="2" />
<polygon fill="#44230f" fill-opacity="0.501961" points="237,59 221,101 230,128" />
<rect fill="#c77a43" fill-opacity="0.501961" x="180" y="39" width="19" height="23" />
<polygon fill="#e7e9ea" fill-opacity="0.501961" points="151.042469,147.514404,149.040443,142.748650,154.278352,130.701746,146.875077,134.659219" />
<g transform="translate(137 80) rotate(148) scale(23 3)"><rect fill="#b06e3f" fill-opacity="0.501961" x="-0.5" y="-0.5" width="1" height="1" /></g>
<polygon fill="#7d5540" fill-opacity="0.501961" points="170.853254,124.245573,159.019971,109.471905,205.850455,127.674117,181.429896,109.767426" />
<polygon fill="#82736d" fill-opacity="0.501961" points="59.118378,114.606332,65.628802,138.751621,36.453968,154.389191,54.241219,154.545921" />
<polygon fill="#ab6c47" fill-opacity="0.501961" points="128.154338,89.618811,131.197998,51.171854,124.265099,82.506878,145.828674,105.309134" />
<polygon fill="#9d4f1c" fill-opacity="0.501961" points="176.813564,45.966839,176.513843,64.651857,163.537497,84.127209,167.741071,50.817395" />
<polygon fill="#974f1c" fill-opacity="0.501961" points="88.248429,22.344160,84.708850,39.396839,87.816442,40.170215,95.913996,33.241846" />
<ellipse fill="#060000" fill-opacity="0.501961" cx="255" cy="106" rx="5" ry="12" />
<g transform="translate(51 75) rotate(99) scale(18 6)"><rect fill="#0e131a" fill-opacity="0.501961" x="-0.5" y="-0.5" width="1" height="1" /></g>
<g transform="translate(164 64) rotate(77) scale(21 1)"><rect fill="#4c260d" fill-opacity="0.501961" x="-0.5" y="-0.5" width="1" height="1" /></g>
<polygon fill="#72370d" fill-opacity="0.501961" points="73,83 82,57 89,68" />
<polygon fill="#7f553c" fill-opacity="0.501961" points="41.229460,65.665806,89.487000,28.977958,75.429552,33.170080,58.037597,67.435699" />
<g transform="translate(45 66) rotate(108) scale(20 5)"><rect fill="#a06f52" fill-opacity="0.501961" x="-0.5" y="-0.5" width="1" height="1" /></g>
<g transform="translate(125 72) rotate(6) scale(3 11)"><rect fill="#ddc5bd" fill-opacity="0.501961" x="-0.5" y="-0.5" width="1" height="1" /></g>
<polygon fill="#bf8a6f" fill-opacity="0.501961" points="137.407993,97.594697,142.731009,111.858948,145.126578,141.410326,123.639860,96.150649" />
<polygon fill="#e3af7d" fill-opacity="0.501961" points="164.130780,102.671479,160.010070,95.650259,143.303242,107.152238,145.023005,138.505137" />
<polygon fill="#d7c5c3" fill-opacity="0.501961" points="122.266547,75.641518,120.954538,104.314681,121.625276,135.295119,124.151423,77.118651" />
<g transform="translate(29.340876 127.746122) rotate(52.374198) scale(22.189800 8.531521)"><ellipse fill="#7b4a27" fill-opacity="0.501961" cx="0" cy="0" rx="1" ry="1" /></g>
<polygon fill="#be8a62" fill-opacity="0.501961" points="48,42 93,24 80,17" />
<rect fill="#582700" fill-opacity="0.501961" x="20" y="0" width="10" height="33" />
<rect fill="#130e0d" fill-opacity="0.501961" x="106" y="138" width="6" height="9" />
</g>
</svg>