<svg xmlns="http://www.w3.org/2000/svg" version="1.1" width="1024" height="680">
<rect x="0" y="0" width="1024" height="680" fill="#86624b" />
<g transform="scale(4.000000) translate(0.5 0.5)">
<g transform="translate(138 98) rotate(350) scale(54 145)"><rect fill="#ffd4af" fill-opacity="0.501961" x="-0.5" y="-0.5" width="1" height="1" /></g>
<g transform="translate(252.831816 118.931062) rotate(113.825484) scale(64.349927 48.431673)"><ellipse fill="#0e0407" fill-opacity="0.501961" cx="0" cy="0" rx="1" ry="1" /></g>
<g transform="translate(57.986157 83.824852) rotate(304.893176) scale(28.917560 67.190382)"><ellipse fill="#3b1c0e" fill-opacity="0.501961" cx="0" cy="0" rx="1" ry="1" /></g>
<polygon fill="#c1d9e9" fill-opacity="0.501961" points="57,138 166,168 48,181" />
<g transform="translate(0.000000 38.295485) rotate(43.951378) scale(21.597111 131.296998)"><ellipse fill="#410d00" fill-opacity="0.501961" cx="0" cy="0" rx="1" ry="1" /></g>
<g transform="translate(188.903749 40.516582) rotate(39.865836) scale(41.527906 18.066491)"><ellipse fill="#eca973" fill-opacity="0.501961" cx="0" cy="0" rx="1" ry="1" /></g>
<polygon fill="#441b00" fill-opacity="0.501961" points="67,82 -9,135 35,185" />
<polygon fill="#d0edff" fill-opacity="0.501961" points="124,99 164,185 112,130" />
<g transform="translate(113.295720 146.756169) rotate(177.738529) scale(20.453122 12.930345)"><ellipse fill="#1c2334" fill-opacity="0.501961" cx="0" cy="0" rx="1" ry="1" /></g>
<polygon fill="#9aa6b6" fill-opacity="0.501961" points="-16,140 29,89 6,61" />
<polygon fill="#654b41" fill-opacity="0.501961" points="231,92 118,80 204,146" />
<g transform="translate(90.631120 45.926746) rotate(101.049233) scale(31.934540 57.016726)"><ellipse fill="#ca814c" fill-opacity="0.501961" cx="0" cy="0" rx="1" ry="1" /></g>
<g transform="translate(249.596466 15.056583) rotate(127.706608) scale(17.652247 91.617785)"><ellipse fill="#49240f" fill-opacity="0.501961" cx="0" cy="0" rx="1" ry="1" /></g>
<g transform="translate(72.453005 151.322463) rotate(79.689402) scale(38.135021 17.170583)"><ellipse fill="#9f9b99" fill-opacity="0.501961" cx="0" cy="0" rx="1" ry="1" /></g>
<polygon fill="#572b13" fill-opacity="0.501961" points="87,28 43,64 107,159" />
<g transform="translate(170.350313 119.139577) rotate(182.720830) scale(9.329359 86.378527)"><ellipse fill="#a7663e" fill-opacity="0.501961" cx="0" cy="0" rx="1" ry="1" /></g>
<polygon fill="#ddecfe" fill-opacity="0.501961" points="139,185 162,125 111,170" />
<ellipse fill="#f4b377" fill-opacity="0.501961" cx="131" cy="64" rx="33" ry="22" />
<polygon fill="#feffff" fill-opacity="0.501961" points="132,112 103,138 134,131" />
<polygon fill="#7f2500" fill-opacity="0.501961" points="145,22 177,48 169,73" />
<g transform="translate(189 95) rotate(89) scale(40 11)"><rect fill="#0f1524" fill-opacity="0.501961" x="-0.5" y="-0.5" width="1" height="1" /></g>
<polygon fill="#060f1d" fill-opacity="0.501961" points="42,82 45,132 64,60" />
<g transform="translate(99.420256 169.000000) rotate(305.140443) scale(9.139562 20.974685)"><ellipse fill="#dde7f0" fill-opacity="0.501961" cx="0" cy="0" rx="1" ry="1" /></g>
<polygon fill="#ffc67f" fill-opacity="0.501961" points="164.126481,86.634012,161.188889,109.720717,143.832254,133.265979,141.321964,116.881526" />
<g transform="translate(139.853724 15.261111) rotate(348.345631) scale(46.333938 17.477264)"><ellipse fill="#a17961" fill-opacity="0.501961" cx="0" cy="0" rx="1" ry="1" /></g>
<g transform="translate(5.201688 45.345297) rotate(207.392967) scale(10.810492 45.064601)"><ellipse fill="#3e1a00" fill-opacity="0.501961" cx="0" cy="0" rx="1" ry="1" /></g>
<ellipse fill="#976748" fill-opacity="0.501961" cx="40" cy="48" rx="12" ry="29" />
<g transform="translate(239.302830 108.307629) rotate(178.759637) scale(18.597704 29.256039)"><ellipse fill="#2f1710" fill-opacity="0.501961" cx="0" cy="0" rx="1" ry="1" /></g>
<polygon fill="#f8c492" fill-opacity="0.501961" points="162.231519,51.794051,163.437063,93.148313,128.020834,35.949638,145.971499,40.701367" />
<rect fill="#cf9d78" fill-opacity="0.501961" x="200" y="35" width="14" height="54" />
<polygon fill="#262c43" fill-opacity="0.501961" points="140.553467,82.580083,158.501041,87.181187,157.024056,94.145957,143.314011,96.804403" />
<rect fill="#100a0f" fill-opacity="0.501961" x="79" y="81" width="26" height="15" />
<g transform="translate(50.395913 6.237206) rotate(71.258327) scale(16.382690 25.839937)"><ellipse fill="#81410b" fill-opacity="0.501961" cx="0" cy="0" rx="1" ry="1" /></g>
<polygon fill="#ffffff" fill-opacity="0.501961" points="141,133 139,151 123,108" />
<ellipse fill="#aa6a3f" fill-opacity="0.501961" cx="81" cy="66" rx="17" ry="17" />
<polygon fill="#925436" fill-opacity="0.501961" points="120,107 110,134 103,65" />
<g transform="translate(167.438680 147.564325) rotate(211.059831) scale(11.976147 34.869119)"><ellipse fill="#b98c66" fill-opacity="0.501961" cx="0" cy="0" rx="1" ry="1" /></g>
<g transform="translate(255 58) rotate(45) scale(32 38)"><rect fill="#5a515f" fill-opacity="0.501961" x="-0.5" y="-0.5" width="1" height="1" /></g>
<rect fill="#383740" fill-opacity="0.501961" x="110" y="138" width="15" height="26" />
<ellipse fill="#2e0f00" fill-opacity="0.501961" cx="222" cy="169" rx="9" ry="37" />
<polygon fill="#dcab7e" fill-opacity="0.501961" points="225,49 146,28 172,18" />
<g transform="translate(252.164595 148.102236) rotate(126.880536) scale(21.948928 11.008782)"><ellipse fill="#62575d" fill-opacity="0.501961" cx="0" cy="0" rx="1" ry="1" /></g>
<polygon fill="#82604a" fill-opacity="0.501961" points="39,105 10,53 29,136" />
<g transform="translate(135 85) rotate(85) scale(21 19)"><rect fill="#ad673d" fill-opacity="0.501961" x="-0.5" y="-0.5" width="1" height="1" /></g>
<polygon fill="#56290a" fill-opacity="0.501961" points="91.790879,110.568824,120.659275,160.391691,72.771289,111.674296,78.880556,56.394697" />
<rect fill="#c4733e" fill-opacity="0.501961" x="174" y="37" width="22" height="33" />
<ellipse fill="#928781" fill-opacity="0.501961" cx="66" cy="150" rx="15" ry="32" />
<g transform="translate(101.382245 51.010631) rotate(267.072510) scale(23.446730 8.935692)"><ellipse fill="#d79e72" fill-opacity="0.501961" cx="0" cy="0" rx="1" ry="1" /></g>
<polygon fill="#845c4a" fill-opacity="0.501961" points="184,81 164,137 153,119" />
<g transform="translate(164.693621 51.157308) rotate(261.669170) scale(8.227449 4.449586)"><ellipse fill="#390100" fill-opacity="0.501961" cx="0" cy="0" rx="1" ry="1" /></g>
<polygon fill="#441500" fill-opacity="0.501961" points="91,144 111,116 102,91" />
<polygon fill="#90847f" fill-opacity="0.501961" points="118.051051,120.305715,99.508716,150.496859,130.742823,171.556342,98.944167,139.024011" />
<g transform="translate(10.383476 145.502114) rotate(284.079101) scale(11.880631 25.462388)"><ellipse fill="#602c00" fill-opacity="0.501961" cx="0" cy="0" rx="1" ry="1" /></g>
<polygon fill="#646b82" fill-opacity="0.501961" points="136.280228,139.777511,134.074667,151.821016,98.888434,131.931868,128.012380,135.207569" />
<g transform="translate(5.224916 169.000000) rotate(205.984182) scale(37.730347 9.229354)"><ellipse fill="#7e8890" fill-opacity="0.501961" cx="0" cy="0" rx="1" ry="1" /></g>
<ellipse fill="#c69471" fill-opacity="0.501961" cx="62" cy="31" rx="21" ry="6" />
<g transform="translate(149.222434 36.774680) rotate(324.377902) scale(3.217139 19.121034)"><ellipse fill="#ac6430" fill-opacity="0.501961" cx="0" cy="0" rx="1" ry="1" /></g>
<polygon fill="#702700" fill-opacity="0.501961" points="98.623668,27.356317,74.841564,53.510698,67.043205,44.046224,93.668721,29.648590" />
<ellipse fill="#28252e" fill-opacity="0.501961" cx="56" cy="87" rx="11" ry="24" />
<polygon fill="#977056" fill-opacity="0.501961" points="191.385918,132.417576,196.980400,177.224071,163.758145,174.416876,174.400956,133.455477" />
<polygon fill="#915f3e" fill-opacity="0.501961" points="9.670805,42.248328,31.542114,29.892722,116.596571,92.831493,27.849697,42.244609" />
<polygon fill="#7b573f" fill-opacity="0.501961" points="271,10 211,60 214,96" />
<polygon fill="#e6eff5" fill-opacity="0.501961" points="128.850349,166.650586,136.671473,141.603277,141.182047,185.000000,96.571304,159.303769" />
<polygon fill="#a99f96" fill-opacity="0.501961" points="95.358777,148.403955,71.139062,122.193182,63.943771,136.255337,97.687323,155.593131" />
<g transform="translate(153 159) rotate(54) scale(39 11)"><rect fill="#d0b5a0" fill-opacity="0.501961" x="-0.5" y="-0.5" width="1" height="1" /></g>
<polygon fill="#754c2c" fill-opacity="0.501961" points="58.676830,179.616228,22.046530,95.910878,-15.875681,155.995085,15.149902,120.639619" />
<polygon fill="#939298" fill-opacity="0.501961" points="14.188822,82.647311,12.266939,109.184657,-16.000000,94.129319,17.839770,60.127166" />
<polygon fill="#d2d6e0" fill-opacity="0.501961" points="158.309865,142.082334,137.139225,169.914897,151.423451,127.605496,157.864932,129.780930" />
<polygon fill="#5e2705" fill-opacity="0.501961" points="83.869642,76.049098,90.552397,53.486136,73.557575,66.893049,78.141671,107.870222" />
<polygon fill="#050000" fill-opacity="0.501961" points="271,154 271,60 247,107" />
<ellipse fill="#c19479" fill-opacity="0.501961" cx="92" cy="75" rx="6" ry="6" />
<polygon fill="#f0b784" fill-opacity="0.501961" points="158.176963,99.846427,139.786922,104.059342,148.515589,138.653357,160.968098,96.871213" />
<polygon fill="#e7f1fd" fill-opacity="0.501961" points="107.514800,132.874620,106.751221,134.300072,141.168412,136.979768,127.309800,117.298318" />
<g transform="translate(175 76) rotate(111) scale(40 5)"><rect fill="#bb876c" fill-opacity="0.501961" x="-0.5" y="-0.5" width="1" height="1" /></g>
<polygon fill="#171921" fill-opacity="0.501961" points="106,139 130,148 111,154" />
<polygon fill="#bf8561" fill-opacity="0.501961" points="147.368204,138.315146,143.016656,151.114847,133.744541,101.766012,132.621714,74.885092" />
<polygon fill="#4a312a" fill-opacity="0.501961" points="260.368326,149.878877,230.154654,114.384081,239.783391,58.711615,225.775237,67.000059" />
<g transform="translate(193.194029 21.359508) rotate(126.131991) scale(6.200281 36.096727)"><ellipse fill="#97745d" fill-opacity="0.501961" cx="0" cy="0" rx="1" ry="1" /></g>
<g transform="translate(145.895640 93.626617) rotate(239.664241) scale(7.815410 11.576793)"><ellipse fill="#524f5e" fill-opacity="0.501961" cx="0" cy="0" rx="1" ry="1" /></g>
<polygon fill="#b67d55" fill-opacity="0.501961" points="75.725704,62.536230,95.535183,36.785942,101.164518,22.837096,60.556820,76.139425" />
<polygon fill="#4c2406" fill-opacity="0.501961" points="-14.304587,37.853928,51.641925,-16.000000,-16.000000,79.123252,37.180523,43.014313" />
<polygon fill="#6e4b31" fill-opacity="0.501961" points="196.323762,155.269077,202.065960,106.318680,220.715076,183.847410,218.822484,185.000000" />
<polygon fill="#e8edf2" fill-opacity="0.501961" points="125.346265,159.377003,139.835492,145.565146,136.489447,156.513054,114.971709,157.291750" />
<polygon fill="#736262" fill-opacity="0.501961" points="164,109 185,60 181,118" />
<g transform="translate(225.662063 18.761588) rotate(216.326616) scale(51.901182 8.243485)"><ellipse fill="#7a5239" fill-opacity="0.501961" cx="0" cy="0" rx="1" ry="1" /></g>
<rect fill="#ce8456" fill-opacity="0.501961" x="108" y="79" width="9" height="22" />
<polygon fill="#b57f5a" fill-opacity="0.501961" points="176,64 213,78 229,46" />
<polygon fill="#45240d" fill-opacity="0.501961" points="267.168428,24.342852,271.000000,-3.218630,243.313835,-1.909291,226.434572,-2.946191" />
<polygon fill="#5a453c" fill-opacity="0.501961" points="45.695986,185.000000,40.208846,145.986167,53.795219,105.153066,64.040806,84.744191" />
<g transform="translate(4.184983 8.419792) rotate(121.611830) scale(45.728553 8.239027)"><ellipse fill="#775735" fill-opacity="0.501961" cx="0" cy="0" rx="1" ry="1" /></g>
<polygon fill="#7b4b27" fill-opacity="0.501961" points="97.155453,102.697206,92.478646,128.770214,75.479050,130.120495,95.287538,104.056218" />
<polygon fill="#602100" fill-opacity="0.501961" points="164.951789,88.132374,166.683871,86.792429,167.009760,47.233922,161.406048,41.146960" />
<polygon fill="#d29263" fill-opacity="0.501961" points="88.970870,23.156879,128.157798,73.252972,138.157604,118.865703,136.382696,44.032042" />
<ellipse fill="#5e6171" fill-opacity="0.501961" cx="123" cy="141" rx="10" ry="8" />
<polygon fill="#f1c195" fill-opacity="0.501961" points="147.228296,81.661052,165.793283,84.969603,160.608846,53.779483,146.373060,55.853763" />
<rect fill="#e2ced3" fill-opacity="0.501961" x="121" y="82" width="3" height="40" />
<g transform="translate(114.659852 7.777251) rotate(14.430174) scale(46.078473 17.976976)"><ellipse fill="#936b53" fill-opacity="0.501961" cx="0" cy="0" rx="1" ry="1" /></g>
<polygon fill="#744729" fill-opacity="0.501961" points="19.914303,45.087310,49.347144,39.035248,14.262870,31.182408,14.744809,57.357344" />
<polygon fill="#a16545" fill-opacity="0.501961" points="67.549003,76.987312,76.018030,96.258290,71.817413,56.897268,64.089631,32.585587" />
<polygon fill="#ffffff" fill-opacity="0.501961" points="123,111 144,137 125,130" />
<polygon fill="#885a39" fill-opacity="0.501961" points="21,118 31,93 51,158" />
<polygon fill="#533b2f" fill-opacity="0.501961" points="33.228832,63.774613,123.435460,163.950288,101.464567,158.235773,118.309098,158.395134" />
<g transform="translate(39 91) rotate(171) scale(3 55)"><rect fill="#44260f" fill-opacity="0.501961" x="-0.5" y="-0.5" width="1" height="1" /></g>
<polygon fill="#8b634c" fill-opacity="0.501961" points="29,51 71,48 30,79" />
<polygon fill="#1d1c21" fill-opacity="0.501961" points="112,143 106,137 124,137" />
<g transform="translate(195 116) rotate(245) scale(12 28)"><rect fill="#5f4a40" fill-opacity="0.501961" x="-0.5" y="-0.5" width="1" height="1" /></g>
<polygon fill="#4e311b" fill-opacity="0.501961" points="94.255973,131.581668,76.224345,120.304098,94.805767,143.981385,113.046317,139.390917" />
<polygon fill="#c4afaa" fill-opacity="0.501961" points="155.385383,133.312491,161.281362,121.810117,162.712280,133.378334,139.210197,185.000000" />
<polygon fill="#7e513c" fill-opacity="0.501961" points="112.081035,122.721818,101.506814,93.478132,121.083715,107.922641,116.280029,124.802148" />
<rect fill="#482815" fill-opacity="0.501961" x="21" y="40" width="6" height="47" />
<ellipse fill="#cb9c73" fill-opacity="0.501961" cx="164" cy="29" rx="8" ry="11" />
<polygon fill="#afa79d" fill-opacity="0.501961" points="93.695872,148.190332,78.061549,137.353715,82.497067,149.034968,113.344639,169.538487" />
<polygon fill="#12121c" fill-opacity="0.501961" points="75.738972,85.725115,87.316566,81.645276,97.443341,82.137231,105.028691,96.275691" />
<polygon fill="#a06e4f" fill-opacity="0.501961" points="198.048041,97.991845,208.997153,103.724188,204.117537,83.167590,187.142320,49.735521" />
<polygon fill="#3d1800" fill-opacity="0.501961" points="30,27 14,15 -16,52" />
<polygon fill="#6b3a11" fill-opacity="0.501961" points="19.170231,117.669781,19.787601,103.355613,-7.493435,144.233583,45.270502,182.562480" />
<polygon fill="#d9a774" fill-opacity="0.501961" points="150.026780,167.345465,167.231073,145.001432,162.541692,185.000000,142.500218,163.035798" />
<rect fill="#413131" fill-opacity="0.501961" x="50" y="88" width="25" height="26" />
<g transform="translate(173 129) rotate(281) scale(22 8)"><rect fill="#cd905d" fill-opacity="0.501961" x="-0.5" y="-0.5" width="1" height="1" /></g>
<polygon fill="#9b623a" fill-opacity="0.501961" points="81.406344,1.317846,50.262791,16.654477,66.227898,26.051386,92.272059,5.789088" />
<ellipse fill="#8ae6ff" fill-opacity="0.501961" cx="148" cy="88" rx="2" ry="2" />
<polygon fill="#b78865" fill-opacity="0.501961" points="72,30 75,14 100,22" />
<g transform="translate(109 152) rotate(223) scale(17 1)"><rect fill="#a89c96" fill-opacity="0.501961" x="-0.5" y="-0.5" width="1" height="1" /></g>
<polygon fill="#6a5751" fill-opacity="0.501961" points="-16.000000,79.120656,16.505730,56.252392,29.707912,56.529321,39.536395,52.212577" />
<g transform="translate(102 79) rotate(231) scale(16 5)"><rect fill="#69381b" fill-opacity="0.501961" x="-0.5" y="-0.5" width="1" height="1" /></g>
<polygon fill="#e4a56c" fill-opacity="0.501961" points="150.866836,43.760384,144.003232,33.259968,127.069217,29.181784,132.515323,81.512149" />
<rect fill="#371c0d" fill-opacity="0.501961" x="146" y="83" width="9" height="4" />
<polygon fill="#af7850" fill-opacity="0.501961" points="85.396515,61.725502,90.786668,36.363711,98.561859,53.617802,103.931935,78.709624" />
<polygon fill="#b46a39" fill-opacity="0.501961" points="165,79 194,52 179,32" />
<g transform="translate(165 120) rotate(38) scale(17 9)"><rect fill="#a15c2f" fill-opacity="0.501961" x="-0.5" y="-0.5" width="1" height="1" /></g>
<rect fill="#d6dbe3" fill-opacity="0.501961" x="147" y="131" width="7" height="24" />
<polygon fill="#b97a4e" fill-opacity="0.501961" points="141.850196,87.320205,134.529011,95.665486,119.697594,78.531681,152.644934,75.490837" />
<ellipse fill="#380900" fill-opacity="0.501961" cx="77" cy="43" rx="4" ry="4" />
<polygon fill="#988d85" fill-opacity="0.501961" points="92,144 72,117 39,185" />
<g transform="translate(255 57) rotate(50) scale(11 29)"><rect fill="#625c6a" fill-opacity="0.501961" x="-0.5" y="-0.5" width="1" height="1" /></g>
<polygon fill="#c59d7b" fill-opacity="0.501961" points="168.284273,13.553496,220.085515,44.323569,224.426469,49.724206,160.986128,27.268512" />
<polygon fill="#855025" fill-opacity="0.501961" points="18,171 50,168 27,157" />
<rect fill="#ffffff" fill-opacity="0.501961" x="135" y="134" width="4" height="20" />
<polygon fill="#28180f" fill-opacity="0.501961" points="42.612173,138.996079,42.134792,93.542136,66.631438,65.436333,48.151847,69.833517" />
<polygon fill="#5d4d49" fill-opacity="0.501961" points="189.733600,93.697486,206.516516,144.434240,205.227876,90.909794,221.298994,118.895876" />
<polygon fill="#ca8e6b" fill-opacity="0.501961" points="132.522213,115.067357,113.984807,56.232683,146.623828,131.390850,154.832531,130.477734" />
<polygon fill="#4a2c17" fill-opacity="0.501961" points="102.626757,72.214973,99.750735,131.094047,88.077885,134.893688,100.553245,157.409924" />
<polygon fill="#9da7bb" fill-opacity="0.501961" points="125,134 113,137 106,127" />
<g transform="translate(225 163) rotate(243) scale(28 11)"><rect fill="#2f1400" fill-opacity="0.501961" x="-0.5" y="-0.5" width="1" height="1" /></g>
<ellipse fill="#b2826c" fill-opacity="0.501961" cx="169" cy="95" rx="3" ry="14" />
<g transform="translate(12 112) rotate(306) scale(50 4)"><rect fill="#746662" fill-opacity="0.501961" x="-0.5" y="-0.5" width="1" height="1" /></g>
<polygon fill="#73442b" fill-opacity="0.501961" points="162.477731,101.032303,172.988463,119.524234,163.571043,112.509387,167.577395,70.637973" />
<polygon fill="#9d4610" fill-opacity="0.501961" points="167,87 175,57 166,53" />
<polygon fill="#864f2d" fill-opacity="0.501961" points="62.200601,40.947535,70.416326,44.334192,37.829653,72.902163,92.159972,28.295248" />
<rect fill="#f1c399" fill-opacity="0.501961" x="149" y="63" width="13" height="21" />
<g transform="translate(126 160) rotate(158) scale(6 8)"><rect fill="#a1adbe" fill-opacity="0.501961" x="-0.5" y="-0.5" width="1" height="1" /></g>
<polygon fill="#492813" fill-opacity="0.501961" points="238.688771,67.404208,228.372261,117.084088,218.916573,108.527139,234.172629,56.554219" />
<polygon fill="#484242" fill-opacity="0.501961" points="230.045527,76.358478,271.000000,80.512172,248.430894,90.543200,213.455037,53.490911" />
<g transform="translate(57.030001 133.871607) rotate(194.740072) scale(4.326696 21.133959)"><ellipse fill="#7f7169" fill-opacity="0.501961" cx="0" cy="0" rx="1" ry="1" /></g>
<polygon fill="#c8956c" fill-opacity="0.501961" points="208.395280,84.679113,196.894440,39.901452,195.847247,31.934777,217.319656,93.506415" />
<polygon fill="#efb676" fill-opacity="0.501961" points="153.134094,66.870156,132.210799,80.529822,128.634833,79.603404,139.468254,58.071735" />
<g transform="translate(184.872150 169.000000) rotate(99.422623) scale(20.945723 17.717549)"><ellipse fill="#916b52" fill-opacity="0.501961" cx="0" cy="0" rx="1" ry="1" /></g>
<polygon fill="#ac7756" fill-opacity="0.501961" points="50.777081,19.231887,50.749702,43.613774,39.819339,79.742190,62.979234,36.419196" />
<polygon fill="#d8a78b" fill-opacity="0.501961" points="158.357078,111.917037,162.429173,97.079034,122.443717,109.211342,132.517523,97.298625" />
<g transform="translate(129 69) rotate(193) scale(2 31)"><rect fill="#b57042" fill-opacity="0.501961" x="-0.5" y="-0.5" width="1" height="1" /></g>
<ellipse fill="#3c0c00" fill-opacity="0.501961" cx="78" cy="88" rx="4" ry="10" />
<rect fill="#272731" fill-opacity="0.501961" x="185" y="80" width="7" height="33" />
<polygon fill="#78431a" fill-opacity="0.501961" points="81.731465,-16.000000,40.639159,29.832369,23.571665,26.710772,60.849661,-16.000000" />
<polygon fill="#da9c6a" fill-opacity="0.501961" points="94.683953,24.584754,109.756089,32.346219,93.153830,49.189393,96.229534,32.153515" />
<polygon fill="#deb29b" fill-opacity="0.501961" points="115.876803,88.855134,128.756230,59.441740,120.441835,96.761022,140.357429,135.228875" />
<polygon fill="#8b6347" fill-opacity="0.501961" points="19.697497,97.250114,25.014384,116.524956,39.625281,104.003999,41.090910,94.307248" />
<polygon fill="#855e46" fill-opacity="0.501961" points="49.327025,54.551609,42.972804,95.257861,34.008978,28.813100,30.650206,69.486682" />
<polygon fill="#b47349" fill-opacity="0.501961" points="165.625382,126.333668,173.051945,128.266591,158.047974,156.332976,163.305298,116.759902" />
<rect fill="#dd9453" fill-opacity="0.501961" x="111" y="67" width="11" height="22" />
<g transform="translate(24.969430 2.232024) rotate(266.011420) scale(30.908337 4.186722)"><ellipse fill="#5d2a00" fill-opacity="0.501961" cx="0" cy="0" rx="1" ry="1" /></g>
<polygon fill="#aa704e" fill-opacity="0.501961" points="142,119 133,111 141,130" />
<polygon fill="#5a351a" fill-opacity="0.501961" points="36.792068,84.085005,44.129863,103.768605,29.497118,87.682228,42.659795,47.953715" />
<g transform="translate(47 97) rotate(171) scale(1 23)"><rect fill="#000000" fill-opacity="0.501961" x="-0.5" y="-0.5" width="1" height="1" /></g>
<g transform="translate(66 70) rotate(342) scale(1 47)"><rect fill="#62473c" fill-opacity="0.501961" x="-0.5" y="-0.5" width="1" height="1" /></g>
<polygon fill="#5d300b" fill-opacity="0.501961" points="5.627655,129.635979,1.681460,151.967732,51.038914,156.096791,44.565741,165.991833" />
<polygon fill="#9b755c" fill-opacity="0.501961" points="113.101251,-16.000000,159.781654,33.639476,119.049967,25.445640,178.111191,13.018348" />
<g transform="translate(99 86) rotate(108) scale(9 1)"><rect fill="#47617c" fill-opacity="0.501961" x="-0.5" y="-0.5" width="1" height="1" /></g>
<polygon fill="#edb57b" fill-opacity="0.501961" points="158.676333,94.737348,143.783853,132.737673,159.673971,113.572004,163.306656,88.732130" />
<rect fill="#522e10" fill-opacity="0.501961" x="211" y="123" width="7" height="47" />
<polygon fill="#c79874" fill-opacity="0.501961" points="81.641054,56.824653,79.135092,53.035059,73.784855,60.985616,76.666691,60.833339" />
</g>
</svg>