<svg xmlns="http://www.w3.org/2000/svg" version="1.1" width="680" height="1024">
<rect x="0" y="0" width="680" height="1024" fill="#7b7976" />
<g transform="scale(4.000000) translate(0.5 0.5)">
<rect fill="#440000" fill-opacity="0.501961" x="62" y="81" width="43" height="72" />
<g transform="translate(60.228258 209.796078) rotate(159.135761) scale(31.350451 73.603469)"><ellipse fill="#2f352f" fill-opacity="0.501961" cx="0" cy="0" rx="1" ry="1" /></g>
<g transform="translate(150.001671 143.789029) rotate(138.516571) scale(57.905530 36.759734)"><ellipse fill="#ceb8b8" fill-opacity="0.501961" cx="0" cy="0" rx="1" ry="1" /></g>
<g transform="translate(22.843399 107.685134) rotate(396.729556) scale(22.752840 100.130147)"><ellipse fill="#b9beba" fill-opacity="0.501961" cx="0" cy="0" rx="1" ry="1" /></g>
<polygon fill="#fa2a7b" fill-opacity="0.501961" points="120,135 62,126 116,173" />
<g transform="translate(38.157208 166.857762) rotate(174.724587) scale(7.398757 39.057447)"><ellipse fill="#000000" fill-opacity="0.501961" cx="0" cy="0" rx="1" ry="1" /></g>
<g transform="translate(144.182210 80.379886) rotate(124.049761) scale(33.901130 84.470702)"><ellipse fill="#97a09d" fill-opacity="0.501961" cx="0" cy="0" rx="1" ry="1" /></g>
<polygon fill="#555d59" fill-opacity="0.501961" points="-16,260 185,254 -6,177" />
<polygon fill="#000a01" fill-opacity="0.501961" points="106.366427,77.107132,63.388930,81.702822,52.900967,100.422624,73.892859,112.071420" />
<ellipse fill="#acb0a8" fill-opacity="0.501961" cx="50" cy="154" rx="7" ry="64" />
<polygon fill="#000000" fill-opacity="0.501961" points="73.930990,182.801301,59.221274,189.739705,59.179605,209.757432,92.491138,211.823853" />
<polygon fill="#bdbbaf" fill-opacity="0.501961" points="-8.416284,170.124528,29.540288,179.117480,19.696040,97.724457,7.548259,165.627105" />
<ellipse fill="#969895" fill-opacity="0.501961" cx="49" cy="51" rx="71" ry="28" />
<ellipse fill="#000000" fill-opacity="0.501961" cx="122" cy="113" rx="7" ry="7" />
<g transform="translate(157.264175 243.554502) rotate(62.600889) scale(17.405480 46.101294)"><ellipse fill="#414948" fill-opacity="0.501961" cx="0" cy="0" rx="1" ry="1" /></g>
<g transform="translate(113.579431 203.868098) rotate(196.476433) scale(27.478418 7.841266)"><ellipse fill="#abb8b3" fill-opacity="0.501961" cx="0" cy="0" rx="1" ry="1" /></g>
<polygon fill="#000000" fill-opacity="0.501961" points="44.942863,160.504581,31.535274,137.100846,25.424281,158.537769,37.381626,182.977033" />
<rect fill="#000600" fill-opacity="0.501961" x="71" y="84" width="17" height="34" />
<rect fill="#5f5a4f" fill-opacity="0.501961" x="47" y="153" width="44" height="33" />
<polygon fill="#252f29" fill-opacity="0.501961" points="101.408736,175.585121,100.982683,196.607950,92.561825,184.723589,127.388090,200.201004" />
<rect fill="#c4cbc6" fill-opacity="0.501961" x="44" y="201" width="15" height="12" />
<polygon fill="#000000" fill-opacity="0.501961" points="31,140 38,168 43,121" />
<polygon fill="#cde9e6" fill-opacity="0.501961" points="97,160 136,189 119,191" />
<g transform="translate(159.714854 6.788443) rotate(104.736805) scale(10.763965 53.002976)"><ellipse fill="#50524c" fill-opacity="0.501961" cx="0" cy="0" rx="1" ry="1" /></g>
<g transform="translate(121.495653 104.489222) rotate(-4.821793) scale(23.868623 6.621554)"><ellipse fill="#acaaa1" fill-opacity="0.501961" cx="0" cy="0" rx="1" ry="1" /></g>
<polygon fill="#9d998f" fill-opacity="0.501961" points="50.508207,87.907158,83.427962,127.628331,154.877779,131.258333,64.200991,118.778720" />
<g transform="translate(154.693405 160.857269) rotate(434.042734) scale(26.535065 43.267230)"><ellipse fill="#9aa599" fill-opacity="0.501961" cx="0" cy="0" rx="1" ry="1" /></g>
<polygon fill="#000405" fill-opacity="0.501961" points="61.377178,128.031528,60.129987,129.872545,54.949987,113.614917,63.694591,117.147829" />
<polygon fill="#886244" fill-opacity="0.501961" points="96.726227,71.777808,92.058464,96.011181,86.402650,89.378400,121.545862,96.324352" />
<g transform="translate(0.000000 10.608456) rotate(269.805980) scale(10.724189 30.184377)"><ellipse fill="#4c5357" fill-opacity="0.501961" cx="0" cy="0" rx="1" ry="1" /></g>
<g transform="translate(161 255) rotate(11) scale(161 1)"><rect fill="#000000" fill-opacity="0.501961" x="-0.5" y="-0.5" width="1" height="1" /></g>
<polygon fill="#111515" fill-opacity="0.501961" points="-11.140806,230.646786,10.039885,231.014457,3.586580,224.135148,38.169242,230.966414" />
<polygon fill="#beb8ac" fill-opacity="0.501961" points="-14,104 54,113 22,138" />
<g transform="translate(39 193) rotate(241) scale(16 21)"><rect fill="#25251f" fill-opacity="0.501961" x="-0.5" y="-0.5" width="1" height="1" /></g>
<polygon fill="#c9d5d5" fill-opacity="0.501961" points="41,138 55,104 51,145" />
<g transform="translate(30.941766 54.288076) rotate(41.984411) scale(22.315605 64.544990)"><ellipse fill="#888c88" fill-opacity="0.501961" cx="0" cy="0" rx="1" ry="1" /></g>
<ellipse fill="#90948d" fill-opacity="0.501961" cx="57" cy="170" rx="3" ry="33" />
<polygon fill="#afb1ac" fill-opacity="0.501961" points="86.593022,73.313539,50.553332,53.761423,20.936557,131.375883,9.950084,110.826299" />
<polygon fill="#823b49" fill-opacity="0.501961" points="60,124 100,119 114,141" />
<rect fill="#7e7f75" fill-opacity="0.501961" x="84" y="211" width="54" height="29" />
<g transform="translate(59 249) rotate(196) scale(71 19)"><rect fill="#787870" fill-opacity="0.501961" x="-0.5" y="-0.5" width="1" height="1" /></g>
<polygon fill="#090e07" fill-opacity="0.501961" points="123,195 137,192 127,200" />
<polygon fill="#a09f97" fill-opacity="0.501961" points="29.017563,170.949466,42.606673,186.679010,9.714106,167.055776,12.159516,107.628046" />
<rect fill="#959a93" fill-opacity="0.501961" x="134" y="139" width="36" height="70" />
<polygon fill="#21201d" fill-opacity="0.501961" points="99.920505,206.264778,58.251162,222.822202,61.809810,178.055825,95.250332,213.678094" />
<polygon fill="#56462d" fill-opacity="0.501961" points="128.790231,122.668938,80.662881,97.935531,84.357878,122.638513,101.527201,123.044572" />
<polygon fill="#db5486" fill-opacity="0.501961" points="123.917555,138.739641,103.220354,123.589829,121.273208,164.791977,75.475453,142.923407" />
<polygon fill="#788386" fill-opacity="0.501961" points="185,145 99,17 169,30" />
<polygon fill="#abb1b2" fill-opacity="0.501961" points="84,71 148,76 115,63" />
<polygon fill="#38362c" fill-opacity="0.501961" points="92,158 70,133 73,165" />
<ellipse fill="#070708" fill-opacity="0.501961" cx="30" cy="154" rx="4" ry="17" />
<polygon fill="#1d2022" fill-opacity="0.501961" points="57,117 53,101 58,93" />
<polygon fill="#bfaea5" fill-opacity="0.501961" points="116.330192,124.279724,96.627482,123.122234,121.803085,143.259212,175.381633,137.764813" />
<rect fill="#c4d0ca" fill-opacity="0.501961" x="91" y="176" width="4" height="25" />
<polygon fill="#a3aaac" fill-opacity="0.501961" points="113.317626,102.680651,121.093797,81.070796,137.885678,88.631733,103.737007,121.020466" />
<polygon fill="#888e86" fill-opacity="0.501961" points="42.808911,157.433257,66.588941,154.184268,62.956101,131.811678,40.974569,139.761083" />
<polygon fill="#4a5253" fill-opacity="0.501961" points="0,240 14,180 35,190" />
<polygon fill="#9aa09a" fill-opacity="0.501961" points="57.578115,212.527443,55.164912,215.957811,38.057360,214.832521,57.543685,196.032070" />
<polygon fill="#0f0e0a" fill-opacity="0.501961" points="105,184 99,189 116,191" />
<polygon fill="#000e06" fill-opacity="0.501961" points="106,99 104,92 88,95" />
<polygon fill="#83939f" fill-opacity="0.501961" points="54.690555,94.496662,-16.000000,96.153819,61.005404,111.257160,52.819875,101.316072" />
<polygon fill="#675e54" fill-opacity="0.501961" points="91.449812,121.974533,59.838577,113.709057,85.924012,136.550105,118.362199,117.067341" />
<g transform="translate(161 177) rotate(189) scale(23 14)"><rect fill="#c7b6a0" fill-opacity="0.501961" x="-0.5" y="-0.5" width="1" height="1" /></g>
<polygon fill="#040703" fill-opacity="0.501961" points="66.188349,83.731372,64.674987,106.592117,84.853745,122.528120,71.105844,83.730094" />
<polygon fill="#64483a" fill-opacity="0.501961" points="112,82 73,79 93,73" />
<polygon fill="#131514" fill-opacity="0.501961" points="30.838429,169.078726,43.768106,183.575911,29.343378,136.086662,46.084696,120.834321" />
<polygon fill="#4a4944" fill-opacity="0.501961" points="101,207 36,217 87,224" />
<g transform="translate(83 181) rotate(201) scale(1 28)"><rect fill="#959d96" fill-opacity="0.501961" x="-0.5" y="-0.5" width="1" height="1" /></g>
<polygon fill="#232525" fill-opacity="0.501961" points="6.033356,225.901252,87.424562,243.319195,80.618607,239.814009,55.884559,234.053601" />
<polygon fill="#6a7072" fill-opacity="0.501961" points="38,231 24,210 80,237" />
<rect fill="#040e12" fill-opacity="0.501961" x="117" y="109" width="9" height="10" />
<polygon fill="#7d807c" fill-opacity="0.501961" points="184,165 139,166 177,143" />
<polygon fill="#d9e4e4" fill-opacity="0.501961" points="103,202 92,189 93,198" />
<polygon fill="#73918b" fill-opacity="0.501961" points="111.668594,167.029929,120.418059,161.741664,113.899433,178.054891,105.698503,165.320166" />
<polygon fill="#040300" fill-opacity="0.501961" points="63,187 60,196 93,208" />
<polygon fill="#101513" fill-opacity="0.501961" points="68.549550,117.614963,64.240405,122.946966,56.609460,107.642844,59.746593,122.444600" />
<g transform="translate(15 228) rotate(284) scale(1 36)"><rect fill="#040603" fill-opacity="0.501961" x="-0.5" y="-0.5" width="1" height="1" /></g>
<g transform="translate(21 134) rotate(294) scale(32 20)"><rect fill="#afada5" fill-opacity="0.501961" x="-0.5" y="-0.5" width="1" height="1" /></g>
<rect fill="#83092c" fill-opacity="0.501961" x="81" y="131" width="27" height="5" />
<g transform="translate(90.519973 13.656315) rotate(176.451699) scale(45.717738 4.652408)"><ellipse fill="#938e81" fill-opacity="0.501961" cx="0" cy="0" rx="1" ry="1" /></g>
<g transform="translate(83 144) rotate(314) scale(1 60)"><rect fill="#e26895" fill-opacity="0.501961" x="-0.5" y="-0.5" width="1" height="1" /></g>
<g transform="translate(152 234) rotate(185) scale(41 27)"><rect fill="#666b66" fill-opacity="0.501961" x="-0.5" y="-0.5" width="1" height="1" /></g>
<g transform="translate(0.000000 85.126231) rotate(191.481389) scale(25.789180 4.396882)"><ellipse fill="#b2a695" fill-opacity="0.501961" cx="0" cy="0" rx="1" ry="1" /></g>
<polygon fill="#768189" fill-opacity="0.501961" points="51,49 22,84 -5,40" />
<polygon fill="#69665f" fill-opacity="0.501961" points="106.523069,183.887272,61.435089,144.909036,44.598375,178.104142,90.591444,150.635070" />
<g transform="translate(88.970201 113.816958) rotate(13.393432) scale(7.675180 6.307433)"><ellipse fill="#3c1804" fill-opacity="0.501961" cx="0" cy="0" rx="1" ry="1" /></g>
<polygon fill="#785e47" fill-opacity="0.501961" points="96,119 107,117 107,91" />
<rect fill="#736d5e" fill-opacity="0.501961" x="47" y="181" width="9" height="18" />
<polygon fill="#ec5d98" fill-opacity="0.501961" points="121.897994,138.804230,106.343204,127.098601,101.543401,125.440172,120.919110,151.299265" />
<polygon fill="#b52855" fill-opacity="0.501961" points="94.901916,133.348647,85.968092,144.009550,113.273045,143.144373,113.050192,136.221084" />
<polygon fill="#c0a17d" fill-opacity="0.501961" points="95,86 91,92 98,90" />
<polygon fill="#69797d" fill-opacity="0.501961" points="-16,168 -12,207 32,177" />
<polygon fill="#6d7e81" fill-opacity="0.501961" points="178.217967,214.506372,185.000000,189.217331,149.027000,184.611936,140.377219,194.726096" />
<polygon fill="#7f7a6a" fill-opacity="0.501961" points="71,240 1,249 15,229" />
<g transform="translate(161 55) rotate(374) scale(34 15)"><rect fill="#939a99" fill-opacity="0.501961" x="-0.5" y="-0.5" width="1" height="1" /></g>
<g transform="translate(140.425667 120.150474) rotate(230.845577) scale(11.710221 29.056425)"><ellipse fill="#9da398" fill-opacity="0.501961" cx="0" cy="0" rx="1" ry="1" /></g>
<g transform="translate(66.429093 125.602991) rotate(41.800955) scale(2.777348 2.216799)"><ellipse fill="#e73f83" fill-opacity="0.501961" cx="0" cy="0" rx="1" ry="1" /></g>
<polygon fill="#dfecee" fill-opacity="0.501961" points="106.140336,176.185310,123.802707,189.149333,112.747926,176.631437,104.397034,167.729477" />
<g transform="translate(62 106) rotate(164) scale(2 8)"><rect fill="#baccca" fill-opacity="0.501961" x="-0.5" y="-0.5" width="1" height="1" /></g>
<polygon fill="#111616" fill-opacity="0.501961" points="136,247 180,259 158,260" />
<polygon fill="#989592" fill-opacity="0.501961" points="87.054744,207.950754,103.172270,153.769870,92.457879,175.298285,90.416915,176.123929" />
<g transform="translate(148.172958 29.772195) rotate(150.487915) scale(26.383495 14.288861)"><ellipse fill="#717572" fill-opacity="0.501961" cx="0" cy="0" rx="1" ry="1" /></g>
<polygon fill="#55544b" fill-opacity="0.501961" points="82.157440,180.487172,78.457573,185.636438,93.836639,165.838241,84.273536,204.170422" />
<g transform="translate(101.882544 236.695415) rotate(4.879539) scale(30.325195 5.826792)"><ellipse fill="#6d7676" fill-opacity="0.501961" cx="0" cy="0" rx="1" ry="1" /></g>
<g transform="translate(2 68) rotate(163) scale(42 10)"><rect fill="#9f9f98" fill-opacity="0.501961" x="-0.5" y="-0.5" width="1" height="1" /></g>
<polygon fill="#b8b2a7" fill-opacity="0.501961" points="19.275373,98.329491,31.904512,133.230213,43.850064,121.601653,-1.318285,123.689394" />
<rect fill="#b28361" fill-opacity="0.501961" x="106" y="82" width="6" height="26" />
<polygon fill="#8b8e86" fill-opacity="0.501961" points="122.823387,198.468771,103.735610,219.698853,131.328716,222.397069,161.108643,207.564586" />
<g transform="translate(106 172) rotate(148) scale(4 19)"><rect fill="#cbe1e7" fill-opacity="0.501961" x="-0.5" y="-0.5" width="1" height="1" /></g>
<polygon fill="#171813" fill-opacity="0.501961" points="92.652951,211.930683,63.664483,199.786759,99.396272,208.688781,97.263084,210.014983" />
<g transform="translate(0.000000 30.773519) rotate(174.399455) scale(43.667188 6.922708)"><ellipse fill="#787874" fill-opacity="0.501961" cx="0" cy="0" rx="1" ry="1" /></g>
<g transform="translate(167.769779 116.550860) rotate(324.792959) scale(11.106264 57.757589)"><ellipse fill="#8f928d" fill-opacity="0.501961" cx="0" cy="0" rx="1" ry="1" /></g>
<polygon fill="#282a27" fill-opacity="0.501961" points="84.994896,240.918583,104.682312,246.085755,68.190762,239.919967,24.771321,229.774009" />
<ellipse fill="#282b29" fill-opacity="0.501961" cx="56" cy="218" rx="16" ry="2" />
<polygon fill="#8d8d87" fill-opacity="0.501961" points="133.882147,149.229482,168.221501,150.486861,141.006115,137.218937,128.911149,143.222614" />
<g transform="translate(84.526063 217.337976) rotate(185.499194) scale(39.787341 3.110641)"><ellipse fill="#6e6b60" fill-opacity="0.501961" cx="0" cy="0" rx="1" ry="1" /></g>
<polygon fill="#919490" fill-opacity="0.501961" points="53,103 46,120 24,116" />
<g transform="translate(104 85) rotate(311) scale(1 30)"><rect fill="#564035" fill-opacity="0.501961" x="-0.5" y="-0.5" width="1" height="1" /></g>
<polygon fill="#2c2e28" fill-opacity="0.501961" points="111.869813,188.738329,118.462763,193.176869,132.231983,201.125153,94.988587,185.165855" />
<polygon fill="#908e87" fill-opacity="0.501961" points="30.366277,49.471672,104.114735,61.346285,47.136465,6.961289,24.543057,21.472681" />
<polygon fill="#b2b8b6" fill-opacity="0.501961" points="60,146 47,121 41,144" />
<polygon fill="#e25289" fill-opacity="0.501961" points="121,145 113,165 86,149" />
<polygon fill="#a6a69f" fill-opacity="0.501961" points="118.839759,148.186870,137.955586,181.277900,135.249821,204.836447,157.475204,154.417043" />
<polygon fill="#bab2a5" fill-opacity="0.501961" points="57.009340,85.800555,66.247120,82.261215,47.946448,74.356485,26.402637,81.174555" />
<g transform="translate(68.193675 146.205810) rotate(162.390233) scale(4.394876 22.783015)"><ellipse fill="#515149" fill-opacity="0.501961" cx="0" cy="0" rx="1" ry="1" /></g>
<polygon fill="#7e7d72" fill-opacity="0.501961" points="11.813824,212.658869,-16.000000,216.731489,11.885547,197.695658,15.080979,194.877459" />
<polygon fill="#9ba4a6" fill-opacity="0.501961" points="130.698895,87.282270,147.941389,105.563051,123.847362,107.416836,109.590926,80.953443" />
<polygon fill="#74675c" fill-opacity="0.501961" points="101,123 62,116 91,132" />
<ellipse fill="#2b2a26" fill-opacity="0.501961" cx="38" cy="195" rx="8" ry="13" />
<polygon fill="#5f6462" fill-opacity="0.501961" points="141,255 61,237 -16,269" />
<polygon fill="#3e4a48" fill-opacity="0.501961" points="95.999423,177.462762,96.752291,171.432156,107.487658,180.562072,96.473240,178.649108" />
<polygon fill="#4c4f4c" fill-opacity="0.501961" points="31,189 44,220 3,178" />
<g transform="translate(54.540981 127.435418) rotate(139.419938) scale(5.641128 7.915387)"><ellipse fill="#949a95" fill-opacity="0.501961" cx="0" cy="0" rx="1" ry="1" /></g>
<g transform="translate(98 245) rotate(184) scale(11 2)"><rect fill="#0a0b0a" fill-opacity="0.501961" x="-0.5" y="-0.5" width="1" height="1" /></g>
<polygon fill="#8e8f89" fill-opacity="0.501961" points="3.707640,173.543928,6.816717,134.492640,26.725363,130.036587,-16.000000,121.978656" />
<polygon fill="#717b80" fill-opacity="0.501961" points="184.703969,90.255607,141.085892,69.027069,110.236756,51.779205,185.000000,70.766334" />
<polygon fill="#bba998" fill-opacity="0.501961" points="116.275924,99.568444,142.499512,105.799898,110.358257,103.051276,109.754330,88.374536" />
<polygon fill="#a39b8e" fill-opacity="0.501961" points="99.146496,74.294433,92.056853,41.843828,121.345017,45.104856,79.159249,77.304212" />
<polygon fill="#7b7a70" fill-opacity="0.501961" points="45,161 72,158 40,139" />
<polygon fill="#81001a" fill-opacity="0.501961" points="114,138 106,138 103,131" />
<polygon fill="#60462b" fill-opacity="0.501961" points="103.679458,125.186905,94.768734,107.957115,79.323314,108.254529,91.261809,87.169045" />
<polygon fill="#757370" fill-opacity="0.501961" points="84.748338,175.842284,103.251353,156.593616,70.221030,175.108119,78.625553,186.936426" />
<polygon fill="#13120f" fill-opacity="0.501961" points="83.560376,86.839860,67.994504,83.068333,63.309705,106.767679,80.496945,120.979686" />
<rect fill="#2f2f2c" fill-opacity="0.501961" x="94" y="186" width="14" height="3" />
<ellipse fill="#aeb7b5" fill-opacity="0.501961" cx="45" cy="210" rx="4" ry="4" />
<polygon fill="#c9d1cb" fill-opacity="0.501961" points="137.884774,188.586161,135.137109,188.372117,129.811281,193.063849,114.951691,180.685549" />
<polygon fill="#51524c" fill-opacity="0.501961" points="65,186 55,162 77,184" />
<polygon fill="#999d9a" fill-opacity="0.501961" points="26,183 25,148 -15,132" />
<rect fill="#adb8b9" fill-opacity="0.501961" x="109" y="107" width="5" height="9" />
<polygon fill="#424646" fill-opacity="0.501961" points="69.238959,216.581693,94.464225,201.378693,50.848407,220.773927,94.352673,226.902413" />
<polygon fill="#78858e" fill-opacity="0.501961" points="-16,85 26,94 -16,114" />
<polygon fill="#717771" fill-opacity="0.501961" points="99.211266,243.802036,102.043629,173.995258,120.091597,190.075232,103.706311,185.216045" />
<polygon fill="#3b4145" fill-opacity="0.501961" points="123,119 116,123 115,113" />
<rect fill="#74818a" fill-opacity="0.501961" x="11" y="72" width="38" height="5" />
<g transform="translate(74.155553 146.763950) rotate(214.225288) scale(12.041053 6.311747)"><ellipse fill="#40342e" fill-opacity="0.501961" cx="0" cy="0" rx="1" ry="1" /></g>
<g transform="translate(0.000000 221.780226) rotate(160.726896) scale(32.012523 3.886061)"><ellipse fill="#47555d" fill-opacity="0.501961" cx="0" cy="0" rx="1" ry="1" /></g>
<g transform="translate(96 88) rotate(328) scale(14 4)"><rect fill="#a07756" fill-opacity="0.501961" x="-0.5" y="-0.5" width="1" height="1" /></g>
<polygon fill="#75858f" fill-opacity="0.501961" points="169,90 156,103 132,98" />
<rect fill="#9ea8a7" fill-opacity="0.501961" x="95" y="200" width="45" height="5" />
<polygon fill="#72162f" fill-opacity="0.501961" points="77.759364,131.511284,62.117242,119.414831,89.004093,133.997302,95.227621,140.983260" />
<polygon fill="#7a8285" fill-opacity="0.501961" points="99,13 60,29 105,27" />
<rect fill="#87877c" fill-opacity="0.501961" x="85" y="192" width="5" height="13" />
<g transform="translate(43.439154 190.290124) rotate(0.946678) scale(2.163433 11.878097)"><ellipse fill="#1c1d17" fill-opacity="0.501961" cx="0" cy="0" rx="1" ry="1" /></g>
<rect fill="#514a48" fill-opacity="0.501961" x="88" y="76" width="19" height="5" />
<g transform="translate(153.773066 138.659801) rotate(105.717017) scale(4.045469 51.715688)"><ellipse fill="#b4b0a2" fill-opacity="0.501961" cx="0" cy="0" rx="1" ry="1" /></g>
<g transform="translate(163.377133 108.175079) rotate(184.544249) scale(43.635054 2.059587)"><ellipse fill="#b4a897" fill-opacity="0.501961" cx="0" cy="0" rx="1" ry="1" /></g>
<ellipse fill="#b4a798" fill-opacity="0.501961" cx="81" cy="33" rx="13" ry="4" />
<g transform="translate(81 188) rotate(171) scale(3 7)"><rect fill="#9fa49c" fill-opacity="0.501961" x="-0.5" y="-0.5" width="1" height="1" /></g>
<polygon fill="#899492" fill-opacity="0.501961" points="133.469973,167.808627,118.360674,160.406145,120.818304,153.857356,108.699160,173.428590" />
<polygon fill="#8a8678" fill-opacity="0.501961" points="13.525002,245.874056,51.657157,238.007259,39.688018,243.647328,39.699518,249.052565" />
<polygon fill="#aaa89f" fill-opacity="0.501961" points="18.949981,172.646899,28.462680,141.851440,31.614390,118.663786,7.076525,174.171650" />
<g transform="translate(61 104) rotate(-19) scale(1 11)"><rect fill="#b2b9b8" fill-opacity="0.501961" x="-0.5" y="-0.5" width="1" height="1" /></g>
<polygon fill="#86857d" fill-opacity="0.501961" points="22,161 -6,166 -16,152" />
<rect fill="#0a0a08" fill-opacity="0.501961" x="33" y="151" width="10" height="20" />
<polygon fill="#11110d" fill-opacity="0.501961" points="66.108315,187.039955,62.716737,188.971002,59.145747,204.742976,80.164905,186.986548" />
<polygon fill="#7e7e70" fill-opacity="0.501961" points="185.000000,234.113523,129.159465,208.363672,185.000000,200.607584,185.000000,243.473009" />
<g transform="translate(110 167) rotate(345) scale(6 1)"><rect fill="#74243a" fill-opacity="0.501961" x="-0.5" y="-0.5" width="1" height="1" /></g>
<g transform="translate(56.576986 103.128840) rotate(317.928406) scale(1.149077 2.784229)"><ellipse fill="#0e0d0a" fill-opacity="0.501961" cx="0" cy="0" rx="1" ry="1" /></g>
<rect fill="#afbbc4" fill-opacity="0.501961" x="35" y="91" width="22" height="3" />
<g transform="translate(57 184) rotate(82) scale(21 4)"><rect fill="#91938c" fill-opacity="0.501961" x="-0.5" y="-0.5" width="1" height="1" /></g>
</g>
</svg>