<svg xmlns="http://www.w3.org/2000/svg" version="1.1" width="1024" height="680">
<rect x="0" y="0" width="1024" height="680" fill="#d7b8a7" />
<g transform="scale(4.000000) translate(0.5 0.5)">
<g transform="translate(198.313605 112.254406) rotate(232.332172) scale(100.610877 37.315090)"><ellipse fill="#622200" fill-opacity="0.501961" cx="0" cy="0" rx="1" ry="1" /></g>
<ellipse fill="#fffeff" fill-opacity="0.501961" cx="27" cy="112" rx="114" ry="114" />
<g transform="translate(204.649592 61.628507) rotate(309.259947) scale(29.965067 23.090098)"><ellipse fill="#5a2700" fill-opacity="0.501961" cx="0" cy="0" rx="1" ry="1" /></g>
<rect fill="#fff7ea" fill-opacity="0.501961" x="153" y="0" width="38" height="63" />
<g transform="translate(216.845459 141.962291) rotate(78.637099) scale(49.497499 18.672553)"><ellipse fill="#3b1a00" fill-opacity="0.501961" cx="0" cy="0" rx="1" ry="1" /></g>
<g transform="translate(147 11) rotate(274) scale(34 162)"><rect fill="#fff3fc" fill-opacity="0.501961" x="-0.5" y="-0.5" width="1" height="1" /></g>
<g transform="translate(139.483640 158.464160) rotate(117.301690) scale(57.301763 21.803107)"><ellipse fill="#ffe9de" fill-opacity="0.501961" cx="0" cy="0" rx="1" ry="1" /></g>
<polygon fill="#9f4a0c" fill-opacity="0.501961" points="103.312264,42.489435,127.641448,32.189189,135.755489,77.225742,108.331177,38.956280" />
<g transform="translate(200.825596 51.068531) rotate(39.404430) scale(17.173563 12.157774)"><ellipse fill="#632e06" fill-opacity="0.501961" cx="0" cy="0" rx="1" ry="1" /></g>
<g transform="translate(249.659634 106.287480) rotate(65.164049) scale(51.781406 17.972875)"><ellipse fill="#eec393" fill-opacity="0.501961" cx="0" cy="0" rx="1" ry="1" /></g>
<rect fill="#231a05" fill-opacity="0.501961" x="144" y="64" width="46" height="11" />
<g transform="translate(28.430001 157.402961) rotate(109.488895) scale(21.168700 53.738204)"><ellipse fill="#d6b7a4" fill-opacity="0.501961" cx="0" cy="0" rx="1" ry="1" /></g>
<polygon fill="#bd773c" fill-opacity="0.501961" points="213,185 209,131 160,137" />
<g transform="translate(49.413763 62.333774) rotate(57.941437) scale(83.225638 67.525951)"><ellipse fill="#ffe3e0" fill-opacity="0.501961" cx="0" cy="0" rx="1" ry="1" /></g>
<polygon fill="#fcb36d" fill-opacity="0.501961" points="193.360376,90.781673,151.575730,86.779360,127.312308,95.906417,161.535151,68.912715" />
<polygon fill="#fbba84" fill-opacity="0.501961" points="203.586807,74.794872,164.183099,29.191349,136.430785,65.146114,167.241512,56.327430" />
<polygon fill="#221704" fill-opacity="0.501961" points="193.350432,129.328526,218.440238,106.135717,183.557170,120.360763,159.021116,120.620586" />
<rect fill="#001d15" fill-opacity="0.501961" x="155" y="87" width="13" height="17" />
<g transform="translate(182.876125 102.402777) rotate(50.987781) scale(10.054892 25.350941)"><ellipse fill="#eb9e57" fill-opacity="0.501961" cx="0" cy="0" rx="1" ry="1" /></g>
<rect fill="#060300" fill-opacity="0.501961" x="136" y="43" width="8" height="15" />
<polygon fill="#5b391d" fill-opacity="0.501961" points="205.095144,99.300310,192.290437,35.672144,215.218799,56.035068,230.980041,43.034923" />
<polygon fill="#d8955e" fill-opacity="0.501961" points="146,114 166,113 128,49" />
<g transform="translate(185.038556 72.669413) rotate(177.433033) scale(10.646876 7.306241)"><ellipse fill="#000e0e" fill-opacity="0.501961" cx="0" cy="0" rx="1" ry="1" /></g>
<polygon fill="#b36d36" fill-opacity="0.501961" points="186.967469,101.160131,164.176413,102.365245,176.942918,60.573669,151.553182,60.094008" />
<ellipse fill="#fbe8ec" fill-opacity="0.501961" cx="122" cy="127" rx="30" ry="30" />
<ellipse fill="#e29352" fill-opacity="0.501961" cx="241" cy="143" rx="7" ry="27" />
<g transform="translate(221 82) rotate(-17) scale(14 25)"><rect fill="#f3af71" fill-opacity="0.501961" x="-0.5" y="-0.5" width="1" height="1" /></g>
<rect fill="#412810" fill-opacity="0.501961" x="223" y="102" width="10" height="60" />
<g transform="translate(211.434688 36.947927) rotate(360.786939) scale(14.795208 3.565251)"><ellipse fill="#fbb472" fill-opacity="0.501961" cx="0" cy="0" rx="1" ry="1" /></g>
<polygon fill="#16251f" fill-opacity="0.501961" points="168,148 173,136 179,141" />
<polygon fill="#7f4b21" fill-opacity="0.501961" points="152.186747,26.925666,160.306761,47.617372,156.941349,44.954118,122.345860,61.644367" />
<polygon fill="#342212" fill-opacity="0.501961" points="156.920192,76.500753,163.446219,61.139108,151.637369,60.827819,139.820137,76.213998" />
<g transform="translate(100.065035 19.300821) rotate(255.907414) scale(22.955007 33.739186)"><ellipse fill="#fedacc" fill-opacity="0.501961" cx="0" cy="0" rx="1" ry="1" /></g>
<rect fill="#efd5c8" fill-opacity="0.501961" x="32" y="153" width="157" height="17" />
<polygon fill="#e7995a" fill-opacity="0.501961" points="184.757174,36.035738,173.357257,51.720185,203.645735,76.280500,204.870821,100.401656" />
<ellipse fill="#cfb08a" fill-opacity="0.501961" cx="244" cy="14" rx="10" ry="114" />
<polygon fill="#2f2216" fill-opacity="0.501961" points="237,166 214,159 231,122" />
<polygon fill="#c37f4c" fill-opacity="0.501961" points="119.430765,31.254683,134.426761,82.895718,137.862736,25.686348,156.280391,32.186909" />
<ellipse fill="#efdde5" fill-opacity="0.501961" cx="177" cy="0" rx="38" ry="38" />
<polygon fill="#dba06c" fill-opacity="0.501961" points="169.976693,151.846600,195.685056,174.655977,200.412017,160.561615,179.411538,141.023656" />
<polygon fill="#b1733b" fill-opacity="0.501961" points="207,89 220,111 234,100" />
<polygon fill="#1d0700" fill-opacity="0.501961" points="119,50 127,37 125,49" />
<polygon fill="#edd1c8" fill-opacity="0.501961" points="19,17 -12,123 46,165" />
<ellipse fill="#f3c4a1" fill-opacity="0.501961" cx="174" cy="50" rx="5" ry="16" />
<polygon fill="#fecfb1" fill-opacity="0.501961" points="131.920949,115.529068,136.086600,61.677239,166.249067,51.911524,143.835418,52.565348" />
<polygon fill="#fcddce" fill-opacity="0.501961" points="235,89 236,59 218,84" />
<polygon fill="#1c1b14" fill-opacity="0.501961" points="207,48 197,52 207,86" />
<g transform="translate(190 137) rotate(292) scale(19 6)"><rect fill="#743915" fill-opacity="0.501961" x="-0.5" y="-0.5" width="1" height="1" /></g>
<g transform="translate(162.658196 93.405855) rotate(77.835152) scale(4.811986 7.326700)"><ellipse fill="#00120f" fill-opacity="0.501961" cx="0" cy="0" rx="1" ry="1" /></g>
<g transform="translate(0.000000 156.870395) rotate(183.042499) scale(30.362998 11.164927)"><ellipse fill="#cbb299" fill-opacity="0.501961" cx="0" cy="0" rx="1" ry="1" /></g>
<polygon fill="#e2b187" fill-opacity="0.501961" points="161.971409,123.824326,188.229016,137.600350,174.561954,137.708842,158.109160,148.188509" />
<rect fill="#fbb87a" fill-opacity="0.501961" x="185" y="90" width="8" height="20" />
<g transform="translate(55.841252 24.137704) rotate(68.919299) scale(102.380700 31.151826)"><ellipse fill="#fee4e0" fill-opacity="0.501961" cx="0" cy="0" rx="1" ry="1" /></g>
<ellipse fill="#cb8753" fill-opacity="0.501961" cx="148" cy="92" rx="7" ry="19" />
<polygon fill="#d19d66" fill-opacity="0.501961" points="211.092886,36.555169,240.373870,58.951748,227.146934,33.867208,211.749556,47.208938" />
<polygon fill="#c2804d" fill-opacity="0.501961" points="165.479007,73.567040,162.487170,41.885678,148.445226,45.775584,174.515317,49.818260" />
<rect fill="#e9bd9c" fill-opacity="0.501961" x="235" y="41" width="4" height="100" />
<polygon fill="#392614" fill-opacity="0.501961" points="215.685256,98.284136,183.913148,123.738727,179.073759,130.860454,206.713017,122.826835" />
<polygon fill="#e7bd94" fill-opacity="0.501961" points="155.285122,105.926203,170.414228,106.988683,184.088873,122.393453,155.840233,113.744690" />
<polygon fill="#2e1d0b" fill-opacity="0.501961" points="202,101 207,79 215,83" />
<polygon fill="#452d18" fill-opacity="0.501961" points="134.902077,65.806325,150.189559,44.512353,148.273192,32.986473,132.080445,71.017581" />
<polygon fill="#7d4220" fill-opacity="0.501961" points="199.511709,90.013098,188.219459,77.618707,190.059269,84.672810,194.992822,99.305100" />
<rect fill="#a5602e" fill-opacity="0.501961" x="209" y="45" width="11" height="28" />
<polygon fill="#a3571e" fill-opacity="0.501961" points="242,145 260,163 246,185" />
<g transform="translate(173 144) rotate(339) scale(6 7)"><rect fill="#222417" fill-opacity="0.501961" x="-0.5" y="-0.5" width="1" height="1" /></g>
<rect fill="#a25a2c" fill-opacity="0.501961" x="121" y="56" width="16" height="7" />
<polygon fill="#a36737" fill-opacity="0.501961" points="212.165022,92.658072,241.087904,124.794531,222.946050,88.803705,169.313347,134.602457" />
<polygon fill="#f6e4e2" fill-opacity="0.501961" points="125,101 164,121 138,162" />
<rect fill="#8a5a33" fill-opacity="0.501961" x="159" y="100" width="24" height="6" />
<polygon fill="#e2a46c" fill-opacity="0.501961" points="183.934074,102.447084,165.452348,85.479398,128.344355,75.412967,168.039399,77.871818" />
<polygon fill="#a5602a" fill-opacity="0.501961" points="152,100 157,116 146,107" />
<polygon fill="#e1bea1" fill-opacity="0.501961" points="156.198053,130.490590,172.466224,169.067640,189.142767,158.952388,182.134133,157.553357" />
<polygon fill="#f0d9d3" fill-opacity="0.501961" points="42.512977,141.523576,199.512923,180.879177,163.822153,156.299794,139.173964,134.650441" />
<rect fill="#7c4a27" fill-opacity="0.501961" x="202" y="161" width="26" height="9" />
<rect fill="#f6e5e5" fill-opacity="0.501961" x="123" y="0" width="19" height="29" />
<g transform="translate(169 123) rotate(46) scale(14 5)"><rect fill="#79623d" fill-opacity="0.501961" x="-0.5" y="-0.5" width="1" height="1" /></g>
<polygon fill="#f7d7ca" fill-opacity="0.501961" points="128.177991,68.523345,110.685615,42.731541,138.177099,18.762576,55.190853,8.539031" />
<polygon fill="#e8b48d" fill-opacity="0.501961" points="120.849460,61.498532,134.343339,25.094440,134.027311,42.505738,173.892585,-16.000000" />
<rect fill="#5f3e1d" fill-opacity="0.501961" x="217" y="44" width="8" height="19" />
<polygon fill="#744424" fill-opacity="0.501961" points="228,100 230,132 206,165" />
<g transform="translate(119 86) rotate(144) scale(30 34)"><rect fill="#ffe0d9" fill-opacity="0.501961" x="-0.5" y="-0.5" width="1" height="1" /></g>
<ellipse fill="#b99d7e" fill-opacity="0.501961" cx="49" cy="148" rx="9" ry="3" />
<polygon fill="#001210" fill-opacity="0.501961" points="148,59 154,74 156,67" />
<polygon fill="#0d1913" fill-opacity="0.501961" points="195,76 180,66 171,77" />
<g transform="translate(141 51) rotate(292) scale(13 4)"><rect fill="#0a130f" fill-opacity="0.501961" x="-0.5" y="-0.5" width="1" height="1" /></g>
<polygon fill="#fed4b4" fill-opacity="0.501961" points="175.399844,67.938291,168.021357,54.881850,192.852928,62.962035,177.127445,55.829919" />
<polygon fill="#332113" fill-opacity="0.501961" points="217.029257,118.943359,179.618626,123.065860,198.421523,117.892746,220.126957,134.784609" />
<ellipse fill="#924c24" fill-opacity="0.501961" cx="164" cy="64" rx="6" ry="6" />
<polygon fill="#bf7e4f" fill-opacity="0.501961" points="177.021804,137.971257,169.798344,153.949808,204.787355,139.793873,209.827060,151.610293" />
<polygon fill="#cb8851" fill-opacity="0.501961" points="271,168 234,115 234,138" />
<g transform="translate(229.729199 58.344993) rotate(113.847175) scale(43.996972 3.255005)"><ellipse fill="#d29f6f" fill-opacity="0.501961" cx="0" cy="0" rx="1" ry="1" /></g>
<polygon fill="#e0cec0" fill-opacity="0.501961" points="220,24 225,-16 235,46" />
<g transform="translate(191.235365 55.939945) rotate(247.328114) scale(10.117620 4.499567)"><ellipse fill="#bd7340" fill-opacity="0.501961" cx="0" cy="0" rx="1" ry="1" /></g>
<rect fill="#000e11" fill-opacity="0.501961" x="156" y="103" width="11" height="2" />
<g transform="translate(245 20) rotate(326) scale(15 79)"><rect fill="#c7af8f" fill-opacity="0.501961" x="-0.5" y="-0.5" width="1" height="1" /></g>
<polygon fill="#f2caab" fill-opacity="0.501961" points="151.890393,41.389300,155.663122,31.481029,129.153011,13.836375,181.112052,45.820416" />
<polygon fill="#d89363" fill-opacity="0.501961" points="114.381672,39.936273,121.910852,49.061766,134.624756,78.723881,115.041379,50.328481" />
<ellipse fill="#bb7643" fill-opacity="0.501961" cx="223" cy="167" rx="3" ry="8" />
<ellipse fill="#f1cfaf" fill-opacity="0.501961" cx="233" cy="93" rx="7" ry="7" />
<g transform="translate(184 128) rotate(252) scale(7 21)"><rect fill="#8b5025" fill-opacity="0.501961" x="-0.5" y="-0.5" width="1" height="1" /></g>
<polygon fill="#fbd3b1" fill-opacity="0.501961" points="150.563989,49.163491,165.201104,54.309061,167.906885,59.800535,147.590305,57.235193" />
<polygon fill="#f1be95" fill-opacity="0.501961" points="197.467775,25.576805,221.961822,40.452490,188.308767,29.315009,203.261590,44.143586" />
<polygon fill="#b27342" fill-opacity="0.501961" points="173.891642,115.304202,187.790024,115.113512,156.340045,99.588515,180.257614,96.384379" />
<rect fill="#e7c2a7" fill-opacity="0.501961" x="237" y="88" width="5" height="35" />
<polygon fill="#ae6b3a" fill-opacity="0.501961" points="135,28 117,46 118,35" />
<polygon fill="#e5caba" fill-opacity="0.501961" points="31.318579,111.124211,16.567460,80.457808,23.533104,61.507489,34.339419,98.528871" />
<polygon fill="#eedde0" fill-opacity="0.501961" points="190.671315,-16.000000,116.428418,16.450040,153.682300,25.239015,229.043234,35.553625" />
<g transform="translate(42 2) rotate(-12) scale(113 23)"><rect fill="#f8e6ea" fill-opacity="0.501961" x="-0.5" y="-0.5" width="1" height="1" /></g>
<polygon fill="#de9c67" fill-opacity="0.501961" points="190.384548,43.512990,197.800301,29.847525,171.433439,52.400348,163.111055,50.232870" />
<g transform="translate(193 106) rotate(129) scale(31 1)"><rect fill="#ed9f5a" fill-opacity="0.501961" x="-0.5" y="-0.5" width="1" height="1" /></g>
<g transform="translate(143 71) rotate(16) scale(1 22)"><rect fill="#70300f" fill-opacity="0.501961" x="-0.5" y="-0.5" width="1" height="1" /></g>
<g transform="translate(198 72) rotate(57) scale(16 1)"><rect fill="#fcb475" fill-opacity="0.501961" x="-0.5" y="-0.5" width="1" height="1" /></g>
<polygon fill="#efaa68" fill-opacity="0.501961" points="189.357953,84.294239,184.203100,95.218642,180.772554,90.622383,172.713255,81.506165" />
<g transform="translate(170 121) rotate(172) scale(1 33)"><rect fill="#e6b790" fill-opacity="0.501961" x="-0.5" y="-0.5" width="1" height="1" /></g>
<polygon fill="#b16a35" fill-opacity="0.501961" points="219,56 222,77 210,95" />
<ellipse fill="#e5cab7" fill-opacity="0.501961" cx="107" cy="169" rx="34" ry="6" />
<g transform="translate(238 147) rotate(263) scale(56 1)"><rect fill="#e8ac7c" fill-opacity="0.501961" x="-0.5" y="-0.5" width="1" height="1" /></g>
<rect fill="#9e6236" fill-opacity="0.501961" x="209" y="106" width="28" height="4" />
<rect fill="#df915a" fill-opacity="0.501961" x="132" y="47" width="5" height="14" />
<polygon fill="#f1c09e" fill-opacity="0.501961" points="138,89 145,87 147,76" />
<g transform="translate(212 56) rotate(21) scale(3 23)"><rect fill="#be7b48" fill-opacity="0.501961" x="-0.5" y="-0.5" width="1" height="1" /></g>
<polygon fill="#cda988" fill-opacity="0.501961" points="158.594948,80.660284,155.124010,94.252570,158.656986,127.762981,151.495136,94.604719" />
<g transform="translate(140.942476 31.757430) rotate(233.379020) scale(3.820277 9.411818)"><ellipse fill="#df9b63" fill-opacity="0.501961" cx="0" cy="0" rx="1" ry="1" /></g>
<polygon fill="#ad6e40" fill-opacity="0.501961" points="219.117345,130.454089,231.729887,129.570828,252.635621,140.111836,224.789657,124.950327" />
<g transform="translate(222 147) rotate(192) scale(10 20)"><rect fill="#302316" fill-opacity="0.501961" x="-0.5" y="-0.5" width="1" height="1" /></g>
<ellipse fill="#cb8b59" fill-opacity="0.501961" cx="179" cy="135" rx="10" ry="4" />
<g transform="translate(146 90) rotate(194) scale(6 17)"><rect fill="#ac6a3e" fill-opacity="0.501961" x="-0.5" y="-0.5" width="1" height="1" /></g>
<rect fill="#5e3820" fill-opacity="0.501961" x="204" y="157" width="11" height="13" />
<rect fill="#d68c53" fill-opacity="0.501961" x="196" y="33" width="12" height="6" />
<rect fill="#382515" fill-opacity="0.501961" x="213" y="62" width="5" height="6" />
<polygon fill="#f3e0df" fill-opacity="0.501961" points="52,93 166,137 55,150" />
<polygon fill="#d1b294" fill-opacity="0.501961" points="68,154 55,158 66,162" />
<rect fill="#58361f" fill-opacity="0.501961" x="142" y="33" width="3" height="22" />
<polygon fill="#fdddd3" fill-opacity="0.501961" points="134.131286,86.089286,147.153041,115.025666,114.154333,93.690210,140.258484,71.751155" />
<polygon fill="#724123" fill-opacity="0.501961" points="186.537406,123.516094,203.084811,124.439792,233.793894,152.134608,205.025349,137.935171" />
<polygon fill="#cd945f" fill-opacity="0.501961" points="225,99 222,109 221,93" />
<polygon fill="#f9e0de" fill-opacity="0.501961" points="-15,111 -4,83 49,129" />
<polygon fill="#f3e1e2" fill-opacity="0.501961" points="108.552767,-10.070222,188.585493,37.819812,206.786014,21.978751,164.471460,37.875444" />
<polygon fill="#d1a981" fill-opacity="0.501961" points="244,106 263,179 271,139" />
<ellipse fill="#a7663a" fill-opacity="0.501961" cx="135" cy="58" rx="2" ry="17" />
<polygon fill="#5f391e" fill-opacity="0.501961" points="127,36 125,49 119,46" />
<polygon fill="#683c21" fill-opacity="0.501961" points="190.742909,84.123842,195.138338,93.242056,198.111889,76.817647,172.845902,77.657195" />
<polygon fill="#f6d2c3" fill-opacity="0.501961" points="79,21 116,-6 125,32" />
<g transform="translate(180 64) rotate(214) scale(5 6)"><rect fill="#9d5c32" fill-opacity="0.501961" x="-0.5" y="-0.5" width="1" height="1" /></g>
<polygon fill="#b9895c" fill-opacity="0.501961" points="228,37 233,55 217,33" />
<g transform="translate(232.379632 84.095985) rotate(325.856196) scale(1.000000 22.279138)"><ellipse fill="#f5d1b7" fill-opacity="0.501961" cx="0" cy="0" rx="1" ry="1" /></g>
<polygon fill="#e7b484" fill-opacity="0.501961" points="226.771616,76.798524,214.330402,95.674721,217.117798,81.109201,230.297693,91.428446" />
<polygon fill="#ebd6d1" fill-opacity="0.501961" points="104.473941,150.752540,0.754323,140.047580,21.191541,154.054613,56.994202,127.198494" />
<rect fill="#fedbc2" fill-opacity="0.501961" x="169" y="55" width="13" height="6" />
<polygon fill="#965729" fill-opacity="0.501961" points="211.618651,94.048128,212.237859,87.064098,201.748244,111.926048,181.380003,118.240711" />
<ellipse fill="#7e4a2b" fill-opacity="0.501961" cx="127" cy="58" rx="4" ry="4" />
<g transform="translate(201 137) rotate(56) scale(19 1)"><rect fill="#ca7842" fill-opacity="0.501961" x="-0.5" y="-0.5" width="1" height="1" /></g>
<g transform="translate(234 67) rotate(283) scale(24 5)"><rect fill="#f7d9cd" fill-opacity="0.501961" x="-0.5" y="-0.5" width="1" height="1" /></g>
<polygon fill="#edc19f" fill-opacity="0.501961" points="169.071106,47.884140,182.571622,20.173630,157.468870,64.267388,147.563654,46.002651" />
<ellipse fill="#001513" fill-opacity="0.501961" cx="160" cy="93" rx="6" ry="4" />
<g transform="translate(212 60) rotate(346) scale(1 7)"><rect fill="#302116" fill-opacity="0.501961" x="-0.5" y="-0.5" width="1" height="1" /></g>
<polygon fill="#f0ceb1" fill-opacity="0.501961" points="157,105 170,113 171,108" />
<polygon fill="#ae6b38" fill-opacity="0.501961" points="186.386212,99.661298,173.116875,82.534110,178.616980,94.789909,176.177696,118.866065" />
<polygon fill="#f9e9e8" fill-opacity="0.501961" points="133,99 57,110 156,122" />
<g transform="translate(134 72) rotate(297) scale(9 1)"><rect fill="#824421" fill-opacity="0.501961" x="-0.5" y="-0.5" width="1" height="1" /></g>
<polygon fill="#e5ae80" fill-opacity="0.501961" points="212.092917,32.412972,171.798662,40.850665,201.459820,31.429661,217.677240,49.365047" />
<polygon fill="#f0c4a4" fill-opacity="0.501961" points="134.528563,33.983690,152.970748,15.024755,118.679532,41.103905,134.269943,32.251019" />
<polygon fill="#4b311e" fill-opacity="0.501961" points="206,56 212,83 204,96" />
<ellipse fill="#141f1a" fill-opacity="0.501961" cx="152" cy="69" rx="6" ry="6" />
<g transform="translate(147.041945 63.794153) rotate(254.027932) scale(2.336598 4.264355)"><ellipse fill="#82411e" fill-opacity="0.501961" cx="0" cy="0" rx="1" ry="1" /></g>
<rect fill="#2f2916" fill-opacity="0.501961" x="173" y="120" width="8" height="5" />
<polygon fill="#915b2f" fill-opacity="0.501961" points="215,110 226,92 219,88" />
<polygon fill="#ddb08c" fill-opacity="0.501961" points="176.403027,161.783999,157.124851,119.169541,177.091011,129.561832,162.602182,141.921817" />
<polygon fill="#ba8254" fill-opacity="0.501961" points="245.981514,123.193839,244.086255,116.268594,267.398325,185.000000,236.313363,124.869626" />
<polygon fill="#e79e62" fill-opacity="0.501961" points="184,118 173,120 171,110" />
<rect fill="#a7632f" fill-opacity="0.501961" x="169" y="51" width="6" height="3" />
<rect fill="#bf7442" fill-opacity="0.501961" x="197" y="77" width="8" height="10" />
<polygon fill="#2e2419" fill-opacity="0.501961" points="212,100 196,129 195,117" />
<g transform="translate(191.980582 132.993243) rotate(273.004352) scale(13.429825 2.084641)"><ellipse fill="#693c21" fill-opacity="0.501961" cx="0" cy="0" rx="1" ry="1" /></g>
<g transform="translate(91.655673 52.621731) rotate(92.041991) scale(18.301023 24.935490)"><ellipse fill="#fde4de" fill-opacity="0.501961" cx="0" cy="0" rx="1" ry="1" /></g>
<polygon fill="#eed5c9" fill-opacity="0.501961" points="156.953694,114.396586,167.085666,123.961491,104.039824,159.963460,158.753963,141.339412" />
<g transform="translate(14.204691 82.630873) rotate(173.423773) scale(17.281048 4.481791)"><ellipse fill="#e9c9b9" fill-opacity="0.501961" cx="0" cy="0" rx="1" ry="1" /></g>
<polygon fill="#cc8448" fill-opacity="0.501961" points="163.890554,79.780526,185.136171,84.204622,174.665342,77.858647,167.310655,65.866556" />
<polygon fill="#dec1a3" fill-opacity="0.501961" points="261.991783,169.124953,270.055697,75.513530,243.152489,44.209314,249.313225,93.220389" />
<polygon fill="#c4a98f" fill-opacity="0.501961" points="-16.000000,168.461389,27.671370,159.313283,9.335593,167.514555,-16.000000,139.836164" />
</g>
</svg>