<svg xmlns="http://www.w3.org/2000/svg" version="1.1" width="1024" height="680">
<rect x="0" y="0" width="1024" height="680" fill="#d7b8a7" />
<g transform="scale(4.000000) translate(0.5 0.5)">
<g transform="translate(193.318933 108.372017) rotate(233.018309) scale(93.292306 38.425418)"><ellipse fill="#642300" fill-opacity="0.501961" cx="0" cy="0" rx="1" ry="1" /></g>
<g transform="translate(57.528949 80.893722) rotate(330.126495) scale(68.335506 234.302632)"><ellipse fill="#ffffff" fill-opacity="0.501961" cx="0" cy="0" rx="1" ry="1" /></g>
<g transform="translate(202.563097 60.973222) rotate(46.974230) scale(20.239017 30.658453)"><ellipse fill="#502000" fill-opacity="0.501961" cx="0" cy="0" rx="1" ry="1" /></g>
<ellipse fill="#fff8f1" fill-opacity="0.501961" cx="173" cy="20" rx="21" ry="45" />
<g transform="translate(217.333678 142.092109) rotate(80.522915) scale(54.349877 16.939508)"><ellipse fill="#371800" fill-opacity="0.501961" cx="0" cy="0" rx="1" ry="1" /></g>
<g transform="translate(131.951921 0.000000) rotate(371.248423) scale(101.433847 26.373091)"><ellipse fill="#fff0f9" fill-opacity="0.501961" cx="0" cy="0" rx="1" ry="1" /></g>
<rect fill="#ffe6e5" fill-opacity="0.501961" x="40" y="106" width="132" height="33" />
<polygon fill="#743c0f" fill-opacity="0.501961" points="118.330383,30.413495,120.672888,63.065605,171.862141,59.024886,155.146946,78.105344" />
<polygon fill="#562802" fill-opacity="0.501961" points="191.750263,33.621297,226.425864,60.600624,207.354420,75.538744,185.944486,46.101768" />
<polygon fill="#ffc790" fill-opacity="0.501961" points="143,58 168,27 198,65" />
<polygon fill="#1d1100" fill-opacity="0.501961" points="198,129 169,123 212,108" />
<polygon fill="#da924c" fill-opacity="0.501961" points="181.934016,124.943283,240.213126,38.565343,217.691058,100.411732,159.861075,67.464002" />
<ellipse fill="#000000" fill-opacity="0.501961" cx="162" cy="94" rx="7" ry="7" />
<polygon fill="#ebad70" fill-opacity="0.501961" points="271.000000,154.559916,244.389212,143.899356,238.619328,185.000000,233.012124,90.124625" />
<ellipse fill="#ffe4e0" fill-opacity="0.501961" cx="67" cy="36" rx="48" ry="83" />
<g transform="translate(181 73) rotate(85) scale(11 20)"><rect fill="#000403" fill-opacity="0.501961" x="-0.5" y="-0.5" width="1" height="1" /></g>
<polygon fill="#de965e" fill-opacity="0.501961" points="153,121 157,82 112,39" />
<g transform="translate(143 47) rotate(28) scale(6 27)"><rect fill="#140c00" fill-opacity="0.501961" x="-0.5" y="-0.5" width="1" height="1" /></g>
<polygon fill="#000805" fill-opacity="0.501961" points="141,74 165,70 148,60" />
<g transform="translate(192 144) rotate(112) scale(25 45)"><rect fill="#b47138" fill-opacity="0.501961" x="-0.5" y="-0.5" width="1" height="1" /></g>
<polygon fill="#412b19" fill-opacity="0.501961" points="218.293531,138.521376,202.538634,120.961727,214.245026,83.169334,190.564921,31.416834" />
<g transform="translate(123 40) rotate(226) scale(10 17)"><rect fill="#91460f" fill-opacity="0.501961" x="-0.5" y="-0.5" width="1" height="1" /></g>
<polygon fill="#dfc4b5" fill-opacity="0.501961" points="-16,180 0,122 149,184" />
<polygon fill="#2b1d0e" fill-opacity="0.501961" points="216.478487,151.667857,233.354580,113.576993,234.119937,169.549913,206.527508,141.460340" />
<polygon fill="#ffe4e1" fill-opacity="0.501961" points="28,81 145,135 137,73" />
<polygon fill="#f0ac6b" fill-opacity="0.501961" points="167,71 193,91 142,82" />
<polygon fill="#d48a4f" fill-opacity="0.501961" points="194,31 158,57 224,35" />
<polygon fill="#e6a468" fill-opacity="0.501961" points="199.294802,156.042908,180.507794,142.796973,173.824115,151.681147,204.891688,184.099196" />
<ellipse fill="#fcdacc" fill-opacity="0.501961" cx="102" cy="11" rx="34" ry="27" />
<polygon fill="#d98b4e" fill-opacity="0.501961" points="200.876426,96.349571,203.245740,85.643126,205.911721,85.229337,183.775229,35.641445" />
<polygon fill="#ffd1ab" fill-opacity="0.501961" points="165.856456,56.799422,156.032939,58.839832,137.584756,63.517357,153.323089,43.985217" />
<polygon fill="#e8bf95" fill-opacity="0.501961" points="271.000000,48.120543,234.128625,137.879709,238.965777,111.807154,211.659545,76.635300" />
<g transform="translate(133 47) rotate(182) scale(9 33)"><rect fill="#d6894e" fill-opacity="0.501961" x="-0.5" y="-0.5" width="1" height="1" /></g>
<polygon fill="#6b4423" fill-opacity="0.501961" points="182,132 158,116 204,130" />
<ellipse fill="#000008" fill-opacity="0.501961" cx="171" cy="142" rx="3" ry="3" />
<g transform="translate(176.294589 6.705047) rotate(8.273662) scale(37.853507 30.535064)"><ellipse fill="#eedee4" fill-opacity="0.501961" cx="0" cy="0" rx="1" ry="1" /></g>
<ellipse fill="#ccb089" fill-opacity="0.501961" cx="245" cy="0" rx="12" ry="100" />
<polygon fill="#edaf77" fill-opacity="0.501961" points="178.807950,78.757077,198.030666,100.979482,152.341949,138.576816,185.922783,103.200684" />
<rect fill="#3f2918" fill-opacity="0.501961" x="195" y="40" width="14" height="23" />
<polygon fill="#bb7842" fill-opacity="0.501961" points="168,51 154,27 137,29" />
<g transform="translate(166 69) rotate(104) scale(18 16)"><rect fill="#a75e2b" fill-opacity="0.501961" x="-0.5" y="-0.5" width="1" height="1" /></g>
<g transform="translate(214 62) rotate(80) scale(35 12)"><rect fill="#ab6632" fill-opacity="0.501961" x="-0.5" y="-0.5" width="1" height="1" /></g>
<polygon fill="#fcd7bf" fill-opacity="0.501961" points="208.184419,104.934624,221.575553,76.874849,235.433648,95.762349,237.041094,56.067509" />
<polygon fill="#d49f65" fill-opacity="0.501961" points="226,34 203,35 240,52" />
<g transform="translate(160 92) rotate(327) scale(9 9)"><rect fill="#001415" fill-opacity="0.501961" x="-0.5" y="-0.5" width="1" height="1" /></g>
<polygon fill="#b67138" fill-opacity="0.501961" points="142,107 158,115 145,87" />
<polygon fill="#efcdb8" fill-opacity="0.501961" points="181.497183,185.000000,130.436806,178.639882,160.679468,107.774039,165.231648,129.431494" />
<g transform="translate(217.436642 140.480043) rotate(108.921247) scale(41.332242 6.851421)"><ellipse fill="#693e1e" fill-opacity="0.501961" cx="0" cy="0" rx="1" ry="1" /></g>
<polygon fill="#ffe1df" fill-opacity="0.501961" points="6,-16 -16,75 130,71" />
<polygon fill="#f4e0e1" fill-opacity="0.501961" points="136.301074,162.122519,162.793214,120.931021,152.926230,115.578468,-16.000000,108.384057" />
<polygon fill="#653c1f" fill-opacity="0.501961" points="193.584777,140.816482,184.277339,148.497324,208.199461,78.139320,222.528631,38.087706" />
<ellipse fill="#f3d4cc" fill-opacity="0.501961" cx="14" cy="89" rx="19" ry="60" />
<polygon fill="#eddede" fill-opacity="0.501961" points="231.217839,36.839632,232.457080,34.773261,218.450299,-16.000000,106.225301,12.262209" />
<ellipse fill="#0e1c16" fill-opacity="0.501961" cx="186" cy="73" rx="9" ry="8" />
<polygon fill="#b66729" fill-opacity="0.501961" points="261,173 240,174 242,124" />
<g transform="translate(174 143) rotate(199) scale(5 10)"><rect fill="#0f221c" fill-opacity="0.501961" x="-0.5" y="-0.5" width="1" height="1" /></g>
<polygon fill="#101813" fill-opacity="0.501961" points="138,76 155,63 157,72" />
<ellipse fill="#d08849" fill-opacity="0.501961" cx="219" cy="106" rx="5" ry="5" />
<polygon fill="#a86b37" fill-opacity="0.501961" points="183,115 183,92 157,99" />
<polygon fill="#eeb180" fill-opacity="0.501961" points="204.477530,81.435657,190.249649,65.713853,172.102703,57.956674,176.006302,35.506462" />
<rect fill="#1d3027" fill-opacity="0.501961" x="157" y="101" width="10" height="5" />
<polygon fill="#754c26" fill-opacity="0.501961" points="233.877257,47.996396,218.110212,43.963842,219.540922,58.227169,204.914838,81.739519" />
<polygon fill="#cdb19a" fill-opacity="0.501961" points="27.773982,167.761844,36.488394,144.972969,70.848597,147.059523,18.176870,155.450716" />
<polygon fill="#271b0f" fill-opacity="0.501961" points="215.094615,91.423963,207.580668,79.285322,204.033612,99.670232,212.014038,83.690300" />
<polygon fill="#d6a478" fill-opacity="0.501961" points="176.548030,136.596965,152.815567,151.848064,170.800645,126.360012,188.338175,135.981319" />
<polygon fill="#b9713d" fill-opacity="0.501961" points="212.078508,153.322748,197.963099,127.661143,201.000786,122.752891,188.573068,178.715689" />
<polygon fill="#673d21" fill-opacity="0.501961" points="154.215950,30.708941,138.119971,39.651227,136.578634,49.266983,149.242886,46.150937" />
<polygon fill="#99572c" fill-opacity="0.501961" points="197,67 196,36 184,50" />
<polygon fill="#fcded7" fill-opacity="0.501961" points="127.468322,66.489270,141.442837,90.374955,-16.000000,114.846217,109.285309,46.415141" />
<g transform="translate(206.859837 100.291629) rotate(226.074306) scale(1.250267 28.934842)"><ellipse fill="#c8834d" fill-opacity="0.501961" cx="0" cy="0" rx="1" ry="1" /></g>
<polygon fill="#6c3b1d" fill-opacity="0.501961" points="184,76 198,98 197,74" />
<rect fill="#efb97d" fill-opacity="0.501961" x="156" y="106" width="19" height="11" />
<g transform="translate(204.326405 56.311767) rotate(107.504622) scale(12.243515 4.334071)"><ellipse fill="#32271a" fill-opacity="0.501961" cx="0" cy="0" rx="1" ry="1" /></g>
<polygon fill="#2b2216" fill-opacity="0.501961" points="212.250683,101.463856,186.599853,122.216404,202.403278,124.881585,204.856244,125.327695" />
<polygon fill="#322517" fill-opacity="0.501961" points="216,153 233,133 238,170" />
<polygon fill="#714327" fill-opacity="0.501961" points="120.088846,43.162134,133.997149,61.978518,127.441317,61.133356,126.309016,40.947993" />
<polygon fill="#f1c8ab" fill-opacity="0.501961" points="153,35 170,47 191,36" />
<rect fill="#dbb793" fill-opacity="0.501961" x="236" y="101" width="20" height="22" />
<g transform="translate(129 44) rotate(16) scale(3 18)"><rect fill="#ffcb9f" fill-opacity="0.501961" x="-0.5" y="-0.5" width="1" height="1" /></g>
<g transform="translate(27 85) rotate(257) scale(50 7)"><rect fill="#e2c8ba" fill-opacity="0.501961" x="-0.5" y="-0.5" width="1" height="1" /></g>
<g transform="translate(106.636627 17.721717) rotate(305.023298) scale(13.155333 22.218927)"><ellipse fill="#f7d3c3" fill-opacity="0.501961" cx="0" cy="0" rx="1" ry="1" /></g>
<polygon fill="#f7dacd" fill-opacity="0.501961" points="130.964914,95.333815,152.312411,72.669970,96.234629,154.089870,145.269397,55.052109" />
<polygon fill="#f5cfb8" fill-opacity="0.501961" points="171.457396,57.196167,173.151537,68.815900,179.706421,55.807567,172.347031,53.811728" />
<rect fill="#bf7942" fill-opacity="0.501961" x="222" y="161" width="5" height="9" />
<polygon fill="#985833" fill-opacity="0.501961" points="139.216527,84.634678,155.136676,51.893105,151.751762,60.082313,142.985268,59.312004" />
<polygon fill="#d78a4e" fill-opacity="0.501961" points="198,74 194,107 203,93" />
<polygon fill="#c07842" fill-opacity="0.501961" points="223,75 217,85 208,63" />
<polygon fill="#ecb17b" fill-opacity="0.501961" points="215,36 206,33 218,51" />
<g transform="translate(155 55) rotate(137) scale(6 15)"><rect fill="#fad2b3" fill-opacity="0.501961" x="-0.5" y="-0.5" width="1" height="1" /></g>
<polygon fill="#f2dfe1" fill-opacity="0.501961" points="161.692274,41.432266,125.258677,-9.075212,121.449995,30.933322,210.888751,6.401559" />
<polygon fill="#dec9b4" fill-opacity="0.501961" points="234.222116,36.955881,225.799458,-16.000000,219.685857,18.016878,239.108875,58.495903" />
<rect fill="#ecd3c4" fill-opacity="0.501961" x="0" y="166" width="188" height="4" />
<polygon fill="#0c120b" fill-opacity="0.501961" points="139,58 145,44 137,47" />
<polygon fill="#c8804d" fill-opacity="0.501961" points="130,29 117,52 114,38" />
<polygon fill="#794926" fill-opacity="0.501961" points="183.709382,73.045978,176.231443,62.360089,173.548818,77.681147,162.700104,57.223852" />
<polygon fill="#c49266" fill-opacity="0.501961" points="250,116 261,161 235,123" />
<polygon fill="#5e472e" fill-opacity="0.501961" points="159.662168,115.079753,166.205149,123.200906,209.129714,126.463098,170.231430,119.916166" />
<rect fill="#dbac85" fill-opacity="0.501961" x="164" y="147" width="24" height="11" />
<polygon fill="#d3905a" fill-opacity="0.501961" points="173.837350,56.243727,149.867557,37.605170,192.835564,61.728634,186.717244,42.090839" />
<polygon fill="#704524" fill-opacity="0.501961" points="209.031303,71.905505,225.244566,48.145650,217.470851,40.632811,215.684846,72.384209" />
<g transform="translate(126.292035 114.569992) rotate(182.037883) scale(20.027772 15.620073)"><ellipse fill="#f6e8e9" fill-opacity="0.501961" cx="0" cy="0" rx="1" ry="1" /></g>
<polygon fill="#8c5632" fill-opacity="0.501961" points="134.633282,42.164532,158.663831,46.887102,147.901805,35.802959,152.665513,27.529031" />
<polygon fill="#f9dbcf" fill-opacity="0.501961" points="236.505145,54.295504,233.684864,85.998658,222.925578,71.670972,239.677415,66.051011" />
<polygon fill="#d69464" fill-opacity="0.501961" points="189,135 174,144 184,131" />
<polygon fill="#864b1f" fill-opacity="0.501961" points="203,112 185,116 202,99" />
<polygon fill="#c68354" fill-opacity="0.501961" points="132.895137,88.976155,129.934161,38.430988,148.832860,23.331152,136.245478,45.468456" />
<g transform="translate(153 100) rotate(276) scale(1 31)"><rect fill="#cb976c" fill-opacity="0.501961" x="-0.5" y="-0.5" width="1" height="1" /></g>
<g transform="translate(147 56) rotate(142) scale(26 1)"><rect fill="#ffcfa8" fill-opacity="0.501961" x="-0.5" y="-0.5" width="1" height="1" /></g>
<g transform="translate(39.260622 1.200775) rotate(82.471689) scale(14.589700 68.993851)"><ellipse fill="#f9e6e9" fill-opacity="0.501961" cx="0" cy="0" rx="1" ry="1" /></g>
<polygon fill="#f1dbd9" fill-opacity="0.501961" points="45,136 90,170 81,111" />
<polygon fill="#11251a" fill-opacity="0.501961" points="169.816428,86.134059,156.116340,96.513872,164.575969,99.000018,168.209782,92.868005" />
<rect fill="#f2b379" fill-opacity="0.501961" x="168" y="116" width="14" height="4" />
<polygon fill="#b68558" fill-opacity="0.501961" points="220,35 235,49 227,54" />
<polygon fill="#071814" fill-opacity="0.501961" points="198,80 178,67 188,66" />
<polygon fill="#c3a782" fill-opacity="0.501961" points="242,8 223,-16 244,39" />
<polygon fill="#d99f6a" fill-opacity="0.501961" points="142.125557,77.624165,169.067622,75.690767,171.503840,83.694429,158.829625,89.183257" />
<polygon fill="#d0b298" fill-opacity="0.501961" points="43.849640,144.075538,62.529967,163.623866,71.406842,160.082534,38.561916,149.475705" />
<polygon fill="#edc9a8" fill-opacity="0.501961" points="225.318416,96.723578,232.475502,83.520875,236.519480,84.679254,246.403334,105.250093" />
<g transform="translate(206 46) rotate(40) scale(21 1)"><rect fill="#b46a3d" fill-opacity="0.501961" x="-0.5" y="-0.5" width="1" height="1" /></g>
<polygon fill="#a0673c" fill-opacity="0.501961" points="213.779039,72.964924,214.992280,102.202878,230.549185,144.032444,219.889962,123.828143" />
<polygon fill="#deb187" fill-opacity="0.501961" points="170,118 171,128 167,136" />
<rect fill="#cc8b4c" fill-opacity="0.501961" x="220" y="94" width="4" height="15" />
<g transform="translate(126 40) rotate(13) scale(3 6)"><rect fill="#372110" fill-opacity="0.501961" x="-0.5" y="-0.5" width="1" height="1" /></g>
<ellipse fill="#b46c3b" fill-opacity="0.501961" cx="150" cy="84" rx="4" ry="4" />
<polygon fill="#f5b279" fill-opacity="0.501961" points="192.585648,108.904776,186.372458,113.184104,188.226108,92.367606,189.955852,89.366169" />
<polygon fill="#8d4c1e" fill-opacity="0.501961" points="152,105 148,107 155,112" />
<ellipse fill="#ebb27c" fill-opacity="0.501961" cx="215" cy="93" rx="3" ry="3" />
<polygon fill="#f6d1b7" fill-opacity="0.501961" points="144.881404,17.334650,155.634916,4.170176,129.303316,36.360547,148.294444,24.081290" />
<polygon fill="#f3b687" fill-opacity="0.501961" points="134.532594,101.637505,137.162210,89.897289,135.979627,66.041014,143.083807,57.273991" />
<rect fill="#96542d" fill-opacity="0.501961" x="124" y="56" width="12" height="7" />
<g transform="translate(226 99) rotate(343) scale(1 23)"><rect fill="#86501b" fill-opacity="0.501961" x="-0.5" y="-0.5" width="1" height="1" /></g>
<polygon fill="#3c2e1b" fill-opacity="0.501961" points="183.674944,69.039121,173.019175,80.775773,178.450021,61.836709,184.526156,63.634777" />
<g transform="translate(180 60) rotate(197) scale(18 2)"><rect fill="#ffe0c4" fill-opacity="0.501961" x="-0.5" y="-0.5" width="1" height="1" /></g>
<polygon fill="#bb7944" fill-opacity="0.501961" points="177.779305,85.846684,167.075588,96.435958,164.821324,100.188371,179.613151,121.069214" />
<polygon fill="#3f2d1c" fill-opacity="0.501961" points="202.199151,102.313021,209.072635,54.731313,193.781485,44.306271,208.324551,90.293373" />
<g transform="translate(177 88) rotate(137) scale(1 8)"><rect fill="#723f1c" fill-opacity="0.501961" x="-0.5" y="-0.5" width="1" height="1" /></g>
<polygon fill="#c88858" fill-opacity="0.501961" points="164.828087,60.367207,168.756372,42.706360,165.196275,39.533888,169.115738,63.910113" />
<polygon fill="#302a1d" fill-opacity="0.501961" points="158.650727,64.473159,141.381628,71.924895,148.189879,73.046767,156.087242,77.862602" />
<polygon fill="#e9bc96" fill-opacity="0.501961" points="152.820305,35.271985,188.353021,39.232770,157.948974,49.326245,191.238470,52.658265" />
<polygon fill="#613a20" fill-opacity="0.501961" points="207,51 196,38 190,43" />
<g transform="translate(124 46) rotate(195) scale(5 12)"><rect fill="#4d2c16" fill-opacity="0.501961" x="-0.5" y="-0.5" width="1" height="1" /></g>
<g transform="translate(11 136) rotate(292) scale(22 61)"><rect fill="#e3d0c6" fill-opacity="0.501961" x="-0.5" y="-0.5" width="1" height="1" /></g>
<polygon fill="#f0dad3" fill-opacity="0.501961" points="148.668028,141.307232,159.359730,133.382610,111.050206,147.239458,189.759211,175.351596" />
<polygon fill="#b18055" fill-opacity="0.501961" points="227.661296,42.138306,222.994251,33.635346,227.226739,72.145149,229.685024,62.778662" />
<g transform="translate(4 163) rotate(287) scale(3 20)"><rect fill="#b8a181" fill-opacity="0.501961" x="-0.5" y="-0.5" width="1" height="1" /></g>
<polygon fill="#4a2f1c" fill-opacity="0.501961" points="212.105513,150.842351,234.370022,168.821619,212.907852,105.953289,222.124936,168.754647" />
<g transform="translate(217.829034 38.490414) rotate(198.605853) scale(5.771466 1.000000)"><ellipse fill="#eec095" fill-opacity="0.501961" cx="0" cy="0" rx="1" ry="1" /></g>
<polygon fill="#d18c53" fill-opacity="0.501961" points="190.882120,109.516720,205.486881,85.202452,196.713860,66.900855,203.981150,96.175413" />
<g transform="translate(161 64) rotate(195) scale(5 9)"><rect fill="#633721" fill-opacity="0.501961" x="-0.5" y="-0.5" width="1" height="1" /></g>
<g transform="translate(207.243079 169.000000) rotate(163.435962) scale(1.348492 39.502170)"><ellipse fill="#834c28" fill-opacity="0.501961" cx="0" cy="0" rx="1" ry="1" /></g>
<polygon fill="#8b4e26" fill-opacity="0.501961" points="247,159 271,172 245,185" />
<polygon fill="#bd7642" fill-opacity="0.501961" points="195.783745,152.434306,180.126294,149.640827,190.509107,142.344587,212.060671,143.410926" />
<rect fill="#aa6b40" fill-opacity="0.501961" x="134" y="33" width="3" height="43" />
<g transform="translate(253.557447 81.066880) rotate(83.048931) scale(33.560605 6.229505)"><ellipse fill="#e0c2a5" fill-opacity="0.501961" cx="0" cy="0" rx="1" ry="1" /></g>
<polygon fill="#f6e5e5" fill-opacity="0.501961" points="158.830032,118.545619,155.990416,124.508409,96.318692,137.593638,98.401797,96.144123" />
<g transform="translate(125.356449 72.459775) rotate(244.842409) scale(51.944639 2.038291)"><ellipse fill="#fad8cc" fill-opacity="0.501961" cx="0" cy="0" rx="1" ry="1" /></g>
<polygon fill="#f8d6bd" fill-opacity="0.501961" points="235,68 231,56 237,52" />
<polygon fill="#e2bd9e" fill-opacity="0.501961" points="175.275597,165.561122,163.571401,155.608372,171.568547,137.107529,151.188827,96.053709" />
<polygon fill="#ead2c8" fill-opacity="0.501961" points="20,69 12,19 27,28" />
<g transform="translate(178 130) rotate(280) scale(11 6)"><rect fill="#966039" fill-opacity="0.501961" x="-0.5" y="-0.5" width="1" height="1" /></g>
</g>
</svg>