<svg xmlns="http://www.w3.org/2000/svg" version="1.1" width="1024" height="680">
<rect x="0" y="0" width="1024" height="680" fill="#5d5e5a" />
<g transform="scale(4.000000) translate(0.5 0.5)">
<g transform="translate(205.072712 61.088772) rotate(106.057557) scale(49.920184 19.852374)"><ellipse fill="#ffffff" fill-opacity="0.501961" cx="0" cy="0" rx="1" ry="1" /></g>
<g transform="translate(104.766894 19.778878) rotate(167.866362) scale(49.470542 32.287865)"><ellipse fill="#000000" fill-opacity="0.501961" cx="0" cy="0" rx="1" ry="1" /></g>
<g transform="translate(109.184484 106.424186) rotate(174.892868) scale(46.496761 16.016997)"><ellipse fill="#e0e4e7" fill-opacity="0.501961" cx="0" cy="0" rx="1" ry="1" /></g>
<polygon fill="#000000" fill-opacity="0.501961" points="186,81 131,73 92,-16" />
<g transform="translate(52.920957 54.216806) rotate(306.557327) scale(23.781450 16.836583)"><ellipse fill="#000000" fill-opacity="0.501961" cx="0" cy="0" rx="1" ry="1" /></g>
<g transform="translate(86.840769 159.170058) rotate(95.694825) scale(40.393596 16.954171)"><ellipse fill="#000000" fill-opacity="0.501961" cx="0" cy="0" rx="1" ry="1" /></g>
<polygon fill="#f4fbfd" fill-opacity="0.501961" points="68.784252,66.676857,78.795456,42.991033,88.071509,50.468197,87.561350,75.463289" />
<polygon fill="#d4d6d1" fill-opacity="0.501961" points="157,75 109,151 99,109" />
<g transform="translate(179 47) rotate(191) scale(15 146)"><rect fill="#000503" fill-opacity="0.501961" x="-0.5" y="-0.5" width="1" height="1" /></g>
<g transform="translate(114 64) rotate(287) scale(24 16)"><rect fill="#fcffff" fill-opacity="0.501961" x="-0.5" y="-0.5" width="1" height="1" /></g>
<g transform="translate(231.761847 65.679846) rotate(134.918311) scale(22.942118 15.894416)"><ellipse fill="#3f3a2a" fill-opacity="0.501961" cx="0" cy="0" rx="1" ry="1" /></g>
<polygon fill="#dbeaef" fill-opacity="0.501961" points="226,97 182,102 192,43" />
<ellipse fill="#ad9e8a" fill-opacity="0.501961" cx="160" cy="31" rx="17" ry="17" />
<rect fill="#3a3d3e" fill-opacity="0.501961" x="63" y="76" width="74" height="21" />
<polygon fill="#d5d3c9" fill-opacity="0.501961" points="157,76 126,81 162,102" />
<g transform="translate(80.196601 108.696835) rotate(36.711042) scale(6.424538 24.892231)"><ellipse fill="#ccdae8" fill-opacity="0.501961" cx="0" cy="0" rx="1" ry="1" /></g>
<g transform="translate(51.666386 115.587597) rotate(137.762919) scale(10.752021 15.346424)"><ellipse fill="#0c0b02" fill-opacity="0.501961" cx="0" cy="0" rx="1" ry="1" /></g>
<g transform="translate(235.194444 19.117582) rotate(323.067227) scale(13.839449 26.011292)"><ellipse fill="#979896" fill-opacity="0.501961" cx="0" cy="0" rx="1" ry="1" /></g>
<polygon fill="#060d0e" fill-opacity="0.501961" points="201.924791,-16.000000,128.008692,29.949494,163.038703,-16.000000,192.269472,40.240310" />
<ellipse fill="#73787d" fill-opacity="0.501961" cx="12" cy="120" rx="19" ry="93" />
<g transform="translate(89.121014 26.859418) rotate(-5.148957) scale(29.174144 20.371212)"><ellipse fill="#060b07" fill-opacity="0.501961" cx="0" cy="0" rx="1" ry="1" /></g>
<rect fill="#463d2c" fill-opacity="0.501961" x="129" y="107" width="91" height="26" />
<polygon fill="#928f86" fill-opacity="0.501961" points="67.193010,14.762130,46.673404,-16.000000,31.238514,50.655922,-11.409015,87.094873" />
<g transform="translate(143.601055 53.024793) rotate(351.420797) scale(10.863228 22.833033)"><ellipse fill="#000200" fill-opacity="0.501961" cx="0" cy="0" rx="1" ry="1" /></g>
<g transform="translate(208.088835 50.594303) rotate(234.146587) scale(13.279827 31.967484)"><ellipse fill="#c1cccd" fill-opacity="0.501961" cx="0" cy="0" rx="1" ry="1" /></g>
<polygon fill="#0e1110" fill-opacity="0.501961" points="83,90 113,50 94,56" />
<g transform="translate(228.736595 77.365109) rotate(65.731849) scale(26.592481 14.942713)"><ellipse fill="#5a574d" fill-opacity="0.501961" cx="0" cy="0" rx="1" ry="1" /></g>
<polygon fill="#c3cbcf" fill-opacity="0.501961" points="123,133 100,149 106,92" />
<g transform="translate(53.059425 56.604210) rotate(64.330430) scale(13.829696 16.935894)"><ellipse fill="#000000" fill-opacity="0.501961" cx="0" cy="0" rx="1" ry="1" /></g>
<polygon fill="#13130d" fill-opacity="0.501961" points="117.693154,147.283286,105.365840,166.793649,96.439318,122.560734,56.961275,157.821557" />
<polygon fill="#c6cccb" fill-opacity="0.501961" points="109.660756,81.303609,103.797891,80.677848,109.149898,56.225404,128.551253,66.939509" />
<ellipse fill="#b9c1cb" fill-opacity="0.501961" cx="94" cy="92" rx="3" ry="18" />
<polygon fill="#d0d9db" fill-opacity="0.501961" points="214,105 180,93 206,25" />
<polygon fill="#1f201d" fill-opacity="0.501961" points="94,78 127,82 110,98" />
<polygon fill="#adb9c1" fill-opacity="0.501961" points="63,135 75,142 72,105" />
<polygon fill="#9b988d" fill-opacity="0.501961" points="165.494185,99.029009,144.115244,117.937874,114.023723,101.237797,162.616131,85.026921" />
<g transform="translate(198.232576 0.000000) rotate(202.367923) scale(8.641175 95.485377)"><ellipse fill="#1d2324" fill-opacity="0.501961" cx="0" cy="0" rx="1" ry="1" /></g>
<polygon fill="#0a0b01" fill-opacity="0.501961" points="183,116 174,103 213,121" />
<g transform="translate(82.121316 132.972871) rotate(55.722576) scale(11.381471 7.737120)"><ellipse fill="#00070a" fill-opacity="0.501961" cx="0" cy="0" rx="1" ry="1" /></g>
<polygon fill="#292b25" fill-opacity="0.501961" points="28.446498,80.539988,56.445104,110.252453,76.755258,173.179699,81.213982,185.000000" />
<polygon fill="#938c7e" fill-opacity="0.501961" points="170.647257,1.638085,141.400767,24.128529,166.837395,53.012938,177.819122,18.740148" />
<polygon fill="#b6b9b9" fill-opacity="0.501961" points="199,111 196,86 187,108" />
<polygon fill="#343127" fill-opacity="0.501961" points="246.819798,49.926016,240.139200,23.690748,217.421987,81.524788,211.170739,65.892006" />
<polygon fill="#d7dedf" fill-opacity="0.501961" points="90,73 68,49 89,58" />
<g transform="translate(69 5) rotate(335) scale(8 18)"><rect fill="#000000" fill-opacity="0.501961" x="-0.5" y="-0.5" width="1" height="1" /></g>
<g transform="translate(54.384986 169.000000) rotate(99.714873) scale(14.062375 106.946278)"><ellipse fill="#5d5953" fill-opacity="0.501961" cx="0" cy="0" rx="1" ry="1" /></g>
<polygon fill="#c8d1d2" fill-opacity="0.501961" points="179,101 201,27 236,15" />
<polygon fill="#b7c0c8" fill-opacity="0.501961" points="84,92 111,124 63,101" />
<polygon fill="#151a19" fill-opacity="0.501961" points="67.683116,77.117203,94.387588,79.876322,75.256037,93.303571,43.696211,56.780114" />
<polygon fill="#0d110e" fill-opacity="0.501961" points="177,75 139,41 180,107" />
<polygon fill="#818176" fill-opacity="0.501961" points="47,70 72,118 42,86" />
<polygon fill="#3c392b" fill-opacity="0.501961" points="234.273441,97.839455,183.048449,118.253251,231.230271,115.027009,208.243704,94.045339" />
<polygon fill="#11140f" fill-opacity="0.501961" points="50.130685,25.489699,143.056677,19.153486,146.640740,53.039270,47.156948,31.671424" />
<g transform="translate(169.309289 139.119279) rotate(79.632303) scale(18.929867 53.948376)"><ellipse fill="#5e5549" fill-opacity="0.501961" cx="0" cy="0" rx="1" ry="1" /></g>
<polygon fill="#3d3e3c" fill-opacity="0.501961" points="79.695801,42.875293,90.797187,41.975674,128.291094,43.326074,92.630691,64.080358" />
<g transform="translate(191.304413 43.821491) rotate(29.566835) scale(3.626437 19.996633)"><ellipse fill="#79817a" fill-opacity="0.501961" cx="0" cy="0" rx="1" ry="1" /></g>
<g transform="translate(143 121) rotate(76) scale(11 28)"><rect fill="#2a2519" fill-opacity="0.501961" x="-0.5" y="-0.5" width="1" height="1" /></g>
<polygon fill="#717470" fill-opacity="0.501961" points="141.357833,97.812216,112.529547,76.722516,128.738223,71.643481,119.800097,100.118947" />
<polygon fill="#a8a092" fill-opacity="0.501961" points="156,50 171,53 174,26" />
<ellipse fill="#0d1110" fill-opacity="0.501961" cx="99" cy="70" rx="3" ry="19" />
<polygon fill="#5e6a7c" fill-opacity="0.501961" points="83.225065,132.841602,82.048666,118.157686,98.223461,116.231640,96.952187,120.606085" />
<g transform="translate(124 20) rotate(381) scale(24 15)"><rect fill="#383b39" fill-opacity="0.501961" x="-0.5" y="-0.5" width="1" height="1" /></g>
<polygon fill="#010400" fill-opacity="0.501961" points="158.757864,1.805860,200.425789,-16.000000,131.247120,27.574824,141.088951,23.981623" />
<polygon fill="#686f74" fill-opacity="0.501961" points="20.927243,60.485475,49.956957,39.384555,13.730576,7.866374,-16.000000,161.678457" />
<g transform="translate(239 72) rotate(322) scale(53 18)"><rect fill="#656155" fill-opacity="0.501961" x="-0.5" y="-0.5" width="1" height="1" /></g>
<polygon fill="#696864" fill-opacity="0.501961" points="251.589396,48.382855,235.160715,10.548719,195.454106,23.559667,223.514694,2.826739" />
<polygon fill="#b4b4ae" fill-opacity="0.501961" points="155.024719,77.947550,107.695706,122.970870,109.183273,139.132006,157.459578,90.071483" />
<polygon fill="#121614" fill-opacity="0.501961" points="114.627398,20.590926,135.837033,76.598535,116.663320,93.458937,153.493922,50.066599" />
<polygon fill="#58554a" fill-opacity="0.501961" points="203.235427,133.314158,193.856591,92.050514,202.718921,111.337911,271.000000,148.878492" />
<polygon fill="#716052" fill-opacity="0.501961" points="160,14 156,56 173,16" />
<polygon fill="#979a96" fill-opacity="0.501961" points="231.323124,59.625339,203.139800,56.511986,238.344802,33.221092,220.889203,12.329736" />
<rect fill="#070c0c" fill-opacity="0.501961" x="74" y="126" width="29" height="10" />
<polygon fill="#5b5953" fill-opacity="0.501961" points="29.446077,118.611997,31.881860,101.253283,84.448804,152.809750,76.142923,150.744453" />
<rect fill="#ced8df" fill-opacity="0.501961" x="101" y="96" width="8" height="31" />
<polygon fill="#9b9c91" fill-opacity="0.501961" points="66,13 55,21 58,-5" />
<polygon fill="#232e34" fill-opacity="0.501961" points="37.722006,47.230406,28.139737,57.632863,44.208503,109.797170,42.107392,79.842400" />
<ellipse fill="#88a8bf" fill-opacity="0.501961" cx="68" cy="78" rx="3" ry="3" />
<rect fill="#aba99f" fill-opacity="0.501961" x="39" y="13" width="5" height="24" />
<polygon fill="#151919" fill-opacity="0.501961" points="178.320205,31.785776,176.467999,5.461710,193.469592,35.924018,167.420192,55.841765" />
<polygon fill="#080a02" fill-opacity="0.501961" points="44,105 65,113 61,125" />
<g transform="translate(76.592783 83.100923) rotate(174.409773) scale(3.223335 12.006234)"><ellipse fill="#131411" fill-opacity="0.501961" cx="0" cy="0" rx="1" ry="1" /></g>
<polygon fill="#3b3d3b" fill-opacity="0.501961" points="70,26 93,17 77,6" />
<polygon fill="#18180d" fill-opacity="0.501961" points="62.308033,145.353745,121.783168,154.607911,109.438249,155.216805,76.892879,162.242049" />
<polygon fill="#151a19" fill-opacity="0.501961" points="174.899156,66.271251,120.620510,63.553748,180.995595,89.997411,181.108443,8.040294" />
<g transform="translate(125 56) rotate(169) scale(8 13)"><rect fill="#484f52" fill-opacity="0.501961" x="-0.5" y="-0.5" width="1" height="1" /></g>
<g transform="translate(195.873016 169.000000) rotate(77.652632) scale(23.337963 71.431384)"><ellipse fill="#6b665e" fill-opacity="0.501961" cx="0" cy="0" rx="1" ry="1" /></g>
<polygon fill="#494439" fill-opacity="0.501961" points="142.660863,126.678965,172.063086,131.791817,178.200188,96.497187,168.325744,88.501158" />
<polygon fill="#a9aba9" fill-opacity="0.501961" points="120.012015,46.156907,110.458486,87.518567,101.810207,76.140983,107.504122,54.672906" />
<polygon fill="#5c5245" fill-opacity="0.501961" points="143.884484,36.098595,179.857342,74.733998,151.320139,47.763020,168.868516,42.932989" />
<polygon fill="#d1dbdd" fill-opacity="0.501961" points="221.722233,98.358912,194.348142,41.451328,201.241214,29.117724,189.861794,82.427833" />
<polygon fill="#6b7074" fill-opacity="0.501961" points="97.686919,43.337065,98.735882,59.877959,93.865182,58.622403,98.086214,36.218813" />
<polygon fill="#a8abaa" fill-opacity="0.501961" points="75.187293,44.077291,71.850237,55.281915,68.518586,68.476279,86.768550,77.222432" />
<g transform="translate(197.312728 0.000000) rotate(329.656605) scale(18.663266 12.970122)"><ellipse fill="#303639" fill-opacity="0.501961" cx="0" cy="0" rx="1" ry="1" /></g>
<polygon fill="#3e3d34" fill-opacity="0.501961" points="56.407314,71.619953,48.665636,73.092586,66.481631,95.266291,57.807949,109.970548" />
<polygon fill="#1a1c18" fill-opacity="0.501961" points="134.762795,86.499153,148.647845,56.105087,153.860530,55.076009,161.942127,55.626395" />
<polygon fill="#83827c" fill-opacity="0.501961" points="103.654942,152.404409,115.073830,146.251130,124.664329,133.427797,93.368920,142.311258" />
<polygon fill="#b4bfc7" fill-opacity="0.501961" points="83.842769,114.433253,82.375704,94.666657,79.417366,93.746728,66.117995,138.155850" />
<polygon fill="#473f31" fill-opacity="0.501961" points="105.339715,160.377581,71.495402,162.494323,107.839945,185.000000,129.177596,127.425867" />
<polygon fill="#aab9c0" fill-opacity="0.501961" points="182,103 180,93 192,80" />
<polygon fill="#252623" fill-opacity="0.501961" points="66.302035,35.813253,71.735159,30.824648,69.736300,59.732318,41.532119,22.664513" />
<g transform="translate(23.347449 121.070269) rotate(349.283920) scale(11.769430 82.924207)"><ellipse fill="#6c6f71" fill-opacity="0.501961" cx="0" cy="0" rx="1" ry="1" /></g>
<g transform="translate(114 63) rotate(299) scale(14 10)"><rect fill="#d0d8da" fill-opacity="0.501961" x="-0.5" y="-0.5" width="1" height="1" /></g>
<polygon fill="#868178" fill-opacity="0.501961" points="114,100 138,94 139,77" />
<ellipse fill="#93a4ac" fill-opacity="0.501961" cx="184" cy="74" rx="3" ry="22" />
<polygon fill="#afb1b0" fill-opacity="0.501961" points="105.192277,143.633685,115.810410,90.294289,132.727667,118.021628,113.014425,147.341821" />
<rect fill="#c0c7c8" fill-opacity="0.501961" x="199" y="100" width="18" height="3" />
<polygon fill="#17180f" fill-opacity="0.501961" points="206,107 214,104 211,115" />
<polygon fill="#7a7a73" fill-opacity="0.501961" points="42.024523,66.681034,49.002104,101.674365,97.050635,88.713275,63.189601,102.377207" />
<polygon fill="#58574f" fill-opacity="0.501961" points="59.488887,103.893885,73.728186,122.320270,46.403758,103.117319,86.332654,79.349209" />
<polygon fill="#5d5d56" fill-opacity="0.501961" points="175.792505,68.202376,150.377355,48.833140,173.151012,52.542858,168.052197,50.431614" />
<g transform="translate(153 29) rotate(52) scale(20 11)"><rect fill="#9b988d" fill-opacity="0.501961" x="-0.5" y="-0.5" width="1" height="1" /></g>
<g transform="translate(150.327640 83.278347) rotate(182.481822) scale(9.035322 7.450342)"><ellipse fill="#b1b0a7" fill-opacity="0.501961" cx="0" cy="0" rx="1" ry="1" /></g>
<g transform="translate(227.552844 145.230525) rotate(55.082475) scale(4.461953 4.584914)"><ellipse fill="#959285" fill-opacity="0.501961" cx="0" cy="0" rx="1" ry="1" /></g>
<polygon fill="#060804" fill-opacity="0.501961" points="79.844040,145.589400,74.943840,135.341521,98.488115,131.536687,99.060438,145.424202" />
<rect fill="#615f61" fill-opacity="0.501961" x="85" y="89" width="5" height="12" />
<polygon fill="#655d51" fill-opacity="0.501961" points="49.181910,26.476488,44.534611,-16.000000,59.109018,24.657570,48.425052,32.922918" />
<polygon fill="#38342a" fill-opacity="0.501961" points="218.205845,61.611113,215.985823,86.140965,237.152029,37.490658,239.411434,63.369439" />
<polygon fill="#5d574c" fill-opacity="0.501961" points="176.797760,106.400363,194.389502,131.768084,76.029974,185.000000,164.199158,116.378129" />
<polygon fill="#8d929a" fill-opacity="0.501961" points="85.864753,111.019224,91.341953,126.771060,95.154467,70.493891,100.262705,107.529618" />
<polygon fill="#0b100d" fill-opacity="0.501961" points="33.403175,68.083451,51.279141,71.671650,59.155070,88.831711,48.155891,42.852733" />
<g transform="translate(255 7) rotate(230) scale(27 13)"><rect fill="#3f4036" fill-opacity="0.501961" x="-0.5" y="-0.5" width="1" height="1" /></g>
<polygon fill="#cad1d3" fill-opacity="0.501961" points="71,62 90,66 82,46" />
<rect fill="#010a07" fill-opacity="0.501961" x="116" y="77" width="3" height="9" />
<polygon fill="#0f110e" fill-opacity="0.501961" points="105.838551,36.050970,176.743781,67.537031,152.698794,55.687380,144.213431,28.025269" />
<g transform="translate(5 0) rotate(168) scale(67 23)"><rect fill="#454a4e" fill-opacity="0.501961" x="-0.5" y="-0.5" width="1" height="1" /></g>
<ellipse fill="#5f5b50" fill-opacity="0.501961" cx="253" cy="105" rx="30" ry="54" />
<rect fill="#7b98ac" fill-opacity="0.501961" x="118" y="79" width="8" height="5" />
<polygon fill="#252623" fill-opacity="0.501961" points="81.417003,83.626622,75.756783,71.640378,73.405567,101.011632,136.892156,16.862587" />
<ellipse fill="#6f716e" fill-opacity="0.501961" cx="72" cy="143" rx="5" ry="5" />
<polygon fill="#969d9d" fill-opacity="0.501961" points="204.902599,56.706498,217.948365,55.402842,228.152316,51.807943,209.712539,68.563352" />
<polygon fill="#736e64" fill-opacity="0.501961" points="230.820194,48.246894,242.112952,26.946649,223.169847,31.656972,231.405220,34.201494" />
<polygon fill="#353936" fill-opacity="0.501961" points="44.874170,74.734506,76.042561,73.818510,81.062276,68.956316,56.167438,74.327826" />
<polygon fill="#21292a" fill-opacity="0.501961" points="186,-16 137,16 49,-4" />
<polygon fill="#2f2e25" fill-opacity="0.501961" points="174.536511,87.895089,138.866607,127.210381,177.414144,102.624298,181.283277,83.074510" />
<polygon fill="#0a0d0a" fill-opacity="0.501961" points="115,-1 56,44 112,24" />
<polygon fill="#c1c8cc" fill-opacity="0.501961" points="96.730281,117.771451,112.034531,139.071915,113.091751,108.285795,103.081451,92.009813" />
<g transform="translate(56 67) rotate(57) scale(43 1)"><rect fill="#070b08" fill-opacity="0.501961" x="-0.5" y="-0.5" width="1" height="1" /></g>
<polygon fill="#5f5d59" fill-opacity="0.501961" points="60.168340,144.659224,72.636663,166.189111,147.805098,185.000000,-16.000000,162.709050" />
<ellipse fill="#b8bdc3" fill-opacity="0.501961" cx="94" cy="91" rx="2" ry="14" />
<polygon fill="#1c1b12" fill-opacity="0.501961" points="59.724193,137.821442,62.866721,150.576571,105.760983,155.748427,86.427093,165.961354" />
<g transform="translate(164 48) rotate(-10) scale(13 6)"><rect fill="#b8af9b" fill-opacity="0.501961" x="-0.5" y="-0.5" width="1" height="1" /></g>
<rect fill="#adb6bb" fill-opacity="0.501961" x="69" y="95" width="3" height="39" />
<ellipse fill="#888f93" fill-opacity="0.501961" cx="95" cy="79" rx="1" ry="31" />
<polygon fill="#505960" fill-opacity="0.501961" points="28.719693,115.726471,26.017788,57.270366,50.904417,100.696733,38.350154,88.507196" />
<g transform="translate(244.470039 18.798012) rotate(338.264304) scale(2.075108 17.299856)"><ellipse fill="#939999" fill-opacity="0.501961" cx="0" cy="0" rx="1" ry="1" /></g>
<polygon fill="#8d8d82" fill-opacity="0.501961" points="162,8 175,2 174,20" />
<rect fill="#889aa4" fill-opacity="0.501961" x="71" y="69" width="2" height="11" />
<polygon fill="#0b0e0c" fill-opacity="0.501961" points="190.256240,2.628525,164.349136,2.656527,115.375051,48.012272,165.870089,-3.474807" />
<g transform="translate(109.689487 92.717231) rotate(67.359064) scale(8.899338 2.850248)"><ellipse fill="#353430" fill-opacity="0.501961" cx="0" cy="0" rx="1" ry="1" /></g>
<ellipse fill="#afb4b2" fill-opacity="0.501961" cx="224" cy="23" rx="9" ry="9" />
<ellipse fill="#acaaa1" fill-opacity="0.501961" cx="83" cy="71" rx="3" ry="9" />
<g transform="translate(132.112762 64.175440) rotate(192.175509) scale(7.002864 9.375155)"><ellipse fill="#1c2223" fill-opacity="0.501961" cx="0" cy="0" rx="1" ry="1" /></g>
<polygon fill="#555e6d" fill-opacity="0.501961" points="104.917915,124.162616,78.914273,119.084764,90.834872,133.513573,95.432484,118.493838" />
<g transform="translate(68 8) rotate(347) scale(6 25)"><rect fill="#000501" fill-opacity="0.501961" x="-0.5" y="-0.5" width="1" height="1" /></g>
<polygon fill="#272826" fill-opacity="0.501961" points="84.443530,41.235357,79.047512,30.134892,93.085667,69.606647,94.449729,30.880802" />
<g transform="translate(184.473277 109.866211) rotate(41.656991) scale(16.294970 2.330716)"><ellipse fill="#1e1f17" fill-opacity="0.501961" cx="0" cy="0" rx="1" ry="1" /></g>
<polygon fill="#5a5f63" fill-opacity="0.501961" points="32,-8 41,43 -16,29" />
<polygon fill="#c7d3d6" fill-opacity="0.501961" points="196,109 184,94 188,61" />
<rect fill="#4d585c" fill-opacity="0.501961" x="181" y="58" width="2" height="29" />
<polygon fill="#9a9589" fill-opacity="0.501961" points="162,98 135,102 115,122" />
<polygon fill="#2c3336" fill-opacity="0.501961" points="51.460048,108.763045,35.834471,106.647266,33.662895,92.704074,38.805826,92.916869" />
<polygon fill="#808079" fill-opacity="0.501961" points="41.758440,71.627144,53.234531,94.294723,54.693899,76.134967,57.665514,77.014563" />
<polygon fill="#6e706d" fill-opacity="0.501961" points="187.446201,43.078534,223.592141,0.434269,214.012054,4.469681,197.836979,26.268928" />
<g transform="translate(202 108) rotate(443) scale(8 7)"><rect fill="#8c857a" fill-opacity="0.501961" x="-0.5" y="-0.5" width="1" height="1" /></g>
<polygon fill="#272a29" fill-opacity="0.501961" points="100,93 103,72 96,73" />
<rect fill="#92918b" fill-opacity="0.501961" x="113" y="72" width="14" height="3" />
<polygon fill="#343122" fill-opacity="0.501961" points="190.645463,120.532474,208.981161,119.755264,221.193622,106.139120,221.856438,102.116585" />
<polygon fill="#070a07" fill-opacity="0.501961" points="69.313817,14.157880,72.398801,14.373846,56.709878,43.099536,54.175106,31.469198" />
<polygon fill="#222625" fill-opacity="0.501961" points="89.086774,71.693454,85.198649,92.080289,91.149280,88.340447,89.744980,73.448773" />
<rect fill="#9a9587" fill-opacity="0.501961" x="41" y="0" width="5" height="37" />
<rect fill="#080d0b" fill-opacity="0.501961" x="37" y="54" width="29" height="15" />
<polygon fill="#4b3e33" fill-opacity="0.501961" points="150.207914,45.316775,164.509644,30.817599,155.773418,45.483846,141.751040,55.043164" />
<polygon fill="#1a1e1c" fill-opacity="0.501961" points="180.944959,41.610350,189.697755,48.588871,187.179285,26.434281,171.299317,-16.000000" />
<polygon fill="#50493b" fill-opacity="0.501961" points="133.406003,112.797573,118.759303,141.762677,143.969665,120.562355,136.388273,146.050217" />
<rect fill="#b7b6b3" fill-opacity="0.501961" x="131" y="79" width="3" height="7" />
<polygon fill="#908e88" fill-opacity="0.501961" points="160.327070,31.913686,174.029930,43.948125,176.472975,27.653420,140.053368,27.132693" />
<polygon fill="#716d67" fill-opacity="0.501961" points="108.438595,94.801119,113.126400,93.172563,131.938853,100.383081,138.984654,82.694885" />
<rect fill="#7d8381" fill-opacity="0.501961" x="63" y="102" width="4" height="38" />
<rect fill="#40474b" fill-opacity="0.501961" x="35" y="0" width="5" height="24" />
<rect fill="#090c05" fill-opacity="0.501961" x="190" y="113" width="11" height="4" />
</g>
</svg>