<svg xmlns="http://www.w3.org/2000/svg" version="1.1" width="1024" height="768">
<rect x="0" y="0" width="1024" height="768" fill="#c0bab2" />
<g transform="scale(4.000000) translate(0.5 0.5)">
<g transform="translate(139.827950 135.291634) rotate(-15.503270) scale(31.223639 91.969101)"><ellipse fill="#935b2d" fill-opacity="0.501961" cx="0" cy="0" rx="1" ry="1" /></g>
<g transform="translate(144.636985 0.000000) rotate(191.934422) scale(211.890507 47.976378)"><ellipse fill="#fdffff" fill-opacity="0.501961" cx="0" cy="0" rx="1" ry="1" /></g>
<g transform="translate(211 107) rotate(75) scale(66 30)"><rect fill="#221c27" fill-opacity="0.501961" x="-0.5" y="-0.5" width="1" height="1" /></g>
<ellipse fill="#edaf47" fill-opacity="0.501961" cx="44" cy="50" rx="96" ry="31" />
<ellipse fill="#ddf7ff" fill-opacity="0.501961" cx="72" cy="113" rx="43" ry="43" />
<g transform="translate(118.149186 151.582256) rotate(158.777462) scale(31.535405 11.906135)"><ellipse fill="#782500" fill-opacity="0.501961" cx="0" cy="0" rx="1" ry="1" /></g>
<ellipse fill="#c3e1ff" fill-opacity="0.501961" cx="15" cy="125" rx="75" ry="41" />
<rect fill="#582f12" fill-opacity="0.501961" x="104" y="66" width="75" height="16" />
<ellipse fill="#d3f1ff" fill-opacity="0.501961" cx="226" cy="155" rx="94" ry="12" />
<g transform="translate(243.642727 91.695459) rotate(247.027432) scale(87.315232 20.728454)"><ellipse fill="#93c5fd" fill-opacity="0.501961" cx="0" cy="0" rx="1" ry="1" /></g>
<polygon fill="#ffffff" fill-opacity="0.501961" points="138,97 145,74 210,100" />
<ellipse fill="#9298be" fill-opacity="0.501961" cx="172" cy="185" rx="255" ry="17" />
<rect fill="#655c5a" fill-opacity="0.501961" x="199" y="25" width="18" height="109" />
<polygon fill="#4a4239" fill-opacity="0.501961" points="142.095415,89.658946,175.085967,122.889472,184.560855,158.047184,152.060647,143.522316" />
<polygon fill="#a15200" fill-opacity="0.501961" points="127.679868,61.722459,129.249227,168.372239,92.989498,160.574733,119.563040,106.835017" />
<g transform="translate(91.597326 10.141161) rotate(268.451943) scale(11.086607 194.651766)"><ellipse fill="#f9ffff" fill-opacity="0.501961" cx="0" cy="0" rx="1" ry="1" /></g>
<rect fill="#d7f2ff" fill-opacity="0.501961" x="158" y="92" width="43" height="26" />
<rect fill="#ebf3ff" fill-opacity="0.501961" x="0" y="91" width="143" height="19" />
<polygon fill="#793300" fill-opacity="0.501961" points="106.587121,77.192921,105.878367,51.062200,114.794436,54.782588,133.636499,125.333620" />
<g transform="translate(243.716712 64.358177) rotate(175.484126) scale(15.509152 52.825692)"><ellipse fill="#cbeeff" fill-opacity="0.501961" cx="0" cy="0" rx="1" ry="1" /></g>
<polygon fill="#efc366" fill-opacity="0.501961" points="83.862847,26.270138,182.169454,21.862463,203.566939,20.409005,198.794518,37.390420" />
<rect fill="#170000" fill-opacity="0.501961" x="59" y="161" width="56" height="3" />
<polygon fill="#5c5b64" fill-opacity="0.501961" points="258,136 173,67 222,138" />
<rect fill="#ebd09a" fill-opacity="0.501961" x="54" y="20" width="51" height="66" />
<polygon fill="#d0efff" fill-opacity="0.501961" points="186,134 271,143 216,168" />
<rect fill="#000010" fill-opacity="0.501961" x="144" y="97" width="16" height="15" />
<polygon fill="#fef7eb" fill-opacity="0.501961" points="222,55 126,57 147,23" />
<ellipse fill="#ca9c55" fill-opacity="0.501961" cx="20" cy="54" rx="38" ry="29" />
<polygon fill="#000005" fill-opacity="0.501961" points="167,83 165,69 181,75" />
<ellipse fill="#8c8590" fill-opacity="0.501961" cx="252" cy="183" rx="71" ry="17" />
<g transform="translate(183.880651 64.548801) rotate(-58.640276) scale(9.596818 10.784274)"><ellipse fill="#f2ffff" fill-opacity="0.501961" cx="0" cy="0" rx="1" ry="1" /></g>
<polygon fill="#fff8f0" fill-opacity="0.501961" points="127.708025,106.169143,151.666179,69.354269,162.320902,93.440322,160.693378,91.326458" />
<rect fill="#342b1b" fill-opacity="0.501961" x="133" y="167" width="35" height="5" />
<polygon fill="#a4acb8" fill-opacity="0.501961" points="182.181846,206.593262,12.493468,207.000000,197.869163,161.762931,173.153709,107.749726" />
<polygon fill="#ffc387" fill-opacity="0.501961" points="114,80 117,64 145,52" />
<g transform="translate(44.784347 128.623983) rotate(92.591084) scale(10.437646 58.662182)"><ellipse fill="#a2b9db" fill-opacity="0.501961" cx="0" cy="0" rx="1" ry="1" /></g>
<polygon fill="#421c00" fill-opacity="0.501961" points="114,91 147,70 104,78" />
<polygon fill="#655540" fill-opacity="0.501961" points="217.144090,96.430194,183.703980,89.172374,203.374798,54.803880,201.719851,58.737293" />
<rect fill="#d5f0ff" fill-opacity="0.501961" x="188" y="92" width="9" height="51" />
<polygon fill="#ebcf98" fill-opacity="0.501961" points="94,20 36,92 159,21" />
<polygon fill="#a06f44" fill-opacity="0.501961" points="61,152 53,165 94,163" />
<polygon fill="#d28d47" fill-opacity="0.501961" points="121,147 137,170 159,160" />
<ellipse fill="#f6ffff" fill-opacity="0.501961" cx="176" cy="0" rx="255" ry="15" />
<polygon fill="#f8ac56" fill-opacity="0.501961" points="114,140 88,160 122,99" />
<g transform="translate(219.178122 79.350719) rotate(167.006973) scale(5.762748 64.652415)"><ellipse fill="#808ba3" fill-opacity="0.501961" cx="0" cy="0" rx="1" ry="1" /></g>
<g transform="translate(115 161) rotate(189) scale(34 8)"><rect fill="#422303" fill-opacity="0.501961" x="-0.5" y="-0.5" width="1" height="1" /></g>
<polygon fill="#673e11" fill-opacity="0.501961" points="103.863056,156.020286,167.984092,143.134579,162.595675,133.700827,78.993896,163.112192" />
<polygon fill="#f1b478" fill-opacity="0.501961" points="146.219361,144.705436,141.244853,86.777675,114.506592,74.183299,122.284165,83.375690" />
<ellipse fill="#b7b6c6" fill-opacity="0.501961" cx="96" cy="181" rx="47" ry="17" />
<polygon fill="#b0927f" fill-opacity="0.501961" points="165.748400,48.208175,168.355276,88.603185,148.710022,76.861559,137.809608,66.788172" />
<g transform="translate(37.942938 19.634249) rotate(0.361478) scale(80.982410 5.899964)"><ellipse fill="#c9cbce" fill-opacity="0.501961" cx="0" cy="0" rx="1" ry="1" /></g>
<polygon fill="#954c00" fill-opacity="0.501961" points="135,132 124,95 115,117" />
<polygon fill="#d8ecff" fill-opacity="0.501961" points="124.086045,100.207440,115.740981,92.370690,62.651083,89.801515,97.835363,127.884819" />
<g transform="translate(209.072745 60.454339) rotate(197.894017) scale(1.908590 50.251117)"><ellipse fill="#bdc9d0" fill-opacity="0.501961" cx="0" cy="0" rx="1" ry="1" /></g>
<ellipse fill="#430e00" fill-opacity="0.501961" cx="107" cy="63" rx="4" ry="8" />
<polygon fill="#d19d6c" fill-opacity="0.501961" points="161.353472,118.428372,135.620340,113.418190,122.599243,148.291848,140.496762,135.361578" />
<ellipse fill="#cedbf8" fill-opacity="0.501961" cx="20" cy="147" rx="63" ry="12" />
<polygon fill="#deb97c" fill-opacity="0.501961" points="54.910354,15.578456,39.339897,83.568090,104.517600,83.065604,64.225644,60.050365" />
<polygon fill="#d4e2e8" fill-opacity="0.501961" points="155.493747,111.989779,191.834394,113.657658,184.937677,86.513104,201.740761,62.104601" />
<rect fill="#000000" fill-opacity="0.501961" x="133" y="70" width="6" height="13" />
<g transform="translate(194 83) rotate(302) scale(19 7)"><rect fill="#382306" fill-opacity="0.501961" x="-0.5" y="-0.5" width="1" height="1" /></g>
<g transform="translate(202.454153 38.479239) rotate(241.811153) scale(10.755867 5.835710)"><ellipse fill="#8c7252" fill-opacity="0.501961" cx="0" cy="0" rx="1" ry="1" /></g>
<polygon fill="#8ea0a9" fill-opacity="0.501961" points="154,164 196,154 187,177" />
<g transform="translate(151 167) rotate(170) scale(8 9)"><rect fill="#20130b" fill-opacity="0.501961" x="-0.5" y="-0.5" width="1" height="1" /></g>
<g transform="translate(246.759627 66.717837) rotate(155.535843) scale(24.237099 60.489160)"><ellipse fill="#bedbfa" fill-opacity="0.501961" cx="0" cy="0" rx="1" ry="1" /></g>
<polygon fill="#fef7f3" fill-opacity="0.501961" points="181.222417,105.769144,134.085290,87.899727,132.884299,114.943306,147.100930,78.783539" />
<polygon fill="#968668" fill-opacity="0.501961" points="164,134 178,160 178,107" />
<g transform="translate(167.629137 156.239231) rotate(208.410162) scale(10.408581 4.605798)"><ellipse fill="#ecf6fa" fill-opacity="0.501961" cx="0" cy="0" rx="1" ry="1" /></g>
<g transform="translate(229.642362 153.395624) rotate(186.829192) scale(40.577466 12.358487)"><ellipse fill="#cfe4ff" fill-opacity="0.501961" cx="0" cy="0" rx="1" ry="1" /></g>
<polygon fill="#627a9c" fill-opacity="0.501961" points="271.000000,138.536882,223.565611,140.759633,204.783359,138.120487,257.372711,127.157929" />
<polygon fill="#ffffff" fill-opacity="0.501961" points="175,33 138,54 139,29" />
<polygon fill="#edc56f" fill-opacity="0.501961" points="199.313869,40.440687,199.278001,26.044229,165.179727,27.305150,153.165143,29.693613" />
<polygon fill="#3f270e" fill-opacity="0.501961" points="148.787932,130.375896,166.453238,132.360879,167.534880,130.126588,166.022863,120.696430" />
<polygon fill="#604934" fill-opacity="0.501961" points="176.387976,69.073287,152.926137,75.475024,158.986908,54.807515,165.781114,80.293918" />
<polygon fill="#625350" fill-opacity="0.501961" points="228.387786,135.522267,210.603159,62.651170,200.040934,141.422096,204.684883,136.653207" />
<g transform="translate(122 55) rotate(243) scale(6 12)"><rect fill="#964707" fill-opacity="0.501961" x="-0.5" y="-0.5" width="1" height="1" /></g>
<g transform="translate(144 154) rotate(244) scale(7 27)"><rect fill="#ffd0a6" fill-opacity="0.501961" x="-0.5" y="-0.5" width="1" height="1" /></g>
<polygon fill="#f1efe0" fill-opacity="0.501961" points="213.528445,60.448227,144.987508,1.492508,202.023703,51.122234,207.115921,68.484527" />
<polygon fill="#98acc5" fill-opacity="0.501961" points="198.693938,87.588180,195.196105,131.367923,184.538394,158.798046,203.709923,129.557420" />
<polygon fill="#796d64" fill-opacity="0.501961" points="182.760987,78.100023,190.931906,50.999703,222.859116,141.735976,191.892102,47.771677" />
<polygon fill="#8aa7c9" fill-opacity="0.501961" points="208,18 224,48 221,75" />
<polygon fill="#d3e0e1" fill-opacity="0.501961" points="168.326914,138.827117,183.515128,124.816435,201.286723,139.933249,168.581557,131.032080" />
<polygon fill="#b97532" fill-opacity="0.501961" points="137.042956,78.641659,131.676539,96.427021,116.410241,114.136047,123.948884,84.553016" />
<rect fill="#d6b36d" fill-opacity="0.501961" x="37" y="27" width="120" height="4" />
<rect fill="#f0fdff" fill-opacity="0.501961" x="184" y="38" width="8" height="39" />
<g transform="translate(147 71) rotate(335) scale(1 20)"><rect fill="#e9eafa" fill-opacity="0.501961" x="-0.5" y="-0.5" width="1" height="1" /></g>
<g transform="translate(151 105) rotate(141) scale(12 6)"><rect fill="#000000" fill-opacity="0.501961" x="-0.5" y="-0.5" width="1" height="1" /></g>
<rect fill="#a89da7" fill-opacity="0.501961" x="65" y="165" width="64" height="8" />
<polygon fill="#ecd39f" fill-opacity="0.501961" points="122.796090,39.912658,150.520583,26.676606,64.933296,42.879812,87.729676,74.300791" />
<polygon fill="#8f592b" fill-opacity="0.501961" points="153,170 154,156 149,151" />
<ellipse fill="#00020f" fill-opacity="0.501961" cx="170" cy="76" rx="5" ry="5" />
<polygon fill="#bec2c4" fill-opacity="0.501961" points="186.119566,91.292828,140.794473,71.658599,182.098565,101.929776,198.401371,90.650800" />
<polygon fill="#dbc9b2" fill-opacity="0.501961" points="138.016457,60.202165,190.496119,50.595905,174.723417,68.518202,160.971130,60.169361" />
<polygon fill="#959d97" fill-opacity="0.501961" points="169.574385,127.469004,180.102335,126.613647,171.042618,180.312741,191.580129,141.899897" />
<polygon fill="#784110" fill-opacity="0.501961" points="128.698386,112.573384,124.652331,114.126880,119.342393,124.929191,140.828123,116.017528" />
<polygon fill="#92abd2" fill-opacity="0.501961" points="226,109 260,129 232,127" />
<rect fill="#ae8034" fill-opacity="0.501961" x="254" y="22" width="2" height="12" />
<rect fill="#efb780" fill-opacity="0.501961" x="52" y="155" width="36" height="5" />
<ellipse fill="#d2e6fa" fill-opacity="0.501961" cx="35" cy="101" rx="83" ry="13" />
<polygon fill="#652500" fill-opacity="0.501961" points="105,62 114,90 106,84" />
<rect fill="#c89a53" fill-opacity="0.501961" x="0" y="27" width="61" height="10" />
<ellipse fill="#ffdab3" fill-opacity="0.501961" cx="134" cy="107" rx="8" ry="5" />
<polygon fill="#ebf7fe" fill-opacity="0.501961" points="184.341280,89.826789,176.360637,111.817768,168.276343,108.032866,156.364021,89.721547" />
<polygon fill="#6e5337" fill-opacity="0.501961" points="178,156 153,133 174,141" />
<polygon fill="#573b22" fill-opacity="0.501961" points="145.489157,137.036486,145.013175,148.654363,161.960282,138.536397,173.452241,151.502355" />
<rect fill="#c3c2ce" fill-opacity="0.501961" x="76" y="179" width="90" height="6" />
<polygon fill="#efe2d3" fill-opacity="0.501961" points="173.024706,158.122523,151.051300,157.490148,156.385896,145.322860,174.589903,152.718792" />
<ellipse fill="#00070c" fill-opacity="0.501961" cx="134" cy="76" rx="6" ry="5" />
<polygon fill="#d6924d" fill-opacity="0.501961" points="140.544365,69.364867,112.316745,66.318215,135.309621,37.990929,104.030590,53.090130" />
<polygon fill="#988a79" fill-opacity="0.501961" points="161.765591,136.718411,143.474830,136.862881,173.528337,126.754042,189.849391,142.648057" />
<polygon fill="#f6feff" fill-opacity="0.501961" points="213.248692,13.617301,258.128966,23.693362,259.802190,-16.000000,-7.825956,0.517055" />
<ellipse fill="#e69e56" fill-opacity="0.501961" cx="114" cy="114" rx="6" ry="5" />
<polygon fill="#eeb87a" fill-opacity="0.501961" points="116.216038,74.397875,121.685984,59.912465,130.311649,58.604477,123.076951,75.633095" />
<polygon fill="#f8d3b9" fill-opacity="0.501961" points="80,158 112,122 98,151" />
<g transform="translate(116 151) rotate(61) scale(9 25)"><rect fill="#7a3800" fill-opacity="0.501961" x="-0.5" y="-0.5" width="1" height="1" /></g>
<g transform="translate(45.227542 125.173876) rotate(103.489576) scale(13.032967 53.052389)"><ellipse fill="#b3c9e2" fill-opacity="0.501961" cx="0" cy="0" rx="1" ry="1" /></g>
<g transform="translate(26.404322 12.368279) rotate(1.069816) scale(102.247363 4.379143)"><ellipse fill="#ddebf7" fill-opacity="0.501961" cx="0" cy="0" rx="1" ry="1" /></g>
<polygon fill="#e3e4e2" fill-opacity="0.501961" points="96.044749,74.339706,106.408558,78.893838,67.010665,92.540592,116.243604,98.597231" />
<rect fill="#453829" fill-opacity="0.501961" x="200" y="54" width="4" height="15" />
<polygon fill="#4a6277" fill-opacity="0.501961" points="173,163 163,171 180,165" />
<ellipse fill="#b8afbd" fill-opacity="0.501961" cx="33" cy="171" rx="92" ry="7" />
<ellipse fill="#c6dcf5" fill-opacity="0.501961" cx="255" cy="85" rx="25" ry="38" />
<g transform="translate(143.688611 78.658160) rotate(123.105293) scale(12.530678 1.933270)"><ellipse fill="#bd7f52" fill-opacity="0.501961" cx="0" cy="0" rx="1" ry="1" /></g>
<g transform="translate(189 181) rotate(253) scale(23 1)"><rect fill="#5d5056" fill-opacity="0.501961" x="-0.5" y="-0.5" width="1" height="1" /></g>
<polygon fill="#a19ba7" fill-opacity="0.501961" points="62.593883,207.000000,141.432818,176.231567,146.623996,161.978332,147.169161,182.066852" />
<polygon fill="#5d5250" fill-opacity="0.501961" points="212.362536,135.665077,201.114189,90.609899,223.243177,127.457215,261.334798,135.874623" />
<polygon fill="#807a75" fill-opacity="0.501961" points="176,84 184,75 164,83" />
<polygon fill="#f5e6df" fill-opacity="0.501961" points="157,63 146,43 129,51" />
<rect fill="#e6c886" fill-opacity="0.501961" x="72" y="27" width="63" height="12" />
<ellipse fill="#9ebadd" fill-opacity="0.501961" cx="241" cy="139" rx="49" ry="2" />
<polygon fill="#e1be9d" fill-opacity="0.501961" points="178.182151,52.803626,132.035245,63.306257,145.191135,69.133359,154.702187,49.577032" />
<polygon fill="#d9e7ed" fill-opacity="0.501961" points="183.654208,132.196211,203.779521,153.742706,180.756854,102.519666,198.131471,90.740710" />
<g transform="translate(73.120281 163.023793) rotate(87.582302) scale(1.508546 8.438369)"><ellipse fill="#373026" fill-opacity="0.501961" cx="0" cy="0" rx="1" ry="1" /></g>
<polygon fill="#8d93a6" fill-opacity="0.501961" points="159,103 155,118 162,122" />
<g transform="translate(151 113) rotate(165) scale(6 4)"><rect fill="#0c131f" fill-opacity="0.501961" x="-0.5" y="-0.5" width="1" height="1" /></g>
<polygon fill="#f2e0c0" fill-opacity="0.501961" points="113.396996,48.945090,93.143202,51.027739,77.821490,56.536852,140.023433,32.066915" />
<polygon fill="#9d7a6a" fill-opacity="0.501961" points="137.331748,116.980075,150.701454,123.796398,146.334667,105.067549,139.882942,109.154343" />
<ellipse fill="#dfcec2" fill-opacity="0.501961" cx="16" cy="85" rx="85" ry="4" />
<polygon fill="#c8e6fd" fill-opacity="0.501961" points="243,33 262,14 194,11" />
<polygon fill="#bbb5c2" fill-opacity="0.501961" points="206.872961,166.873771,152.387049,174.723646,191.491738,207.000000,149.580295,180.965082" />
<polygon fill="#828a9d" fill-opacity="0.501961" points="229.870583,126.708603,217.583715,53.929680,222.266893,57.956620,199.997816,16.291322" />
<polygon fill="#c17a2d" fill-opacity="0.501961" points="105.937275,138.433254,105.484440,155.616326,116.853941,120.110504,142.921513,148.031427" />
<polygon fill="#58402a" fill-opacity="0.501961" points="153.881518,119.150103,168.981332,125.112799,135.979994,151.188673,158.287203,144.243983" />
<polygon fill="#94938a" fill-opacity="0.501961" points="206.689622,79.587610,192.962812,49.853611,196.720563,80.478392,200.078616,73.018439" />
<rect fill="#e1b48b" fill-opacity="0.501961" x="127" y="132" width="27" height="4" />
<polygon fill="#b3d2ee" fill-opacity="0.501961" points="227,66 267,59 208,15" />
<rect fill="#9c9175" fill-opacity="0.501961" x="169" y="116" width="15" height="6" />
<ellipse fill="#e5dcc9" fill-opacity="0.501961" cx="153" cy="21" rx="50" ry="4" />
<ellipse fill="#a7bad0" fill-opacity="0.501961" cx="63" cy="131" rx="33" ry="5" />
<polygon fill="#dedfd4" fill-opacity="0.501961" points="194,39 213,56 207,66" />
<g transform="translate(132 66) rotate(242) scale(6 8)"><rect fill="#ac6522" fill-opacity="0.501961" x="-0.5" y="-0.5" width="1" height="1" /></g>
<polygon fill="#fcecea" fill-opacity="0.501961" points="150,97 132,88 151,89" />
<ellipse fill="#774c2a" fill-opacity="0.501961" cx="124" cy="78" rx="6" ry="6" />
<polygon fill="#b9bdbe" fill-opacity="0.501961" points="193.366931,191.467850,193.482704,165.703614,180.294377,149.424807,186.324381,167.182905" />
<rect fill="#824b1c" fill-opacity="0.501961" x="137" y="127" width="5" height="5" />
<polygon fill="#462d15" fill-opacity="0.501961" points="121,155 105,164 89,159" />
<polygon fill="#d0c2af" fill-opacity="0.501961" points="53.297386,18.308119,-9.996486,20.188887,68.215847,27.671513,120.861052,27.839414" />
<polygon fill="#3d311e" fill-opacity="0.501961" points="196.493141,83.377069,185.561984,82.068984,188.906349,92.996029,197.633959,76.822713" />
<polygon fill="#a57e3d" fill-opacity="0.501961" points="255,49 264,52 259,66" />
<ellipse fill="#574332" fill-opacity="0.501961" cx="145" cy="169" rx="21" ry="2" />
</g>
</svg>