<svg xmlns="http://www.w3.org/2000/svg" version="1.1" width="1024" height="768">
<rect x="0" y="0" width="1024" height="768" fill="#c0bab2" />
<g transform="scale(4.000000) translate(0.5 0.5)">
<g transform="translate(136.841769 138.526290) rotate(28.285823) scale(32.290820 40.928108)"><ellipse fill="#853c00" fill-opacity="0.501961" cx="0" cy="0" rx="1" ry="1" /></g>
<g transform="translate(210.800749 100.835378) rotate(73.069357) scale(42.717022 14.583886)"><ellipse fill="#29222a" fill-opacity="0.501961" cx="0" cy="0" rx="1" ry="1" /></g>
<g transform="translate(122.789849 71.883721) rotate(257.124746) scale(25.892887 19.606882)"><ellipse fill="#8a2b00" fill-opacity="0.501961" cx="0" cy="0" rx="1" ry="1" /></g>
<g transform="translate(188.986857 19.215651) rotate(100.327486) scale(35.194890 255.000000)"><ellipse fill="#fcffff" fill-opacity="0.501961" cx="0" cy="0" rx="1" ry="1" /></g>
<ellipse fill="#efb24a" fill-opacity="0.501961" cx="41" cy="51" rx="100" ry="31" />
<g transform="translate(38.737666 123.850701) rotate(258.173278) scale(39.695171 79.097536)"><ellipse fill="#d3f4ff" fill-opacity="0.501961" cx="0" cy="0" rx="1" ry="1" /></g>
<g transform="translate(255.000000 106.155796) rotate(338.706971) scale(28.346499 104.313536)"><ellipse fill="#9accff" fill-opacity="0.501961" cx="0" cy="0" rx="1" ry="1" /></g>
<polygon fill="#351e09" fill-opacity="0.501961" points="154.272328,76.014750,181.285122,84.673169,173.424519,63.321722,97.244478,80.923425" />
<ellipse fill="#d2edff" fill-opacity="0.501961" cx="218" cy="155" rx="85" ry="12" />
<rect fill="#5f2500" fill-opacity="0.501961" x="57" y="156" width="77" height="9" />
<rect fill="#655f61" fill-opacity="0.501961" x="199" y="23" width="19" height="115" />
<g transform="translate(199.310934 185.423866) rotate(95.294206) scale(21.619962 99.094279)"><ellipse fill="#8687a2" fill-opacity="0.501961" cx="0" cy="0" rx="1" ry="1" /></g>
<g transform="translate(167.560077 131.568941) rotate(238.131274) scale(40.919192 9.567928)"><ellipse fill="#525655" fill-opacity="0.501961" cx="0" cy="0" rx="1" ry="1" /></g>
<polygon fill="#e6f9ff" fill-opacity="0.501961" points="204,98 167,119 145,75" />
<g transform="translate(243 132) rotate(186) scale(81 13)"><rect fill="#444556" fill-opacity="0.501961" x="-0.5" y="-0.5" width="1" height="1" /></g>
<polygon fill="#ffdbbb" fill-opacity="0.501961" points="158.255346,60.885401,125.316326,102.475941,142.793859,134.144938,142.409346,110.477925" />
<ellipse fill="#ffffff" fill-opacity="0.501961" cx="85" cy="0" rx="255" ry="18" />
<polygon fill="#fff8eb" fill-opacity="0.501961" points="128.200179,55.441887,138.226043,31.931057,180.110674,32.766360,200.781066,74.131500" />
<g transform="translate(110 73) rotate(258) scale(39 12)"><rect fill="#561f00" fill-opacity="0.501961" x="-0.5" y="-0.5" width="1" height="1" /></g>
<ellipse fill="#f1c365" fill-opacity="0.501961" cx="151" cy="27" rx="55" ry="6" />
<polygon fill="#af5500" fill-opacity="0.501961" points="131,160 127,82 100,155" />
<polygon fill="#f5e0ae" fill-opacity="0.501961" points="62,33 71,96 124,36" />
<rect fill="#000007" fill-opacity="0.501961" x="145" y="98" width="14" height="17" />
<polygon fill="#1a0a00" fill-opacity="0.501961" points="197,69 194,91 184,89" />
<g transform="translate(72.123390 105.014304) rotate(171.412761) scale(48.191520 17.765974)"><ellipse fill="#d7ecff" fill-opacity="0.501961" cx="0" cy="0" rx="1" ry="1" /></g>
<g transform="translate(252.678453 61.489616) rotate(272.137593) scale(57.884851 24.317101)"><ellipse fill="#d1edff" fill-opacity="0.501961" cx="0" cy="0" rx="1" ry="1" /></g>
<ellipse fill="#cbe7ff" fill-opacity="0.501961" cx="221" cy="153" rx="42" ry="16" />
<g transform="translate(128.898123 148.196325) rotate(163.514335) scale(32.977420 5.761760)"><ellipse fill="#663000" fill-opacity="0.501961" cx="0" cy="0" rx="1" ry="1" /></g>
<ellipse fill="#c89a53" fill-opacity="0.501961" cx="21" cy="53" rx="34" ry="29" />
<g transform="translate(38.371177 128.441615) rotate(292.856433) scale(22.319111 62.140707)"><ellipse fill="#baccef" fill-opacity="0.501961" cx="0" cy="0" rx="1" ry="1" /></g>
<rect fill="#a7a8c9" fill-opacity="0.501961" x="0" y="167" width="132" height="25" />
<polygon fill="#604a3d" fill-opacity="0.501961" points="152.246040,54.053097,182.193032,77.529780,166.899483,87.552711,165.319693,88.394905" />
<polygon fill="#7c5323" fill-opacity="0.501961" points="150,156 171,171 126,169" />
<polygon fill="#d0e4eb" fill-opacity="0.501961" points="210.786797,67.068615,175.391453,122.741590,193.211773,146.176840,207.338357,51.569289" />
<polygon fill="#170900" fill-opacity="0.501961" points="125.033957,80.697504,122.160348,73.358591,137.807232,67.551105,141.925081,82.166252" />
<polygon fill="#b88c41" fill-opacity="0.501961" points="177.157787,34.290314,204.421908,25.174033,207.007351,47.308556,197.970544,38.988957" />
<polygon fill="#f3ad61" fill-opacity="0.501961" points="109.560729,148.460351,123.945361,89.188683,96.984267,148.296369,77.972814,163.629856" />
<g transform="translate(18.561507 98.142600) rotate(272.926194) scale(11.925844 98.046075)"><ellipse fill="#dfeeff" fill-opacity="0.501961" cx="0" cy="0" rx="1" ry="1" /></g>
<polygon fill="#e3e8f1" fill-opacity="0.501961" points="123.221735,92.085930,186.997262,88.011276,151.685878,126.589722,162.385692,94.336468" />
<polygon fill="#f4b576" fill-opacity="0.501961" points="163.020776,147.987957,138.348959,171.382622,124.147441,151.527588,158.984756,152.026246" />
<ellipse fill="#f5ffff" fill-opacity="0.501961" cx="176" cy="0" rx="252" ry="14" />
<polygon fill="#766248" fill-opacity="0.501961" points="183.069717,113.683156,154.768238,121.170957,148.358895,130.512508,167.990280,151.272371" />
<polygon fill="#fffdf0" fill-opacity="0.501961" points="210.039836,59.350773,141.454245,30.076190,183.691206,33.740252,210.408064,53.367791" />
<polygon fill="#ffebc3" fill-opacity="0.501961" points="154,80 133,113 125,90" />
<polygon fill="#673502" fill-opacity="0.501961" points="99.098992,146.185625,139.597288,169.187398,112.813452,163.285684,92.778728,164.754867" />
<g transform="translate(182.511036 149.126334) rotate(150.287194) scale(8.298378 26.701477)"><ellipse fill="#a7a79a" fill-opacity="0.501961" cx="0" cy="0" rx="1" ry="1" /></g>
<polygon fill="#592400" fill-opacity="0.501961" points="106,63 107,88 126,89" />
<g transform="translate(170 76) rotate(90) scale(7 8)"><rect fill="#000000" fill-opacity="0.501961" x="-0.5" y="-0.5" width="1" height="1" /></g>
<ellipse fill="#d7d0c3" fill-opacity="0.501961" cx="67" cy="22" rx="156" ry="4" />
<polygon fill="#c09d82" fill-opacity="0.501961" points="177.020117,63.780526,164.031266,51.674280,130.240869,60.097962,153.979854,80.424192" />
<polygon fill="#788097" fill-opacity="0.501961" points="201.566278,13.938955,228.820452,99.222983,246.512388,144.257129,224.186164,124.288075" />
<ellipse fill="#a6bedc" fill-opacity="0.501961" cx="47" cy="128" rx="57" ry="11" />
<polygon fill="#bcd9f6" fill-opacity="0.501961" points="205.189035,11.402584,238.742334,116.656793,254.742475,131.516316,270.469279,25.391266" />
<polygon fill="#6a3607" fill-opacity="0.501961" points="121.988213,82.910716,125.310997,125.912620,138.647584,113.947344,128.069069,113.424276" />
<g transform="translate(166.098593 144.456077) rotate(30.516992) scale(12.855651 3.822171)"><ellipse fill="#593b1c" fill-opacity="0.501961" cx="0" cy="0" rx="1" ry="1" /></g>
<g transform="translate(211 104) rotate(253) scale(57 18)"><rect fill="#634f43" fill-opacity="0.501961" x="-0.5" y="-0.5" width="1" height="1" /></g>
<polygon fill="#d8a476" fill-opacity="0.501961" points="151,135 124,137 144,105" />
<g transform="translate(255.000000 181.207904) rotate(359.101944) scale(68.204388 15.742149)"><ellipse fill="#928e9e" fill-opacity="0.501961" cx="0" cy="0" rx="1" ry="1" /></g>
<polygon fill="#f6eadb" fill-opacity="0.501961" points="142.965546,149.480367,170.327317,163.232016,170.497788,150.868043,155.542371,146.501381" />
<rect fill="#e9cc95" fill-opacity="0.501961" x="48" y="41" width="56" height="45" />
<polygon fill="#edc686" fill-opacity="0.501961" points="84.771863,23.994552,139.649511,24.119085,114.436556,81.968735,136.958295,55.214613" />
<polygon fill="#f8ca9d" fill-opacity="0.501961" points="102.785754,149.331570,120.728598,99.839471,87.821484,159.784300,42.184332,156.944528" />
<g transform="translate(120.572549 181.157587) rotate(183.401260) scale(21.220503 12.799313)"><ellipse fill="#babac4" fill-opacity="0.501961" cx="0" cy="0" rx="1" ry="1" /></g>
<polygon fill="#f4f5fc" fill-opacity="0.501961" points="149.248314,77.400843,202.338997,124.472174,155.959938,95.482923,135.792232,96.594822" />
<rect fill="#e7ffff" fill-opacity="0.501961" x="181" y="55" width="11" height="21" />
<rect fill="#322d2d" fill-opacity="0.501961" x="134" y="168" width="31" height="4" />
<polygon fill="#fdf8f6" fill-opacity="0.501961" points="171.053456,30.356157,140.909303,31.604547,136.533441,55.522476,145.269779,66.079650" />
<g transform="translate(175 76) rotate(185) scale(17 4)"><rect fill="#111819" fill-opacity="0.501961" x="-0.5" y="-0.5" width="1" height="1" /></g>
<g transform="translate(160 127) rotate(235) scale(6 16)"><rect fill="#331c07" fill-opacity="0.501961" x="-0.5" y="-0.5" width="1" height="1" /></g>
<ellipse fill="#361c0b" fill-opacity="0.501961" cx="156" cy="72" rx="2" ry="8" />
<polygon fill="#2c1f25" fill-opacity="0.501961" points="157.920262,106.325116,161.521637,96.002548,143.311419,99.444905,143.536283,110.883241" />
<ellipse fill="#cfdcf8" fill-opacity="0.501961" cx="19" cy="146" rx="77" ry="11" />
<rect fill="#fffff9" fill-opacity="0.501961" x="204" y="57" width="6" height="9" />
<polygon fill="#cf8a41" fill-opacity="0.501961" points="126.877366,100.971655,121.381943,89.776994,150.083932,74.396524,141.988855,84.186097" />
<polygon fill="#acc8e1" fill-opacity="0.501961" points="179.605668,162.895510,199.309797,143.237876,200.808108,98.780395,184.812166,168.293442" />
<polygon fill="#925011" fill-opacity="0.501961" points="108,80 106,52 127,51" />
<polygon fill="#f5ca69" fill-opacity="0.501961" points="156,26 185,37 199,27" />
<polygon fill="#ccdee4" fill-opacity="0.501961" points="177.556212,116.810280,199.915017,117.706399,180.066205,76.319135,173.259738,85.290638" />
<rect fill="#7793ba" fill-opacity="0.501961" x="200" y="136" width="56" height="4" />
<polygon fill="#787477" fill-opacity="0.501961" points="194.941921,41.694945,207.192872,27.982700,213.066579,45.376164,204.241368,47.163170" />
<g transform="translate(195 60) rotate(165) scale(1 23)"><rect fill="#7b776b" fill-opacity="0.501961" x="-0.5" y="-0.5" width="1" height="1" /></g>
<rect fill="#352617" fill-opacity="0.501961" x="67" y="161" width="51" height="3" />
<polygon fill="#d3e7ff" fill-opacity="0.501961" points="207,165 271,166 186,129" />
<rect fill="#be822a" fill-opacity="0.501961" x="254" y="22" width="2" height="14" />
<ellipse fill="#372202" fill-opacity="0.501961" cx="192" cy="85" rx="6" ry="6" />
<g transform="translate(32.752662 13.955816) rotate(359.819914) scale(87.147239 5.480198)"><ellipse fill="#d5e4ef" fill-opacity="0.501961" cx="0" cy="0" rx="1" ry="1" /></g>
<polygon fill="#c8823d" fill-opacity="0.501961" points="108.511044,114.887120,126.306332,146.651944,140.821957,147.461933,110.973048,109.281032" />
<polygon fill="#88a2c5" fill-opacity="0.501961" points="224.524079,56.954781,206.850422,16.321576,203.506409,18.873415,222.056680,82.487553" />
<polygon fill="#d7a67c" fill-opacity="0.501961" points="58.804076,155.222684,45.963653,160.629719,52.565154,167.826043,75.519415,154.786569" />
<polygon fill="#a4a59b" fill-opacity="0.501961" points="201,73 198,59 189,79" />
<g transform="translate(136.235337 76.638584) rotate(149.523523) scale(5.703913 7.693519)"><ellipse fill="#2d1b0e" fill-opacity="0.501961" cx="0" cy="0" rx="1" ry="1" /></g>
<polygon fill="#aaa5b3" fill-opacity="0.501961" points="8,207 41,165 120,164" />
<g transform="translate(155 160) rotate(233) scale(21 5)"><rect fill="#bd9a77" fill-opacity="0.501961" x="-0.5" y="-0.5" width="1" height="1" /></g>
<polygon fill="#e3e3e3" fill-opacity="0.501961" points="47.650032,91.826179,120.242784,97.754884,94.964444,78.981134,96.652086,80.901655" />
<rect fill="#ddc3b0" fill-opacity="0.501961" x="144" y="162" width="3" height="12" />
<polygon fill="#e9c48f" fill-opacity="0.501961" points="113.904687,78.084414,124.271450,42.468053,76.671011,32.250704,129.331324,63.921069" />
<polygon fill="#6a8692" fill-opacity="0.501961" points="187.758702,167.012931,168.990211,161.690146,175.833743,161.053733,159.766910,172.653192" />
<polygon fill="#c1c1cd" fill-opacity="0.501961" points="70.788102,174.200311,18.083858,175.660716,84.428651,184.722986,163.670874,182.824103" />
<g transform="translate(24.188778 31.523048) rotate(177.612732) scale(43.316858 3.989571)"><ellipse fill="#c79a51" fill-opacity="0.501961" cx="0" cy="0" rx="1" ry="1" /></g>
<rect fill="#5e452e" fill-opacity="0.501961" x="140" y="139" width="36" height="7" />
<polygon fill="#e9ddbb" fill-opacity="0.501961" points="130,38 95,57 93,42" />
<polygon fill="#cb7d22" fill-opacity="0.501961" points="121,122 111,147 90,158" />
<g transform="translate(200.400017 113.090307) rotate(175.897702) scale(2.227128 30.813803)"><ellipse fill="#838da5" fill-opacity="0.501961" cx="0" cy="0" rx="1" ry="1" /></g>
<polygon fill="#d0d1ce" fill-opacity="0.501961" points="150.739937,144.554889,143.438042,150.904473,211.844337,166.691025,195.641641,172.606673" />
<g transform="translate(180.418079 118.500554) rotate(40.181122) scale(9.346862 3.608775)"><ellipse fill="#aeaa95" fill-opacity="0.501961" cx="0" cy="0" rx="1" ry="1" /></g>
<polygon fill="#94afd4" fill-opacity="0.501961" points="269,131 233,111 236,128" />
<g transform="translate(107 69) rotate(92) scale(25 5)"><rect fill="#512000" fill-opacity="0.501961" x="-0.5" y="-0.5" width="1" height="1" /></g>
<g transform="translate(173.902503 0.000000) rotate(276.314597) scale(13.580415 123.571489)"><ellipse fill="#f5fdff" fill-opacity="0.501961" cx="0" cy="0" rx="1" ry="1" /></g>
<rect fill="#5b5c65" fill-opacity="0.501961" x="204" y="131" width="50" height="6" />
<polygon fill="#bcbbc3" fill-opacity="0.501961" points="158.258020,79.173990,207.414985,98.601035,151.374161,83.291078,144.154959,66.129972" />
<rect fill="#8c5520" fill-opacity="0.501961" x="158" y="56" width="3" height="12" />
<polygon fill="#a4816b" fill-opacity="0.501961" points="163.793928,122.201734,139.342490,109.170592,131.585757,119.183800,152.219011,122.124415" />
<polygon fill="#d3e6fb" fill-opacity="0.501961" points="-16.000000,91.582006,104.813605,129.029845,107.082892,109.206575,117.110586,91.973608" />
<polygon fill="#534e5d" fill-opacity="0.501961" points="192.008568,207.000000,187.087841,196.802981,198.504112,207.000000,187.620737,176.274972" />
<polygon fill="#fcd6b7" fill-opacity="0.501961" points="141.059699,86.061672,131.403729,93.970490,126.215761,110.376281,141.518607,112.020344" />
<ellipse fill="#dbc6b4" fill-opacity="0.501961" cx="37" cy="84" rx="48" ry="4" />
<rect fill="#9292a5" fill-opacity="0.501961" x="109" y="185" width="51" height="7" />
<ellipse fill="#798176" fill-opacity="0.501961" cx="190" cy="143" rx="3" ry="3" />
<polygon fill="#858794" fill-opacity="0.501961" points="166.990719,119.334214,159.133758,100.422386,148.852946,128.614069,152.180216,121.047841" />
<polygon fill="#6a7573" fill-opacity="0.501961" points="196,156 191,163 190,156" />
<polygon fill="#e9bf96" fill-opacity="0.501961" points="131.660993,164.728550,135.529595,172.452066,130.184448,154.490033,163.062106,144.137934" />
<rect fill="#000001" fill-opacity="0.501961" x="149" y="100" width="7" height="10" />
<polygon fill="#a79ca1" fill-opacity="0.501961" points="78.854647,160.943006,93.771409,176.107363,95.269727,178.577574,111.877432,166.945742" />
<polygon fill="#d9b372" fill-opacity="0.501961" points="53,83 69,25 18,44" />
<polygon fill="#2a2929" fill-opacity="0.501961" points="162.955018,171.364745,147.831896,164.456431,147.567944,168.772726,150.308828,172.059307" />
<polygon fill="#f3dfcc" fill-opacity="0.501961" points="112.568081,127.513708,69.894192,159.845580,93.321726,152.975385,95.354560,147.361650" />
<ellipse fill="#301d05" fill-opacity="0.501961" cx="202" cy="63" rx="2" ry="5" />
<rect fill="#c4cced" fill-opacity="0.501961" x="0" y="150" width="46" height="17" />
<g transform="translate(126 120) rotate(205) scale(9 15)"><rect fill="#723900" fill-opacity="0.501961" x="-0.5" y="-0.5" width="1" height="1" /></g>
<g transform="translate(173 76) rotate(56) scale(6 16)"><rect fill="#252627" fill-opacity="0.501961" x="-0.5" y="-0.5" width="1" height="1" /></g>
<ellipse fill="#421e00" fill-opacity="0.501961" cx="117" cy="86" rx="5" ry="5" />
<polygon fill="#d9ecf4" fill-opacity="0.501961" points="183.391393,91.846552,200.533577,52.510331,188.717851,69.461737,171.830978,112.393432" />
<polygon fill="#dcebf1" fill-opacity="0.501961" points="183,96 190,139 195,90" />
<polygon fill="#d4ccbe" fill-opacity="0.501961" points="96.043126,27.196696,0.311143,20.686581,35.402455,14.701076,136.482539,26.019837" />
<polygon fill="#a59782" fill-opacity="0.501961" points="168,145 178,145 170,118" />
<polygon fill="#c9e6f9" fill-opacity="0.501961" points="271.000000,67.001782,243.889563,12.994814,196.740270,11.791030,264.902095,56.905652" />
<polygon fill="#66482b" fill-opacity="0.501961" points="178,151 134,136 162,136" />
<g transform="translate(163 183) rotate(73) scale(52 1)"><rect fill="#c6c2c7" fill-opacity="0.501961" x="-0.5" y="-0.5" width="1" height="1" /></g>
<polygon fill="#85665f" fill-opacity="0.501961" points="149,70 154,68 146,60" />
<polygon fill="#796b56" fill-opacity="0.501961" points="186.816836,135.777107,161.540126,148.488815,174.411801,138.150195,176.521647,134.095838" />
<polygon fill="#915d37" fill-opacity="0.501961" points="130.846516,63.379754,145.936650,79.479514,148.077142,71.927314,132.638866,62.269255" />
<rect fill="#d4b08f" fill-opacity="0.501961" x="128" y="132" width="28" height="4" />
<rect fill="#888797" fill-opacity="0.501961" x="215" y="167" width="41" height="4" />
<g transform="translate(202 83) rotate(194) scale(3 23)"><rect fill="#b29a75" fill-opacity="0.501961" x="-0.5" y="-0.5" width="1" height="1" /></g>
<polygon fill="#c78035" fill-opacity="0.501961" points="134.308695,38.515152,118.066355,67.572910,118.525374,46.063654,98.473503,64.531500" />
<polygon fill="#894709" fill-opacity="0.501961" points="120.281256,129.411983,118.718338,139.247288,92.064382,161.055668,126.878722,151.434926" />
<polygon fill="#ebccb0" fill-opacity="0.501961" points="161,50 152,46 152,67" />
<g transform="translate(114 103) rotate(47) scale(11 9)"><rect fill="#e0efff" fill-opacity="0.501961" x="-0.5" y="-0.5" width="1" height="1" /></g>
<polygon fill="#885731" fill-opacity="0.501961" points="154.083608,151.695873,150.101354,151.448081,152.887938,167.440622,148.438859,155.406328" />
<polygon fill="#d6e9fd" fill-opacity="0.501961" points="223.815769,142.288655,269.374852,142.066277,271.000000,163.126214,185.745500,150.746051" />
<rect fill="#854c0f" fill-opacity="0.501961" x="105" y="77" width="25" height="6" />
<rect fill="#cfe4fc" fill-opacity="0.501961" x="237" y="65" width="19" height="40" />
<polygon fill="#aea796" fill-opacity="0.501961" points="170.515084,126.613784,193.654393,112.278660,179.516169,128.619232,165.405961,140.601385" />
<rect fill="#abc5df" fill-opacity="0.501961" x="179" y="139" width="77" height="4" />
<g transform="translate(148 38) rotate(86) scale(13 25)"><rect fill="#ffffff" fill-opacity="0.501961" x="-0.5" y="-0.5" width="1" height="1" /></g>
<ellipse fill="#9798ad" fill-opacity="0.501961" cx="33" cy="184" rx="40" ry="3" />
<polygon fill="#bdb5a5" fill-opacity="0.501961" points="171.216199,63.522754,194.405829,82.452704,159.906403,61.167489,196.476403,61.065471" />
<polygon fill="#e3c887" fill-opacity="0.501961" points="49.073197,38.301225,135.949601,38.882299,131.614654,26.071652,90.768987,27.438890" />
<g transform="translate(163 94) rotate(210) scale(38 6)"><rect fill="#f8fcff" fill-opacity="0.501961" x="-0.5" y="-0.5" width="1" height="1" /></g>
<rect fill="#a67f3d" fill-opacity="0.501961" x="255" y="48" width="1" height="9" />
<g transform="translate(59.221858 115.382149) rotate(7.795167) scale(44.671004 7.923326)"><ellipse fill="#bfd6ee" fill-opacity="0.501961" cx="0" cy="0" rx="1" ry="1" /></g>
<rect fill="#ffdc80" fill-opacity="0.501961" x="131" y="85" width="6" height="6" />
<g transform="translate(194 81) rotate(243) scale(3 18)"><rect fill="#544630" fill-opacity="0.501961" x="-0.5" y="-0.5" width="1" height="1" /></g>
<polygon fill="#e6cfa2" fill-opacity="0.501961" points="131.022081,16.178331,102.398644,61.324980,105.674071,78.658589,76.731846,91.321162" />
<g transform="translate(139 130) rotate(57) scale(6 4)"><rect fill="#8b5424" fill-opacity="0.501961" x="-0.5" y="-0.5" width="1" height="1" /></g>
<rect fill="#763b08" fill-opacity="0.501961" x="121" y="51" width="7" height="5" />
<polygon fill="#accded" fill-opacity="0.501961" points="236.531409,49.226765,209.382097,12.763274,223.545339,61.396123,256.756318,56.681877" />
<ellipse fill="#00040f" fill-opacity="0.501961" cx="135" cy="76" rx="5" ry="4" />
<rect fill="#c6a16b" fill-opacity="0.501961" x="0" y="64" width="47" height="19" />
<ellipse fill="#ada5a5" fill-opacity="0.501961" cx="200" cy="25" rx="5" ry="5" />
<polygon fill="#ca8844" fill-opacity="0.501961" points="108.421994,68.146704,117.562538,55.987631,132.510178,69.224606,115.779882,64.908431" />
<polygon fill="#d9dfdb" fill-opacity="0.501961" points="214.856837,55.572577,209.537199,53.237700,211.217978,63.139403,202.172410,59.140243" />
<polygon fill="#edca7f" fill-opacity="0.501961" points="132.143165,25.724252,187.696467,36.592349,202.936832,46.524358,196.800582,32.291889" />
<polygon fill="#dbded8" fill-opacity="0.501961" points="183,46 165,67 199,47" />
<polygon fill="#f1c59a" fill-opacity="0.501961" points="135.255912,59.778775,128.676400,38.669518,131.317103,64.031896,144.294395,67.499319" />
<g transform="translate(152.240773 98.019014) rotate(269.076356) scale(1.343210 11.341063)"><ellipse fill="#9d7b7e" fill-opacity="0.501961" cx="0" cy="0" rx="1" ry="1" /></g>
<g transform="translate(206 41) rotate(181) scale(7 14)"><rect fill="#686973" fill-opacity="0.501961" x="-0.5" y="-0.5" width="1" height="1" /></g>
<polygon fill="#e5ccae" fill-opacity="0.501961" points="160.510023,56.179675,162.300904,65.842673,168.383584,59.896628,170.203832,40.640537" />
<polygon fill="#3b1d06" fill-opacity="0.501961" points="97,159 118,157 113,164" />
<rect fill="#93561b" fill-opacity="0.501961" x="121" y="95" width="6" height="23" />
</g>
</svg>