<svg xmlns="http://www.w3.org/2000/svg" version="1.1" width="1024" height="680">
<rect x="0" y="0" width="1024" height="680" fill="#c6c4b8" />
<g transform="scale(4.000000) translate(0.5 0.5)">
<g transform="translate(159.752693 97.846354) rotate(-14.837934) scale(33.128078 62.216875)"><ellipse fill="#000000" fill-opacity="0.501961" cx="0" cy="0" rx="1" ry="1" /></g>
<ellipse fill="#ffffff" fill-opacity="0.501961" cx="229" cy="37" rx="64" ry="64" />
<g transform="translate(159.772930 118.565540) rotate(400.142988) scale(28.359962 46.073370)"><ellipse fill="#110000" fill-opacity="0.501961" cx="0" cy="0" rx="1" ry="1" /></g>
<ellipse fill="#fffffd" fill-opacity="0.501961" cx="53" cy="0" rx="79" ry="138" />
<polygon fill="#131514" fill-opacity="0.501961" points="128,119 130,26 222,128" />
<ellipse fill="#f1ffff" fill-opacity="0.501961" cx="119" cy="6" rx="255" ry="26" />
<g transform="translate(193 149) rotate(150) scale(79 31)"><rect fill="#e2d7b6" fill-opacity="0.501961" x="-0.5" y="-0.5" width="1" height="1" /></g>
<polygon fill="#070808" fill-opacity="0.501961" points="140,59 177,120 166,26" />
<g transform="translate(108.929395 103.307086) rotate(-2.413647) scale(20.758385 70.246414)"><ellipse fill="#f4e6c6" fill-opacity="0.501961" cx="0" cy="0" rx="1" ry="1" /></g>
<g transform="translate(200.599140 64.096063) rotate(167.354136) scale(30.614655 23.228117)"><ellipse fill="#fffadc" fill-opacity="0.501961" cx="0" cy="0" rx="1" ry="1" /></g>
<polygon fill="#9a682d" fill-opacity="0.501961" points="160.296245,116.370026,158.668483,167.563098,132.258333,166.904732,118.351081,146.700380" />
<polygon fill="#e5d8b9" fill-opacity="0.501961" points="140.822831,76.478278,152.559961,87.414645,-16.000000,113.498864,61.570097,185.000000" />
<polygon fill="#eeffff" fill-opacity="0.501961" points="146.542105,48.462667,141.175267,31.561878,-16.000000,4.625532,197.760345,-16.000000" />
<g transform="translate(216.013572 114.727696) rotate(231.617227) scale(9.961251 29.682019)"><ellipse fill="#6f8c93" fill-opacity="0.501961" cx="0" cy="0" rx="1" ry="1" /></g>
<g transform="translate(162.747350 169.000000) rotate(319.228692) scale(39.012080 13.150839)"><ellipse fill="#e5d9bf" fill-opacity="0.501961" cx="0" cy="0" rx="1" ry="1" /></g>
<rect fill="#151a1a" fill-opacity="0.501961" x="126" y="96" width="73" height="18" />
<g transform="translate(199.623589 15.692662) rotate(157.122044) scale(39.048763 31.036591)"><ellipse fill="#eafbff" fill-opacity="0.501961" cx="0" cy="0" rx="1" ry="1" /></g>
<polygon fill="#ffc3bc" fill-opacity="0.501961" points="143,93 147,78 133,84" />
<g transform="translate(242 156) rotate(76) scale(69 52)"><rect fill="#eedebe" fill-opacity="0.501961" x="-0.5" y="-0.5" width="1" height="1" /></g>
<polygon fill="#281d11" fill-opacity="0.501961" points="146,41 128,51 132,26" />
<g transform="translate(122.231748 146.992506) rotate(183.510043) scale(10.225241 40.606966)"><ellipse fill="#d7bb92" fill-opacity="0.501961" cx="0" cy="0" rx="1" ry="1" /></g>
<ellipse fill="#e6ddc1" fill-opacity="0.501961" cx="32" cy="89" rx="53" ry="53" />
<g transform="translate(171.469261 106.043674) rotate(129.511763) scale(16.774817 31.285207)"><ellipse fill="#1b1e1f" fill-opacity="0.501961" cx="0" cy="0" rx="1" ry="1" /></g>
<polygon fill="#d6edf6" fill-opacity="0.501961" points="2,27 137,13 125,49" />
<polygon fill="#655c4e" fill-opacity="0.501961" points="113.207252,185.000000,110.662207,153.367824,136.141949,185.000000,161.694964,139.510317" />
<polygon fill="#342310" fill-opacity="0.501961" points="138.301066,163.686326,152.067797,112.464920,131.325207,131.502678,150.599921,159.733451" />
<polygon fill="#9eb6be" fill-opacity="0.501961" points="154,99 158,109 151,111" />
<polygon fill="#5b4f3d" fill-opacity="0.501961" points="151,47 127,45 131,100" />
<rect fill="#f2ebd5" fill-opacity="0.501961" x="43" y="40" width="84" height="54" />
<ellipse fill="#f9efd7" fill-opacity="0.501961" cx="226" cy="65" rx="54" ry="27" />
<rect fill="#9aadab" fill-opacity="0.501961" x="201" y="96" width="52" height="24" />
<polygon fill="#27231f" fill-opacity="0.501961" points="153.838773,38.645418,142.940149,118.017776,173.791567,64.316266,163.417864,30.587480" />
<polygon fill="#18120e" fill-opacity="0.501961" points="126.619769,100.867935,131.848897,80.897007,162.343438,121.302667,128.641418,113.096917" />
<polygon fill="#ede8d5" fill-opacity="0.501961" points="173.671188,73.573342,201.913596,96.108302,271.000000,98.178171,163.110537,21.055114" />
<polygon fill="#d9cfb6" fill-opacity="0.501961" points="-16,175 131,158 66,108" />
<rect fill="#ffffdb" fill-opacity="0.501961" x="123" y="167" width="22" height="3" />
<ellipse fill="#a1d4e8" fill-opacity="0.501961" cx="9" cy="37" rx="115" ry="3" />
<polygon fill="#eaf6fe" fill-opacity="0.501961" points="146.232615,49.416937,141.721225,-11.286296,69.312225,19.367344,157.541259,33.944636" />
<polygon fill="#c57625" fill-opacity="0.501961" points="125.567272,135.055375,134.892982,115.452408,134.241616,123.146191,135.615605,157.951501" />
<polygon fill="#030b0a" fill-opacity="0.501961" points="163,123 196,124 164,138" />
<ellipse fill="#ebf9ff" fill-opacity="0.501961" cx="240" cy="9" rx="116" ry="29" />
<g transform="translate(111.742732 118.487471) rotate(76.367600) scale(30.528865 15.081924)"><ellipse fill="#e6e0cb" fill-opacity="0.501961" cx="0" cy="0" rx="1" ry="1" /></g>
<polygon fill="#161c1f" fill-opacity="0.501961" points="159.512778,73.508437,186.061025,83.004189,199.459570,102.066891,169.958131,145.947505" />
<polygon fill="#6e7f7e" fill-opacity="0.501961" points="210.732880,115.572151,197.322443,97.017712,205.627248,129.724574,150.554281,156.852642" />
<polygon fill="#d8ccb3" fill-opacity="0.501961" points="117,185 193,135 250,165" />
<rect fill="#ffd6d0" fill-opacity="0.501961" x="139" y="77" width="6" height="13" />
<polygon fill="#9d6e32" fill-opacity="0.501961" points="167.912278,115.336674,145.883253,136.560727,150.391470,121.410882,155.712144,120.722525" />
<polygon fill="#98896a" fill-opacity="0.501961" points="138,123 122,116 119,123" />
<polygon fill="#e6e1ce" fill-opacity="0.501961" points="49.945801,77.625640,131.669579,84.949349,116.327357,111.739385,93.155657,139.089186" />
<ellipse fill="#deeff7" fill-opacity="0.501961" cx="14" cy="23" rx="137" ry="14" />
<g transform="translate(133.421535 44.590490) rotate(278.152592) scale(14.893788 4.724567)"><ellipse fill="#342d23" fill-opacity="0.501961" cx="0" cy="0" rx="1" ry="1" /></g>
<polygon fill="#98abac" fill-opacity="0.501961" points="199.564854,98.700440,271.000000,104.316215,226.820869,124.626034,198.296101,112.704128" />
<polygon fill="#090c0e" fill-opacity="0.501961" points="133,129 141,139 151,134" />
<g transform="translate(130 84) rotate(151) scale(4 17)"><rect fill="#24221c" fill-opacity="0.501961" x="-0.5" y="-0.5" width="1" height="1" /></g>
<g transform="translate(141.327394 151.353700) rotate(131.213299) scale(14.832937 3.174099)"><ellipse fill="#b77132" fill-opacity="0.501961" cx="0" cy="0" rx="1" ry="1" /></g>
<polygon fill="#7f6e55" fill-opacity="0.501961" points="140.949879,60.171978,136.433589,87.608217,123.072751,55.601069,128.895817,62.653379" />
<g transform="translate(210.471873 77.902743) rotate(199.159415) scale(27.468084 19.767705)"><ellipse fill="#efe7d3" fill-opacity="0.501961" cx="0" cy="0" rx="1" ry="1" /></g>
<polygon fill="#644525" fill-opacity="0.501961" points="135.295678,166.647906,127.808573,165.305961,171.482281,145.810264,157.523151,127.315857" />
<g transform="translate(182 67) rotate(122) scale(24 11)"><rect fill="#f7f1e0" fill-opacity="0.501961" x="-0.5" y="-0.5" width="1" height="1" /></g>
<rect fill="#846246" fill-opacity="0.501961" x="122" y="147" width="7" height="6" />
<rect fill="#211f1b" fill-opacity="0.501961" x="158" y="32" width="7" height="45" />
<polygon fill="#35271d" fill-opacity="0.501961" points="152,88 137,92 170,110" />
<ellipse fill="#d7eaf1" fill-opacity="0.501961" cx="204" cy="31" rx="40" ry="9" />
<polygon fill="#aeac9c" fill-opacity="0.501961" points="70.114553,145.517110,80.720320,153.118984,108.333258,179.781047,90.961167,154.955785" />
<polygon fill="#bbbaa9" fill-opacity="0.501961" points="80.543725,127.283005,64.110002,108.946280,66.662030,131.975051,53.705807,124.570843" />
<polygon fill="#efddbc" fill-opacity="0.501961" points="133.155387,173.825640,126.164752,161.514294,135.620056,153.480005,111.342750,153.948501" />
<polygon fill="#191918" fill-opacity="0.501961" points="199.778791,124.013222,156.708908,114.848660,158.289400,69.577754,193.884344,109.271376" />
<polygon fill="#eae0c7" fill-opacity="0.501961" points="267,159 271,113 235,119" />
<polygon fill="#2b2a2b" fill-opacity="0.501961" points="155,46 137,75 147,78" />
<ellipse fill="#efe9d7" fill-opacity="0.501961" cx="116" cy="80" rx="10" ry="41" />
<ellipse fill="#f3eddd" fill-opacity="0.501961" cx="199" cy="57" rx="29" ry="19" />
<polygon fill="#e0eef1" fill-opacity="0.501961" points="123.334302,15.347968,152.335694,18.941774,150.945171,43.915414,150.830051,47.922055" />
<polygon fill="#f2dfbc" fill-opacity="0.501961" points="87.639931,161.803381,110.502751,185.000000,77.119859,167.635377,83.449135,153.850287" />
<polygon fill="#dd7d1f" fill-opacity="0.501961" points="134,140 128,129 129,151" />
<polygon fill="#976e3d" fill-opacity="0.501961" points="138.178255,129.797692,134.299470,118.502766,128.582669,113.831211,125.761910,114.711684" />
<g transform="translate(126 103) rotate(208) scale(4 5)"><rect fill="#524e3e" fill-opacity="0.501961" x="-0.5" y="-0.5" width="1" height="1" /></g>
<g transform="translate(152 132) rotate(229) scale(15 4)"><rect fill="#b5823d" fill-opacity="0.501961" x="-0.5" y="-0.5" width="1" height="1" /></g>
<polygon fill="#8a9897" fill-opacity="0.501961" points="210.352746,128.827898,233.440816,119.988367,210.674670,105.151527,196.293599,138.656603" />
<g transform="translate(143.533757 54.488154) rotate(244.280220) scale(7.372431 11.479770)"><ellipse fill="#444743" fill-opacity="0.501961" cx="0" cy="0" rx="1" ry="1" /></g>
<polygon fill="#13120b" fill-opacity="0.501961" points="169,127 173,137 152,129" />
<ellipse fill="#b6beb6" fill-opacity="0.501961" cx="242" cy="102" rx="28" ry="6" />
<polygon fill="#cec3a9" fill-opacity="0.501961" points="195,135 222,125 234,145" />
<polygon fill="#f3ecd9" fill-opacity="0.501961" points="171,39 201,40 198,98" />
<rect fill="#7a8789" fill-opacity="0.501961" x="113" y="159" width="7" height="11" />
<polygon fill="#dfd4ba" fill-opacity="0.501961" points="91.378975,154.405908,128.998635,144.070607,114.693027,111.287230,67.799536,144.296957" />
<g transform="translate(191.063769 0.000000) rotate(361.555248) scale(154.644788 15.259544)"><ellipse fill="#f2fcff" fill-opacity="0.501961" cx="0" cy="0" rx="1" ry="1" /></g>
<g transform="translate(174.341971 167.317210) rotate(203.557496) scale(24.718434 14.517506)"><ellipse fill="#d2cab4" fill-opacity="0.501961" cx="0" cy="0" rx="1" ry="1" /></g>
<ellipse fill="#9ec9d7" fill-opacity="0.501961" cx="18" cy="38" rx="70" ry="2" />
<polygon fill="#4a4435" fill-opacity="0.501961" points="163.547614,35.787381,165.677863,41.910211,158.595147,57.932317,169.841913,43.027630" />
<ellipse fill="#c2baa6" fill-opacity="0.501961" cx="62" cy="167" rx="15" ry="7" />
<g transform="translate(24 130) rotate(205) scale(24 1)"><rect fill="#a2aeac" fill-opacity="0.501961" x="-0.5" y="-0.5" width="1" height="1" /></g>
<polygon fill="#dfeff4" fill-opacity="0.501961" points="130.599797,35.525545,127.072469,37.662467,73.476058,37.126362,134.814398,19.626477" />
<rect fill="#a77a45" fill-opacity="0.501961" x="126" y="161" width="13" height="4" />
<rect fill="#a7a28e" fill-opacity="0.501961" x="57" y="117" width="14" height="3" />
<rect fill="#757c76" fill-opacity="0.501961" x="154" y="93" width="3" height="20" />
<polygon fill="#414037" fill-opacity="0.501961" points="141.993523,58.386546,162.031780,29.541974,173.904803,84.217891,162.761999,41.171595" />
<polygon fill="#75817c" fill-opacity="0.501961" points="173,146 181,132 209,125" />
<polygon fill="#d0c8af" fill-opacity="0.501961" points="6.840528,173.785294,-16.000000,141.549353,24.613835,136.417274,25.405274,159.927678" />
<polygon fill="#38505b" fill-opacity="0.501961" points="175.193669,80.388789,183.503414,81.095236,194.590276,93.437337,200.666495,101.808347" />
<polygon fill="#655d4f" fill-opacity="0.501961" points="176.893934,149.975838,134.439012,133.552455,191.124117,157.056239,149.842082,135.346161" />
<ellipse fill="#0f1010" fill-opacity="0.501961" cx="143" cy="108" rx="9" ry="15" />
<g transform="translate(112.819427 169.000000) rotate(346.679589) scale(2.482663 17.340387)"><ellipse fill="#9fa096" fill-opacity="0.501961" cx="0" cy="0" rx="1" ry="1" /></g>
<polygon fill="#1d1c19" fill-opacity="0.501961" points="129,39 134,31 143,40" />
<polygon fill="#ece6d3" fill-opacity="0.501961" points="65.938463,98.503451,132.523690,87.378392,74.395715,56.564810,96.259028,103.968630" />
<polygon fill="#191717" fill-opacity="0.501961" points="147,88 160,57 184,112" />
<ellipse fill="#b0cdda" fill-opacity="0.501961" cx="154" cy="108" rx="2" ry="2" />
<g transform="translate(139 145) rotate(217) scale(3 18)"><rect fill="#4d4840" fill-opacity="0.501961" x="-0.5" y="-0.5" width="1" height="1" /></g>
<polygon fill="#e5dcc6" fill-opacity="0.501961" points="28.418871,135.574690,-13.236634,117.854522,48.539514,155.769835,37.999612,113.248698" />
<polygon fill="#25241f" fill-opacity="0.501961" points="149.412959,103.861884,183.287122,89.147724,161.905197,122.747226,153.173693,93.967405" />
<polygon fill="#ede4cc" fill-opacity="0.501961" points="173,74 214,98 271,89" />
<rect fill="#32312b" fill-opacity="0.501961" x="126" y="58" width="9" height="5" />
<rect fill="#e1d5ba" fill-opacity="0.501961" x="139" y="166" width="37" height="4" />
<g transform="translate(85 131) rotate(31) scale(20 1)"><rect fill="#9ba6a0" fill-opacity="0.501961" x="-0.5" y="-0.5" width="1" height="1" /></g>
<g transform="translate(149 158) rotate(198) scale(1 18)"><rect fill="#453a30" fill-opacity="0.501961" x="-0.5" y="-0.5" width="1" height="1" /></g>
<polygon fill="#9d805c" fill-opacity="0.501961" points="158.364303,140.386181,102.518971,155.319849,148.819014,142.831840,158.973386,132.418003" />
<rect fill="#dfdbc8" fill-opacity="0.501961" x="0" y="98" width="67" height="20" />
<polygon fill="#6f8286" fill-opacity="0.501961" points="198,108 209,116 201,135" />
<g transform="translate(128.601997 49.131650) rotate(367.422053) scale(2.797612 3.680752)"><ellipse fill="#a99673" fill-opacity="0.501961" cx="0" cy="0" rx="1" ry="1" /></g>
<polygon fill="#23221d" fill-opacity="0.501961" points="139.187278,132.519877,149.191049,139.342703,125.400580,73.040693,128.456121,68.423598" />
<g transform="translate(139 42) rotate(239) scale(1 14)"><rect fill="#665543" fill-opacity="0.501961" x="-0.5" y="-0.5" width="1" height="1" /></g>
<ellipse fill="#f3eddb" fill-opacity="0.501961" cx="180" cy="74" rx="6" ry="6" />
<polygon fill="#c18137" fill-opacity="0.501961" points="161,122 148,134 150,124" />
<polygon fill="#2e2e2c" fill-opacity="0.501961" points="126.880659,40.316929,151.500332,54.849867,170.445213,38.356915,150.370223,48.702030" />
<ellipse fill="#99a19f" fill-opacity="0.501961" cx="20" cy="141" rx="3" ry="3" />
<polygon fill="#c6c1ac" fill-opacity="0.501961" points="192.227306,134.620502,213.390744,146.337305,270.693572,176.187527,184.441693,139.427472" />
<rect fill="#ffccc9" fill-opacity="0.501961" x="137" y="83" width="9" height="5" />
<g transform="translate(104.493811 14.871705) rotate(274.685147) scale(9.145995 199.568355)"><ellipse fill="#e8f4fa" fill-opacity="0.501961" cx="0" cy="0" rx="1" ry="1" /></g>
<polygon fill="#13171a" fill-opacity="0.501961" points="197,107 146,112 196,125" />
<g transform="translate(30 30) rotate(93) scale(12 83)"><rect fill="#d7e8ee" fill-opacity="0.501961" x="-0.5" y="-0.5" width="1" height="1" /></g>
<rect fill="#c1e3ee" fill-opacity="0.501961" x="167" y="37" width="89" height="2" />
<rect fill="#7e552a" fill-opacity="0.501961" x="131" y="120" width="6" height="14" />
<polygon fill="#f3e4c6" fill-opacity="0.501961" points="116.975664,149.228049,109.736738,150.350619,134.354213,176.864307,116.373990,146.562565" />
<polygon fill="#e5dec7" fill-opacity="0.501961" points="99.385499,137.238948,70.123466,113.331017,106.385712,98.275190,129.336050,112.007136" />
<g transform="translate(98 167) rotate(312) scale(1 28)"><rect fill="#88918d" fill-opacity="0.501961" x="-0.5" y="-0.5" width="1" height="1" /></g>
<ellipse fill="#f4efdd" fill-opacity="0.501961" cx="249" cy="54" rx="78" ry="16" />
<ellipse fill="#b9641d" fill-opacity="0.501961" cx="129" cy="132" rx="3" ry="3" />
<polygon fill="#f1ead6" fill-opacity="0.501961" points="117.158090,71.246937,128.293572,46.631332,127.831859,41.481556,42.613195,41.128012" />
<polygon fill="#9ca5a0" fill-opacity="0.501961" points="212,163 223,185 238,178" />
<g transform="translate(198 153) rotate(196) scale(20 1)"><rect fill="#a1a59a" fill-opacity="0.501961" x="-0.5" y="-0.5" width="1" height="1" /></g>
<g transform="translate(74 139) rotate(205) scale(21 1)"><rect fill="#9fa9a5" fill-opacity="0.501961" x="-0.5" y="-0.5" width="1" height="1" /></g>
<polygon fill="#1c2329" fill-opacity="0.501961" points="193,92 181,87 187,130" />
<g transform="translate(122 149) rotate(291) scale(7 4)"><rect fill="#78858c" fill-opacity="0.501961" x="-0.5" y="-0.5" width="1" height="1" /></g>
<g transform="translate(37.289238 126.662112) rotate(129.456152) scale(1.514797 46.603806)"><ellipse fill="#d2cdba" fill-opacity="0.501961" cx="0" cy="0" rx="1" ry="1" /></g>
<polygon fill="#e6dec5" fill-opacity="0.501961" points="69.874853,122.315750,65.985147,122.211871,73.556197,138.424993,94.104906,138.287349" />
<polygon fill="#26241f" fill-opacity="0.501961" points="137.852200,136.792365,197.343050,123.886964,151.638227,131.590609,151.629868,140.353844" />
<g transform="translate(155 158) rotate(153) scale(8 6)"><rect fill="#8f9a97" fill-opacity="0.501961" x="-0.5" y="-0.5" width="1" height="1" /></g>
<polygon fill="#daceb5" fill-opacity="0.501961" points="130.451949,179.343142,217.890951,169.068229,169.514129,150.466385,165.103130,151.811313" />
<rect fill="#f2edd8" fill-opacity="0.501961" x="146" y="36" width="4" height="11" />
<polygon fill="#dcd1b7" fill-opacity="0.501961" points="131.373562,127.125515,96.369708,161.136936,107.640170,121.677923,94.627391,113.744477" />
<polygon fill="#b2b3a7" fill-opacity="0.501961" points="221.830773,185.000000,185.776233,161.924395,197.172179,165.288219,216.193974,185.000000" />
<polygon fill="#dfeff7" fill-opacity="0.501961" points="132,27 165,22 156,34" />
<g transform="translate(135 80) rotate(76) scale(7 5)"><rect fill="#976b38" fill-opacity="0.501961" x="-0.5" y="-0.5" width="1" height="1" /></g>
<path stroke="#574f3e" stroke-opacity="0.501961" fill="none" d="M 132.776996 86.029703 Q 116.504536 103.360759, 142.421339 131.242953" stroke-width="0.500000" />
<ellipse fill="#ecaa62" fill-opacity="0.501961" cx="132" cy="158" rx="4" ry="4" />
<polygon fill="#eadbbf" fill-opacity="0.501961" points="271.000000,173.225515,177.799501,145.533314,221.580581,153.592610,225.643551,185.000000" />
<rect fill="#5d5a50" fill-opacity="0.501961" x="134" y="50" width="6" height="25" />
<rect fill="#7c9db3" fill-opacity="0.501961" x="152" y="103" width="3" height="5" />
<polygon fill="#2a221b" fill-opacity="0.501961" points="132.690640,33.281989,131.847950,35.044164,128.811356,58.604547,135.400165,50.079741" />
<polygon fill="#e3d9c1" fill-opacity="0.501961" points="271,109 216,127 262,141" />
<polygon fill="#936d46" fill-opacity="0.501961" points="117.846326,147.936453,136.280236,153.125321,137.386037,167.841033,145.927910,159.952141" />
<polygon fill="#d7cdb6" fill-opacity="0.501961" points="88.708722,156.704743,89.600873,133.190057,124.794083,137.895503,125.591844,146.870126" />
<polygon fill="#d9caa8" fill-opacity="0.501961" points="204.737796,144.153814,198.509534,131.639823,179.854442,149.529558,181.721319,139.114467" />
<ellipse fill="#4a3118" fill-opacity="0.501961" cx="164" cy="143" rx="5" ry="5" />
<polygon fill="#ddd3bb" fill-opacity="0.501961" points="-5.967057,126.369901,32.799313,151.537880,4.133953,159.483797,35.222143,163.297771" />
<g transform="translate(8 162) rotate(281) scale(1 35)"><rect fill="#a7aaa0" fill-opacity="0.501961" x="-0.5" y="-0.5" width="1" height="1" /></g>
<g transform="translate(189.880559 58.302221) rotate(347.471892) scale(20.530945 3.649903)"><ellipse fill="#f0ead9" fill-opacity="0.501961" cx="0" cy="0" rx="1" ry="1" /></g>
<polygon fill="#1f2021" fill-opacity="0.501961" points="162.108655,78.626069,159.326192,35.814006,167.876273,39.511461,143.538601,76.285135" />
<g transform="translate(148 78) rotate(54) scale(1 7)"><rect fill="#937369" fill-opacity="0.501961" x="-0.5" y="-0.5" width="1" height="1" /></g>
<polygon fill="#79694e" fill-opacity="0.501961" points="125.308933,56.014340,126.841834,52.682331,134.608949,89.222945,129.699205,64.199781" />
<g transform="translate(0 78) rotate(0) scale(7 1)"><rect fill="#656d65" fill-opacity="0.501961" x="-0.5" y="-0.5" width="1" height="1" /></g>
<polygon fill="#cac9b9" fill-opacity="0.501961" points="24.783062,114.730534,59.069444,122.110351,22.730978,110.061023,45.473046,133.950778" />
<polygon fill="#eadfc6" fill-opacity="0.501961" points="61.684341,136.522681,97.694721,151.351389,62.548058,146.376722,60.066657,139.870622" />
<polygon fill="#e6deca" fill-opacity="0.501961" points="10.182404,97.042290,-7.478216,131.748363,-13.349789,135.134650,12.411853,134.648182" />
<ellipse fill="#96a39f" fill-opacity="0.501961" cx="18" cy="77" rx="2" ry="2" />
<polygon fill="#e5d8bd" fill-opacity="0.501961" points="78.020818,131.567489,100.870002,167.222891,107.098447,183.938879,112.134124,164.290879" />
<g transform="translate(156 147) rotate(144) scale(14 6)"><rect fill="#4e3726" fill-opacity="0.501961" x="-0.5" y="-0.5" width="1" height="1" /></g>
<polygon fill="#c6c0ae" fill-opacity="0.501961" points="31.959761,149.268387,64.365556,171.310556,54.194866,157.713349,29.610456,160.856023" />
<polygon fill="#ebe4d1" fill-opacity="0.501961" points="28,40 33,112 101,38" />
<g transform="translate(143 158) rotate(195) scale(9 5)"><rect fill="#523620" fill-opacity="0.501961" x="-0.5" y="-0.5" width="1" height="1" /></g>
<polygon fill="#4b4334" fill-opacity="0.501961" points="151,46 152,40 165,37" />
</g>
</svg>