<svg xmlns="http://www.w3.org/2000/svg" version="1.1" width="684" height="1024">
<rect x="0" y="0" width="684" height="1024" fill="#acad98" />
<g transform="scale(4.000000) translate(0.5 0.5)">
<g transform="translate(33.434348 231.028083) rotate(278.123292) scale(59.564828 170.000000)"><ellipse fill="#314200" fill-opacity="0.501961" cx="0" cy="0" rx="1" ry="1" /></g>
<ellipse fill="#ffffff" fill-opacity="0.501961" cx="134" cy="37" rx="71" ry="115" />
<ellipse fill="#f6ffff" fill-opacity="0.501961" cx="125" cy="31" rx="55" ry="55" />
<g transform="translate(89 99) rotate(301) scale(35 16)"><rect fill="#270c10" fill-opacity="0.501961" x="-0.5" y="-0.5" width="1" height="1" /></g>
<g transform="translate(154.834165 184.583049) rotate(114.868625) scale(30.555962 50.909679)"><ellipse fill="#848934" fill-opacity="0.501961" cx="0" cy="0" rx="1" ry="1" /></g>
<polygon fill="#eeedfb" fill-opacity="0.501961" points="70,131 27,25 41,189" />
<ellipse fill="#555e21" fill-opacity="0.501961" cx="11" cy="241" rx="39" ry="97" />
<polygon fill="#a1aa81" fill-opacity="0.501961" points="186,221 25,140 33,193" />
<ellipse fill="#f5f0f3" fill-opacity="0.501961" cx="156" cy="117" rx="58" ry="35" />
<rect fill="#ede9ee" fill-opacity="0.501961" x="87" y="110" width="19" height="74" />
<g transform="translate(33.660290 19.701661) rotate(48.936264) scale(55.165864 16.167381)"><ellipse fill="#92776c" fill-opacity="0.501961" cx="0" cy="0" rx="1" ry="1" /></g>
<ellipse fill="#e0f4ff" fill-opacity="0.501961" cx="119" cy="12" rx="67" ry="67" />
<ellipse fill="#948380" fill-opacity="0.501961" cx="78" cy="97" rx="26" ry="26" />
<g transform="translate(11.376383 255.000000) rotate(176.621995) scale(170.000000 31.192110)"><ellipse fill="#54592e" fill-opacity="0.501961" cx="0" cy="0" rx="1" ry="1" /></g>
<g transform="translate(0 69) rotate(172) scale(49 162)"><rect fill="#d59c7e" fill-opacity="0.501961" x="-0.5" y="-0.5" width="1" height="1" /></g>
<polygon fill="#837c70" fill-opacity="0.501961" points="39,65 36,-8 73,39" />
<g transform="translate(27.797458 53.005966) rotate(270.952697) scale(26.212045 4.634254)"><ellipse fill="#f5faff" fill-opacity="0.501961" cx="0" cy="0" rx="1" ry="1" /></g>
<g transform="translate(43.465035 166.155781) rotate(19.480964) scale(4.395739 21.788547)"><ellipse fill="#e5e7fe" fill-opacity="0.501961" cx="0" cy="0" rx="1" ry="1" /></g>
<polygon fill="#e6e2e1" fill-opacity="0.501961" points="76.031109,73.332485,39.353144,148.075413,37.635111,82.521825,22.063140,58.740755" />
<g transform="translate(16.731481 164.476152) rotate(61.746884) scale(17.263648 27.298638)"><ellipse fill="#858736" fill-opacity="0.501961" cx="0" cy="0" rx="1" ry="1" /></g>
<ellipse fill="#1c1322" fill-opacity="0.501961" cx="92" cy="93" rx="5" ry="13" />
<g transform="translate(135.268365 59.704125) rotate(4.703185) scale(58.214638 16.966479)"><ellipse fill="#ffffff" fill-opacity="0.501961" cx="0" cy="0" rx="1" ry="1" /></g>
<g transform="translate(147 192) rotate(245) scale(55 124)"><rect fill="#889256" fill-opacity="0.501961" x="-0.5" y="-0.5" width="1" height="1" /></g>
<g transform="translate(107.688498 171.565310) rotate(309.072064) scale(3.528021 17.484424)"><ellipse fill="#edecea" fill-opacity="0.501961" cx="0" cy="0" rx="1" ry="1" /></g>
<ellipse fill="#180e27" fill-opacity="0.501961" cx="80" cy="138" rx="7" ry="5" />
<g transform="translate(64 118) rotate(127) scale(7 13)"><rect fill="#323439" fill-opacity="0.501961" x="-0.5" y="-0.5" width="1" height="1" /></g>
<g transform="translate(0.000000 239.424242) rotate(236.379739) scale(59.048765 17.518684)"><ellipse fill="#2e3417" fill-opacity="0.501961" cx="0" cy="0" rx="1" ry="1" /></g>
<g transform="translate(0.000000 16.640612) rotate(29.925911) scale(24.484142 73.969677)"><ellipse fill="#a28066" fill-opacity="0.501961" cx="0" cy="0" rx="1" ry="1" /></g>
<ellipse fill="#8db6c1" fill-opacity="0.501961" cx="64" cy="45" rx="9" ry="25" />
<rect fill="#c2c6d5" fill-opacity="0.501961" x="61" y="124" width="14" height="46" />
<ellipse fill="#1b1722" fill-opacity="0.501961" cx="76" cy="79" rx="4" ry="4" />
<polygon fill="#a8947c" fill-opacity="0.501961" points="93,124 57,79 48,95" />
<polygon fill="#727f47" fill-opacity="0.501961" points="60,160 30,222 75,227" />
<g transform="translate(131.264006 0.000000) rotate(167.136079) scale(80.705484 27.204365)"><ellipse fill="#d0e3fc" fill-opacity="0.501961" cx="0" cy="0" rx="1" ry="1" /></g>
<polygon fill="#e6e3e1" fill-opacity="0.501961" points="98.275485,89.025198,169.558437,151.306187,184.622956,80.581380,96.864425,68.363686" />
<polygon fill="#815452" fill-opacity="0.501961" points="102,91 78,99 102,107" />
<polygon fill="#968e47" fill-opacity="0.501961" points="103.845098,154.627551,119.954622,180.750555,186.000000,173.226837,105.982435,148.371253" />
<rect fill="#e7e8e6" fill-opacity="0.501961" x="95" y="109" width="24" height="42" />
<polygon fill="#dbd8d4" fill-opacity="0.501961" points="15.332984,115.847246,56.757814,94.014221,34.264566,102.811422,88.040888,135.361308" />
<rect fill="#5f4b3b" fill-opacity="0.501961" x="41" y="47" width="11" height="13" />
<polygon fill="#c8ccd4" fill-opacity="0.501961" points="52,117 55,175 33,188" />
<polygon fill="#bcc3c4" fill-opacity="0.501961" points="69.642599,122.429477,66.811015,115.668299,83.712877,72.628425,96.125598,71.286082" />
<polygon fill="#818f53" fill-opacity="0.501961" points="46,202 -13,189 29,180" />
<rect fill="#b0a5a8" fill-opacity="0.501961" x="50" y="142" width="42" height="20" />
<g transform="translate(126.693426 199.219603) rotate(155.529267) scale(28.964008 22.718884)"><ellipse fill="#8f9a6a" fill-opacity="0.501961" cx="0" cy="0" rx="1" ry="1" /></g>
<ellipse fill="#887d75" fill-opacity="0.501961" cx="30" cy="93" rx="4" ry="17" />
<g transform="translate(114.381074 244.212267) rotate(-85.612905) scale(10.218078 40.835229)"><ellipse fill="#74774c" fill-opacity="0.501961" cx="0" cy="0" rx="1" ry="1" /></g>
<polygon fill="#2d2e35" fill-opacity="0.501961" points="96,74 84,98 96,86" />
<ellipse fill="#ceb299" fill-opacity="0.501961" cx="16" cy="99" rx="12" ry="51" />
<polygon fill="#eef6ff" fill-opacity="0.501961" points="37.182055,102.119572,46.685512,75.114635,186.000000,45.271385,113.502516,7.972484" />
<polygon fill="#75856f" fill-opacity="0.501961" points="64,20 56,41 63,42" />
<g transform="translate(166.494985 237.848271) rotate(279.932698) scale(32.650125 17.960089)"><ellipse fill="#595f33" fill-opacity="0.501961" cx="0" cy="0" rx="1" ry="1" /></g>
<polygon fill="#736a6d" fill-opacity="0.501961" points="58,163 83,178 51,178" />
<rect fill="#b3a764" fill-opacity="0.501961" x="113" y="149" width="43" height="16" />
<polygon fill="#d6d6d2" fill-opacity="0.501961" points="86.099866,190.584662,116.693525,175.637199,94.265339,157.953709,83.169590,185.751185" />
<g transform="translate(91 123) rotate(367) scale(14 24)"><rect fill="#d0cdc8" fill-opacity="0.501961" x="-0.5" y="-0.5" width="1" height="1" /></g>
<polygon fill="#bbc1c3" fill-opacity="0.501961" points="52.223131,133.018551,92.589111,164.084113,64.636728,172.362893,59.389681,105.349873" />
<rect fill="#c3c6c5" fill-opacity="0.501961" x="67" y="81" width="22" height="12" />
<polygon fill="#c3a68e" fill-opacity="0.501961" points="32.370779,36.907908,37.773684,75.363398,40.621487,14.211962,4.976516,26.606257" />
<polygon fill="#7e853c" fill-opacity="0.501961" points="-16,149 26,185 43,151" />
<g transform="translate(82 109) rotate(353) scale(6 5)"><rect fill="#392f09" fill-opacity="0.501961" x="-0.5" y="-0.5" width="1" height="1" /></g>
<g transform="translate(152.820601 173.630374) rotate(94.370092) scale(4.647563 27.834830)"><ellipse fill="#757b40" fill-opacity="0.501961" cx="0" cy="0" rx="1" ry="1" /></g>
<rect fill="#bed5e4" fill-opacity="0.501961" x="58" y="44" width="17" height="9" />
<g transform="translate(106.718401 83.292606) rotate(223.173508) scale(1.000000 20.986843)"><ellipse fill="#e3d4db" fill-opacity="0.501961" cx="0" cy="0" rx="1" ry="1" /></g>
<rect fill="#e54d4a" fill-opacity="0.501961" x="77" y="141" width="6" height="8" />
<ellipse fill="#e8e9e8" fill-opacity="0.501961" cx="44" cy="101" rx="6" ry="40" />
<polygon fill="#e0dfdf" fill-opacity="0.501961" points="82.572323,79.721493,182.016490,94.299985,112.094209,94.643359,82.102636,68.276360" />
<polygon fill="#1c1b1d" fill-opacity="0.501961" points="79,100 91,99 86,95" />
<polygon fill="#dbe9f2" fill-opacity="0.501961" points="23,65 34,31 34,73" />
<rect fill="#778449" fill-opacity="0.501961" x="137" y="205" width="34" height="21" />
<polygon fill="#e0ddd2" fill-opacity="0.501961" points="143.663292,130.450661,101.687394,147.036312,125.359974,152.049511,176.671673,146.765051" />
<ellipse fill="#383137" fill-opacity="0.501961" cx="77" cy="78" rx="5" ry="3" />
<polygon fill="#f6fbff" fill-opacity="0.501961" points="141.535758,72.691990,186.000000,72.074923,73.597532,21.371862,94.554970,76.356002" />
<ellipse fill="#a1846e" fill-opacity="0.501961" cx="4" cy="10" rx="49" ry="13" />
<polygon fill="#76827d" fill-opacity="0.501961" points="60,60 50,56 60,70" />
<polygon fill="#434125" fill-opacity="0.501961" points="186,215 186,258 140,271" />
<polygon fill="#cfe2f5" fill-opacity="0.501961" points="63,20 42,-16 186,2" />
<g transform="translate(15.135268 217.961644) rotate(149.075415) scale(15.551692 20.883736)"><ellipse fill="#4f5a2b" fill-opacity="0.501961" cx="0" cy="0" rx="1" ry="1" /></g>
<rect fill="#c6cbcd" fill-opacity="0.501961" x="52" y="125" width="47" height="10" />
<g transform="translate(73.705844 60.383240) rotate(182.388133) scale(2.406749 28.666914)"><ellipse fill="#c0d4de" fill-opacity="0.501961" cx="0" cy="0" rx="1" ry="1" /></g>
<ellipse fill="#05090d" fill-opacity="0.501961" cx="63" cy="116" rx="3" ry="3" />
<rect fill="#e5e3e0" fill-opacity="0.501961" x="103" y="75" width="68" height="72" />
<g transform="translate(79 123) rotate(-17) scale(9 1)"><rect fill="#573930" fill-opacity="0.501961" x="-0.5" y="-0.5" width="1" height="1" /></g>
<polygon fill="#6f823e" fill-opacity="0.501961" points="82.850282,214.575668,106.991878,242.649391,92.371423,195.322299,2.442164,195.111455" />
<polygon fill="#b3a197" fill-opacity="0.501961" points="122.420547,94.646444,52.516368,100.683613,69.326069,63.701094,63.084731,95.687740" />
<polygon fill="#b4bbbb" fill-opacity="0.501961" points="74.908543,109.768422,57.910936,109.911704,78.537410,122.161625,67.238887,42.630158" />
<polygon fill="#e8e6e3" fill-opacity="0.501961" points="103.254068,154.179445,105.742551,177.248908,88.115444,175.173579,104.570741,138.338550" />
<polygon fill="#9b9a49" fill-opacity="0.501961" points="104,155 109,169 121,151" />
<polygon fill="#c8ac8e" fill-opacity="0.501961" points="23.824648,149.438440,37.921569,147.837351,34.834082,115.558850,-14.416383,143.752389" />
<g transform="translate(2.410250 54.615354) rotate(211.895851) scale(13.769130 33.513334)"><ellipse fill="#ba9a81" fill-opacity="0.501961" cx="0" cy="0" rx="1" ry="1" /></g>
<rect fill="#0c0a0d" fill-opacity="0.501961" x="91" y="84" width="4" height="11" />
<polygon fill="#c1b7aa" fill-opacity="0.501961" points="85.492490,142.517902,93.612900,107.903038,80.498015,116.114193,100.776529,147.838223" />
<rect fill="#98a379" fill-opacity="0.501961" x="99" y="195" width="39" height="11" />
<polygon fill="#969f67" fill-opacity="0.501961" points="62.408155,177.882489,74.112464,188.216308,109.918648,178.954663,61.320425,202.420785" />
<rect fill="#bcb0a0" fill-opacity="0.501961" x="32" y="68" width="4" height="44" />
<g transform="translate(96 107) rotate(389) scale(1 11)"><rect fill="#f8e9cd" fill-opacity="0.501961" x="-0.5" y="-0.5" width="1" height="1" /></g>
<g transform="translate(77.382959 26.327233) rotate(43.192392) scale(6.144896 14.207953)"><ellipse fill="#dfedfa" fill-opacity="0.501961" cx="0" cy="0" rx="1" ry="1" /></g>
<polygon fill="#a4a9a2" fill-opacity="0.501961" points="61.498945,158.373184,96.658250,193.564429,48.271142,150.937176,67.497727,136.198590" />
<polygon fill="#c1ba95" fill-opacity="0.501961" points="138.001862,167.440602,133.522077,173.131424,130.839436,131.214847,129.624820,163.015534" />
<polygon fill="#727948" fill-opacity="0.501961" points="112.395359,221.600290,77.012462,242.277485,147.592520,252.983202,114.696223,204.729508" />
<polygon fill="#ac907b" fill-opacity="0.501961" points="44.229623,39.506208,35.082860,-13.907198,20.803211,8.459760,41.495342,53.536645" />
<polygon fill="#8b867e" fill-opacity="0.501961" points="75.291736,103.893415,96.623650,87.023155,55.975972,111.535574,71.408047,109.030050" />
<polygon fill="#a09c95" fill-opacity="0.501961" points="81.642173,188.702560,86.459497,181.317724,91.423672,140.492174,84.418259,143.039860" />
<ellipse fill="#b29b83" fill-opacity="0.501961" cx="61" cy="90" rx="5" ry="16" />
<rect fill="#9b954c" fill-opacity="0.501961" x="136" y="153" width="35" height="16" />
<polygon fill="#c9cfd1" fill-opacity="0.501961" points="61.480628,115.880253,54.098183,100.799824,46.067876,139.180521,47.694889,183.732549" />
<polygon fill="#99948b" fill-opacity="0.501961" points="56.481377,69.999109,60.492869,26.217317,49.023350,49.667313,46.761238,68.437889" />
<ellipse fill="#d98e9d" fill-opacity="0.501961" cx="101" cy="92" rx="4" ry="4" />
<polygon fill="#64887f" fill-opacity="0.501961" points="73,44 67,37 64,41" />
<g transform="translate(48 109) rotate(32) scale(18 19)"><rect fill="#e7e8e7" fill-opacity="0.501961" x="-0.5" y="-0.5" width="1" height="1" /></g>
<rect fill="#664b44" fill-opacity="0.501961" x="65" y="119" width="10" height="4" />
<polygon fill="#727d45" fill-opacity="0.501961" points="186.000000,205.655576,186.000000,159.270370,163.382245,178.835461,162.790485,187.989794" />
<ellipse fill="#545b34" fill-opacity="0.501961" cx="78" cy="255" rx="53" ry="7" />
<g transform="translate(3.926910 174.874361) rotate(190.322102) scale(30.785368 11.036534)"><ellipse fill="#6a7441" fill-opacity="0.501961" cx="0" cy="0" rx="1" ry="1" /></g>
<polygon fill="#f0eae1" fill-opacity="0.501961" points="159.981499,71.604180,186.000000,158.039143,156.416872,147.881659,157.613074,133.786366" />
<polygon fill="#5c672c" fill-opacity="0.501961" points="102,231 89,214 62,232" />
<g transform="translate(115.726677 191.067245) rotate(46.464424) scale(11.126893 3.543002)"><ellipse fill="#798349" fill-opacity="0.501961" cx="0" cy="0" rx="1" ry="1" /></g>
<rect fill="#dfdddd" fill-opacity="0.501961" x="104" y="76" width="54" height="22" />
<g transform="translate(91 108) rotate(44) scale(1 39)"><rect fill="#8f675a" fill-opacity="0.501961" x="-0.5" y="-0.5" width="1" height="1" /></g>
<polygon fill="#8e8f4d" fill-opacity="0.501961" points="17.698424,168.089605,27.144226,189.279322,2.403946,147.972361,44.786810,149.821368" />
<polygon fill="#959c73" fill-opacity="0.501961" points="95.227746,213.748676,148.292591,196.468251,186.000000,202.522226,152.416405,181.214760" />
<rect fill="#262828" fill-opacity="0.501961" x="74" y="139" width="6" height="3" />
<g transform="translate(155.227216 150.170834) rotate(278.423215) scale(2.324243 19.644655)"><ellipse fill="#cdc5a1" fill-opacity="0.501961" cx="0" cy="0" rx="1" ry="1" /></g>
<g transform="translate(88 97) rotate(318) scale(11 1)"><rect fill="#0e080c" fill-opacity="0.501961" x="-0.5" y="-0.5" width="1" height="1" /></g>
<polygon fill="#b7b59f" fill-opacity="0.501961" points="115,176 90,190 103,176" />
<g transform="translate(61 214) rotate(305) scale(11 14)"><rect fill="#858c61" fill-opacity="0.501961" x="-0.5" y="-0.5" width="1" height="1" /></g>
<ellipse fill="#aaa9ac" fill-opacity="0.501961" cx="72" cy="168" rx="12" ry="5" />
<polygon fill="#d7d9db" fill-opacity="0.501961" points="41.695160,100.725149,63.227463,74.031934,85.385146,70.362210,42.122981,68.579744" />
<g transform="translate(46 53) rotate(162) scale(7 17)"><rect fill="#6c5e4d" fill-opacity="0.501961" x="-0.5" y="-0.5" width="1" height="1" /></g>
<polygon fill="#d3d5ce" fill-opacity="0.501961" points="114.882471,170.130801,96.720331,173.453860,113.051001,181.027125,116.544931,176.920260" />
<path stroke="#2e2822" stroke-opacity="0.501961" fill="none" d="M 67.765831 121.919035 Q 57.577790 109.062884, 61.252965 106.357260" stroke-width="0.500000" />
<polygon fill="#472d33" fill-opacity="0.501961" points="89,103 101,98 80,97" />
<polygon fill="#c9c7be" fill-opacity="0.501961" points="33,188 36,173 38,187" />
<polygon fill="#c9b5a2" fill-opacity="0.501961" points="19.176291,75.794510,33.024780,72.553048,13.221797,99.292833,30.691791,114.126924" />
<g transform="translate(53 0) rotate(265) scale(29 4)"><rect fill="#a0b9d2" fill-opacity="0.501961" x="-0.5" y="-0.5" width="1" height="1" /></g>
<polygon fill="#e3e1db" fill-opacity="0.501961" points="69.607630,120.989973,92.980273,113.266359,102.279489,174.790665,107.478437,106.695930" />
<polygon fill="#8f9091" fill-opacity="0.501961" points="92.766143,87.969318,78.216198,102.795160,81.307894,94.081410,85.493172,82.204208" />
<ellipse fill="#3c3231" fill-opacity="0.501961" cx="58" cy="167" rx="2" ry="3" />
<rect fill="#31353d" fill-opacity="0.501961" x="84" y="134" width="2" height="10" />
<ellipse fill="#726754" fill-opacity="0.501961" cx="70" cy="104" rx="3" ry="3" />
<ellipse fill="#533826" fill-opacity="0.501961" cx="78" cy="121" rx="2" ry="2" />
<rect fill="#b57e72" fill-opacity="0.501961" x="74" y="142" width="12" height="9" />
<polygon fill="#6a7740" fill-opacity="0.501961" points="29,246 45,185 54,221" />
<polygon fill="#c8cdcd" fill-opacity="0.501961" points="69,144 52,116 78,126" />
<rect fill="#767f48" fill-opacity="0.501961" x="70" y="176" width="7" height="15" />
<rect fill="#e0edf8" fill-opacity="0.501961" x="25" y="38" width="6" height="31" />
<polygon fill="#b4b5af" fill-opacity="0.501961" points="88,113 72,119 60,109" />
<polygon fill="#bec1c0" fill-opacity="0.501961" points="61.474235,166.370379,62.106500,160.510671,68.571408,145.339777,91.647577,160.850291" />
<polygon fill="#a9c2c8" fill-opacity="0.501961" points="56,28 71,20 53,22" />
<polygon fill="#849162" fill-opacity="0.501961" points="154.808696,209.029938,186.000000,207.458669,161.900681,196.419800,80.881284,213.562953" />
<polygon fill="#e6e3e3" fill-opacity="0.501961" points="146.299182,83.829765,98.247908,147.501368,118.736709,71.499926,98.727208,103.203914" />
<g transform="translate(3.794928 0.000000) rotate(42.104210) scale(10.517202 62.483837)"><ellipse fill="#967a62" fill-opacity="0.501961" cx="0" cy="0" rx="1" ry="1" /></g>
<polygon fill="#c0c2be" fill-opacity="0.501961" points="87.533824,94.098028,65.250075,79.395879,72.204428,96.858792,73.169564,99.265286" />
<g transform="translate(76.487258 78.017149) rotate(322.983739) scale(4.366261 1.076679)"><ellipse fill="#3e3538" fill-opacity="0.501961" cx="0" cy="0" rx="1" ry="1" /></g>
<g transform="translate(96 74) rotate(286) scale(5 36)"><rect fill="#d7d8d9" fill-opacity="0.501961" x="-0.5" y="-0.5" width="1" height="1" /></g>
<g transform="translate(153 114) rotate(269) scale(66 8)"><rect fill="#dbd9d6" fill-opacity="0.501961" x="-0.5" y="-0.5" width="1" height="1" /></g>
<ellipse fill="#f02c27" fill-opacity="0.501961" cx="80" cy="146" rx="2" ry="2" />
<polygon fill="#93816e" fill-opacity="0.501961" points="52.924371,10.230956,46.798583,4.613857,34.364679,8.729817,50.020532,53.061972" />
<g transform="translate(147.102667 22.874768) rotate(94.599254) scale(8.256868 91.504559)"><ellipse fill="#dfecf8" fill-opacity="0.501961" cx="0" cy="0" rx="1" ry="1" /></g>
<ellipse fill="#dfccb3" fill-opacity="0.501961" cx="30" cy="115" rx="7" ry="7" />
</g>
</svg>