<svg xmlns="http://www.w3.org/2000/svg" version="1.1" width="684" height="1024">
<rect x="0" y="0" width="684" height="1024" fill="#acad98" />
<g transform="scale(4.000000) translate(0.5 0.5)">
<g transform="translate(34.316621 216.392349) rotate(370.326358) scale(170.000000 46.671893)"><ellipse fill="#314200" fill-opacity="0.501961" cx="0" cy="0" rx="1" ry="1" /></g>
<g transform="translate(128.793650 42.224225) rotate(72.210507) scale(115.762854 59.052193)"><ellipse fill="#ffffff" fill-opacity="0.501961" cx="0" cy="0" rx="1" ry="1" /></g>
<polygon fill="#f7feff" fill-opacity="0.501961" points="109,-16 186,33 84,203" />
<polygon fill="#29060c" fill-opacity="0.501961" points="105,106 94,73 76,111" />
<ellipse fill="#f4f2fb" fill-opacity="0.501961" cx="44" cy="122" rx="12" ry="63" />
<polygon fill="#7e8229" fill-opacity="0.501961" points="163,239 186,151 100,151" />
<polygon fill="#576019" fill-opacity="0.501961" points="45,144 7,271 -16,151" />
<g transform="translate(116.666691 12.326524) rotate(325.777552) scale(55.990848 94.946515)"><ellipse fill="#e7f9ff" fill-opacity="0.501961" cx="0" cy="0" rx="1" ry="1" /></g>
<polygon fill="#9ba672" fill-opacity="0.501961" points="185,190 131,225 -16,166" />
<ellipse fill="#fdffff" fill-opacity="0.501961" cx="29" cy="56" rx="7" ry="22" />
<g transform="translate(14.852980 0.000000) rotate(144.324401) scale(21.591519 72.282158)"><ellipse fill="#9c7465" fill-opacity="0.501961" cx="0" cy="0" rx="1" ry="1" /></g>
<g transform="translate(40.189155 255.000000) rotate(-1.373863) scale(154.260000 32.035316)"><ellipse fill="#50552a" fill-opacity="0.501961" cx="0" cy="0" rx="1" ry="1" /></g>
<ellipse fill="#ede6e7" fill-opacity="0.501961" cx="128" cy="123" rx="44" ry="28" />
<polygon fill="#f6fcff" fill-opacity="0.501961" points="182,47 101,22 49,81" />
<polygon fill="#d4d7e1" fill-opacity="0.501961" points="40,98 37,189 76,132" />
<ellipse fill="#daa78a" fill-opacity="0.501961" cx="10" cy="103" rx="26" ry="47" />
<rect fill="#e3f0fa" fill-opacity="0.501961" x="24" y="29" width="12" height="42" />
<ellipse fill="#84aabc" fill-opacity="0.501961" cx="64" cy="44" rx="9" ry="24" />
<rect fill="#35253c" fill-opacity="0.501961" x="73" y="134" width="13" height="10" />
<g transform="translate(0.000000 237.044178) rotate(142.876746) scale(16.357693 67.826069)"><ellipse fill="#2e3519" fill-opacity="0.501961" cx="0" cy="0" rx="1" ry="1" /></g>
<polygon fill="#644b5a" fill-opacity="0.501961" points="70.540666,76.104551,82.538432,76.689965,105.583876,93.120717,102.583252,98.956647" />
<polygon fill="#7c854e" fill-opacity="0.501961" points="70,173 151,244 118,271" />
<polygon fill="#1c101f" fill-opacity="0.501961" points="62,122 75,122 62,112" />
<polygon fill="#7e7366" fill-opacity="0.501961" points="50.537102,1.128350,57.386504,62.320504,40.585185,63.961859,38.672167,15.222462" />
<g transform="translate(143.991332 93.944683) rotate(190.278587) scale(46.903678 15.918273)"><ellipse fill="#e3d9d7" fill-opacity="0.501961" cx="0" cy="0" rx="1" ry="1" /></g>
<g transform="translate(2.102976 28.909562) rotate(101.471902) scale(39.738970 23.407757)"><ellipse fill="#b9896c" fill-opacity="0.501961" cx="0" cy="0" rx="1" ry="1" /></g>
<g transform="translate(15 171) rotate(286) scale(53 41)"><rect fill="#838841" fill-opacity="0.501961" x="-0.5" y="-0.5" width="1" height="1" /></g>
<ellipse fill="#d2e7ff" fill-opacity="0.501961" cx="136" cy="5" rx="84" ry="31" />
<g transform="translate(71 159) rotate(186) scale(39 35)"><rect fill="#a8a1a9" fill-opacity="0.501961" x="-0.5" y="-0.5" width="1" height="1" /></g>
<polygon fill="#d0cfcf" fill-opacity="0.501961" points="94,187 58,140 117,174" />
<rect fill="#000002" fill-opacity="0.501961" x="89" y="83" width="6" height="12" />
<g transform="translate(9.939556 128.938445) rotate(208.210500) scale(29.971714 18.269592)"><ellipse fill="#ccaa8c" fill-opacity="0.501961" cx="0" cy="0" rx="1" ry="1" /></g>
<polygon fill="#cfd1d5" fill-opacity="0.501961" points="77.409529,91.227978,85.907366,64.312656,4.819685,80.003475,105.769230,71.793047" />
<polygon fill="#403b2d" fill-opacity="0.501961" points="56,171 63,178 59,160" />
<polygon fill="#eae8e7" fill-opacity="0.501961" points="31.229692,45.166984,60.961071,124.078711,57.903285,102.805954,40.294646,146.714136" />
<ellipse fill="#86905b" fill-opacity="0.501961" cx="146" cy="192" rx="40" ry="24" />
<polygon fill="#c8cccf" fill-opacity="0.501961" points="48,137 31,190 53,175" />
<polygon fill="#f9feff" fill-opacity="0.501961" points="82,67 186,75 72,18" />
<polygon fill="#c2bdbe" fill-opacity="0.501961" points="103.080622,120.706982,79.365552,105.562494,83.031865,83.840212,41.792152,61.566822" />
<ellipse fill="#3e3841" fill-opacity="0.501961" cx="78" cy="79" rx="4" ry="5" />
<rect fill="#aca055" fill-opacity="0.501961" x="106" y="150" width="52" height="16" />
<polygon fill="#cfcfcd" fill-opacity="0.501961" points="73.983051,136.979555,76.248197,151.243087,6.069605,103.203958,96.626368,131.302786" />
<g transform="translate(158.715868 117.971303) rotate(173.754467) scale(66.732721 29.520598)"><ellipse fill="#e7e5e3" fill-opacity="0.501961" cx="0" cy="0" rx="1" ry="1" /></g>
<polygon fill="#96a172" fill-opacity="0.501961" points="72,178 104,210 159,204" />
<rect fill="#160000" fill-opacity="0.501961" x="80" y="98" width="19" height="2" />
<polygon fill="#eee8e5" fill-opacity="0.501961" points="90,179 102,133 106,176" />
<polygon fill="#d6e8f9" fill-opacity="0.501961" points="104.164450,40.914698,53.494468,46.252681,84.519916,65.503461,47.801834,-16.000000" />
<g transform="translate(60.539999 97.910672) rotate(33.242710) scale(12.197254 6.927657)"><ellipse fill="#aa8977" fill-opacity="0.501961" cx="0" cy="0" rx="1" ry="1" /></g>
<rect fill="#737c7c" fill-opacity="0.501961" x="27" y="82" width="6" height="24" />
<ellipse fill="#c0c1c5" fill-opacity="0.501961" cx="78" cy="90" rx="9" ry="9" />
<g transform="translate(17.750433 216.886180) rotate(171.947317) scale(18.336303 19.140306)"><ellipse fill="#4e5a2b" fill-opacity="0.501961" cx="0" cy="0" rx="1" ry="1" /></g>
<polygon fill="#7d7f3e" fill-opacity="0.501961" points="183.911780,162.367300,113.684679,172.458320,166.169317,181.429702,172.388112,202.653768" />
<polygon fill="#79824c" fill-opacity="0.501961" points="56.819902,169.415323,131.904906,226.871738,82.761895,251.017721,82.536041,171.861533" />
<polygon fill="#6d8170" fill-opacity="0.501961" points="72,44 54,34 62,26" />
<polygon fill="#aea9a6" fill-opacity="0.501961" points="48.047986,154.207246,65.740282,138.811192,94.118057,147.500737,85.967739,187.768466" />
<polygon fill="#b6a1a2" fill-opacity="0.501961" points="96.230842,73.204420,67.357919,71.156674,101.328408,84.483632,102.133281,113.310480" />
<g transform="translate(45 55) rotate(181) scale(7 12)"><rect fill="#524634" fill-opacity="0.501961" x="-0.5" y="-0.5" width="1" height="1" /></g>
<g transform="translate(12 182) rotate(189) scale(43 24)"><rect fill="#6a7447" fill-opacity="0.501961" x="-0.5" y="-0.5" width="1" height="1" /></g>
<polygon fill="#c26f60" fill-opacity="0.501961" points="76.677632,141.327692,87.581370,143.267902,81.520813,150.361293,73.406541,152.229993" />
<rect fill="#81615a" fill-opacity="0.501961" x="68" y="120" width="20" height="4" />
<polygon fill="#b6726c" fill-opacity="0.501961" points="105,90 99,111 95,90" />
<polygon fill="#c9a990" fill-opacity="0.501961" points="21.044944,87.968065,25.715617,25.676910,-16.000000,83.618236,26.560781,129.895961" />
<g transform="translate(73 160) rotate(190) scale(21 12)"><rect fill="#c3ccce" fill-opacity="0.501961" x="-0.5" y="-0.5" width="1" height="1" /></g>
<ellipse fill="#000001" fill-opacity="0.501961" cx="94" cy="85" rx="3" ry="3" />
<polygon fill="#bda086" fill-opacity="0.501961" points="40,21 44,41 11,22" />
<g transform="translate(165.995255 255.000000) rotate(119.446828) scale(43.213098 9.662182)"><ellipse fill="#444324" fill-opacity="0.501961" cx="0" cy="0" rx="1" ry="1" /></g>
<polygon fill="#e9e8e7" fill-opacity="0.501961" points="61.386896,70.583315,40.591458,74.287657,48.199201,134.356660,33.659255,120.028336" />
<ellipse fill="#c6ddf7" fill-opacity="0.501961" cx="58" cy="11" rx="5" ry="17" />
<polygon fill="#000000" fill-opacity="0.501961" points="62,117 65,117 60,109" />
<ellipse fill="#c2bfbb" fill-opacity="0.501961" cx="92" cy="135" rx="6" ry="22" />
<rect fill="#59662a" fill-opacity="0.501961" x="76" y="219" width="25" height="15" />
<ellipse fill="#728441" fill-opacity="0.501961" cx="52" cy="205" rx="21" ry="21" />
<polygon fill="#e0dcd9" fill-opacity="0.501961" points="142.469572,97.848822,87.534479,72.837286,161.036776,76.046572,129.436393,162.373742" />
<rect fill="#af997a" fill-opacity="0.501961" x="31" y="119" width="5" height="32" />
<g transform="translate(1.699487 8.702607) rotate(125.218712) scale(89.340517 13.692443)"><ellipse fill="#997e66" fill-opacity="0.501961" cx="0" cy="0" rx="1" ry="1" /></g>
<rect fill="#8a8f86" fill-opacity="0.501961" x="46" y="57" width="17" height="11" />
<polygon fill="#d9dbd3" fill-opacity="0.501961" points="77.135770,164.118453,82.496418,164.842667,118.687949,180.398099,114.282815,170.997717" />
<polygon fill="#929a6b" fill-opacity="0.501961" points="80.699928,180.127388,89.528760,148.275044,82.753751,196.139226,53.936659,198.770420" />
<g transform="translate(114.552991 1.852340) rotate(182.803079) scale(63.356724 10.684447)"><ellipse fill="#cbdff4" fill-opacity="0.501961" cx="0" cy="0" rx="1" ry="1" /></g>
<g transform="translate(127.750690 64.109067) rotate(351.028951) scale(37.380844 9.988556)"><ellipse fill="#fbfdff" fill-opacity="0.501961" cx="0" cy="0" rx="1" ry="1" /></g>
<polygon fill="#e2f1fc" fill-opacity="0.501961" points="30.866670,70.139822,33.601355,47.860493,27.839548,31.631049,27.055815,72.855747" />
<g transform="translate(70 104) rotate(90) scale(7 3)"><rect fill="#53483f" fill-opacity="0.501961" x="-0.5" y="-0.5" width="1" height="1" /></g>
<polygon fill="#8a8e43" fill-opacity="0.501961" points="45.597464,150.017548,40.882860,158.261969,34.935176,177.315489,-16.000000,147.910780" />
<g transform="translate(109.656642 200.648352) rotate(187.032830) scale(15.557989 22.130365)"><ellipse fill="#8c9861" fill-opacity="0.501961" cx="0" cy="0" rx="1" ry="1" /></g>
<g transform="translate(91.112588 103.995012) rotate(227.484075) scale(3.917170 12.537569)"><ellipse fill="#725950" fill-opacity="0.501961" cx="0" cy="0" rx="1" ry="1" /></g>
<g transform="translate(155.670896 212.906206) rotate(373.048643) scale(19.953884 13.359228)"><ellipse fill="#758250" fill-opacity="0.501961" cx="0" cy="0" rx="1" ry="1" /></g>
<polygon fill="#d5bfc7" fill-opacity="0.501961" points="120.792118,115.016146,100.491520,85.602170,93.624924,97.478134,105.505344,90.494019" />
<g transform="translate(118.391308 37.024039) rotate(100.066966) scale(17.881917 51.386517)"><ellipse fill="#ebf4fd" fill-opacity="0.501961" cx="0" cy="0" rx="1" ry="1" /></g>
<rect fill="#c5c1b8" fill-opacity="0.501961" x="34" y="41" width="4" height="78" />
<polygon fill="#c0c5c6" fill-opacity="0.501961" points="83.023256,70.789660,55.307622,68.934102,86.032272,95.956353,63.109627,86.540640" />
<polygon fill="#e5e5e5" fill-opacity="0.501961" points="60.370765,105.085740,40.015462,150.833342,41.142515,63.832932,48.995434,99.063136" />
<g transform="translate(80 136) rotate(166) scale(12 1)"><rect fill="#0f2130" fill-opacity="0.501961" x="-0.5" y="-0.5" width="1" height="1" /></g>
<polygon fill="#b3afb3" fill-opacity="0.501961" points="93.936670,118.069199,85.719760,133.195884,75.936608,99.365666,67.254810,118.559383" />
<rect fill="#f2ece5" fill-opacity="0.501961" x="158" y="71" width="13" height="78" />
<g transform="translate(96.341434 83.866638) rotate(268.008445) scale(8.864922 1.000000)"><ellipse fill="#463b46" fill-opacity="0.501961" cx="0" cy="0" rx="1" ry="1" /></g>
<polygon fill="#c7c196" fill-opacity="0.501961" points="132.942908,165.147371,127.090604,151.896322,186.000000,153.348354,134.771434,145.478190" />
<rect fill="#869156" fill-opacity="0.501961" x="4" y="188" width="127" height="7" />
<g transform="translate(132 196) rotate(74) scale(13 62)"><rect fill="#989f75" fill-opacity="0.501961" x="-0.5" y="-0.5" width="1" height="1" /></g>
<polygon fill="#656a42" fill-opacity="0.501961" points="124.346398,228.302964,186.000000,217.139417,141.077260,259.330014,104.260102,256.738026" />
<polygon fill="#c4cacc" fill-opacity="0.501961" points="79.650808,129.853349,40.861708,162.973702,48.552495,124.817641,56.873115,116.549974" />
<polygon fill="#c7cbcb" fill-opacity="0.501961" points="91.363588,90.019421,78.197151,68.336765,104.590452,73.936694,72.048706,82.314280" />
<rect fill="#2c2226" fill-opacity="0.501961" x="75" y="136" width="4" height="7" />
<polygon fill="#a09e57" fill-opacity="0.501961" points="106.936366,168.017363,141.334148,153.354560,103.860764,151.177014,104.591282,159.262568" />
<polygon fill="#7b7c6e" fill-opacity="0.501961" points="58.068683,152.862045,50.878262,191.214228,43.861604,182.983099,64.696794,179.784045" />
<polygon fill="#9b8674" fill-opacity="0.501961" points="57,47 36,-12 32,30" />
<polygon fill="#d3d5d4" fill-opacity="0.501961" points="49.005488,155.737211,36.317237,172.601063,34.033849,185.913200,36.456620,190.331118" />
<polygon fill="#f4faff" fill-opacity="0.501961" points="186.000000,72.568492,153.418751,41.329733,71.399701,70.225782,77.725178,48.113511" />
<rect fill="#e3e2e1" fill-opacity="0.501961" x="103" y="96" width="50" height="52" />
<polygon fill="#555d32" fill-opacity="0.501961" points="54.280446,211.480582,23.160042,266.290112,172.893016,260.232818,49.344699,245.830601" />
<polygon fill="#728048" fill-opacity="0.501961" points="42.113592,204.460751,95.199107,196.963383,83.217991,220.953614,63.210531,230.002802" />
<rect fill="#70744a" fill-opacity="0.501961" x="56" y="236" width="92" height="14" />
<polygon fill="#627134" fill-opacity="0.501961" points="37.447048,234.255945,56.116225,201.534191,-5.232347,192.096829,74.214365,229.939738" />
<g transform="translate(51 0) rotate(-19) scale(4 29)"><rect fill="#9caebe" fill-opacity="0.501961" x="-0.5" y="-0.5" width="1" height="1" /></g>
<polygon fill="#d0d3d0" fill-opacity="0.501961" points="107,175 87,185 89,164" />
<rect fill="#cebeac" fill-opacity="0.501961" x="22" y="25" width="3" height="93" />
<polygon fill="#b2a094" fill-opacity="0.501961" points="65.782400,70.798034,51.978502,87.427144,99.459043,110.112478,57.904600,99.748394" />
<ellipse fill="#00000b" fill-opacity="0.501961" cx="78" cy="77" rx="2" ry="2" />
<polygon fill="#858889" fill-opacity="0.501961" points="89.912253,77.780481,89.157011,89.215863,102.295324,68.839111,75.681570,110.722447" />
<rect fill="#5b3b28" fill-opacity="0.501961" x="76" y="121" width="8" height="2" />
<rect fill="#728f88" fill-opacity="0.501961" x="60" y="38" width="12" height="5" />
<ellipse fill="#fb5657" fill-opacity="0.501961" cx="80" cy="145" rx="3" ry="3" />
<ellipse fill="#131f28" fill-opacity="0.501961" cx="64" cy="117" rx="3" ry="3" />
<rect fill="#bcc0c7" fill-opacity="0.501961" x="65" y="108" width="9" height="8" />
<polygon fill="#a4c6d2" fill-opacity="0.501961" points="75,35 73,60 68,49" />
<rect fill="#292b33" fill-opacity="0.501961" x="83" y="135" width="3" height="8" />
<ellipse fill="#ccafa7" fill-opacity="0.501961" cx="85" cy="143" rx="7" ry="2" />
<rect fill="#e8e9e7" fill-opacity="0.501961" x="99" y="110" width="5" height="49" />
<rect fill="#857664" fill-opacity="0.501961" x="62" y="104" width="11" height="5" />
<polygon fill="#9c9a8f" fill-opacity="0.501961" points="57.434856,42.066978,68.698363,19.159407,34.029473,39.295202,38.966487,25.890569" />
<rect fill="#989052" fill-opacity="0.501961" x="108" y="162" width="63" height="8" />
<g transform="translate(131 153) rotate(182) scale(1 33)"><rect fill="#c7bd9b" fill-opacity="0.501961" x="-0.5" y="-0.5" width="1" height="1" /></g>
<g transform="translate(31 91) rotate(355) scale(6 30)"><rect fill="#96958c" fill-opacity="0.501961" x="-0.5" y="-0.5" width="1" height="1" /></g>
<g transform="translate(4.510071 61.159983) rotate(111.549476) scale(40.903597 12.529867)"><ellipse fill="#bc9c82" fill-opacity="0.501961" cx="0" cy="0" rx="1" ry="1" /></g>
<polygon fill="#211e23" fill-opacity="0.501961" points="97,90 95,85 85,97" />
<rect fill="#888966" fill-opacity="0.501961" x="56" y="210" width="11" height="10" />
<g transform="translate(117.436466 191.169009) rotate(415.772014) scale(11.093789 3.908558)"><ellipse fill="#7e874f" fill-opacity="0.501961" cx="0" cy="0" rx="1" ry="1" /></g>
<ellipse fill="#9a8456" fill-opacity="0.501961" cx="99" cy="106" rx="3" ry="3" />
<polygon fill="#757d32" fill-opacity="0.501961" points="7.098744,150.191515,-12.230341,185.785020,38.622368,163.897141,-16.000000,161.311658" />
<rect fill="#ad9f9c" fill-opacity="0.501961" x="68" y="117" width="22" height="3" />
<g transform="translate(92 87) rotate(272) scale(12 7)"><rect fill="#333541" fill-opacity="0.501961" x="-0.5" y="-0.5" width="1" height="1" /></g>
<polygon fill="#dacab5" fill-opacity="0.501961" points="27.404935,107.508458,22.349885,115.835979,36.552919,125.991944,38.924480,111.390100" />
<g transform="translate(97.282501 104.298991) rotate(45.072135) scale(1.000000 13.533416)"><ellipse fill="#d8b99e" fill-opacity="0.501961" cx="0" cy="0" rx="1" ry="1" /></g>
<polygon fill="#a0a990" fill-opacity="0.501961" points="35,190 41,181 46,185" />
<g transform="translate(60 65) rotate(160) scale(2 9)"><rect fill="#638174" fill-opacity="0.501961" x="-0.5" y="-0.5" width="1" height="1" /></g>
<rect fill="#4b4036" fill-opacity="0.501961" x="56" y="165" width="4" height="7" />
<ellipse fill="#252124" fill-opacity="0.501961" cx="62" cy="117" rx="2" ry="2" />
<polygon fill="#d2d6d7" fill-opacity="0.501961" points="81.965022,67.204931,144.584637,92.122180,63.067099,64.687522,98.859519,83.464210" />
<rect fill="#8d8b85" fill-opacity="0.501961" x="80" y="111" width="3" height="25" />
<polygon fill="#c8dae5" fill-opacity="0.501961" points="65,65 74,58 71,83" />
<g transform="translate(92 102) rotate(50) scale(3 10)"><rect fill="#3d323e" fill-opacity="0.501961" x="-0.5" y="-0.5" width="1" height="1" /></g>
<polygon fill="#6b353e" fill-opacity="0.501961" points="88.039997,103.504955,100.186187,100.649366,102.972859,97.697900,98.134903,95.974792" />
<polygon fill="#ccd3d7" fill-opacity="0.501961" points="86,133 95,127 77,124" />
<polygon fill="#c7ab8e" fill-opacity="0.501961" points="-16.000000,149.726451,14.556863,145.488808,46.550614,150.769370,10.794507,125.261944" />
<polygon fill="#b7bab6" fill-opacity="0.501961" points="82,174 53,129 73,138" />
<rect fill="#8e8482" fill-opacity="0.501961" x="84" y="164" width="3" height="16" />
<polygon fill="#8f7f6c" fill-opacity="0.501961" points="53.300123,5.233630,39.251161,6.257436,43.098119,16.383203,41.580740,58.336620" />
<rect fill="#686e2a" fill-opacity="0.501961" x="142" y="170" width="13" height="5" />
<ellipse fill="#31232b" fill-opacity="0.501961" cx="74" cy="79" rx="2" ry="2" />
<polygon fill="#b89e8a" fill-opacity="0.501961" points="52,95 66,98 66,74" />
<polygon fill="#e0dfd6" fill-opacity="0.501961" points="116,180 93,163 113,170" />
<rect fill="#9a9f63" fill-opacity="0.501961" x="117" y="177" width="44" height="11" />
<rect fill="#cccab3" fill-opacity="0.501961" x="103" y="147" width="54" height="4" />
<rect fill="#6c6b53" fill-opacity="0.501961" x="72" y="174" width="5" height="10" />
<polygon fill="#b1b8b9" fill-opacity="0.501961" points="46,169 50,154 54,167" />
<polygon fill="#606b3a" fill-opacity="0.501961" points="29,190 -16,178 15,175" />
<polygon fill="#758046" fill-opacity="0.501961" points="113,210 113,229 142,229" />
<g transform="translate(100 87) rotate(355) scale(4 12)"><rect fill="#c99ea0" fill-opacity="0.501961" x="-0.5" y="-0.5" width="1" height="1" /></g>
<polygon fill="#ab8e75" fill-opacity="0.501961" points="44,-14 -13,29 -16,70" />
<polygon fill="#dedcd6" fill-opacity="0.501961" points="149.167550,126.587803,121.864182,149.372007,156.634526,148.638550,155.181464,65.928279" />
<polygon fill="#d9d8d7" fill-opacity="0.501961" points="32.759111,89.659251,39.465249,62.482908,55.237076,87.453319,55.818881,64.109809" />
<polygon fill="#dae7ef" fill-opacity="0.501961" points="34.925095,54.100391,32.008022,38.062785,24.348106,39.958578,29.020407,74.830297" />
<rect fill="#d5c2ad" fill-opacity="0.501961" x="23" y="25" width="7" height="13" />
<rect fill="#726b60" fill-opacity="0.501961" x="68" y="98" width="4" height="8" />
<polygon fill="#b5d1de" fill-opacity="0.501961" points="68.544252,29.724136,63.775558,37.478481,80.210478,41.999764,58.736771,19.969848" />
<polygon fill="#d1d4d6" fill-opacity="0.501961" points="46,122 72,140 75,128" />
<polygon fill="#a0ad7a" fill-opacity="0.501961" points="110.904988,193.792767,108.330072,190.128602,105.803515,207.509362,98.132482,193.559569" />
<g transform="translate(81 105) rotate(96) scale(15 1)"><rect fill="#645842" fill-opacity="0.501961" x="-0.5" y="-0.5" width="1" height="1" /></g>
<ellipse fill="#767635" fill-opacity="0.501961" cx="129" cy="170" rx="4" ry="4" />
<polygon fill="#3a3e21" fill-opacity="0.501961" points="-16.000000,231.515844,-16.000000,207.761471,1.621210,271.000000,54.755088,271.000000" />
<path stroke="#e6e7ed" stroke-opacity="0.501961" fill="none" d="M 90.473101 97.592509 Q 113.669465 87.554622, 169.809146 22.202606" stroke-width="0.500000" />
</g>
</svg>