<svg xmlns="http://www.w3.org/2000/svg" version="1.1" width="1024" height="680">
<rect x="0" y="0" width="1024" height="680" fill="#aea99f" />
<g transform="scale(4.000000) translate(0.5 0.5)">
<g transform="translate(107.110734 99.376322) rotate(215.583547) scale(62.041066 78.453447)"><ellipse fill="#472600" fill-opacity="0.501961" cx="0" cy="0" rx="1" ry="1" /></g>
<g transform="translate(23.444770 45.901920) rotate(203.268086) scale(32.523954 206.232982)"><ellipse fill="#ffffff" fill-opacity="0.501961" cx="0" cy="0" rx="1" ry="1" /></g>
<ellipse fill="#e7f6ff" fill-opacity="0.501961" cx="210" cy="45" rx="41" ry="169" />
<g transform="translate(66.576130 12.519324) rotate(91.301435) scale(26.817388 149.864184)"><ellipse fill="#f2fbff" fill-opacity="0.501961" cx="0" cy="0" rx="1" ry="1" /></g>
<polygon fill="#000000" fill-opacity="0.501961" points="247,185 271,143 254,69" />
<g transform="translate(30.300869 114.830504) rotate(382.714434) scale(38.802360 23.038994)"><ellipse fill="#fdfff3" fill-opacity="0.501961" cx="0" cy="0" rx="1" ry="1" /></g>
<rect fill="#452c0e" fill-opacity="0.501961" x="79" y="62" width="108" height="32" />
<g transform="translate(175.842908 139.280022) rotate(202.768184) scale(19.733770 61.055407)"><ellipse fill="#f2f8ff" fill-opacity="0.501961" cx="0" cy="0" rx="1" ry="1" /></g>
<rect fill="#000000" fill-opacity="0.501961" x="124" y="108" width="29" height="31" />
<ellipse fill="#5c2a00" fill-opacity="0.501961" cx="53" cy="78" rx="19" ry="19" />
<g transform="translate(21.631842 53.787420) rotate(279.945624) scale(59.848078 19.666261)"><ellipse fill="#ffffff" fill-opacity="0.501961" cx="0" cy="0" rx="1" ry="1" /></g>
<g transform="translate(55.886991 167.771752) rotate(273.164645) scale(37.548153 27.629495)"><ellipse fill="#6f5832" fill-opacity="0.501961" cx="0" cy="0" rx="1" ry="1" /></g>
<g transform="translate(255.000000 91.665617) rotate(91.071920) scale(72.502069 2.966177)"><ellipse fill="#000000" fill-opacity="0.501961" cx="0" cy="0" rx="1" ry="1" /></g>
<g transform="translate(85.506527 130.610392) rotate(124.692212) scale(14.020903 30.039912)"><ellipse fill="#b7aa8a" fill-opacity="0.501961" cx="0" cy="0" rx="1" ry="1" /></g>
<ellipse fill="#a18352" fill-opacity="0.501961" cx="116" cy="33" rx="30" ry="17" />
<g transform="translate(166.781781 18.412342) rotate(145.232228) scale(16.680119 81.698344)"><ellipse fill="#e9ebf2" fill-opacity="0.501961" cx="0" cy="0" rx="1" ry="1" /></g>
<g transform="translate(163.744869 97.744371) rotate(19.272272) scale(16.529658 22.254804)"><ellipse fill="#8d7459" fill-opacity="0.501961" cx="0" cy="0" rx="1" ry="1" /></g>
<polygon fill="#e7eae9" fill-opacity="0.501961" points="163,138 208,167 151,96" />
<rect fill="#401100" fill-opacity="0.501961" x="164" y="73" width="8" height="42" />
<g transform="translate(162.442397 54.268690) rotate(221.691132) scale(34.181310 11.016824)"><ellipse fill="#ad9372" fill-opacity="0.501961" cx="0" cy="0" rx="1" ry="1" /></g>
<g transform="translate(125.940906 161.235856) rotate(54.620253) scale(11.005040 32.573132)"><ellipse fill="#a99877" fill-opacity="0.501961" cx="0" cy="0" rx="1" ry="1" /></g>
<ellipse fill="#8098a3" fill-opacity="0.501961" cx="221" cy="158" rx="13" ry="15" />
<polygon fill="#fdffff" fill-opacity="0.501961" points="96,12 24,75 -2,13" />
<g transform="translate(235.799510 2.133486) rotate(175.751866) scale(76.488609 15.595481)"><ellipse fill="#a7b7c4" fill-opacity="0.501961" cx="0" cy="0" rx="1" ry="1" /></g>
<rect fill="#534125" fill-opacity="0.501961" x="79" y="45" width="60" height="58" />
<ellipse fill="#76a1b0" fill-opacity="0.501961" cx="60" cy="4" rx="16" ry="7" />
<ellipse fill="#000000" fill-opacity="0.501961" cx="254" cy="147" rx="4" ry="90" />
<polygon fill="#b29c79" fill-opacity="0.501961" points="41,40 84,39 68,73" />
<ellipse fill="#d8e2e9" fill-opacity="0.501961" cx="241" cy="154" rx="8" ry="93" />
<polygon fill="#f0f1e4" fill-opacity="0.501961" points="32.446558,141.731517,9.474584,185.000000,15.495247,149.050891,-16.000000,107.452664" />
<ellipse fill="#859caf" fill-opacity="0.501961" cx="224" cy="53" rx="13" ry="14" />
<ellipse fill="#000001" fill-opacity="0.501961" cx="142" cy="122" rx="13" ry="13" />
<g transform="translate(56.600603 94.448212) rotate(125.621133) scale(5.093922 31.241420)"><ellipse fill="#673b16" fill-opacity="0.501961" cx="0" cy="0" rx="1" ry="1" /></g>
<g transform="translate(162.138711 52.793460) rotate(74.763936) scale(17.726787 2.393123)"><ellipse fill="#370f00" fill-opacity="0.501961" cx="0" cy="0" rx="1" ry="1" /></g>
<g transform="translate(63.663759 157.853780) rotate(154.204890) scale(28.910948 12.462885)"><ellipse fill="#66523a" fill-opacity="0.501961" cx="0" cy="0" rx="1" ry="1" /></g>
<g transform="translate(20.218683 76.429628) rotate(11.566160) scale(11.910791 58.581712)"><ellipse fill="#ffffff" fill-opacity="0.501961" cx="0" cy="0" rx="1" ry="1" /></g>
<ellipse fill="#efedf1" fill-opacity="0.501961" cx="197" cy="41" rx="9" ry="168" />
<polygon fill="#b8b3a0" fill-opacity="0.501961" points="162.345133,74.919773,94.508226,-15.640765,140.020420,25.555315,154.544453,41.561783" />
<polygon fill="#917f5e" fill-opacity="0.501961" points="118,53 89,79 98,21" />
<g transform="translate(52.393933 132.769661) rotate(44.693476) scale(9.249119 35.982346)"><ellipse fill="#ab9e7e" fill-opacity="0.501961" cx="0" cy="0" rx="1" ry="1" /></g>
<ellipse fill="#000004" fill-opacity="0.501961" cx="106" cy="76" rx="8" ry="8" />
<polygon fill="#794d21" fill-opacity="0.501961" points="177.651607,52.068106,172.956126,74.280196,190.277451,76.223863,175.171327,100.334505" />
<ellipse fill="#91aeba" fill-opacity="0.501961" cx="223" cy="106" rx="14" ry="13" />
<polygon fill="#673f1f" fill-opacity="0.501961" points="57.523995,48.113734,69.034646,100.539454,71.430185,112.756733,45.193146,100.522999" />
<ellipse fill="#2e1608" fill-opacity="0.501961" cx="84" cy="70" rx="5" ry="27" />
<polygon fill="#988b6d" fill-opacity="0.501961" points="161.037904,99.520635,158.138523,133.206573,142.947848,85.601080,143.272047,73.972856" />
<rect fill="#000000" fill-opacity="0.501961" x="255" y="1" width="1" height="169" />
<polygon fill="#eff1f4" fill-opacity="0.501961" points="162.907077,3.123133,115.384217,11.844231,172.213768,40.440917,166.645677,13.450695" />
<polygon fill="#bca275" fill-opacity="0.501961" points="77,47 76,99 69,74" />
<polygon fill="#6998a9" fill-opacity="0.501961" points="9.165553,10.408974,-16.000000,11.293423,-5.343851,-0.226576,11.086547,-16.000000" />
<g transform="translate(135 158) rotate(357) scale(28 29)"><rect fill="#a29273" fill-opacity="0.501961" x="-0.5" y="-0.5" width="1" height="1" /></g>
<polygon fill="#fbfbf7" fill-opacity="0.501961" points="37,85 51,104 -16,129" />
<polygon fill="#8a7656" fill-opacity="0.501961" points="70.213052,128.157947,-1.063684,185.000000,85.885425,138.308376,84.519237,98.192166" />
<polygon fill="#6e5632" fill-opacity="0.501961" points="148,78 86,90 113,140" />
<g transform="translate(169.816308 62.548235) rotate(81.862590) scale(31.447721 1.929001)"><ellipse fill="#d4c2a7" fill-opacity="0.501961" cx="0" cy="0" rx="1" ry="1" /></g>
<polygon fill="#dfd3bc" fill-opacity="0.501961" points="78.779174,22.199826,132.930727,1.210577,86.063799,37.893297,73.939046,56.354802" />
<polygon fill="#95a5a3" fill-opacity="0.501961" points="-11,38 9,39 4,59" />
<g transform="translate(0.000000 93.948975) rotate(69.092415) scale(12.494639 7.885705)"><ellipse fill="#a8bcc3" fill-opacity="0.501961" cx="0" cy="0" rx="1" ry="1" /></g>
<g transform="translate(93 128) rotate(338) scale(14 43)"><rect fill="#b2a687" fill-opacity="0.501961" x="-0.5" y="-0.5" width="1" height="1" /></g>
<g transform="translate(115.274990 0.000000) rotate(347.652584) scale(21.687445 11.012592)"><ellipse fill="#92bbd5" fill-opacity="0.501961" cx="0" cy="0" rx="1" ry="1" /></g>
<polygon fill="#dbe0e4" fill-opacity="0.501961" points="250.728010,74.395635,166.320951,122.835368,182.753667,91.557011,192.699504,68.095939" />
<g transform="translate(224.537885 1.444308) rotate(233.649528) scale(13.288600 13.005050)"><ellipse fill="#88a1ae" fill-opacity="0.501961" cx="0" cy="0" rx="1" ry="1" /></g>
<polygon fill="#8b6c47" fill-opacity="0.501961" points="73,73 47,57 73,43" />
<polygon fill="#eae8df" fill-opacity="0.501961" points="45.021019,68.466716,15.943540,63.332469,33.036381,67.089167,69.996728,21.832681" />
<polygon fill="#f3feff" fill-opacity="0.501961" points="70.572173,33.280930,105.535797,9.405212,0.140671,18.051961,38.825746,36.243983" />
<polygon fill="#000009" fill-opacity="0.501961" points="149,66 147,79 158,73" />
<g transform="translate(17.019961 144.230769) rotate(47.874127) scale(10.523612 43.178882)"><ellipse fill="#cbc3ad" fill-opacity="0.501961" cx="0" cy="0" rx="1" ry="1" /></g>
<polygon fill="#e0e4e5" fill-opacity="0.501961" points="162.472539,112.382413,158.140436,185.000000,143.834802,139.882683,201.046588,153.354504" />
<g transform="translate(41.610730 79.971280) rotate(83.300003) scale(6.897897 9.774656)"><ellipse fill="#745735" fill-opacity="0.501961" cx="0" cy="0" rx="1" ry="1" /></g>
<ellipse fill="#cad0d8" fill-opacity="0.501961" cx="247" cy="32" rx="6" ry="91" />
<polygon fill="#6c5735" fill-opacity="0.501961" points="126,34 87,62 155,62" />
<ellipse fill="#ffffff" fill-opacity="0.501961" cx="22" cy="31" rx="12" ry="88" />
<g transform="translate(38.669184 117.400946) rotate(9.228584) scale(7.649145 25.366838)"><ellipse fill="#ccc4ae" fill-opacity="0.501961" cx="0" cy="0" rx="1" ry="1" /></g>
<g transform="translate(87.537185 160.921395) rotate(256.962696) scale(9.000559 39.588938)"><ellipse fill="#715944" fill-opacity="0.501961" cx="0" cy="0" rx="1" ry="1" /></g>
<g transform="translate(170 159) rotate(24) scale(14 19)"><rect fill="#a0b6c4" fill-opacity="0.501961" x="-0.5" y="-0.5" width="1" height="1" /></g>
<polygon fill="#dde1e7" fill-opacity="0.501961" points="161,10 254,28 157,39" />
<rect fill="#000802" fill-opacity="0.501961" x="250" y="141" width="6" height="29" />
<polygon fill="#7e5b38" fill-opacity="0.501961" points="175,98 173,56 184,87" />
<polygon fill="#411d0e" fill-opacity="0.501961" points="160.504497,45.905226,170.717940,71.460525,166.435440,69.797925,160.617490,62.849725" />
<g transform="translate(143.789326 149.048705) rotate(310.456594) scale(29.331856 5.343112)"><ellipse fill="#a1957a" fill-opacity="0.501961" cx="0" cy="0" rx="1" ry="1" /></g>
<polygon fill="#b2a991" fill-opacity="0.501961" points="98,145 128,146 86,131" />
<polygon fill="#aecbe2" fill-opacity="0.501961" points="44.220727,36.056404,60.097980,37.408578,42.934673,54.240428,40.832224,42.976720" />
<g transform="translate(132.815567 134.728848) rotate(102.700413) scale(7.516377 13.935595)"><ellipse fill="#413826" fill-opacity="0.501961" cx="0" cy="0" rx="1" ry="1" /></g>
<rect fill="#8d795e" fill-opacity="0.501961" x="79" y="161" width="63" height="9" />
<polygon fill="#6a4828" fill-opacity="0.501961" points="78.850511,45.626908,80.508441,132.415667,75.021929,123.042357,77.283398,110.558566" />
<ellipse fill="#e9eaec" fill-opacity="0.501961" cx="188" cy="165" rx="8" ry="85" />
<rect fill="#dbe0e4" fill-opacity="0.501961" x="201" y="122" width="48" height="19" />
<polygon fill="#795831" fill-opacity="0.501961" points="57.719494,72.455263,73.050491,57.198652,72.459683,67.824762,73.208621,116.456351" />
<polygon fill="#9eb2ba" fill-opacity="0.501961" points="185,-5 173,19 167,-16" />
<polygon fill="#bda584" fill-opacity="0.501961" points="30.252223,83.226062,34.932579,68.301266,66.869967,53.909637,61.087145,40.624878" />
<polygon fill="#a2977f" fill-opacity="0.501961" points="45.897637,131.717269,43.906014,110.089272,76.486286,134.277831,39.801152,138.331910" />
<rect fill="#c5ddea" fill-opacity="0.501961" x="43" y="8" width="99" height="6" />
<polygon fill="#65411d" fill-opacity="0.501961" points="188,73 181,92 183,66" />
<polygon fill="#af9d7e" fill-opacity="0.501961" points="60.031394,105.222352,64.281564,131.636381,78.907583,94.319383,75.638179,122.197335" />
<polygon fill="#4b3f2e" fill-opacity="0.501961" points="155.305874,142.541644,155.524307,111.958438,142.459781,138.642534,87.167017,103.439300" />
<polygon fill="#592c0d" fill-opacity="0.501961" points="62,107 44,95 69,100" />
<g transform="translate(179.644812 109.979737) rotate(262.324966) scale(11.741572 7.864019)"><ellipse fill="#c9d4d5" fill-opacity="0.501961" cx="0" cy="0" rx="1" ry="1" /></g>
<rect fill="#0c0f0c" fill-opacity="0.501961" x="128" y="112" width="24" height="20" />
<ellipse fill="#030300" fill-opacity="0.501961" cx="79" cy="145" rx="3" ry="3" />
<polygon fill="#bbc5c9" fill-opacity="0.501961" points="248.596295,183.695864,226.494407,185.000000,231.489688,150.026353,250.051704,133.541092" />
<polygon fill="#847252" fill-opacity="0.501961" points="86.861991,70.900996,105.525317,72.662464,89.244144,37.699810,108.723374,24.442045" />
<polygon fill="#6f5939" fill-opacity="0.501961" points="125.660016,93.817855,126.515827,137.277805,87.836045,109.699704,97.392709,78.368713" />
<g transform="translate(18 80) rotate(139) scale(14 42)"><rect fill="#ffffff" fill-opacity="0.501961" x="-0.5" y="-0.5" width="1" height="1" /></g>
<rect fill="#000401" fill-opacity="0.501961" x="254" y="43" width="2" height="31" />
<path stroke="#657676" stroke-opacity="0.501961" fill="none" d="M 253.129000 93.522869 Q 245.833265 172.942037, 250.181980 173.873904" stroke-width="0.500000" />
<polygon fill="#c8b392" fill-opacity="0.501961" points="108.363902,13.924927,138.415565,20.325295,165.344182,42.205292,123.730537,32.213631" />
<polygon fill="#4e2e1a" fill-opacity="0.501961" points="39,70 55,99 39,86" />
<ellipse fill="#15140f" fill-opacity="0.501961" cx="112" cy="75" rx="7" ry="7" />
<rect fill="#512b13" fill-opacity="0.501961" x="165" y="70" width="6" height="44" />
<g transform="translate(84.072350 57.148226) rotate(189.337150) scale(5.258139 15.471312)"><ellipse fill="#482c16" fill-opacity="0.501961" cx="0" cy="0" rx="1" ry="1" /></g>
<polygon fill="#e4ddce" fill-opacity="0.501961" points="170.480721,42.862890,172.542997,71.176148,155.796487,16.709774,156.173375,18.508768" />
<polygon fill="#917f5c" fill-opacity="0.501961" points="132.656402,37.757250,146.824865,70.009714,143.605989,59.971675,159.662906,53.306772" />
<polygon fill="#97896e" fill-opacity="0.501961" points="149.186911,98.785446,151.196452,111.909101,156.095819,114.611635,161.894836,67.953373" />
<polygon fill="#bfc6cf" fill-opacity="0.501961" points="217.259613,91.245031,219.267909,9.733604,208.307066,52.968831,208.679076,185.000000" />
<polygon fill="#5a462a" fill-opacity="0.501961" points="114.219239,72.384968,141.365937,61.881755,125.903992,34.116769,128.844431,92.486624" />
<polygon fill="#e0ccad" fill-opacity="0.501961" points="56.635836,46.633553,100.040533,32.603259,83.306075,25.556343,58.181203,42.852480" />
<polygon fill="#fbffff" fill-opacity="0.501961" points="5,137 31,103 -8,111" />
<polygon fill="#dde1e4" fill-opacity="0.501961" points="178.940639,124.954886,201.767404,162.983184,190.820526,185.000000,157.910591,111.018036" />
<g transform="translate(75 80) rotate(274) scale(52 1)"><rect fill="#bca680" fill-opacity="0.501961" x="-0.5" y="-0.5" width="1" height="1" /></g>
<polygon fill="#776140" fill-opacity="0.501961" points="108.155420,114.428149,148.877160,106.966704,148.319312,87.388196,122.724955,88.000692" />
<g transform="translate(159.125343 122.162478) rotate(93.938297) scale(11.652920 1.986276)"><ellipse fill="#c2baa7" fill-opacity="0.501961" cx="0" cy="0" rx="1" ry="1" /></g>
<polygon fill="#8fa6b0" fill-opacity="0.501961" points="106,5 82,-16 165,-16" />
<polygon fill="#c1d5e2" fill-opacity="0.501961" points="102,11 70,9 75,-16" />
<g transform="translate(162.923168 58.294099) rotate(238.116259) scale(7.197744 3.371537)"><ellipse fill="#4a2b19" fill-opacity="0.501961" cx="0" cy="0" rx="1" ry="1" /></g>
<polygon fill="#f0f1f2" fill-opacity="0.501961" points="184,92 200,52 197,114" />
<ellipse fill="#b5a182" fill-opacity="0.501961" cx="172" cy="77" rx="2" ry="27" />
<rect fill="#526868" fill-opacity="0.501961" x="252" y="53" width="1" height="46" />
<rect fill="#d0d6dd" fill-opacity="0.501961" x="204" y="20" width="49" height="22" />
<polygon fill="#ccc9bd" fill-opacity="0.501961" points="174.850645,49.830985,171.207360,39.331928,182.586697,49.469008,181.601425,72.017345" />
<polygon fill="#d1cab8" fill-opacity="0.501961" points="37.357829,92.571578,38.517340,113.209928,24.476997,117.152311,60.775493,111.284808" />
<g transform="translate(217.326747 155.415080) rotate(304.650770) scale(9.092853 11.793114)"><ellipse fill="#9da9af" fill-opacity="0.501961" cx="0" cy="0" rx="1" ry="1" /></g>
<polygon fill="#e5e8ea" fill-opacity="0.501961" points="194.218255,136.916377,153.234728,138.847221,150.481281,175.825812,174.389378,118.371675" />
<polygon fill="#6e5a41" fill-opacity="0.501961" points="33,185 115,152 54,148" />
<polygon fill="#b9b09a" fill-opacity="0.501961" points="15,159 -6,129 1,185" />
<polygon fill="#f4fbff" fill-opacity="0.501961" points="61.766347,31.774930,49.840511,50.920948,87.896427,16.567996,30.219011,16.466151" />
<polygon fill="#d3d1c2" fill-opacity="0.501961" points="-16,154 35,128 35,146" />
<polygon fill="#ebe9e2" fill-opacity="0.501961" points="189.326874,62.338573,209.853578,91.525588,185.723019,66.471157,173.883273,48.012112" />
<polygon fill="#c1c6d1" fill-opacity="0.501961" points="224,185 198,164 203,139" />
<g transform="translate(155.220783 100.965080) rotate(163.009237) scale(1.000000 12.670402)"><ellipse fill="#bfb195" fill-opacity="0.501961" cx="0" cy="0" rx="1" ry="1" /></g>
<polygon fill="#7a634a" fill-opacity="0.501961" points="81.942444,121.041653,92.547150,185.000000,76.409686,127.854719,48.333073,159.229768" />
<polygon fill="#594328" fill-opacity="0.501961" points="104.852435,109.272663,101.674411,120.289077,84.138445,91.906865,88.179263,71.306630" />
<polygon fill="#b6ad94" fill-opacity="0.501961" points="136,144 148,159 148,142" />
<ellipse fill="#816946" fill-opacity="0.501961" cx="115" cy="113" rx="7" ry="21" />
<g transform="translate(156 60) rotate(40) scale(13 1)"><rect fill="#c2beb0" fill-opacity="0.501961" x="-0.5" y="-0.5" width="1" height="1" /></g>
<rect fill="#dee1e4" fill-opacity="0.501961" x="230" y="72" width="20" height="22" />
<polygon fill="#ab997a" fill-opacity="0.501961" points="124.384433,12.649842,106.034226,43.008116,95.514930,54.173673,109.025604,24.376594" />
<polygon fill="#bab1a0" fill-opacity="0.501961" points="158,58 163,70 156,62" />
<g transform="translate(255 0) rotate(273) scale(131 1)"><rect fill="#7d8e96" fill-opacity="0.501961" x="-0.5" y="-0.5" width="1" height="1" /></g>
<polygon fill="#b4c0c9" fill-opacity="0.501961" points="217,69 252,62 252,39" />
<polygon fill="#92a5af" fill-opacity="0.501961" points="224.080142,43.163808,217.048725,51.790532,232.595576,62.842346,234.842188,50.270795" />
<polygon fill="#8f7251" fill-opacity="0.501961" points="178.333102,95.155926,173.794544,79.299113,173.933058,48.509413,181.418425,80.883595" />
<polygon fill="#edeff2" fill-opacity="0.501961" points="151.355371,8.646609,133.254626,-16.000000,174.599506,42.729822,129.390819,14.156294" />
<g transform="translate(117.667725 52.170871) rotate(334.398666) scale(5.707258 18.699345)"><ellipse fill="#7b6747" fill-opacity="0.501961" cx="0" cy="0" rx="1" ry="1" /></g>
<path stroke="#424f4e" stroke-opacity="0.501961" fill="none" d="M 271.000000 0.875588 Q 241.433339 97.101116, 254.167926 146.683743" stroke-width="0.500000" />
<rect fill="#c1d0d2" fill-opacity="0.501961" x="231" y="96" width="15" height="23" />
<g transform="translate(57.086025 0.017843) rotate(146.162222) scale(16.953310 7.938177)"><ellipse fill="#a8bbc2" fill-opacity="0.501961" cx="0" cy="0" rx="1" ry="1" /></g>
<polygon fill="#c1dce8" fill-opacity="0.501961" points="10.740970,13.369958,16.096680,-5.424933,17.839037,-16.000000,-2.584930,24.607961" />
<rect fill="#92aaad" fill-opacity="0.501961" x="222" y="100" width="7" height="15" />
<rect fill="#593b20" fill-opacity="0.501961" x="77" y="70" width="4" height="22" />
<polygon fill="#613e21" fill-opacity="0.501961" points="164,91 163,111 170,112" />
<rect fill="#e6e7eb" fill-opacity="0.501961" x="186" y="0" width="15" height="66" />
<ellipse fill="#584e39" fill-opacity="0.501961" cx="125" cy="138" rx="11" ry="4" />
<polygon fill="#382312" fill-opacity="0.501961" points="78.412035,54.920107,90.915242,93.264282,81.135700,79.456945,89.405989,42.000079" />
<polygon fill="#d0d4d8" fill-opacity="0.501961" points="247.717196,144.868145,204.410472,148.278309,210.695570,82.795316,195.058266,111.019278" />
<polygon fill="#b3a88b" fill-opacity="0.501961" points="18.116289,161.453989,25.508434,163.426536,53.949985,125.537463,38.889080,135.152721" />
<polygon fill="#a78d6b" fill-opacity="0.501961" points="48.506444,60.590315,48.586497,84.095381,39.538209,63.801842,31.837981,83.798908" />
<polygon fill="#c1bba6" fill-opacity="0.501961" points="57.913032,109.165034,43.251168,93.940356,56.696261,124.227752,65.922459,110.130729" />
<polygon fill="#8f8164" fill-opacity="0.501961" points="96,62 114,56 96,68" />
<g transform="translate(70 136) rotate(134) scale(4 19)"><rect fill="#9a917a" fill-opacity="0.501961" x="-0.5" y="-0.5" width="1" height="1" /></g>
<ellipse fill="#b09a78" fill-opacity="0.501961" cx="114" cy="27" rx="29" ry="3" />
<g transform="translate(28.202898 24.580259) rotate(184.541516) scale(9.960017 72.474510)"><ellipse fill="#ffffff" fill-opacity="0.501961" cx="0" cy="0" rx="1" ry="1" /></g>
<polygon fill="#eff7fd" fill-opacity="0.501961" points="50.610148,34.294864,80.949866,36.542125,35.962066,6.661738,38.239705,47.063436" />
<polygon fill="#5e3a1d" fill-opacity="0.501961" points="54,84 70,95 55,55" />
<g transform="translate(153 123) rotate(106) scale(23 1)"><rect fill="#463f35" fill-opacity="0.501961" x="-0.5" y="-0.5" width="1" height="1" /></g>
<g transform="translate(5 71) rotate(183) scale(11 29)"><rect fill="#ecf7fb" fill-opacity="0.501961" x="-0.5" y="-0.5" width="1" height="1" /></g>
<rect fill="#4a2614" fill-opacity="0.501961" x="160" y="46" width="5" height="15" />
<polygon fill="#d7e3e5" fill-opacity="0.501961" points="5.179160,24.428804,6.678325,47.127187,5.361980,74.119801,12.101118,37.076878" />
<polygon fill="#dfe0d8" fill-opacity="0.501961" points="20,138 30,105 13,130" />
<polygon fill="#613f29" fill-opacity="0.501961" points="161.522134,61.845781,171.604604,77.508521,172.044867,92.996484,171.428186,90.791514" />
<polygon fill="#7a674b" fill-opacity="0.501961" points="33.030438,184.108612,75.234749,146.420985,60.048970,129.814081,54.636986,142.061828" />
</g>
</svg>