<svg xmlns="http://www.w3.org/2000/svg" version="1.1" width="768" height="1024">
<rect x="0" y="0" width="768" height="1024" fill="#b6aeb2" />
<g transform="scale(4.000000) translate(0.5 0.5)">
<g transform="translate(132.328594 185.538129) rotate(365.260193) scale(148.529385 34.940239)"><ellipse fill="#300b00" fill-opacity="0.501961" cx="0" cy="0" rx="1" ry="1" /></g>
<g transform="translate(96.142103 54.318155) rotate(2.111369) scale(188.592308 66.195318)"><ellipse fill="#f5ffff" fill-opacity="0.501961" cx="0" cy="0" rx="1" ry="1" /></g>
<ellipse fill="#f7ffff" fill-opacity="0.501961" cx="28" cy="237" rx="191" ry="16" />
<g transform="translate(135.433124 183.459047) rotate(126.207543) scale(23.157131 42.096761)"><ellipse fill="#110300" fill-opacity="0.501961" cx="0" cy="0" rx="1" ry="1" /></g>
<polygon fill="#dfe7ed" fill-opacity="0.501961" points="85.703290,223.196298,103.114263,146.072340,71.894383,203.996135,22.635711,198.720017" />
<ellipse fill="#110500" fill-opacity="0.501961" cx="61" cy="182" rx="23" ry="21" />
<g transform="translate(191.000000 159.508902) rotate(106.500247) scale(24.026415 103.612770)"><ellipse fill="#a86472" fill-opacity="0.501961" cx="0" cy="0" rx="1" ry="1" /></g>
<g transform="translate(17.759654 171.057165) rotate(201.583895) scale(27.967963 53.627721)"><ellipse fill="#9a7656" fill-opacity="0.501961" cx="0" cy="0" rx="1" ry="1" /></g>
<polygon fill="#000000" fill-opacity="0.501961" points="112.107016,200.789319,87.747774,198.653586,87.136089,223.612036,102.224408,222.959508" />
<polygon fill="#ffffff" fill-opacity="0.501961" points="121,201 97,178 90,194" />
<rect fill="#ffffff" fill-opacity="0.501961" x="88" y="143" width="9" height="23" />
<g transform="translate(19.080110 203.935334) rotate(14.880179) scale(10.170255 17.215666)"><ellipse fill="#613811" fill-opacity="0.501961" cx="0" cy="0" rx="1" ry="1" /></g>
<rect fill="#151200" fill-opacity="0.501961" x="113" y="148" width="25" height="53" />
<g transform="translate(0.000000 163.053592) rotate(66.075519) scale(20.046930 89.285238)"><ellipse fill="#ab898b" fill-opacity="0.501961" cx="0" cy="0" rx="1" ry="1" /></g>
<g transform="translate(112.808680 245.253468) rotate(175.629383) scale(110.806238 21.281312)"><ellipse fill="#d7e4ef" fill-opacity="0.501961" cx="0" cy="0" rx="1" ry="1" /></g>
<rect fill="#b993a6" fill-opacity="0.501961" x="176" y="121" width="16" height="102" />
<g transform="translate(41.528550 31.408140) rotate(19.398382) scale(142.112967 53.661156)"><ellipse fill="#daddf4" fill-opacity="0.501961" cx="0" cy="0" rx="1" ry="1" /></g>
<polygon fill="#c1c2bf" fill-opacity="0.501961" points="102.695918,230.394846,110.817051,206.912628,89.901031,171.657210,130.379797,213.910513" />
<g transform="translate(47.776201 175.787602) rotate(193.222319) scale(8.582317 19.675887)"><ellipse fill="#110300" fill-opacity="0.501961" cx="0" cy="0" rx="1" ry="1" /></g>
<polygon fill="#dddee9" fill-opacity="0.501961" points="78.243410,216.127527,31.899307,194.384737,47.953000,214.056982,100.651732,184.494157" />
<polygon fill="#c08c64" fill-opacity="0.501961" points="67.990774,139.282880,55.510265,179.988727,59.636847,184.172561,84.487848,146.965654" />
<rect fill="#905945" fill-opacity="0.501961" x="42" y="211" width="28" height="11" />
<g transform="translate(191 149) rotate(67) scale(31 15)"><rect fill="#d1f6fd" fill-opacity="0.501961" x="-0.5" y="-0.5" width="1" height="1" /></g>
<g transform="translate(162.578393 145.789624) rotate(18.925902) scale(16.537142 26.800929)"><ellipse fill="#a3697f" fill-opacity="0.501961" cx="0" cy="0" rx="1" ry="1" /></g>
<polygon fill="#dce6f4" fill-opacity="0.501961" points="22.208544,212.784543,72.624225,188.814249,-16.000000,246.519723,75.223750,234.383105" />
<polygon fill="#372207" fill-opacity="0.501961" points="162.356151,220.589235,175.182747,203.998978,180.815605,189.285331,122.751120,192.178046" />
<g transform="translate(144 213) rotate(188) scale(15 10)"><rect fill="#b8b39f" fill-opacity="0.501961" x="-0.5" y="-0.5" width="1" height="1" /></g>
<polygon fill="#8c6136" fill-opacity="0.501961" points="159.426100,163.620197,140.509771,196.603317,133.866994,141.965519,100.408280,144.699730" />
<ellipse fill="#001115" fill-opacity="0.501961" cx="97" cy="207" rx="12" ry="12" />
<g transform="translate(97 190) rotate(180) scale(18 14)"><rect fill="#daebfe" fill-opacity="0.501961" x="-0.5" y="-0.5" width="1" height="1" /></g>
<polygon fill="#49331d" fill-opacity="0.501961" points="92.444500,159.985643,78.778177,156.400066,52.999446,200.570383,81.282418,196.734152" />
<ellipse fill="#c5c4d6" fill-opacity="0.501961" cx="51" cy="111" rx="162" ry="14" />
<polygon fill="#dde0e8" fill-opacity="0.501961" points="95.708883,165.246165,72.864512,136.331305,74.960541,140.459564,100.272718,150.142365" />
<g transform="translate(111.141119 157.348218) rotate(134.963024) scale(9.522988 17.124893)"><ellipse fill="#7d5831" fill-opacity="0.501961" cx="0" cy="0" rx="1" ry="1" /></g>
<ellipse fill="#3d2813" fill-opacity="0.501961" cx="135" cy="220" rx="13" ry="2" />
<ellipse fill="#0b0a05" fill-opacity="0.501961" cx="130" cy="184" rx="7" ry="28" />
<g transform="translate(176 173) rotate(225) scale(93 23)"><rect fill="#a36a79" fill-opacity="0.501961" x="-0.5" y="-0.5" width="1" height="1" /></g>
<polygon fill="#0f1311" fill-opacity="0.501961" points="84.215652,195.129621,66.895170,191.296121,28.406676,199.598945,75.512795,176.275329" />
<g transform="translate(74.302969 137.594727) rotate(176.639534) scale(43.550888 5.687393)"><ellipse fill="#b26f8e" fill-opacity="0.501961" cx="0" cy="0" rx="1" ry="1" /></g>
<rect fill="#999b8f" fill-opacity="0.501961" x="0" y="123" width="33" height="51" />
<polygon fill="#a5756c" fill-opacity="0.501961" points="50.622451,124.355751,37.001242,201.185503,28.656451,172.795961,28.954456,117.683066" />
<g transform="translate(18 230) rotate(4) scale(142 19)"><rect fill="#e0eaf8" fill-opacity="0.501961" x="-0.5" y="-0.5" width="1" height="1" /></g>
<g transform="translate(0 192) rotate(192) scale(31 41)"><rect fill="#a78b5b" fill-opacity="0.501961" x="-0.5" y="-0.5" width="1" height="1" /></g>
<ellipse fill="#c7cac6" fill-opacity="0.501961" cx="92" cy="255" rx="191" ry="11" />
<g transform="translate(20 205) rotate(184) scale(12 30)"><rect fill="#66452c" fill-opacity="0.501961" x="-0.5" y="-0.5" width="1" height="1" /></g>
<polygon fill="#d2d2d8" fill-opacity="0.501961" points="35.214370,271.000000,23.981027,205.713643,67.686588,196.699923,36.640029,209.060924" />
<ellipse fill="#e3eefd" fill-opacity="0.501961" cx="124" cy="227" rx="188" ry="4" />
<rect fill="#030500" fill-opacity="0.501961" x="43" y="170" width="13" height="28" />
<ellipse fill="#080500" fill-opacity="0.501961" cx="160" cy="213" rx="7" ry="7" />
<rect fill="#bcbbb5" fill-opacity="0.501961" x="0" y="104" width="27" height="34" />
<polygon fill="#a5767f" fill-opacity="0.501961" points="113.398560,141.713790,185.133756,118.955095,187.227898,130.376367,157.767997,163.682309" />
<polygon fill="#c3c2c8" fill-opacity="0.501961" points="90.453912,214.796643,88.130399,229.145440,45.390538,198.207051,83.655292,212.089247" />
<polygon fill="#c7c8d0" fill-opacity="0.501961" points="103.573893,187.128471,87.500693,203.172606,81.662912,182.388399,94.628874,178.455762" />
<polygon fill="#a89f93" fill-opacity="0.501961" points="98.825087,225.456268,127.510665,222.105927,129.885379,213.161693,121.655628,201.773274" />
<polygon fill="#7d5026" fill-opacity="0.501961" points="49,155 90,176 88,154" />
<polygon fill="#89664d" fill-opacity="0.501961" points="71,195 56,210 59,188" />
<ellipse fill="#d3d5e3" fill-opacity="0.501961" cx="154" cy="55" rx="60" ry="60" />
<polygon fill="#1e1911" fill-opacity="0.501961" points="126.833278,206.952657,94.468815,170.818925,125.817498,175.140106,155.533106,211.094382" />
<polygon fill="#d1e0ef" fill-opacity="0.501961" points="98,164 89,168 91,143" />
<polygon fill="#9f6876" fill-opacity="0.501961" points="176.442180,193.261520,165.303747,120.762638,207.000000,224.507738,169.664787,222.154657" />
<polygon fill="#ba8e96" fill-opacity="0.501961" points="38,146 45,118 93,154" />
<g transform="translate(28.985558 188.729319) rotate(34.764194) scale(14.826446 7.343723)"><ellipse fill="#7c5532" fill-opacity="0.501961" cx="0" cy="0" rx="1" ry="1" /></g>
<polygon fill="#5a3d1f" fill-opacity="0.501961" points="152.516213,172.304642,168.723225,204.600276,131.542504,195.104947,139.953165,180.743230" />
<polygon fill="#d7d9e4" fill-opacity="0.501961" points="82,214 82,199 55,206" />
<g transform="translate(109.356520 126.084995) rotate(176.790063) scale(67.144045 4.307804)"><ellipse fill="#c096ae" fill-opacity="0.501961" cx="0" cy="0" rx="1" ry="1" /></g>
<polygon fill="#998776" fill-opacity="0.501961" points="141,220 105,186 117,208" />
<rect fill="#4d2f14" fill-opacity="0.501961" x="97" y="166" width="11" height="15" />
<g transform="translate(138.130764 157.454959) rotate(41.871970) scale(15.538380 4.948318)"><ellipse fill="#714f2c" fill-opacity="0.501961" cx="0" cy="0" rx="1" ry="1" /></g>
<polygon fill="#010807" fill-opacity="0.501961" points="98.534843,221.146872,97.007156,222.348113,90.858482,205.499129,108.199208,199.839886" />
<g transform="translate(123.533725 185.471455) rotate(64.390475) scale(7.953420 15.433085)"><ellipse fill="#0a0c0d" fill-opacity="0.501961" cx="0" cy="0" rx="1" ry="1" /></g>
<polygon fill="#b79992" fill-opacity="0.501961" points="30.939491,220.756289,48.038407,208.496859,62.864250,203.740955,64.868179,213.520422" />
<rect fill="#795e56" fill-opacity="0.501961" x="53" y="218" width="18" height="5" />
<g transform="translate(19.622356 23.840029) rotate(-43.389383) scale(83.697167 40.899016)"><ellipse fill="#dde0ef" fill-opacity="0.501961" cx="0" cy="0" rx="1" ry="1" /></g>
<polygon fill="#ae8a60" fill-opacity="0.501961" points="25.298149,190.008476,31.450460,163.284485,73.693711,148.147192,50.841010,144.416764" />
<rect fill="#e6f7ff" fill-opacity="0.501961" x="75" y="143" width="20" height="3" />
<g transform="translate(110.942871 96.202328) rotate(274.199843) scale(16.443359 118.951306)"><ellipse fill="#d1d3e1" fill-opacity="0.501961" cx="0" cy="0" rx="1" ry="1" /></g>
<rect fill="#dde5f1" fill-opacity="0.501961" x="0" y="223" width="167" height="15" />
<polygon fill="#a9aab0" fill-opacity="0.501961" points="175.270032,144.360841,207.000000,196.137637,178.833561,134.477967,207.000000,118.555045" />
<polygon fill="#8c8079" fill-opacity="0.501961" points="108.918259,189.085008,91.227907,177.085752,107.206292,180.921503,107.034535,176.287058" />
<polygon fill="#966a4b" fill-opacity="0.501961" points="61.733979,155.446174,66.838970,136.094314,59.208784,187.569799,84.967994,151.526569" />
<polygon fill="#8f8689" fill-opacity="0.501961" points="106.821289,213.507297,109.467629,212.524651,93.996937,224.141842,121.235146,222.078582" />
<polygon fill="#101b27" fill-opacity="0.501961" points="62,192 66,178 85,191" />
<polygon fill="#a47d6f" fill-opacity="0.501961" points="98.705930,166.803760,116.086129,135.198256,100.500172,140.526181,97.691411,151.782938" />
<polygon fill="#794f2e" fill-opacity="0.501961" points="163.455456,170.222918,144.608685,177.849486,132.387555,149.570452,178.863795,198.118001" />
<polygon fill="#462c1a" fill-opacity="0.501961" points="92,172 85,160 82,176" />
<g transform="translate(42 173) rotate(16) scale(4 31)"><rect fill="#74461a" fill-opacity="0.501961" x="-0.5" y="-0.5" width="1" height="1" /></g>
<polygon fill="#21180a" fill-opacity="0.501961" points="57.470470,154.858391,61.131084,168.638694,45.110602,199.659570,51.257754,157.667038" />
<rect fill="#b1858f" fill-opacity="0.501961" x="169" y="214" width="8" height="8" />
<ellipse fill="#96856c" fill-opacity="0.501961" cx="0" cy="174" rx="15" ry="28" />
<polygon fill="#3a2717" fill-opacity="0.501961" points="127.378652,182.954978,126.666975,153.988019,104.542384,158.757087,122.385145,166.249740" />
<polygon fill="#a27e61" fill-opacity="0.501961" points="13.507524,221.382030,19.401636,220.404181,39.076002,194.514534,29.465895,196.131712" />
<polygon fill="#c2c4d3" fill-opacity="0.501961" points="137.323821,4.405625,103.742435,6.866543,58.459145,-9.659863,118.867482,-16.000000" />
<polygon fill="#d3dae8" fill-opacity="0.501961" points="51,201 38,198 23,214" />
<polygon fill="#9a6a78" fill-opacity="0.501961" points="202,216 150,159 186,154" />
<g transform="translate(53 189) rotate(69) scale(23 2)"><rect fill="#070402" fill-opacity="0.501961" x="-0.5" y="-0.5" width="1" height="1" /></g>
<polygon fill="#936a75" fill-opacity="0.501961" points="43,143 29,168 32,118" />
<polygon fill="#64432b" fill-opacity="0.501961" points="21,208 24,175 10,204" />
<polygon fill="#8d5d30" fill-opacity="0.501961" points="36.328374,165.958970,48.205768,155.116303,66.005675,148.950996,66.784051,153.799379" />
<g transform="translate(116 214) rotate(292) scale(14 11)"><rect fill="#b7aea6" fill-opacity="0.501961" x="-0.5" y="-0.5" width="1" height="1" /></g>
<g transform="translate(29.091087 111.455787) rotate(98.463878) scale(8.341795 58.144579)"><ellipse fill="#c5c6cb" fill-opacity="0.501961" cx="0" cy="0" rx="1" ry="1" /></g>
<polygon fill="#a98d67" fill-opacity="0.501961" points="78,147 62,157 90,154" />
<polygon fill="#0e1814" fill-opacity="0.501961" points="143,216 148,219 146,222" />
<polygon fill="#472c14" fill-opacity="0.501961" points="161,211 178,194 157,175" />
<polygon fill="#473524" fill-opacity="0.501961" points="129.019168,207.684399,127.563421,225.026753,137.966578,195.447583,138.438911,172.340107" />
<polygon fill="#9c724c" fill-opacity="0.501961" points="1.871725,188.170950,13.134873,191.708771,20.078110,182.238562,11.056353,214.560332" />
<polygon fill="#9d9181" fill-opacity="0.501961" points="119.583168,212.864363,114.349559,223.904215,140.832076,208.140610,157.728906,218.481272" />
<polygon fill="#a17185" fill-opacity="0.501961" points="152,170 144,139 189,121" />
<polygon fill="#d8e0ef" fill-opacity="0.501961" points="84,200 87,185 106,185" />
<polygon fill="#dde4ed" fill-opacity="0.501961" points="38.900415,224.650313,49.981426,218.117475,47.474432,235.403337,-14.365297,217.821493" />
<g transform="translate(75.794959 213.563796) rotate(101.240086) scale(11.290943 7.860053)"><ellipse fill="#cecdd5" fill-opacity="0.501961" cx="0" cy="0" rx="1" ry="1" /></g>
<g transform="translate(15 180) rotate(319) scale(96 3)"><rect fill="#af9272" fill-opacity="0.501961" x="-0.5" y="-0.5" width="1" height="1" /></g>
<polygon fill="#d2d5df" fill-opacity="0.501961" points="198.909123,152.903632,148.307167,-11.039655,207.000000,117.537793,175.813551,148.190263" />
<polygon fill="#b3869a" fill-opacity="0.501961" points="33.172451,117.170777,54.179205,130.718893,186.004177,121.540020,47.792375,149.500495" />
<g transform="translate(105 177) rotate(35) scale(18 8)"><rect fill="#372213" fill-opacity="0.501961" x="-0.5" y="-0.5" width="1" height="1" /></g>
<polygon fill="#060704" fill-opacity="0.501961" points="111.261813,171.547942,137.895897,187.077503,127.373683,156.447085,132.921288,200.592501" />
<g transform="translate(138 215) rotate(-4) scale(6 14)"><rect fill="#938477" fill-opacity="0.501961" x="-0.5" y="-0.5" width="1" height="1" /></g>
<ellipse fill="#b9736f" fill-opacity="0.501961" cx="42" cy="216" rx="5" ry="5" />
<rect fill="#dbdbe6" fill-opacity="0.501961" x="33" y="208" width="5" height="14" />
<polygon fill="#b3aeab" fill-opacity="0.501961" points="85.176315,187.413987,110.475317,185.416777,84.740680,178.009213,80.825384,187.956214" />
<polygon fill="#7f7074" fill-opacity="0.501961" points="86,217 85,202 89,213" />
<polygon fill="#594238" fill-opacity="0.501961" points="82.386254,185.630321,70.137865,192.049760,57.442945,186.821563,67.718634,202.765985" />
<polygon fill="#070f11" fill-opacity="0.501961" points="74,188 76,173 58,187" />
<g transform="translate(88 149) rotate(319) scale(1 21)"><rect fill="#e8f4ff" fill-opacity="0.501961" x="-0.5" y="-0.5" width="1" height="1" /></g>
<g transform="translate(161 219) rotate(266) scale(5 6)"><rect fill="#2f1b07" fill-opacity="0.501961" x="-0.5" y="-0.5" width="1" height="1" /></g>
<polygon fill="#392614" fill-opacity="0.501961" points="45.578839,201.600136,49.632135,155.669321,37.352079,195.300152,46.459370,199.873284" />
<g transform="translate(61.058638 241.391711) rotate(181.287535) scale(63.731697 6.233436)"><ellipse fill="#d5dae4" fill-opacity="0.501961" cx="0" cy="0" rx="1" ry="1" /></g>
<ellipse fill="#3a6381" fill-opacity="0.501961" cx="68" cy="183" rx="2" ry="2" />
<polygon fill="#bdbaba" fill-opacity="0.501961" points="97.669280,167.870569,86.998838,146.267075,91.083720,172.746912,78.443579,211.412758" />
<polygon fill="#a59e93" fill-opacity="0.501961" points="-16,139 -13,118 31,142" />
<ellipse fill="#9d754f" fill-opacity="0.501961" cx="131" cy="148" rx="11" ry="4" />
<g transform="translate(97 197) rotate(80) scale(1 15)"><rect fill="#aca29e" fill-opacity="0.501961" x="-0.5" y="-0.5" width="1" height="1" /></g>
<ellipse fill="#c8cac8" fill-opacity="0.501961" cx="100" cy="253" rx="134" ry="5" />
<g transform="translate(46 203) rotate(233) scale(3 14)"><rect fill="#c7cede" fill-opacity="0.501961" x="-0.5" y="-0.5" width="1" height="1" /></g>
<rect fill="#744622" fill-opacity="0.501961" x="10" y="216" width="3" height="5" />
<rect fill="#9e8b75" fill-opacity="0.501961" x="125" y="205" width="3" height="14" />
<polygon fill="#ae7d8b" fill-opacity="0.501961" points="157.509447,147.366531,162.767109,129.543577,47.846829,140.744104,96.075791,141.514268" />
<polygon fill="#6f4728" fill-opacity="0.501961" points="99,173 112,162 113,170" />
<rect fill="#422a1c" fill-opacity="0.501961" x="131" y="157" width="13" height="4" />
<polygon fill="#5d371d" fill-opacity="0.501961" points="173.156083,212.650644,170.580904,196.430308,168.895073,200.773334,165.596213,214.156553" />
<g transform="translate(142 175) rotate(283) scale(8 4)"><rect fill="#987057" fill-opacity="0.501961" x="-0.5" y="-0.5" width="1" height="1" /></g>
<polygon fill="#a98c68" fill-opacity="0.501961" points="96.440187,144.685225,95.788175,147.329356,135.302934,141.823104,95.948171,154.883430" />
<rect fill="#c2b8c5" fill-opacity="0.501961" x="109" y="117" width="51" height="5" />
<ellipse fill="#9d564e" fill-opacity="0.501961" cx="56" cy="217" rx="4" ry="4" />
<polygon fill="#b39e79" fill-opacity="0.501961" points="13,212 -16,208 -16,228" />
<rect fill="#452507" fill-opacity="0.501961" x="22" y="217" width="2" height="4" />
<polygon fill="#92887c" fill-opacity="0.501961" points="8.728028,179.465251,-16.000000,138.747625,45.986019,165.331117,16.179292,172.589794" />
<polygon fill="#d2d5da" fill-opacity="0.501961" points="193.519215,238.088725,84.017968,249.455048,190.881175,252.373952,207.000000,201.869554" />
<polygon fill="#825b36" fill-opacity="0.501961" points="109,145 122,145 101,158" />
<polygon fill="#bfc4c3" fill-opacity="0.501961" points="54,201 49,215 54,211" />
<polygon fill="#dee5f0" fill-opacity="0.501961" points="-16,220 -1,238 59,222" />
<rect fill="#060b0a" fill-opacity="0.501961" x="97" y="203" width="13" height="10" />
<polygon fill="#8e6044" fill-opacity="0.501961" points="183.154874,195.122112,173.596527,207.101863,170.787542,207.070382,177.557345,192.882985" />
<polygon fill="#e0eaf7" fill-opacity="0.501961" points="97,155 83,145 95,142" />
<polygon fill="#b6b4ba" fill-opacity="0.501961" points="178.704967,149.072338,176.166365,136.350920,189.790902,131.112721,198.870599,123.414713" />
<polygon fill="#241d15" fill-opacity="0.501961" points="133.183732,211.414990,137.793110,205.968349,109.215570,174.687598,121.304555,202.186865" />
<polygon fill="#978c83" fill-opacity="0.501961" points="97.024270,195.874781,130.877864,211.648435,128.040653,206.930128,99.020708,194.371999" />
<polygon fill="#9f7d60" fill-opacity="0.501961" points="71.453042,153.330656,63.065361,168.340830,62.503516,149.181136,93.907155,158.060660" />
<polygon fill="#d2dbe9" fill-opacity="0.501961" points="101,184 84,185 112,196" />
<polygon fill="#523018" fill-opacity="0.501961" points="70.429715,179.245207,61.776131,172.508729,88.714784,171.222813,67.454377,180.722075" />
<polygon fill="#8e6849" fill-opacity="0.501961" points="23,206 38,176 39,195" />
</g>
</svg>