<svg xmlns="http://www.w3.org/2000/svg" version="1.1" width="1024" height="764">
<rect x="0" y="0" width="1024" height="764" fill="#696a58" />
<g transform="scale(4.000000) translate(0.5 0.5)">
<g transform="translate(142.567959 27.294456) rotate(29.683696) scale(68.415686 34.611148)"><ellipse fill="#fefeff" fill-opacity="0.501961" cx="0" cy="0" rx="1" ry="1" /></g>
<g transform="translate(183.375452 188.956446) rotate(355.764926) scale(89.752472 34.438576)"><ellipse fill="#000c00" fill-opacity="0.501961" cx="0" cy="0" rx="1" ry="1" /></g>
<g transform="translate(80.394717 69.946789) rotate(73.541707) scale(39.985012 22.544651)"><ellipse fill="#000000" fill-opacity="0.501961" cx="0" cy="0" rx="1" ry="1" /></g>
<rect fill="#d8b3b6" fill-opacity="0.501961" x="34" y="114" width="159" height="41" />
<polygon fill="#174100" fill-opacity="0.501961" points="185,-13 260,-16 254,198" />
<ellipse fill="#1c2f01" fill-opacity="0.501961" cx="224" cy="142" rx="36" ry="36" />
<g transform="translate(65.213549 163.665067) rotate(225.253664) scale(26.134738 32.720401)"><ellipse fill="#a32015" fill-opacity="0.501961" cx="0" cy="0" rx="1" ry="1" /></g>
<g transform="translate(131.053088 82.733536) rotate(173.837210) scale(19.992451 37.556024)"><ellipse fill="#221519" fill-opacity="0.501961" cx="0" cy="0" rx="1" ry="1" /></g>
<g transform="translate(144.969447 16.912816) rotate(45.252381) scale(48.095667 7.993043)"><ellipse fill="#271f1f" fill-opacity="0.501961" cx="0" cy="0" rx="1" ry="1" /></g>
<polygon fill="#ffffff" fill-opacity="0.501961" points="218,111 145,-16 195,24" />
<polygon fill="#fac8cb" fill-opacity="0.501961" points="80,107 53,95 15,194" />
<ellipse fill="#fcffff" fill-opacity="0.501961" cx="114" cy="25" rx="32" ry="15" />
<polygon fill="#ccd1e4" fill-opacity="0.501961" points="143.493595,59.879674,169.269710,112.968179,177.758477,162.984805,199.035732,109.616662" />
<g transform="translate(74.691505 12.217025) rotate(156.764524) scale(63.294145 11.860735)"><ellipse fill="#3e5b2f" fill-opacity="0.501961" cx="0" cy="0" rx="1" ry="1" /></g>
<polygon fill="#284123" fill-opacity="0.501961" points="67,77 24,48 -10,206" />
<polygon fill="#fcf1ff" fill-opacity="0.501961" points="87.233448,174.862758,95.626336,191.609809,107.780254,162.271071,87.778834,161.339298" />
<rect fill="#e2e5ff" fill-opacity="0.501961" x="196" y="84" width="24" height="21" />
<ellipse fill="#04061d" fill-opacity="0.501961" cx="185" cy="82" rx="14" ry="14" />
<g transform="translate(132 163) rotate(276) scale(17 17)"><rect fill="#e2c6c6" fill-opacity="0.501961" x="-0.5" y="-0.5" width="1" height="1" /></g>
<ellipse fill="#242019" fill-opacity="0.501961" cx="155" cy="112" rx="20" ry="8" />
<g transform="translate(116.606762 190.000000) rotate(268.249421) scale(32.296200 12.457486)"><ellipse fill="#000000" fill-opacity="0.501961" cx="0" cy="0" rx="1" ry="1" /></g>
<polygon fill="#0a2c00" fill-opacity="0.501961" points="33,136 -1,176 17,194" />
<polygon fill="#822b1f" fill-opacity="0.501961" points="46,133 65,123 40,165" />
<polygon fill="#140808" fill-opacity="0.501961" points="52,88 136,103 54,50" />
<polygon fill="#8bad46" fill-opacity="0.501961" points="253,80 235,45 271,2" />
<polygon fill="#dfe0f0" fill-opacity="0.501961" points="159,82 152,48 196,55" />
<polygon fill="#cdc7bf" fill-opacity="0.501961" points="114.365687,139.167877,62.521716,93.161951,45.708765,111.636100,102.063220,145.958806" />
<polygon fill="#d3ae9b" fill-opacity="0.501961" points="40.213096,64.622884,27.189159,70.268577,52.839300,35.535901,62.640352,44.012697" />
<g transform="translate(160 0) rotate(210) scale(26 27)"><rect fill="#ffffff" fill-opacity="0.501961" x="-0.5" y="-0.5" width="1" height="1" /></g>
<g transform="translate(170.424199 139.636697) rotate(230.223786) scale(25.609112 7.667507)"><ellipse fill="#cad7e7" fill-opacity="0.501961" cx="0" cy="0" rx="1" ry="1" /></g>
<polygon fill="#1f2f0a" fill-opacity="0.501961" points="242,114 200,101 187,163" />
<g transform="translate(159.676728 33.159774) rotate(36.807631) scale(24.871185 10.663739)"><ellipse fill="#6b635d" fill-opacity="0.501961" cx="0" cy="0" rx="1" ry="1" /></g>
<g transform="translate(167.974613 176.376587) rotate(301.250904) scale(18.902839 31.733457)"><ellipse fill="#161f00" fill-opacity="0.501961" cx="0" cy="0" rx="1" ry="1" /></g>
<ellipse fill="#122300" fill-opacity="0.501961" cx="229" cy="77" rx="12" ry="28" />
<g transform="translate(124.023949 27.561297) rotate(319.370291) scale(10.627470 27.204972)"><ellipse fill="#f7faff" fill-opacity="0.501961" cx="0" cy="0" rx="1" ry="1" /></g>
<polygon fill="#6b7349" fill-opacity="0.501961" points="271,186 210,137 240,184" />
<polygon fill="#94ab9e" fill-opacity="0.501961" points="20.033343,-16.000000,0.036336,52.149349,17.475871,58.092291,1.893954,-9.390984" />
<polygon fill="#120f0e" fill-opacity="0.501961" points="26.432326,46.838524,72.631549,30.608568,45.627704,27.972619,22.163946,82.659702" />
<ellipse fill="#b9bfce" fill-opacity="0.501961" cx="189" cy="111" rx="10" ry="17" />
<polygon fill="#8d7973" fill-opacity="0.501961" points="97.970212,34.690324,131.213032,46.156346,103.762059,88.232214,99.432959,78.239914" />
<polygon fill="#1a181b" fill-opacity="0.501961" points="137,92 164,117 135,50" />
<polygon fill="#263a10" fill-opacity="0.501961" points="229.088898,104.572187,271.000000,123.285376,252.462287,83.313994,199.034792,62.334072" />
<g transform="translate(32 159) rotate(285) scale(71 4)"><rect fill="#fdf0f8" fill-opacity="0.501961" x="-0.5" y="-0.5" width="1" height="1" /></g>
<polygon fill="#853526" fill-opacity="0.501961" points="10,201 105,152 78,138" />
<polygon fill="#242124" fill-opacity="0.501961" points="140,-16 57,-16 144,10" />
<polygon fill="#759571" fill-opacity="0.501961" points="20.971165,62.812113,27.827492,98.860649,27.837967,107.607540,-5.523935,83.907681" />
<polygon fill="#a0a5ad" fill-opacity="0.501961" points="29.857764,131.227253,-5.652698,136.070625,8.846751,133.140326,15.572247,144.003700" />
<polygon fill="#dbe3f3" fill-opacity="0.501961" points="187.223408,44.858713,197.522572,21.003346,198.586363,85.123940,226.707999,108.432006" />
<polygon fill="#090b0e" fill-opacity="0.501961" points="75,76 117,103 61,16" />
<polygon fill="#38471d" fill-opacity="0.501961" points="197.494611,190.455764,248.443333,143.657938,227.300110,97.815551,186.880161,130.535134" />
<ellipse fill="#4f6f3b" fill-opacity="0.501961" cx="51" cy="2" rx="40" ry="28" />
<g transform="translate(45 68) rotate(138) scale(7 37)"><rect fill="#a27d6c" fill-opacity="0.501961" x="-0.5" y="-0.5" width="1" height="1" /></g>
<polygon fill="#92a892" fill-opacity="0.501961" points="-7,66 49,28 16,38" />
<g transform="translate(183.736571 22.928602) rotate(223.081805) scale(21.633833 7.265707)"><ellipse fill="#e8f6ff" fill-opacity="0.501961" cx="0" cy="0" rx="1" ry="1" /></g>
<polygon fill="#c2ddfc" fill-opacity="0.501961" points="65.593674,97.069854,63.550343,91.577274,47.367406,109.855693,36.410714,132.445223" />
<polygon fill="#a3b8d4" fill-opacity="0.501961" points="159,151 153,121 199,110" />
<ellipse fill="#1a2200" fill-opacity="0.501961" cx="136" cy="190" rx="42" ry="15" />
<polygon fill="#dbe0ef" fill-opacity="0.501961" points="80.670158,34.030688,81.544451,22.072639,128.158944,7.063357,153.851005,49.845162" />
<polygon fill="#050e22" fill-opacity="0.501961" points="126,58 136,77 102,90" />
<g transform="translate(40 114) rotate(205) scale(8 63)"><rect fill="#2c4927" fill-opacity="0.501961" x="-0.5" y="-0.5" width="1" height="1" /></g>
<ellipse fill="#000000" fill-opacity="0.501961" cx="184" cy="86" rx="12" ry="5" />
<polygon fill="#7c7563" fill-opacity="0.501961" points="88.983843,97.128629,143.304539,114.160114,116.936043,154.469622,168.120699,157.087253" />
<polygon fill="#746c6a" fill-opacity="0.501961" points="72.520805,33.052516,104.773088,35.791919,148.157413,80.314035,158.342051,63.419291" />
<polygon fill="#678b3d" fill-opacity="0.501961" points="230,-12 211,3 268,32" />
<g transform="translate(198.904693 16.688122) rotate(41.030877) scale(34.133333 8.165660)"><ellipse fill="#2c4623" fill-opacity="0.501961" cx="0" cy="0" rx="1" ry="1" /></g>
<polygon fill="#c5725e" fill-opacity="0.501961" points="84.599881,131.962674,66.673114,116.464135,60.948141,130.363965,38.565004,171.917302" />
<ellipse fill="#d2dff6" fill-opacity="0.501961" cx="93" cy="171" rx="8" ry="8" />
<ellipse fill="#fff7ff" fill-opacity="0.501961" cx="85" cy="190" rx="4" ry="4" />
<polygon fill="#374d33" fill-opacity="0.501961" points="8.350238,114.835512,9.555468,131.897841,-16.000000,129.411718,33.305787,61.920203" />
<polygon fill="#cbc7cc" fill-opacity="0.501961" points="136.895439,27.800966,176.621970,100.474231,169.661985,108.848849,164.768670,103.301301" />
<polygon fill="#92352b" fill-opacity="0.501961" points="53.590448,123.761637,22.160523,199.376245,83.476197,206.000000,44.688303,130.931657" />
<polygon fill="#010700" fill-opacity="0.501961" points="120.195221,166.477526,111.795609,155.003527,94.427767,203.768472,109.651921,205.131127" />
<g transform="translate(107 153) rotate(104) scale(41 8)"><rect fill="#b8a695" fill-opacity="0.501961" x="-0.5" y="-0.5" width="1" height="1" /></g>
<polygon fill="#577149" fill-opacity="0.501961" points="203,48 246,28 203,66" />
<rect fill="#2f3339" fill-opacity="0.501961" x="155" y="30" width="15" height="15" />
<polygon fill="#f5ffff" fill-opacity="0.501961" points="165,-16 145,1 183,35" />
<polygon fill="#6e4225" fill-opacity="0.501961" points="77,137 101,168 105,153" />
<polygon fill="#d2bfae" fill-opacity="0.501961" points="170.028718,157.627130,178.625236,133.252616,187.509225,138.700582,189.885626,159.413478" />
<g transform="translate(201 150) rotate(92) scale(14 5)"><rect fill="#a7b644" fill-opacity="0.501961" x="-0.5" y="-0.5" width="1" height="1" /></g>
<g transform="translate(176 70) rotate(11) scale(23 9)"><rect fill="#a5a5a8" fill-opacity="0.501961" x="-0.5" y="-0.5" width="1" height="1" /></g>
<polygon fill="#675945" fill-opacity="0.501961" points="117.135090,155.551102,126.378759,167.040964,151.022603,170.332390,123.423193,180.647408" />
<polygon fill="#db5734" fill-opacity="0.501961" points="5.508207,198.050987,5.567223,178.529291,-10.009632,184.165258,24.687788,206.000000" />
<polygon fill="#925143" fill-opacity="0.501961" points="8.938866,180.051250,85.038519,186.814729,100.929110,195.976022,89.810830,176.491077" />
<g transform="translate(250 44) rotate(243) scale(17 13)"><rect fill="#99b665" fill-opacity="0.501961" x="-0.5" y="-0.5" width="1" height="1" /></g>
<g transform="translate(33.054094 152.100342) rotate(200.597975) scale(2.974720 22.998527)"><ellipse fill="#ccd9e7" fill-opacity="0.501961" cx="0" cy="0" rx="1" ry="1" /></g>
<polygon fill="#8d988e" fill-opacity="0.501961" points="13.004507,111.106679,12.137943,115.764317,25.525463,102.572927,23.946729,85.271259" />
<polygon fill="#8f8580" fill-opacity="0.501961" points="157.141284,50.468192,150.868779,14.643796,129.440920,14.625706,110.165775,-16.000000" />
<polygon fill="#928a7f" fill-opacity="0.501961" points="175,52 193,58 163,26" />
<g transform="translate(32.796564 50.391426) rotate(139.124184) scale(13.963560 4.088732)"><ellipse fill="#1e1a16" fill-opacity="0.501961" cx="0" cy="0" rx="1" ry="1" /></g>
<g transform="translate(0.000000 159.281225) rotate(78.301877) scale(14.809488 4.444028)"><ellipse fill="#091e08" fill-opacity="0.501961" cx="0" cy="0" rx="1" ry="1" /></g>
<rect fill="#22320b" fill-opacity="0.501961" x="118" y="176" width="127" height="15" />
<polygon fill="#1c2711" fill-opacity="0.501961" points="228.957555,128.727128,203.330339,100.377389,193.398474,155.611205,186.214342,133.144690" />
<polygon fill="#3a353a" fill-opacity="0.501961" points="73.836116,27.385320,68.862808,27.781835,102.550123,90.858723,101.095376,44.227875" />
<rect fill="#837a76" fill-opacity="0.501961" x="112" y="85" width="24" height="6" />
<polygon fill="#cad1df" fill-opacity="0.501961" points="220.098714,104.963897,221.481095,92.162322,200.803714,69.333607,201.271253,93.986300" />
<polygon fill="#846e75" fill-opacity="0.501961" points="102.495557,16.566918,118.048238,-16.000000,63.971892,30.400223,78.545761,22.186950" />
<polygon fill="#8f8583" fill-opacity="0.501961" points="170,128 202,87 180,96" />
<rect fill="#4b661c" fill-opacity="0.501961" x="233" y="53" width="23" height="32" />
<polygon fill="#92a22a" fill-opacity="0.501961" points="205.172551,190.358153,202.600744,182.122373,183.310764,206.000000,167.689643,194.427088" />
<polygon fill="#78644c" fill-opacity="0.501961" points="131.549478,99.134111,129.391239,122.663017,69.535833,110.239985,95.975908,100.972750" />
<polygon fill="#727d76" fill-opacity="0.501961" points="-8.938016,130.296969,-16.000000,150.797050,38.301002,117.602745,28.644531,135.194956" />
<polygon fill="#353829" fill-opacity="0.501961" points="30.916812,77.233695,65.277881,72.151831,48.671585,105.293988,81.150618,78.002426" />
<rect fill="#49130f" fill-opacity="0.501961" x="48" y="185" width="29" height="6" />
<polygon fill="#191814" fill-opacity="0.501961" points="151.020963,119.585928,147.643230,72.212692,144.426741,109.832238,164.165659,116.396157" />
<polygon fill="#e38472" fill-opacity="0.501961" points="47.635316,206.000000,23.366471,181.309581,48.484478,135.582410,30.940062,174.275603" />
<polygon fill="#808e7e" fill-opacity="0.501961" points="17.282692,47.777998,33.634181,48.366305,41.784734,13.064387,49.267860,27.159706" />
<polygon fill="#a4b7ab" fill-opacity="0.501961" points="18.527076,78.317286,-7.297609,74.732697,-15.974761,78.202396,20.548373,70.105471" />
<polygon fill="#92b25e" fill-opacity="0.501961" points="267.667894,180.350743,244.322674,186.500002,249.939720,174.198644,271.000000,204.331428" />
<polygon fill="#b5afa4" fill-opacity="0.501961" points="63.324051,96.073205,129.776711,168.747502,142.382606,150.579212,102.014388,159.160915" />
<g transform="translate(123.389602 71.894652) rotate(234.674012) scale(5.242668 1.566073)"><ellipse fill="#687dab" fill-opacity="0.501961" cx="0" cy="0" rx="1" ry="1" /></g>
<polygon fill="#626c3e" fill-opacity="0.501961" points="218.510827,135.156331,271.000000,123.959940,237.422254,134.361059,271.000000,146.116671" />
<polygon fill="#b7a289" fill-opacity="0.501961" points="116.950623,46.716230,132.618923,65.843641,132.379706,31.767363,130.929072,51.546010" />
<g transform="translate(57 155) rotate(177) scale(37 6)"><rect fill="#cf6c59" fill-opacity="0.501961" x="-0.5" y="-0.5" width="1" height="1" /></g>
<polygon fill="#e7eaf4" fill-opacity="0.501961" points="197.931982,41.578280,147.496302,-16.000000,184.974239,52.312745,207.784237,91.402775" />
<polygon fill="#0d0206" fill-opacity="0.501961" points="56,50 48,61 91,65" />
<polygon fill="#705545" fill-opacity="0.501961" points="77.508523,133.198375,106.657321,156.674828,87.574982,162.281468,79.498899,206.000000" />
<polygon fill="#8a7d70" fill-opacity="0.501961" points="109.846433,44.366346,100.067463,70.914996,100.389180,89.328571,126.311464,43.956967" />
<polygon fill="#33441d" fill-opacity="0.501961" points="83,12 107,-16 72,-13" />
<g transform="translate(204.499864 3.718605) rotate(143.563687) scale(6.593484 28.487416)"><ellipse fill="#223410" fill-opacity="0.501961" cx="0" cy="0" rx="1" ry="1" /></g>
<polygon fill="#595f43" fill-opacity="0.501961" points="229.029461,185.283754,239.726813,174.873930,216.944607,168.636572,244.047647,145.449843" />
<rect fill="#c19d93" fill-opacity="0.501961" x="55" y="112" width="17" height="27" />
<ellipse fill="#415a34" fill-opacity="0.501961" cx="19" cy="20" rx="5" ry="25" />
<polygon fill="#728f49" fill-opacity="0.501961" points="233.676994,31.401539,221.435086,15.625989,225.403133,33.319910,244.669537,47.226212" />
<polygon fill="#78685b" fill-opacity="0.501961" points="56.160264,32.529558,69.428531,49.100944,49.957773,54.927515,56.924367,45.926867" />
<polygon fill="#304222" fill-opacity="0.501961" points="205.407876,55.968868,204.411463,41.354315,203.552384,74.798638,271.000000,125.713292" />
<polygon fill="#0b1405" fill-opacity="0.501961" points="248.269967,126.687584,230.555567,109.610968,223.819255,86.477187,231.705127,93.218457" />
<polygon fill="#eff1f4" fill-opacity="0.501961" points="142.753323,38.823648,141.919004,24.208422,91.554404,21.330478,119.355265,44.498808" />
<polygon fill="#908c93" fill-opacity="0.501961" points="159.461226,76.065324,144.303268,58.012026,154.151672,88.786429,168.210254,115.304412" />
<g transform="translate(167.981112 133.198053) rotate(61.629505) scale(16.331210 21.589793)"><ellipse fill="#abb2bb" fill-opacity="0.501961" cx="0" cy="0" rx="1" ry="1" /></g>
<polygon fill="#a39c86" fill-opacity="0.501961" points="118.326545,118.188430,163.189799,120.107429,102.196340,147.024124,104.601351,98.262111" />
<g transform="translate(181 143) rotate(-37) scale(15 10)"><rect fill="#f1e5d8" fill-opacity="0.501961" x="-0.5" y="-0.5" width="1" height="1" /></g>
<polygon fill="#c2c0c9" fill-opacity="0.501961" points="102.158882,180.089199,89.474527,179.486068,88.363502,153.959101,103.473977,171.830681" />
<polygon fill="#1d250c" fill-opacity="0.501961" points="128.668997,180.062680,151.270921,202.339534,141.789785,150.648600,200.841427,164.815616" />
<g transform="translate(138.789544 166.668271) rotate(203.597889) scale(2.750430 12.898378)"><ellipse fill="#79676a" fill-opacity="0.501961" cx="0" cy="0" rx="1" ry="1" /></g>
<g transform="translate(22 115) rotate(157) scale(6 9)"><rect fill="#041100" fill-opacity="0.501961" x="-0.5" y="-0.5" width="1" height="1" /></g>
<polygon fill="#414243" fill-opacity="0.501961" points="119.557179,-10.024096,135.452983,16.616481,145.190700,24.178295,129.694876,-13.738061" />
<polygon fill="#691f17" fill-opacity="0.501961" points="33.906829,165.937580,44.184414,180.654063,55.674451,156.961012,32.741501,180.519136" />
<polygon fill="#dedddf" fill-opacity="0.501961" points="184.651917,66.132626,105.749554,35.250297,149.987779,47.129411,205.169560,63.763440" />
<polygon fill="#ccd0d4" fill-opacity="0.501961" points="195.896922,98.426223,185.527953,116.882466,194.784037,122.228669,203.601594,77.971046" />
<g transform="translate(39.461208 147.171849) rotate(200.881721) scale(4.108383 17.149574)"><ellipse fill="#eec2b1" fill-opacity="0.501961" cx="0" cy="0" rx="1" ry="1" /></g>
<polygon fill="#7f807d" fill-opacity="0.501961" points="138.749158,124.020222,111.890578,153.462611,184.120406,154.774129,159.635839,158.123819" />
<ellipse fill="#4f1612" fill-opacity="0.501961" cx="63" cy="175" rx="9" ry="4" />
<ellipse fill="#554834" fill-opacity="0.501961" cx="144" cy="114" rx="28" ry="5" />
<ellipse fill="#454d5c" fill-opacity="0.501961" cx="189" cy="74" rx="7" ry="7" />
<polygon fill="#6a926d" fill-opacity="0.501961" points="-3,30 -16,59 31,11" />
<polygon fill="#e1d4dd" fill-opacity="0.501961" points="56.260842,98.986022,61.365790,93.536300,64.738347,111.352462,40.186806,125.456917" />
<polygon fill="#485a32" fill-opacity="0.501961" points="211,118 252,132 230,109" />
<polygon fill="#889761" fill-opacity="0.501961" points="75,9 70,-16 64,12" />
<polygon fill="#2b410d" fill-opacity="0.501961" points="250.906130,41.489173,241.538502,45.637811,242.719729,65.182361,217.032126,81.046161" />
<g transform="translate(209 167) rotate(59) scale(36 6)"><rect fill="#526a31" fill-opacity="0.501961" x="-0.5" y="-0.5" width="1" height="1" /></g>
<polygon fill="#23431b" fill-opacity="0.501961" points="13.711336,140.983761,-16.000000,140.953007,29.777383,155.518904,18.906255,164.329847" />
<g transform="translate(47.816595 48.088112) rotate(123.100451) scale(14.967852 4.710757)"><ellipse fill="#b5a18a" fill-opacity="0.501961" cx="0" cy="0" rx="1" ry="1" /></g>
<g transform="translate(9.462025 66.187942) rotate(309.729988) scale(9.440765 2.926317)"><ellipse fill="#30502a" fill-opacity="0.501961" cx="0" cy="0" rx="1" ry="1" /></g>
<ellipse fill="#8c8388" fill-opacity="0.501961" cx="255" cy="118" rx="7" ry="3" />
<polygon fill="#3f5c2f" fill-opacity="0.501961" points="5.482686,31.367527,-16.000000,-13.394827,-13.023770,37.264120,26.944384,3.243338" />
<g transform="translate(16 146) rotate(390) scale(1 35)"><rect fill="#808c80" fill-opacity="0.501961" x="-0.5" y="-0.5" width="1" height="1" /></g>
<polygon fill="#19260f" fill-opacity="0.501961" points="213.687849,111.938609,264.188418,107.187480,231.844880,122.701160,237.538262,92.386776" />
<polygon fill="#a7a6b1" fill-opacity="0.501961" points="6.972434,46.924699,-5.038774,36.594831,20.895908,45.639392,12.058290,51.179315" />
<polygon fill="#324d2d" fill-opacity="0.501961" points="60,87 29,94 37,127" />
<polygon fill="#5b544f" fill-opacity="0.501961" points="100.342886,48.154226,133.993283,46.705947,86.026402,42.022821,104.751674,70.075176" />
</g>
</svg>