<svg xmlns="http://www.w3.org/2000/svg" version="1.1" width="1024" height="764">
<rect x="0" y="0" width="1024" height="764" fill="#696a58" />
<g transform="scale(4.000000) translate(0.5 0.5)">
<g transform="translate(150.033473 29.071591) rotate(211.402441) scale(59.761554 33.706513)"><ellipse fill="#ffffff" fill-opacity="0.501961" cx="0" cy="0" rx="1" ry="1" /></g>
<ellipse fill="#000500" fill-opacity="0.501961" cx="172" cy="178" rx="72" ry="22" />
<ellipse fill="#1f4303" fill-opacity="0.501961" cx="245" cy="87" rx="41" ry="190" />
<g transform="translate(78.425551 70.020688) rotate(255.481498) scale(37.322577 22.967671)"><ellipse fill="#000000" fill-opacity="0.501961" cx="0" cy="0" rx="1" ry="1" /></g>
<rect fill="#deb6b9" fill-opacity="0.501961" x="38" y="115" width="151" height="40" />
<polygon fill="#ffffff" fill-opacity="0.501961" points="189.495328,15.243222,198.130075,100.990607,225.921817,109.458739,205.041552,66.273130" />
<ellipse fill="#ffffff" fill-opacity="0.501961" cx="110" cy="26" rx="30" ry="14" />
<g transform="translate(60.172392 167.090654) rotate(38.138133) scale(22.617878 40.041780)"><ellipse fill="#a4190d" fill-opacity="0.501961" cx="0" cy="0" rx="1" ry="1" /></g>
<g transform="translate(140 12) rotate(46) scale(92 15)"><rect fill="#241b1b" fill-opacity="0.501961" x="-0.5" y="-0.5" width="1" height="1" /></g>
<g transform="translate(129.487992 92.700887) rotate(311.678616) scale(23.879454 34.328448)"><ellipse fill="#22161a" fill-opacity="0.501961" cx="0" cy="0" rx="1" ry="1" /></g>
<g transform="translate(63 114) rotate(127) scale(29 28)"><rect fill="#ffe5ec" fill-opacity="0.501961" x="-0.5" y="-0.5" width="1" height="1" /></g>
<polygon fill="#c5cade" fill-opacity="0.501961" points="143,56 179,152 200,112" />
<polygon fill="#fcc1bf" fill-opacity="0.501961" points="33,139 74,95 20,197" />
<polygon fill="#ffffff" fill-opacity="0.501961" points="164,-16 202,49 122,-13" />
<g transform="translate(8.922399 160.866528) rotate(24.923892) scale(14.926040 126.194746)"><ellipse fill="#253e1d" fill-opacity="0.501961" cx="0" cy="0" rx="1" ry="1" /></g>
<g transform="translate(95.042126 172.257474) rotate(70.351733) scale(11.026774 7.379878)"><ellipse fill="#ffffff" fill-opacity="0.501961" cx="0" cy="0" rx="1" ry="1" /></g>
<polygon fill="#202f08" fill-opacity="0.501961" points="202,103 271,109 174,206" />
<g transform="translate(130 163) rotate(186) scale(18 16)"><rect fill="#ecd1ce" fill-opacity="0.501961" x="-0.5" y="-0.5" width="1" height="1" /></g>
<polygon fill="#000011" fill-opacity="0.501961" points="197.916699,76.469570,163.939458,79.119390,185.874317,98.959368,201.660709,82.522386" />
<g transform="translate(207.851696 19.774111) rotate(73.578099) scale(104.898796 12.415524)"><ellipse fill="#1e3712" fill-opacity="0.501961" cx="0" cy="0" rx="1" ry="1" /></g>
<polygon fill="#31292d" fill-opacity="0.501961" points="93.803431,106.624167,126.386623,45.911809,130.837456,45.219650,154.304201,64.750657" />
<polygon fill="#466934" fill-opacity="0.501961" points="13,-16 153,-10 15,39" />
<polygon fill="#e7ebff" fill-opacity="0.501961" points="217.788430,88.363888,221.228010,98.712478,215.408967,107.624765,160.306806,7.047589" />
<polygon fill="#e2e0ed" fill-opacity="0.501961" points="162,80 118,21 192,62" />
<polygon fill="#040300" fill-opacity="0.501961" points="24,73 21,54 56,25" />
<g transform="translate(158.244507 111.804138) rotate(184.035479) scale(16.446559 7.901639)"><ellipse fill="#2b2820" fill-opacity="0.501961" cx="0" cy="0" rx="1" ry="1" /></g>
<g transform="translate(112.154936 184.657269) rotate(106.999535) scale(28.269067 11.795477)"><ellipse fill="#050900" fill-opacity="0.501961" cx="0" cy="0" rx="1" ry="1" /></g>
<g transform="translate(117.583200 25.598092) rotate(-30.789963) scale(19.690874 17.929544)"><ellipse fill="#eef6ff" fill-opacity="0.501961" cx="0" cy="0" rx="1" ry="1" /></g>
<g transform="translate(57.840339 142.075055) rotate(20.788177) scale(14.650819 19.926431)"><ellipse fill="#b45c49" fill-opacity="0.501961" cx="0" cy="0" rx="1" ry="1" /></g>
<g transform="translate(168.865118 143.703643) rotate(36.567584) scale(25.043826 10.065767)"><ellipse fill="#bbc7d2" fill-opacity="0.501961" cx="0" cy="0" rx="1" ry="1" /></g>
<ellipse fill="#a8ce5f" fill-opacity="0.501961" cx="255" cy="43" rx="18" ry="11" />
<g transform="translate(79.905515 76.097622) rotate(223.731791) scale(31.282402 13.599139)"><ellipse fill="#0a0206" fill-opacity="0.501961" cx="0" cy="0" rx="1" ry="1" /></g>
<polygon fill="#fff4ff" fill-opacity="0.501961" points="28,158 45,142 22,184" />
<polygon fill="#caa895" fill-opacity="0.501961" points="50.633726,37.009978,27.455291,71.336707,66.679467,43.871964,64.868121,43.910682" />
<rect fill="#cccedd" fill-opacity="0.501961" x="184" y="95" width="14" height="24" />
<g transform="translate(109.943843 62.061460) rotate(288.620677) scale(24.150684 6.404071)"><ellipse fill="#a99289" fill-opacity="0.501961" cx="0" cy="0" rx="1" ry="1" /></g>
<ellipse fill="#152100" fill-opacity="0.501961" cx="165" cy="190" rx="32" ry="35" />
<ellipse fill="#a2b7b4" fill-opacity="0.501961" cx="0" cy="47" rx="19" ry="10" />
<g transform="translate(90 150) rotate(38) scale(26 8)"><rect fill="#4c1e00" fill-opacity="0.501961" x="-0.5" y="-0.5" width="1" height="1" /></g>
<polygon fill="#fbffff" fill-opacity="0.501961" points="138,-16 198,27 201,61" />
<g transform="translate(47.081584 117.885343) rotate(29.928106) scale(3.233202 18.254046)"><ellipse fill="#ddebff" fill-opacity="0.501961" cx="0" cy="0" rx="1" ry="1" /></g>
<polygon fill="#1e1b1e" fill-opacity="0.501961" points="53,98 63,20 92,40" />
<polygon fill="#bcb9a3" fill-opacity="0.501961" points="77,111 107,170 114,121" />
<polygon fill="#e9edf9" fill-opacity="0.501961" points="145.906488,22.172047,83.790442,17.414004,88.255190,32.006255,136.393418,46.825890" />
<polygon fill="#2d4b1e" fill-opacity="0.501961" points="221,35 172,5 202,-16" />
<polygon fill="#6e6762" fill-opacity="0.501961" points="158.580783,46.206281,144.813769,39.452771,130.004149,-15.140782,189.324507,57.861354" />
<g transform="translate(207 133) rotate(239) scale(22 38)"><rect fill="#213409" fill-opacity="0.501961" x="-0.5" y="-0.5" width="1" height="1" /></g>
<polygon fill="#576a4f" fill-opacity="0.501961" points="209.685114,84.516350,231.900462,35.880220,203.328063,45.053691,201.865623,63.134155" />
<polygon fill="#193809" fill-opacity="0.501961" points="14,191 36,132 -1,174" />
<polygon fill="#8c836e" fill-opacity="0.501961" points="143,168 147,117 97,98" />
<g transform="translate(247.207736 160.576341) rotate(278.887018) scale(82.957177 44.597763)"><ellipse fill="#35431f" fill-opacity="0.501961" cx="0" cy="0" rx="1" ry="1" /></g>
<polygon fill="#a9afb9" fill-opacity="0.501961" points="23.488838,131.983746,21.567697,141.889073,-1.221126,130.579533,-16.000000,135.763381" />
<polygon fill="#dedfe9" fill-opacity="0.501961" points="44.828163,118.682792,40.133671,141.261484,17.525522,206.000000,35.426042,133.655070" />
<polygon fill="#ac8a76" fill-opacity="0.501961" points="49,36 52,79 32,59" />
<g transform="translate(96.775366 169.969318) rotate(283.654883) scale(5.649296 9.736286)"><ellipse fill="#dbcfe1" fill-opacity="0.501961" cx="0" cy="0" rx="1" ry="1" /></g>
<polygon fill="#231f25" fill-opacity="0.501961" points="147,-15 140,9 112,-1" />
<polygon fill="#c8c3c7" fill-opacity="0.501961" points="148.428601,47.758654,179.507317,102.849207,168.692206,109.746241,163.658254,98.247875" />
<polygon fill="#a9bdd2" fill-opacity="0.501961" points="199.249134,115.776195,172.395536,145.842864,147.689832,122.149285,179.685706,114.625272" />
<polygon fill="#0e1500" fill-opacity="0.501961" points="112,158 88,206 152,196" />
<polygon fill="#4d463e" fill-opacity="0.501961" points="160.869015,155.510387,114.957253,173.940983,146.201202,175.978909,140.547892,147.418216" />
<polygon fill="#242221" fill-opacity="0.501961" points="139.566671,71.864646,167.463963,115.436001,148.141580,119.101546,125.490939,56.747811" />
<g transform="translate(4.238552 112.126364) rotate(299.818870) scale(47.920725 6.640215)"><ellipse fill="#385639" fill-opacity="0.501961" cx="0" cy="0" rx="1" ry="1" /></g>
<polygon fill="#608234" fill-opacity="0.501961" points="262.065710,101.884112,202.684081,-16.000000,222.888220,-16.000000,262.909484,25.827750" />
<g transform="translate(124.883454 52.978937) rotate(27.500224) scale(40.937439 4.452515)"><ellipse fill="#7f736f" fill-opacity="0.501961" cx="0" cy="0" rx="1" ry="1" /></g>
<g transform="translate(47 147) rotate(198) scale(4 37)"><rect fill="#702b2a" fill-opacity="0.501961" x="-0.5" y="-0.5" width="1" height="1" /></g>
<polygon fill="#938e86" fill-opacity="0.501961" points="139.501836,173.039284,132.709381,177.597076,103.027568,140.419124,154.358743,106.478690" />
<g transform="translate(236 167) rotate(315) scale(13 55)"><rect fill="#606441" fill-opacity="0.501961" x="-0.5" y="-0.5" width="1" height="1" /></g>
<g transform="translate(85 190) rotate(301) scale(9 5)"><rect fill="#f4e6ff" fill-opacity="0.501961" x="-0.5" y="-0.5" width="1" height="1" /></g>
<g transform="translate(232 83) rotate(84) scale(59 22)"><rect fill="#1f3205" fill-opacity="0.501961" x="-0.5" y="-0.5" width="1" height="1" /></g>
<polygon fill="#b7a297" fill-opacity="0.501961" points="102,125 62,91 56,142" />
<polygon fill="#887074" fill-opacity="0.501961" points="101,14 79,21 107,-16" />
<polygon fill="#dc6844" fill-opacity="0.501961" points="-16.000000,190.832310,22.273359,206.000000,3.438659,185.040979,7.888452,176.363285" />
<rect fill="#0f131d" fill-opacity="0.501961" x="174" y="75" width="23" height="17" />
<rect fill="#1f281e" fill-opacity="0.501961" x="42" y="28" width="36" height="7" />
<polygon fill="#9eb1aa" fill-opacity="0.501961" points="28,112 17,98 23,93" />
<polygon fill="#96ba9f" fill-opacity="0.501961" points="20.511088,82.700690,18.962835,68.778736,18.588314,67.123484,1.854207,76.495780" />
<g transform="translate(20.158535 45.027098) rotate(142.700251) scale(39.018412 4.762413)"><ellipse fill="#82997d" fill-opacity="0.501961" cx="0" cy="0" rx="1" ry="1" /></g>
<polygon fill="#364b2d" fill-opacity="0.501961" points="35,131 25,63 63,82" />
<g transform="translate(210 92) rotate(305) scale(13 20)"><rect fill="#d0d4f3" fill-opacity="0.501961" x="-0.5" y="-0.5" width="1" height="1" /></g>
<polygon fill="#2f4218" fill-opacity="0.501961" points="201.626619,69.600341,241.497345,56.029900,249.078089,51.434793,229.283312,99.756977" />
<polygon fill="#070700" fill-opacity="0.501961" points="127,100 107,85 93,94" />
<polygon fill="#78342b" fill-opacity="0.501961" points="38.814846,206.000000,81.232837,206.000000,82.509562,127.947826,50.445912,181.836452" />
<ellipse fill="#96ab9d" fill-opacity="0.501961" cx="9" cy="11" rx="3" ry="47" />
<polygon fill="#5b4c3a" fill-opacity="0.501961" points="183.758577,116.169453,114.179513,120.501070,135.657676,71.705691,138.495500,110.073505" />
<polygon fill="#d6d3e2" fill-opacity="0.501961" points="64.611217,91.898562,64.908661,109.015768,39.722443,125.181030,49.664651,106.249961" />
<polygon fill="#b45549" fill-opacity="0.501961" points="34.371436,164.397577,40.749409,145.134554,40.286019,206.000000,19.380888,206.000000" />
<polygon fill="#97a838" fill-opacity="0.501961" points="202,136 205,153 198,156" />
<polygon fill="#f6e8d3" fill-opacity="0.501961" points="170,148 183,130 188,146" />
<rect fill="#2e333a" fill-opacity="0.501961" x="154" y="30" width="14" height="15" />
<polygon fill="#16290a" fill-opacity="0.501961" points="271.000000,158.032235,247.312572,139.763270,244.100298,193.503474,196.194817,206.000000" />
<polygon fill="#a69787" fill-opacity="0.501961" points="158.915482,47.684658,149.190635,13.895166,142.682962,21.865980,158.344842,52.052569" />
<polygon fill="#7b3d25" fill-opacity="0.501961" points="105,152 81,141 99,165" />
<polygon fill="#172e03" fill-opacity="0.501961" points="219,9 238,32 242,22" />
<polygon fill="#e3ebf8" fill-opacity="0.501961" points="183.543953,35.529419,180.478717,69.699996,198.239688,34.472415,156.089135,-16.000000" />
<g transform="translate(158 3) rotate(115) scale(19 26)"><rect fill="#f1fcff" fill-opacity="0.501961" x="-0.5" y="-0.5" width="1" height="1" /></g>
<rect fill="#7e7775" fill-opacity="0.501961" x="112" y="85" width="25" height="6" />
<polygon fill="#7a817f" fill-opacity="0.501961" points="21.510942,127.005838,37.213585,123.115626,16.172922,146.361179,11.560355,136.512675" />
<polygon fill="#162110" fill-opacity="0.501961" points="200,100 218,124 200,140" />
<g transform="translate(93.748886 45.726895) rotate(375.675585) scale(10.695757 9.352981)"><ellipse fill="#483f45" fill-opacity="0.501961" cx="0" cy="0" rx="1" ry="1" /></g>
<g transform="translate(130.369365 159.738257) rotate(158.960477) scale(8.411632 5.925524)"><ellipse fill="#cfbfb3" fill-opacity="0.501961" cx="0" cy="0" rx="1" ry="1" /></g>
<g transform="translate(184.404437 74.553874) rotate(89.591577) scale(7.481462 12.223377)"><ellipse fill="#565a6a" fill-opacity="0.501961" cx="0" cy="0" rx="1" ry="1" /></g>
<polygon fill="#887c78" fill-opacity="0.501961" points="184,111 181,94 202,89" />
<ellipse fill="#000003" fill-opacity="0.501961" cx="118" cy="79" rx="6" ry="6" />
<polygon fill="#4a7746" fill-opacity="0.501961" points="12,16 -6,71 -13,17" />
<polygon fill="#90948c" fill-opacity="0.501961" points="260,114 271,127 245,115" />
<polygon fill="#48392d" fill-opacity="0.501961" points="106.808317,120.820646,66.416661,69.560930,38.589192,75.743699,71.188461,100.422069" />
<polygon fill="#344717" fill-opacity="0.501961" points="181,172 195,200 240,145" />
<g transform="translate(230 135) rotate(352) scale(19 6)"><rect fill="#7b7644" fill-opacity="0.501961" x="-0.5" y="-0.5" width="1" height="1" /></g>
<rect fill="#121e00" fill-opacity="0.501961" x="191" y="132" width="7" height="35" />
<polygon fill="#5c5553" fill-opacity="0.501961" points="130.785668,58.656421,167.303460,114.991689,140.441258,48.336058,141.089225,49.148590" />
<polygon fill="#a08b78" fill-opacity="0.501961" points="132,45 111,43 132,62" />
<g transform="translate(92.145885 133.249732) rotate(225.610865) scale(31.619153 7.846202)"><ellipse fill="#b2b3a9" fill-opacity="0.501961" cx="0" cy="0" rx="1" ry="1" /></g>
<polygon fill="#ccbfc4" fill-opacity="0.501961" points="108.653909,160.705944,104.697871,176.909287,92.538350,185.176175,90.480008,174.068934" />
<polygon fill="#c9cdd3" fill-opacity="0.501961" points="199.555741,87.407765,187.838048,128.738985,210.588959,81.245203,196.944380,70.744091" />
<polygon fill="#17181d" fill-opacity="0.501961" points="118,59 155,109 148,78" />
<polygon fill="#ebeae9" fill-opacity="0.501961" points="157,52 194,57 204,72" />
<polygon fill="#0a1c0d" fill-opacity="0.501961" points="-3.317992,168.949515,12.154803,175.967959,13.543623,178.866045,-16.000000,116.956581" />
<polygon fill="#d6e1f7" fill-opacity="0.501961" points="116.599079,4.709691,126.291386,14.782816,92.760262,29.040909,107.364749,4.885985" />
<polygon fill="#97b163" fill-opacity="0.501961" points="252.870173,36.538187,241.115218,38.412918,248.415710,53.072023,256.482752,53.033798" />
<ellipse fill="#a3b2ad" fill-opacity="0.501961" cx="30" cy="41" rx="5" ry="5" />
<polygon fill="#681d15" fill-opacity="0.501961" points="42.188757,183.645223,32.434679,170.780889,60.956172,161.960984,45.846904,170.889523" />
<polygon fill="#7f817e" fill-opacity="0.501961" points="135.967861,127.533616,109.521010,153.892048,169.478947,154.190611,184.651408,159.869893" />
<ellipse fill="#88a958" fill-opacity="0.501961" cx="249" cy="182" rx="5" ry="5" />
<polygon fill="#192106" fill-opacity="0.501961" points="153.889295,176.798156,136.476238,183.717622,149.041419,149.845688,200.898940,206.000000" />
<g transform="translate(201 189) rotate(102) scale(10 6)"><rect fill="#a2b028" fill-opacity="0.501961" x="-0.5" y="-0.5" width="1" height="1" /></g>
<g transform="translate(255 189) rotate(-27) scale(26 7)"><rect fill="#000100" fill-opacity="0.501961" x="-0.5" y="-0.5" width="1" height="1" /></g>
<polygon fill="#e49586" fill-opacity="0.501961" points="52.049342,161.923457,41.246429,155.419586,9.376040,206.000000,40.636886,147.188687" />
<polygon fill="#cdcddd" fill-opacity="0.501961" points="101.359458,176.175507,92.041044,158.387648,86.327648,159.847698,96.012099,185.370574" />
<polygon fill="#436233" fill-opacity="0.501961" points="47.456752,48.251400,44.419081,-16.000000,78.416470,31.892958,45.432879,25.102480" />
<polygon fill="#d06d59" fill-opacity="0.501961" points="31.618337,166.716821,58.943007,156.714583,67.752318,115.161366,44.557388,169.091300" />
<polygon fill="#8b5d50" fill-opacity="0.501961" points="86.184155,163.856555,67.002188,180.776762,100.074020,188.125631,88.701005,192.170904" />
<polygon fill="#a0a5ae" fill-opacity="0.501961" points="141.423659,132.827309,158.318233,154.538166,168.901915,150.009820,143.793415,118.741932" />
<polygon fill="#789735" fill-opacity="0.501961" points="247.413375,75.590190,271.000000,58.104854,271.000000,67.823390,238.561907,59.742783" />
<g transform="translate(233.327105 103.830650) rotate(322.069280) scale(3.483539 22.142424)"><ellipse fill="#0c1907" fill-opacity="0.501961" cx="0" cy="0" rx="1" ry="1" /></g>
<polygon fill="#0f1012" fill-opacity="0.501961" points="99,69 67,39 80,103" />
<ellipse fill="#756b65" fill-opacity="0.501961" cx="62" cy="48" rx="7" ry="4" />
<g transform="translate(21.010098 117.436237) rotate(327.026007) scale(63.197412 3.314427)"><ellipse fill="#324a2d" fill-opacity="0.501961" cx="0" cy="0" rx="1" ry="1" /></g>
<g transform="translate(50 76) rotate(314) scale(7 20)"><rect fill="#917563" fill-opacity="0.501961" x="-0.5" y="-0.5" width="1" height="1" /></g>
<polygon fill="#728b5d" fill-opacity="0.501961" points="26.755674,9.709097,6.610416,34.181749,70.983673,-16.000000,-16.000000,-15.244899" />
<rect fill="#839bc6" fill-opacity="0.501961" x="123" y="70" width="3" height="7" />
<g transform="translate(154.155278 63.006117) rotate(157.479561) scale(3.226822 48.238067)"><ellipse fill="#c9c7cd" fill-opacity="0.501961" cx="0" cy="0" rx="1" ry="1" /></g>
<rect fill="#8c935a" fill-opacity="0.501961" x="227" y="116" width="4" height="9" />
<polygon fill="#968670" fill-opacity="0.501961" points="101.183926,110.876132,71.490661,112.815515,122.732417,123.516761,114.032474,105.621688" />
<polygon fill="#677f52" fill-opacity="0.501961" points="211.100006,64.380942,235.362566,35.789159,213.833253,50.050086,206.777546,54.593552" />
<polygon fill="#384226" fill-opacity="0.501961" points="23,14 6,22 20,0" />
<polygon fill="#968e93" fill-opacity="0.501961" points="202.091096,93.091402,215.155124,107.029208,199.036168,102.440996,197.213021,84.540743" />
<rect fill="#50130f" fill-opacity="0.501961" x="48" y="186" width="29" height="5" />
<ellipse fill="#030800" fill-opacity="0.501961" cx="113" cy="171" rx="5" ry="15" />
<polygon fill="#d6e7ff" fill-opacity="0.501961" points="97.656259,36.463561,83.601114,29.757822,89.829933,18.393970,103.482956,22.437185" />
<polygon fill="#645540" fill-opacity="0.501961" points="113.430979,101.351515,88.466429,95.572985,82.344482,114.201479,75.209470,109.309376" />
<polygon fill="#6f7f77" fill-opacity="0.501961" points="12,162 14,147 4,160" />
<polygon fill="#000100" fill-opacity="0.501961" points="175,78 196,85 180,89" />
<polygon fill="#877a70" fill-opacity="0.501961" points="178,53 177,36 157,16" />
<rect fill="#1f0000" fill-opacity="0.501961" x="47" y="143" width="4" height="7" />
<polygon fill="#4a4d13" fill-opacity="0.501961" points="120.847422,206.000000,120.078698,162.235756,131.440672,183.733080,84.730517,206.000000" />
<g transform="translate(0 88) rotate(27) scale(24 26)"><rect fill="#668c55" fill-opacity="0.501961" x="-0.5" y="-0.5" width="1" height="1" /></g>
<g transform="translate(192.142222 37.505651) rotate(246.077429) scale(26.297114 5.855717)"><ellipse fill="#e2e9f3" fill-opacity="0.501961" cx="0" cy="0" rx="1" ry="1" /></g>
<polygon fill="#73686b" fill-opacity="0.501961" points="105.200147,17.585189,101.973775,-16.000000,129.769792,6.392169,87.353861,4.797635" />
<g transform="translate(174 87) rotate(335) scale(5 25)"><rect fill="#524a46" fill-opacity="0.501961" x="-0.5" y="-0.5" width="1" height="1" /></g>
<g transform="translate(161.646261 115.248914) rotate(347.670644) scale(14.172140 1.943421)"><ellipse fill="#28261e" fill-opacity="0.501961" cx="0" cy="0" rx="1" ry="1" /></g>
<g transform="translate(27.943322 165.563099) rotate(16.996817) scale(2.409669 9.789099)"><ellipse fill="#bde2ff" fill-opacity="0.501961" cx="0" cy="0" rx="1" ry="1" /></g>
<rect fill="#ee7457" fill-opacity="0.501961" x="41" y="139" width="36" height="4" />
<polygon fill="#ac9f8b" fill-opacity="0.501961" points="115.906915,140.952359,103.666610,162.720770,106.741219,118.614173,146.209205,120.351204" />
<polygon fill="#577325" fill-opacity="0.501961" points="229,87 263,74 238,68" />
<polygon fill="#ac9e8d" fill-opacity="0.501961" points="64.363258,38.950239,35.724680,66.820987,54.112107,37.041374,49.505955,36.252847" />
<polygon fill="#2f552b" fill-opacity="0.501961" points="23,62 6,63 1,73" />
<g transform="translate(198.006953 130.051913) rotate(306.889647) scale(14.740404 6.904768)"><ellipse fill="#2b3b1e" fill-opacity="0.501961" cx="0" cy="0" rx="1" ry="1" /></g>
<polygon fill="#39501f" fill-opacity="0.501961" points="3,175 24,167 14,200" />
<polygon fill="#323532" fill-opacity="0.501961" points="132,-3 151,14 133,9" />
<polygon fill="#1b1b1c" fill-opacity="0.501961" points="20.751556,76.839683,28.211523,79.702826,21.759916,54.831182,43.026448,40.073902" />
<polygon fill="#9b786f" fill-opacity="0.501961" points="76.652512,127.489015,43.625935,128.839828,64.253798,137.411252,90.579839,140.914780" />
<ellipse fill="#2f2a27" fill-opacity="0.501961" cx="136" cy="63" rx="3" ry="12" />
<polygon fill="#6c5240" fill-opacity="0.501961" points="30.487338,58.997593,42.723098,43.091807,21.563958,81.018662,43.147531,67.856344" />
<polygon fill="#2d1817" fill-opacity="0.501961" points="55.110753,53.214609,75.575224,54.108074,78.604786,52.071880,36.791985,67.707861" />
<polygon fill="#3e480f" fill-opacity="0.501961" points="138,187 174,174 168,162" />
<polygon fill="#647e5b" fill-opacity="0.501961" points="195,16 213,23 207,28" />
<polygon fill="#2a2724" fill-opacity="0.501961" points="66.292560,52.835415,80.080236,56.312624,41.096031,79.607214,79.317062,73.537116" />
<g transform="translate(109 68) rotate(206) scale(13 24)"><rect fill="#8b7b6c" fill-opacity="0.501961" x="-0.5" y="-0.5" width="1" height="1" /></g>
<polygon fill="#97928b" fill-opacity="0.501961" points="167.991971,30.882355,196.974911,33.708600,157.309162,29.252389,132.849970,5.609990" />
<polygon fill="#678740" fill-opacity="0.501961" points="207.478428,-16.000000,212.951383,-16.000000,212.459803,8.791459,243.018457,18.559775" />
</g>
</svg>