<svg xmlns="http://www.w3.org/2000/svg" version="1.1" width="1024" height="680">
<rect x="0" y="0" width="1024" height="680" fill="#cdb1a3" />
<g transform="scale(4.000000) translate(0.5 0.5)">
<ellipse fill="#000000" fill-opacity="0.501961" cx="155" cy="57" rx="66" ry="29" />
<g transform="translate(150.789681 93.487043) rotate(238.857883) scale(40.390322 32.788037)"><ellipse fill="#251200" fill-opacity="0.501961" cx="0" cy="0" rx="1" ry="1" /></g>
<ellipse fill="#ffeae1" fill-opacity="0.501961" cx="42" cy="145" rx="66" ry="161" />
<ellipse fill="#fff1e7" fill-opacity="0.501961" cx="152" cy="12" rx="90" ry="23" />
<g transform="translate(216.553016 115.888586) rotate(379.751302) scale(35.388789 62.110104)"><ellipse fill="#ffe9dd" fill-opacity="0.501961" cx="0" cy="0" rx="1" ry="1" /></g>
<ellipse fill="#030000" fill-opacity="0.501961" cx="191" cy="53" rx="23" ry="23" />
<g transform="translate(117 54) rotate(298) scale(40 32)"><rect fill="#000000" fill-opacity="0.501961" x="-0.5" y="-0.5" width="1" height="1" /></g>
<polygon fill="#d8dbd2" fill-opacity="0.501961" points="133.614735,97.073490,161.053773,77.413823,139.764939,25.755658,157.098573,42.243216" />
<polygon fill="#6a5029" fill-opacity="0.501961" points="157,174 121,100 165,75" />
<rect fill="#fee2d7" fill-opacity="0.501961" x="51" y="71" width="65" height="98" />
<polygon fill="#fecabe" fill-opacity="0.501961" points="271.000000,69.770152,240.743961,185.000000,190.264239,74.543932,202.741822,68.129001" />
<g transform="translate(124.072514 84.779186) rotate(361.117132) scale(7.548340 27.606706)"><ellipse fill="#160400" fill-opacity="0.501961" cx="0" cy="0" rx="1" ry="1" /></g>
<ellipse fill="#000003" fill-opacity="0.501961" cx="152" cy="97" rx="12" ry="12" />
<polygon fill="#e7e4cc" fill-opacity="0.501961" points="71.567337,119.912878,127.471462,185.000000,130.634757,133.990032,166.024660,115.953325" />
<g transform="translate(229 22) rotate(-54) scale(48 110)"><rect fill="#ffcec3" fill-opacity="0.501961" x="-0.5" y="-0.5" width="1" height="1" /></g>
<polygon fill="#150b00" fill-opacity="0.501961" points="117,31 87,57 138,84" />
<polygon fill="#2a1400" fill-opacity="0.501961" points="210.559395,39.150097,181.621882,103.942312,171.452070,76.283269,191.495818,26.618186" />
<rect fill="#ffded3" fill-opacity="0.501961" x="125" y="2" width="57" height="33" />
<g transform="translate(89.747436 15.863848) rotate(221.192045) scale(27.820429 57.246961)"><ellipse fill="#fbd6ca" fill-opacity="0.501961" cx="0" cy="0" rx="1" ry="1" /></g>
<polygon fill="#000000" fill-opacity="0.501961" points="217,59 224,49 195,31" />
<g transform="translate(189.962746 149.915341) rotate(367.087802) scale(14.938193 80.435391)"><ellipse fill="#f3e1d3" fill-opacity="0.501961" cx="0" cy="0" rx="1" ry="1" /></g>
<polygon fill="#b59566" fill-opacity="0.501961" points="167,183 136,185 138,84" />
<g transform="translate(154.796221 82.841359) rotate(361.784304) scale(12.788444 8.516835)"><ellipse fill="#9e9f9a" fill-opacity="0.501961" cx="0" cy="0" rx="1" ry="1" /></g>
<polygon fill="#cd8236" fill-opacity="0.501961" points="181,93 158,146 167,80" />
<g transform="translate(175 114) rotate(294) scale(26 10)"><rect fill="#2d1a03" fill-opacity="0.501961" x="-0.5" y="-0.5" width="1" height="1" /></g>
<ellipse fill="#ebb8ae" fill-opacity="0.501961" cx="2" cy="7" rx="28" ry="160" />
<polygon fill="#f1d0c4" fill-opacity="0.501961" points="132.146579,-16.000000,185.206205,42.902463,151.326234,27.742233,247.260197,34.231513" />
<g transform="translate(233.189494 139.713682) rotate(63.131658) scale(76.835450 32.644422)"><ellipse fill="#f3cbbf" fill-opacity="0.501961" cx="0" cy="0" rx="1" ry="1" /></g>
<polygon fill="#a46d41" fill-opacity="0.501961" points="147,149 127,87 168,131" />
<polygon fill="#3f3b2f" fill-opacity="0.501961" points="159,97 153,52 186,31" />
<g transform="translate(102 57) rotate(241) scale(20 21)"><rect fill="#26211a" fill-opacity="0.501961" x="-0.5" y="-0.5" width="1" height="1" /></g>
<ellipse fill="#f6cfc4" fill-opacity="0.501961" cx="55" cy="115" rx="34" ry="165" />
<polygon fill="#fbf3dc" fill-opacity="0.501961" points="138,91 135,99 143,106" />
<rect fill="#feffff" fill-opacity="0.501961" x="149" y="38" width="4" height="20" />
<g transform="translate(145 82) rotate(234) scale(5 14)"><rect fill="#fffff6" fill-opacity="0.501961" x="-0.5" y="-0.5" width="1" height="1" /></g>
<rect fill="#ffe7dd" fill-opacity="0.501961" x="100" y="72" width="14" height="29" />
<polygon fill="#000000" fill-opacity="0.501961" points="138,116 117,86 120,105" />
<ellipse fill="#ecc3b5" fill-opacity="0.501961" cx="248" cy="69" rx="26" ry="169" />
<rect fill="#010301" fill-opacity="0.501961" x="169" y="70" width="15" height="17" />
<rect fill="#17150f" fill-opacity="0.501961" x="145" y="93" width="17" height="22" />
<g transform="translate(137.615096 40.483520) rotate(70.977485) scale(3.555782 13.444647)"><ellipse fill="#303933" fill-opacity="0.501961" cx="0" cy="0" rx="1" ry="1" /></g>
<ellipse fill="#d96f15" fill-opacity="0.501961" cx="131" cy="92" rx="6" ry="6" />
<polygon fill="#ff951b" fill-opacity="0.501961" points="169,50 163,51 169,56" />
<polygon fill="#f1d2c7" fill-opacity="0.501961" points="160.536870,25.318091,239.877603,37.252749,152.711713,-16.000000,126.116226,39.115984" />
<polygon fill="#2a2a27" fill-opacity="0.501961" points="114,56 150,59 141,82" />
<ellipse fill="#c19467" fill-opacity="0.501961" cx="162" cy="123" rx="9" ry="9" />
<polygon fill="#f7d8cc" fill-opacity="0.501961" points="174.232075,37.512525,162.919852,35.402394,130.258576,31.078937,201.538175,23.049965" />
<rect fill="#e98723" fill-opacity="0.501961" x="135" y="50" width="7" height="8" />
<g transform="translate(192.299292 45.660012) rotate(537.392050) scale(14.758555 15.174566)"><ellipse fill="#251204" fill-opacity="0.501961" cx="0" cy="0" rx="1" ry="1" /></g>
<polygon fill="#423d35" fill-opacity="0.501961" points="220,67 221,44 216,54" />
<ellipse fill="#3c1c00" fill-opacity="0.501961" cx="116" cy="38" rx="8" ry="8" />
<ellipse fill="#875a3a" fill-opacity="0.501961" cx="199" cy="59" rx="6" ry="6" />
<polygon fill="#eed5ca" fill-opacity="0.501961" points="95.987884,48.008303,118.665282,26.593609,63.496180,-12.151114,66.395670,69.378485" />
<g transform="translate(173 97) rotate(284) scale(21 12)"><rect fill="#cd7e38" fill-opacity="0.501961" x="-0.5" y="-0.5" width="1" height="1" /></g>
<g transform="translate(182.112510 152.201877) rotate(86.885580) scale(28.093621 11.313329)"><ellipse fill="#dce6cf" fill-opacity="0.501961" cx="0" cy="0" rx="1" ry="1" /></g>
<ellipse fill="#dde6d3" fill-opacity="0.501961" cx="110" cy="169" rx="21" ry="27" />
<polygon fill="#f1cfc5" fill-opacity="0.501961" points="183,100 215,60 251,122" />
<polygon fill="#36352e" fill-opacity="0.501961" points="141.712619,45.460271,171.402979,73.453279,159.078422,36.833599,146.597326,71.744425" />
<g transform="translate(202.464168 60.123849) rotate(190.119739) scale(11.344006 9.323419)"><ellipse fill="#432813" fill-opacity="0.501961" cx="0" cy="0" rx="1" ry="1" /></g>
<g transform="translate(95 63) rotate(229) scale(22 4)"><rect fill="#2a2720" fill-opacity="0.501961" x="-0.5" y="-0.5" width="1" height="1" /></g>
<polygon fill="#cbc8a9" fill-opacity="0.501961" points="111.556041,96.341229,151.937592,153.895475,112.749423,184.591424,128.427225,169.445338" />
<polygon fill="#baa87e" fill-opacity="0.501961" points="171.016235,124.305320,162.904039,183.558164,148.830502,145.356731,137.834026,174.763338" />
<polygon fill="#3a2916" fill-opacity="0.501961" points="104.768623,45.273192,143.165438,61.080228,109.292740,31.407251,98.472105,56.760317" />
<polygon fill="#161713" fill-opacity="0.501961" points="179,122 172,119 182,94" />
<ellipse fill="#f5d8cf" fill-opacity="0.501961" cx="97" cy="99" rx="18" ry="30" />
<rect fill="#685341" fill-opacity="0.501961" x="137" y="108" width="36" height="7" />
<polygon fill="#f2d0c5" fill-opacity="0.501961" points="191.858130,72.871153,191.320995,100.910140,231.258667,60.171261,204.179073,70.976468" />
<polygon fill="#231005" fill-opacity="0.501961" points="221.490695,65.845178,192.421749,38.360758,182.458652,82.585227,209.845166,37.825898" />
<polygon fill="#9c6b3f" fill-opacity="0.501961" points="133.711379,137.475762,141.455507,119.838948,144.389255,146.148913,174.327731,111.229010" />
<polygon fill="#2b1c0b" fill-opacity="0.501961" points="141.856039,114.722243,122.883239,115.618387,132.061732,63.759700,117.650946,95.424980" />
<polygon fill="#efccc0" fill-opacity="0.501961" points="229.219134,147.687931,219.623755,58.269500,222.608892,55.215910,233.126409,6.538633" />
<polygon fill="#d1c9b9" fill-opacity="0.501961" points="169.352461,86.272429,140.615515,79.116072,138.618849,95.627398,145.186139,75.726443" />
<polygon fill="#4c5654" fill-opacity="0.501961" points="148,46 118,57 144,37" />
<polygon fill="#080702" fill-opacity="0.501961" points="115,52 127,45 115,79" />
<polygon fill="#f2d5c9" fill-opacity="0.501961" points="171.825599,17.264196,138.774492,-11.065557,84.656481,28.850926,179.909496,36.114820" />
<rect fill="#474a46" fill-opacity="0.501961" x="94" y="48" width="8" height="12" />
<polygon fill="#3f3933" fill-opacity="0.501961" points="183.375897,73.540453,140.315365,93.041035,145.476701,85.573917,162.051998,83.184106" />
<polygon fill="#52504b" fill-opacity="0.501961" points="163.944465,66.752251,151.452895,54.442143,159.980261,77.831378,189.335503,64.861517" />
<rect fill="#000100" fill-opacity="0.501961" x="122" y="72" width="14" height="12" />
<polygon fill="#535141" fill-opacity="0.501961" points="150,164 154,165 153,155" />
<rect fill="#aeafab" fill-opacity="0.501961" x="151" y="49" width="3" height="35" />
<polygon fill="#2c180c" fill-opacity="0.501961" points="158,58 170,55 186,74" />
<g transform="translate(189 118) rotate(283) scale(26 17)"><rect fill="#ebd0c6" fill-opacity="0.501961" x="-0.5" y="-0.5" width="1" height="1" /></g>
<g transform="translate(168 43) rotate(264) scale(5 29)"><rect fill="#4d5c5a" fill-opacity="0.501961" x="-0.5" y="-0.5" width="1" height="1" /></g>
<g transform="translate(149 127) rotate(200) scale(8 14)"><rect fill="#885227" fill-opacity="0.501961" x="-0.5" y="-0.5" width="1" height="1" /></g>
<polygon fill="#f0d4c9" fill-opacity="0.501961" points="110.295595,32.934937,194.024549,5.279633,52.192955,35.885621,101.547871,44.032549" />
<rect fill="#090200" fill-opacity="0.501961" x="142" y="91" width="22" height="8" />
<ellipse fill="#fafffe" fill-opacity="0.501961" cx="150" cy="42" rx="4" ry="4" />
<polygon fill="#ddd6c3" fill-opacity="0.501961" points="95.384636,88.453873,135.793034,124.622455,109.298803,139.638721,140.134773,153.619827" />
<g transform="translate(108 60) rotate(103) scale(26 1)"><rect fill="#321709" fill-opacity="0.501961" x="-0.5" y="-0.5" width="1" height="1" /></g>
<polygon fill="#96511c" fill-opacity="0.501961" points="134,84 139,121 128,98" />
<rect fill="#d6741b" fill-opacity="0.501961" x="119" y="80" width="3" height="7" />
<polygon fill="#eccabe" fill-opacity="0.501961" points="234.020239,55.948021,174.939056,13.718534,224.983560,-16.000000,241.490239,36.908553" />
<g transform="translate(139.422363 21.083966) rotate(322.059000) scale(18.046916 13.009574)"><ellipse fill="#f1d5ca" fill-opacity="0.501961" cx="0" cy="0" rx="1" ry="1" /></g>
<polygon fill="#2a1101" fill-opacity="0.501961" points="178.555118,36.872778,205.592017,53.379986,219.729772,45.817890,186.957704,30.450176" />
<g transform="translate(200 61) rotate(242) scale(4 10)"><rect fill="#8b6549" fill-opacity="0.501961" x="-0.5" y="-0.5" width="1" height="1" /></g>
<polygon fill="#cbbfa7" fill-opacity="0.501961" points="142,111 140,91 135,100" />
<rect fill="#bde9fb" fill-opacity="0.501961" x="174" y="60" width="4" height="2" />
<g transform="translate(0.000000 111.629414) rotate(107.277678) scale(28.998858 11.174229)"><ellipse fill="#dbb3a8" fill-opacity="0.501961" cx="0" cy="0" rx="1" ry="1" /></g>
<rect fill="#1a1815" fill-opacity="0.501961" x="154" y="47" width="9" height="8" />
<ellipse fill="#de7d2a" fill-opacity="0.501961" cx="166" cy="53" rx="4" ry="4" />
<g transform="translate(183 93) rotate(294) scale(29 4)"><rect fill="#664220" fill-opacity="0.501961" x="-0.5" y="-0.5" width="1" height="1" /></g>
<g transform="translate(174.963994 118.874633) rotate(93.657483) scale(8.559017 4.145926)"><ellipse fill="#312618" fill-opacity="0.501961" cx="0" cy="0" rx="1" ry="1" /></g>
<g transform="translate(154 119) rotate(183) scale(12 3)"><rect fill="#e7cdb3" fill-opacity="0.501961" x="-0.5" y="-0.5" width="1" height="1" /></g>
<g transform="translate(141.416431 53.467831) rotate(131.630300) scale(3.090869 3.034526)"><ellipse fill="#cd8435" fill-opacity="0.501961" cx="0" cy="0" rx="1" ry="1" /></g>
<polygon fill="#b67135" fill-opacity="0.501961" points="178,101 169,86 168,117" />
<g transform="translate(132 97) rotate(68) scale(21 5)"><rect fill="#b47037" fill-opacity="0.501961" x="-0.5" y="-0.5" width="1" height="1" /></g>
<rect fill="#090805" fill-opacity="0.501961" x="144" y="47" width="2" height="18" />
<polygon fill="#51483e" fill-opacity="0.501961" points="148,72 148,63 123,65" />
<g transform="translate(250.255199 82.198811) rotate(83.065996) scale(107.713804 15.030637)"><ellipse fill="#eac0b2" fill-opacity="0.501961" cx="0" cy="0" rx="1" ry="1" /></g>
<rect fill="#a88f6f" fill-opacity="0.501961" x="164" y="82" width="5" height="27" />
<g transform="translate(133 60) rotate(23) scale(7 1)"><rect fill="#767b79" fill-opacity="0.501961" x="-0.5" y="-0.5" width="1" height="1" /></g>
<polygon fill="#27160b" fill-opacity="0.501961" points="139.731828,63.950987,119.258161,77.450132,137.245779,56.741498,146.755137,62.897080" />
<polygon fill="#130000" fill-opacity="0.501961" points="108,36 103,54 118,55" />
<polygon fill="#f0d3c7" fill-opacity="0.501961" points="47.931165,-15.448392,194.614478,-16.000000,178.433859,37.369435,72.350615,26.316916" />
<polygon fill="#2a2821" fill-opacity="0.501961" points="120.201813,30.825899,139.267198,45.201479,96.412227,69.228632,114.139993,66.715066" />
<polygon fill="#696a62" fill-opacity="0.501961" points="140,111 150,106 141,103" />
<polygon fill="#5a2c01" fill-opacity="0.501961" points="119,50 117,32 107,42" />
<polygon fill="#653504" fill-opacity="0.501961" points="197,36 190,36 188,51" />
<polygon fill="#30322b" fill-opacity="0.501961" points="124.343159,39.259222,159.741370,37.013095,144.270208,35.230977,118.839924,39.351906" />
<g transform="translate(178.472776 53.336454) rotate(208.257706) scale(7.148091 2.125671)"><ellipse fill="#454e4d" fill-opacity="0.501961" cx="0" cy="0" rx="1" ry="1" /></g>
<polygon fill="#efc9be" fill-opacity="0.501961" points="70,-16 17,164 19,4" />
<g transform="translate(219 64) rotate(305) scale(4 1)"><rect fill="#180800" fill-opacity="0.501961" x="-0.5" y="-0.5" width="1" height="1" /></g>
<g transform="translate(71.246846 83.225070) rotate(7.586217) scale(33.868044 24.354459)"><ellipse fill="#f1d4ca" fill-opacity="0.501961" cx="0" cy="0" rx="1" ry="1" /></g>
<g transform="translate(192 163) rotate(162) scale(12 29)"><rect fill="#ecefe1" fill-opacity="0.501961" x="-0.5" y="-0.5" width="1" height="1" /></g>
<rect fill="#eecec0" fill-opacity="0.501961" x="0" y="147" width="99" height="23" />
<polygon fill="#b59b78" fill-opacity="0.501961" points="152.999024,159.788559,134.919474,142.366868,158.543301,147.749496,172.800397,184.477242" />
<polygon fill="#1b1a16" fill-opacity="0.501961" points="196.073198,45.387562,185.045066,77.209708,208.673788,66.164453,172.133060,65.022307" />
<ellipse fill="#f2d7cb" fill-opacity="0.501961" cx="130" cy="7" rx="7" ry="30" />
<g transform="translate(198.450755 117.507091) rotate(240.104038) scale(25.399125 11.764451)"><ellipse fill="#f5d2c7" fill-opacity="0.501961" cx="0" cy="0" rx="1" ry="1" /></g>
<polygon fill="#f3d8ce" fill-opacity="0.501961" points="110.796230,123.475121,74.281478,81.426033,112.803728,71.936666,115.360869,82.279753" />
<rect fill="#5e605f" fill-opacity="0.501961" x="147" y="48" width="3" height="13" />
<polygon fill="#211c15" fill-opacity="0.501961" points="162.740745,96.753551,170.164420,72.476802,198.010422,69.169072,159.271368,88.558412" />
<polygon fill="#cfc3a0" fill-opacity="0.501961" points="169,137 175,158 156,154" />
<polygon fill="#1b150e" fill-opacity="0.501961" points="116.707209,65.225777,137.382167,34.489363,107.558654,68.232532,117.601025,76.557925" />
<polygon fill="#0f0700" fill-opacity="0.501961" points="130,109 117,101 126,93" />
<polygon fill="#472b15" fill-opacity="0.501961" points="163.890472,119.546630,161.967563,122.931199,173.679903,119.141507,180.466583,110.800252" />
<polygon fill="#84725f" fill-opacity="0.501961" points="174,87 158,84 151,69" />
<ellipse fill="#4c4f4a" fill-opacity="0.501961" cx="218" cy="48" rx="4" ry="4" />
<g transform="translate(159.972758 117.714445) rotate(75.653469) scale(1.914560 7.088997)"><ellipse fill="#c8b19b" fill-opacity="0.501961" cx="0" cy="0" rx="1" ry="1" /></g>
<ellipse fill="#bed9d2" fill-opacity="0.501961" cx="153" cy="38" rx="2" ry="2" />
<polygon fill="#3a3025" fill-opacity="0.501961" points="150.587765,115.112779,151.659758,116.644126,157.983640,114.197921,139.834462,93.784470" />
<g transform="translate(104 63) rotate(239) scale(8 16)"><rect fill="#34291f" fill-opacity="0.501961" x="-0.5" y="-0.5" width="1" height="1" /></g>
<polygon fill="#864e20" fill-opacity="0.501961" points="131.456803,83.710257,141.314842,82.726874,128.226611,95.357676,137.916698,117.703461" />
<polygon fill="#f3d5ca" fill-opacity="0.501961" points="184,17 177,37 114,4" />
<g transform="translate(159.329309 42.434036) rotate(240.698297) scale(3.511887 5.911402)"><ellipse fill="#63706d" fill-opacity="0.501961" cx="0" cy="0" rx="1" ry="1" /></g>
<rect fill="#4c2b0e" fill-opacity="0.501961" x="171" y="86" width="13" height="3" />
<polygon fill="#665d50" fill-opacity="0.501961" points="164.116274,100.179260,157.330385,110.063502,166.861972,115.732159,159.939815,61.834726" />
<g transform="translate(143 117) rotate(302) scale(2 11)"><rect fill="#d4ad8e" fill-opacity="0.501961" x="-0.5" y="-0.5" width="1" height="1" /></g>
<polygon fill="#333732" fill-opacity="0.501961" points="165,36 181,38 192,47" />
<polygon fill="#070401" fill-opacity="0.501961" points="214.767438,48.564113,212.460521,43.137875,203.546518,34.797183,191.350105,30.748147" />
<polygon fill="#565852" fill-opacity="0.501961" points="165.872727,75.047996,161.664287,83.116894,152.726604,70.560765,156.864245,62.691714" />
<polygon fill="#130f09" fill-opacity="0.501961" points="182,85 194,57 169,80" />
<polygon fill="#f1cdbf" fill-opacity="0.501961" points="271,175 207,184 190,130" />
<polygon fill="#2e231a" fill-opacity="0.501961" points="194.170994,41.153638,183.377534,84.700455,181.536783,111.018624,177.105897,106.211752" />
<g transform="translate(112 164) rotate(138) scale(5 34)"><rect fill="#f4f1e6" fill-opacity="0.501961" x="-0.5" y="-0.5" width="1" height="1" /></g>
<polygon fill="#1e0700" fill-opacity="0.501961" points="200,35 212,63 216,49" />
<g transform="translate(209.473428 91.103683) rotate(280.311702) scale(34.198030 1.305608)"><ellipse fill="#f2cdc0" fill-opacity="0.501961" cx="0" cy="0" rx="1" ry="1" /></g>
<polygon fill="#dfddd3" fill-opacity="0.501961" points="155,81 139,85 142,79" />
<path stroke="#443d37" stroke-opacity="0.501961" fill="none" d="M 191.169702 80.788986 Q 185.063729 98.346027, 171.150653 118.964659" stroke-width="0.500000" />
</g>
</svg>