<svg xmlns="http://www.w3.org/2000/svg" version="1.1" width="680" height="1024">
<rect x="0" y="0" width="680" height="1024" fill="#a68a7f" />
<g transform="scale(4.000000) translate(0.5 0.5)">
<g transform="translate(81.632314 140.131886) rotate(287.875655) scale(86.937983 54.334066)"><ellipse fill="#000000" fill-opacity="0.501961" cx="0" cy="0" rx="1" ry="1" /></g>
<g transform="translate(47.491506 18.497577) rotate(172.249607) scale(169.000000 50.357023)"><ellipse fill="#ffffff" fill-opacity="0.501961" cx="0" cy="0" rx="1" ry="1" /></g>
<g transform="translate(109.969995 172.459246) rotate(128.824866) scale(34.052882 47.366968)"><ellipse fill="#000000" fill-opacity="0.501961" cx="0" cy="0" rx="1" ry="1" /></g>
<ellipse fill="#fffffe" fill-opacity="0.501961" cx="161" cy="76" rx="26" ry="96" />
<g transform="translate(2.973010 123.982825) rotate(114.288815) scale(69.908673 27.923987)"><ellipse fill="#ffffff" fill-opacity="0.501961" cx="0" cy="0" rx="1" ry="1" /></g>
<ellipse fill="#ffebd9" fill-opacity="0.501961" cx="74" cy="232" rx="169" ry="19" />
<ellipse fill="#0e0600" fill-opacity="0.501961" cx="72" cy="163" rx="57" ry="57" />
<polygon fill="#fff7df" fill-opacity="0.501961" points="171,91 179,175 121,143" />
<g transform="translate(84.577785 79.094617) rotate(257.174068) scale(22.075751 46.638223)"><ellipse fill="#1f150e" fill-opacity="0.501961" cx="0" cy="0" rx="1" ry="1" /></g>
<polygon fill="#ffebd3" fill-opacity="0.501961" points="132,-10 -16,133 -16,-16" />
<g transform="translate(0.000000 193.457156) rotate(164.629053) scale(16.909876 45.854816)"><ellipse fill="#fff9e5" fill-opacity="0.501961" cx="0" cy="0" rx="1" ry="1" /></g>
<g transform="translate(144.752971 42.426561) rotate(141.482089) scale(30.144705 105.729817)"><ellipse fill="#ffe2cc" fill-opacity="0.501961" cx="0" cy="0" rx="1" ry="1" /></g>
<g transform="translate(21.253457 120.877878) rotate(135.640502) scale(27.513495 13.135129)"><ellipse fill="#fffae0" fill-opacity="0.501961" cx="0" cy="0" rx="1" ry="1" /></g>
<polygon fill="#ffdfce" fill-opacity="0.501961" points="-16.000000,226.625507,163.010372,239.762679,185.000000,191.406657,99.955834,223.863312" />
<g transform="translate(134.108968 183.610330) rotate(-78.216480) scale(28.789933 20.340480)"><ellipse fill="#0d0300" fill-opacity="0.501961" cx="0" cy="0" rx="1" ry="1" /></g>
<polygon fill="#241b15" fill-opacity="0.501961" points="143.314012,202.170923,108.263901,69.809548,12.488764,156.195580,15.752757,199.955097" />
<polygon fill="#f8bbad" fill-opacity="0.501961" points="-5.987777,185.432106,23.052787,199.103666,147.602611,255.121723,-16.000000,257.429145" />
<g transform="translate(105 205) rotate(310) scale(49 8)"><rect fill="#a2877c" fill-opacity="0.501961" x="-0.5" y="-0.5" width="1" height="1" /></g>
<g transform="translate(82 202) rotate(360) scale(29 41)"><rect fill="#130905" fill-opacity="0.501961" x="-0.5" y="-0.5" width="1" height="1" /></g>
<ellipse fill="#ffd7c8" fill-opacity="0.501961" cx="78" cy="26" rx="169" ry="30" />
<g transform="translate(169.000000 179.669631) rotate(296.509612) scale(4.672890 21.612834)"><ellipse fill="#060000" fill-opacity="0.501961" cx="0" cy="0" rx="1" ry="1" /></g>
<polygon fill="#170e08" fill-opacity="0.501961" points="128.427379,77.631609,104.264282,206.720641,78.906294,168.584588,144.946635,122.418564" />
<g transform="translate(3.106791 120.288804) rotate(144.103010) scale(41.042068 27.433694)"><ellipse fill="#ffe0ce" fill-opacity="0.501961" cx="0" cy="0" rx="1" ry="1" /></g>
<g transform="translate(143 140) rotate(162) scale(32 21)"><rect fill="#ffe7d6" fill-opacity="0.501961" x="-0.5" y="-0.5" width="1" height="1" /></g>
<g transform="translate(164.375403 230.832541) rotate(263.270107) scale(45.556473 20.916047)"><ellipse fill="#fbc0b1" fill-opacity="0.501961" cx="0" cy="0" rx="1" ry="1" /></g>
<g transform="translate(55.812042 104.211025) rotate(162.103853) scale(15.401786 31.477160)"><ellipse fill="#1f130e" fill-opacity="0.501961" cx="0" cy="0" rx="1" ry="1" /></g>
<polygon fill="#ffdbcb" fill-opacity="0.501961" points="128,41 152,167 185,45" />
<g transform="translate(83.321654 83.646031) rotate(167.678047) scale(18.702594 27.953912)"><ellipse fill="#463b35" fill-opacity="0.501961" cx="0" cy="0" rx="1" ry="1" /></g>
<ellipse fill="#ffe1cf" fill-opacity="0.501961" cx="0" cy="133" rx="14" ry="86" />
<polygon fill="#ffdecd" fill-opacity="0.501961" points="-16.000000,172.344418,49.426672,246.853963,63.627941,214.384272,41.627021,215.820628" />
<rect fill="#ffffff" fill-opacity="0.501961" x="96" y="208" width="12" height="7" />
<polygon fill="#ffdaca" fill-opacity="0.501961" points="43,109 -8,186 -16,-3" />
<ellipse fill="#3d2c21" fill-opacity="0.501961" cx="47" cy="200" rx="14" ry="14" />
<g transform="translate(48.164071 36.217892) rotate(150.689241) scale(50.591836 31.987937)"><ellipse fill="#ffd9ca" fill-opacity="0.501961" cx="0" cy="0" rx="1" ry="1" /></g>
<polygon fill="#20120b" fill-opacity="0.501961" points="133,72 114,68 139,118" />
<polygon fill="#ffd6c7" fill-opacity="0.501961" points="-16.000000,38.703963,117.376449,56.543770,168.361981,119.452909,174.678665,-16.000000" />
<polygon fill="#f0b6a4" fill-opacity="0.501961" points="48.073558,89.914296,34.159228,72.387587,22.286504,76.888384,56.231093,84.052213" />
<polygon fill="#0c0905" fill-opacity="0.501961" points="122.713623,138.330957,153.561421,175.978551,144.790846,197.983403,40.037075,120.316216" />
<ellipse fill="#ce988a" fill-opacity="0.501961" cx="96" cy="255" rx="169" ry="14" />
<polygon fill="#392a24" fill-opacity="0.501961" points="83.880069,141.210293,12.002700,164.052233,14.660651,198.439101,53.064578,205.071333" />
<polygon fill="#1b130e" fill-opacity="0.501961" points="63.137630,67.438848,88.470262,119.634119,51.210524,159.573559,52.576100,73.020248" />
<ellipse fill="#ffd8c8" fill-opacity="0.501961" cx="167" cy="116" rx="27" ry="56" />
<polygon fill="#997f70" fill-opacity="0.501961" points="115.463257,200.525282,103.440286,198.894408,91.597703,197.903516,120.619758,184.208814" />
<ellipse fill="#ffe3d4" fill-opacity="0.501961" cx="167" cy="213" rx="31" ry="12" />
<polygon fill="#f5d2c3" fill-opacity="0.501961" points="-16.000000,219.002149,62.001373,213.499152,84.866305,248.448275,4.849809,186.362266" />
<ellipse fill="#24170f" fill-opacity="0.501961" cx="122" cy="202" rx="32" ry="4" />
<ellipse fill="#3c322c" fill-opacity="0.501961" cx="104" cy="79" rx="26" ry="24" />
<polygon fill="#58504a" fill-opacity="0.501961" points="72.515693,95.121950,90.537101,108.207067,63.937816,64.276623,106.485652,56.429174" />
<polygon fill="#2c201a" fill-opacity="0.501961" points="82,171 83,224 98,220" />
<rect fill="#2c1d18" fill-opacity="0.501961" x="60" y="111" width="81" height="18" />
<g transform="translate(159.667613 144.325050) rotate(103.698974) scale(18.161154 31.414666)"><ellipse fill="#ffd9ca" fill-opacity="0.501961" cx="0" cy="0" rx="1" ry="1" /></g>
<rect fill="#605b58" fill-opacity="0.501961" x="35" y="122" width="5" height="35" />
<rect fill="#2c1f18" fill-opacity="0.501961" x="37" y="166" width="20" height="48" />
<rect fill="#ffd8c9" fill-opacity="0.501961" x="0" y="0" width="39" height="118" />
<rect fill="#46433e" fill-opacity="0.501961" x="49" y="156" width="29" height="16" />
<ellipse fill="#0e0905" fill-opacity="0.501961" cx="128" cy="183" rx="7" ry="31" />
<rect fill="#1d0c01" fill-opacity="0.501961" x="74" y="57" width="40" height="3" />
<rect fill="#634f43" fill-opacity="0.501961" x="40" y="197" width="22" height="9" />
<g transform="translate(169.000000 175.740774) rotate(279.053455) scale(2.228463 30.308474)"><ellipse fill="#110600" fill-opacity="0.501961" cx="0" cy="0" rx="1" ry="1" /></g>
<polygon fill="#060200" fill-opacity="0.501961" points="92.338339,77.052785,99.356845,66.113231,107.982866,77.481893,104.959484,86.765640" />
<g transform="translate(97 197) rotate(346) scale(17 23)"><rect fill="#2d1f19" fill-opacity="0.501961" x="-0.5" y="-0.5" width="1" height="1" /></g>
<polygon fill="#f5c5b7" fill-opacity="0.501961" points="149.028778,237.819628,69.586984,238.267210,98.150867,220.167667,101.608001,207.898399" />
<g transform="translate(118 90) rotate(314) scale(5 30)"><rect fill="#695d55" fill-opacity="0.501961" x="-0.5" y="-0.5" width="1" height="1" /></g>
<polygon fill="#8f796f" fill-opacity="0.501961" points="143.105212,227.695555,103.102044,193.327073,108.549518,207.528888,126.110783,213.161328" />
<g transform="translate(167 192) rotate(419) scale(27 9)"><rect fill="#ebc1ad" fill-opacity="0.501961" x="-0.5" y="-0.5" width="1" height="1" /></g>
<g transform="translate(145.510028 54.517369) rotate(113.449759) scale(17.027119 50.253917)"><ellipse fill="#ffd6c7" fill-opacity="0.501961" cx="0" cy="0" rx="1" ry="1" /></g>
<polygon fill="#ffe6d4" fill-opacity="0.501961" points="5,139 -11,184 15,189" />
<polygon fill="#f5d9ce" fill-opacity="0.501961" points="135,220 111,224 92,208" />
<polygon fill="#f9d2c1" fill-opacity="0.501961" points="28,238 -16,201 35,201" />
<polygon fill="#ac9081" fill-opacity="0.501961" points="119,176 118,193 107,199" />
<g transform="translate(21.177789 170.347244) rotate(272.482462) scale(28.303194 6.108453)"><ellipse fill="#41231b" fill-opacity="0.501961" cx="0" cy="0" rx="1" ry="1" /></g>
<polygon fill="#91837c" fill-opacity="0.501961" points="115.696161,68.503332,107.220579,70.935389,74.636912,46.328526,96.825041,62.449743" />
<polygon fill="#ffd9c8" fill-opacity="0.501961" points="170.290054,128.445110,185.000000,176.774506,154.828649,169.345221,124.424592,135.330224" />
<ellipse fill="#e5b6a7" fill-opacity="0.501961" cx="59" cy="239" rx="168" ry="7" />
<polygon fill="#2f241d" fill-opacity="0.501961" points="66,64 50,71 59,118" />
<polygon fill="#5e534d" fill-opacity="0.501961" points="84.281866,107.735238,105.745579,95.035851,113.151765,112.931316,139.908132,99.215525" />
<polygon fill="#ffd6c8" fill-opacity="0.501961" points="185.000000,151.900824,146.221789,124.473593,135.877242,100.700599,168.165736,-13.527515" />
<g transform="translate(119 210) rotate(171) scale(19 6)"><rect fill="#55463c" fill-opacity="0.501961" x="-0.5" y="-0.5" width="1" height="1" /></g>
<polygon fill="#271a12" fill-opacity="0.501961" points="113.954004,58.204937,123.016547,101.207194,136.846425,95.990426,130.470169,71.033950" />
<polygon fill="#1f140e" fill-opacity="0.501961" points="124.327922,147.101019,113.038186,180.407515,153.387484,185.247005,146.016618,157.174966" />
<rect fill="#231610" fill-opacity="0.501961" x="39" y="88" width="36" height="17" />
<polygon fill="#1a0e09" fill-opacity="0.501961" points="75,201 31,147 33,177" />
<polygon fill="#ffdaca" fill-opacity="0.501961" points="-14.237899,196.384630,12.726919,199.255972,5.438588,26.946633,43.038354,110.634163" />
<polygon fill="#ffdacb" fill-opacity="0.501961" points="69,-16 0,89 66,62" />
<polygon fill="#5f514b" fill-opacity="0.501961" points="91.310768,62.452549,73.855515,103.302384,95.024649,88.123590,70.020870,76.418733" />
<polygon fill="#271d17" fill-opacity="0.501961" points="63.446900,215.696293,108.226445,203.426972,144.285695,169.322285,118.979440,205.316009" />
<rect fill="#c3a497" fill-opacity="0.501961" x="94" y="195" width="5" height="3" />
<rect fill="#4c433d" fill-opacity="0.501961" x="92" y="118" width="18" height="9" />
<polygon fill="#ffdfce" fill-opacity="0.501961" points="156,116 126,138 131,149" />
<polygon fill="#18110d" fill-opacity="0.501961" points="91,174 62,161 68,220" />
<g transform="translate(108.286118 31.739236) rotate(46.496291) scale(16.089255 32.631204)"><ellipse fill="#ffd7c7" fill-opacity="0.501961" cx="0" cy="0" rx="1" ry="1" /></g>
<g transform="translate(131.007654 59.594938) rotate(340.174701) scale(5.540518 23.556581)"><ellipse fill="#ffd9ca" fill-opacity="0.501961" cx="0" cy="0" rx="1" ry="1" /></g>
<polygon fill="#100e0b" fill-opacity="0.501961" points="71.223034,152.007643,135.720915,157.895170,117.092281,130.734978,104.047199,199.134928" />
<g transform="translate(111.237601 120.285229) rotate(117.859557) scale(10.114883 24.525797)"><ellipse fill="#30211a" fill-opacity="0.501961" cx="0" cy="0" rx="1" ry="1" /></g>
<polygon fill="#4f3329" fill-opacity="0.501961" points="154.972092,181.605201,136.956460,208.971949,160.659293,197.710732,133.495316,202.135839" />
<polygon fill="#231913" fill-opacity="0.501961" points="89.304962,219.186046,62.070170,160.981807,82.140473,225.079789,47.860269,204.788157" />
<rect fill="#160c08" fill-opacity="0.501961" x="124" y="192" width="10" height="21" />
<g transform="translate(75 225) rotate(-1) scale(6 7)"><rect fill="#ffe1d2" fill-opacity="0.501961" x="-0.5" y="-0.5" width="1" height="1" /></g>
<polygon fill="#46403b" fill-opacity="0.501961" points="77.627601,141.915829,62.326909,167.640780,57.803595,181.028690,46.053315,164.863701" />
<ellipse fill="#2e1f19" fill-opacity="0.501961" cx="38" cy="192" rx="18" ry="11" />
<ellipse fill="#efeae6" fill-opacity="0.501961" cx="113" cy="207" rx="2" ry="2" />
<rect fill="#1f0b00" fill-opacity="0.501961" x="165" y="184" width="5" height="2" />
<polygon fill="#674030" fill-opacity="0.501961" points="61.791989,68.641967,58.757521,90.019660,56.519708,71.649557,54.983574,78.140809" />
<ellipse fill="#dc8f7b" fill-opacity="0.501961" cx="47" cy="84" rx="4" ry="4" />
<g transform="translate(59 228) rotate(305) scale(21 24)"><rect fill="#eecbbc" fill-opacity="0.501961" x="-0.5" y="-0.5" width="1" height="1" /></g>
<polygon fill="#f3ccbb" fill-opacity="0.501961" points="144.142584,221.784966,61.060111,224.910034,-2.735329,191.179394,13.781576,237.647293" />
<polygon fill="#221914" fill-opacity="0.501961" points="84.565658,83.883527,38.465217,77.348069,57.888116,69.759180,46.094930,108.321870" />
<polygon fill="#18130f" fill-opacity="0.501961" points="89,120 36,138 41,153" />
<polygon fill="#f6d3c4" fill-opacity="0.501961" points="118,220 154,201 185,217" />
<rect fill="#9e8273" fill-opacity="0.501961" x="107" y="191" width="4" height="17" />
<g transform="translate(46 78) rotate(-17) scale(14 1)"><rect fill="#180e07" fill-opacity="0.501961" x="-0.5" y="-0.5" width="1" height="1" /></g>
<ellipse fill="#221309" fill-opacity="0.501961" cx="104" cy="58" rx="4" ry="4" />
<polygon fill="#fdd5c4" fill-opacity="0.501961" points="133.239504,128.231433,155.523923,170.448981,124.848731,135.498063,185.000000,127.083487" />
<g transform="translate(109 96) rotate(311) scale(11 22)"><rect fill="#281e18" fill-opacity="0.501961" x="-0.5" y="-0.5" width="1" height="1" /></g>
<rect fill="#58504a" fill-opacity="0.501961" x="102" y="99" width="5" height="26" />
<polygon fill="#1e140d" fill-opacity="0.501961" points="155.842974,186.271919,158.908671,187.322617,127.175087,190.276195,109.207168,203.996179" />
<polygon fill="#180c08" fill-opacity="0.501961" points="47.860914,95.999088,104.378239,113.909458,65.828697,122.423909,57.926598,94.999032" />
<polygon fill="#ffdaca" fill-opacity="0.501961" points="-6.405721,234.184241,30.885693,97.419424,54.451799,52.013590,-16.000000,53.706303" />
<polygon fill="#ffdaca" fill-opacity="0.501961" points="135.667397,74.712804,185.000000,128.599091,168.629251,156.467756,134.724005,88.993984" />
<polygon fill="#565350" fill-opacity="0.501961" points="32,135 43,132 40,116" />
<polygon fill="#22130c" fill-opacity="0.501961" points="124.827361,104.521963,138.628685,107.593110,140.189681,115.926636,135.209272,122.378696" />
<polygon fill="#422b22" fill-opacity="0.501961" points="13.183919,164.773731,21.889669,143.057367,37.924958,119.618934,17.340955,197.378603" />
<polygon fill="#3c3a35" fill-opacity="0.501961" points="51,122 53,111 40,102" />
<polygon fill="#a96c59" fill-opacity="0.501961" points="58,80 62,74 58,75" />
<g transform="translate(67.619866 25.297009) rotate(256.028760) scale(33.311484 48.704166)"><ellipse fill="#ffd8ca" fill-opacity="0.501961" cx="0" cy="0" rx="1" ry="1" /></g>
<polygon fill="#463932" fill-opacity="0.501961" points="70.461380,139.334033,39.796171,74.452070,38.578990,100.695621,57.548776,104.252809" />
<polygon fill="#5b483e" fill-opacity="0.501961" points="82,198 95,194 89,190" />
<rect fill="#1d0e07" fill-opacity="0.501961" x="137" y="110" width="3" height="18" />
<polygon fill="#ffd5c7" fill-opacity="0.501961" points="4.179594,-16.000000,-16.000000,98.470441,72.509763,48.520755,37.723998,80.473988" />
<polygon fill="#27231e" fill-opacity="0.501961" points="112,178 75,171 115,168" />
<polygon fill="#5a4c43" fill-opacity="0.501961" points="112,84 133,97 128,105" />
<rect fill="#0f0702" fill-opacity="0.501961" x="101" y="194" width="5" height="13" />
<polygon fill="#1d1611" fill-opacity="0.501961" points="113,77 134,78 123,63" />
<g transform="translate(161 175) rotate(23) scale(43 3)"><rect fill="#1a0e06" fill-opacity="0.501961" x="-0.5" y="-0.5" width="1" height="1" /></g>
<polygon fill="#ce9a8c" fill-opacity="0.501961" points="148,198 159,198 157,177" />
<g transform="translate(33.030653 187.739684) rotate(234.693163) scale(32.898538 8.148991)"><ellipse fill="#3d2821" fill-opacity="0.501961" cx="0" cy="0" rx="1" ry="1" /></g>
<rect fill="#635e5a" fill-opacity="0.501961" x="37" y="155" width="17" height="3" />
<ellipse fill="#ffd5c7" fill-opacity="0.501961" cx="136" cy="25" rx="38" ry="38" />
<polygon fill="#f3cfc1" fill-opacity="0.501961" points="105.126575,237.628749,169.699956,212.126266,112.581803,214.322833,96.561096,208.658040" />
<polygon fill="#110e0a" fill-opacity="0.501961" points="136.797993,180.385512,124.198719,136.082249,100.691739,124.498649,111.584521,180.617617" />
<polygon fill="#42281e" fill-opacity="0.501961" points="126.855011,146.420105,136.855887,158.533194,143.776725,174.348428,139.325506,171.511199" />
<g transform="translate(51 203) rotate(1) scale(27 7)"><rect fill="#554438" fill-opacity="0.501961" x="-0.5" y="-0.5" width="1" height="1" /></g>
<polygon fill="#251912" fill-opacity="0.501961" points="104.324603,110.478289,113.405226,103.252832,115.138025,144.965493,118.654575,132.000499" />
<g transform="translate(55 227) rotate(307) scale(29 4)"><rect fill="#ebc7ba" fill-opacity="0.501961" x="-0.5" y="-0.5" width="1" height="1" /></g>
<g transform="translate(47 101) rotate(110) scale(14 10)"><rect fill="#21140d" fill-opacity="0.501961" x="-0.5" y="-0.5" width="1" height="1" /></g>
<polygon fill="#180f0a" fill-opacity="0.501961" points="136.284443,209.553908,147.861229,159.388856,149.594188,167.912552,115.114740,203.385542" />
<rect fill="#c18e81" fill-opacity="0.501961" x="0" y="254" width="170" height="2" />
<polygon fill="#feddcb" fill-opacity="0.501961" points="23.838872,139.759590,0.961681,165.050495,30.912076,86.900971,43.116047,110.065276" />
<polygon fill="#1b110c" fill-opacity="0.501961" points="63.567462,207.344272,91.912479,195.511203,89.049587,223.864546,65.341734,184.851894" />
<ellipse fill="#564f49" fill-opacity="0.501961" cx="96" cy="66" rx="26" ry="2" />
<polygon fill="#4e4640" fill-opacity="0.501961" points="85.786304,55.406331,78.203521,87.742596,62.511756,66.105343,80.381901,56.630975" />
<rect fill="#dcc9b3" fill-opacity="0.501961" x="154" y="177" width="5" height="4" />
<rect fill="#6e5751" fill-opacity="0.501961" x="82" y="86" width="18" height="4" />
<rect fill="#5f5652" fill-opacity="0.501961" x="55" y="158" width="5" height="15" />
<polygon fill="#5a524f" fill-opacity="0.501961" points="110.162545,100.206607,106.938546,105.102740,98.333238,94.694886,88.603484,104.566459" />
<rect fill="#201009" fill-opacity="0.501961" x="128" y="79" width="7" height="16" />
<rect fill="#a98e80" fill-opacity="0.501961" x="111" y="187" width="9" height="5" />
<polygon fill="#211712" fill-opacity="0.501961" points="97.563655,65.918993,100.122535,67.364209,103.878632,82.325961,80.342978,84.650587" />
<polygon fill="#f2cdbe" fill-opacity="0.501961" points="45,236 35,205 -16,182" />
<polygon fill="#0e0c08" fill-opacity="0.501961" points="91.973473,176.342870,77.302362,144.267304,131.026096,144.793238,114.989733,150.429406" />
<polygon fill="#534b47" fill-opacity="0.501961" points="38.862041,122.659435,32.523986,140.913978,36.317475,150.857797,37.372509,155.531142" />
<g transform="translate(138.439403 144.328258) rotate(58.414721) scale(7.399983 9.998779)"><ellipse fill="#fed8c8" fill-opacity="0.501961" cx="0" cy="0" rx="1" ry="1" /></g>
<polygon fill="#4c4643" fill-opacity="0.501961" points="89,137 92,135 91,142" />
<polygon fill="#2b1b15" fill-opacity="0.501961" points="19.492662,146.182519,36.402537,130.101455,28.625196,131.885632,44.131171,172.809128" />
<rect fill="#d3a194" fill-opacity="0.501961" x="0" y="248" width="167" height="5" />
<polygon fill="#564036" fill-opacity="0.501961" points="123,120 115,128 109,125" />
<ellipse fill="#4a3a2a" fill-opacity="0.501961" cx="161" cy="177" rx="4" ry="4" />
<ellipse fill="#1e130c" fill-opacity="0.501961" cx="62" cy="211" rx="25" ry="2" />
<polygon fill="#2e1b11" fill-opacity="0.501961" points="129.500320,70.162919,113.864836,56.972373,104.655818,62.857621,118.053657,64.441551" />
<polygon fill="#3b2c24" fill-opacity="0.501961" points="141.582029,161.354563,73.064290,220.874150,50.518890,190.908028,70.073412,224.267553" />
<rect fill="#55433b" fill-opacity="0.501961" x="79" y="217" width="8" height="7" />
<polygon fill="#5a524f" fill-opacity="0.501961" points="99,60 90,58 77,87" />
<polygon fill="#484844" fill-opacity="0.501961" points="63,144 76,153 76,147" />
<polygon fill="#fed9ca" fill-opacity="0.501961" points="140.316159,121.992044,185.000000,153.047481,138.925646,153.265949,159.072928,54.378178" />
<polygon fill="#40342c" fill-opacity="0.501961" points="64.614997,76.473213,74.503381,56.566890,54.712802,74.131154,117.149889,93.874679" />
<polygon fill="#1e140f" fill-opacity="0.501961" points="102.151399,151.089300,35.568344,136.019220,121.022007,142.268287,97.962670,117.796991" />
<ellipse fill="#706765" fill-opacity="0.501961" cx="118" cy="105" rx="4" ry="4" />
<ellipse fill="#efc0b1" fill-opacity="0.501961" cx="65" cy="233" rx="127" ry="5" />
<rect fill="#665c57" fill-opacity="0.501961" x="114" y="83" width="7" height="7" />
<polygon fill="#ffd6c7" fill-opacity="0.501961" points="185.000000,-16.000000,86.512333,17.105677,133.002206,74.143005,143.823897,119.974445" />
</g>
</svg>