<svg xmlns="http://www.w3.org/2000/svg" version="1.1" width="1024" height="680">
<rect x="0" y="0" width="1024" height="680" fill="#cdb1a3" />
<g transform="scale(4.000000) translate(0.5 0.5)">
<g transform="translate(157.245105 59.082881) rotate(87.402974) scale(28.101287 69.300632)"><ellipse fill="#000000" fill-opacity="0.501961" cx="0" cy="0" rx="1" ry="1" /></g>
<ellipse fill="#2e1a00" fill-opacity="0.501961" cx="151" cy="90" rx="36" ry="45" />
<g transform="translate(39.825359 96.908017) rotate(148.857045) scale(64.794345 233.912952)"><ellipse fill="#ffebe0" fill-opacity="0.501961" cx="0" cy="0" rx="1" ry="1" /></g>
<g transform="translate(151.766233 9.637617) rotate(178.530729) scale(97.134915 26.083921)"><ellipse fill="#ffede3" fill-opacity="0.501961" cx="0" cy="0" rx="1" ry="1" /></g>
<g transform="translate(234.606961 114.652267) rotate(300.805690) scale(81.470916 50.018753)"><ellipse fill="#ffe7db" fill-opacity="0.501961" cx="0" cy="0" rx="1" ry="1" /></g>
<g transform="translate(121.670581 59.207555) rotate(343.420471) scale(14.269310 29.889718)"><ellipse fill="#000000" fill-opacity="0.501961" cx="0" cy="0" rx="1" ry="1" /></g>
<polygon fill="#0b0000" fill-opacity="0.501961" points="192,26 138,114 224,49" />
<polygon fill="#aab2af" fill-opacity="0.501961" points="152,33 170,91 139,86" />
<rect fill="#fdded2" fill-opacity="0.501961" x="36" y="72" width="79" height="98" />
<g transform="translate(146.827033 148.084745) rotate(-4.783005) scale(16.117000 38.005591)"><ellipse fill="#a58751" fill-opacity="0.501961" cx="0" cy="0" rx="1" ry="1" /></g>
<polygon fill="#ffd9cd" fill-opacity="0.501961" points="196.695231,101.240928,189.092134,75.701206,245.753009,53.715363,182.618498,185.000000" />
<g transform="translate(115.342378 54.783024) rotate(248.597386) scale(17.531176 22.441017)"><ellipse fill="#1b1204" fill-opacity="0.501961" cx="0" cy="0" rx="1" ry="1" /></g>
<g transform="translate(123.171954 101.540662) rotate(67.858008) scale(16.853974 5.513729)"><ellipse fill="#040000" fill-opacity="0.501961" cx="0" cy="0" rx="1" ry="1" /></g>
<ellipse fill="#fdcdc0" fill-opacity="0.501961" cx="232" cy="19" rx="30" ry="30" />
<g transform="translate(153 97) rotate(84) scale(22 21)"><rect fill="#040601" fill-opacity="0.501961" x="-0.5" y="-0.5" width="1" height="1" /></g>
<ellipse fill="#130000" fill-opacity="0.501961" cx="191" cy="43" rx="14" ry="14" />
<polygon fill="#c7c9ad" fill-opacity="0.501961" points="136.160852,89.799991,150.318906,107.430729,104.692389,128.572567,140.035474,185.000000" />
<g transform="translate(79.468467 27.843361) rotate(320.596995) scale(47.986303 26.387703)"><ellipse fill="#fdd8cd" fill-opacity="0.501961" cx="0" cy="0" rx="1" ry="1" /></g>
<polygon fill="#f6d4c8" fill-opacity="0.501961" points="176.578834,35.921200,260.789099,4.016543,42.600980,23.439547,185.425236,38.195776" />
<polygon fill="#fffffa" fill-opacity="0.501961" points="144,74 137,91 156,76" />
<rect fill="#060100" fill-opacity="0.501961" x="172" y="107" width="8" height="20" />
<polygon fill="#d5863a" fill-opacity="0.501961" points="158,142 167,82 181,90" />
<polygon fill="#efd9cf" fill-opacity="0.501961" points="151.982599,72.305706,144.737066,10.134544,91.452231,7.437683,155.181676,40.108816" />
<ellipse fill="#382f23" fill-opacity="0.501961" cx="152" cy="61" rx="62" ry="13" />
<rect fill="#ffe6db" fill-opacity="0.501961" x="90" y="71" width="24" height="20" />
<polygon fill="#21160c" fill-opacity="0.501961" points="123.249341,31.466809,116.489670,30.487366,85.105373,57.340870,131.662215,79.661599" />
<g transform="translate(0.305303 77.391029) rotate(274.554524) scale(184.604686 25.888934)"><ellipse fill="#ebb8ae" fill-opacity="0.501961" cx="0" cy="0" rx="1" ry="1" /></g>
<ellipse fill="#f0c0b2" fill-opacity="0.501961" cx="249" cy="70" rx="28" ry="169" />
<g transform="translate(152 62) rotate(174) scale(3 57)"><rect fill="#c1c6c2" fill-opacity="0.501961" x="-0.5" y="-0.5" width="1" height="1" /></g>
<rect fill="#1a120a" fill-opacity="0.501961" x="143" y="91" width="19" height="24" />
<polygon fill="#a36f43" fill-opacity="0.501961" points="133,102 146,149 173,126" />
<polygon fill="#fad5cb" fill-opacity="0.501961" points="181,110 194,71 238,63" />
<ellipse fill="#231e12" fill-opacity="0.501961" cx="182" cy="63" rx="11" ry="30" />
<g transform="translate(139.023369 53.366931) rotate(145.857359) scale(4.268324 6.160939)"><ellipse fill="#ca8441" fill-opacity="0.501961" cx="0" cy="0" rx="1" ry="1" /></g>
<ellipse fill="#e7e8d6" fill-opacity="0.501961" cx="187" cy="151" rx="14" ry="38" />
<polygon fill="#d6ddc7" fill-opacity="0.501961" points="81,185 117,109 139,122" />
<g transform="translate(201.115027 46.693969) rotate(37.717041) scale(21.845332 11.228495)"><ellipse fill="#2e1300" fill-opacity="0.501961" cx="0" cy="0" rx="1" ry="1" /></g>
<polygon fill="#401d00" fill-opacity="0.501961" points="135.410604,122.218239,117.031130,98.730850,118.146069,75.606230,139.072263,111.976277" />
<polygon fill="#241a0e" fill-opacity="0.501961" points="181.688249,111.838398,177.532357,124.076304,172.068970,126.052155,183.800845,77.952412" />
<ellipse fill="#ffa233" fill-opacity="0.501961" cx="166" cy="53" rx="4" ry="4" />
<polygon fill="#f6d9cf" fill-opacity="0.501961" points="114,76 118,104 64,56" />
<rect fill="#f4d1c6" fill-opacity="0.501961" x="25" y="0" width="189" height="31" />
<g transform="translate(146 119) rotate(-3) scale(29 5)"><rect fill="#cdaf92" fill-opacity="0.501961" x="-0.5" y="-0.5" width="1" height="1" /></g>
<rect fill="#d16813" fill-opacity="0.501961" x="129" y="88" width="7" height="18" />
<polygon fill="#f4d8cc" fill-opacity="0.501961" points="108.366421,-16.000000,187.088332,16.836851,177.835101,38.953361,133.070111,26.046336" />
<ellipse fill="#f3cbc0" fill-opacity="0.501961" cx="43" cy="128" rx="25" ry="169" />
<polygon fill="#2b312f" fill-opacity="0.501961" points="125.829499,69.567869,144.243298,36.509954,118.607827,38.200172,122.914923,43.287375" />
<polygon fill="#52483e" fill-opacity="0.501961" points="175.097229,84.272799,223.726130,42.702703,218.414887,71.974160,214.431836,50.965037" />
<polygon fill="#14110b" fill-opacity="0.501961" points="120.666713,107.992748,116.730976,94.422045,125.224536,93.270554,137.625494,118.757682" />
<polygon fill="#f3cdc2" fill-opacity="0.501961" points="238.905575,-16.000000,220.123368,64.331832,183.529969,99.287723,226.471472,185.000000" />
<polygon fill="#5d584f" fill-opacity="0.501961" points="162,90 148,89 180,50" />
<polygon fill="#f2d6cd" fill-opacity="0.501961" points="43.002987,125.637119,83.733939,57.172793,122.959988,22.270694,62.771412,27.529780" />
<polygon fill="#977d5a" fill-opacity="0.501961" points="166.378880,79.165613,152.951087,175.893968,144.504885,136.993008,167.540641,136.886676" />
<g transform="translate(138 20) rotate(339) scale(28 26)"><rect fill="#f3d8cd" fill-opacity="0.501961" x="-0.5" y="-0.5" width="1" height="1" /></g>
<g transform="translate(150.086449 42.859680) rotate(247.733862) scale(4.246763 3.991938)"><ellipse fill="#e6f8f3" fill-opacity="0.501961" cx="0" cy="0" rx="1" ry="1" /></g>
<polygon fill="#d4c4ad" fill-opacity="0.501961" points="137.494794,82.733446,156.337751,84.602017,148.486573,66.530032,136.148620,104.163351" />
<rect fill="#231f19" fill-opacity="0.501961" x="95" y="56" width="24" height="14" />
<g transform="translate(144 37) rotate(355) scale(20 3)"><rect fill="#1f231b" fill-opacity="0.501961" x="-0.5" y="-0.5" width="1" height="1" /></g>
<g transform="translate(224.978372 20.790953) rotate(233.698656) scale(26.002750 24.450885)"><ellipse fill="#e9c8bb" fill-opacity="0.501961" cx="0" cy="0" rx="1" ry="1" /></g>
<g transform="translate(72.322762 88.050343) rotate(55.624210) scale(37.645707 30.698397)"><ellipse fill="#f2d4cb" fill-opacity="0.501961" cx="0" cy="0" rx="1" ry="1" /></g>
<polygon fill="#8d5f3c" fill-opacity="0.501961" points="207.585495,58.360483,196.755912,66.163235,194.612486,58.356005,210.223437,55.969589" />
<polygon fill="#30302d" fill-opacity="0.501961" points="136.101360,87.632318,137.025879,74.345058,147.045494,48.547482,147.344001,71.584499" />
<polygon fill="#1a1e1f" fill-opacity="0.501961" points="169,66 154,42 155,58" />
<g transform="translate(99 59) rotate(22) scale(24 8)"><rect fill="#413e37" fill-opacity="0.501961" x="-0.5" y="-0.5" width="1" height="1" /></g>
<polygon fill="#f0cec3" fill-opacity="0.501961" points="181.649764,104.367641,244.227660,121.625923,226.008462,63.422317,193.689366,76.169881" />
<g transform="translate(117 48) rotate(186) scale(18 29)"><rect fill="#2a1606" fill-opacity="0.501961" x="-0.5" y="-0.5" width="1" height="1" /></g>
<ellipse fill="#e1ebd7" fill-opacity="0.501961" cx="112" cy="158" rx="14" ry="16" />
<ellipse fill="#361702" fill-opacity="0.501961" cx="206" cy="56" rx="7" ry="13" />
<ellipse fill="#0e0701" fill-opacity="0.501961" cx="146" cy="96" rx="6" ry="6" />
<g transform="translate(159 113) rotate(257) scale(4 24)"><rect fill="#513a29" fill-opacity="0.501961" x="-0.5" y="-0.5" width="1" height="1" /></g>
<polygon fill="#010000" fill-opacity="0.501961" points="185,49 188,68 198,71" />
<polygon fill="#d2c9b0" fill-opacity="0.501961" points="112,97 128,171 136,128" />
<polygon fill="#f4cec1" fill-opacity="0.501961" points="236,125 191,156 215,57" />
<rect fill="#373430" fill-opacity="0.501961" x="170" y="38" width="13" height="33" />
<polygon fill="#d8d4b9" fill-opacity="0.501961" points="164.353522,181.058091,219.813402,185.000000,165.452497,153.687212,195.924069,79.661926" />
<g transform="translate(118 69) rotate(138) scale(10 40)"><rect fill="#150c03" fill-opacity="0.501961" x="-0.5" y="-0.5" width="1" height="1" /></g>
<polygon fill="#090000" fill-opacity="0.501961" points="209,38 220,63 193,31" />
<g transform="translate(166 133) rotate(93) scale(18 9)"><rect fill="#c8ad7c" fill-opacity="0.501961" x="-0.5" y="-0.5" width="1" height="1" /></g>
<rect fill="#eddcbe" fill-opacity="0.501961" x="138" y="86" width="3" height="17" />
<polygon fill="#be7534" fill-opacity="0.501961" points="181.165525,90.688896,163.818941,89.043906,170.108390,106.719436,176.453888,109.799766" />
<polygon fill="#b28660" fill-opacity="0.501961" points="134,134 144,104 146,126" />
<g transform="translate(250.304330 1.837209) rotate(167.091647) scale(20.735564 28.213700)"><ellipse fill="#dfb7a8" fill-opacity="0.501961" cx="0" cy="0" rx="1" ry="1" /></g>
<ellipse fill="#ffaf44" fill-opacity="0.501961" cx="139" cy="53" rx="3" ry="3" />
<ellipse fill="#efcfc2" fill-opacity="0.501961" cx="28" cy="158" rx="66" ry="13" />
<polygon fill="#956032" fill-opacity="0.501961" points="156,140 171,115 138,132" />
<polygon fill="#756c5e" fill-opacity="0.501961" points="147.177455,66.689791,170.302152,84.199543,166.488043,76.285173,166.506407,97.152037" />
<ellipse fill="#7d5539" fill-opacity="0.501961" cx="202" cy="60" rx="5" ry="5" />
<polygon fill="#f2d1c6" fill-opacity="0.501961" points="227.124965,50.038579,229.922160,23.679583,27.887372,35.639678,195.901185,28.013409" />
<ellipse fill="#814c1e" fill-opacity="0.501961" cx="119" cy="84" rx="3" ry="7" />
<ellipse fill="#c06519" fill-opacity="0.501961" cx="132" cy="90" rx="6" ry="6" />
<polygon fill="#673505" fill-opacity="0.501961" points="119,54 110,38 116,32" />
<polygon fill="#373028" fill-opacity="0.501961" points="119.513673,64.196945,95.748095,52.205457,105.693250,73.609028,117.539140,61.486421" />
<polygon fill="#b67031" fill-opacity="0.501961" points="166.899395,83.396461,186.888594,93.541055,187.316973,81.209184,167.645005,104.565614" />
<rect fill="#e9cdb1" fill-opacity="0.501961" x="144" y="118" width="18" height="2" />
<rect fill="#f7dbd0" fill-opacity="0.501961" x="126" y="28" width="49" height="7" />
<g transform="translate(209.591236 91.940030) rotate(316.699699) scale(11.490010 24.492709)"><ellipse fill="#f1cec3" fill-opacity="0.501961" cx="0" cy="0" rx="1" ry="1" /></g>
<ellipse fill="#dcb3a8" fill-opacity="0.501961" cx="0" cy="105" rx="14" ry="25" />
<polygon fill="#271803" fill-opacity="0.501961" points="168,115 177,115 173,127" />
<g transform="translate(131 52) rotate(247) scale(2 16)"><rect fill="#5b6161" fill-opacity="0.501961" x="-0.5" y="-0.5" width="1" height="1" /></g>
<ellipse fill="#ffffff" fill-opacity="0.501961" cx="131" cy="60" rx="1" ry="1" />
<polygon fill="#f2d9cf" fill-opacity="0.501961" points="112.686591,72.249513,116.462273,79.965609,102.768318,148.979849,74.522917,77.477729" />
<rect fill="#e8ffff" fill-opacity="0.501961" x="174" y="60" width="3" height="2" />
<polygon fill="#f1d4c8" fill-opacity="0.501961" points="222,-16 131,36 80,5" />
<polygon fill="#f1d5c9" fill-opacity="0.501961" points="51.745753,45.327898,125.657509,-5.913349,87.126102,57.011862,117.202862,104.535028" />
<polygon fill="#332418" fill-opacity="0.501961" points="181.691672,90.674576,169.440629,52.183339,186.189411,94.160717,177.256605,102.498597" />
<rect fill="#0d0803" fill-opacity="0.501961" x="172" y="75" width="12" height="12" />
<g transform="translate(152 110) rotate(79) scale(6 26)"><rect fill="#595245" fill-opacity="0.501961" x="-0.5" y="-0.5" width="1" height="1" /></g>
<ellipse fill="#dceae3" fill-opacity="0.501961" cx="152" cy="40" rx="4" ry="4" />
<g transform="translate(191.302685 41.600024) rotate(6.796898) scale(2.247889 8.267516)"><ellipse fill="#5f2e00" fill-opacity="0.501961" cx="0" cy="0" rx="1" ry="1" /></g>
<g transform="translate(162 117) rotate(76) scale(3 11)"><rect fill="#ddc8b4" fill-opacity="0.501961" x="-0.5" y="-0.5" width="1" height="1" /></g>
<polygon fill="#41443f" fill-opacity="0.501961" points="136.854904,51.943097,150.243383,45.219821,112.694088,42.600064,143.213973,34.871125" />
<polygon fill="#150e08" fill-opacity="0.501961" points="154,97 165,90 161,86" />
<polygon fill="#3e403c" fill-opacity="0.501961" points="211.992724,41.169057,218.853976,50.794708,219.741633,69.142631,216.078104,52.889988" />
<polygon fill="#bfaf86" fill-opacity="0.501961" points="172,154 163,171 151,150" />
<rect fill="#edbeb0" fill-opacity="0.501961" x="241" y="40" width="15" height="120" />
<ellipse fill="#4c4239" fill-opacity="0.501961" cx="154" cy="86" rx="11" ry="2" />
<polygon fill="#f4d1c6" fill-opacity="0.501961" points="198.423635,70.294337,219.467280,184.383582,204.300519,180.712078,182.105583,103.814239" />
<rect fill="#c6a074" fill-opacity="0.501961" x="165" y="85" width="4" height="20" />
<rect fill="#424335" fill-opacity="0.501961" x="151" y="157" width="3" height="8" />
<g transform="translate(141.855025 83.702683) rotate(121.150226) scale(3.910922 2.226996)"><ellipse fill="#ede8db" fill-opacity="0.501961" cx="0" cy="0" rx="1" ry="1" /></g>
<polygon fill="#3c3e39" fill-opacity="0.501961" points="155.294608,39.630822,169.359994,73.141156,158.294828,83.218980,156.496631,61.101375" />
<g transform="translate(192.872152 167.311667) rotate(349.138930) scale(7.400945 22.593030)"><ellipse fill="#e9eee0" fill-opacity="0.501961" cx="0" cy="0" rx="1" ry="1" /></g>
<polygon fill="#171311" fill-opacity="0.501961" points="128,62 145,56 151,63" />
<polygon fill="#0d0c0c" fill-opacity="0.501961" points="132.650362,43.497142,113.042113,67.696193,112.376280,46.708450,107.603493,54.350304" />
<g transform="translate(96 57) rotate(214) scale(11 13)"><rect fill="#3f413e" fill-opacity="0.501961" x="-0.5" y="-0.5" width="1" height="1" /></g>
<polygon fill="#9b5f2f" fill-opacity="0.501961" points="171,94 175,109 166,120" />
<polygon fill="#51453c" fill-opacity="0.501961" points="141,65 148,75 117,63" />
<rect fill="#a8aba8" fill-opacity="0.501961" x="149" y="67" width="4" height="17" />
<ellipse fill="#f4d0c3" fill-opacity="0.501961" cx="215" cy="67" rx="2" ry="9" />
<ellipse fill="#1f1b16" fill-opacity="0.501961" cx="180" cy="104" rx="3" ry="3" />
<polygon fill="#251c11" fill-opacity="0.501961" points="166,95 142,95 152,114" />
<g transform="translate(151.383510 50.659092) rotate(347.700939) scale(1.000000 4.497900)"><ellipse fill="#eaece7" fill-opacity="0.501961" cx="0" cy="0" rx="1" ry="1" /></g>
<polygon fill="#17130d" fill-opacity="0.501961" points="202,67 166,71 172,81" />
<polygon fill="#bcaf91" fill-opacity="0.501961" points="140.688299,172.619029,152.747575,158.211889,170.377487,149.408727,123.708244,149.034415" />
<polygon fill="#0b0703" fill-opacity="0.501961" points="130.631811,110.458904,119.135197,105.518518,117.212262,59.912467,117.526414,88.247756" />
<polygon fill="#130200" fill-opacity="0.501961" points="101,53 116,55 108,37" />
<polygon fill="#222924" fill-opacity="0.501961" points="191,51 184,42 157,46" />
<g transform="translate(206.908807 0.107045) rotate(16.049308) scale(24.732835 32.684108)"><ellipse fill="#efcbc0" fill-opacity="0.501961" cx="0" cy="0" rx="1" ry="1" /></g>
<polygon fill="#f0d3c7" fill-opacity="0.501961" points="104.002271,-16.000000,54.718297,-16.000000,60.652713,55.825044,104.576828,43.075425" />
<polygon fill="#ae8356" fill-opacity="0.501961" points="160.596635,120.571666,152.435127,156.842282,167.256340,132.506946,171.295195,121.052819" />
<polygon fill="#495653" fill-opacity="0.501961" points="164,48 152,35 185,40" />
<polygon fill="#100901" fill-opacity="0.501961" points="114.949066,62.821209,136.739281,76.558484,124.661115,74.725562,126.007719,92.164088" />
<polygon fill="#4f4738" fill-opacity="0.501961" points="132,111 145,119 125,114" />
<polygon fill="#31271d" fill-opacity="0.501961" points="121,52 95,66 106,70" />
<g transform="translate(167 59) rotate(143) scale(12 3)"><rect fill="#1e0900" fill-opacity="0.501961" x="-0.5" y="-0.5" width="1" height="1" /></g>
<g transform="translate(186 83) rotate(11) scale(1 11)"><rect fill="#b06322" fill-opacity="0.501961" x="-0.5" y="-0.5" width="1" height="1" /></g>
<polygon fill="#848c8a" fill-opacity="0.501961" points="149,91 151,87 157,89" />
<polygon fill="#937d65" fill-opacity="0.501961" points="168.597308,104.650042,162.349753,90.603073,170.764232,85.412168,160.998126,79.442854" />
<polygon fill="#654937" fill-opacity="0.501961" points="171,69 175,72 183,63" />
<ellipse fill="#f78f37" fill-opacity="0.501961" cx="166" cy="53" rx="3" ry="3" />
<rect fill="#eec8ba" fill-opacity="0.501961" x="220" y="58" width="24" height="112" />
<g transform="translate(179 63) rotate(162) scale(15 3)"><rect fill="#170d09" fill-opacity="0.501961" x="-0.5" y="-0.5" width="1" height="1" /></g>
<polygon fill="#efede1" fill-opacity="0.501961" points="114.208265,157.006350,126.346113,185.000000,98.371837,139.459986,101.045141,164.666497" />
<path stroke="#e7d4c8" stroke-opacity="0.501961" fill="none" d="M 185.794624 159.918375 Q 192.707566 89.113618, 192.700928 68.723306" stroke-width="0.500000" />
<polygon fill="#f2d0c5" fill-opacity="0.501961" points="198.491902,163.400351,182.307128,101.658599,199.699199,70.682575,230.945144,65.174205" />
<polygon fill="#9d5d2e" fill-opacity="0.501961" points="135,101 134,110 126,89" />
<polygon fill="#060000" fill-opacity="0.501961" points="202,33 180,36 188,31" />
<polygon fill="#c3966c" fill-opacity="0.501961" points="135,122 150,115 134,134" />
<rect fill="#783912" fill-opacity="0.501961" x="146" y="123" width="6" height="3" />
<g transform="translate(116.766525 157.775861) rotate(316.393687) scale(1.959943 17.809573)"><ellipse fill="#d0cdb4" fill-opacity="0.501961" cx="0" cy="0" rx="1" ry="1" /></g>
<polygon fill="#f1d0c6" fill-opacity="0.501961" points="103.470904,73.461801,7.918356,145.966421,51.672633,71.493286,105.169355,70.604715" />
<rect fill="#67726f" fill-opacity="0.501961" x="154" y="39" width="14" height="6" />
<rect fill="#f8dacc" fill-opacity="0.501961" x="168" y="27" width="11" height="9" />
<polygon fill="#311705" fill-opacity="0.501961" points="194.560105,29.834557,180.701613,33.790916,187.923683,34.456292,219.707243,61.544547" />
<ellipse fill="#170a00" fill-opacity="0.501961" cx="219" cy="64" rx="1" ry="1" />
<rect fill="#555651" fill-opacity="0.501961" x="154" y="57" width="6" height="17" />
<g transform="translate(164 107) rotate(347) scale(6 8)"><rect fill="#897962" fill-opacity="0.501961" x="-0.5" y="-0.5" width="1" height="1" /></g>
<ellipse fill="#575a5a" fill-opacity="0.501961" cx="148" cy="60" rx="2" ry="13" />
<polygon fill="#cabf9d" fill-opacity="0.501961" points="166.037957,169.438742,173.389084,126.130197,155.983485,158.842363,178.110855,155.904256" />
<polygon fill="#3a3229" fill-opacity="0.501961" points="184.880334,106.495421,174.539405,109.470308,186.689977,89.634362,174.882738,119.049828" />
<ellipse fill="#fdffff" fill-opacity="0.501961" cx="145" cy="82" rx="2" ry="2" />
<polygon fill="#19140d" fill-opacity="0.501961" points="105.939947,73.523810,100.320471,64.000722,120.119719,76.630050,121.727254,51.572506" />
<polygon fill="#40372e" fill-opacity="0.501961" points="163.251078,92.429467,166.498495,89.938300,150.900122,90.971440,147.044157,91.916817" />
<polygon fill="#040000" fill-opacity="0.501961" points="127,59 135,66 124,61" />
<g transform="translate(120 81) rotate(172) scale(1 9)"><rect fill="#be6d28" fill-opacity="0.501961" x="-0.5" y="-0.5" width="1" height="1" /></g>
<g transform="translate(44.689999 11.157599) rotate(391.300379) scale(21.013330 42.236373)"><ellipse fill="#edc9be" fill-opacity="0.501961" cx="0" cy="0" rx="1" ry="1" /></g>
<g transform="translate(138 101) rotate(58) scale(10 1)"><rect fill="#e4d1b3" fill-opacity="0.501961" x="-0.5" y="-0.5" width="1" height="1" /></g>
<polygon fill="#351f07" fill-opacity="0.501961" points="105,42 127,44 108,35" />
<g transform="translate(173 49) rotate(125) scale(1 23)"><rect fill="#5c605c" fill-opacity="0.501961" x="-0.5" y="-0.5" width="1" height="1" /></g>
<polygon fill="#e3b8aa" fill-opacity="0.501961" points="-15.920593,54.018660,28.215103,-16.000000,20.378189,-16.000000,-12.755177,-0.314613" />
</g>
</svg>