<svg xmlns="http://www.w3.org/2000/svg" version="1.1" width="1024" height="692">
<rect x="0" y="0" width="1024" height="692" fill="#6e7072" />
<g transform="scale(4.000000) translate(0.5 0.5)">
<g transform="translate(169.034709 88.431305) rotate(338.125368) scale(58.852645 33.618103)"><ellipse fill="#000000" fill-opacity="0.501961" cx="0" cy="0" rx="1" ry="1" /></g>
<g transform="translate(71 53) rotate(262) scale(113 90)"><rect fill="#b0b0b2" fill-opacity="0.501961" x="-0.5" y="-0.5" width="1" height="1" /></g>
<polygon fill="#191c1d" fill-opacity="0.501961" points="160,154 110,30 176,25" />
<g transform="translate(180 11) rotate(14) scale(210 39)"><rect fill="#a8a8aa" fill-opacity="0.501961" x="-0.5" y="-0.5" width="1" height="1" /></g>
<polygon fill="#444648" fill-opacity="0.501961" points="238,88 200,38 116,185" />
<polygon fill="#969799" fill-opacity="0.501961" points="147.369079,42.361211,139.175441,54.057036,160.444500,67.793940,158.142039,42.203901" />
<g transform="translate(28.306357 58.781844) rotate(225.865279) scale(107.955432 37.584750)"><ellipse fill="#89898b" fill-opacity="0.501961" cx="0" cy="0" rx="1" ry="1" /></g>
<ellipse fill="#232527" fill-opacity="0.501961" cx="130" cy="72" rx="10" ry="53" />
<polygon fill="#17191a" fill-opacity="0.501961" points="173,113 150,57 106,117" />
<polygon fill="#9ea0a1" fill-opacity="0.501961" points="140,-16 69,105 44,12" />
<g transform="translate(212.716419 122.193233) rotate(243.190603) scale(27.217750 33.801991)"><ellipse fill="#5f6163" fill-opacity="0.501961" cx="0" cy="0" rx="1" ry="1" /></g>
<polygon fill="#46474a" fill-opacity="0.501961" points="167.796949,19.792079,132.910448,20.008809,104.918682,35.451518,177.680549,51.584077" />
<g transform="translate(238.853094 29.821032) rotate(154.971997) scale(27.311385 64.063207)"><ellipse fill="#848587" fill-opacity="0.501961" cx="0" cy="0" rx="1" ry="1" /></g>
<polygon fill="#6b6c6e" fill-opacity="0.501961" points="158,126 116,157 117,114" />
<ellipse fill="#55585a" fill-opacity="0.501961" cx="197" cy="56" rx="25" ry="14" />
<g transform="translate(61.875322 125.272129) rotate(112.585541) scale(38.689493 52.569296)"><ellipse fill="#7c7c7e" fill-opacity="0.501961" cx="0" cy="0" rx="1" ry="1" /></g>
<polygon fill="#9fa1a2" fill-opacity="0.501961" points="125.088466,18.709501,82.247787,57.537426,105.591432,-16.000000,217.027217,22.044272" />
<polygon fill="#a4a6a7" fill-opacity="0.501961" points="70,79 116,46 124,62" />
<polygon fill="#3a3c3d" fill-opacity="0.501961" points="112,70 133,52 169,72" />
<polygon fill="#939496" fill-opacity="0.501961" points="133.574540,68.968088,149.164501,43.997297,157.892220,59.693449,151.692083,56.118378" />
<polygon fill="#3a3b3d" fill-opacity="0.501961" points="182,122 131,152 142,163" />
<rect fill="#a8a8aa" fill-opacity="0.501961" x="178" y="30" width="13" height="15" />
<g transform="translate(54 130) rotate(82) scale(10 22)"><rect fill="#4b4e50" fill-opacity="0.501961" x="-0.5" y="-0.5" width="1" height="1" /></g>
<g transform="translate(199.885460 87.823765) rotate(334.083870) scale(27.294335 10.025576)"><ellipse fill="#282b2c" fill-opacity="0.501961" cx="0" cy="0" rx="1" ry="1" /></g>
<polygon fill="#323435" fill-opacity="0.501961" points="109.462023,104.838288,143.659945,75.371038,114.702479,122.240922,106.925172,115.210417" />
<rect fill="#444647" fill-opacity="0.501961" x="110" y="28" width="33" height="15" />
<polygon fill="#181a1b" fill-opacity="0.501961" points="125.790263,48.051601,123.930441,93.725372,181.798276,56.058881,150.331153,102.933472" />
<g transform="translate(23 17) rotate(308) scale(51 29)"><rect fill="#858688" fill-opacity="0.501961" x="-0.5" y="-0.5" width="1" height="1" /></g>
<polygon fill="#8e8f92" fill-opacity="0.501961" points="95,97 -16,85 63,62" />
<polygon fill="#7b7c7e" fill-opacity="0.501961" points="39,139 92,188 220,188" />
<polygon fill="#a0a1a3" fill-opacity="0.501961" points="114.771273,1.297359,88.104721,54.005941,123.678043,46.988779,104.651471,77.829240" />
<rect fill="#7f8082" fill-opacity="0.501961" x="22" y="54" width="25" height="72" />
<g transform="translate(107 151) rotate(11) scale(59 5)"><rect fill="#555759" fill-opacity="0.501961" x="-0.5" y="-0.5" width="1" height="1" /></g>
<g transform="translate(21.118538 158.249463) rotate(110.622326) scale(6.179664 56.104595)"><ellipse fill="#5e5f61" fill-opacity="0.501961" cx="0" cy="0" rx="1" ry="1" /></g>
<rect fill="#767678" fill-opacity="0.501961" x="156" y="144" width="75" height="24" />
<polygon fill="#46484a" fill-opacity="0.501961" points="208.605262,91.183413,160.336455,147.022307,156.885776,163.180014,130.599796,152.283211" />
<polygon fill="#4a4c4e" fill-opacity="0.501961" points="156,54 157,17 173,24" />
<polygon fill="#999b9c" fill-opacity="0.501961" points="42.583166,109.914508,81.115382,88.889586,81.994650,110.217664,66.044923,107.745119" />
<g transform="translate(228.865171 99.083816) rotate(6.961696) scale(24.561316 7.388619)"><ellipse fill="#6d6e70" fill-opacity="0.501961" cx="0" cy="0" rx="1" ry="1" /></g>
<polygon fill="#5c5d60" fill-opacity="0.501961" points="146.956032,40.576521,145.229046,70.382534,135.180978,68.422691,141.348177,39.724553" />
<polygon fill="#a9abac" fill-opacity="0.501961" points="129.832643,16.016883,100.170373,19.851718,115.539063,50.493309,91.484795,44.877769" />
<g transform="translate(255.000000 11.340372) rotate(188.218077) scale(43.673813 4.480659)"><ellipse fill="#727375" fill-opacity="0.501961" cx="0" cy="0" rx="1" ry="1" /></g>
<polygon fill="#595b5d" fill-opacity="0.501961" points="49,93 29,103 57,99" />
<polygon fill="#5f6163" fill-opacity="0.501961" points="271.000000,132.695350,165.760116,145.705351,186.431044,110.858742,256.416547,123.226659" />
<polygon fill="#8d8e90" fill-opacity="0.501961" points="100,114 109,67 123,88" />
<polygon fill="#3c3e3f" fill-opacity="0.501961" points="130.372762,18.310181,131.877173,17.725309,114.558988,27.521277,171.809938,44.170393" />
<polygon fill="#686a6c" fill-opacity="0.501961" points="6.380762,37.066954,-16.000000,41.063810,24.865913,62.552912,1.680080,77.401885" />
<g transform="translate(250.108328 45.905663) rotate(209.930131) scale(12.948380 42.398071)"><ellipse fill="#7d7d7f" fill-opacity="0.501961" cx="0" cy="0" rx="1" ry="1" /></g>
<rect fill="#4a4c4e" fill-opacity="0.501961" x="173" y="47" width="42" height="28" />
<polygon fill="#b4b5b7" fill-opacity="0.501961" points="153,47 144,57 154,55" />
<polygon fill="#7f8082" fill-opacity="0.501961" points="8,127 73,151 -16,143" />
<rect fill="#191b1c" fill-opacity="0.501961" x="141" y="72" width="28" height="48" />
<rect fill="#626466" fill-opacity="0.501961" x="120" y="27" width="4" height="29" />
<polygon fill="#8e8e90" fill-opacity="0.501961" points="174.638714,-14.572834,220.394615,54.591436,254.360391,32.610755,192.804197,36.333027" />
<rect fill="#343637" fill-opacity="0.501961" x="122" y="75" width="7" height="41" />
<g transform="translate(72.211825 48.651142) rotate(101.654686) scale(10.373123 44.329580)"><ellipse fill="#909193" fill-opacity="0.501961" cx="0" cy="0" rx="1" ry="1" /></g>
<rect fill="#2a2c2d" fill-opacity="0.501961" x="159" y="44" width="12" height="13" />
<polygon fill="#838486" fill-opacity="0.501961" points="28.182761,65.248777,116.179408,19.378984,65.881302,38.784945,59.938365,56.516505" />
<rect fill="#313335" fill-opacity="0.501961" x="113" y="67" width="8" height="4" />
<polygon fill="#5e6062" fill-opacity="0.501961" points="151.756460,120.882854,124.854608,122.361303,161.748909,142.593876,151.510710,176.252849" />
<polygon fill="#27292a" fill-opacity="0.501961" points="199,99 197,58 184,105" />
<polygon fill="#8d8e90" fill-opacity="0.501961" points="69.684202,15.968204,91.532085,-2.060749,99.856223,7.725104,153.198195,14.583426" />
<polygon fill="#27292b" fill-opacity="0.501961" points="169.618363,37.821697,151.948208,31.730084,136.634488,32.316933,141.917001,38.194152" />
<polygon fill="#6f7172" fill-opacity="0.501961" points="173.371630,29.046989,170.220818,34.285948,146.570630,17.887734,130.345300,28.407758" />
<polygon fill="#6c6e70" fill-opacity="0.501961" points="112.957511,102.084659,75.121010,120.756324,92.315999,104.360336,121.841087,108.500431" />
<rect fill="#454749" fill-opacity="0.501961" x="172" y="85" width="11" height="44" />
<polygon fill="#57595b" fill-opacity="0.501961" points="217.095970,71.709583,200.367988,33.924332,213.603073,45.379828,228.944697,70.143995" />
<rect fill="#a3a4a6" fill-opacity="0.501961" x="47" y="74" width="65" height="4" />
<polygon fill="#1b1d1e" fill-opacity="0.501961" points="123.622514,47.422285,140.259556,114.702250,131.799968,53.446651,125.634341,31.413568" />
<g transform="translate(116 45) rotate(138) scale(1 15)"><rect fill="#303235" fill-opacity="0.501961" x="-0.5" y="-0.5" width="1" height="1" /></g>
<polygon fill="#939495" fill-opacity="0.501961" points="23.025695,69.700662,32.697091,93.767379,4.740809,76.566610,55.946834,86.216399" />
<polygon fill="#67686a" fill-opacity="0.501961" points="170,133 256,174 230,135" />
<polygon fill="#707072" fill-opacity="0.501961" points="143.047685,144.595528,127.977680,154.390816,119.737654,116.400248,139.006211,125.008831" />
<rect fill="#2c2e30" fill-opacity="0.501961" x="147" y="58" width="9" height="9" />
<polygon fill="#a0a1a3" fill-opacity="0.501961" points="21.689811,47.446605,58.278661,42.572905,61.875092,49.826865,51.539526,52.745469" />
<g transform="translate(16 90) rotate(70) scale(3 14)"><rect fill="#5c5e5f" fill-opacity="0.501961" x="-0.5" y="-0.5" width="1" height="1" /></g>
<polygon fill="#7f8183" fill-opacity="0.501961" points="186,144 215,169 231,162" />
<polygon fill="#626365" fill-opacity="0.501961" points="188.089831,42.645489,171.012864,54.786908,199.110857,52.522066,221.586431,37.292761" />
<polygon fill="#4d4e50" fill-opacity="0.501961" points="206.091371,92.467151,230.927476,49.930554,236.482255,53.471983,211.952719,62.966041" />
<polygon fill="#6c6d6f" fill-opacity="0.501961" points="3.723599,188.000000,30.177095,132.639613,77.290198,107.184832,46.719282,129.708953" />
<polygon fill="#818284" fill-opacity="0.501961" points="64,73 90,64 44,64" />
<g transform="translate(82 126) rotate(159) scale(12 8)"><rect fill="#5e6062" fill-opacity="0.501961" x="-0.5" y="-0.5" width="1" height="1" /></g>
<ellipse fill="#8e8f91" fill-opacity="0.501961" cx="182" cy="43" rx="9" ry="3" />
<polygon fill="#9a9b9d" fill-opacity="0.501961" points="212,11 226,40 193,11" />
<polygon fill="#5a5b5d" fill-opacity="0.501961" points="90.783065,163.559659,139.457146,150.450282,112.055004,149.985021,91.463618,176.119988" />
<polygon fill="#1d2021" fill-opacity="0.501961" points="115.723134,111.761777,120.122288,94.693757,144.685425,122.627154,178.439086,73.422018" />
<polygon fill="#959698" fill-opacity="0.501961" points="54.837453,115.667189,50.427543,97.813335,40.666602,105.805155,44.412497,112.879813" />
<g transform="translate(42.342714 158.696621) rotate(52.118579) scale(5.219203 6.812437)"><ellipse fill="#5a5c5e" fill-opacity="0.501961" cx="0" cy="0" rx="1" ry="1" /></g>
<polygon fill="#aaacad" fill-opacity="0.501961" points="71.643901,29.232825,65.124979,24.193670,86.339742,17.133908,39.056856,25.811741" />
<polygon fill="#898a8c" fill-opacity="0.501961" points="153.282879,48.960008,146.452127,52.869515,161.605076,62.754127,158.191697,53.741105" />
<polygon fill="#969699" fill-opacity="0.501961" points="216.419720,-14.186933,190.856585,9.649883,141.989573,23.574217,111.503159,-16.000000" />
<g transform="translate(227 105) rotate(120) scale(23 8)"><rect fill="#7a7a7c" fill-opacity="0.501961" x="-0.5" y="-0.5" width="1" height="1" /></g>
<polygon fill="#838486" fill-opacity="0.501961" points="62.280415,159.810762,84.463834,145.747605,83.148252,163.552557,111.650722,182.373481" />
<polygon fill="#3d3f41" fill-opacity="0.501961" points="105.506457,114.014204,184.398860,132.491371,133.906326,115.553179,115.529334,101.213793" />
<polygon fill="#606163" fill-opacity="0.501961" points="201,188 183,161 256,180" />
<rect fill="#8e9092" fill-opacity="0.501961" x="94" y="120" width="7" height="20" />
<g transform="translate(118 84) rotate(11) scale(1 49)"><rect fill="#808184" fill-opacity="0.501961" x="-0.5" y="-0.5" width="1" height="1" /></g>
<polygon fill="#79797c" fill-opacity="0.501961" points="271.000000,120.675738,244.275927,138.760155,265.144276,153.290345,215.424962,168.232906" />
<polygon fill="#68696b" fill-opacity="0.501961" points="163,188 109,188 124,148" />
<rect fill="#7e7f80" fill-opacity="0.501961" x="65" y="89" width="55" height="3" />
<polygon fill="#838486" fill-opacity="0.501961" points="71,9 -9,-15 28,12" />
<polygon fill="#7f8082" fill-opacity="0.501961" points="41.642495,137.150213,106.409859,135.254322,31.362973,150.499766,-12.937464,186.675956" />
<rect fill="#717274" fill-opacity="0.501961" x="147" y="4" width="13" height="3" />
<polygon fill="#767779" fill-opacity="0.501961" points="165,142 137,186 209,188" />
<polygon fill="#8d8e90" fill-opacity="0.501961" points="13,12 14,52 27,8" />
<g transform="translate(217 83) rotate(39) scale(3 19)"><rect fill="#181a1a" fill-opacity="0.501961" x="-0.5" y="-0.5" width="1" height="1" /></g>
<rect fill="#434547" fill-opacity="0.501961" x="127" y="19" width="11" height="26" />
<rect fill="#333536" fill-opacity="0.501961" x="149" y="35" width="28" height="5" />
<polygon fill="#595b5d" fill-opacity="0.501961" points="5.734573,145.388480,-6.079102,157.807530,25.727088,152.308710,-1.501925,140.652330" />
<polygon fill="#828284" fill-opacity="0.501961" points="234.008786,86.545157,221.828894,55.323053,271.000000,60.386013,254.053845,35.025283" />
<g transform="translate(161 33) rotate(257) scale(24 6)"><rect fill="#505254" fill-opacity="0.501961" x="-0.5" y="-0.5" width="1" height="1" /></g>
<g transform="translate(148 140) rotate(305) scale(27 2)"><rect fill="#383a3c" fill-opacity="0.501961" x="-0.5" y="-0.5" width="1" height="1" /></g>
<polygon fill="#67686a" fill-opacity="0.501961" points="64,144 51,119 68,120" />
<rect fill="#696a6b" fill-opacity="0.501961" x="40" y="55" width="8" height="6" />
<rect fill="#56585a" fill-opacity="0.501961" x="243" y="165" width="13" height="7" />
<polygon fill="#6a6b6d" fill-opacity="0.501961" points="252.247753,80.121993,204.836454,101.516051,261.265543,115.651373,254.560957,55.831851" />
<polygon fill="#595b5d" fill-opacity="0.501961" points="270.530142,122.604979,201.589116,111.819907,226.482085,135.747074,242.268136,117.719678" />
<polygon fill="#6d6e70" fill-opacity="0.501961" points="213,121 178,144 196,114" />
<rect fill="#b1b4b4" fill-opacity="0.501961" x="88" y="62" width="7" height="11" />
<g transform="translate(110 135) rotate(2) scale(13 31)"><rect fill="#737476" fill-opacity="0.501961" x="-0.5" y="-0.5" width="1" height="1" /></g>
<polygon fill="#78797c" fill-opacity="0.501961" points="138.453913,31.002761,86.182489,29.319671,81.293682,21.008168,98.038544,29.156187" />
<g transform="translate(24 95) rotate(129) scale(47 7)"><rect fill="#848587" fill-opacity="0.501961" x="-0.5" y="-0.5" width="1" height="1" /></g>
<ellipse fill="#a3a4a6" fill-opacity="0.501961" cx="95" cy="17" rx="67" ry="2" />
<polygon fill="#9ea0a1" fill-opacity="0.501961" points="90.790615,92.894374,106.620757,102.066458,118.547920,95.652634,100.325167,91.572725" />
<polygon fill="#989a9c" fill-opacity="0.501961" points="183,36 191,30 165,17" />
<polygon fill="#3f4043" fill-opacity="0.501961" points="109,32 117,33 116,45" />
<g transform="translate(116 7) rotate(15) scale(8 8)"><rect fill="#b7b9ba" fill-opacity="0.501961" x="-0.5" y="-0.5" width="1" height="1" /></g>
<polygon fill="#9a9b9d" fill-opacity="0.501961" points="59.939692,93.279702,48.867960,88.105887,81.859018,64.152094,43.348398,113.490661" />
<polygon fill="#626466" fill-opacity="0.501961" points="11.479412,64.509833,13.044149,62.498200,21.735493,67.021294,-16.000000,77.670252" />
<ellipse fill="#363839" fill-opacity="0.501961" cx="123" cy="70" rx="2" ry="23" />
<g transform="translate(239 50) rotate(208) scale(11 17)"><rect fill="#717274" fill-opacity="0.501961" x="-0.5" y="-0.5" width="1" height="1" /></g>
<polygon fill="#3d3f40" fill-opacity="0.501961" points="183.677769,58.750223,195.185029,50.646433,204.707984,103.584932,212.205048,77.710246" />
<g transform="translate(190 40) rotate(390) scale(14 7)"><rect fill="#79797b" fill-opacity="0.501961" x="-0.5" y="-0.5" width="1" height="1" /></g>
<polygon fill="#5d5e60" fill-opacity="0.501961" points="-1,125 4,129 18,115" />
<rect fill="#abadaf" fill-opacity="0.501961" x="116" y="87" width="4" height="5" />
<ellipse fill="#6f7172" fill-opacity="0.501961" cx="118" cy="83" rx="4" ry="4" />
<rect fill="#838486" fill-opacity="0.501961" x="0" y="28" width="61" height="5" />
<polygon fill="#909192" fill-opacity="0.501961" points="118,49 75,53 122,63" />
<g transform="translate(90 147) rotate(187) scale(20 9)"><rect fill="#5f6163" fill-opacity="0.501961" x="-0.5" y="-0.5" width="1" height="1" /></g>
<ellipse fill="#737476" fill-opacity="0.501961" cx="39" cy="88" rx="6" ry="6" />
<polygon fill="#868789" fill-opacity="0.501961" points="103,13 126,8 141,15" />
<polygon fill="#8e8f91" fill-opacity="0.501961" points="13.774061,80.298686,45.844524,97.578645,20.854072,94.639852,40.388630,69.036149" />
<rect fill="#5d5f61" fill-opacity="0.501961" x="131" y="41" width="31" height="2" />
<polygon fill="#858687" fill-opacity="0.501961" points="23.717032,95.051038,45.058098,47.214068,4.678371,63.172746,35.374789,61.343527" />
<g transform="translate(165.224706 51.585881) rotate(215.744305) scale(10.254846 6.068129)"><ellipse fill="#37383a" fill-opacity="0.501961" cx="0" cy="0" rx="1" ry="1" /></g>
<polygon fill="#494b4d" fill-opacity="0.501961" points="173.599066,65.772423,193.196117,59.658453,193.019375,85.526853,179.808528,48.422862" />
<polygon fill="#a3a5a6" fill-opacity="0.501961" points="98,6 94,52 113,47" />
<polygon fill="#9c9d9f" fill-opacity="0.501961" points="26.324143,81.440167,58.807692,79.875578,113.290038,67.537041,82.980306,69.436099" />
<g transform="translate(151.436205 55.192159) rotate(267.037008) scale(2.165758 3.751922)"><ellipse fill="#b3b5b6" fill-opacity="0.501961" cx="0" cy="0" rx="1" ry="1" /></g>
<polygon fill="#6c6e70" fill-opacity="0.501961" points="125.002259,31.793384,130.926235,14.304455,136.173998,9.974088,120.256692,33.739413" />
<polygon fill="#57595b" fill-opacity="0.501961" points="145,62 137,70 138,36" />
<polygon fill="#88898b" fill-opacity="0.501961" points="36.794824,25.814899,28.751703,28.949855,19.000890,-3.398289,58.950795,21.384270" />
<rect fill="#8f8f91" fill-opacity="0.501961" x="98" y="167" width="14" height="4" />
<rect fill="#696a6c" fill-opacity="0.501961" x="220" y="7" width="17" height="4" />
<polygon fill="#2f3132" fill-opacity="0.501961" points="143,157 150,147 148,161" />
<g transform="translate(170.263419 29.520814) rotate(250.824265) scale(6.988371 3.981045)"><ellipse fill="#57595b" fill-opacity="0.501961" cx="0" cy="0" rx="1" ry="1" /></g>
<g transform="translate(128 28) rotate(33) scale(1 12)"><rect fill="#1c1e1e" fill-opacity="0.501961" x="-0.5" y="-0.5" width="1" height="1" /></g>
<polygon fill="#8a8b8e" fill-opacity="0.501961" points="70.925007,73.446276,81.109972,126.194080,110.717220,103.146080,83.401818,120.427012" />
<ellipse fill="#a8aaab" fill-opacity="0.501961" cx="190" cy="31" rx="4" ry="4" />
<polygon fill="#626365" fill-opacity="0.501961" points="109.491163,127.497482,146.225709,183.254784,121.316575,153.833643,104.950483,126.794717" />
<g transform="translate(157 67) rotate(196) scale(7 4)"><rect fill="#5a5c5e" fill-opacity="0.501961" x="-0.5" y="-0.5" width="1" height="1" /></g>
<polygon fill="#808183" fill-opacity="0.501961" points="198,159 169,165 201,148" />
<polygon fill="#78797b" fill-opacity="0.501961" points="80.158737,105.339528,123.108498,137.102045,139.780249,137.771694,106.596720,116.085371" />
<polygon fill="#717274" fill-opacity="0.501961" points="42.437525,174.199535,35.320622,174.619451,62.364131,146.743550,66.612354,156.266001" />
<polygon fill="#303233" fill-opacity="0.501961" points="173.116983,111.351017,176.177027,105.586724,160.213658,137.148716,167.404550,79.858876" />
<polygon fill="#727375" fill-opacity="0.501961" points="234.841997,108.705290,248.195386,135.479355,233.621448,125.528436,264.981935,117.750458" />
<polygon fill="#757678" fill-opacity="0.501961" points="230.848348,153.434942,216.691970,130.969050,229.855706,138.696091,231.854682,141.744628" />
<polygon fill="#191b1c" fill-opacity="0.501961" points="147.353647,121.495713,124.431186,70.665522,172.877591,83.806724,126.126334,95.002686" />
<ellipse fill="#727476" fill-opacity="0.501961" cx="29" cy="99" rx="42" ry="3" />
<polygon fill="#6b6d6f" fill-opacity="0.501961" points="128,188 161,163 143,160" />
<g transform="translate(159.351972 136.844470) rotate(226.780238) scale(2.891766 7.769011)"><ellipse fill="#545658" fill-opacity="0.501961" cx="0" cy="0" rx="1" ry="1" /></g>
<rect fill="#77787a" fill-opacity="0.501961" x="0" y="4" width="31" height="8" />
<polygon fill="#a3a4a6" fill-opacity="0.501961" points="40,-16 71,6 124,-6" />
<polygon fill="#6d6f71" fill-opacity="0.501961" points="229.508934,69.306301,260.893616,61.411009,254.774519,66.841044,224.186479,78.323771" />
<polygon fill="#585a5c" fill-opacity="0.501961" points="195.206785,116.738336,224.696683,87.711070,245.351673,99.867324,233.575170,81.357139" />
<rect fill="#6e6f70" fill-opacity="0.501961" x="27" y="65" width="6" height="8" />
<g transform="translate(255 52) rotate(272) scale(17 15)"><rect fill="#8b8c8e" fill-opacity="0.501961" x="-0.5" y="-0.5" width="1" height="1" /></g>
<polygon fill="#27292a" fill-opacity="0.501961" points="139.090908,35.800524,136.504567,33.486827,145.458493,32.849407,143.136934,42.762716" />
<rect fill="#7a7b7d" fill-opacity="0.501961" x="175" y="24" width="21" height="3" />
<polygon fill="#919294" fill-opacity="0.501961" points="223.098685,8.515671,227.078477,11.780746,216.305074,17.063972,249.246434,24.100910" />
</g>
</svg>