<svg viewBox="0 0 701.383 591.404" fill="none" stroke-linecap="square" stroke-miterlimit="10" xmlns="http://www.w3.org/2000/svg"><clipPath id="a"><path d="M0 0h701.383v591.404H0V0z"/></clipPath><g clip-path="url(#a)"><path fill="none" d="M0 0h701.383v591.404H0z"/><path fill="#ffd966" d="M257.454 65.727l11-8 24-6 14 2 15-8 38-2h62l45.69 40.36 32.701 66.333 16.816 51.386-3.207 51.921-2 60-33 112-37 81-40 41-26 3-35-14-32-38-43-73-42-42-31-51-13-36-8-47 1-51 16-48 6-37 6-15 21-15 20-8z" fill-rule="evenodd"/><defs><radialGradient id="b" gradientUnits="userSpaceOnUse" gradientTransform="scale(14.90069)" spreadMethod="pad" cx="23.785" cy="26.049" fx="23.785" fy="26.049" r="14.901"><stop offset="0" stop-color="#fff6db"/><stop offset="1" stop-color="#fad25c"/></radialGradient></defs><path fill="url(#b)" d="M243.908 262.908l-8 21-17 17-13 20-2 20 5 22 8 20 29 33 21 18 21 38 22 38 25.312 33.394 21.945 8.086h33.496l18.247-4.48 20-19 20-29 11-30 5-26 16-16 8-29 8-32 8-44-2-25-13-24-19-9-17-6-13 10-11 1-21-8-20-20-16-15-31-1h-29l-24 8-20 12z" fill-rule="evenodd"/><defs><linearGradient id="c" gradientUnits="userSpaceOnUse" gradientTransform="scale(17.75563)" spreadMethod="pad" x1="6.608" y1="30.729" x2="19.163" y2="18.174"><stop offset="0" stop-color="#ff0"/><stop offset=".65" stop-color="#fde92e"/><stop offset="1" stop-color="#fad25c"/></linearGradient></defs><path fill="url(#c)" d="M124.055 175.995l-52.924 70.46L41.1 305.361l14.806 66.992 100.49 97.024 36.96-34.651.21-30.031-6.928-25.41-32.551-88.94-18.483-49.669z" fill-rule="evenodd"/><defs><linearGradient id="d" gradientUnits="userSpaceOnUse" gradientTransform="scale(17.7557)" spreadMethod="pad" x1="45.867" y1="13.262" x2="33.312" y2=".707"><stop offset="0" stop-color="#ff0"/><stop offset=".77" stop-color="#fde92e"/><stop offset="1" stop-color="#fad25c"/></linearGradient></defs><path fill="url(#d)" d="M522.759 81.28l64.682 31.187 40.428 48.512 32.341 68.15-7.142 57.75-32.131 49.67-36.016 53.13-24.047-15.015-27.72-32.341-1.157-56.599-3.674-82.007-5.564-82.008z" fill-rule="evenodd"/><defs><linearGradient id="e" gradientUnits="userSpaceOnUse" gradientTransform="rotate(.028) scale(18.9532)" spreadMethod="pad" x1="22.025" y1="2.034" x2="22.025" y2="20.987"><stop offset="0" stop-color="#ffc002"/><stop offset="1" stop-color="#795b04"/></linearGradient></defs><path fill="url(#e)" d="M417.438 43.163l41.793-4.62 35.806 9.242 20.37 15.016 7.352 18.48v38.115l6.929 71.614 2.31 64.683 1.157 70.46 3.464 16.17 26.567 33.496 23.1 8.087-2.31 13.86-33.496-18.48-31.186-33.499-6.932-24.254 6.168-91.698-1.869-41.108-22.422-57.926L466.16 88.21z" fill-rule="evenodd"/><defs><linearGradient id="f" gradientUnits="userSpaceOnUse" gradientTransform="scale(19.19537)" spreadMethod="pad" x1="6.173" y1="4.836" x2="6.173" y2="24.032"><stop offset="0" stop-color="#ffc002"/><stop offset="1" stop-color="#795b04"/></linearGradient></defs><path fill="url(#f)" d="M180.86 461.294l-12.703-4.62 20.79-21.947 4.62-33.496-13.861-36.96-16.17-40.428-15.016-40.428-16.17-53.132-13.862-36.963 3.467-45.047 12.284-20.79 23.522-21.945 51.767-12.706-25.473 73.472-12.147 26.16-3.737 42.043 5.76 40.824 10.397 43.892 18.48 49.667 3.465 30.031-6.93 35.806z" fill-rule="evenodd"/><defs><linearGradient id="g" gradientUnits="userSpaceOnUse" gradientTransform="scale(9.93907)" spreadMethod="pad" x1="25.807" y1="24.271" x2="25.807" y2="34.21"><stop offset="0" stop-color="#f48208"/><stop offset="1" stop-color="#703e08"/></linearGradient></defs><path fill="url(#g)" d="M260.501 274.228l11.499-18 22.501-9 26-6 22.803 1.761 15.197 4.738L372 262.228l.501 17-2 18-11 17-5.8 13.08-14.2 6.92-23.501 3-16.588 2.785-17.91-6.785-12-11-10.502-17-2.499-17z" fill-rule="evenodd"/><path fill="#2d1701" d="M287.501 311.228l9-6 2.499-15-9.499-12-8.501-3-12 6-6.499 11-2.501 10 9.501 9 8.499 2.499zM323 270.228l10.501-7 12 .499 11 5 6.499 8 .501 15-8.501 4-10.499 2.501-11-1.501-6.501-6-6-8.499z" fill-rule="evenodd"/><path fill="#b76816" d="M461 331.727l4-40.955 11.501 42-4 13.501-8 35.454-10.627 34.52-10.394 27.722-9.241 18.48L424 476.229l-12.86 23.18-15.017 11.552L379 517.365l-18.37 5.147-19.635-1.155-19.635-12.706-6.36-18.286-16.499-22L292 449.864l-16-25-11.499-27 12.499 5.5h11l9.501-5 7 33 1 9-.312 12.843-.688 9.657 14 20.5 26 9.5 31-2 18-13 10.499-18.5 6-22.5 9.501-2.5 8.499-18.5 7.709-8.859.792-40.64 14.499-16z" fill-rule="evenodd"/><defs><linearGradient id="h" gradientUnits="userSpaceOnUse" gradientTransform="scale(11.72403)" spreadMethod="pad" x1="35.722" y1="42.302" x2="35.722" y2="30.578"><stop offset="0" stop-color="#9f4164"/><stop offset="1" stop-color="#540303"/></linearGradient></defs><path fill="url(#h)" d="M296.367 397.766l5.775 27.722 1.36 13.877-1.78 17.31 3.467 9.238L310 477.228l9.47 10.633 19.635 8.084h30.031l18.48-9.239 9.242-10.396 9.24-16.17 8.086-24.258 1.155-30.032 1.154-17.325 2.31-16.17-16.17 5.774-21.945-4.62-24.258-6.929-20.79-8.087-21.947 15.016z" fill-rule="evenodd"/><path fill="#f1c232" d="M256.78 222.617l5.199-20.213.577-13.86 7.507-13.862-2.992-4.462-8.084 2.31-11.446 9.662-18.48 8.661-9.82 9.819-18.48 8.084-11.551 20.215-6.352 28.3-1.735 20.79 4.622 7.506 6.93-27.72 10.396-12.128 16.17-8.664 23.1 4.042z" fill-rule="evenodd"/><path fill="#2d1701" d="M252.727 205.59l1.75 10.25-4.732 5.202-6.769-.202-9.249 1.252-11.25 1.748-10.249.75-16.75 3.25 1.249-4.748 8.75-8.501 7.5-6.5 10.75-2.75 13.501-.501z" fill-rule="evenodd"/><path fill="#f1c232" d="M386.147 189.698l-16.486-23.834-3.254-9.504 6.929-10.397 6.142 1.418 11.55 2.31 9.82 2.312 9.451-6.04 9.24-4.62 5.563-.314 4.36 10.554 35.228 9.239 32.341 27.144-1.732 5.197-28.876-12.126-37.538 5.774-27.145 5.774z" fill-rule="evenodd"/><path fill="#7f6000" d="M467 294.273l9 5 8.501 18 3 22.499-9 19-7 13-6 25L459 422.273l-27 42 14.501-32.501 10-25.499L463 380.772l6-25 6-20-4.499-23z" fill-rule="evenodd"/><path fill="#2d1701" d="M383.727 181.16l7.501 5.25 8 4 5.636-6.546 6.5-3 5.5-1 10.5-1 12.114-2.455 8-3.249 7.498-.75h11.502l-9.751-6-15.75-2.751-18.5 1-13.335-2.525-15.016 4.622z" fill-rule="evenodd"/><path fill="#f1c232" d="M401.268 216.423l10.186 15.304 20 17 16 8 10 4-22 12-23-7-17-19-7-21 1.263-20.856zM241.454 249.727l1 17-9 21-10.276 11.858-6.929 24.258-5.795-26.116 7-17 9-13z" fill-rule="evenodd"/><path fill="none" d="M262.955 252.772l14.5-12 21.5-6.499 21-5.501h28l25.5 4 20.5 15 17 19.501 16.5 4 14.5-1 17.5-8 19 6.499 15.5 13.501 5.5 16.499 4 22 .5 24.501-8 25-7 20-7.5 2.499.5-30 9-24.499-3.5-24-12.5-21.501-11.5-5-1.5 19v18l-3 12.501-10.5 17-12 10.499-14.5 7.501-20 6-23-4-14.5-5.501-15-6.499-10.5-2.501-9.5 1.501-9 8.499-7.5 9-7 8.501-7.5 10-10 6.499-11.5.501-14-6-6.5-7.501"/><path stroke="#fff2cc" stroke-width="8" stroke-linejoin="round" stroke-linecap="round" d="M262.955 252.772l14.5-12 21.5-6.499 21-5.501h28l25.5 4 20.5 15 17 19.501 16.5 4 14.5-1 17.5-8 19 6.499 15.5 13.501 5.5 16.499 4 22 .5 24.501-8 25-7 20-7.5 2.499.5-30 9-24.499-3.5-24-12.5-21.501-11.5-5-1.5 19v18l-3 12.501-10.5 17-12 10.499-14.5 7.501-20 6-23-4-14.5-5.501-15-6.499-10.5-2.501-9.5 1.501-9 8.499-7.5 9-7 8.501-7.5 10-10 6.499-11.5.501-14-6-6.5-7.501"/></g></svg>